%TF.GenerationSoftware,KiCad,Pcbnew,10.0.5*%
%TF.CreationDate,2026-07-28T17:51:11-05:00*%
%TF.ProjectId,mts-clk,6d74732d-636c-46b2-9e6b-696361645f70,rev?*%
%TF.SameCoordinates,Original*%
%TF.FileFunction,Soldermask,Top*%
%TF.FilePolarity,Negative*%
%FSLAX46Y46*%
G04 Gerber Fmt 4.6, Leading zero omitted, Abs format (unit mm)*
G04 Created by KiCad (PCBNEW 10.0.5) date 2026-07-28 17:51:11*
%MOMM*%
%LPD*%
G01*
G04 APERTURE LIST*
G04 Aperture macros list*
%AMRoundRect*
0 Rectangle with rounded corners*
0 $1 Rounding radius*
0 $2 $3 $4 $5 $6 $7 $8 $9 X,Y pos of 4 corners*
0 Add a 4 corners polygon primitive as box body*
4,1,4,$2,$3,$4,$5,$6,$7,$8,$9,$2,$3,0*
0 Add four circle primitives for the rounded corners*
1,1,$1+$1,$2,$3*
1,1,$1+$1,$4,$5*
1,1,$1+$1,$6,$7*
1,1,$1+$1,$8,$9*
0 Add four rect primitives between the rounded corners*
20,1,$1+$1,$2,$3,$4,$5,0*
20,1,$1+$1,$4,$5,$6,$7,0*
20,1,$1+$1,$6,$7,$8,$9,0*
20,1,$1+$1,$8,$9,$2,$3,0*%
%AMFreePoly0*
4,1,11,1.467500,1.700000,0.527500,0.844500,0.527500,-0.844500,1.467500,-1.700000,1.467500,-2.755000,0.527500,-2.755000,-0.527500,-1.700000,-0.527500,1.700000,0.527500,2.755000,1.467500,2.755000,1.467500,1.700000,1.467500,1.700000,$1*%
%AMFreePoly1*
4,1,11,0.527500,1.700000,0.527500,-1.700000,-0.527500,-2.755000,-1.467500,-2.755000,-1.467500,-1.700000,-0.527500,-0.844500,-0.527500,0.844500,-1.467500,1.700000,-1.467500,2.755000,-0.527500,2.755000,0.527500,1.700000,0.527500,1.700000,$1*%
G04 Aperture macros list end*
%ADD10C,3.200000*%
%ADD11RoundRect,0.250000X0.475000X-0.250000X0.475000X0.250000X-0.475000X0.250000X-0.475000X-0.250000X0*%
%ADD12RoundRect,0.200000X0.275000X-0.200000X0.275000X0.200000X-0.275000X0.200000X-0.275000X-0.200000X0*%
%ADD13RoundRect,0.140000X0.140000X0.170000X-0.140000X0.170000X-0.140000X-0.170000X0.140000X-0.170000X0*%
%ADD14C,2.108200*%
%ADD15RoundRect,0.250000X-0.250000X-0.475000X0.250000X-0.475000X0.250000X0.475000X-0.250000X0.475000X0*%
%ADD16RoundRect,0.225000X0.225000X0.250000X-0.225000X0.250000X-0.225000X-0.250000X0.225000X-0.250000X0*%
%ADD17RoundRect,0.250000X0.250000X0.475000X-0.250000X0.475000X-0.250000X-0.475000X0.250000X-0.475000X0*%
%ADD18RoundRect,0.200000X-0.275000X0.200000X-0.275000X-0.200000X0.275000X-0.200000X0.275000X0.200000X0*%
%ADD19RoundRect,0.250000X-0.262500X-0.450000X0.262500X-0.450000X0.262500X0.450000X-0.262500X0.450000X0*%
%ADD20RoundRect,0.225000X-0.225000X-0.250000X0.225000X-0.250000X0.225000X0.250000X-0.225000X0.250000X0*%
%ADD21FreePoly0,90.000000*%
%ADD22FreePoly1,90.000000*%
%ADD23RoundRect,0.140000X0.170000X-0.140000X0.170000X0.140000X-0.170000X0.140000X-0.170000X-0.140000X0*%
%ADD24R,0.812800X0.254000*%
%ADD25R,0.254000X0.812800*%
%ADD26R,2.438400X2.438400*%
%ADD27C,1.066800*%
%ADD28C,1.574800*%
%ADD29RoundRect,0.218750X0.256250X-0.218750X0.256250X0.218750X-0.256250X0.218750X-0.256250X-0.218750X0*%
%ADD30RoundRect,0.250000X-0.475000X0.250000X-0.475000X-0.250000X0.475000X-0.250000X0.475000X0.250000X0*%
%ADD31RoundRect,0.250000X-1.450000X-0.650000X1.450000X-0.650000X1.450000X0.650000X-1.450000X0.650000X0*%
%ADD32RoundRect,0.200000X0.200000X0.275000X-0.200000X0.275000X-0.200000X-0.275000X0.200000X-0.275000X0*%
%ADD33RoundRect,0.250000X-0.450000X0.262500X-0.450000X-0.262500X0.450000X-0.262500X0.450000X0.262500X0*%
%ADD34RoundRect,0.218750X0.218750X0.256250X-0.218750X0.256250X-0.218750X-0.256250X0.218750X-0.256250X0*%
%ADD35RoundRect,0.250000X-0.650000X1.450000X-0.650000X-1.450000X0.650000X-1.450000X0.650000X1.450000X0*%
%ADD36RoundRect,0.140000X-0.140000X-0.170000X0.140000X-0.170000X0.140000X0.170000X-0.140000X0.170000X0*%
%ADD37R,1.520000X1.520000*%
%ADD38R,0.760000X1.650000*%
%ADD39RoundRect,0.200000X-0.200000X-0.275000X0.200000X-0.275000X0.200000X0.275000X-0.200000X0.275000X0*%
%ADD40RoundRect,0.250000X-0.325000X-0.650000X0.325000X-0.650000X0.325000X0.650000X-0.325000X0.650000X0*%
%ADD41RoundRect,0.150000X0.150000X-0.825000X0.150000X0.825000X-0.150000X0.825000X-0.150000X-0.825000X0*%
%ADD42FreePoly0,180.000000*%
%ADD43FreePoly1,180.000000*%
%ADD44C,1.320800*%
%ADD45RoundRect,0.250000X0.650000X-1.450000X0.650000X1.450000X-0.650000X1.450000X-0.650000X-1.450000X0*%
%ADD46RoundRect,0.250000X0.262500X0.450000X-0.262500X0.450000X-0.262500X-0.450000X0.262500X-0.450000X0*%
%ADD47RoundRect,0.140000X-0.170000X0.140000X-0.170000X-0.140000X0.170000X-0.140000X0.170000X0.140000X0*%
G04 APERTURE END LIST*
D10*
%TO.C,REF\u002A\u002A*%
X171750000Y-141925000D03*
%TD*%
%TO.C,REF\u002A\u002A*%
X119875000Y-141900000D03*
%TD*%
%TO.C,REF\u002A\u002A*%
X171750000Y-72450000D03*
%TD*%
%TO.C,REF\u002A\u002A*%
X119875000Y-72450000D03*
%TD*%
D11*
%TO.C,C8*%
X150800000Y-91530000D03*
X150800000Y-89630000D03*
%TD*%
D12*
%TO.C,R14*%
X167210000Y-114680000D03*
X167210000Y-113030000D03*
%TD*%
D13*
%TO.C,C20*%
X122575000Y-130600000D03*
X121615000Y-130600000D03*
%TD*%
D14*
%TO.C,J3*%
X146390000Y-131910000D03*
X143850000Y-129370000D03*
X143850000Y-134450000D03*
X148930000Y-134450000D03*
X148930000Y-129370000D03*
%TD*%
D15*
%TO.C,C6*%
X141200000Y-90660000D03*
X143100000Y-90660000D03*
%TD*%
D16*
%TO.C,C32*%
X127560000Y-89690000D03*
X126010000Y-89690000D03*
%TD*%
D12*
%TO.C,R3*%
X150230000Y-86520000D03*
X150230000Y-84870000D03*
%TD*%
D17*
%TO.C,C16*%
X126675000Y-120825000D03*
X124775000Y-120825000D03*
%TD*%
D15*
%TO.C,C27*%
X171970000Y-119580000D03*
X173870000Y-119580000D03*
%TD*%
%TO.C,C3*%
X141240000Y-97680000D03*
X143140000Y-97680000D03*
%TD*%
D18*
%TO.C,R19*%
X139200000Y-131925000D03*
X139200000Y-133575000D03*
%TD*%
%TO.C,R17*%
X131650000Y-131925000D03*
X131650000Y-133575000D03*
%TD*%
D19*
%TO.C,R5*%
X129630000Y-117910000D03*
X131455000Y-117910000D03*
%TD*%
D20*
%TO.C,C29*%
X118520000Y-115830000D03*
X120070000Y-115830000D03*
%TD*%
D12*
%TO.C,R13*%
X170250000Y-118425000D03*
X170250000Y-116775000D03*
%TD*%
D21*
%TO.C,L1*%
X154160000Y-87540000D03*
D22*
X154160000Y-83085000D03*
%TD*%
D15*
%TO.C,C7*%
X137330000Y-91870000D03*
X139230000Y-91870000D03*
%TD*%
D11*
%TO.C,C23*%
X119225000Y-134350000D03*
X119225000Y-132450000D03*
%TD*%
D23*
%TO.C,C19*%
X128300000Y-117830000D03*
X128300000Y-116870000D03*
%TD*%
D24*
%TO.C,U2*%
X145100000Y-92540001D03*
X145100000Y-93040000D03*
X145100000Y-93540001D03*
X145100000Y-94040001D03*
X145100000Y-94540002D03*
X145100000Y-95040001D03*
D25*
X145755000Y-95695001D03*
X146254999Y-95695001D03*
X146755000Y-95695001D03*
X147255000Y-95695001D03*
X147755001Y-95695001D03*
X148255000Y-95695001D03*
D24*
X148910000Y-95040001D03*
X148910000Y-94540002D03*
X148910000Y-94040001D03*
X148910000Y-93540001D03*
X148910000Y-93040000D03*
X148910000Y-92540001D03*
D25*
X148255000Y-91885001D03*
X147755001Y-91885001D03*
X147255000Y-91885001D03*
X146755000Y-91885001D03*
X146254999Y-91885001D03*
X145755000Y-91885001D03*
D26*
X147005000Y-93790001D03*
%TD*%
D17*
%TO.C,C26*%
X168375000Y-99375000D03*
X166475000Y-99375000D03*
%TD*%
D27*
%TO.C,J4*%
X130049997Y-86170000D03*
X118050001Y-86170000D03*
D28*
X121050000Y-82230000D03*
X124049999Y-82230000D03*
X127049998Y-82230000D03*
X121050000Y-85229999D03*
X124049999Y-85229999D03*
X127049998Y-85229999D03*
%TD*%
D17*
%TO.C,C13*%
X157830000Y-91600000D03*
X155930000Y-91600000D03*
%TD*%
D23*
%TO.C,C2*%
X128740000Y-103290000D03*
X128740000Y-102330000D03*
%TD*%
D29*
%TO.C,L2*%
X152700000Y-91537500D03*
X152700000Y-89962500D03*
%TD*%
D11*
%TO.C,C24*%
X121925000Y-134350000D03*
X121925000Y-132450000D03*
%TD*%
D13*
%TO.C,C1*%
X128730000Y-95310000D03*
X127770000Y-95310000D03*
%TD*%
D18*
%TO.C,R8*%
X160975000Y-91630000D03*
X160975000Y-93280000D03*
%TD*%
%TO.C,R15*%
X165550000Y-108675000D03*
X165550000Y-110325000D03*
%TD*%
D30*
%TO.C,C12*%
X152140000Y-77790000D03*
X152140000Y-79690000D03*
%TD*%
D31*
%TO.C,TP4*%
X167325000Y-125575000D03*
%TD*%
D32*
%TO.C,R6*%
X122675000Y-129175000D03*
X121025000Y-129175000D03*
%TD*%
D11*
%TO.C,C21*%
X126725000Y-127750000D03*
X126725000Y-125850000D03*
%TD*%
D33*
%TO.C,R1*%
X132450000Y-98002500D03*
X132450000Y-99827500D03*
%TD*%
D16*
%TO.C,C34*%
X119760000Y-78410000D03*
X118210000Y-78410000D03*
%TD*%
D14*
%TO.C,J1*%
X120960000Y-100460000D03*
X118420000Y-97920000D03*
X118420000Y-103000000D03*
X123500000Y-103000000D03*
X123500000Y-97920000D03*
%TD*%
D34*
%TO.C,L4*%
X126672500Y-124200000D03*
X125097500Y-124200000D03*
%TD*%
D35*
%TO.C,TP2*%
X135490000Y-82760000D03*
%TD*%
D30*
%TO.C,C15*%
X123440000Y-111350000D03*
X123440000Y-113250000D03*
%TD*%
D36*
%TO.C,C4*%
X145790000Y-97460000D03*
X146750000Y-97460000D03*
%TD*%
D14*
%TO.C,J2*%
X169515000Y-82035000D03*
X166975000Y-79495000D03*
X166975000Y-84575000D03*
X172055000Y-84575000D03*
X172055000Y-79495000D03*
%TD*%
D37*
%TO.C,IC1*%
X138485000Y-106305000D03*
X138485000Y-108845000D03*
X138485000Y-111385000D03*
X138485000Y-113925000D03*
X138485000Y-116465000D03*
X138485000Y-119005000D03*
X138485000Y-121545000D03*
X160075000Y-121545000D03*
X160075000Y-119005000D03*
X160075000Y-116465000D03*
X160075000Y-113925000D03*
X160075000Y-111385000D03*
X160075000Y-108845000D03*
X160075000Y-106305000D03*
%TD*%
D38*
%TO.C,U1*%
X127460000Y-97320000D03*
X128730000Y-97320000D03*
X130000000Y-97320000D03*
X130000000Y-100500000D03*
X128730000Y-100500000D03*
X127460000Y-100500000D03*
%TD*%
D20*
%TO.C,C30*%
X145200000Y-98850000D03*
X146750000Y-98850000D03*
%TD*%
D16*
%TO.C,C10*%
X157930000Y-81090000D03*
X156380000Y-81090000D03*
%TD*%
D11*
%TO.C,C18*%
X133500000Y-118950000D03*
X133500000Y-117050000D03*
%TD*%
D17*
%TO.C,C25*%
X168375000Y-101875000D03*
X166475000Y-101875000D03*
%TD*%
D30*
%TO.C,C11*%
X154410000Y-77790000D03*
X154410000Y-79690000D03*
%TD*%
D32*
%TO.C,R7*%
X126660000Y-122650000D03*
X125010000Y-122650000D03*
%TD*%
D18*
%TO.C,R16*%
X163375000Y-108675000D03*
X163375000Y-110325000D03*
%TD*%
D39*
%TO.C,R9*%
X163365000Y-91620000D03*
X165015000Y-91620000D03*
%TD*%
D32*
%TO.C,R11*%
X171925000Y-124975000D03*
X170275000Y-124975000D03*
%TD*%
D25*
%TO.C,U3*%
X125955000Y-115155000D03*
X125455001Y-115155000D03*
X124955000Y-115155000D03*
X124455000Y-115155000D03*
X123954999Y-115155000D03*
X123455000Y-115155000D03*
D24*
X122800000Y-115810000D03*
X122800000Y-116309999D03*
X122800000Y-116810000D03*
X122800000Y-117310000D03*
X122800000Y-117810001D03*
X122800000Y-118310000D03*
D25*
X123455000Y-118965000D03*
X123954999Y-118965000D03*
X124455000Y-118965000D03*
X124955000Y-118965000D03*
X125455001Y-118965000D03*
X125955000Y-118965000D03*
D24*
X126610000Y-118310000D03*
X126610000Y-117810001D03*
X126610000Y-117310000D03*
X126610000Y-116810000D03*
X126610000Y-116309999D03*
X126610000Y-115810000D03*
D26*
X124705000Y-117060000D03*
%TD*%
D40*
%TO.C,C33*%
X121455000Y-77990000D03*
X124405000Y-77990000D03*
%TD*%
D41*
%TO.C,U4*%
X167750000Y-110530000D03*
X169020000Y-110530000D03*
X170290000Y-110530000D03*
X171560000Y-110530000D03*
X171560000Y-105580000D03*
X170290000Y-105580000D03*
X169020000Y-105580000D03*
X167750000Y-105580000D03*
%TD*%
D15*
%TO.C,C28*%
X170300000Y-114325000D03*
X172200000Y-114325000D03*
%TD*%
D42*
%TO.C,L3*%
X122675000Y-125200000D03*
D43*
X118220000Y-125200000D03*
%TD*%
D39*
%TO.C,R18*%
X134625000Y-131925000D03*
X136275000Y-131925000D03*
%TD*%
D40*
%TO.C,C31*%
X121000000Y-90110000D03*
X123950000Y-90110000D03*
%TD*%
D12*
%TO.C,R4*%
X154300000Y-91560000D03*
X154300000Y-89910000D03*
%TD*%
D44*
%TO.C,J5*%
X170279900Y-129307600D03*
X172279901Y-129307600D03*
%TD*%
D36*
%TO.C,C14*%
X119080000Y-117330000D03*
X120040000Y-117330000D03*
%TD*%
D45*
%TO.C,TP1*%
X142420000Y-82750000D03*
%TD*%
%TO.C,TP3*%
X164125000Y-114175000D03*
%TD*%
D36*
%TO.C,C9*%
X149280000Y-82750000D03*
X150240000Y-82750000D03*
%TD*%
D17*
%TO.C,C17*%
X131475000Y-115790000D03*
X129575000Y-115790000D03*
%TD*%
D46*
%TO.C,R2*%
X143075000Y-92700000D03*
X141250000Y-92700000D03*
%TD*%
D18*
%TO.C,R10*%
X167405000Y-91625000D03*
X167405000Y-93275000D03*
%TD*%
D12*
%TO.C,R12*%
X170250000Y-122450000D03*
X170250000Y-120800000D03*
%TD*%
D20*
%TO.C,C22*%
X117200000Y-129500000D03*
X118750000Y-129500000D03*
%TD*%
D47*
%TO.C,C5*%
X146500000Y-89330000D03*
X146500000Y-90290000D03*
%TD*%
M02*
