%TF.GenerationSoftware,KiCad,Pcbnew,10.0.5*%
%TF.CreationDate,2026-07-28T17:51:11-05:00*%
%TF.ProjectId,mts-clk,6d74732d-636c-46b2-9e6b-696361645f70,rev?*%
%TF.SameCoordinates,Original*%
%TF.FileFunction,Legend,Bot*%
%TF.FilePolarity,Positive*%
%FSLAX46Y46*%
G04 Gerber Fmt 4.6, Leading zero omitted, Abs format (unit mm)*
G04 Created by KiCad (PCBNEW 10.0.5) date 2026-07-28 17:51:11*
%MOMM*%
%LPD*%
G01*
G04 APERTURE LIST*
%ADD10C,0.150000*%
%ADD11C,0.508000*%
%ADD12C,3.200000*%
%ADD13C,2.108200*%
%ADD14C,1.066800*%
%ADD15C,1.574800*%
%ADD16C,1.320800*%
G04 APERTURE END LIST*
D10*
X157886905Y-113654819D02*
X157910714Y-113845295D01*
X157505952Y-113654819D02*
X157529762Y-113845295D01*
X156767857Y-114607200D02*
X156869047Y-114654819D01*
X156869047Y-114654819D02*
X157059524Y-114654819D01*
X157059524Y-114654819D02*
X157148809Y-114607200D01*
X157148809Y-114607200D02*
X157190476Y-114559580D01*
X157190476Y-114559580D02*
X157226190Y-114464342D01*
X157226190Y-114464342D02*
X157190476Y-114178628D01*
X157190476Y-114178628D02*
X157130952Y-114083390D01*
X157130952Y-114083390D02*
X157077381Y-114035771D01*
X157077381Y-114035771D02*
X156976190Y-113988152D01*
X156976190Y-113988152D02*
X156785714Y-113988152D01*
X156785714Y-113988152D02*
X156696428Y-114035771D01*
X156202381Y-114654819D02*
X156291666Y-114607200D01*
X156291666Y-114607200D02*
X156333333Y-114559580D01*
X156333333Y-114559580D02*
X156369047Y-114464342D01*
X156369047Y-114464342D02*
X156333333Y-114178628D01*
X156333333Y-114178628D02*
X156273809Y-114083390D01*
X156273809Y-114083390D02*
X156220238Y-114035771D01*
X156220238Y-114035771D02*
X156119047Y-113988152D01*
X156119047Y-113988152D02*
X155976190Y-113988152D01*
X155976190Y-113988152D02*
X155886904Y-114035771D01*
X155886904Y-114035771D02*
X155845238Y-114083390D01*
X155845238Y-114083390D02*
X155809523Y-114178628D01*
X155809523Y-114178628D02*
X155845238Y-114464342D01*
X155845238Y-114464342D02*
X155904761Y-114559580D01*
X155904761Y-114559580D02*
X155958333Y-114607200D01*
X155958333Y-114607200D02*
X156059523Y-114654819D01*
X156059523Y-114654819D02*
X156202381Y-114654819D01*
X155440476Y-114654819D02*
X155357142Y-113988152D01*
X155369047Y-114083390D02*
X155315476Y-114035771D01*
X155315476Y-114035771D02*
X155214285Y-113988152D01*
X155214285Y-113988152D02*
X155071428Y-113988152D01*
X155071428Y-113988152D02*
X154982142Y-114035771D01*
X154982142Y-114035771D02*
X154946428Y-114131009D01*
X154946428Y-114131009D02*
X155011904Y-114654819D01*
X154946428Y-114131009D02*
X154886904Y-114035771D01*
X154886904Y-114035771D02*
X154785714Y-113988152D01*
X154785714Y-113988152D02*
X154642857Y-113988152D01*
X154642857Y-113988152D02*
X154553571Y-114035771D01*
X154553571Y-114035771D02*
X154517857Y-114131009D01*
X154517857Y-114131009D02*
X154583333Y-114654819D01*
X154023809Y-113988152D02*
X154148809Y-114988152D01*
X154029762Y-114035771D02*
X153928571Y-113988152D01*
X153928571Y-113988152D02*
X153738095Y-113988152D01*
X153738095Y-113988152D02*
X153648809Y-114035771D01*
X153648809Y-114035771D02*
X153607143Y-114083390D01*
X153607143Y-114083390D02*
X153571428Y-114178628D01*
X153571428Y-114178628D02*
X153607143Y-114464342D01*
X153607143Y-114464342D02*
X153666666Y-114559580D01*
X153666666Y-114559580D02*
X153720238Y-114607200D01*
X153720238Y-114607200D02*
X153821428Y-114654819D01*
X153821428Y-114654819D02*
X154011905Y-114654819D01*
X154011905Y-114654819D02*
X154101190Y-114607200D01*
X152690476Y-113988152D02*
X152773809Y-114654819D01*
X153119047Y-113988152D02*
X153184524Y-114511961D01*
X153184524Y-114511961D02*
X153148809Y-114607200D01*
X153148809Y-114607200D02*
X153059524Y-114654819D01*
X153059524Y-114654819D02*
X152916666Y-114654819D01*
X152916666Y-114654819D02*
X152815476Y-114607200D01*
X152815476Y-114607200D02*
X152761904Y-114559580D01*
X152357142Y-113988152D02*
X151976190Y-113988152D01*
X152172619Y-113654819D02*
X152279762Y-114511961D01*
X152279762Y-114511961D02*
X152244047Y-114607200D01*
X152244047Y-114607200D02*
X152154762Y-114654819D01*
X152154762Y-114654819D02*
X152059523Y-114654819D01*
X151297618Y-114654819D02*
X151232142Y-114131009D01*
X151232142Y-114131009D02*
X151267856Y-114035771D01*
X151267856Y-114035771D02*
X151357142Y-113988152D01*
X151357142Y-113988152D02*
X151547618Y-113988152D01*
X151547618Y-113988152D02*
X151648809Y-114035771D01*
X151291666Y-114607200D02*
X151392856Y-114654819D01*
X151392856Y-114654819D02*
X151630952Y-114654819D01*
X151630952Y-114654819D02*
X151720237Y-114607200D01*
X151720237Y-114607200D02*
X151755952Y-114511961D01*
X151755952Y-114511961D02*
X151744047Y-114416723D01*
X151744047Y-114416723D02*
X151684523Y-114321485D01*
X151684523Y-114321485D02*
X151583333Y-114273866D01*
X151583333Y-114273866D02*
X151345237Y-114273866D01*
X151345237Y-114273866D02*
X151244047Y-114226247D01*
X150821428Y-114654819D02*
X150696428Y-113654819D01*
X150392856Y-114654819D02*
X150327380Y-114131009D01*
X150327380Y-114131009D02*
X150363094Y-114035771D01*
X150363094Y-114035771D02*
X150452380Y-113988152D01*
X150452380Y-113988152D02*
X150595237Y-113988152D01*
X150595237Y-113988152D02*
X150696428Y-114035771D01*
X150696428Y-114035771D02*
X150749999Y-114083390D01*
X149863094Y-114607200D02*
X149869047Y-114654819D01*
X149869047Y-114654819D02*
X149928570Y-114750057D01*
X149928570Y-114750057D02*
X149982142Y-114797676D01*
X148166666Y-113988152D02*
X148249999Y-114654819D01*
X148595237Y-113988152D02*
X148660714Y-114511961D01*
X148660714Y-114511961D02*
X148624999Y-114607200D01*
X148624999Y-114607200D02*
X148535714Y-114654819D01*
X148535714Y-114654819D02*
X148392856Y-114654819D01*
X148392856Y-114654819D02*
X148291666Y-114607200D01*
X148291666Y-114607200D02*
X148238094Y-114559580D01*
X147690475Y-113988152D02*
X147773809Y-114654819D01*
X147702380Y-114083390D02*
X147648809Y-114035771D01*
X147648809Y-114035771D02*
X147547618Y-113988152D01*
X147547618Y-113988152D02*
X147404761Y-113988152D01*
X147404761Y-113988152D02*
X147315475Y-114035771D01*
X147315475Y-114035771D02*
X147279761Y-114131009D01*
X147279761Y-114131009D02*
X147345237Y-114654819D01*
X146880951Y-113988152D02*
X146357142Y-113988152D01*
X146357142Y-113988152D02*
X146964285Y-114654819D01*
X146964285Y-114654819D02*
X146440475Y-114654819D01*
X146059523Y-114654819D02*
X145976189Y-113988152D01*
X145934523Y-113654819D02*
X145988094Y-113702438D01*
X145988094Y-113702438D02*
X145946427Y-113750057D01*
X145946427Y-113750057D02*
X145892856Y-113702438D01*
X145892856Y-113702438D02*
X145934523Y-113654819D01*
X145934523Y-113654819D02*
X145946427Y-113750057D01*
X145499999Y-113988152D02*
X145624999Y-114988152D01*
X145505952Y-114035771D02*
X145404761Y-113988152D01*
X145404761Y-113988152D02*
X145214285Y-113988152D01*
X145214285Y-113988152D02*
X145124999Y-114035771D01*
X145124999Y-114035771D02*
X145083333Y-114083390D01*
X145083333Y-114083390D02*
X145047618Y-114178628D01*
X145047618Y-114178628D02*
X145083333Y-114464342D01*
X145083333Y-114464342D02*
X145142856Y-114559580D01*
X145142856Y-114559580D02*
X145196428Y-114607200D01*
X145196428Y-114607200D02*
X145297618Y-114654819D01*
X145297618Y-114654819D02*
X145488095Y-114654819D01*
X145488095Y-114654819D02*
X145577380Y-114607200D01*
X143505951Y-113654819D02*
X143595237Y-114369104D01*
X143595237Y-114369104D02*
X143660713Y-114511961D01*
X143660713Y-114511961D02*
X143767856Y-114607200D01*
X143767856Y-114607200D02*
X143916666Y-114654819D01*
X143916666Y-114654819D02*
X144011904Y-114654819D01*
X142726189Y-114654819D02*
X142660713Y-114131009D01*
X142660713Y-114131009D02*
X142696427Y-114035771D01*
X142696427Y-114035771D02*
X142785713Y-113988152D01*
X142785713Y-113988152D02*
X142976189Y-113988152D01*
X142976189Y-113988152D02*
X143077380Y-114035771D01*
X142720237Y-114607200D02*
X142821427Y-114654819D01*
X142821427Y-114654819D02*
X143059523Y-114654819D01*
X143059523Y-114654819D02*
X143148808Y-114607200D01*
X143148808Y-114607200D02*
X143184523Y-114511961D01*
X143184523Y-114511961D02*
X143172618Y-114416723D01*
X143172618Y-114416723D02*
X143113094Y-114321485D01*
X143113094Y-114321485D02*
X143011904Y-114273866D01*
X143011904Y-114273866D02*
X142773808Y-114273866D01*
X142773808Y-114273866D02*
X142672618Y-114226247D01*
X141815475Y-114607200D02*
X141916665Y-114654819D01*
X141916665Y-114654819D02*
X142107142Y-114654819D01*
X142107142Y-114654819D02*
X142196427Y-114607200D01*
X142196427Y-114607200D02*
X142238094Y-114559580D01*
X142238094Y-114559580D02*
X142273808Y-114464342D01*
X142273808Y-114464342D02*
X142238094Y-114178628D01*
X142238094Y-114178628D02*
X142178570Y-114083390D01*
X142178570Y-114083390D02*
X142124999Y-114035771D01*
X142124999Y-114035771D02*
X142023808Y-113988152D01*
X142023808Y-113988152D02*
X141833332Y-113988152D01*
X141833332Y-113988152D02*
X141744046Y-114035771D01*
X141392856Y-114654819D02*
X141267856Y-113654819D01*
X141249999Y-114273866D02*
X141011903Y-114654819D01*
X140928570Y-113988152D02*
X141357141Y-114369104D01*
X140505951Y-113654819D02*
X140529760Y-113845295D01*
X140124998Y-113654819D02*
X140148808Y-113845295D01*
%TO.C,J4*%
D11*
X116836399Y-82230000D02*
G75*
G02*
X116074399Y-82230000I-381000J0D01*
G01*
X116074399Y-82230000D02*
G75*
G02*
X116836399Y-82230000I381000J0D01*
G01*
%TD*%
%LPC*%
D12*
%TO.C,REF\u002A\u002A*%
X171750000Y-141925000D03*
%TD*%
%TO.C,REF\u002A\u002A*%
X119875000Y-141900000D03*
%TD*%
%TO.C,REF\u002A\u002A*%
X171750000Y-72450000D03*
%TD*%
%TO.C,REF\u002A\u002A*%
X119875000Y-72450000D03*
%TD*%
D13*
%TO.C,J3*%
X146390000Y-131910000D03*
X143850000Y-129370000D03*
X143850000Y-134450000D03*
X148930000Y-134450000D03*
X148930000Y-129370000D03*
%TD*%
D14*
%TO.C,J4*%
X130049997Y-86170000D03*
X118050001Y-86170000D03*
D15*
X121050000Y-82230000D03*
X124049999Y-82230000D03*
X127049998Y-82230000D03*
X121050000Y-85229999D03*
X124049999Y-85229999D03*
X127049998Y-85229999D03*
%TD*%
D13*
%TO.C,J1*%
X120960000Y-100460000D03*
X118420000Y-97920000D03*
X118420000Y-103000000D03*
X123500000Y-103000000D03*
X123500000Y-97920000D03*
%TD*%
%TO.C,J2*%
X169515000Y-82035000D03*
X166975000Y-79495000D03*
X166975000Y-84575000D03*
X172055000Y-84575000D03*
X172055000Y-79495000D03*
%TD*%
D16*
%TO.C,J5*%
X170279900Y-129307600D03*
X172279901Y-129307600D03*
%TD*%
%LPD*%
M02*
