%TF.GenerationSoftware,KiCad,Pcbnew,10.0.5*%
%TF.CreationDate,2026-07-28T17:51:11-05:00*%
%TF.ProjectId,mts-clk,6d74732d-636c-46b2-9e6b-696361645f70,rev?*%
%TF.SameCoordinates,Original*%
%TF.FileFunction,Copper,L2,Inr*%
%TF.FilePolarity,Positive*%
%FSLAX46Y46*%
G04 Gerber Fmt 4.6, Leading zero omitted, Abs format (unit mm)*
G04 Created by KiCad (PCBNEW 10.0.5) date 2026-07-28 17:51:11*
%MOMM*%
%LPD*%
G01*
G04 APERTURE LIST*
%TA.AperFunction,ComponentPad*%
%ADD10C,2.108200*%
%TD*%
%TA.AperFunction,ComponentPad*%
%ADD11C,1.574800*%
%TD*%
%TA.AperFunction,ComponentPad*%
%ADD12C,1.320800*%
%TD*%
%TA.AperFunction,ViaPad*%
%ADD13C,0.600000*%
%TD*%
%TA.AperFunction,ViaPad*%
%ADD14C,0.450000*%
%TD*%
G04 APERTURE END LIST*
D10*
%TO.N,10MHz_DEMOD*%
%TO.C,J3*%
X146390000Y-131910000D03*
%TO.N,GND*%
X143850000Y-129370000D03*
X143850000Y-134450000D03*
X148930000Y-134450000D03*
X148930000Y-129370000D03*
%TD*%
D11*
%TO.N,+15V*%
%TO.C,J4*%
X121050000Y-82230000D03*
X124049999Y-82230000D03*
%TO.N,GND*%
X127049998Y-82230000D03*
X121050000Y-85229999D03*
%TO.N,+5V*%
X124049999Y-85229999D03*
X127049998Y-85229999D03*
%TD*%
D10*
%TO.N,10MHz_INPUT*%
%TO.C,J1*%
X120960000Y-100460000D03*
%TO.N,GND*%
X118420000Y-97920000D03*
X118420000Y-103000000D03*
X123500000Y-103000000D03*
X123500000Y-97920000D03*
%TD*%
%TO.N,10MHz_EOM*%
%TO.C,J2*%
X169515000Y-82035000D03*
%TO.N,GND*%
X166975000Y-79495000D03*
X166975000Y-84575000D03*
X172055000Y-84575000D03*
X172055000Y-79495000D03*
%TD*%
D12*
%TO.N,V_FPGA_PWM*%
%TO.C,J5*%
X170279900Y-129307600D03*
%TO.N,GND*%
X172279901Y-129307600D03*
%TD*%
D13*
%TO.N,GND*%
X166900000Y-72225000D03*
X166900000Y-74175000D03*
X166910000Y-70200000D03*
X169125000Y-75800000D03*
X166925000Y-75800000D03*
X166925000Y-77625000D03*
X132865000Y-139175000D03*
X130865000Y-140850000D03*
X130865000Y-142975000D03*
X128825000Y-139175000D03*
X130865000Y-139175000D03*
X128825000Y-140850000D03*
X128825000Y-142975000D03*
X126775000Y-144650000D03*
X128825000Y-144650000D03*
X126775000Y-139175000D03*
X132865000Y-142975000D03*
X126775000Y-142975000D03*
X126775000Y-140850000D03*
X130865000Y-144650000D03*
X132865000Y-140850000D03*
X132865000Y-144650000D03*
X134900000Y-140850000D03*
X150985000Y-139170000D03*
X146915000Y-139165000D03*
X148915000Y-139165000D03*
X138950000Y-140850000D03*
X146915000Y-140840000D03*
X140990000Y-139175000D03*
X144875000Y-139165000D03*
X134900000Y-139175000D03*
X142990000Y-140850000D03*
X150985000Y-140845000D03*
X148915000Y-140840000D03*
X138950000Y-139175000D03*
X136900000Y-139175000D03*
X136900000Y-140850000D03*
X140990000Y-140850000D03*
X144875000Y-140840000D03*
X142990000Y-139175000D03*
X134900000Y-144650000D03*
X150985000Y-142970000D03*
X146915000Y-142965000D03*
X148915000Y-142965000D03*
X138950000Y-144650000D03*
X146915000Y-144640000D03*
X140990000Y-142975000D03*
X144875000Y-142965000D03*
X134900000Y-142975000D03*
X142990000Y-144650000D03*
X150985000Y-144645000D03*
X148915000Y-144640000D03*
X138950000Y-142975000D03*
X136900000Y-142975000D03*
X136900000Y-144650000D03*
X140990000Y-144650000D03*
X144875000Y-144640000D03*
X142990000Y-142975000D03*
X154550000Y-135450000D03*
X164515000Y-135440000D03*
X162515000Y-135440000D03*
X150500000Y-135450000D03*
X156590000Y-135450000D03*
X158590000Y-135450000D03*
X160475000Y-135440000D03*
X152500000Y-135450000D03*
X150500000Y-131650000D03*
X154550000Y-131650000D03*
X162515000Y-131640000D03*
X158590000Y-131650000D03*
X164515000Y-131640000D03*
X158590000Y-133770000D03*
X152500000Y-131650000D03*
X160475000Y-133760000D03*
X166585000Y-133765000D03*
X166595000Y-131615000D03*
X154550000Y-133770000D03*
X162515000Y-133760000D03*
X160475000Y-131640000D03*
X156590000Y-131650000D03*
X164515000Y-133760000D03*
X150500000Y-133770000D03*
X156590000Y-133770000D03*
X152500000Y-133770000D03*
X162685000Y-74175000D03*
X164725000Y-74175000D03*
X160675000Y-75800000D03*
X164735000Y-70200000D03*
X162695000Y-70200000D03*
X160685000Y-74175000D03*
X164715000Y-75800000D03*
X160695000Y-70200000D03*
X164725000Y-72225000D03*
X162685000Y-72225000D03*
X162675000Y-75800000D03*
X160685000Y-72225000D03*
X130165000Y-74175000D03*
X144465000Y-74175000D03*
X150555000Y-74175000D03*
X136140000Y-75800000D03*
X142455000Y-75800000D03*
X134150000Y-74175000D03*
X132165000Y-74175000D03*
X158630000Y-74175000D03*
X134140000Y-75800000D03*
X158620000Y-75800000D03*
X156580000Y-74175000D03*
X130155000Y-75800000D03*
X136150000Y-74175000D03*
X142465000Y-74175000D03*
X140230000Y-75800000D03*
X154540000Y-74175000D03*
X150545000Y-75800000D03*
X132155000Y-75800000D03*
X152540000Y-74175000D03*
X146505000Y-74175000D03*
X126065000Y-75800000D03*
X148545000Y-75800000D03*
X126075000Y-74175000D03*
X138180000Y-75800000D03*
X148555000Y-74175000D03*
X140240000Y-74175000D03*
X144455000Y-75800000D03*
X156570000Y-75800000D03*
X128115000Y-74175000D03*
X138190000Y-74175000D03*
X146495000Y-75800000D03*
X154530000Y-75800000D03*
X128105000Y-75800000D03*
X152530000Y-75800000D03*
X148565000Y-70200000D03*
X142465000Y-72225000D03*
X154540000Y-72225000D03*
X152550000Y-70200000D03*
X150565000Y-70200000D03*
X142475000Y-70200000D03*
X152540000Y-72225000D03*
X148555000Y-72225000D03*
X154550000Y-70200000D03*
X158630000Y-72225000D03*
X150555000Y-72225000D03*
X144465000Y-72225000D03*
X144475000Y-70200000D03*
X156580000Y-72225000D03*
X158640000Y-70200000D03*
X146515000Y-70200000D03*
X156590000Y-70200000D03*
X146505000Y-72225000D03*
X132165000Y-72225000D03*
X126075000Y-72225000D03*
X138200000Y-70200000D03*
X130175000Y-70200000D03*
X132175000Y-70200000D03*
X130165000Y-72225000D03*
X138190000Y-72225000D03*
X140250000Y-70200000D03*
X134150000Y-72225000D03*
X128125000Y-70200000D03*
X128115000Y-72225000D03*
X134160000Y-70200000D03*
X136150000Y-72225000D03*
X126085000Y-70200000D03*
X136160000Y-70200000D03*
X140240000Y-72225000D03*
X136000000Y-123350000D03*
X161450000Y-109010000D03*
X161450000Y-111050000D03*
X161450000Y-107300000D03*
X161450000Y-105260000D03*
X134725000Y-97225000D03*
X152490000Y-129530000D03*
X152475000Y-97675000D03*
X158590000Y-125260000D03*
X152475000Y-102260000D03*
X146990000Y-93750000D03*
X124940000Y-112200000D03*
X117075000Y-116350000D03*
X156580000Y-129530000D03*
X126825000Y-105725000D03*
X120590000Y-134460000D03*
X140215000Y-102260000D03*
X160575000Y-84350000D03*
X150485000Y-100110000D03*
X140240000Y-125260000D03*
X172275000Y-103365000D03*
X140225000Y-79350000D03*
X134005000Y-112200000D03*
X142275000Y-85535000D03*
X136015000Y-116475000D03*
X136005000Y-87685000D03*
X160475000Y-137115000D03*
X129980000Y-123260000D03*
X166575000Y-118975000D03*
X134005000Y-134200000D03*
X152485000Y-100110000D03*
X147020000Y-94540000D03*
X148450000Y-127410000D03*
X152500000Y-125260000D03*
X156590000Y-137125000D03*
X164515000Y-121125000D03*
X160475000Y-125250000D03*
X174425000Y-99285000D03*
X133665000Y-87675000D03*
X136010000Y-127410000D03*
X140230000Y-137150000D03*
X146450000Y-127410000D03*
X174400000Y-77625000D03*
X167420000Y-94230000D03*
X131980000Y-123260000D03*
X144970000Y-90990000D03*
X154535000Y-95525000D03*
X152500000Y-137125000D03*
X160575000Y-79675000D03*
X166300000Y-89200000D03*
X133650000Y-89500000D03*
X131975000Y-110050000D03*
X129950000Y-107950000D03*
X146435000Y-102260000D03*
X160975000Y-94350000D03*
X174425000Y-89210000D03*
X118850000Y-107960000D03*
X150490000Y-129530000D03*
X172275000Y-99275000D03*
X150820000Y-77750000D03*
X164505000Y-129520000D03*
X162575000Y-89100000D03*
X162525000Y-95575000D03*
X174425000Y-87210000D03*
X166410000Y-98020000D03*
X144425000Y-79350000D03*
X138230000Y-127410000D03*
X123310000Y-134460000D03*
X129150000Y-137150000D03*
X117100000Y-135000000D03*
X128850000Y-104070000D03*
X146445000Y-100110000D03*
X148435000Y-102260000D03*
X146190000Y-92930000D03*
X156580000Y-127410000D03*
X136000000Y-94250000D03*
X148445000Y-100110000D03*
X144280000Y-125260000D03*
X160575000Y-77625000D03*
X170075000Y-92425000D03*
X124720000Y-117790000D03*
X136015000Y-110050000D03*
X118850000Y-110085000D03*
X164525000Y-97675000D03*
X160465000Y-127400000D03*
X164525000Y-118975000D03*
X117900000Y-77260000D03*
X154550000Y-125260000D03*
X120750000Y-93175000D03*
X162505000Y-129520000D03*
X124690000Y-116180000D03*
X174425000Y-97285000D03*
X120750000Y-107960000D03*
X172275000Y-91240000D03*
X142255000Y-102260000D03*
X138235000Y-81400000D03*
X125900000Y-78840000D03*
X142265000Y-100110000D03*
X125550000Y-117770000D03*
X117075000Y-114350000D03*
X164515000Y-125250000D03*
X142280000Y-125260000D03*
X154540000Y-129530000D03*
X172250000Y-115690000D03*
X138225000Y-129325000D03*
X123890000Y-117000000D03*
D14*
X128540000Y-118500000D03*
D13*
X164515000Y-137115000D03*
X133675000Y-85525000D03*
X131100000Y-90250000D03*
X140175000Y-97600000D03*
X148850000Y-81870000D03*
X164515000Y-123245000D03*
X172250000Y-112950000D03*
X117075000Y-110085000D03*
X166585000Y-127375000D03*
X117075000Y-112200000D03*
X117100000Y-118400000D03*
X160460000Y-100100000D03*
X136015000Y-85535000D03*
X173000000Y-124950000D03*
X162525000Y-97675000D03*
X140235000Y-134200000D03*
X154535000Y-100110000D03*
X150475000Y-97675000D03*
X148460000Y-125260000D03*
X146425000Y-79350000D03*
X133675000Y-79350000D03*
X140225000Y-96150000D03*
X142275000Y-134200000D03*
X160575000Y-87025000D03*
X156565000Y-97675000D03*
X117090000Y-137150000D03*
X156590000Y-125260000D03*
X158590000Y-137125000D03*
X166575000Y-129525000D03*
X174425000Y-105375000D03*
X117075000Y-107960000D03*
X162515000Y-121125000D03*
X156565000Y-102260000D03*
X138225000Y-87685000D03*
X120960000Y-91620000D03*
X160465000Y-129520000D03*
X127120000Y-135000000D03*
X138225000Y-83550000D03*
X150500000Y-125260000D03*
X140235000Y-85535000D03*
X122725000Y-93175000D03*
X128630000Y-89700000D03*
X140235000Y-81400000D03*
X126800000Y-93175000D03*
X134000000Y-137150000D03*
X147850000Y-94520000D03*
X146220000Y-94540000D03*
X164775000Y-87025000D03*
X140225000Y-129325000D03*
X174425000Y-91250000D03*
X124825000Y-93175000D03*
X160575000Y-89100000D03*
X172275000Y-87200000D03*
X164775000Y-79675000D03*
X166900000Y-87200000D03*
X156575000Y-95525000D03*
X164775000Y-77625000D03*
X123890000Y-116180000D03*
X154525000Y-102260000D03*
X142265000Y-129325000D03*
X172275000Y-97275000D03*
X160485000Y-97675000D03*
X166410000Y-103290000D03*
X138235000Y-85535000D03*
X164775000Y-82250000D03*
X174425000Y-103375000D03*
X152490000Y-127410000D03*
X117150000Y-130570000D03*
X158580000Y-129530000D03*
X164505000Y-127400000D03*
X136005000Y-112200000D03*
X158580000Y-127410000D03*
X138225000Y-79350000D03*
X138225000Y-134200000D03*
X124690000Y-117000000D03*
X162515000Y-137115000D03*
X136005000Y-134200000D03*
X131650000Y-134450000D03*
X126950000Y-110050000D03*
X162575000Y-87025000D03*
X144950000Y-97510000D03*
X142265000Y-87685000D03*
X136000000Y-137150000D03*
X166565000Y-121125000D03*
X131965000Y-112200000D03*
X126825000Y-107960000D03*
X172275000Y-101315000D03*
X164525000Y-95575000D03*
X162505000Y-127400000D03*
X127110000Y-137150000D03*
X127870000Y-115790000D03*
X138240000Y-125260000D03*
X138225000Y-94275000D03*
X160575000Y-82250000D03*
X124925000Y-107960000D03*
X172275000Y-93290000D03*
X136020000Y-125260000D03*
X129980000Y-125260000D03*
X174425000Y-95300000D03*
X174425000Y-93300000D03*
D14*
X125597027Y-119728160D03*
D13*
X140225000Y-83550000D03*
X147820000Y-93730000D03*
X152485000Y-95525000D03*
X144255000Y-102260000D03*
X154540000Y-127410000D03*
X123920000Y-117790000D03*
X166410000Y-100600000D03*
X129160000Y-135000000D03*
X134015000Y-110050000D03*
X140230000Y-127410000D03*
X140225000Y-87685000D03*
X154550000Y-137125000D03*
X162525000Y-118975000D03*
X151490000Y-93870000D03*
X174400000Y-79675000D03*
X154525000Y-97675000D03*
X121870000Y-116150000D03*
X162515000Y-125250000D03*
X125110000Y-137150000D03*
X117900000Y-134460000D03*
X171825000Y-77625000D03*
X138220000Y-137150000D03*
X144940000Y-96740000D03*
X139200000Y-134440000D03*
X147820000Y-92910000D03*
X129965000Y-112200000D03*
X125520000Y-116980000D03*
X124950000Y-110050000D03*
X144265000Y-100110000D03*
X175000000Y-119560000D03*
X120750000Y-110085000D03*
X118850000Y-93175000D03*
X117100000Y-120400000D03*
X174425000Y-101325000D03*
X133675000Y-94425000D03*
X153310000Y-77750000D03*
X166400000Y-95575000D03*
X125120000Y-135000000D03*
X133125000Y-95375000D03*
X172275000Y-89200000D03*
X156575000Y-89100000D03*
X146460000Y-125260000D03*
X126940000Y-95300000D03*
X129975000Y-110050000D03*
X125520000Y-116160000D03*
X136025000Y-114325000D03*
X117075000Y-93175000D03*
X150490000Y-127410000D03*
X146190000Y-93750000D03*
X172275000Y-95290000D03*
X162515000Y-123245000D03*
X146990000Y-92930000D03*
X150475000Y-102260000D03*
X156575000Y-100110000D03*
X129970000Y-127410000D03*
%TO.N,+5V*%
X119590000Y-131330000D03*
X126080000Y-90860000D03*
X120970000Y-117390000D03*
X120840000Y-130560000D03*
X126390000Y-86890000D03*
X127600000Y-116930000D03*
X150250000Y-83830000D03*
X119810000Y-129750000D03*
X123030000Y-86890000D03*
X147640000Y-98820000D03*
X123850000Y-88110000D03*
X117330000Y-122970000D03*
X125550000Y-86890000D03*
X154660000Y-81880000D03*
X151630000Y-80800000D03*
X126390000Y-88110000D03*
X117880000Y-122420000D03*
X120020000Y-128790000D03*
X117080000Y-125880000D03*
X117080000Y-123900000D03*
X123030000Y-88110000D03*
X121720000Y-117390000D03*
X118680000Y-131330000D03*
X121410000Y-131330000D03*
X125100000Y-89730000D03*
X151030000Y-82750000D03*
X123850000Y-86890000D03*
X125550000Y-88110000D03*
X153630000Y-81880000D03*
X153880000Y-80800000D03*
X152570000Y-81880000D03*
X145740000Y-90290000D03*
X124700000Y-86890000D03*
X124700000Y-88110000D03*
X147490000Y-97420000D03*
X152730000Y-80800000D03*
X117080000Y-126710000D03*
X117080000Y-124730000D03*
X154910000Y-80800000D03*
X125100000Y-90860000D03*
%TO.N,Net-(U3-FDBK)*%
X127675000Y-118800000D03*
X123725000Y-120700000D03*
%TO.N,TDIODE1*%
X150250000Y-94040000D03*
X144220000Y-82850000D03*
%TO.N,+15V*%
X120570000Y-80930000D03*
X120570000Y-80180000D03*
X168910000Y-103220000D03*
X167850000Y-103220000D03*
X123490000Y-80930000D03*
X124490000Y-80930000D03*
X124490000Y-80180000D03*
X168910000Y-97930000D03*
X121570000Y-80180000D03*
X167860000Y-97930000D03*
X120370000Y-77330000D03*
X121570000Y-80930000D03*
X123490000Y-80180000D03*
X120570000Y-79180000D03*
%TO.N,Net-(R15-Pad1)*%
X165550000Y-107450000D03*
X170290000Y-103970000D03*
%TO.N,TDIODE2*%
X122390000Y-119930000D03*
X133590000Y-82740000D03*
%TO.N,GND*%
X169125000Y-77625000D03*
%TD*%
%TA.AperFunction,Conductor*%
%TO.N,GND*%
G36*
X175667539Y-68670185D02*
G01*
X175713294Y-68722989D01*
X175724500Y-68774500D01*
X175724500Y-145575500D01*
X175704815Y-145642539D01*
X175652011Y-145688294D01*
X175600500Y-145699500D01*
X116114000Y-145699500D01*
X116046961Y-145679815D01*
X116001206Y-145627011D01*
X115990000Y-145575500D01*
X115990000Y-141781995D01*
X118074500Y-141781995D01*
X118074500Y-142018004D01*
X118074501Y-142018020D01*
X118105306Y-142252010D01*
X118166394Y-142479993D01*
X118256714Y-142698045D01*
X118256719Y-142698056D01*
X118327677Y-142820957D01*
X118374727Y-142902450D01*
X118374729Y-142902453D01*
X118374730Y-142902454D01*
X118518406Y-143089697D01*
X118518412Y-143089704D01*
X118685295Y-143256587D01*
X118685302Y-143256593D01*
X118717883Y-143281593D01*
X118872550Y-143400273D01*
X119003918Y-143476118D01*
X119076943Y-143518280D01*
X119076948Y-143518282D01*
X119076951Y-143518284D01*
X119295007Y-143608606D01*
X119522986Y-143669693D01*
X119756989Y-143700500D01*
X119756996Y-143700500D01*
X119993004Y-143700500D01*
X119993011Y-143700500D01*
X120227014Y-143669693D01*
X120454993Y-143608606D01*
X120673049Y-143518284D01*
X120877450Y-143400273D01*
X121064699Y-143256592D01*
X121231592Y-143089699D01*
X121375273Y-142902450D01*
X121493284Y-142698049D01*
X121583606Y-142479993D01*
X121644693Y-142252014D01*
X121675500Y-142018011D01*
X121675500Y-141806995D01*
X169949500Y-141806995D01*
X169949500Y-142043004D01*
X169949501Y-142043020D01*
X169980306Y-142277010D01*
X170041394Y-142504993D01*
X170131714Y-142723045D01*
X170131719Y-142723056D01*
X170202677Y-142845957D01*
X170249727Y-142927450D01*
X170249729Y-142927453D01*
X170249730Y-142927454D01*
X170393406Y-143114697D01*
X170393412Y-143114704D01*
X170560295Y-143281587D01*
X170560301Y-143281592D01*
X170747550Y-143425273D01*
X170878918Y-143501118D01*
X170951943Y-143543280D01*
X170951948Y-143543282D01*
X170951951Y-143543284D01*
X171170007Y-143633606D01*
X171397986Y-143694693D01*
X171631989Y-143725500D01*
X171631996Y-143725500D01*
X171868004Y-143725500D01*
X171868011Y-143725500D01*
X172102014Y-143694693D01*
X172329993Y-143633606D01*
X172548049Y-143543284D01*
X172752450Y-143425273D01*
X172939699Y-143281592D01*
X173106592Y-143114699D01*
X173250273Y-142927450D01*
X173368284Y-142723049D01*
X173458606Y-142504993D01*
X173519693Y-142277014D01*
X173550500Y-142043011D01*
X173550500Y-141806989D01*
X173519693Y-141572986D01*
X173458606Y-141345007D01*
X173368284Y-141126951D01*
X173368282Y-141126948D01*
X173368280Y-141126943D01*
X173326118Y-141053918D01*
X173250273Y-140922550D01*
X173106592Y-140735301D01*
X173106587Y-140735295D01*
X172939704Y-140568412D01*
X172939697Y-140568406D01*
X172752454Y-140424730D01*
X172752453Y-140424729D01*
X172752450Y-140424727D01*
X172670957Y-140377677D01*
X172548056Y-140306719D01*
X172548045Y-140306714D01*
X172329993Y-140216394D01*
X172102010Y-140155306D01*
X171868020Y-140124501D01*
X171868017Y-140124500D01*
X171868011Y-140124500D01*
X171631989Y-140124500D01*
X171631983Y-140124500D01*
X171631979Y-140124501D01*
X171397989Y-140155306D01*
X171170006Y-140216394D01*
X170951954Y-140306714D01*
X170951943Y-140306719D01*
X170747545Y-140424730D01*
X170560302Y-140568406D01*
X170560295Y-140568412D01*
X170393412Y-140735295D01*
X170393406Y-140735302D01*
X170249730Y-140922545D01*
X170131719Y-141126943D01*
X170131714Y-141126954D01*
X170041394Y-141345006D01*
X169980306Y-141572989D01*
X169949501Y-141806979D01*
X169949500Y-141806995D01*
X121675500Y-141806995D01*
X121675500Y-141781989D01*
X121644693Y-141547986D01*
X121583606Y-141320007D01*
X121493284Y-141101951D01*
X121493282Y-141101948D01*
X121493280Y-141101943D01*
X121451118Y-141028918D01*
X121375273Y-140897550D01*
X121231592Y-140710301D01*
X121231587Y-140710295D01*
X121064704Y-140543412D01*
X121064697Y-140543406D01*
X120877454Y-140399730D01*
X120877453Y-140399729D01*
X120877450Y-140399727D01*
X120795957Y-140352677D01*
X120673056Y-140281719D01*
X120673045Y-140281714D01*
X120454993Y-140191394D01*
X120227010Y-140130306D01*
X119993020Y-140099501D01*
X119993017Y-140099500D01*
X119993011Y-140099500D01*
X119756989Y-140099500D01*
X119756983Y-140099500D01*
X119756979Y-140099501D01*
X119522989Y-140130306D01*
X119295006Y-140191394D01*
X119076954Y-140281714D01*
X119076943Y-140281719D01*
X118872545Y-140399730D01*
X118685302Y-140543406D01*
X118685295Y-140543412D01*
X118518412Y-140710295D01*
X118518406Y-140710302D01*
X118374730Y-140897545D01*
X118256719Y-141101943D01*
X118256714Y-141101954D01*
X118166394Y-141320006D01*
X118105306Y-141547989D01*
X118074501Y-141781979D01*
X118074500Y-141781995D01*
X115990000Y-141781995D01*
X115990000Y-131251153D01*
X117879500Y-131251153D01*
X117879500Y-131408846D01*
X117910261Y-131563489D01*
X117910264Y-131563501D01*
X117970602Y-131709172D01*
X117970609Y-131709185D01*
X118058210Y-131840288D01*
X118058213Y-131840292D01*
X118169707Y-131951786D01*
X118169711Y-131951789D01*
X118300814Y-132039390D01*
X118300827Y-132039397D01*
X118446498Y-132099735D01*
X118446503Y-132099737D01*
X118601153Y-132130499D01*
X118601156Y-132130500D01*
X118601158Y-132130500D01*
X118758844Y-132130500D01*
X118758845Y-132130499D01*
X118913497Y-132099737D01*
X119059179Y-132039394D01*
X119066108Y-132034763D01*
X119132785Y-132013885D01*
X119200166Y-132032369D01*
X119203888Y-132034761D01*
X119210821Y-132039394D01*
X119210823Y-132039395D01*
X119210825Y-132039396D01*
X119356498Y-132099735D01*
X119356503Y-132099737D01*
X119511153Y-132130499D01*
X119511156Y-132130500D01*
X119511158Y-132130500D01*
X119668844Y-132130500D01*
X119668845Y-132130499D01*
X119823497Y-132099737D01*
X119969179Y-132039394D01*
X120100289Y-131951789D01*
X120211789Y-131840289D01*
X120299394Y-131709179D01*
X120359737Y-131563497D01*
X120378383Y-131469760D01*
X120410768Y-131407849D01*
X120471483Y-131373275D01*
X120541253Y-131377014D01*
X120597925Y-131417881D01*
X120621617Y-131469760D01*
X120640261Y-131563489D01*
X120640264Y-131563501D01*
X120700602Y-131709172D01*
X120700609Y-131709185D01*
X120788210Y-131840288D01*
X120788213Y-131840292D01*
X120899707Y-131951786D01*
X120899711Y-131951789D01*
X121030814Y-132039390D01*
X121030827Y-132039397D01*
X121176498Y-132099735D01*
X121176503Y-132099737D01*
X121331153Y-132130499D01*
X121331156Y-132130500D01*
X121331158Y-132130500D01*
X121488844Y-132130500D01*
X121488845Y-132130499D01*
X121643497Y-132099737D01*
X121789179Y-132039394D01*
X121920289Y-131951789D01*
X122031789Y-131840289D01*
X122066960Y-131787650D01*
X144835400Y-131787650D01*
X144835400Y-132032350D01*
X144836515Y-132039390D01*
X144873680Y-132274037D01*
X144873680Y-132274040D01*
X144949294Y-132506756D01*
X144949296Y-132506759D01*
X145060387Y-132724788D01*
X145204218Y-132922754D01*
X145377246Y-133095782D01*
X145575212Y-133239613D01*
X145793241Y-133350704D01*
X145793243Y-133350705D01*
X146010311Y-133421234D01*
X146025964Y-133426320D01*
X146267650Y-133464600D01*
X146267651Y-133464600D01*
X146512349Y-133464600D01*
X146512350Y-133464600D01*
X146754036Y-133426320D01*
X146754039Y-133426319D01*
X146754040Y-133426319D01*
X146986756Y-133350705D01*
X146986756Y-133350704D01*
X146986759Y-133350704D01*
X147204788Y-133239613D01*
X147402754Y-133095782D01*
X147575782Y-132922754D01*
X147719613Y-132724788D01*
X147830704Y-132506759D01*
X147906320Y-132274036D01*
X147944600Y-132032350D01*
X147944600Y-131787650D01*
X147906320Y-131545964D01*
X147906319Y-131545960D01*
X147906319Y-131545959D01*
X147830705Y-131313243D01*
X147830703Y-131313240D01*
X147808363Y-131269394D01*
X147719613Y-131095212D01*
X147575782Y-130897246D01*
X147402754Y-130724218D01*
X147204788Y-130580387D01*
X146986759Y-130469296D01*
X146986756Y-130469294D01*
X146754038Y-130393680D01*
X146592912Y-130368160D01*
X146512350Y-130355400D01*
X146267650Y-130355400D01*
X146187088Y-130368160D01*
X146025962Y-130393680D01*
X146025959Y-130393680D01*
X145793243Y-130469294D01*
X145793240Y-130469296D01*
X145575211Y-130580387D01*
X145484748Y-130646113D01*
X145377246Y-130724218D01*
X145377244Y-130724220D01*
X145377243Y-130724220D01*
X145204220Y-130897243D01*
X145204220Y-130897244D01*
X145204218Y-130897246D01*
X145165289Y-130950827D01*
X145060387Y-131095211D01*
X144949296Y-131313240D01*
X144949294Y-131313243D01*
X144873680Y-131545959D01*
X144873680Y-131545962D01*
X144873680Y-131545964D01*
X144835400Y-131787650D01*
X122066960Y-131787650D01*
X122070528Y-131782310D01*
X122116249Y-131713887D01*
X122119391Y-131709183D01*
X122119394Y-131709179D01*
X122179737Y-131563497D01*
X122210500Y-131408842D01*
X122210500Y-131251158D01*
X122210500Y-131251155D01*
X122210499Y-131251153D01*
X122179738Y-131096510D01*
X122179737Y-131096503D01*
X122179202Y-131095211D01*
X122119397Y-130950827D01*
X122119390Y-130950814D01*
X122031789Y-130819711D01*
X122031786Y-130819707D01*
X121920292Y-130708213D01*
X121920288Y-130708210D01*
X121789185Y-130620609D01*
X121789172Y-130620602D01*
X121717048Y-130590728D01*
X121662644Y-130546887D01*
X121642730Y-130487057D01*
X121641097Y-130487218D01*
X121640500Y-130481163D01*
X121640500Y-130481158D01*
X121609737Y-130326503D01*
X121582312Y-130260292D01*
X121549397Y-130180827D01*
X121549390Y-130180814D01*
X121461789Y-130049711D01*
X121461786Y-130049707D01*
X121350292Y-129938213D01*
X121350288Y-129938210D01*
X121219185Y-129850609D01*
X121219172Y-129850602D01*
X121073501Y-129790264D01*
X121073489Y-129790261D01*
X120918845Y-129759500D01*
X120918842Y-129759500D01*
X120761158Y-129759500D01*
X120761157Y-129759500D01*
X120754751Y-129760774D01*
X120685160Y-129754545D01*
X120629983Y-129711680D01*
X120608946Y-129663347D01*
X120579738Y-129516510D01*
X120579737Y-129516505D01*
X120579737Y-129516503D01*
X120566289Y-129484037D01*
X120558821Y-129414572D01*
X120590096Y-129352093D01*
X120593155Y-129348921D01*
X120641789Y-129300289D01*
X120697956Y-129216229D01*
X169119000Y-129216229D01*
X169119000Y-129398970D01*
X169147584Y-129579441D01*
X169204053Y-129753233D01*
X169207246Y-129759500D01*
X169287009Y-129916044D01*
X169394415Y-130063876D01*
X169523624Y-130193085D01*
X169671456Y-130300491D01*
X169834269Y-130383448D01*
X170008055Y-130439915D01*
X170075735Y-130450634D01*
X170188530Y-130468500D01*
X170188535Y-130468500D01*
X170371270Y-130468500D01*
X170471531Y-130452619D01*
X170551745Y-130439915D01*
X170725531Y-130383448D01*
X170888344Y-130300491D01*
X171036176Y-130193085D01*
X171165385Y-130063876D01*
X171272791Y-129916044D01*
X171355748Y-129753231D01*
X171412215Y-129579445D01*
X171424919Y-129499231D01*
X171440800Y-129398970D01*
X171440800Y-129216229D01*
X171412215Y-129035758D01*
X171412215Y-129035755D01*
X171355748Y-128861969D01*
X171272791Y-128699156D01*
X171165385Y-128551324D01*
X171036176Y-128422115D01*
X170888344Y-128314709D01*
X170725531Y-128231752D01*
X170551745Y-128175285D01*
X170551743Y-128175284D01*
X170551741Y-128175284D01*
X170371270Y-128146700D01*
X170371265Y-128146700D01*
X170188535Y-128146700D01*
X170188530Y-128146700D01*
X170008058Y-128175284D01*
X169834266Y-128231753D01*
X169671455Y-128314709D01*
X169523621Y-128422117D01*
X169394417Y-128551321D01*
X169287009Y-128699155D01*
X169204053Y-128861966D01*
X169147584Y-129035758D01*
X169119000Y-129216229D01*
X120697956Y-129216229D01*
X120729394Y-129169179D01*
X120744585Y-129132506D01*
X120784658Y-129035758D01*
X120789737Y-129023497D01*
X120820500Y-128868842D01*
X120820500Y-128711158D01*
X120820500Y-128711155D01*
X120820499Y-128711153D01*
X120789738Y-128556510D01*
X120789737Y-128556503D01*
X120734073Y-128422117D01*
X120729397Y-128410827D01*
X120729390Y-128410814D01*
X120641789Y-128279711D01*
X120641786Y-128279707D01*
X120530292Y-128168213D01*
X120530288Y-128168210D01*
X120399185Y-128080609D01*
X120399172Y-128080602D01*
X120253501Y-128020264D01*
X120253489Y-128020261D01*
X120098845Y-127989500D01*
X120098842Y-127989500D01*
X119941158Y-127989500D01*
X119941155Y-127989500D01*
X119786510Y-128020261D01*
X119786498Y-128020264D01*
X119640827Y-128080602D01*
X119640814Y-128080609D01*
X119509711Y-128168210D01*
X119509707Y-128168213D01*
X119398213Y-128279707D01*
X119398210Y-128279711D01*
X119310609Y-128410814D01*
X119310602Y-128410827D01*
X119250264Y-128556498D01*
X119250261Y-128556510D01*
X119219500Y-128711153D01*
X119219500Y-128868846D01*
X119250260Y-129023488D01*
X119250263Y-129023498D01*
X119263709Y-129055959D01*
X119271178Y-129125429D01*
X119239902Y-129187908D01*
X119236830Y-129191091D01*
X119188212Y-129239709D01*
X119188208Y-129239714D01*
X119100609Y-129370814D01*
X119100602Y-129370827D01*
X119040264Y-129516498D01*
X119040261Y-129516510D01*
X119009500Y-129671153D01*
X119009500Y-129828846D01*
X119040261Y-129983489D01*
X119040264Y-129983501D01*
X119100602Y-130129172D01*
X119100609Y-130129185D01*
X119188210Y-130260288D01*
X119188213Y-130260292D01*
X119299707Y-130371786D01*
X119299712Y-130371790D01*
X119302678Y-130373772D01*
X119303881Y-130375211D01*
X119304419Y-130375653D01*
X119304335Y-130375755D01*
X119347484Y-130427384D01*
X119356193Y-130496708D01*
X119326039Y-130559736D01*
X119281242Y-130591436D01*
X119210824Y-130620604D01*
X119210809Y-130620612D01*
X119203886Y-130625238D01*
X119137208Y-130646113D01*
X119069828Y-130627625D01*
X119066114Y-130625238D01*
X119059190Y-130620612D01*
X119059172Y-130620602D01*
X118913501Y-130560264D01*
X118913489Y-130560261D01*
X118758845Y-130529500D01*
X118758842Y-130529500D01*
X118601158Y-130529500D01*
X118601155Y-130529500D01*
X118446510Y-130560261D01*
X118446498Y-130560264D01*
X118300827Y-130620602D01*
X118300814Y-130620609D01*
X118169711Y-130708210D01*
X118169707Y-130708213D01*
X118058213Y-130819707D01*
X118058210Y-130819711D01*
X117970609Y-130950814D01*
X117970602Y-130950827D01*
X117910264Y-131096498D01*
X117910261Y-131096510D01*
X117879500Y-131251153D01*
X115990000Y-131251153D01*
X115990000Y-123821153D01*
X116279500Y-123821153D01*
X116279500Y-123978846D01*
X116310261Y-124133489D01*
X116310264Y-124133501D01*
X116365788Y-124267548D01*
X116373257Y-124337017D01*
X116365788Y-124362452D01*
X116310264Y-124496498D01*
X116310261Y-124496510D01*
X116279500Y-124651153D01*
X116279500Y-124808846D01*
X116310261Y-124963489D01*
X116310264Y-124963501D01*
X116370602Y-125109172D01*
X116370609Y-125109185D01*
X116455417Y-125236109D01*
X116476295Y-125302787D01*
X116457810Y-125370167D01*
X116455417Y-125373891D01*
X116370609Y-125500814D01*
X116370602Y-125500827D01*
X116310264Y-125646498D01*
X116310261Y-125646510D01*
X116279500Y-125801153D01*
X116279500Y-125958846D01*
X116310261Y-126113489D01*
X116310264Y-126113501D01*
X116365788Y-126247548D01*
X116373257Y-126317017D01*
X116365788Y-126342452D01*
X116310264Y-126476498D01*
X116310261Y-126476510D01*
X116279500Y-126631153D01*
X116279500Y-126788846D01*
X116310261Y-126943489D01*
X116310264Y-126943501D01*
X116370602Y-127089172D01*
X116370609Y-127089185D01*
X116458210Y-127220288D01*
X116458213Y-127220292D01*
X116569707Y-127331786D01*
X116569711Y-127331789D01*
X116700814Y-127419390D01*
X116700827Y-127419397D01*
X116846498Y-127479735D01*
X116846503Y-127479737D01*
X117001153Y-127510499D01*
X117001156Y-127510500D01*
X117001158Y-127510500D01*
X117158844Y-127510500D01*
X117158845Y-127510499D01*
X117313497Y-127479737D01*
X117459179Y-127419394D01*
X117590289Y-127331789D01*
X117701789Y-127220289D01*
X117789394Y-127089179D01*
X117849737Y-126943497D01*
X117880500Y-126788842D01*
X117880500Y-126631158D01*
X117880500Y-126631155D01*
X117880499Y-126631153D01*
X117849738Y-126476510D01*
X117849737Y-126476503D01*
X117794212Y-126342452D01*
X117786743Y-126272983D01*
X117794212Y-126247548D01*
X117849735Y-126113501D01*
X117849737Y-126113497D01*
X117880500Y-125958842D01*
X117880500Y-125801158D01*
X117880500Y-125801155D01*
X117880499Y-125801153D01*
X117849738Y-125646510D01*
X117849737Y-125646503D01*
X117849735Y-125646498D01*
X117789397Y-125500827D01*
X117789390Y-125500814D01*
X117704582Y-125373891D01*
X117683704Y-125307214D01*
X117702188Y-125239834D01*
X117704582Y-125236109D01*
X117789390Y-125109185D01*
X117789390Y-125109184D01*
X117789394Y-125109179D01*
X117849737Y-124963497D01*
X117880500Y-124808842D01*
X117880500Y-124651158D01*
X117880500Y-124651155D01*
X117880499Y-124651153D01*
X117849738Y-124496510D01*
X117849737Y-124496503D01*
X117794212Y-124362452D01*
X117786743Y-124292983D01*
X117794212Y-124267548D01*
X117849735Y-124133501D01*
X117849737Y-124133497D01*
X117880500Y-123978842D01*
X117880500Y-123821158D01*
X117880500Y-123821155D01*
X117848704Y-123661310D01*
X117854931Y-123591718D01*
X117882639Y-123549438D01*
X117951789Y-123480289D01*
X118039394Y-123349179D01*
X118084112Y-123241217D01*
X118127951Y-123186817D01*
X118151210Y-123174115D01*
X118259179Y-123129394D01*
X118390289Y-123041789D01*
X118501789Y-122930289D01*
X118589394Y-122799179D01*
X118649737Y-122653497D01*
X118680500Y-122498842D01*
X118680500Y-122341158D01*
X118680500Y-122341155D01*
X118680499Y-122341153D01*
X118649737Y-122186503D01*
X118634112Y-122148780D01*
X118589397Y-122040827D01*
X118589390Y-122040814D01*
X118501789Y-121909711D01*
X118501786Y-121909707D01*
X118390292Y-121798213D01*
X118390288Y-121798210D01*
X118259185Y-121710609D01*
X118259172Y-121710602D01*
X118113501Y-121650264D01*
X118113489Y-121650261D01*
X117958845Y-121619500D01*
X117958842Y-121619500D01*
X117801158Y-121619500D01*
X117801155Y-121619500D01*
X117646510Y-121650261D01*
X117646498Y-121650264D01*
X117500827Y-121710602D01*
X117500814Y-121710609D01*
X117369711Y-121798210D01*
X117369707Y-121798213D01*
X117258213Y-121909707D01*
X117258210Y-121909711D01*
X117170609Y-122040814D01*
X117170604Y-122040823D01*
X117125888Y-122148780D01*
X117082047Y-122203183D01*
X117058780Y-122215888D01*
X116950823Y-122260604D01*
X116950814Y-122260609D01*
X116819711Y-122348210D01*
X116819707Y-122348213D01*
X116708213Y-122459707D01*
X116708210Y-122459711D01*
X116620609Y-122590814D01*
X116620602Y-122590827D01*
X116560264Y-122736498D01*
X116560261Y-122736510D01*
X116529500Y-122891153D01*
X116529500Y-123048846D01*
X116561295Y-123208689D01*
X116555068Y-123278280D01*
X116527360Y-123320561D01*
X116458210Y-123389711D01*
X116370609Y-123520814D01*
X116370602Y-123520827D01*
X116310264Y-123666498D01*
X116310261Y-123666510D01*
X116279500Y-123821153D01*
X115990000Y-123821153D01*
X115990000Y-119851153D01*
X121589500Y-119851153D01*
X121589500Y-120008846D01*
X121620261Y-120163489D01*
X121620264Y-120163501D01*
X121680602Y-120309172D01*
X121680609Y-120309185D01*
X121768210Y-120440288D01*
X121768213Y-120440292D01*
X121879707Y-120551786D01*
X121879711Y-120551789D01*
X122010814Y-120639390D01*
X122010827Y-120639397D01*
X122156498Y-120699735D01*
X122156503Y-120699737D01*
X122308499Y-120729971D01*
X122311153Y-120730499D01*
X122311156Y-120730500D01*
X122311158Y-120730500D01*
X122468844Y-120730500D01*
X122468845Y-120730499D01*
X122623497Y-120699737D01*
X122695574Y-120669882D01*
X122753048Y-120646076D01*
X122822517Y-120638607D01*
X122884996Y-120669882D01*
X122920648Y-120729971D01*
X122924500Y-120760637D01*
X122924500Y-120778846D01*
X122955261Y-120933489D01*
X122955264Y-120933501D01*
X123015602Y-121079172D01*
X123015609Y-121079185D01*
X123103210Y-121210288D01*
X123103213Y-121210292D01*
X123214707Y-121321786D01*
X123214711Y-121321789D01*
X123345814Y-121409390D01*
X123345827Y-121409397D01*
X123491498Y-121469735D01*
X123491503Y-121469737D01*
X123646153Y-121500499D01*
X123646156Y-121500500D01*
X123646158Y-121500500D01*
X123803844Y-121500500D01*
X123803845Y-121500499D01*
X123958497Y-121469737D01*
X124104179Y-121409394D01*
X124235289Y-121321789D01*
X124346789Y-121210289D01*
X124434394Y-121079179D01*
X124494737Y-120933497D01*
X124525500Y-120778842D01*
X124525500Y-120621158D01*
X124525500Y-120621155D01*
X124525499Y-120621153D01*
X124494737Y-120466503D01*
X124483879Y-120440289D01*
X124434397Y-120320827D01*
X124434390Y-120320814D01*
X124346789Y-120189711D01*
X124346786Y-120189707D01*
X124235292Y-120078213D01*
X124235288Y-120078210D01*
X124104185Y-119990609D01*
X124104172Y-119990602D01*
X123958501Y-119930264D01*
X123958489Y-119930261D01*
X123803845Y-119899500D01*
X123803842Y-119899500D01*
X123646158Y-119899500D01*
X123646155Y-119899500D01*
X123491510Y-119930261D01*
X123491507Y-119930262D01*
X123491506Y-119930262D01*
X123491503Y-119930263D01*
X123419431Y-119960116D01*
X123361952Y-119983924D01*
X123292482Y-119991392D01*
X123230003Y-119960116D01*
X123194351Y-119900027D01*
X123190500Y-119869362D01*
X123190500Y-119851155D01*
X123190499Y-119851153D01*
X123159738Y-119696510D01*
X123159737Y-119696503D01*
X123119972Y-119600500D01*
X123099397Y-119550827D01*
X123099390Y-119550814D01*
X123011789Y-119419711D01*
X123011786Y-119419707D01*
X122900292Y-119308213D01*
X122900288Y-119308210D01*
X122769185Y-119220609D01*
X122769172Y-119220602D01*
X122623501Y-119160264D01*
X122623489Y-119160261D01*
X122468845Y-119129500D01*
X122468842Y-119129500D01*
X122311158Y-119129500D01*
X122311155Y-119129500D01*
X122156510Y-119160261D01*
X122156498Y-119160264D01*
X122010827Y-119220602D01*
X122010814Y-119220609D01*
X121879711Y-119308210D01*
X121879707Y-119308213D01*
X121768213Y-119419707D01*
X121768210Y-119419711D01*
X121680609Y-119550814D01*
X121680602Y-119550827D01*
X121620264Y-119696498D01*
X121620261Y-119696510D01*
X121589500Y-119851153D01*
X115990000Y-119851153D01*
X115990000Y-118721153D01*
X126874500Y-118721153D01*
X126874500Y-118878846D01*
X126905261Y-119033489D01*
X126905264Y-119033501D01*
X126965602Y-119179172D01*
X126965609Y-119179185D01*
X127053210Y-119310288D01*
X127053213Y-119310292D01*
X127164707Y-119421786D01*
X127164711Y-119421789D01*
X127295814Y-119509390D01*
X127295827Y-119509397D01*
X127441498Y-119569735D01*
X127441503Y-119569737D01*
X127596153Y-119600499D01*
X127596156Y-119600500D01*
X127596158Y-119600500D01*
X127753844Y-119600500D01*
X127753845Y-119600499D01*
X127908497Y-119569737D01*
X128054179Y-119509394D01*
X128185289Y-119421789D01*
X128296789Y-119310289D01*
X128384394Y-119179179D01*
X128444737Y-119033497D01*
X128475500Y-118878842D01*
X128475500Y-118721158D01*
X128475500Y-118721155D01*
X128475499Y-118721153D01*
X128444738Y-118566510D01*
X128444737Y-118566503D01*
X128444735Y-118566498D01*
X128384397Y-118420827D01*
X128384390Y-118420814D01*
X128296789Y-118289711D01*
X128296786Y-118289707D01*
X128185292Y-118178213D01*
X128185288Y-118178210D01*
X128054185Y-118090609D01*
X128054172Y-118090602D01*
X127908501Y-118030264D01*
X127908489Y-118030261D01*
X127753845Y-117999500D01*
X127753842Y-117999500D01*
X127596158Y-117999500D01*
X127596155Y-117999500D01*
X127441510Y-118030261D01*
X127441498Y-118030264D01*
X127295827Y-118090602D01*
X127295814Y-118090609D01*
X127164711Y-118178210D01*
X127164707Y-118178213D01*
X127053213Y-118289707D01*
X127053210Y-118289711D01*
X126965609Y-118420814D01*
X126965602Y-118420827D01*
X126905264Y-118566498D01*
X126905261Y-118566510D01*
X126874500Y-118721153D01*
X115990000Y-118721153D01*
X115990000Y-117311153D01*
X120169500Y-117311153D01*
X120169500Y-117468846D01*
X120200261Y-117623489D01*
X120200264Y-117623501D01*
X120260602Y-117769172D01*
X120260609Y-117769185D01*
X120348210Y-117900288D01*
X120348213Y-117900292D01*
X120459707Y-118011786D01*
X120459711Y-118011789D01*
X120590814Y-118099390D01*
X120590827Y-118099397D01*
X120736498Y-118159735D01*
X120736503Y-118159737D01*
X120891153Y-118190499D01*
X120891156Y-118190500D01*
X120891158Y-118190500D01*
X121048844Y-118190500D01*
X121048845Y-118190499D01*
X121203497Y-118159737D01*
X121297550Y-118120778D01*
X121367016Y-118113310D01*
X121392443Y-118120775D01*
X121486503Y-118159737D01*
X121641153Y-118190499D01*
X121641156Y-118190500D01*
X121641158Y-118190500D01*
X121798844Y-118190500D01*
X121798845Y-118190499D01*
X121953497Y-118159737D01*
X122066166Y-118113067D01*
X122099172Y-118099397D01*
X122099172Y-118099396D01*
X122099179Y-118099394D01*
X122230289Y-118011789D01*
X122341789Y-117900289D01*
X122429394Y-117769179D01*
X122489737Y-117623497D01*
X122520500Y-117468842D01*
X122520500Y-117311158D01*
X122520500Y-117311155D01*
X122520499Y-117311153D01*
X122491128Y-117163497D01*
X122489737Y-117156503D01*
X122489735Y-117156498D01*
X122429397Y-117010827D01*
X122429390Y-117010814D01*
X122364672Y-116913957D01*
X122341789Y-116879711D01*
X122341786Y-116879707D01*
X122313232Y-116851153D01*
X126799500Y-116851153D01*
X126799500Y-117008846D01*
X126830261Y-117163489D01*
X126830264Y-117163501D01*
X126890602Y-117309172D01*
X126890609Y-117309185D01*
X126978210Y-117440288D01*
X126978213Y-117440292D01*
X127089707Y-117551786D01*
X127089711Y-117551789D01*
X127220814Y-117639390D01*
X127220827Y-117639397D01*
X127366498Y-117699735D01*
X127366503Y-117699737D01*
X127521153Y-117730499D01*
X127521156Y-117730500D01*
X127521158Y-117730500D01*
X127678844Y-117730500D01*
X127678845Y-117730499D01*
X127833497Y-117699737D01*
X127979179Y-117639394D01*
X128110289Y-117551789D01*
X128221789Y-117440289D01*
X128309394Y-117309179D01*
X128369737Y-117163497D01*
X128400500Y-117008842D01*
X128400500Y-116851158D01*
X128400500Y-116851155D01*
X128400499Y-116851153D01*
X128384001Y-116768213D01*
X128369737Y-116696503D01*
X128338157Y-116620261D01*
X128309397Y-116550827D01*
X128309390Y-116550814D01*
X128221789Y-116419711D01*
X128221786Y-116419707D01*
X128110292Y-116308213D01*
X128110288Y-116308210D01*
X127979185Y-116220609D01*
X127979172Y-116220602D01*
X127833501Y-116160264D01*
X127833489Y-116160261D01*
X127678845Y-116129500D01*
X127678842Y-116129500D01*
X127521158Y-116129500D01*
X127521155Y-116129500D01*
X127366510Y-116160261D01*
X127366498Y-116160264D01*
X127220827Y-116220602D01*
X127220814Y-116220609D01*
X127089711Y-116308210D01*
X127089707Y-116308213D01*
X126978213Y-116419707D01*
X126978210Y-116419711D01*
X126890609Y-116550814D01*
X126890602Y-116550827D01*
X126830264Y-116696498D01*
X126830261Y-116696510D01*
X126799500Y-116851153D01*
X122313232Y-116851153D01*
X122230292Y-116768213D01*
X122230288Y-116768210D01*
X122099185Y-116680609D01*
X122099172Y-116680602D01*
X121953501Y-116620264D01*
X121953489Y-116620261D01*
X121798845Y-116589500D01*
X121798842Y-116589500D01*
X121641158Y-116589500D01*
X121641155Y-116589500D01*
X121486510Y-116620261D01*
X121486498Y-116620264D01*
X121392452Y-116659219D01*
X121322982Y-116666688D01*
X121297548Y-116659219D01*
X121203501Y-116620264D01*
X121203489Y-116620261D01*
X121048845Y-116589500D01*
X121048842Y-116589500D01*
X120891158Y-116589500D01*
X120891155Y-116589500D01*
X120736510Y-116620261D01*
X120736498Y-116620264D01*
X120590827Y-116680602D01*
X120590814Y-116680609D01*
X120459711Y-116768210D01*
X120459707Y-116768213D01*
X120348213Y-116879707D01*
X120348210Y-116879711D01*
X120260609Y-117010814D01*
X120260602Y-117010827D01*
X120200264Y-117156498D01*
X120200261Y-117156510D01*
X120169500Y-117311153D01*
X115990000Y-117311153D01*
X115990000Y-107371153D01*
X164749500Y-107371153D01*
X164749500Y-107528846D01*
X164780261Y-107683489D01*
X164780264Y-107683501D01*
X164840602Y-107829172D01*
X164840609Y-107829185D01*
X164928210Y-107960288D01*
X164928213Y-107960292D01*
X165039707Y-108071786D01*
X165039711Y-108071789D01*
X165170814Y-108159390D01*
X165170827Y-108159397D01*
X165316498Y-108219735D01*
X165316503Y-108219737D01*
X165471153Y-108250499D01*
X165471156Y-108250500D01*
X165471158Y-108250500D01*
X165628844Y-108250500D01*
X165628845Y-108250499D01*
X165783497Y-108219737D01*
X165929179Y-108159394D01*
X166060289Y-108071789D01*
X166171789Y-107960289D01*
X166259394Y-107829179D01*
X166319737Y-107683497D01*
X166350500Y-107528842D01*
X166350500Y-107371158D01*
X166350500Y-107371155D01*
X166350499Y-107371153D01*
X166319738Y-107216510D01*
X166319737Y-107216503D01*
X166319735Y-107216498D01*
X166259397Y-107070827D01*
X166259390Y-107070814D01*
X166171789Y-106939711D01*
X166171786Y-106939707D01*
X166060292Y-106828213D01*
X166060288Y-106828210D01*
X165929185Y-106740609D01*
X165929172Y-106740602D01*
X165783501Y-106680264D01*
X165783489Y-106680261D01*
X165628845Y-106649500D01*
X165628842Y-106649500D01*
X165471158Y-106649500D01*
X165471155Y-106649500D01*
X165316510Y-106680261D01*
X165316498Y-106680264D01*
X165170827Y-106740602D01*
X165170814Y-106740609D01*
X165039711Y-106828210D01*
X165039707Y-106828213D01*
X164928213Y-106939707D01*
X164928210Y-106939711D01*
X164840609Y-107070814D01*
X164840602Y-107070827D01*
X164780264Y-107216498D01*
X164780261Y-107216510D01*
X164749500Y-107371153D01*
X115990000Y-107371153D01*
X115990000Y-103141153D01*
X167049500Y-103141153D01*
X167049500Y-103298846D01*
X167080261Y-103453489D01*
X167080264Y-103453501D01*
X167140602Y-103599172D01*
X167140609Y-103599185D01*
X167228210Y-103730288D01*
X167228213Y-103730292D01*
X167339707Y-103841786D01*
X167339711Y-103841789D01*
X167470814Y-103929390D01*
X167470827Y-103929397D01*
X167578546Y-103974015D01*
X167616503Y-103989737D01*
X167771153Y-104020499D01*
X167771156Y-104020500D01*
X167771158Y-104020500D01*
X167928844Y-104020500D01*
X167928845Y-104020499D01*
X168083497Y-103989737D01*
X168229179Y-103929394D01*
X168311109Y-103874649D01*
X168377786Y-103853772D01*
X168445166Y-103872256D01*
X168448888Y-103874648D01*
X168530821Y-103929394D01*
X168530823Y-103929395D01*
X168530827Y-103929397D01*
X168638546Y-103974015D01*
X168676503Y-103989737D01*
X168831153Y-104020499D01*
X168831156Y-104020500D01*
X168831158Y-104020500D01*
X168988844Y-104020500D01*
X168988845Y-104020499D01*
X169143497Y-103989737D01*
X169289179Y-103929394D01*
X169293156Y-103926736D01*
X169296609Y-103924430D01*
X169363286Y-103903552D01*
X169430666Y-103922036D01*
X169477357Y-103974015D01*
X169489500Y-104027532D01*
X169489500Y-104048846D01*
X169520261Y-104203489D01*
X169520264Y-104203501D01*
X169580602Y-104349172D01*
X169580609Y-104349185D01*
X169668210Y-104480288D01*
X169668213Y-104480292D01*
X169779707Y-104591786D01*
X169779711Y-104591789D01*
X169910814Y-104679390D01*
X169910827Y-104679397D01*
X170056498Y-104739735D01*
X170056503Y-104739737D01*
X170211153Y-104770499D01*
X170211156Y-104770500D01*
X170211158Y-104770500D01*
X170368844Y-104770500D01*
X170368845Y-104770499D01*
X170523497Y-104739737D01*
X170669179Y-104679394D01*
X170800289Y-104591789D01*
X170911789Y-104480289D01*
X170999394Y-104349179D01*
X171059737Y-104203497D01*
X171090500Y-104048842D01*
X171090500Y-103891158D01*
X171090500Y-103891155D01*
X171090499Y-103891153D01*
X171076759Y-103822078D01*
X171059737Y-103736503D01*
X171057163Y-103730288D01*
X170999397Y-103590827D01*
X170999390Y-103590814D01*
X170911789Y-103459711D01*
X170911786Y-103459707D01*
X170800292Y-103348213D01*
X170800288Y-103348210D01*
X170669185Y-103260609D01*
X170669172Y-103260602D01*
X170523501Y-103200264D01*
X170523489Y-103200261D01*
X170368845Y-103169500D01*
X170368842Y-103169500D01*
X170211158Y-103169500D01*
X170211155Y-103169500D01*
X170056510Y-103200261D01*
X170056498Y-103200264D01*
X169910827Y-103260602D01*
X169910816Y-103260608D01*
X169903386Y-103265573D01*
X169836707Y-103286447D01*
X169769328Y-103267959D01*
X169722640Y-103215978D01*
X169710500Y-103162467D01*
X169710500Y-103141155D01*
X169710499Y-103141153D01*
X169679738Y-102986510D01*
X169679737Y-102986503D01*
X169679735Y-102986498D01*
X169619397Y-102840827D01*
X169619390Y-102840814D01*
X169531789Y-102709711D01*
X169531786Y-102709707D01*
X169420292Y-102598213D01*
X169420288Y-102598210D01*
X169289185Y-102510609D01*
X169289172Y-102510602D01*
X169143501Y-102450264D01*
X169143489Y-102450261D01*
X168988845Y-102419500D01*
X168988842Y-102419500D01*
X168831158Y-102419500D01*
X168831155Y-102419500D01*
X168676510Y-102450261D01*
X168676498Y-102450264D01*
X168530827Y-102510602D01*
X168530814Y-102510609D01*
X168448891Y-102565349D01*
X168382213Y-102586227D01*
X168314833Y-102567742D01*
X168311109Y-102565349D01*
X168229185Y-102510609D01*
X168229172Y-102510602D01*
X168083501Y-102450264D01*
X168083489Y-102450261D01*
X167928845Y-102419500D01*
X167928842Y-102419500D01*
X167771158Y-102419500D01*
X167771155Y-102419500D01*
X167616510Y-102450261D01*
X167616498Y-102450264D01*
X167470827Y-102510602D01*
X167470814Y-102510609D01*
X167339711Y-102598210D01*
X167339707Y-102598213D01*
X167228213Y-102709707D01*
X167228210Y-102709711D01*
X167140609Y-102840814D01*
X167140602Y-102840827D01*
X167080264Y-102986498D01*
X167080261Y-102986510D01*
X167049500Y-103141153D01*
X115990000Y-103141153D01*
X115990000Y-100337650D01*
X119405400Y-100337650D01*
X119405400Y-100582349D01*
X119443680Y-100824037D01*
X119443680Y-100824040D01*
X119519294Y-101056756D01*
X119519296Y-101056759D01*
X119630387Y-101274788D01*
X119774218Y-101472754D01*
X119947246Y-101645782D01*
X120145212Y-101789613D01*
X120363241Y-101900704D01*
X120363243Y-101900705D01*
X120580311Y-101971234D01*
X120595964Y-101976320D01*
X120837650Y-102014600D01*
X120837651Y-102014600D01*
X121082349Y-102014600D01*
X121082350Y-102014600D01*
X121324036Y-101976320D01*
X121324039Y-101976319D01*
X121324040Y-101976319D01*
X121556756Y-101900705D01*
X121556756Y-101900704D01*
X121556759Y-101900704D01*
X121774788Y-101789613D01*
X121972754Y-101645782D01*
X122145782Y-101472754D01*
X122289613Y-101274788D01*
X122400704Y-101056759D01*
X122476320Y-100824036D01*
X122514600Y-100582350D01*
X122514600Y-100337650D01*
X122476320Y-100095964D01*
X122476319Y-100095960D01*
X122476319Y-100095959D01*
X122400705Y-99863243D01*
X122400703Y-99863240D01*
X122289612Y-99645211D01*
X122145782Y-99447246D01*
X121972754Y-99274218D01*
X121774788Y-99130387D01*
X121556759Y-99019296D01*
X121556756Y-99019294D01*
X121324038Y-98943680D01*
X121162912Y-98918160D01*
X121082350Y-98905400D01*
X120837650Y-98905400D01*
X120757088Y-98918160D01*
X120595962Y-98943680D01*
X120595959Y-98943680D01*
X120363243Y-99019294D01*
X120363240Y-99019296D01*
X120145211Y-99130387D01*
X120050538Y-99199172D01*
X119947246Y-99274218D01*
X119947244Y-99274220D01*
X119947243Y-99274220D01*
X119774220Y-99447243D01*
X119774220Y-99447244D01*
X119774218Y-99447246D01*
X119714537Y-99529390D01*
X119630387Y-99645211D01*
X119519296Y-99863240D01*
X119519294Y-99863243D01*
X119443680Y-100095959D01*
X119443680Y-100095962D01*
X119405400Y-100337650D01*
X115990000Y-100337650D01*
X115990000Y-97341153D01*
X146689500Y-97341153D01*
X146689500Y-97498846D01*
X146720261Y-97653489D01*
X146720264Y-97653501D01*
X146780602Y-97799172D01*
X146780609Y-97799185D01*
X146868210Y-97930288D01*
X146868213Y-97930292D01*
X146979707Y-98041786D01*
X146979711Y-98041789D01*
X147037766Y-98080581D01*
X147082571Y-98134194D01*
X147091278Y-98203519D01*
X147061123Y-98266546D01*
X147056557Y-98271363D01*
X147018214Y-98309706D01*
X147018210Y-98309711D01*
X146930609Y-98440814D01*
X146930602Y-98440827D01*
X146870264Y-98586498D01*
X146870261Y-98586510D01*
X146839500Y-98741153D01*
X146839500Y-98898846D01*
X146870261Y-99053489D01*
X146870264Y-99053501D01*
X146930602Y-99199172D01*
X146930609Y-99199185D01*
X147018210Y-99330288D01*
X147018213Y-99330292D01*
X147129707Y-99441786D01*
X147129711Y-99441789D01*
X147260814Y-99529390D01*
X147260827Y-99529397D01*
X147406498Y-99589735D01*
X147406503Y-99589737D01*
X147561153Y-99620499D01*
X147561156Y-99620500D01*
X147561158Y-99620500D01*
X147718844Y-99620500D01*
X147718845Y-99620499D01*
X147873497Y-99589737D01*
X148019179Y-99529394D01*
X148150289Y-99441789D01*
X148261789Y-99330289D01*
X148349394Y-99199179D01*
X148409737Y-99053497D01*
X148440500Y-98898842D01*
X148440500Y-98741158D01*
X148440500Y-98741155D01*
X148440499Y-98741153D01*
X148420258Y-98639397D01*
X148409737Y-98586503D01*
X148409362Y-98585597D01*
X148349397Y-98440827D01*
X148349390Y-98440814D01*
X148261789Y-98309711D01*
X148261786Y-98309707D01*
X148150291Y-98198212D01*
X148133443Y-98186954D01*
X148092231Y-98159418D01*
X148047428Y-98105808D01*
X148038720Y-98036483D01*
X148068874Y-97973455D01*
X148073443Y-97968635D01*
X148111786Y-97930292D01*
X148111789Y-97930289D01*
X148164666Y-97851153D01*
X167059500Y-97851153D01*
X167059500Y-98008846D01*
X167090261Y-98163489D01*
X167090264Y-98163501D01*
X167150602Y-98309172D01*
X167150609Y-98309185D01*
X167238210Y-98440288D01*
X167238213Y-98440292D01*
X167349707Y-98551786D01*
X167349711Y-98551789D01*
X167480814Y-98639390D01*
X167480827Y-98639397D01*
X167626498Y-98699735D01*
X167626503Y-98699737D01*
X167781153Y-98730499D01*
X167781156Y-98730500D01*
X167781158Y-98730500D01*
X167938844Y-98730500D01*
X167938845Y-98730499D01*
X168093497Y-98699737D01*
X168239179Y-98639394D01*
X168316109Y-98587991D01*
X168382786Y-98567113D01*
X168450166Y-98585597D01*
X168453891Y-98587991D01*
X168530821Y-98639394D01*
X168530823Y-98639395D01*
X168530827Y-98639397D01*
X168676498Y-98699735D01*
X168676503Y-98699737D01*
X168831153Y-98730499D01*
X168831156Y-98730500D01*
X168831158Y-98730500D01*
X168988844Y-98730500D01*
X168988845Y-98730499D01*
X169143497Y-98699737D01*
X169289179Y-98639394D01*
X169420289Y-98551789D01*
X169531789Y-98440289D01*
X169619394Y-98309179D01*
X169679737Y-98163497D01*
X169710500Y-98008842D01*
X169710500Y-97851158D01*
X169710500Y-97851155D01*
X169710499Y-97851153D01*
X169699849Y-97797611D01*
X169679737Y-97696503D01*
X169661925Y-97653501D01*
X169619397Y-97550827D01*
X169619390Y-97550814D01*
X169531789Y-97419711D01*
X169531786Y-97419707D01*
X169420292Y-97308213D01*
X169420288Y-97308210D01*
X169289185Y-97220609D01*
X169289172Y-97220602D01*
X169143501Y-97160264D01*
X169143489Y-97160261D01*
X168988845Y-97129500D01*
X168988842Y-97129500D01*
X168831158Y-97129500D01*
X168831155Y-97129500D01*
X168676510Y-97160261D01*
X168676498Y-97160264D01*
X168530827Y-97220602D01*
X168530809Y-97220612D01*
X168453890Y-97272008D01*
X168387213Y-97292886D01*
X168319833Y-97274401D01*
X168316110Y-97272008D01*
X168239190Y-97220612D01*
X168239172Y-97220602D01*
X168093501Y-97160264D01*
X168093489Y-97160261D01*
X167938845Y-97129500D01*
X167938842Y-97129500D01*
X167781158Y-97129500D01*
X167781155Y-97129500D01*
X167626510Y-97160261D01*
X167626498Y-97160264D01*
X167480827Y-97220602D01*
X167480814Y-97220609D01*
X167349711Y-97308210D01*
X167349707Y-97308213D01*
X167238213Y-97419707D01*
X167238210Y-97419711D01*
X167150609Y-97550814D01*
X167150602Y-97550827D01*
X167090264Y-97696498D01*
X167090261Y-97696510D01*
X167059500Y-97851153D01*
X148164666Y-97851153D01*
X148199394Y-97799179D01*
X148199709Y-97798417D01*
X148200044Y-97797611D01*
X148200044Y-97797610D01*
X148213914Y-97764123D01*
X148259737Y-97653497D01*
X148290500Y-97498842D01*
X148290500Y-97341158D01*
X148290500Y-97341155D01*
X148290499Y-97341153D01*
X148276745Y-97272008D01*
X148259737Y-97186503D01*
X148236126Y-97129500D01*
X148199397Y-97040827D01*
X148199390Y-97040814D01*
X148111789Y-96909711D01*
X148111786Y-96909707D01*
X148000292Y-96798213D01*
X148000288Y-96798210D01*
X147869185Y-96710609D01*
X147869172Y-96710602D01*
X147723501Y-96650264D01*
X147723489Y-96650261D01*
X147568845Y-96619500D01*
X147568842Y-96619500D01*
X147411158Y-96619500D01*
X147411155Y-96619500D01*
X147256510Y-96650261D01*
X147256498Y-96650264D01*
X147110827Y-96710602D01*
X147110814Y-96710609D01*
X146979711Y-96798210D01*
X146979707Y-96798213D01*
X146868213Y-96909707D01*
X146868210Y-96909711D01*
X146780609Y-97040814D01*
X146780602Y-97040827D01*
X146720264Y-97186498D01*
X146720261Y-97186510D01*
X146689500Y-97341153D01*
X115990000Y-97341153D01*
X115990000Y-93961153D01*
X149449500Y-93961153D01*
X149449500Y-94118846D01*
X149480261Y-94273489D01*
X149480264Y-94273501D01*
X149540602Y-94419172D01*
X149540609Y-94419185D01*
X149628210Y-94550288D01*
X149628213Y-94550292D01*
X149739707Y-94661786D01*
X149739711Y-94661789D01*
X149870814Y-94749390D01*
X149870827Y-94749397D01*
X150016498Y-94809735D01*
X150016503Y-94809737D01*
X150171153Y-94840499D01*
X150171156Y-94840500D01*
X150171158Y-94840500D01*
X150328844Y-94840500D01*
X150328845Y-94840499D01*
X150483497Y-94809737D01*
X150629179Y-94749394D01*
X150760289Y-94661789D01*
X150871789Y-94550289D01*
X150959394Y-94419179D01*
X151019737Y-94273497D01*
X151050500Y-94118842D01*
X151050500Y-93961158D01*
X151050500Y-93961155D01*
X151050499Y-93961153D01*
X151019738Y-93806510D01*
X151019737Y-93806503D01*
X151019735Y-93806498D01*
X150959397Y-93660827D01*
X150959390Y-93660814D01*
X150871789Y-93529711D01*
X150871786Y-93529707D01*
X150760292Y-93418213D01*
X150760288Y-93418210D01*
X150629185Y-93330609D01*
X150629172Y-93330602D01*
X150483501Y-93270264D01*
X150483489Y-93270261D01*
X150328845Y-93239500D01*
X150328842Y-93239500D01*
X150171158Y-93239500D01*
X150171155Y-93239500D01*
X150016510Y-93270261D01*
X150016498Y-93270264D01*
X149870827Y-93330602D01*
X149870814Y-93330609D01*
X149739711Y-93418210D01*
X149739707Y-93418213D01*
X149628213Y-93529707D01*
X149628210Y-93529711D01*
X149540609Y-93660814D01*
X149540602Y-93660827D01*
X149480264Y-93806498D01*
X149480261Y-93806510D01*
X149449500Y-93961153D01*
X115990000Y-93961153D01*
X115990000Y-86097712D01*
X117316101Y-86097712D01*
X117316101Y-86242287D01*
X117344302Y-86384063D01*
X117344304Y-86384071D01*
X117399625Y-86517629D01*
X117479943Y-86637833D01*
X117479946Y-86637837D01*
X117582163Y-86740054D01*
X117582167Y-86740057D01*
X117702369Y-86820374D01*
X117835930Y-86875697D01*
X117977713Y-86903899D01*
X117977717Y-86903900D01*
X117977718Y-86903900D01*
X118122285Y-86903900D01*
X118122286Y-86903899D01*
X118264072Y-86875697D01*
X118397633Y-86820374D01*
X118411433Y-86811153D01*
X122229500Y-86811153D01*
X122229500Y-86968846D01*
X122260261Y-87123489D01*
X122260264Y-87123501D01*
X122320602Y-87269172D01*
X122320609Y-87269185D01*
X122408210Y-87400288D01*
X122408213Y-87400292D01*
X122420240Y-87412319D01*
X122453725Y-87473642D01*
X122448741Y-87543334D01*
X122420240Y-87587681D01*
X122408213Y-87599707D01*
X122408210Y-87599711D01*
X122320609Y-87730814D01*
X122320602Y-87730827D01*
X122260264Y-87876498D01*
X122260261Y-87876510D01*
X122229500Y-88031153D01*
X122229500Y-88188846D01*
X122260261Y-88343489D01*
X122260264Y-88343501D01*
X122320602Y-88489172D01*
X122320609Y-88489185D01*
X122408210Y-88620288D01*
X122408213Y-88620292D01*
X122519707Y-88731786D01*
X122519711Y-88731789D01*
X122650814Y-88819390D01*
X122650827Y-88819397D01*
X122796498Y-88879735D01*
X122796503Y-88879737D01*
X122951153Y-88910499D01*
X122951156Y-88910500D01*
X122951158Y-88910500D01*
X123108844Y-88910500D01*
X123108845Y-88910499D01*
X123263497Y-88879737D01*
X123336104Y-88849662D01*
X123392548Y-88826283D01*
X123462017Y-88818814D01*
X123487452Y-88826283D01*
X123616498Y-88879735D01*
X123616503Y-88879737D01*
X123771153Y-88910499D01*
X123771156Y-88910500D01*
X123771158Y-88910500D01*
X123928844Y-88910500D01*
X123928845Y-88910499D01*
X124083497Y-88879737D01*
X124148033Y-88853005D01*
X124227548Y-88820070D01*
X124297017Y-88812601D01*
X124322452Y-88820070D01*
X124466498Y-88879735D01*
X124466503Y-88879737D01*
X124532621Y-88892888D01*
X124594529Y-88925272D01*
X124629104Y-88985987D01*
X124625365Y-89055757D01*
X124592612Y-89102497D01*
X124594018Y-89103903D01*
X124478213Y-89219707D01*
X124478210Y-89219711D01*
X124390609Y-89350814D01*
X124390602Y-89350827D01*
X124330264Y-89496498D01*
X124330261Y-89496510D01*
X124299500Y-89651153D01*
X124299500Y-89808846D01*
X124330261Y-89963489D01*
X124330264Y-89963501D01*
X124390602Y-90109172D01*
X124390612Y-90109190D01*
X124468735Y-90226110D01*
X124489613Y-90292787D01*
X124471128Y-90360167D01*
X124468735Y-90363890D01*
X124390612Y-90480809D01*
X124390602Y-90480827D01*
X124330264Y-90626498D01*
X124330261Y-90626510D01*
X124299500Y-90781153D01*
X124299500Y-90938846D01*
X124330261Y-91093489D01*
X124330264Y-91093501D01*
X124390602Y-91239172D01*
X124390609Y-91239185D01*
X124478210Y-91370288D01*
X124478213Y-91370292D01*
X124589707Y-91481786D01*
X124589711Y-91481789D01*
X124720814Y-91569390D01*
X124720827Y-91569397D01*
X124866498Y-91629735D01*
X124866503Y-91629737D01*
X125021153Y-91660499D01*
X125021156Y-91660500D01*
X125021158Y-91660500D01*
X125178844Y-91660500D01*
X125178845Y-91660499D01*
X125333497Y-91629737D01*
X125479179Y-91569394D01*
X125521109Y-91541376D01*
X125587785Y-91520498D01*
X125655165Y-91538982D01*
X125658866Y-91541360D01*
X125700821Y-91569394D01*
X125700823Y-91569395D01*
X125700825Y-91569396D01*
X125846498Y-91629735D01*
X125846503Y-91629737D01*
X126001153Y-91660499D01*
X126001156Y-91660500D01*
X126001158Y-91660500D01*
X126158844Y-91660500D01*
X126158845Y-91660499D01*
X126313497Y-91629737D01*
X126459179Y-91569394D01*
X126590289Y-91481789D01*
X126701789Y-91370289D01*
X126789394Y-91239179D01*
X126849737Y-91093497D01*
X126880500Y-90938842D01*
X126880500Y-90781158D01*
X126880500Y-90781155D01*
X126880499Y-90781153D01*
X126849738Y-90626510D01*
X126849737Y-90626503D01*
X126807068Y-90523489D01*
X126789397Y-90480827D01*
X126789390Y-90480814D01*
X126701789Y-90349711D01*
X126701786Y-90349707D01*
X126590292Y-90238213D01*
X126590288Y-90238210D01*
X126549795Y-90211153D01*
X144939500Y-90211153D01*
X144939500Y-90368846D01*
X144970261Y-90523489D01*
X144970264Y-90523501D01*
X145030602Y-90669172D01*
X145030609Y-90669185D01*
X145118210Y-90800288D01*
X145118213Y-90800292D01*
X145229707Y-90911786D01*
X145229711Y-90911789D01*
X145360814Y-90999390D01*
X145360827Y-90999397D01*
X145506498Y-91059735D01*
X145506503Y-91059737D01*
X145661153Y-91090499D01*
X145661156Y-91090500D01*
X145661158Y-91090500D01*
X145818844Y-91090500D01*
X145818845Y-91090499D01*
X145973497Y-91059737D01*
X146119179Y-90999394D01*
X146250289Y-90911789D01*
X146361789Y-90800289D01*
X146449394Y-90669179D01*
X146509737Y-90523497D01*
X146540500Y-90368842D01*
X146540500Y-90211158D01*
X146540500Y-90211155D01*
X146540499Y-90211153D01*
X146528455Y-90150606D01*
X146509737Y-90056503D01*
X146449596Y-89911308D01*
X146449397Y-89910827D01*
X146449390Y-89910814D01*
X146361789Y-89779711D01*
X146361786Y-89779707D01*
X146250292Y-89668213D01*
X146250288Y-89668210D01*
X146119185Y-89580609D01*
X146119172Y-89580602D01*
X145973501Y-89520264D01*
X145973489Y-89520261D01*
X145818845Y-89489500D01*
X145818842Y-89489500D01*
X145661158Y-89489500D01*
X145661155Y-89489500D01*
X145506510Y-89520261D01*
X145506498Y-89520264D01*
X145360827Y-89580602D01*
X145360814Y-89580609D01*
X145229711Y-89668210D01*
X145229707Y-89668213D01*
X145118213Y-89779707D01*
X145118210Y-89779711D01*
X145030609Y-89910814D01*
X145030602Y-89910827D01*
X144970264Y-90056498D01*
X144970261Y-90056510D01*
X144939500Y-90211153D01*
X126549795Y-90211153D01*
X126459185Y-90150609D01*
X126459172Y-90150602D01*
X126313501Y-90090264D01*
X126313489Y-90090261D01*
X126158845Y-90059500D01*
X126158842Y-90059500D01*
X126001735Y-90059500D01*
X125934696Y-90039815D01*
X125888941Y-89987011D01*
X125878997Y-89917853D01*
X125880118Y-89911308D01*
X125900500Y-89808844D01*
X125900500Y-89651155D01*
X125900499Y-89651153D01*
X125874463Y-89520263D01*
X125869737Y-89496503D01*
X125866836Y-89489500D01*
X125809397Y-89350827D01*
X125809390Y-89350814D01*
X125721789Y-89219711D01*
X125721786Y-89219707D01*
X125612499Y-89110420D01*
X125579014Y-89049097D01*
X125583998Y-88979405D01*
X125625870Y-88923472D01*
X125675989Y-88901122D01*
X125701579Y-88896031D01*
X125783497Y-88879737D01*
X125850331Y-88852053D01*
X125922548Y-88822141D01*
X125992017Y-88814672D01*
X126017452Y-88822141D01*
X126156498Y-88879735D01*
X126156503Y-88879737D01*
X126311153Y-88910499D01*
X126311156Y-88910500D01*
X126311158Y-88910500D01*
X126468844Y-88910500D01*
X126468845Y-88910499D01*
X126623497Y-88879737D01*
X126769179Y-88819394D01*
X126900289Y-88731789D01*
X127011789Y-88620289D01*
X127099394Y-88489179D01*
X127159737Y-88343497D01*
X127190500Y-88188842D01*
X127190500Y-88031158D01*
X127190500Y-88031155D01*
X127190499Y-88031153D01*
X127159738Y-87876510D01*
X127159737Y-87876503D01*
X127159735Y-87876498D01*
X127099397Y-87730827D01*
X127099390Y-87730814D01*
X127011790Y-87599712D01*
X127011785Y-87599707D01*
X126999759Y-87587681D01*
X126966275Y-87526362D01*
X126971257Y-87456670D01*
X126999759Y-87412318D01*
X127011789Y-87400289D01*
X127099394Y-87269179D01*
X127159737Y-87123497D01*
X127190500Y-86968842D01*
X127190500Y-86811158D01*
X127190500Y-86811155D01*
X127190499Y-86811153D01*
X127158549Y-86650528D01*
X127160472Y-86650145D01*
X127159925Y-86589331D01*
X127197169Y-86530215D01*
X127259809Y-86500721D01*
X127351582Y-86486186D01*
X127544380Y-86423542D01*
X127725004Y-86331509D01*
X127817083Y-86264609D01*
X127889002Y-86212359D01*
X127889004Y-86212356D01*
X127889008Y-86212354D01*
X128003650Y-86097712D01*
X129316097Y-86097712D01*
X129316097Y-86242287D01*
X129344298Y-86384063D01*
X129344300Y-86384071D01*
X129399621Y-86517629D01*
X129479939Y-86637833D01*
X129479942Y-86637837D01*
X129582159Y-86740054D01*
X129582163Y-86740057D01*
X129702365Y-86820374D01*
X129835926Y-86875697D01*
X129977709Y-86903899D01*
X129977713Y-86903900D01*
X129977714Y-86903900D01*
X130122281Y-86903900D01*
X130122282Y-86903899D01*
X130264068Y-86875697D01*
X130397629Y-86820374D01*
X130517831Y-86740057D01*
X130620054Y-86637834D01*
X130700371Y-86517632D01*
X130755694Y-86384071D01*
X130783897Y-86242283D01*
X130783897Y-86097717D01*
X130755694Y-85955929D01*
X130700371Y-85822368D01*
X130620054Y-85702166D01*
X130620051Y-85702162D01*
X130517834Y-85599945D01*
X130517830Y-85599942D01*
X130397626Y-85519624D01*
X130264068Y-85464303D01*
X130264060Y-85464301D01*
X130122284Y-85436100D01*
X130122280Y-85436100D01*
X129977714Y-85436100D01*
X129977709Y-85436100D01*
X129835933Y-85464301D01*
X129835925Y-85464303D01*
X129702367Y-85519624D01*
X129582163Y-85599942D01*
X129582159Y-85599945D01*
X129479942Y-85702162D01*
X129479939Y-85702166D01*
X129399621Y-85822370D01*
X129344300Y-85955928D01*
X129344298Y-85955936D01*
X129316097Y-86097712D01*
X128003650Y-86097712D01*
X128032353Y-86069009D01*
X128151508Y-85905005D01*
X128243541Y-85724381D01*
X128306185Y-85531583D01*
X128337898Y-85331359D01*
X128337898Y-85128639D01*
X128306185Y-84928415D01*
X128243541Y-84735617D01*
X128151508Y-84554993D01*
X128140172Y-84539390D01*
X128032358Y-84390994D01*
X127889002Y-84247638D01*
X127725007Y-84128491D01*
X127725006Y-84128490D01*
X127725004Y-84128489D01*
X127544380Y-84036456D01*
X127351582Y-83973812D01*
X127351580Y-83973811D01*
X127351578Y-83973811D01*
X127211780Y-83951669D01*
X127151358Y-83942099D01*
X126948638Y-83942099D01*
X126902222Y-83949450D01*
X126748417Y-83973811D01*
X126555613Y-84036457D01*
X126374988Y-84128491D01*
X126210993Y-84247638D01*
X126067637Y-84390994D01*
X125948490Y-84554989D01*
X125856456Y-84735614D01*
X125793810Y-84928418D01*
X125762098Y-85128639D01*
X125762098Y-85331358D01*
X125783154Y-85464303D01*
X125793811Y-85531583D01*
X125816023Y-85599945D01*
X125856456Y-85724383D01*
X125948490Y-85905008D01*
X125984805Y-85954992D01*
X126008285Y-86020798D01*
X125992460Y-86088852D01*
X125942354Y-86137547D01*
X125873876Y-86151422D01*
X125837036Y-86142439D01*
X125810087Y-86131277D01*
X125783497Y-86120263D01*
X125783493Y-86120262D01*
X125783489Y-86120261D01*
X125628845Y-86089500D01*
X125628842Y-86089500D01*
X125471158Y-86089500D01*
X125471155Y-86089500D01*
X125316510Y-86120261D01*
X125316503Y-86120263D01*
X125262959Y-86142441D01*
X125193490Y-86149908D01*
X125131011Y-86118633D01*
X125095359Y-86058543D01*
X125097854Y-85988718D01*
X125115187Y-85954997D01*
X125151509Y-85905005D01*
X125243542Y-85724381D01*
X125306186Y-85531583D01*
X125337899Y-85331359D01*
X125337899Y-85128639D01*
X125306186Y-84928415D01*
X125243542Y-84735617D01*
X125151509Y-84554993D01*
X125140173Y-84539390D01*
X125032359Y-84390994D01*
X124889003Y-84247638D01*
X124725008Y-84128491D01*
X124725007Y-84128490D01*
X124725005Y-84128489D01*
X124544381Y-84036456D01*
X124351583Y-83973812D01*
X124351581Y-83973811D01*
X124351579Y-83973811D01*
X124211781Y-83951669D01*
X124151359Y-83942099D01*
X123948639Y-83942099D01*
X123902223Y-83949450D01*
X123748418Y-83973811D01*
X123555614Y-84036457D01*
X123374989Y-84128491D01*
X123210994Y-84247638D01*
X123067638Y-84390994D01*
X122948491Y-84554989D01*
X122856457Y-84735614D01*
X122793811Y-84928418D01*
X122762099Y-85128639D01*
X122762099Y-85331358D01*
X122783155Y-85464303D01*
X122793812Y-85531583D01*
X122816024Y-85599945D01*
X122856457Y-85724383D01*
X122948490Y-85905007D01*
X122952083Y-85909952D01*
X122975565Y-85975758D01*
X122959741Y-86043812D01*
X122909636Y-86092508D01*
X122875959Y-86104457D01*
X122796508Y-86120261D01*
X122796498Y-86120264D01*
X122650827Y-86180602D01*
X122650814Y-86180609D01*
X122519711Y-86268210D01*
X122519707Y-86268213D01*
X122408213Y-86379707D01*
X122408210Y-86379711D01*
X122320609Y-86510814D01*
X122320602Y-86510827D01*
X122260264Y-86656498D01*
X122260261Y-86656510D01*
X122229500Y-86811153D01*
X118411433Y-86811153D01*
X118517835Y-86740057D01*
X118517838Y-86740054D01*
X118540508Y-86717385D01*
X118620055Y-86637837D01*
X118620058Y-86637834D01*
X118700375Y-86517632D01*
X118755698Y-86384071D01*
X118783901Y-86242283D01*
X118783901Y-86097717D01*
X118755698Y-85955929D01*
X118700375Y-85822368D01*
X118620058Y-85702166D01*
X118620055Y-85702162D01*
X118517838Y-85599945D01*
X118517834Y-85599942D01*
X118397630Y-85519624D01*
X118264072Y-85464303D01*
X118264064Y-85464301D01*
X118122288Y-85436100D01*
X118122284Y-85436100D01*
X117977718Y-85436100D01*
X117977713Y-85436100D01*
X117835937Y-85464301D01*
X117835929Y-85464303D01*
X117702371Y-85519624D01*
X117582167Y-85599942D01*
X117582163Y-85599945D01*
X117479946Y-85702162D01*
X117479943Y-85702166D01*
X117399625Y-85822370D01*
X117344304Y-85955928D01*
X117344302Y-85955936D01*
X117316101Y-86097712D01*
X115990000Y-86097712D01*
X115990000Y-83751153D01*
X149449500Y-83751153D01*
X149449500Y-83908846D01*
X149480261Y-84063489D01*
X149480264Y-84063501D01*
X149540602Y-84209172D01*
X149540609Y-84209185D01*
X149628210Y-84340288D01*
X149628213Y-84340292D01*
X149739707Y-84451786D01*
X149739711Y-84451789D01*
X149870814Y-84539390D01*
X149870827Y-84539397D01*
X150016498Y-84599735D01*
X150016503Y-84599737D01*
X150171153Y-84630499D01*
X150171156Y-84630500D01*
X150171158Y-84630500D01*
X150328844Y-84630500D01*
X150328845Y-84630499D01*
X150483497Y-84599737D01*
X150629179Y-84539394D01*
X150760289Y-84451789D01*
X150871789Y-84340289D01*
X150959394Y-84209179D01*
X151019737Y-84063497D01*
X151050500Y-83908842D01*
X151050500Y-83751158D01*
X151038517Y-83690916D01*
X151044744Y-83621327D01*
X151087606Y-83566149D01*
X151135941Y-83545109D01*
X151263497Y-83519737D01*
X151409179Y-83459394D01*
X151540289Y-83371789D01*
X151651789Y-83260289D01*
X151739394Y-83129179D01*
X151799737Y-82983497D01*
X151830500Y-82828842D01*
X151830500Y-82671158D01*
X151830500Y-82671155D01*
X151811279Y-82574529D01*
X151817506Y-82504937D01*
X151860368Y-82449760D01*
X151926258Y-82426515D01*
X151994255Y-82442582D01*
X152020577Y-82462656D01*
X152059707Y-82501786D01*
X152059711Y-82501789D01*
X152190814Y-82589390D01*
X152190827Y-82589397D01*
X152336498Y-82649735D01*
X152336503Y-82649737D01*
X152491153Y-82680499D01*
X152491156Y-82680500D01*
X152491158Y-82680500D01*
X152648844Y-82680500D01*
X152648845Y-82680499D01*
X152803497Y-82649737D01*
X152949179Y-82589394D01*
X153031109Y-82534649D01*
X153097786Y-82513772D01*
X153165166Y-82532256D01*
X153168888Y-82534648D01*
X153250821Y-82589394D01*
X153250823Y-82589395D01*
X153250827Y-82589397D01*
X153396498Y-82649735D01*
X153396503Y-82649737D01*
X153551153Y-82680499D01*
X153551156Y-82680500D01*
X153551158Y-82680500D01*
X153708844Y-82680500D01*
X153708845Y-82680499D01*
X153863497Y-82649737D01*
X154009179Y-82589394D01*
X154076109Y-82544673D01*
X154142786Y-82523795D01*
X154210166Y-82542279D01*
X154213891Y-82544673D01*
X154280814Y-82589390D01*
X154280827Y-82589397D01*
X154426498Y-82649735D01*
X154426503Y-82649737D01*
X154581153Y-82680499D01*
X154581156Y-82680500D01*
X154581158Y-82680500D01*
X154738844Y-82680500D01*
X154738845Y-82680499D01*
X154893497Y-82649737D01*
X155039179Y-82589394D01*
X155170289Y-82501789D01*
X155281789Y-82390289D01*
X155369394Y-82259179D01*
X155429737Y-82113497D01*
X155460500Y-81958842D01*
X155460500Y-81912650D01*
X167960400Y-81912650D01*
X167960400Y-82157350D01*
X167971624Y-82228213D01*
X167998680Y-82399037D01*
X167998680Y-82399040D01*
X168074294Y-82631756D01*
X168074296Y-82631759D01*
X168185387Y-82849788D01*
X168329218Y-83047754D01*
X168502246Y-83220782D01*
X168700212Y-83364613D01*
X168918241Y-83475704D01*
X168918243Y-83475705D01*
X169022984Y-83509737D01*
X169150964Y-83551320D01*
X169392650Y-83589600D01*
X169392651Y-83589600D01*
X169637349Y-83589600D01*
X169637350Y-83589600D01*
X169879036Y-83551320D01*
X169879039Y-83551319D01*
X169879040Y-83551319D01*
X170111756Y-83475705D01*
X170111756Y-83475704D01*
X170111759Y-83475704D01*
X170329788Y-83364613D01*
X170527754Y-83220782D01*
X170700782Y-83047754D01*
X170844613Y-82849788D01*
X170955704Y-82631759D01*
X170969469Y-82589394D01*
X171031319Y-82399040D01*
X171031319Y-82399039D01*
X171031320Y-82399036D01*
X171069600Y-82157350D01*
X171069600Y-81912650D01*
X171031320Y-81670964D01*
X171031319Y-81670960D01*
X171031319Y-81670959D01*
X170955705Y-81438243D01*
X170955703Y-81438240D01*
X170947320Y-81421786D01*
X170844613Y-81220212D01*
X170700782Y-81022246D01*
X170527754Y-80849218D01*
X170329788Y-80705387D01*
X170111759Y-80594296D01*
X170111756Y-80594294D01*
X169879038Y-80518680D01*
X169717912Y-80493160D01*
X169637350Y-80480400D01*
X169392650Y-80480400D01*
X169312088Y-80493160D01*
X169150962Y-80518680D01*
X169150959Y-80518680D01*
X168918243Y-80594294D01*
X168918240Y-80594296D01*
X168700211Y-80705387D01*
X168587265Y-80787447D01*
X168502246Y-80849218D01*
X168502244Y-80849220D01*
X168502243Y-80849220D01*
X168329220Y-81022243D01*
X168329220Y-81022244D01*
X168329218Y-81022246D01*
X168321044Y-81033497D01*
X168185387Y-81220211D01*
X168074296Y-81438240D01*
X168074294Y-81438243D01*
X167998680Y-81670959D01*
X167998680Y-81670962D01*
X167986369Y-81748692D01*
X167960400Y-81912650D01*
X155460500Y-81912650D01*
X155460500Y-81801158D01*
X155460500Y-81801155D01*
X155460499Y-81801153D01*
X155447463Y-81735618D01*
X155429737Y-81646503D01*
X155392858Y-81557470D01*
X155385390Y-81488004D01*
X155416665Y-81425524D01*
X155419739Y-81422338D01*
X155420285Y-81421791D01*
X155420289Y-81421789D01*
X155531789Y-81310289D01*
X155619394Y-81179179D01*
X155679737Y-81033497D01*
X155710500Y-80878842D01*
X155710500Y-80721158D01*
X155710500Y-80721155D01*
X155710499Y-80721153D01*
X155686888Y-80602454D01*
X155679737Y-80566503D01*
X155674972Y-80555000D01*
X155619397Y-80420827D01*
X155619390Y-80420814D01*
X155531789Y-80289711D01*
X155531786Y-80289707D01*
X155420292Y-80178213D01*
X155420288Y-80178210D01*
X155289185Y-80090609D01*
X155289172Y-80090602D01*
X155143501Y-80030264D01*
X155143489Y-80030261D01*
X154988845Y-79999500D01*
X154988842Y-79999500D01*
X154831158Y-79999500D01*
X154831155Y-79999500D01*
X154676510Y-80030261D01*
X154676498Y-80030264D01*
X154530827Y-80090602D01*
X154530816Y-80090608D01*
X154463890Y-80135327D01*
X154397213Y-80156204D01*
X154329833Y-80137719D01*
X154326110Y-80135327D01*
X154259183Y-80090608D01*
X154259172Y-80090602D01*
X154113501Y-80030264D01*
X154113489Y-80030261D01*
X153958845Y-79999500D01*
X153958842Y-79999500D01*
X153801158Y-79999500D01*
X153801155Y-79999500D01*
X153646510Y-80030261D01*
X153646498Y-80030264D01*
X153500827Y-80090602D01*
X153500814Y-80090609D01*
X153373891Y-80175417D01*
X153307213Y-80196295D01*
X153239833Y-80177810D01*
X153236109Y-80175417D01*
X153109185Y-80090609D01*
X153109172Y-80090602D01*
X152963501Y-80030264D01*
X152963489Y-80030261D01*
X152808845Y-79999500D01*
X152808842Y-79999500D01*
X152651158Y-79999500D01*
X152651155Y-79999500D01*
X152496510Y-80030261D01*
X152496498Y-80030264D01*
X152350827Y-80090602D01*
X152350814Y-80090609D01*
X152248891Y-80158713D01*
X152182213Y-80179591D01*
X152114833Y-80161107D01*
X152111109Y-80158713D01*
X152009185Y-80090609D01*
X152009172Y-80090602D01*
X151863501Y-80030264D01*
X151863489Y-80030261D01*
X151708845Y-79999500D01*
X151708842Y-79999500D01*
X151551158Y-79999500D01*
X151551155Y-79999500D01*
X151396510Y-80030261D01*
X151396498Y-80030264D01*
X151250827Y-80090602D01*
X151250814Y-80090609D01*
X151119711Y-80178210D01*
X151119707Y-80178213D01*
X151008213Y-80289707D01*
X151008210Y-80289711D01*
X150920609Y-80420814D01*
X150920602Y-80420827D01*
X150860264Y-80566498D01*
X150860261Y-80566510D01*
X150829500Y-80721153D01*
X150829500Y-80878846D01*
X150860261Y-81033489D01*
X150860264Y-81033501D01*
X150920602Y-81179172D01*
X150920609Y-81179185D01*
X151008210Y-81310288D01*
X151008213Y-81310292D01*
X151119707Y-81421786D01*
X151119711Y-81421789D01*
X151250814Y-81509390D01*
X151250827Y-81509397D01*
X151396498Y-81569735D01*
X151396503Y-81569737D01*
X151546121Y-81599498D01*
X151551153Y-81600499D01*
X151551156Y-81600500D01*
X151658319Y-81600500D01*
X151725358Y-81620185D01*
X151771113Y-81672989D01*
X151781057Y-81742147D01*
X151779936Y-81748692D01*
X151769500Y-81801155D01*
X151769500Y-81958846D01*
X151788720Y-82055471D01*
X151782493Y-82125062D01*
X151739630Y-82180240D01*
X151673740Y-82203484D01*
X151605743Y-82187416D01*
X151579422Y-82167343D01*
X151540292Y-82128213D01*
X151540288Y-82128210D01*
X151409185Y-82040609D01*
X151409172Y-82040602D01*
X151263501Y-81980264D01*
X151263489Y-81980261D01*
X151108845Y-81949500D01*
X151108842Y-81949500D01*
X150951158Y-81949500D01*
X150951155Y-81949500D01*
X150796510Y-81980261D01*
X150796498Y-81980264D01*
X150650827Y-82040602D01*
X150650814Y-82040609D01*
X150519711Y-82128210D01*
X150519707Y-82128213D01*
X150408213Y-82239707D01*
X150408210Y-82239711D01*
X150320609Y-82370814D01*
X150320602Y-82370827D01*
X150260264Y-82516498D01*
X150260261Y-82516510D01*
X150229500Y-82671153D01*
X150229500Y-82671158D01*
X150229500Y-82828842D01*
X150229500Y-82828844D01*
X150229499Y-82828844D01*
X150241482Y-82889081D01*
X150235255Y-82958673D01*
X150192392Y-83013850D01*
X150144057Y-83034890D01*
X150016508Y-83060261D01*
X150016498Y-83060264D01*
X149870827Y-83120602D01*
X149870814Y-83120609D01*
X149739711Y-83208210D01*
X149739707Y-83208213D01*
X149628213Y-83319707D01*
X149628210Y-83319711D01*
X149540609Y-83450814D01*
X149540602Y-83450827D01*
X149480264Y-83596498D01*
X149480261Y-83596510D01*
X149449500Y-83751153D01*
X115990000Y-83751153D01*
X115990000Y-82128640D01*
X119762100Y-82128640D01*
X119762100Y-82331359D01*
X119791423Y-82516498D01*
X119793813Y-82531584D01*
X119856457Y-82724382D01*
X119909684Y-82828846D01*
X119948492Y-82905009D01*
X120067639Y-83069004D01*
X120210995Y-83212360D01*
X120358748Y-83319707D01*
X120374994Y-83331510D01*
X120555618Y-83423543D01*
X120748416Y-83486187D01*
X120948640Y-83517900D01*
X120948641Y-83517900D01*
X121151359Y-83517900D01*
X121151360Y-83517900D01*
X121351584Y-83486187D01*
X121544382Y-83423543D01*
X121725006Y-83331510D01*
X121836798Y-83250289D01*
X121889004Y-83212360D01*
X121889006Y-83212357D01*
X121889010Y-83212355D01*
X122032355Y-83069010D01*
X122032357Y-83069006D01*
X122032360Y-83069004D01*
X122101749Y-82973497D01*
X122151510Y-82905006D01*
X122243543Y-82724382D01*
X122306187Y-82531584D01*
X122337900Y-82331360D01*
X122337900Y-82128640D01*
X122306187Y-81928416D01*
X122243543Y-81735618D01*
X122243541Y-81735615D01*
X122243540Y-81735610D01*
X122243539Y-81735609D01*
X122167289Y-81585961D01*
X122154392Y-81517292D01*
X122180668Y-81452552D01*
X122190082Y-81441995D01*
X122191789Y-81440289D01*
X122279394Y-81309179D01*
X122339737Y-81163497D01*
X122370500Y-81008842D01*
X122370500Y-80851158D01*
X122370500Y-80851155D01*
X122370499Y-80851153D01*
X122339737Y-80696503D01*
X122300778Y-80602449D01*
X122297270Y-80569821D01*
X122292602Y-80537353D01*
X122293448Y-80534268D01*
X122293310Y-80532984D01*
X122294395Y-80530815D01*
X122300776Y-80507555D01*
X122339737Y-80413497D01*
X122370500Y-80258842D01*
X122370500Y-80101158D01*
X122370500Y-80101155D01*
X122370499Y-80101153D01*
X122689500Y-80101153D01*
X122689500Y-80258846D01*
X122720261Y-80413489D01*
X122720264Y-80413501D01*
X122759219Y-80507548D01*
X122762726Y-80540172D01*
X122767396Y-80572647D01*
X122766442Y-80574734D01*
X122766688Y-80577018D01*
X122759219Y-80602452D01*
X122720264Y-80696498D01*
X122720261Y-80696510D01*
X122689500Y-80851153D01*
X122689500Y-81008846D01*
X122720261Y-81163489D01*
X122720264Y-81163501D01*
X122780602Y-81309172D01*
X122780609Y-81309185D01*
X122868210Y-81440288D01*
X122868213Y-81440292D01*
X122896404Y-81468483D01*
X122929889Y-81529806D01*
X122924905Y-81599498D01*
X122919208Y-81612458D01*
X122856458Y-81735612D01*
X122793811Y-81928419D01*
X122762099Y-82128640D01*
X122762099Y-82331359D01*
X122791422Y-82516498D01*
X122793812Y-82531584D01*
X122856456Y-82724382D01*
X122909683Y-82828846D01*
X122948491Y-82905009D01*
X123067638Y-83069004D01*
X123210994Y-83212360D01*
X123358747Y-83319707D01*
X123374993Y-83331510D01*
X123555617Y-83423543D01*
X123748415Y-83486187D01*
X123948639Y-83517900D01*
X123948640Y-83517900D01*
X124151358Y-83517900D01*
X124151359Y-83517900D01*
X124351583Y-83486187D01*
X124544381Y-83423543D01*
X124725005Y-83331510D01*
X124836797Y-83250289D01*
X124889003Y-83212360D01*
X124889005Y-83212357D01*
X124889009Y-83212355D01*
X125032354Y-83069010D01*
X125032356Y-83069006D01*
X125032359Y-83069004D01*
X125101748Y-82973497D01*
X125151509Y-82905006D01*
X125243542Y-82724382D01*
X125264086Y-82661153D01*
X132789500Y-82661153D01*
X132789500Y-82818846D01*
X132820261Y-82973489D01*
X132820264Y-82973501D01*
X132880602Y-83119172D01*
X132880609Y-83119185D01*
X132968210Y-83250288D01*
X132968213Y-83250292D01*
X133079707Y-83361786D01*
X133079711Y-83361789D01*
X133210814Y-83449390D01*
X133210827Y-83449397D01*
X133356498Y-83509735D01*
X133356503Y-83509737D01*
X133511153Y-83540499D01*
X133511156Y-83540500D01*
X133511158Y-83540500D01*
X133668844Y-83540500D01*
X133668845Y-83540499D01*
X133823497Y-83509737D01*
X133936166Y-83463067D01*
X133969172Y-83449397D01*
X133969172Y-83449396D01*
X133969179Y-83449394D01*
X134100289Y-83361789D01*
X134211789Y-83250289D01*
X134299394Y-83119179D01*
X134359737Y-82973497D01*
X134390500Y-82818842D01*
X134390500Y-82771153D01*
X143419500Y-82771153D01*
X143419500Y-82928846D01*
X143450261Y-83083489D01*
X143450264Y-83083501D01*
X143510602Y-83229172D01*
X143510609Y-83229185D01*
X143598210Y-83360288D01*
X143598213Y-83360292D01*
X143709707Y-83471786D01*
X143709711Y-83471789D01*
X143840814Y-83559390D01*
X143840827Y-83559397D01*
X143986498Y-83619735D01*
X143986503Y-83619737D01*
X144141153Y-83650499D01*
X144141156Y-83650500D01*
X144141158Y-83650500D01*
X144298844Y-83650500D01*
X144434837Y-83623449D01*
X144434837Y-83623448D01*
X144453497Y-83619737D01*
X144599179Y-83559394D01*
X144730289Y-83471789D01*
X144841789Y-83360289D01*
X144929394Y-83229179D01*
X144989737Y-83083497D01*
X145020500Y-82928842D01*
X145020500Y-82771158D01*
X145020500Y-82771155D01*
X145020499Y-82771153D01*
X145011196Y-82724384D01*
X144989737Y-82616503D01*
X144989735Y-82616498D01*
X144929397Y-82470827D01*
X144929390Y-82470814D01*
X144841789Y-82339711D01*
X144841786Y-82339707D01*
X144730292Y-82228213D01*
X144730288Y-82228210D01*
X144599185Y-82140609D01*
X144599172Y-82140602D01*
X144453501Y-82080264D01*
X144453489Y-82080261D01*
X144298845Y-82049500D01*
X144298842Y-82049500D01*
X144141158Y-82049500D01*
X144141155Y-82049500D01*
X143986510Y-82080261D01*
X143986498Y-82080264D01*
X143840827Y-82140602D01*
X143840814Y-82140609D01*
X143709711Y-82228210D01*
X143709707Y-82228213D01*
X143598213Y-82339707D01*
X143598210Y-82339711D01*
X143510609Y-82470814D01*
X143510602Y-82470827D01*
X143450264Y-82616498D01*
X143450261Y-82616510D01*
X143419500Y-82771153D01*
X134390500Y-82771153D01*
X134390500Y-82661158D01*
X134390500Y-82661155D01*
X134390499Y-82661153D01*
X134384652Y-82631759D01*
X134359737Y-82506503D01*
X134341575Y-82462656D01*
X134299397Y-82360827D01*
X134299390Y-82360814D01*
X134211789Y-82229711D01*
X134211786Y-82229707D01*
X134100292Y-82118213D01*
X134100288Y-82118210D01*
X133969185Y-82030609D01*
X133969172Y-82030602D01*
X133823501Y-81970264D01*
X133823489Y-81970261D01*
X133668845Y-81939500D01*
X133668842Y-81939500D01*
X133511158Y-81939500D01*
X133511155Y-81939500D01*
X133356510Y-81970261D01*
X133356498Y-81970264D01*
X133210827Y-82030602D01*
X133210814Y-82030609D01*
X133079711Y-82118210D01*
X133079707Y-82118213D01*
X132968213Y-82229707D01*
X132968210Y-82229711D01*
X132880609Y-82360814D01*
X132880602Y-82360827D01*
X132820264Y-82506498D01*
X132820261Y-82506510D01*
X132789500Y-82661153D01*
X125264086Y-82661153D01*
X125306186Y-82531584D01*
X125337899Y-82331360D01*
X125337899Y-82128640D01*
X125306186Y-81928416D01*
X125243542Y-81735618D01*
X125151509Y-81554994D01*
X125141688Y-81541477D01*
X125118210Y-81475672D01*
X125134036Y-81407618D01*
X125138882Y-81399740D01*
X125199394Y-81309179D01*
X125259737Y-81163497D01*
X125290500Y-81008842D01*
X125290500Y-80851158D01*
X125290500Y-80851155D01*
X125290499Y-80851153D01*
X125259737Y-80696503D01*
X125220778Y-80602449D01*
X125213310Y-80532984D01*
X125220775Y-80507556D01*
X125259737Y-80413497D01*
X125290500Y-80258842D01*
X125290500Y-80101158D01*
X125290500Y-80101155D01*
X125290499Y-80101153D01*
X125276398Y-80030263D01*
X125259737Y-79946503D01*
X125259735Y-79946498D01*
X125199397Y-79800827D01*
X125199390Y-79800814D01*
X125111789Y-79669711D01*
X125111786Y-79669707D01*
X125000292Y-79558213D01*
X125000288Y-79558210D01*
X124869185Y-79470609D01*
X124869172Y-79470602D01*
X124723501Y-79410264D01*
X124723489Y-79410261D01*
X124568845Y-79379500D01*
X124568842Y-79379500D01*
X124411158Y-79379500D01*
X124411155Y-79379500D01*
X124256510Y-79410261D01*
X124256498Y-79410264D01*
X124110827Y-79470602D01*
X124110814Y-79470609D01*
X124058891Y-79505304D01*
X123992214Y-79526182D01*
X123924833Y-79507698D01*
X123921109Y-79505304D01*
X123869185Y-79470609D01*
X123869172Y-79470602D01*
X123723501Y-79410264D01*
X123723489Y-79410261D01*
X123568845Y-79379500D01*
X123568842Y-79379500D01*
X123411158Y-79379500D01*
X123411155Y-79379500D01*
X123256510Y-79410261D01*
X123256498Y-79410264D01*
X123110827Y-79470602D01*
X123110814Y-79470609D01*
X122979711Y-79558210D01*
X122979707Y-79558213D01*
X122868213Y-79669707D01*
X122868210Y-79669711D01*
X122780609Y-79800814D01*
X122780602Y-79800827D01*
X122720264Y-79946498D01*
X122720261Y-79946510D01*
X122689500Y-80101153D01*
X122370499Y-80101153D01*
X122356398Y-80030263D01*
X122339737Y-79946503D01*
X122339735Y-79946498D01*
X122279397Y-79800827D01*
X122279390Y-79800814D01*
X122191789Y-79669711D01*
X122191786Y-79669707D01*
X122080292Y-79558213D01*
X122080288Y-79558210D01*
X121949185Y-79470609D01*
X121949172Y-79470602D01*
X121803501Y-79410264D01*
X121803489Y-79410261D01*
X121648845Y-79379500D01*
X121648842Y-79379500D01*
X121494500Y-79379500D01*
X121427461Y-79359815D01*
X121381706Y-79307011D01*
X121370500Y-79255500D01*
X121370500Y-79101155D01*
X121370499Y-79101153D01*
X121339738Y-78946510D01*
X121339737Y-78946503D01*
X121339735Y-78946498D01*
X121279397Y-78800827D01*
X121279390Y-78800814D01*
X121191789Y-78669711D01*
X121191786Y-78669707D01*
X121080292Y-78558213D01*
X121080288Y-78558210D01*
X120949185Y-78470609D01*
X120949172Y-78470602D01*
X120803501Y-78410264D01*
X120803489Y-78410261D01*
X120648845Y-78379500D01*
X120648842Y-78379500D01*
X120491158Y-78379500D01*
X120491155Y-78379500D01*
X120336510Y-78410261D01*
X120336498Y-78410264D01*
X120190827Y-78470602D01*
X120190814Y-78470609D01*
X120059711Y-78558210D01*
X120059707Y-78558213D01*
X119948213Y-78669707D01*
X119948210Y-78669711D01*
X119860609Y-78800814D01*
X119860602Y-78800827D01*
X119800264Y-78946498D01*
X119800261Y-78946510D01*
X119769500Y-79101153D01*
X119769500Y-79258846D01*
X119800261Y-79413489D01*
X119800264Y-79413501D01*
X119860602Y-79559172D01*
X119860609Y-79559185D01*
X119895304Y-79611109D01*
X119916182Y-79677786D01*
X119897698Y-79745167D01*
X119895304Y-79748891D01*
X119860609Y-79800814D01*
X119860602Y-79800827D01*
X119800264Y-79946498D01*
X119800261Y-79946510D01*
X119769500Y-80101153D01*
X119769500Y-80258846D01*
X119800261Y-80413489D01*
X119800264Y-80413501D01*
X119839219Y-80507548D01*
X119846688Y-80577018D01*
X119839219Y-80602452D01*
X119800264Y-80696498D01*
X119800261Y-80696510D01*
X119769500Y-80851153D01*
X119769500Y-81008846D01*
X119800261Y-81163489D01*
X119800264Y-81163501D01*
X119860602Y-81309172D01*
X119860609Y-81309185D01*
X119941150Y-81429722D01*
X119962028Y-81496399D01*
X119948533Y-81554908D01*
X119856458Y-81735615D01*
X119793812Y-81928419D01*
X119762100Y-82128640D01*
X115990000Y-82128640D01*
X115990000Y-77251153D01*
X119569500Y-77251153D01*
X119569500Y-77408846D01*
X119600261Y-77563489D01*
X119600264Y-77563501D01*
X119660602Y-77709172D01*
X119660609Y-77709185D01*
X119748210Y-77840288D01*
X119748213Y-77840292D01*
X119859707Y-77951786D01*
X119859711Y-77951789D01*
X119990814Y-78039390D01*
X119990827Y-78039397D01*
X120136498Y-78099735D01*
X120136503Y-78099737D01*
X120291153Y-78130499D01*
X120291156Y-78130500D01*
X120291158Y-78130500D01*
X120448844Y-78130500D01*
X120448845Y-78130499D01*
X120603497Y-78099737D01*
X120749179Y-78039394D01*
X120880289Y-77951789D01*
X120991789Y-77840289D01*
X121079394Y-77709179D01*
X121139737Y-77563497D01*
X121170500Y-77408842D01*
X121170500Y-77251158D01*
X121170500Y-77251155D01*
X121170499Y-77251153D01*
X121139738Y-77096510D01*
X121139737Y-77096503D01*
X121139735Y-77096498D01*
X121079397Y-76950827D01*
X121079390Y-76950814D01*
X120991789Y-76819711D01*
X120991786Y-76819707D01*
X120880292Y-76708213D01*
X120880288Y-76708210D01*
X120749185Y-76620609D01*
X120749172Y-76620602D01*
X120603501Y-76560264D01*
X120603489Y-76560261D01*
X120448845Y-76529500D01*
X120448842Y-76529500D01*
X120291158Y-76529500D01*
X120291155Y-76529500D01*
X120136510Y-76560261D01*
X120136498Y-76560264D01*
X119990827Y-76620602D01*
X119990814Y-76620609D01*
X119859711Y-76708210D01*
X119859707Y-76708213D01*
X119748213Y-76819707D01*
X119748210Y-76819711D01*
X119660609Y-76950814D01*
X119660602Y-76950827D01*
X119600264Y-77096498D01*
X119600261Y-77096510D01*
X119569500Y-77251153D01*
X115990000Y-77251153D01*
X115990000Y-72331995D01*
X118074500Y-72331995D01*
X118074500Y-72568004D01*
X118074501Y-72568020D01*
X118105306Y-72802010D01*
X118166394Y-73029993D01*
X118256714Y-73248045D01*
X118256719Y-73248056D01*
X118327677Y-73370957D01*
X118374727Y-73452450D01*
X118374729Y-73452453D01*
X118374730Y-73452454D01*
X118518406Y-73639697D01*
X118518412Y-73639704D01*
X118685295Y-73806587D01*
X118685301Y-73806592D01*
X118872550Y-73950273D01*
X119003918Y-74026118D01*
X119076943Y-74068280D01*
X119076948Y-74068282D01*
X119076951Y-74068284D01*
X119295007Y-74158606D01*
X119522986Y-74219693D01*
X119756989Y-74250500D01*
X119756996Y-74250500D01*
X119993004Y-74250500D01*
X119993011Y-74250500D01*
X120227014Y-74219693D01*
X120454993Y-74158606D01*
X120673049Y-74068284D01*
X120877450Y-73950273D01*
X121064699Y-73806592D01*
X121231592Y-73639699D01*
X121375273Y-73452450D01*
X121493284Y-73248049D01*
X121583606Y-73029993D01*
X121644693Y-72802014D01*
X121675500Y-72568011D01*
X121675500Y-72331995D01*
X169949500Y-72331995D01*
X169949500Y-72568004D01*
X169949501Y-72568020D01*
X169980306Y-72802010D01*
X170041394Y-73029993D01*
X170131714Y-73248045D01*
X170131719Y-73248056D01*
X170202677Y-73370957D01*
X170249727Y-73452450D01*
X170249729Y-73452453D01*
X170249730Y-73452454D01*
X170393406Y-73639697D01*
X170393412Y-73639704D01*
X170560295Y-73806587D01*
X170560301Y-73806592D01*
X170747550Y-73950273D01*
X170878918Y-74026118D01*
X170951943Y-74068280D01*
X170951948Y-74068282D01*
X170951951Y-74068284D01*
X171170007Y-74158606D01*
X171397986Y-74219693D01*
X171631989Y-74250500D01*
X171631996Y-74250500D01*
X171868004Y-74250500D01*
X171868011Y-74250500D01*
X172102014Y-74219693D01*
X172329993Y-74158606D01*
X172548049Y-74068284D01*
X172752450Y-73950273D01*
X172939699Y-73806592D01*
X173106592Y-73639699D01*
X173250273Y-73452450D01*
X173368284Y-73248049D01*
X173458606Y-73029993D01*
X173519693Y-72802014D01*
X173550500Y-72568011D01*
X173550500Y-72331989D01*
X173519693Y-72097986D01*
X173458606Y-71870007D01*
X173368284Y-71651951D01*
X173368282Y-71651948D01*
X173368280Y-71651943D01*
X173326118Y-71578918D01*
X173250273Y-71447550D01*
X173106592Y-71260301D01*
X173106587Y-71260295D01*
X172939704Y-71093412D01*
X172939697Y-71093406D01*
X172752454Y-70949730D01*
X172752453Y-70949729D01*
X172752450Y-70949727D01*
X172670957Y-70902677D01*
X172548056Y-70831719D01*
X172548045Y-70831714D01*
X172329993Y-70741394D01*
X172102010Y-70680306D01*
X171868020Y-70649501D01*
X171868017Y-70649500D01*
X171868011Y-70649500D01*
X171631989Y-70649500D01*
X171631983Y-70649500D01*
X171631979Y-70649501D01*
X171397989Y-70680306D01*
X171170006Y-70741394D01*
X170951954Y-70831714D01*
X170951943Y-70831719D01*
X170747545Y-70949730D01*
X170560302Y-71093406D01*
X170560295Y-71093412D01*
X170393412Y-71260295D01*
X170393406Y-71260302D01*
X170249730Y-71447545D01*
X170131719Y-71651943D01*
X170131714Y-71651954D01*
X170041394Y-71870006D01*
X169980306Y-72097989D01*
X169949501Y-72331979D01*
X169949500Y-72331995D01*
X121675500Y-72331995D01*
X121675500Y-72331989D01*
X121644693Y-72097986D01*
X121583606Y-71870007D01*
X121493284Y-71651951D01*
X121493282Y-71651948D01*
X121493280Y-71651943D01*
X121451118Y-71578918D01*
X121375273Y-71447550D01*
X121231592Y-71260301D01*
X121231587Y-71260295D01*
X121064704Y-71093412D01*
X121064697Y-71093406D01*
X120877454Y-70949730D01*
X120877453Y-70949729D01*
X120877450Y-70949727D01*
X120795957Y-70902677D01*
X120673056Y-70831719D01*
X120673045Y-70831714D01*
X120454993Y-70741394D01*
X120227010Y-70680306D01*
X119993020Y-70649501D01*
X119993017Y-70649500D01*
X119993011Y-70649500D01*
X119756989Y-70649500D01*
X119756983Y-70649500D01*
X119756979Y-70649501D01*
X119522989Y-70680306D01*
X119295006Y-70741394D01*
X119076954Y-70831714D01*
X119076943Y-70831719D01*
X118872545Y-70949730D01*
X118685302Y-71093406D01*
X118685295Y-71093412D01*
X118518412Y-71260295D01*
X118518406Y-71260302D01*
X118374730Y-71447545D01*
X118256719Y-71651943D01*
X118256714Y-71651954D01*
X118166394Y-71870006D01*
X118105306Y-72097989D01*
X118074501Y-72331979D01*
X118074500Y-72331995D01*
X115990000Y-72331995D01*
X115990000Y-68774500D01*
X116009685Y-68707461D01*
X116062489Y-68661706D01*
X116114000Y-68650500D01*
X175600500Y-68650500D01*
X175667539Y-68670185D01*
G37*
%TD.AperFunction*%
%TD*%
M02*
