%TF.GenerationSoftware,KiCad,Pcbnew,10.0.3*%
%TF.CreationDate,2026-08-08T18:02:01-05:00*%
%TF.ProjectId,mts-demod,6d74732d-6465-46d6-9f64-2e6b69636164,rev?*%
%TF.SameCoordinates,Original*%
%TF.FileFunction,Copper,L3,Inr*%
%TF.FilePolarity,Positive*%
%FSLAX46Y46*%
G04 Gerber Fmt 4.6, Leading zero omitted, Abs format (unit mm)*
G04 Created by KiCad (PCBNEW 10.0.3) date 2026-08-08 18:02:01*
%MOMM*%
%LPD*%
G01*
G04 APERTURE LIST*
%TA.AperFunction,ComponentPad*%
%ADD10O,1.600000X1.200000*%
%TD*%
%TA.AperFunction,ComponentPad*%
%ADD11C,1.200000*%
%TD*%
%TA.AperFunction,ComponentPad*%
%ADD12C,2.108200*%
%TD*%
%TA.AperFunction,ComponentPad*%
%ADD13C,1.574800*%
%TD*%
%TA.AperFunction,ComponentPad*%
%ADD14C,1.800000*%
%TD*%
%TA.AperFunction,ViaPad*%
%ADD15C,0.600000*%
%TD*%
%TA.AperFunction,ViaPad*%
%ADD16C,0.450000*%
%TD*%
G04 APERTURE END LIST*
D10*
%TO.N,Net-(U1-D+)*%
%TO.C,U1*%
X178260000Y-55100000D03*
D11*
%TO.N,GND*%
X175720000Y-52560000D03*
%TO.N,FDS010_ANODE*%
X173180000Y-55100000D03*
%TD*%
D12*
%TO.N,ADC_CH0*%
%TO.C,J1*%
X128220000Y-72950000D03*
%TO.N,GND*%
X125680000Y-70410000D03*
X125680000Y-75490000D03*
X130760000Y-75490000D03*
X130760000Y-70410000D03*
%TD*%
D13*
%TO.N,+10V*%
%TO.C,J6*%
X191860000Y-67260002D03*
X191860000Y-70260001D03*
%TO.N,+15V*%
X191860000Y-73260000D03*
X191860000Y-76259999D03*
%TO.N,GND*%
X188860001Y-67260002D03*
X188860001Y-70260001D03*
%TO.N,+5V*%
X188860001Y-73260000D03*
X188860001Y-76259999D03*
%TD*%
D12*
%TO.N,ADC_CH1*%
%TO.C,J3*%
X179960000Y-78850000D03*
%TO.N,GND*%
X177420000Y-76310000D03*
X177420000Y-81390000D03*
X182500000Y-81390000D03*
X182500000Y-76310000D03*
%TD*%
%TO.N,ADC_CH1b*%
%TO.C,J4*%
X156100000Y-67780000D03*
%TO.N,GND*%
X153560000Y-65240000D03*
X153560000Y-70320000D03*
X158640000Y-70320000D03*
X158640000Y-65240000D03*
%TD*%
%TO.N,10MHz_DEMOD_IN*%
%TO.C,J2*%
X167630000Y-70730000D03*
%TO.N,GND*%
X170170000Y-73270000D03*
X170170000Y-68190000D03*
X165090000Y-68190000D03*
X165090000Y-73270000D03*
%TD*%
D14*
%TO.N,DEMOD_IF*%
%TO.C,J5*%
X140830000Y-80620000D03*
%TO.N,GND*%
X140830000Y-75540000D03*
X145910000Y-80620000D03*
X145910000Y-75540000D03*
X150990000Y-80620000D03*
X150990000Y-75540000D03*
X156070000Y-80620000D03*
%TO.N,ADC_CH1b*%
X156070000Y-75540000D03*
%TD*%
D15*
%TO.N,GND*%
X150075699Y-52098261D03*
X143975000Y-48996875D03*
X194676155Y-53850000D03*
X185793772Y-92794617D03*
X162397777Y-81925000D03*
X155425000Y-85600000D03*
X130075740Y-87600000D03*
X156150000Y-46101569D03*
X146425000Y-87111233D03*
X191700000Y-50726979D03*
X196133347Y-76570000D03*
X170446274Y-88298933D03*
X165325000Y-75818740D03*
X193780000Y-57910000D03*
X156155430Y-48996705D03*
X128539755Y-84475000D03*
X192578347Y-87521113D03*
X171496274Y-88300000D03*
X137631316Y-51950000D03*
X171047420Y-46100353D03*
X124029538Y-65625000D03*
X127037776Y-87575000D03*
X160897777Y-84925000D03*
X164730430Y-42902325D03*
X169555430Y-42900353D03*
X196186932Y-89075000D03*
X170300000Y-75477269D03*
X166222420Y-46102325D03*
X130070357Y-83050000D03*
X170300000Y-76977269D03*
X130077719Y-84500000D03*
X194675000Y-49225000D03*
X172325000Y-89525000D03*
X162400000Y-68300000D03*
X132732362Y-65125000D03*
X125552719Y-85975000D03*
X174120000Y-86360000D03*
X146975000Y-50496875D03*
X192575000Y-82771113D03*
X190251155Y-53869906D03*
X131625000Y-48997953D03*
X193460000Y-60730000D03*
X144885118Y-69453870D03*
X124030383Y-55050000D03*
X196175000Y-49225000D03*
X196176154Y-87525000D03*
X144879180Y-72453870D03*
X157658010Y-44401569D03*
X171100000Y-63632740D03*
X149425000Y-65685098D03*
X161150000Y-93221886D03*
X196171652Y-79650000D03*
X185800000Y-97344617D03*
X124026378Y-67000000D03*
X146379180Y-72453870D03*
X141752047Y-65675000D03*
X132725000Y-60675000D03*
X124032362Y-51950000D03*
X125550740Y-89075000D03*
X143202047Y-59568684D03*
X125545357Y-81525000D03*
X154525000Y-93227046D03*
X156158010Y-42901569D03*
X191698431Y-52307409D03*
X125532362Y-53450000D03*
X127032393Y-83025000D03*
X150069570Y-47600000D03*
X156875000Y-52597954D03*
X160897777Y-83425000D03*
X179743772Y-92800000D03*
X149334875Y-91726456D03*
X132719616Y-80400000D03*
X178850000Y-62325000D03*
X166525000Y-48720974D03*
X128532393Y-81525000D03*
X128537776Y-87575000D03*
X137600000Y-68221974D03*
X188759875Y-47890803D03*
X173700000Y-75450000D03*
X161651420Y-49350000D03*
X143200000Y-61067638D03*
X187422954Y-90500000D03*
X171493535Y-91475000D03*
X161650000Y-44400756D03*
X164730430Y-44402325D03*
X145475000Y-48996875D03*
X187225000Y-49229103D03*
X145475000Y-50496875D03*
X164722420Y-46102325D03*
X175350000Y-75453129D03*
X187556228Y-97350378D03*
X185723431Y-52309533D03*
X128525000Y-49000000D03*
X147925000Y-85611233D03*
X131596652Y-97050000D03*
X172319305Y-87425000D03*
X147934875Y-90150000D03*
X132715279Y-71150000D03*
X125532362Y-51950000D03*
X149336621Y-87178025D03*
X193200000Y-49226979D03*
X131632362Y-51947953D03*
X165325000Y-78818740D03*
X134625000Y-48997953D03*
X147825000Y-65671508D03*
X149429180Y-72460098D03*
X144885118Y-70953870D03*
X160889056Y-74400000D03*
X163150000Y-42900756D03*
X171055430Y-44400353D03*
X194675000Y-50725000D03*
X162395518Y-78825000D03*
X151575000Y-48995136D03*
X131575740Y-89100000D03*
X172375000Y-96172954D03*
X125529538Y-65625000D03*
X144925000Y-87111233D03*
X128539755Y-85975000D03*
X192575623Y-85976543D03*
X163141990Y-46100756D03*
X136131316Y-51950000D03*
X182693772Y-94292638D03*
X193200000Y-50726979D03*
X156150000Y-47601569D03*
X131570357Y-83050000D03*
X185734875Y-46375000D03*
X146975699Y-52100000D03*
X150069570Y-46100000D03*
X196170083Y-81230430D03*
X165475000Y-48725000D03*
X187425000Y-89425000D03*
X148475000Y-50496875D03*
X141756227Y-72450000D03*
X157658010Y-42901569D03*
X178243772Y-94300000D03*
X185725491Y-57900000D03*
X160150000Y-60475000D03*
X144875000Y-62678870D03*
X149425000Y-64185098D03*
X163900000Y-78824725D03*
X146375000Y-64178870D03*
X153075000Y-50495136D03*
X150825000Y-85603025D03*
X136125000Y-50497953D03*
X160897777Y-81925000D03*
X131595163Y-94075000D03*
X182700000Y-95842638D03*
X170250000Y-66050000D03*
X137589233Y-80396974D03*
X144875000Y-65678870D03*
X152325000Y-85603025D03*
X188750491Y-56415803D03*
X196131155Y-74945000D03*
X167975000Y-44398784D03*
X179750000Y-95850000D03*
X171055430Y-42900353D03*
X160900000Y-68300000D03*
X139375000Y-50498922D03*
X172075000Y-75477493D03*
X132721595Y-78800000D03*
X162389056Y-74400000D03*
X169555430Y-44400353D03*
X192577192Y-84396113D03*
X160250000Y-62475000D03*
X169400000Y-86950000D03*
X160897777Y-86425000D03*
X124026378Y-68500000D03*
X178875000Y-88400000D03*
X124052719Y-85975000D03*
X125545357Y-83025000D03*
X149435118Y-70960098D03*
X148475699Y-52100000D03*
X133825000Y-60600000D03*
X187550000Y-94300378D03*
X141750000Y-59575000D03*
X151130938Y-69460186D03*
X160900000Y-66800000D03*
X193198431Y-52307409D03*
X193850000Y-55270000D03*
X196175000Y-50725000D03*
X140252047Y-65675000D03*
X190250000Y-50744906D03*
X187223431Y-52309533D03*
D16*
X164975000Y-55075000D03*
D15*
X188750000Y-49244906D03*
X184050000Y-57900000D03*
X150836621Y-87178025D03*
X193201155Y-53851979D03*
X140262165Y-70950000D03*
X152336621Y-87178025D03*
X130070357Y-81550000D03*
X160895518Y-75825000D03*
X185725000Y-50729103D03*
X140250000Y-61075000D03*
X179743772Y-94300000D03*
X175350000Y-76953129D03*
X137592258Y-72596974D03*
X131597142Y-90975000D03*
X177800000Y-88397954D03*
X187400000Y-86975000D03*
X161641990Y-46100756D03*
X144875000Y-64178870D03*
X157950000Y-52600000D03*
X132720662Y-75700000D03*
X146675000Y-94025000D03*
X146385118Y-69453870D03*
X191701155Y-53851979D03*
X149435118Y-69460098D03*
X181193772Y-92792638D03*
X127032362Y-51950000D03*
X160889056Y-69900000D03*
X190250000Y-49244906D03*
X184293772Y-94294617D03*
X176859197Y-67500000D03*
X146375000Y-65678870D03*
X172081228Y-78527493D03*
X182700000Y-97342638D03*
X173700000Y-76950000D03*
X132722641Y-74100000D03*
X140875000Y-48998922D03*
X124031517Y-62525000D03*
X124050740Y-89075000D03*
X143202047Y-64167638D03*
X157655430Y-48996705D03*
X130032362Y-53450000D03*
X144934875Y-90150000D03*
X130077719Y-86000000D03*
X133131316Y-51950000D03*
X184300000Y-95844617D03*
X191278347Y-85981911D03*
X160900000Y-65300000D03*
X147946496Y-91725000D03*
X125524155Y-58075000D03*
X152325000Y-84103025D03*
X162397777Y-83425000D03*
X153069570Y-46100000D03*
X166230430Y-42902325D03*
X173706228Y-78500000D03*
X175170000Y-45970000D03*
X140252047Y-62675000D03*
X142475000Y-50496875D03*
X161650000Y-42900756D03*
X137590279Y-77196974D03*
X132720662Y-77200000D03*
X124029538Y-64125000D03*
X128525000Y-50500000D03*
X181200000Y-97342638D03*
X173260000Y-86360000D03*
X163150000Y-44400756D03*
X156925000Y-84100000D03*
X125552719Y-84475000D03*
X154575000Y-50495136D03*
X153936621Y-87175000D03*
X171090000Y-95020000D03*
X128532362Y-53450000D03*
X134631316Y-51950000D03*
X189206228Y-95853507D03*
X188750000Y-50744906D03*
X191277724Y-82776481D03*
X167600000Y-48723020D03*
X187550000Y-92800378D03*
X160075000Y-93219840D03*
X167975000Y-42898784D03*
X191291849Y-89076481D03*
X144925000Y-85611233D03*
X150846496Y-90216792D03*
X157650000Y-46101569D03*
X131625000Y-50497953D03*
X162400000Y-63800000D03*
X184293772Y-92794617D03*
X146436621Y-88686233D03*
X147925000Y-87111233D03*
X190248431Y-52325336D03*
X151125000Y-72460186D03*
X145600000Y-94022954D03*
X147829180Y-72446508D03*
X161659430Y-47650000D03*
X131525000Y-63575000D03*
X155425000Y-84100000D03*
X196130000Y-70320000D03*
X152346496Y-90216792D03*
X156925000Y-85600000D03*
X170450000Y-86943238D03*
X131595163Y-92575000D03*
X124050740Y-87575000D03*
X180375000Y-62340803D03*
X187226155Y-53854103D03*
X155436621Y-87175000D03*
X146385118Y-70953870D03*
X124025000Y-49000000D03*
X189206228Y-97353507D03*
X160889056Y-72900000D03*
X147835118Y-69446508D03*
X131575000Y-66600000D03*
X180375000Y-63840803D03*
X133125000Y-48997953D03*
X150077580Y-44400000D03*
X131577719Y-84500000D03*
X154569570Y-46100000D03*
X162400000Y-66800000D03*
X139375000Y-48998922D03*
X151130938Y-70960186D03*
X162397777Y-86425000D03*
X131500000Y-60650000D03*
X150075000Y-50495136D03*
X189200000Y-92803507D03*
X127039755Y-84475000D03*
X134750000Y-97049243D03*
X163900000Y-75824725D03*
X178250000Y-97350000D03*
X127030383Y-55050000D03*
X153925000Y-85600000D03*
X181193772Y-94292638D03*
X146425000Y-85611233D03*
X180750000Y-88400000D03*
X179675000Y-88397954D03*
X132730383Y-66725000D03*
X169547420Y-46100353D03*
X136125000Y-48997953D03*
X196173431Y-52305430D03*
X128532393Y-83025000D03*
X150602046Y-60600000D03*
X127025000Y-50500000D03*
X153075699Y-52098261D03*
X133250000Y-97049243D03*
X127037776Y-89075000D03*
X154577580Y-42900000D03*
X187234875Y-46375000D03*
X130025000Y-49000000D03*
X162389056Y-72900000D03*
X191275000Y-81231911D03*
X175525000Y-96175000D03*
X177350000Y-63825000D03*
X150834875Y-91726456D03*
X153925000Y-84100000D03*
X168750000Y-66050000D03*
X124030383Y-56550000D03*
X150825000Y-84103025D03*
X147825000Y-64171508D03*
X137590279Y-75696974D03*
X153075000Y-48995136D03*
X127030383Y-56550000D03*
X125526378Y-68500000D03*
X125530383Y-55050000D03*
X154575000Y-48995136D03*
X185725491Y-56400000D03*
X149425000Y-62685098D03*
X161350000Y-57800000D03*
X181200000Y-95842638D03*
X170443535Y-91473933D03*
X173950000Y-42990000D03*
X133875000Y-63600000D03*
X192589125Y-89071113D03*
X139450000Y-97046331D03*
X144946496Y-91725000D03*
X166230430Y-44402325D03*
X136296652Y-97047088D03*
X162389056Y-71400000D03*
X189200000Y-94303507D03*
X191700000Y-49226979D03*
X157050000Y-62850000D03*
X162395518Y-75825000D03*
X137584896Y-69646974D03*
X124031517Y-61025000D03*
X131596652Y-95550000D03*
X167775000Y-63622954D03*
X140875000Y-50498922D03*
X158436621Y-87175000D03*
X191281071Y-87526481D03*
X137592258Y-74096974D03*
X154575699Y-52098261D03*
X160895518Y-78825000D03*
X176875000Y-65975000D03*
X143206227Y-72442638D03*
X156936621Y-87175000D03*
X125531517Y-61025000D03*
X175356228Y-78503129D03*
X140252047Y-64175000D03*
X153450000Y-93225000D03*
X196128431Y-73400430D03*
X151577580Y-44400000D03*
X193490000Y-62700000D03*
X151575699Y-52098261D03*
X178850000Y-63825000D03*
X182693772Y-92792638D03*
X132725000Y-62175000D03*
X132715279Y-69650000D03*
X178243772Y-92800000D03*
X132719616Y-81900000D03*
X194673431Y-52305430D03*
X151569570Y-46100000D03*
X144936621Y-88686233D03*
X162395518Y-80325000D03*
X158425000Y-84100000D03*
X196189656Y-90619570D03*
X153077580Y-44400000D03*
X130025000Y-50500000D03*
X141750000Y-61075000D03*
X142475000Y-48996875D03*
X147825000Y-62671508D03*
X196174999Y-84400000D03*
X164400000Y-48722954D03*
X187397954Y-88050000D03*
X160895518Y-77325000D03*
X157650000Y-47601569D03*
X132730383Y-68225000D03*
X169396274Y-88305695D03*
X162389056Y-69900000D03*
X131577719Y-86000000D03*
X151575000Y-50495136D03*
X196130000Y-71820000D03*
X125530383Y-56550000D03*
X149346496Y-90216792D03*
X160900000Y-63800000D03*
X137950000Y-97046331D03*
X188751155Y-53869906D03*
X196173430Y-85980430D03*
X134625000Y-50497953D03*
X143212165Y-69442638D03*
X187556228Y-95850378D03*
X153069570Y-47600000D03*
X171050000Y-47651834D03*
X133125000Y-50497953D03*
X130075740Y-89100000D03*
X172550000Y-47651834D03*
X141762165Y-69450000D03*
X124032362Y-53450000D03*
X143212165Y-70942638D03*
X127025000Y-49000000D03*
X185800000Y-95844617D03*
X132722641Y-72600000D03*
X153077580Y-42900000D03*
X133775000Y-66575000D03*
X149325000Y-85603025D03*
X137584896Y-71146974D03*
X137625000Y-50497953D03*
X171500000Y-86944305D03*
X163900000Y-77324725D03*
X158425000Y-85600000D03*
X130032362Y-51950000D03*
X188750491Y-57915803D03*
X182975000Y-57897954D03*
X188748431Y-52325336D03*
X185726155Y-53854103D03*
X124045357Y-83025000D03*
X125531517Y-62525000D03*
X143202047Y-62667638D03*
X187225491Y-57900000D03*
D16*
X164960499Y-55800000D03*
D15*
X187234875Y-47875000D03*
X170025000Y-63630694D03*
X160889056Y-71400000D03*
X174450000Y-96172954D03*
X132732362Y-63625000D03*
X162395518Y-77325000D03*
X140262165Y-69450000D03*
X125525000Y-50500000D03*
X150077580Y-42900000D03*
X177350000Y-62325000D03*
X149325000Y-88687689D03*
X131570357Y-81550000D03*
X137625000Y-48997953D03*
X160252046Y-61400000D03*
X125550740Y-87575000D03*
X141752047Y-62675000D03*
X128537776Y-89075000D03*
X167966990Y-46098784D03*
X154569570Y-47600000D03*
X171041990Y-49351834D03*
X124024155Y-58075000D03*
X137591212Y-78796974D03*
X150075000Y-48995136D03*
X146975000Y-48996875D03*
X150825000Y-88687689D03*
X185793772Y-94294617D03*
X124025000Y-50500000D03*
X124045357Y-81525000D03*
X154577580Y-44400000D03*
X125524155Y-59575000D03*
X131575740Y-87600000D03*
X168850000Y-63625000D03*
X160152046Y-59400000D03*
X125525000Y-49000000D03*
X196171652Y-78150000D03*
X165325000Y-77318740D03*
X163159430Y-47650000D03*
X191279916Y-84401481D03*
X127032362Y-53450000D03*
X172326067Y-88475000D03*
X162400000Y-65300000D03*
X125526378Y-67000000D03*
X172075000Y-76977493D03*
X196172807Y-82775000D03*
X148475000Y-48996875D03*
X176859197Y-69000000D03*
X124052719Y-84475000D03*
X128532362Y-51950000D03*
X149725000Y-59300000D03*
X187225491Y-56400000D03*
X185734875Y-47875000D03*
X141762165Y-70950000D03*
X125529538Y-64125000D03*
X140250000Y-59575000D03*
X146446496Y-91725000D03*
X124024155Y-59575000D03*
X185725000Y-49229103D03*
X146375000Y-62678870D03*
X188759875Y-46390803D03*
X152325000Y-88687689D03*
X147835118Y-70946508D03*
X127032393Y-81525000D03*
X178250000Y-95850000D03*
X169393535Y-91480695D03*
X151577580Y-42900000D03*
X143975000Y-50496875D03*
X163151420Y-49350000D03*
X141752047Y-64175000D03*
X172541990Y-49351834D03*
X143202047Y-65667638D03*
X156158010Y-44401569D03*
X162397777Y-84925000D03*
X167250000Y-66050000D03*
X196176155Y-53850000D03*
X151569570Y-47600000D03*
X147936621Y-88686233D03*
X127039755Y-85975000D03*
X179750000Y-97350000D03*
X187225000Y-50729103D03*
X173450000Y-96175000D03*
X160895518Y-80325000D03*
X184300000Y-97344617D03*
X146434875Y-90150000D03*
%TO.N,+5VA*%
X147000000Y-60600000D03*
X169025000Y-50350000D03*
X155525000Y-52650000D03*
X163025000Y-58700000D03*
X163900000Y-58700000D03*
%TO.N,INV_695*%
X154400000Y-59350000D03*
X145675000Y-52875000D03*
%TO.N,+5V*%
X168271070Y-59550000D03*
X179025000Y-46075000D03*
X170021070Y-59554068D03*
X170025000Y-58354068D03*
X168275000Y-58350000D03*
X183230424Y-87775000D03*
X183225000Y-86825000D03*
%TO.N,+10V*%
X190825000Y-62925000D03*
X190875000Y-55175000D03*
X181500000Y-46075000D03*
%TO.N,+15V*%
X181700000Y-57975000D03*
X183825000Y-46075000D03*
X184190681Y-68250000D03*
X184187632Y-70500000D03*
X184200000Y-65625000D03*
%TD*%
%TA.AperFunction,Conductor*%
%TO.N,+5V*%
G36*
X187625000Y-77450000D02*
G01*
X189800000Y-77450000D01*
X189800000Y-85703769D01*
X189780315Y-85770808D01*
X189769735Y-85784946D01*
X188334515Y-87442188D01*
X188275747Y-87479979D01*
X188205877Y-87479998D01*
X188147089Y-87442239D01*
X188118047Y-87378691D01*
X188126218Y-87313560D01*
X188169737Y-87208497D01*
X188200500Y-87053842D01*
X188200500Y-86896158D01*
X188200500Y-86896155D01*
X188200499Y-86896153D01*
X188169738Y-86741510D01*
X188169737Y-86741503D01*
X188169735Y-86741498D01*
X188109397Y-86595827D01*
X188109390Y-86595814D01*
X188021789Y-86464711D01*
X188021786Y-86464707D01*
X187910292Y-86353213D01*
X187910288Y-86353210D01*
X187779185Y-86265609D01*
X187779172Y-86265602D01*
X187633501Y-86205264D01*
X187633489Y-86205261D01*
X187478845Y-86174500D01*
X187478842Y-86174500D01*
X187321158Y-86174500D01*
X187321155Y-86174500D01*
X187166510Y-86205261D01*
X187166498Y-86205264D01*
X187020827Y-86265602D01*
X187020814Y-86265609D01*
X186889711Y-86353210D01*
X186889707Y-86353213D01*
X186778213Y-86464707D01*
X186778210Y-86464711D01*
X186690609Y-86595814D01*
X186690602Y-86595827D01*
X186630264Y-86741498D01*
X186630261Y-86741510D01*
X186599500Y-86896153D01*
X186599500Y-87053846D01*
X186630261Y-87208489D01*
X186630264Y-87208501D01*
X186690602Y-87354172D01*
X186690609Y-87354185D01*
X186749337Y-87442077D01*
X186770215Y-87508755D01*
X186751730Y-87576135D01*
X186749338Y-87579858D01*
X186688562Y-87670816D01*
X186688556Y-87670827D01*
X186628218Y-87816498D01*
X186628215Y-87816510D01*
X186597454Y-87971153D01*
X186597454Y-88128846D01*
X186628215Y-88283489D01*
X186628218Y-88283501D01*
X186688556Y-88429172D01*
X186688563Y-88429185D01*
X186776164Y-88560288D01*
X186776167Y-88560292D01*
X186879217Y-88663342D01*
X186912702Y-88724665D01*
X186907718Y-88794357D01*
X186879217Y-88838704D01*
X186803213Y-88914707D01*
X186803210Y-88914711D01*
X186715609Y-89045814D01*
X186715602Y-89045827D01*
X186655264Y-89191498D01*
X186655261Y-89191510D01*
X186624500Y-89346153D01*
X186624500Y-89370506D01*
X186604815Y-89437545D01*
X186594235Y-89451683D01*
X185312086Y-90932177D01*
X185253318Y-90969968D01*
X185218351Y-90975000D01*
X183699000Y-90975000D01*
X183631961Y-90955315D01*
X183586206Y-90902511D01*
X183575000Y-90851000D01*
X183575000Y-89500000D01*
X181649000Y-89500000D01*
X181581961Y-89480315D01*
X181536206Y-89427511D01*
X181525000Y-89376000D01*
X181525000Y-88619249D01*
X181527383Y-88595057D01*
X181550500Y-88478844D01*
X181550500Y-88321155D01*
X181527383Y-88204941D01*
X181525000Y-88180749D01*
X181525000Y-86425629D01*
X181544685Y-86358590D01*
X181560434Y-86338842D01*
X185200000Y-82625000D01*
X185186196Y-79187713D01*
X187186100Y-79187713D01*
X187186100Y-79332288D01*
X187214301Y-79474064D01*
X187214303Y-79474072D01*
X187269624Y-79607630D01*
X187349942Y-79727834D01*
X187349945Y-79727838D01*
X187452162Y-79830055D01*
X187452166Y-79830058D01*
X187572368Y-79910375D01*
X187705929Y-79965698D01*
X187847712Y-79993900D01*
X187847716Y-79993901D01*
X187847717Y-79993901D01*
X187992284Y-79993901D01*
X187992285Y-79993900D01*
X188134071Y-79965698D01*
X188267632Y-79910375D01*
X188387834Y-79830058D01*
X188490057Y-79727835D01*
X188570374Y-79607633D01*
X188625697Y-79474072D01*
X188653900Y-79332284D01*
X188653900Y-79187718D01*
X188625697Y-79045930D01*
X188570374Y-78912369D01*
X188490057Y-78792167D01*
X188490054Y-78792163D01*
X188387837Y-78689946D01*
X188387833Y-78689943D01*
X188267629Y-78609625D01*
X188134071Y-78554304D01*
X188134063Y-78554302D01*
X187992287Y-78526101D01*
X187992283Y-78526101D01*
X187847717Y-78526101D01*
X187847712Y-78526101D01*
X187705936Y-78554302D01*
X187705928Y-78554304D01*
X187572370Y-78609625D01*
X187452166Y-78689943D01*
X187452162Y-78689946D01*
X187349945Y-78792163D01*
X187349942Y-78792167D01*
X187269624Y-78912371D01*
X187214303Y-79045929D01*
X187214301Y-79045937D01*
X187186100Y-79187713D01*
X185186196Y-79187713D01*
X185175000Y-76400000D01*
X187625000Y-76375000D01*
X187625000Y-77450000D01*
G37*
%TD.AperFunction*%
%TD*%
%TA.AperFunction,Conductor*%
%TO.N,GND*%
G36*
X197202606Y-41475523D02*
G01*
X197217604Y-41479927D01*
X197232594Y-41489557D01*
X197249675Y-41494567D01*
X197276355Y-41517672D01*
X197277542Y-41519041D01*
X197305018Y-41573902D01*
X197306663Y-41581460D01*
X197309500Y-41607831D01*
X197309500Y-65282699D01*
X197289815Y-65349738D01*
X197237011Y-65395493D01*
X197167853Y-65405437D01*
X197112985Y-65383285D01*
X195949136Y-64544231D01*
X195949131Y-64544229D01*
X195307286Y-64081503D01*
X195307283Y-64081499D01*
X194115357Y-63222204D01*
X194115339Y-63222192D01*
X194041942Y-63178208D01*
X194041934Y-63178204D01*
X194041931Y-63178202D01*
X194004351Y-63159811D01*
X193979710Y-63150243D01*
X193924567Y-63128832D01*
X193894502Y-63120004D01*
X193894497Y-63120003D01*
X193894490Y-63120001D01*
X193894485Y-63120000D01*
X193853961Y-63111184D01*
X193824006Y-63104667D01*
X193789075Y-63099645D01*
X193717133Y-63094500D01*
X193717132Y-63094500D01*
X191549500Y-63094500D01*
X191482461Y-63074815D01*
X191436706Y-63022011D01*
X191425500Y-62970500D01*
X191425500Y-62845945D01*
X191425500Y-62845943D01*
X191384577Y-62693216D01*
X191384573Y-62693209D01*
X191305524Y-62556290D01*
X191305518Y-62556282D01*
X191305514Y-62556278D01*
X191305513Y-62556276D01*
X191193722Y-62444485D01*
X191193720Y-62444484D01*
X191193717Y-62444481D01*
X191193709Y-62444475D01*
X191167147Y-62429140D01*
X191056807Y-62365435D01*
X191056783Y-62365422D01*
X190920127Y-62328806D01*
X190904057Y-62324500D01*
X190904056Y-62324500D01*
X190745943Y-62324500D01*
X190593218Y-62365422D01*
X190593211Y-62365424D01*
X190593210Y-62365425D01*
X190593200Y-62365430D01*
X190456298Y-62444470D01*
X190456294Y-62444472D01*
X190456290Y-62444475D01*
X190456282Y-62444481D01*
X190456278Y-62444484D01*
X190456276Y-62444485D01*
X190344485Y-62556276D01*
X190344484Y-62556278D01*
X190344481Y-62556281D01*
X190344481Y-62556282D01*
X190344475Y-62556290D01*
X190344472Y-62556294D01*
X190344470Y-62556298D01*
X190265430Y-62693200D01*
X190265425Y-62693210D01*
X190265424Y-62693211D01*
X190265422Y-62693218D01*
X190224500Y-62845943D01*
X190224500Y-62970500D01*
X190204815Y-63037539D01*
X190152011Y-63083294D01*
X190100500Y-63094500D01*
X188607525Y-63094500D01*
X188551271Y-63097640D01*
X188551269Y-63097640D01*
X188523849Y-63100712D01*
X188523816Y-63100716D01*
X188468367Y-63110076D01*
X188468333Y-63110083D01*
X188463521Y-63111175D01*
X188463477Y-63111184D01*
X188460222Y-63111923D01*
X188460215Y-63111925D01*
X188460213Y-63111926D01*
X188427616Y-63123835D01*
X188339759Y-63155932D01*
X188284325Y-63184613D01*
X188178818Y-63257518D01*
X188178813Y-63257522D01*
X188086554Y-63367917D01*
X188086551Y-63367921D01*
X188049838Y-63427353D01*
X188049830Y-63427369D01*
X188039288Y-63451589D01*
X188027161Y-63466099D01*
X188019305Y-63483303D01*
X188005220Y-63492354D01*
X187994484Y-63505202D01*
X187976435Y-63510853D01*
X187960527Y-63521077D01*
X187929567Y-63525528D01*
X187927806Y-63526080D01*
X187925592Y-63526100D01*
X187918165Y-63526100D01*
X187851126Y-63506415D01*
X187805371Y-63453611D01*
X187801594Y-63444375D01*
X187796806Y-63431173D01*
X187794007Y-63427363D01*
X187757568Y-63377753D01*
X187753190Y-63371386D01*
X187717345Y-63315611D01*
X187717344Y-63315609D01*
X187677481Y-63281066D01*
X187677795Y-63280759D01*
X187662661Y-63265349D01*
X187634937Y-63244201D01*
X187632011Y-63241665D01*
X187621588Y-63232634D01*
X187608608Y-63221386D01*
X187590439Y-63209709D01*
X187590438Y-63209709D01*
X187590085Y-63209482D01*
X187581918Y-63203756D01*
X187548290Y-63178103D01*
X187548285Y-63178100D01*
X187486376Y-63154365D01*
X187479258Y-63151379D01*
X187418943Y-63123836D01*
X187418939Y-63123834D01*
X187405863Y-63119995D01*
X187335410Y-63104669D01*
X187300470Y-63099646D01*
X187228527Y-63094500D01*
X187228526Y-63094500D01*
X185329500Y-63094500D01*
X185262461Y-63074815D01*
X185216706Y-63022011D01*
X185205500Y-62970500D01*
X185205500Y-59174010D01*
X185205500Y-59174000D01*
X185193947Y-59066544D01*
X185182741Y-59015033D01*
X185171510Y-58981290D01*
X185148616Y-58912502D01*
X185148613Y-58912496D01*
X185130662Y-58884564D01*
X185070825Y-58791457D01*
X185065168Y-58784928D01*
X185025076Y-58738659D01*
X185025072Y-58738656D01*
X185025070Y-58738653D01*
X184916336Y-58644433D01*
X184916333Y-58644431D01*
X184916331Y-58644430D01*
X184785465Y-58584664D01*
X184785460Y-58584662D01*
X184785459Y-58584662D01*
X184718420Y-58564977D01*
X184718422Y-58564977D01*
X184718417Y-58564976D01*
X184670944Y-58558150D01*
X184576000Y-58544500D01*
X184575998Y-58544500D01*
X183087216Y-58544500D01*
X183020177Y-58524815D01*
X182974422Y-58472011D01*
X182967347Y-58452241D01*
X182966114Y-58447584D01*
X182947439Y-58397515D01*
X182915832Y-58312774D01*
X182900871Y-58285376D01*
X182882351Y-58251458D01*
X182882350Y-58251457D01*
X182882348Y-58251453D01*
X182796124Y-58136272D01*
X182754495Y-58094643D01*
X182739072Y-58075850D01*
X182720357Y-58047840D01*
X182708900Y-58026406D01*
X182696012Y-57995293D01*
X182688954Y-57972026D01*
X182682382Y-57938982D01*
X182680000Y-57914794D01*
X182680000Y-57881111D01*
X182682382Y-57856923D01*
X182688954Y-57823879D01*
X182696010Y-57800618D01*
X182708900Y-57769497D01*
X182720358Y-57748063D01*
X182722144Y-57745391D01*
X182739073Y-57720053D01*
X182754497Y-57701261D01*
X182761032Y-57694727D01*
X182796121Y-57659639D01*
X182832288Y-57619375D01*
X182848922Y-57598733D01*
X182880567Y-57554849D01*
X182940338Y-57423972D01*
X182960023Y-57356933D01*
X182960024Y-57356929D01*
X182980500Y-57214513D01*
X182980500Y-56055244D01*
X182980500Y-55095943D01*
X190274500Y-55095943D01*
X190274500Y-55254057D01*
X190298768Y-55344625D01*
X190303600Y-55362658D01*
X190315423Y-55406783D01*
X190315424Y-55406787D01*
X190315425Y-55406788D01*
X190315428Y-55406793D01*
X190391623Y-55538771D01*
X190391638Y-55538795D01*
X190394475Y-55543709D01*
X190394479Y-55543714D01*
X190394480Y-55543716D01*
X190395049Y-55544285D01*
X190506283Y-55655519D01*
X190506975Y-55656017D01*
X190509473Y-55657362D01*
X190538358Y-55674038D01*
X190643216Y-55734577D01*
X190795943Y-55775500D01*
X190795945Y-55775500D01*
X190954055Y-55775500D01*
X190954057Y-55775500D01*
X191106784Y-55734577D01*
X191243716Y-55655520D01*
X191355520Y-55543716D01*
X191434577Y-55406784D01*
X191475500Y-55254057D01*
X191475500Y-55095943D01*
X191434577Y-54943216D01*
X191373447Y-54837334D01*
X191373447Y-54837333D01*
X191367055Y-54826263D01*
X191355524Y-54806290D01*
X191355518Y-54806282D01*
X191355514Y-54806278D01*
X191355513Y-54806276D01*
X191243722Y-54694485D01*
X191243720Y-54694484D01*
X191243717Y-54694481D01*
X191243709Y-54694475D01*
X191207273Y-54673439D01*
X191106807Y-54615435D01*
X191106783Y-54615422D01*
X190994979Y-54585464D01*
X190954057Y-54574500D01*
X190954056Y-54574500D01*
X190795943Y-54574500D01*
X190643218Y-54615422D01*
X190643211Y-54615424D01*
X190643210Y-54615425D01*
X190643200Y-54615430D01*
X190506298Y-54694470D01*
X190506294Y-54694472D01*
X190506290Y-54694475D01*
X190506282Y-54694481D01*
X190506278Y-54694484D01*
X190506276Y-54694485D01*
X190394485Y-54806276D01*
X190394484Y-54806278D01*
X190394481Y-54806281D01*
X190394481Y-54806282D01*
X190394475Y-54806290D01*
X190394472Y-54806294D01*
X190394470Y-54806298D01*
X190315430Y-54943200D01*
X190315425Y-54943210D01*
X190315424Y-54943211D01*
X190315422Y-54943218D01*
X190274912Y-55094404D01*
X190274500Y-55095943D01*
X182980500Y-55095943D01*
X182980500Y-52963373D01*
X182991931Y-52911371D01*
X183000636Y-52892528D01*
X185047469Y-48461736D01*
X185082282Y-48358271D01*
X185093713Y-48306269D01*
X185105500Y-48197742D01*
X185105500Y-45091995D01*
X191709500Y-45091995D01*
X191709500Y-45328004D01*
X191709501Y-45328020D01*
X191734173Y-45515426D01*
X191740307Y-45562014D01*
X191749008Y-45594485D01*
X191778964Y-45706282D01*
X191801396Y-45789999D01*
X191829590Y-45858065D01*
X191891714Y-46008045D01*
X191891719Y-46008056D01*
X191923128Y-46062457D01*
X192009727Y-46212450D01*
X192009729Y-46212453D01*
X192009730Y-46212454D01*
X192015632Y-46220146D01*
X192015633Y-46220147D01*
X192153399Y-46399689D01*
X192153403Y-46399694D01*
X192153406Y-46399697D01*
X192153412Y-46399704D01*
X192153420Y-46399712D01*
X192320281Y-46566574D01*
X192320295Y-46566587D01*
X192320301Y-46566592D01*
X192507550Y-46710273D01*
X192608584Y-46768605D01*
X192708505Y-46826295D01*
X192710241Y-46827374D01*
X192711663Y-46828163D01*
X192711937Y-46828276D01*
X192711943Y-46828280D01*
X192711948Y-46828282D01*
X192711951Y-46828284D01*
X192930007Y-46918606D01*
X193157986Y-46979693D01*
X193391989Y-47010500D01*
X193391996Y-47010500D01*
X193628004Y-47010500D01*
X193628011Y-47010500D01*
X193862014Y-46979693D01*
X194089993Y-46918606D01*
X194308049Y-46828284D01*
X194512450Y-46710273D01*
X194699699Y-46566592D01*
X194866592Y-46399699D01*
X195010273Y-46212450D01*
X195128284Y-46008049D01*
X195218606Y-45789993D01*
X195279693Y-45562014D01*
X195310500Y-45328011D01*
X195310500Y-45091989D01*
X195279693Y-44857986D01*
X195218606Y-44630007D01*
X195128284Y-44411951D01*
X195128282Y-44411948D01*
X195128280Y-44411943D01*
X195128276Y-44411937D01*
X195128163Y-44411663D01*
X195127374Y-44410241D01*
X195126294Y-44408503D01*
X195041681Y-44261950D01*
X195010273Y-44207550D01*
X194866595Y-44020305D01*
X194866589Y-44020297D01*
X194866574Y-44020281D01*
X194699712Y-43853420D01*
X194699704Y-43853412D01*
X194699697Y-43853406D01*
X194699694Y-43853403D01*
X194699689Y-43853399D01*
X194519908Y-43715449D01*
X194519904Y-43715446D01*
X194512454Y-43709730D01*
X194512453Y-43709729D01*
X194512450Y-43709727D01*
X194430957Y-43662677D01*
X194430282Y-43662287D01*
X194430263Y-43662276D01*
X194308065Y-43591724D01*
X194308048Y-43591715D01*
X194089997Y-43501395D01*
X193873783Y-43443459D01*
X193873761Y-43443454D01*
X193862014Y-43440307D01*
X193862013Y-43440306D01*
X193862010Y-43440306D01*
X193629889Y-43409747D01*
X193628208Y-43409500D01*
X193628017Y-43409500D01*
X193628011Y-43409500D01*
X193391989Y-43409500D01*
X193391983Y-43409500D01*
X193391981Y-43409500D01*
X193385861Y-43410253D01*
X193384955Y-43410425D01*
X193157992Y-43440305D01*
X192930001Y-43501395D01*
X192711950Y-43591715D01*
X192711942Y-43591719D01*
X192507545Y-43709730D01*
X192507536Y-43709736D01*
X192320309Y-43853399D01*
X192320294Y-43853413D01*
X192320286Y-43853420D01*
X192153420Y-44020286D01*
X192153413Y-44020294D01*
X192153399Y-44020309D01*
X192009736Y-44207536D01*
X192009730Y-44207545D01*
X191891719Y-44411942D01*
X191891715Y-44411950D01*
X191801395Y-44630001D01*
X191740305Y-44857992D01*
X191709503Y-45091963D01*
X191709501Y-45091979D01*
X191709500Y-45091995D01*
X185105500Y-45091995D01*
X185105500Y-44199000D01*
X185093947Y-44091544D01*
X185082741Y-44040033D01*
X185076174Y-44020302D01*
X185048616Y-43937502D01*
X185048613Y-43937496D01*
X185025404Y-43901383D01*
X184970825Y-43816457D01*
X184970820Y-43816451D01*
X184925076Y-43763659D01*
X184925072Y-43763656D01*
X184925070Y-43763653D01*
X184816336Y-43669433D01*
X184816333Y-43669431D01*
X184816331Y-43669430D01*
X184685465Y-43609664D01*
X184685460Y-43609662D01*
X184685459Y-43609662D01*
X184618420Y-43589977D01*
X184618422Y-43589977D01*
X184618417Y-43589976D01*
X184556347Y-43581052D01*
X184476000Y-43569500D01*
X184475998Y-43569500D01*
X183174010Y-43569500D01*
X183174000Y-43569500D01*
X183173991Y-43569500D01*
X183173990Y-43569501D01*
X183066549Y-43581052D01*
X183066537Y-43581054D01*
X183015027Y-43592260D01*
X182912502Y-43626383D01*
X182912496Y-43626386D01*
X182791462Y-43704171D01*
X182791451Y-43704179D01*
X182738659Y-43749923D01*
X182644433Y-43858664D01*
X182644430Y-43858668D01*
X182584664Y-43989534D01*
X182564976Y-44056582D01*
X182559949Y-44091549D01*
X182544502Y-44198990D01*
X182544500Y-44199001D01*
X182544500Y-46415686D01*
X182533701Y-46466297D01*
X180520350Y-50969527D01*
X180520346Y-50969537D01*
X180487461Y-51070349D01*
X180487456Y-51070369D01*
X180476659Y-51120971D01*
X180465530Y-51226456D01*
X180465530Y-56047924D01*
X180465532Y-56048085D01*
X180468489Y-58136135D01*
X180468996Y-58494428D01*
X180469473Y-58831675D01*
X180469473Y-58831684D01*
X180469474Y-58831694D01*
X180471916Y-58863129D01*
X180475427Y-58908346D01*
X180475428Y-58908347D01*
X180481182Y-58945506D01*
X180498691Y-59020362D01*
X181966174Y-63667390D01*
X181970746Y-63721826D01*
X181970057Y-63726775D01*
X181970056Y-63726782D01*
X181975303Y-64912611D01*
X181980091Y-65994769D01*
X181994499Y-69250977D01*
X181994500Y-69251526D01*
X181994500Y-71162673D01*
X181997391Y-71216649D01*
X181997394Y-71216681D01*
X182000222Y-71243010D01*
X182008882Y-71296457D01*
X182008886Y-71296483D01*
X182010528Y-71304030D01*
X182010529Y-71304034D01*
X182024072Y-71342413D01*
X182024283Y-71343011D01*
X182028027Y-71412780D01*
X181993457Y-71473498D01*
X181931549Y-71505888D01*
X181907565Y-71508272D01*
X176106242Y-71518397D01*
X176039169Y-71498829D01*
X175993322Y-71446105D01*
X175982026Y-71394096D01*
X175982104Y-71361924D01*
X175983054Y-70968720D01*
X176005319Y-61750417D01*
X176003305Y-61704107D01*
X176003188Y-61702804D01*
X176003148Y-61701913D01*
X176002572Y-61694703D01*
X176002573Y-61694699D01*
X176002572Y-61694694D01*
X176002055Y-61688215D01*
X176001654Y-61685667D01*
X176001288Y-61681570D01*
X176001283Y-61681536D01*
X176001157Y-61680127D01*
X176001157Y-61680124D01*
X176001155Y-61680101D01*
X175999051Y-61656602D01*
X175996079Y-61643240D01*
X175995045Y-61635625D01*
X175994293Y-61631514D01*
X175971345Y-61556831D01*
X175970789Y-61554373D01*
X175970616Y-61553921D01*
X175970468Y-61553977D01*
X175959576Y-61518526D01*
X175941099Y-61476622D01*
X175936343Y-61465835D01*
X175936341Y-61465832D01*
X175936340Y-61465829D01*
X175876334Y-61363994D01*
X175862765Y-61346132D01*
X175815152Y-61291960D01*
X175790020Y-61267180D01*
X175790019Y-61267180D01*
X175770695Y-61248127D01*
X175768828Y-61247589D01*
X175754499Y-61236955D01*
X175746412Y-61229997D01*
X175735174Y-61220329D01*
X174940482Y-60634145D01*
X173462866Y-59544220D01*
X171005893Y-57731898D01*
X170963627Y-57676261D01*
X170955500Y-57632108D01*
X170955500Y-56203178D01*
X170975185Y-56136139D01*
X170984295Y-56123730D01*
X172082533Y-54807868D01*
X172140601Y-54769015D01*
X172210458Y-54767722D01*
X172269925Y-54804402D01*
X172300121Y-54867410D01*
X172299348Y-54911516D01*
X172279500Y-55011299D01*
X172279500Y-55188699D01*
X172314099Y-55362646D01*
X172314101Y-55362653D01*
X172314109Y-55362676D01*
X172381977Y-55526526D01*
X172381985Y-55526544D01*
X172381994Y-55526559D01*
X172480536Y-55674036D01*
X172480537Y-55674037D01*
X172480542Y-55674043D01*
X172605955Y-55799456D01*
X172605961Y-55799461D01*
X172605965Y-55799464D01*
X172753446Y-55898009D01*
X172753459Y-55898016D01*
X172778278Y-55908296D01*
X172875144Y-55948419D01*
X172875182Y-55948434D01*
X172876363Y-55948923D01*
X172917334Y-55965894D01*
X172917336Y-55965894D01*
X172917341Y-55965896D01*
X173083680Y-55998982D01*
X173086403Y-55999704D01*
X173091306Y-56000500D01*
X173268693Y-56000500D01*
X173272814Y-56000500D01*
X173280667Y-55998117D01*
X173326682Y-55988964D01*
X173326683Y-55988964D01*
X173442653Y-55965897D01*
X173442653Y-55965896D01*
X173442658Y-55965896D01*
X173442661Y-55965894D01*
X173442666Y-55965894D01*
X173445854Y-55964573D01*
X173453835Y-55961273D01*
X173453876Y-55961251D01*
X173606540Y-55898016D01*
X173606540Y-55898015D01*
X173606547Y-55898013D01*
X173754035Y-55799464D01*
X173879464Y-55674035D01*
X173978013Y-55526547D01*
X174045894Y-55362666D01*
X174049486Y-55344612D01*
X174080499Y-55188695D01*
X174080500Y-55188693D01*
X174080500Y-55013787D01*
X174080500Y-55011309D01*
X174080500Y-55011306D01*
X174080499Y-55011304D01*
X174080498Y-55011299D01*
X177159500Y-55011299D01*
X177159500Y-55188699D01*
X177194099Y-55362646D01*
X177194101Y-55362653D01*
X177194109Y-55362676D01*
X177261977Y-55526526D01*
X177261985Y-55526544D01*
X177261994Y-55526559D01*
X177360536Y-55674036D01*
X177360537Y-55674037D01*
X177360542Y-55674043D01*
X177485955Y-55799456D01*
X177485961Y-55799461D01*
X177485965Y-55799464D01*
X177633446Y-55898009D01*
X177633459Y-55898016D01*
X177658278Y-55908296D01*
X177755144Y-55948419D01*
X177755182Y-55948434D01*
X177756363Y-55948923D01*
X177797334Y-55965894D01*
X177797336Y-55965894D01*
X177797341Y-55965896D01*
X177963680Y-55998982D01*
X177966403Y-55999704D01*
X177971306Y-56000500D01*
X178548693Y-56000500D01*
X178552814Y-56000500D01*
X178560667Y-55998117D01*
X178606682Y-55988964D01*
X178606683Y-55988964D01*
X178722653Y-55965897D01*
X178722653Y-55965896D01*
X178722658Y-55965896D01*
X178722661Y-55965894D01*
X178722666Y-55965894D01*
X178725854Y-55964573D01*
X178733835Y-55961273D01*
X178733876Y-55961251D01*
X178886540Y-55898016D01*
X178886540Y-55898015D01*
X178886547Y-55898013D01*
X179034035Y-55799464D01*
X179159464Y-55674035D01*
X179258013Y-55526547D01*
X179325894Y-55362666D01*
X179329486Y-55344612D01*
X179360499Y-55188695D01*
X179360500Y-55188693D01*
X179360500Y-55011125D01*
X179360074Y-55009169D01*
X179325896Y-54837341D01*
X179325893Y-54837332D01*
X179258016Y-54673459D01*
X179258009Y-54673446D01*
X179159464Y-54525965D01*
X179159461Y-54525961D01*
X179159456Y-54525955D01*
X179034043Y-54400542D01*
X179034037Y-54400537D01*
X179034036Y-54400536D01*
X178886559Y-54301994D01*
X178886558Y-54301993D01*
X178886553Y-54301990D01*
X178886540Y-54301983D01*
X178886526Y-54301977D01*
X178722676Y-54234109D01*
X178722653Y-54234101D01*
X178722646Y-54234099D01*
X178548698Y-54199500D01*
X178548694Y-54199500D01*
X178548691Y-54199500D01*
X177971309Y-54199500D01*
X177971306Y-54199500D01*
X177971301Y-54199500D01*
X177797352Y-54234100D01*
X177797345Y-54234101D01*
X177797322Y-54234109D01*
X177633472Y-54301977D01*
X177633454Y-54301985D01*
X177633439Y-54301994D01*
X177485962Y-54400536D01*
X177485961Y-54400537D01*
X177485955Y-54400542D01*
X177360542Y-54525955D01*
X177360537Y-54525961D01*
X177360536Y-54525962D01*
X177261994Y-54673439D01*
X177261985Y-54673454D01*
X177261977Y-54673472D01*
X177194109Y-54837322D01*
X177194101Y-54837345D01*
X177194099Y-54837352D01*
X177159500Y-55011299D01*
X174080498Y-55011299D01*
X174045896Y-54837341D01*
X174045893Y-54837332D01*
X173978016Y-54673459D01*
X173978009Y-54673446D01*
X173879464Y-54525965D01*
X173879461Y-54525961D01*
X173879456Y-54525955D01*
X173754043Y-54400542D01*
X173754037Y-54400537D01*
X173754036Y-54400536D01*
X173606559Y-54301994D01*
X173606558Y-54301993D01*
X173606553Y-54301990D01*
X173606540Y-54301983D01*
X173606526Y-54301977D01*
X173442676Y-54234109D01*
X173442653Y-54234101D01*
X173442646Y-54234099D01*
X173268698Y-54199500D01*
X173268694Y-54199500D01*
X173268691Y-54199500D01*
X173091309Y-54199500D01*
X173091306Y-54199500D01*
X173091301Y-54199500D01*
X172917352Y-54234100D01*
X172917345Y-54234101D01*
X172917334Y-54234105D01*
X172896333Y-54242804D01*
X172838853Y-54266612D01*
X172769385Y-54274080D01*
X172706906Y-54242804D01*
X172671254Y-54182715D01*
X172673749Y-54112890D01*
X172696202Y-54072597D01*
X176074352Y-50025044D01*
X176132421Y-49986190D01*
X176169551Y-49980500D01*
X179625990Y-49980500D01*
X179626000Y-49980500D01*
X179733456Y-49968947D01*
X179784967Y-49957741D01*
X179819197Y-49946347D01*
X179887497Y-49923616D01*
X179887501Y-49923613D01*
X179887504Y-49923613D01*
X180008543Y-49845825D01*
X180061347Y-49800070D01*
X180155567Y-49691336D01*
X180215338Y-49560459D01*
X180235023Y-49493420D01*
X180235024Y-49493416D01*
X180255500Y-49351000D01*
X180255500Y-45995943D01*
X180899500Y-45995943D01*
X180899500Y-46154057D01*
X180915148Y-46212454D01*
X180925129Y-46249704D01*
X180940423Y-46306783D01*
X180940424Y-46306787D01*
X180940425Y-46306788D01*
X180940428Y-46306793D01*
X181016623Y-46438771D01*
X181016638Y-46438795D01*
X181019475Y-46443709D01*
X181019479Y-46443714D01*
X181019480Y-46443716D01*
X181020049Y-46444285D01*
X181131287Y-46555523D01*
X181131969Y-46556014D01*
X181134475Y-46557363D01*
X181268209Y-46634573D01*
X181268216Y-46634577D01*
X181420943Y-46675500D01*
X181420945Y-46675500D01*
X181579055Y-46675500D01*
X181579057Y-46675500D01*
X181731784Y-46634577D01*
X181868716Y-46555520D01*
X181980520Y-46443716D01*
X182059577Y-46306784D01*
X182100500Y-46154057D01*
X182100500Y-45995943D01*
X182059577Y-45843216D01*
X182028849Y-45789993D01*
X181980524Y-45706290D01*
X181980518Y-45706282D01*
X181980513Y-45706276D01*
X181868722Y-45594485D01*
X181868720Y-45594484D01*
X181868717Y-45594481D01*
X181868709Y-45594475D01*
X181842147Y-45579140D01*
X181731807Y-45515435D01*
X181731783Y-45515422D01*
X181619979Y-45485464D01*
X181579057Y-45474500D01*
X181579056Y-45474500D01*
X181420943Y-45474500D01*
X181268218Y-45515422D01*
X181268211Y-45515424D01*
X181268210Y-45515425D01*
X181268207Y-45515427D01*
X181131298Y-45594470D01*
X181131294Y-45594472D01*
X181131290Y-45594475D01*
X181131282Y-45594481D01*
X181131278Y-45594484D01*
X181131276Y-45594485D01*
X181019485Y-45706276D01*
X181019484Y-45706278D01*
X181019481Y-45706281D01*
X181019481Y-45706282D01*
X181019475Y-45706290D01*
X181019472Y-45706294D01*
X181019470Y-45706298D01*
X180940430Y-45843200D01*
X180940425Y-45843210D01*
X180940424Y-45843211D01*
X180940422Y-45843218D01*
X180936444Y-45858065D01*
X180899500Y-45995943D01*
X180255500Y-45995943D01*
X180255500Y-44474000D01*
X180243947Y-44366544D01*
X180232741Y-44315033D01*
X180232637Y-44314722D01*
X180198616Y-44212502D01*
X180198613Y-44212496D01*
X180120828Y-44091462D01*
X180120825Y-44091457D01*
X180120820Y-44091451D01*
X180075076Y-44038659D01*
X180075072Y-44038656D01*
X180075070Y-44038653D01*
X179966336Y-43944433D01*
X179966333Y-43944431D01*
X179966331Y-43944430D01*
X179835465Y-43884664D01*
X179835460Y-43884662D01*
X179835459Y-43884662D01*
X179768420Y-43864977D01*
X179768422Y-43864977D01*
X179768417Y-43864976D01*
X179706347Y-43856052D01*
X179626000Y-43844500D01*
X179625998Y-43844500D01*
X178399010Y-43844500D01*
X178399000Y-43844500D01*
X178398991Y-43844500D01*
X178398990Y-43844501D01*
X178291549Y-43856052D01*
X178291537Y-43856054D01*
X178240027Y-43867260D01*
X178137502Y-43901383D01*
X178137496Y-43901386D01*
X178016462Y-43979171D01*
X178016451Y-43979179D01*
X177963659Y-44024923D01*
X177869433Y-44133664D01*
X177869430Y-44133668D01*
X177809664Y-44264534D01*
X177789976Y-44331582D01*
X177784949Y-44366549D01*
X177769502Y-44473990D01*
X177769500Y-44474001D01*
X177769500Y-46545500D01*
X177749815Y-46612539D01*
X177697011Y-46658294D01*
X177645500Y-46669500D01*
X176458260Y-46669500D01*
X176380891Y-46675455D01*
X176343402Y-46681261D01*
X176267867Y-46698983D01*
X176138318Y-46761572D01*
X176138310Y-46761576D01*
X176087027Y-46796126D01*
X176086370Y-46796509D01*
X176080366Y-46800614D01*
X175973698Y-46897166D01*
X175973695Y-46897169D01*
X170085989Y-53997049D01*
X170075394Y-54008314D01*
X168518226Y-55469656D01*
X168475601Y-55514898D01*
X168475599Y-55514899D01*
X168456166Y-55538248D01*
X168456150Y-55538267D01*
X168419433Y-55588345D01*
X168359663Y-55719219D01*
X168339976Y-55786264D01*
X168338078Y-55799464D01*
X168323910Y-55898013D01*
X168319500Y-55928683D01*
X168319500Y-57320500D01*
X168299815Y-57387539D01*
X168247011Y-57433294D01*
X168195500Y-57444500D01*
X166686394Y-57444500D01*
X166633183Y-57447310D01*
X166633180Y-57447310D01*
X166607190Y-57450063D01*
X166607181Y-57450064D01*
X166554435Y-57458489D01*
X166554429Y-57458490D01*
X166554428Y-57458490D01*
X166547191Y-57460042D01*
X166464801Y-57488758D01*
X166428998Y-57501237D01*
X166428996Y-57501238D01*
X166374359Y-57528273D01*
X166269768Y-57597370D01*
X166268214Y-57598701D01*
X166250085Y-57619375D01*
X166177717Y-57701901D01*
X166173396Y-57706828D01*
X166143522Y-57752706D01*
X166090444Y-57798143D01*
X166021227Y-57807672D01*
X165957847Y-57778266D01*
X165950103Y-57770859D01*
X165948908Y-57769612D01*
X165904192Y-57727451D01*
X165904189Y-57727449D01*
X165904187Y-57727447D01*
X165804111Y-57676561D01*
X165804110Y-57676560D01*
X165804109Y-57676560D01*
X165737078Y-57656877D01*
X165737072Y-57656876D01*
X165651000Y-57644500D01*
X165650997Y-57644500D01*
X164804500Y-57644500D01*
X164737461Y-57624815D01*
X164691706Y-57572011D01*
X164680500Y-57520500D01*
X164680500Y-55649010D01*
X164680500Y-55649000D01*
X164673518Y-55584059D01*
X164662312Y-55532548D01*
X164651354Y-55494342D01*
X164594675Y-55397429D01*
X164548920Y-55344625D01*
X164548918Y-55344623D01*
X164548908Y-55344612D01*
X164504192Y-55302451D01*
X164504189Y-55302448D01*
X164504187Y-55302447D01*
X164504184Y-55302445D01*
X164496933Y-55297343D01*
X164498193Y-55295551D01*
X164456217Y-55255968D01*
X164439369Y-55188161D01*
X164461854Y-55122008D01*
X164488547Y-55094409D01*
X166791551Y-53356014D01*
X167090270Y-53130530D01*
X167155636Y-53105852D01*
X167164976Y-53105500D01*
X169650990Y-53105500D01*
X169651000Y-53105500D01*
X169758456Y-53093947D01*
X169809967Y-53082741D01*
X169844197Y-53071347D01*
X169912497Y-53048616D01*
X169912501Y-53048613D01*
X169912504Y-53048613D01*
X170033543Y-52970825D01*
X170086347Y-52925070D01*
X170180567Y-52816336D01*
X170240338Y-52685459D01*
X170260023Y-52618420D01*
X170260024Y-52618416D01*
X170280500Y-52476000D01*
X170280500Y-48949000D01*
X170268947Y-48841544D01*
X170257741Y-48790033D01*
X170248761Y-48763052D01*
X170223616Y-48687502D01*
X170223613Y-48687496D01*
X170145828Y-48566462D01*
X170145825Y-48566457D01*
X170145820Y-48566451D01*
X170100076Y-48513659D01*
X170100072Y-48513656D01*
X170100070Y-48513653D01*
X169991336Y-48419433D01*
X169991333Y-48419431D01*
X169991331Y-48419430D01*
X169860465Y-48359664D01*
X169860460Y-48359662D01*
X169860459Y-48359662D01*
X169793420Y-48339977D01*
X169793422Y-48339977D01*
X169793417Y-48339976D01*
X169745944Y-48333150D01*
X169651000Y-48319500D01*
X169650998Y-48319500D01*
X168497649Y-48319500D01*
X168439169Y-48322896D01*
X168439119Y-48322900D01*
X168410625Y-48326222D01*
X168352899Y-48336370D01*
X168352896Y-48336371D01*
X168219003Y-48389052D01*
X168158299Y-48423619D01*
X168158294Y-48423622D01*
X168158292Y-48423624D01*
X168044670Y-48511887D01*
X168044669Y-48511888D01*
X168044668Y-48511889D01*
X167960514Y-48628588D01*
X167928132Y-48690492D01*
X167928124Y-48690510D01*
X167902530Y-48763052D01*
X167900156Y-48769247D01*
X167866100Y-48851466D01*
X167854641Y-48872905D01*
X167835920Y-48900923D01*
X167820499Y-48919713D01*
X167796693Y-48943519D01*
X167777903Y-48958940D01*
X167749885Y-48977661D01*
X167728446Y-48989120D01*
X167697328Y-49002009D01*
X167674071Y-49009065D01*
X167657340Y-49012393D01*
X167641031Y-49015637D01*
X167616841Y-49018020D01*
X167583159Y-49018020D01*
X167558968Y-49015637D01*
X167525924Y-49009064D01*
X167502669Y-49002010D01*
X167471539Y-48989115D01*
X167450105Y-48977658D01*
X167410680Y-48951315D01*
X167403191Y-48946407D01*
X167399392Y-48943965D01*
X167391790Y-48939175D01*
X167259872Y-48881754D01*
X167256354Y-48880789D01*
X167192485Y-48863268D01*
X167192487Y-48863268D01*
X167049736Y-48845337D01*
X167049734Y-48845337D01*
X166907711Y-48868350D01*
X166841035Y-48889227D01*
X166841026Y-48889230D01*
X166841016Y-48889234D01*
X166711236Y-48951328D01*
X166711230Y-48951331D01*
X166674890Y-48975613D01*
X166653452Y-48987072D01*
X166622327Y-48999964D01*
X166599070Y-49007019D01*
X166588791Y-49009064D01*
X166566030Y-49013591D01*
X166541841Y-49015974D01*
X166508158Y-49015974D01*
X166483967Y-49013591D01*
X166450927Y-49007019D01*
X166427665Y-48999963D01*
X166401481Y-48989117D01*
X166396544Y-48987072D01*
X166375107Y-48975613D01*
X166352745Y-48960671D01*
X166352735Y-48960664D01*
X166345209Y-48955731D01*
X166341430Y-48953303D01*
X166333846Y-48948523D01*
X166333829Y-48948514D01*
X166261938Y-48917223D01*
X166261937Y-48917222D01*
X166217795Y-48898008D01*
X166217906Y-48897716D01*
X166212102Y-48895529D01*
X166209242Y-48894285D01*
X166209221Y-48894277D01*
X166201912Y-48891096D01*
X166201910Y-48891095D01*
X166201907Y-48891094D01*
X166201901Y-48891092D01*
X166201888Y-48891088D01*
X166201546Y-48890994D01*
X166190719Y-48887479D01*
X166190369Y-48887347D01*
X166190361Y-48887345D01*
X166190358Y-48887344D01*
X166182558Y-48885621D01*
X166176535Y-48884131D01*
X166140174Y-48874159D01*
X166140175Y-48874159D01*
X166134494Y-48872601D01*
X166114900Y-48870140D01*
X166103626Y-48868191D01*
X166049907Y-48856329D01*
X166032749Y-48857501D01*
X166008858Y-48856823D01*
X165991784Y-48854679D01*
X165937462Y-48863481D01*
X165926716Y-48864744D01*
X165926496Y-48864760D01*
X165906364Y-48866136D01*
X165900603Y-48867370D01*
X165863710Y-48875273D01*
X165863709Y-48875272D01*
X165860657Y-48875926D01*
X165849754Y-48877694D01*
X165843965Y-48879506D01*
X165838393Y-48880701D01*
X165838376Y-48880706D01*
X165837996Y-48880787D01*
X165837985Y-48880790D01*
X165830477Y-48883564D01*
X165824579Y-48885575D01*
X165795112Y-48894805D01*
X165795026Y-48894895D01*
X165776659Y-48903444D01*
X165703094Y-48930619D01*
X165703093Y-48930619D01*
X165698065Y-48933344D01*
X165698016Y-48933372D01*
X165658058Y-48957476D01*
X165658048Y-48957483D01*
X165624881Y-48979644D01*
X165610136Y-48988095D01*
X165606833Y-48989697D01*
X165577144Y-49001996D01*
X165529681Y-49024615D01*
X165524003Y-49027693D01*
X165514507Y-49034506D01*
X165510136Y-49036628D01*
X165456389Y-49072423D01*
X165456386Y-49072425D01*
X165380264Y-49134602D01*
X165380262Y-49134604D01*
X165356517Y-49166117D01*
X165356501Y-49166139D01*
X165352883Y-49170942D01*
X165294437Y-49240769D01*
X165272103Y-49289667D01*
X165270766Y-49291625D01*
X165270576Y-49291520D01*
X165269491Y-49293490D01*
X165269483Y-49293504D01*
X165259998Y-49310750D01*
X165259988Y-49310771D01*
X165249855Y-49337681D01*
X165249856Y-49337682D01*
X165248357Y-49341661D01*
X165234664Y-49371646D01*
X165228478Y-49392712D01*
X165229072Y-49392885D01*
X165224513Y-49404995D01*
X165224509Y-49405010D01*
X165209304Y-49445396D01*
X165204536Y-49509274D01*
X165203618Y-49517688D01*
X165194500Y-49581108D01*
X165194500Y-51764377D01*
X165174815Y-51831416D01*
X165139608Y-51867334D01*
X161823161Y-54093442D01*
X161743891Y-54159305D01*
X161708684Y-54195223D01*
X161644434Y-54275772D01*
X161584663Y-54406648D01*
X161584662Y-54406652D01*
X161564977Y-54473691D01*
X161564976Y-54473695D01*
X161544599Y-54615426D01*
X161544500Y-54616112D01*
X161544500Y-55525002D01*
X161549644Y-55596940D01*
X161578338Y-55694660D01*
X161590059Y-55734577D01*
X161590182Y-55734994D01*
X161593867Y-55743063D01*
X161590696Y-55744510D01*
X161605668Y-55795503D01*
X161585982Y-55862542D01*
X161533177Y-55908296D01*
X161481668Y-55919500D01*
X159990296Y-55919500D01*
X159923257Y-55899815D01*
X159898447Y-55878805D01*
X157312400Y-53027523D01*
X157312389Y-53027511D01*
X157251409Y-52975840D01*
X157251402Y-52975835D01*
X157197319Y-52941036D01*
X157197313Y-52941032D01*
X157149101Y-52915775D01*
X157102607Y-52905935D01*
X157039261Y-52892528D01*
X156972735Y-52890947D01*
X156969417Y-52890869D01*
X156969416Y-52890869D01*
X156969415Y-52890869D01*
X156969414Y-52890869D01*
X156959325Y-52892076D01*
X156944599Y-52892954D01*
X156852488Y-52892954D01*
X156820394Y-52888729D01*
X156776901Y-52877075D01*
X156746995Y-52864687D01*
X156708000Y-52842173D01*
X156682319Y-52822467D01*
X156650484Y-52790632D01*
X156630777Y-52764950D01*
X156608265Y-52725957D01*
X156595878Y-52696050D01*
X156584225Y-52652558D01*
X156580000Y-52620466D01*
X156580000Y-52575434D01*
X156584224Y-52543343D01*
X156589525Y-52523562D01*
X156599580Y-52459208D01*
X156602112Y-52406694D01*
X156601453Y-52367121D01*
X156571911Y-52258808D01*
X156571912Y-52258808D01*
X156541458Y-52195934D01*
X156541454Y-52195929D01*
X156541453Y-52195925D01*
X156492798Y-52123859D01*
X156492796Y-52123856D01*
X156310107Y-51922431D01*
X156276571Y-51885455D01*
X156247709Y-51857559D01*
X156222899Y-51836549D01*
X156221971Y-51835800D01*
X156211621Y-51827448D01*
X156211619Y-51827447D01*
X156111541Y-51776560D01*
X156044510Y-51756877D01*
X156044504Y-51756876D01*
X155958432Y-51744500D01*
X155958429Y-51744500D01*
X155300209Y-51744500D01*
X155300199Y-51744500D01*
X155300190Y-51744500D01*
X155300189Y-51744501D01*
X155235263Y-51751481D01*
X155235251Y-51751483D01*
X155183745Y-51762688D01*
X155145544Y-51773644D01*
X155145540Y-51773646D01*
X155048630Y-51830323D01*
X155048627Y-51830325D01*
X154995822Y-51876081D01*
X154995811Y-51876091D01*
X154953650Y-51920807D01*
X154953644Y-51920816D01*
X154902758Y-52020891D01*
X154902758Y-52020893D01*
X154898313Y-52036031D01*
X154898296Y-52036090D01*
X154893786Y-52051420D01*
X154893565Y-52051762D01*
X154892677Y-52055078D01*
X154891888Y-52057890D01*
X154882499Y-52089888D01*
X154882492Y-52089909D01*
X154874654Y-52116603D01*
X154872061Y-52132013D01*
X154854820Y-52196357D01*
X154842433Y-52226262D01*
X154819919Y-52265258D01*
X154800212Y-52290940D01*
X154768378Y-52322774D01*
X154742696Y-52342481D01*
X154703698Y-52364996D01*
X154673796Y-52377382D01*
X154667307Y-52379121D01*
X154630307Y-52389035D01*
X154598214Y-52393261D01*
X154553187Y-52393261D01*
X154521093Y-52389036D01*
X154484090Y-52379121D01*
X154477599Y-52377381D01*
X154447694Y-52364994D01*
X154408699Y-52342480D01*
X154383018Y-52322774D01*
X154351182Y-52290938D01*
X154331477Y-52265258D01*
X154308964Y-52226264D01*
X154296581Y-52196368D01*
X154276148Y-52120112D01*
X154274473Y-52112293D01*
X154274423Y-52112304D01*
X154268388Y-52084565D01*
X154262511Y-52057548D01*
X154255140Y-52031849D01*
X154251554Y-52019345D01*
X154251553Y-52019344D01*
X154251553Y-52019342D01*
X154194874Y-51922429D01*
X154149119Y-51869625D01*
X154149117Y-51869623D01*
X154149107Y-51869612D01*
X154104391Y-51827451D01*
X154104387Y-51827448D01*
X154104386Y-51827447D01*
X154004310Y-51776561D01*
X154004309Y-51776560D01*
X154004308Y-51776560D01*
X153937277Y-51756877D01*
X153937271Y-51756876D01*
X153851199Y-51744500D01*
X153851196Y-51744500D01*
X153800198Y-51744500D01*
X153756722Y-51747609D01*
X153730261Y-51751414D01*
X153721786Y-51752633D01*
X153721776Y-51752634D01*
X153721774Y-51752635D01*
X153704125Y-51755702D01*
X153704109Y-51755707D01*
X153700192Y-51757299D01*
X153700193Y-51757300D01*
X153690632Y-51761188D01*
X153683727Y-51762692D01*
X153645553Y-51773641D01*
X153612502Y-51792967D01*
X153604283Y-51796311D01*
X153604281Y-51796311D01*
X153600126Y-51798001D01*
X153564143Y-51821121D01*
X153563033Y-51821838D01*
X153562010Y-51822496D01*
X153548637Y-51830317D01*
X153545175Y-51833316D01*
X153541311Y-51835800D01*
X153540723Y-51836267D01*
X153540721Y-51836269D01*
X153493219Y-51874055D01*
X153485041Y-51885675D01*
X153485040Y-51885674D01*
X153479935Y-51892927D01*
X153453653Y-51920804D01*
X153436297Y-51954931D01*
X153431198Y-51962177D01*
X153428604Y-51965863D01*
X153411003Y-52004394D01*
X153410541Y-52005414D01*
X153409785Y-52007067D01*
X153402763Y-52020878D01*
X153401471Y-52025275D01*
X153399563Y-52029455D01*
X153399321Y-52030165D01*
X153399315Y-52030180D01*
X153379787Y-52087645D01*
X153379587Y-52092410D01*
X153375472Y-52119281D01*
X153354820Y-52196356D01*
X153342433Y-52226262D01*
X153319919Y-52265258D01*
X153300212Y-52290940D01*
X153268378Y-52322774D01*
X153242696Y-52342481D01*
X153203698Y-52364996D01*
X153173796Y-52377382D01*
X153167307Y-52379121D01*
X153130307Y-52389035D01*
X153098214Y-52393261D01*
X153053187Y-52393261D01*
X153021093Y-52389036D01*
X152984090Y-52379121D01*
X152977599Y-52377381D01*
X152947694Y-52364994D01*
X152908699Y-52342480D01*
X152883018Y-52322774D01*
X152851182Y-52290938D01*
X152831477Y-52265258D01*
X152808964Y-52226264D01*
X152796581Y-52196368D01*
X152776148Y-52120112D01*
X152774473Y-52112293D01*
X152774423Y-52112304D01*
X152768388Y-52084565D01*
X152762511Y-52057548D01*
X152755140Y-52031849D01*
X152751554Y-52019345D01*
X152751553Y-52019344D01*
X152751553Y-52019342D01*
X152694874Y-51922429D01*
X152649119Y-51869625D01*
X152649117Y-51869623D01*
X152649107Y-51869612D01*
X152604391Y-51827451D01*
X152604387Y-51827448D01*
X152604386Y-51827447D01*
X152504310Y-51776561D01*
X152504309Y-51776560D01*
X152504308Y-51776560D01*
X152437277Y-51756877D01*
X152437271Y-51756876D01*
X152351199Y-51744500D01*
X152351196Y-51744500D01*
X152300198Y-51744500D01*
X152256722Y-51747609D01*
X152230261Y-51751414D01*
X152221786Y-51752633D01*
X152221776Y-51752634D01*
X152221774Y-51752635D01*
X152204125Y-51755702D01*
X152204109Y-51755707D01*
X152200192Y-51757299D01*
X152200193Y-51757300D01*
X152190632Y-51761188D01*
X152183727Y-51762692D01*
X152145553Y-51773641D01*
X152112502Y-51792967D01*
X152104283Y-51796311D01*
X152104281Y-51796311D01*
X152100126Y-51798001D01*
X152064143Y-51821121D01*
X152063033Y-51821838D01*
X152062010Y-51822496D01*
X152048637Y-51830317D01*
X152045175Y-51833316D01*
X152041311Y-51835800D01*
X152040723Y-51836267D01*
X152040721Y-51836269D01*
X151993219Y-51874055D01*
X151985041Y-51885675D01*
X151985040Y-51885674D01*
X151979935Y-51892927D01*
X151953653Y-51920804D01*
X151936297Y-51954931D01*
X151931198Y-51962177D01*
X151928604Y-51965863D01*
X151911003Y-52004394D01*
X151910541Y-52005414D01*
X151909785Y-52007067D01*
X151902763Y-52020878D01*
X151901471Y-52025275D01*
X151899563Y-52029455D01*
X151899321Y-52030165D01*
X151899315Y-52030180D01*
X151879787Y-52087645D01*
X151879587Y-52092410D01*
X151875472Y-52119281D01*
X151854820Y-52196356D01*
X151842433Y-52226262D01*
X151819919Y-52265258D01*
X151800212Y-52290940D01*
X151768378Y-52322774D01*
X151742696Y-52342481D01*
X151703698Y-52364996D01*
X151673796Y-52377382D01*
X151667307Y-52379121D01*
X151630307Y-52389035D01*
X151598214Y-52393261D01*
X151553187Y-52393261D01*
X151521093Y-52389036D01*
X151484090Y-52379121D01*
X151477599Y-52377381D01*
X151447694Y-52364994D01*
X151408699Y-52342480D01*
X151383018Y-52322774D01*
X151351182Y-52290938D01*
X151331477Y-52265258D01*
X151308964Y-52226264D01*
X151296581Y-52196368D01*
X151276148Y-52120112D01*
X151274473Y-52112293D01*
X151274423Y-52112304D01*
X151268388Y-52084565D01*
X151262511Y-52057548D01*
X151255140Y-52031849D01*
X151251554Y-52019345D01*
X151251553Y-52019344D01*
X151251553Y-52019342D01*
X151194874Y-51922429D01*
X151149119Y-51869625D01*
X151149117Y-51869623D01*
X151149107Y-51869612D01*
X151104391Y-51827451D01*
X151104387Y-51827448D01*
X151104386Y-51827447D01*
X151004310Y-51776561D01*
X151004309Y-51776560D01*
X151004308Y-51776560D01*
X150937277Y-51756877D01*
X150937271Y-51756876D01*
X150851199Y-51744500D01*
X150851196Y-51744500D01*
X150800198Y-51744500D01*
X150756722Y-51747609D01*
X150730261Y-51751414D01*
X150721786Y-51752633D01*
X150721776Y-51752634D01*
X150721774Y-51752635D01*
X150704125Y-51755702D01*
X150704109Y-51755707D01*
X150700192Y-51757299D01*
X150700193Y-51757300D01*
X150690632Y-51761188D01*
X150683727Y-51762692D01*
X150645553Y-51773641D01*
X150612502Y-51792967D01*
X150604283Y-51796311D01*
X150604281Y-51796311D01*
X150600126Y-51798001D01*
X150564143Y-51821121D01*
X150563033Y-51821838D01*
X150562010Y-51822496D01*
X150548637Y-51830317D01*
X150545175Y-51833316D01*
X150541311Y-51835800D01*
X150540723Y-51836267D01*
X150540721Y-51836269D01*
X150493219Y-51874055D01*
X150485041Y-51885675D01*
X150485040Y-51885674D01*
X150479935Y-51892927D01*
X150453653Y-51920804D01*
X150436297Y-51954931D01*
X150431198Y-51962177D01*
X150428604Y-51965863D01*
X150411003Y-52004394D01*
X150410541Y-52005414D01*
X150409785Y-52007067D01*
X150402763Y-52020878D01*
X150401471Y-52025275D01*
X150399563Y-52029455D01*
X150399321Y-52030165D01*
X150399315Y-52030180D01*
X150379787Y-52087645D01*
X150379587Y-52092410D01*
X150375472Y-52119281D01*
X150354820Y-52196356D01*
X150342433Y-52226262D01*
X150319919Y-52265258D01*
X150300212Y-52290940D01*
X150268378Y-52322774D01*
X150242696Y-52342481D01*
X150203698Y-52364996D01*
X150173796Y-52377382D01*
X150167307Y-52379121D01*
X150130307Y-52389035D01*
X150098214Y-52393261D01*
X150053187Y-52393261D01*
X150021093Y-52389036D01*
X149984090Y-52379121D01*
X149977599Y-52377381D01*
X149947694Y-52364994D01*
X149908699Y-52342480D01*
X149883018Y-52322774D01*
X149851182Y-52290938D01*
X149831477Y-52265258D01*
X149808964Y-52226264D01*
X149796581Y-52196368D01*
X149776148Y-52120112D01*
X149774473Y-52112293D01*
X149774423Y-52112304D01*
X149768388Y-52084565D01*
X149762511Y-52057548D01*
X149755140Y-52031849D01*
X149751554Y-52019345D01*
X149751553Y-52019344D01*
X149751553Y-52019342D01*
X149694874Y-51922429D01*
X149649119Y-51869625D01*
X149649117Y-51869623D01*
X149649107Y-51869612D01*
X149604391Y-51827451D01*
X149604387Y-51827448D01*
X149604386Y-51827447D01*
X149504310Y-51776561D01*
X149504309Y-51776560D01*
X149504308Y-51776560D01*
X149437277Y-51756877D01*
X149437271Y-51756876D01*
X149351199Y-51744500D01*
X149351196Y-51744500D01*
X149200198Y-51744500D01*
X149156722Y-51747609D01*
X149130261Y-51751414D01*
X149121786Y-51752633D01*
X149121776Y-51752634D01*
X149121774Y-51752635D01*
X149104125Y-51755702D01*
X149104109Y-51755707D01*
X149100192Y-51757299D01*
X149100193Y-51757300D01*
X149090632Y-51761188D01*
X149083727Y-51762692D01*
X149045553Y-51773641D01*
X149012502Y-51792967D01*
X149004283Y-51796311D01*
X149004281Y-51796311D01*
X149000126Y-51798001D01*
X148964143Y-51821121D01*
X148963033Y-51821838D01*
X148962010Y-51822496D01*
X148948637Y-51830317D01*
X148945175Y-51833316D01*
X148941311Y-51835800D01*
X148940723Y-51836267D01*
X148940721Y-51836269D01*
X148893219Y-51874055D01*
X148885041Y-51885675D01*
X148885040Y-51885674D01*
X148879935Y-51892927D01*
X148853653Y-51920804D01*
X148836297Y-51954931D01*
X148831198Y-51962177D01*
X148828604Y-51965863D01*
X148811003Y-52004394D01*
X148810541Y-52005414D01*
X148809785Y-52007067D01*
X148802763Y-52020878D01*
X148801471Y-52025275D01*
X148799563Y-52029455D01*
X148799319Y-52030171D01*
X148799317Y-52030177D01*
X148779787Y-52087646D01*
X148779500Y-52094473D01*
X148775385Y-52121344D01*
X148754820Y-52198095D01*
X148742433Y-52228001D01*
X148719919Y-52266997D01*
X148700212Y-52292679D01*
X148668378Y-52324513D01*
X148642696Y-52344220D01*
X148603698Y-52366735D01*
X148573798Y-52379120D01*
X148573796Y-52379121D01*
X148562034Y-52382272D01*
X148530307Y-52390774D01*
X148498214Y-52395000D01*
X148453184Y-52395000D01*
X148421090Y-52390774D01*
X148396006Y-52384052D01*
X148377599Y-52379120D01*
X148347699Y-52366735D01*
X148308703Y-52344222D01*
X148283019Y-52324514D01*
X148251183Y-52292678D01*
X148231476Y-52266995D01*
X148208965Y-52228003D01*
X148196579Y-52198100D01*
X148176867Y-52124537D01*
X148174236Y-52112265D01*
X148173719Y-52109077D01*
X148173717Y-52109059D01*
X148162511Y-52057548D01*
X148155140Y-52031849D01*
X148151554Y-52019345D01*
X148151553Y-52019344D01*
X148151553Y-52019342D01*
X148094874Y-51922429D01*
X148049119Y-51869625D01*
X148049117Y-51869623D01*
X148049107Y-51869612D01*
X148004391Y-51827451D01*
X148004387Y-51827448D01*
X148004386Y-51827447D01*
X147904310Y-51776561D01*
X147904309Y-51776560D01*
X147904308Y-51776560D01*
X147837277Y-51756877D01*
X147837271Y-51756876D01*
X147751199Y-51744500D01*
X147751196Y-51744500D01*
X147700198Y-51744500D01*
X147656722Y-51747609D01*
X147630261Y-51751414D01*
X147621786Y-51752633D01*
X147621776Y-51752634D01*
X147621774Y-51752635D01*
X147604125Y-51755702D01*
X147604109Y-51755707D01*
X147600192Y-51757299D01*
X147600193Y-51757300D01*
X147590632Y-51761188D01*
X147583727Y-51762692D01*
X147545553Y-51773641D01*
X147512502Y-51792967D01*
X147504283Y-51796311D01*
X147504281Y-51796311D01*
X147500126Y-51798001D01*
X147464143Y-51821121D01*
X147463033Y-51821838D01*
X147462010Y-51822496D01*
X147448637Y-51830317D01*
X147445175Y-51833316D01*
X147441311Y-51835800D01*
X147440723Y-51836267D01*
X147440721Y-51836269D01*
X147393219Y-51874055D01*
X147385041Y-51885675D01*
X147385040Y-51885674D01*
X147379935Y-51892927D01*
X147353653Y-51920804D01*
X147336297Y-51954931D01*
X147331198Y-51962177D01*
X147328604Y-51965863D01*
X147311003Y-52004394D01*
X147310541Y-52005414D01*
X147309785Y-52007067D01*
X147302763Y-52020878D01*
X147301471Y-52025275D01*
X147299563Y-52029455D01*
X147299319Y-52030171D01*
X147299317Y-52030177D01*
X147279787Y-52087646D01*
X147279500Y-52094473D01*
X147275385Y-52121344D01*
X147254820Y-52198095D01*
X147242433Y-52228001D01*
X147219919Y-52266997D01*
X147200212Y-52292679D01*
X147168378Y-52324513D01*
X147142696Y-52344220D01*
X147103698Y-52366735D01*
X147073798Y-52379120D01*
X147073796Y-52379121D01*
X147062034Y-52382272D01*
X147030307Y-52390774D01*
X146998214Y-52395000D01*
X146937723Y-52395000D01*
X146933319Y-52394922D01*
X146827894Y-52391175D01*
X146827893Y-52391175D01*
X146827892Y-52391175D01*
X146758658Y-52400582D01*
X146698875Y-52414948D01*
X146698873Y-52414948D01*
X146698873Y-52414949D01*
X146601530Y-52470870D01*
X146601522Y-52470876D01*
X146548370Y-52516215D01*
X146548365Y-52516220D01*
X146505845Y-52560623D01*
X146505842Y-52560626D01*
X146458710Y-52651567D01*
X146410385Y-52702029D01*
X146342449Y-52718354D01*
X146276472Y-52695359D01*
X146240014Y-52649460D01*
X146238640Y-52650254D01*
X146234573Y-52643210D01*
X146192851Y-52570943D01*
X146192851Y-52570942D01*
X146161254Y-52516215D01*
X146155524Y-52506290D01*
X146155518Y-52506282D01*
X146155517Y-52506281D01*
X146155513Y-52506276D01*
X146043722Y-52394485D01*
X146043720Y-52394484D01*
X146043717Y-52394481D01*
X146043709Y-52394475D01*
X145996330Y-52367121D01*
X145906807Y-52315435D01*
X145906783Y-52315422D01*
X145778815Y-52281134D01*
X145754057Y-52274500D01*
X145754056Y-52274500D01*
X145595943Y-52274500D01*
X145443218Y-52315422D01*
X145443211Y-52315424D01*
X145443210Y-52315425D01*
X145443200Y-52315430D01*
X145306298Y-52394470D01*
X145306294Y-52394472D01*
X145306290Y-52394475D01*
X145306282Y-52394481D01*
X145306278Y-52394484D01*
X145306276Y-52394485D01*
X145194485Y-52506276D01*
X145194484Y-52506278D01*
X145194481Y-52506281D01*
X145194481Y-52506282D01*
X145194475Y-52506290D01*
X145194472Y-52506294D01*
X145194470Y-52506298D01*
X145115430Y-52643200D01*
X145115425Y-52643210D01*
X145115424Y-52643211D01*
X145115422Y-52643218D01*
X145074500Y-52795943D01*
X145074500Y-52954059D01*
X145091825Y-53018713D01*
X145091825Y-53018716D01*
X145091826Y-53018716D01*
X145115422Y-53106780D01*
X145115424Y-53106787D01*
X145115425Y-53106788D01*
X145115428Y-53106793D01*
X145191623Y-53238771D01*
X145191638Y-53238795D01*
X145194475Y-53243709D01*
X145194479Y-53243714D01*
X145194480Y-53243716D01*
X145195049Y-53244285D01*
X145306287Y-53355523D01*
X145306969Y-53356014D01*
X145309475Y-53357363D01*
X145443209Y-53434573D01*
X145443216Y-53434577D01*
X145595943Y-53475500D01*
X145595945Y-53475500D01*
X145754055Y-53475500D01*
X145754057Y-53475500D01*
X145906784Y-53434577D01*
X146043716Y-53355520D01*
X146155520Y-53243716D01*
X146186140Y-53190679D01*
X146236706Y-53142465D01*
X146305313Y-53129241D01*
X146370178Y-53155209D01*
X146410707Y-53212122D01*
X146417523Y-53253641D01*
X146396339Y-55986464D01*
X146376136Y-56053349D01*
X146337952Y-56090724D01*
X144471748Y-57254357D01*
X144418844Y-57296103D01*
X144418835Y-57296111D01*
X144380139Y-57334284D01*
X144380133Y-57334291D01*
X144352452Y-57365617D01*
X144352444Y-57365629D01*
X144301560Y-57465702D01*
X144281877Y-57532733D01*
X144281876Y-57532740D01*
X144269500Y-57618812D01*
X144269500Y-61226530D01*
X144276343Y-61290830D01*
X144279812Y-61306944D01*
X144287326Y-61341846D01*
X144287328Y-61341855D01*
X144287329Y-61341857D01*
X144296948Y-61375809D01*
X144297985Y-61379467D01*
X144354243Y-61476618D01*
X144354247Y-61476624D01*
X144399765Y-61529614D01*
X144399769Y-61529618D01*
X144444329Y-61571996D01*
X144544180Y-61623306D01*
X144544188Y-61623310D01*
X144544191Y-61623311D01*
X144544196Y-61623313D01*
X144585473Y-61635625D01*
X144611143Y-61643282D01*
X144697157Y-61656026D01*
X150277871Y-61679978D01*
X150329198Y-61675859D01*
X150370287Y-61669040D01*
X150395618Y-61663725D01*
X150497480Y-61616513D01*
X150554394Y-61575984D01*
X150600633Y-61535463D01*
X150660801Y-61440676D01*
X150686769Y-61375811D01*
X150703762Y-61316716D01*
X150703131Y-61204447D01*
X150689907Y-61135840D01*
X150689904Y-61135829D01*
X150689904Y-61135828D01*
X150681099Y-61106454D01*
X150672255Y-61076947D01*
X150611029Y-60982841D01*
X150562813Y-60932274D01*
X150514418Y-60894216D01*
X150494467Y-60878526D01*
X150494460Y-60878521D01*
X150435045Y-60844218D01*
X150409364Y-60824512D01*
X150377530Y-60792678D01*
X150357823Y-60766996D01*
X150335312Y-60728005D01*
X150322925Y-60698097D01*
X150311271Y-60654600D01*
X150307046Y-60622509D01*
X150307046Y-60577485D01*
X150311271Y-60545393D01*
X150322924Y-60501901D01*
X150335311Y-60471995D01*
X150357825Y-60432998D01*
X150377526Y-60407323D01*
X150409369Y-60375480D01*
X150435042Y-60355780D01*
X150474044Y-60333263D01*
X150503946Y-60320878D01*
X150516248Y-60317582D01*
X150547441Y-60309225D01*
X150579532Y-60305000D01*
X150624560Y-60305000D01*
X150656651Y-60309225D01*
X150700140Y-60320877D01*
X150730049Y-60333265D01*
X150769043Y-60355778D01*
X150794724Y-60375484D01*
X150826559Y-60407319D01*
X150846265Y-60433000D01*
X150868779Y-60471995D01*
X150881167Y-60501902D01*
X150911276Y-60614270D01*
X150911860Y-60616450D01*
X150913364Y-60622999D01*
X150914669Y-60626931D01*
X150915608Y-60630435D01*
X150915609Y-60630439D01*
X150917273Y-60636652D01*
X150920199Y-60643595D01*
X150928084Y-60667355D01*
X150928085Y-60667357D01*
X150939843Y-60697381D01*
X150939846Y-60697387D01*
X150951387Y-60713869D01*
X151004241Y-60789353D01*
X151054151Y-60838249D01*
X151102172Y-60876634D01*
X151206065Y-60919190D01*
X151274486Y-60933342D01*
X151335648Y-60939673D01*
X151446055Y-60919303D01*
X151511266Y-60894216D01*
X151587152Y-60851763D01*
X153600178Y-59312389D01*
X153665387Y-59287303D01*
X153733808Y-59301454D01*
X153783717Y-59350351D01*
X153797708Y-59389883D01*
X153799500Y-59400307D01*
X153799500Y-59429057D01*
X153811814Y-59475011D01*
X153813284Y-59480499D01*
X153813285Y-59480502D01*
X153840422Y-59581780D01*
X153840424Y-59581787D01*
X153840425Y-59581788D01*
X153840428Y-59581793D01*
X153916623Y-59713771D01*
X153916638Y-59713795D01*
X153919475Y-59718709D01*
X153919479Y-59718714D01*
X153919480Y-59718716D01*
X153920049Y-59719285D01*
X154031287Y-59830523D01*
X154031969Y-59831014D01*
X154034475Y-59832363D01*
X154168209Y-59909573D01*
X154168216Y-59909577D01*
X154320943Y-59950500D01*
X154320945Y-59950500D01*
X154479055Y-59950500D01*
X154479057Y-59950500D01*
X154631784Y-59909577D01*
X154768716Y-59830520D01*
X154880520Y-59718716D01*
X154959577Y-59581784D01*
X155000500Y-59429057D01*
X155000500Y-59270943D01*
X154959577Y-59118216D01*
X154933788Y-59073548D01*
X154880524Y-58981290D01*
X154880518Y-58981282D01*
X154861818Y-58962582D01*
X154854678Y-58951544D01*
X154848325Y-58930143D01*
X154837628Y-58910553D01*
X154838575Y-58897300D01*
X154834795Y-58884564D01*
X154841019Y-58863129D01*
X154842612Y-58840861D01*
X154850575Y-58830223D01*
X154854280Y-58817466D01*
X154871106Y-58802797D01*
X154884484Y-58784928D01*
X154896930Y-58780285D01*
X154906947Y-58771554D01*
X154929035Y-58768311D01*
X154949948Y-58760511D01*
X154959581Y-58760198D01*
X160891268Y-58798101D01*
X160891268Y-58798100D01*
X160891271Y-58798101D01*
X160903086Y-58797947D01*
X160903103Y-58797946D01*
X160903136Y-58797946D01*
X160912774Y-58797633D01*
X161009620Y-58778532D01*
X161075084Y-58754115D01*
X161130233Y-58726943D01*
X161212885Y-58650959D01*
X161217771Y-58644433D01*
X161245661Y-58607176D01*
X161301594Y-58565304D01*
X161371286Y-58560320D01*
X161432609Y-58593804D01*
X161452363Y-58619569D01*
X161454782Y-58623766D01*
X161472457Y-58644430D01*
X161500198Y-58676863D01*
X161544663Y-58719327D01*
X161544665Y-58719328D01*
X161544667Y-58719330D01*
X161639494Y-58768311D01*
X161649511Y-58773485D01*
X161648913Y-58774642D01*
X161698600Y-58813992D01*
X161721227Y-58880096D01*
X161721343Y-58886652D01*
X161719517Y-59096694D01*
X161719517Y-59096769D01*
X161719508Y-59098008D01*
X161719503Y-59099086D01*
X161719500Y-59100503D01*
X161719500Y-62551000D01*
X161719501Y-62551009D01*
X161726481Y-62615935D01*
X161726483Y-62615947D01*
X161737688Y-62667453D01*
X161748644Y-62705654D01*
X161748646Y-62705658D01*
X161805323Y-62802568D01*
X161805325Y-62802571D01*
X161851081Y-62855376D01*
X161851091Y-62855387D01*
X161895807Y-62897548D01*
X161895809Y-62897549D01*
X161895813Y-62897553D01*
X161995889Y-62948439D01*
X162062928Y-62968124D01*
X162149000Y-62980500D01*
X165650990Y-62980500D01*
X165651000Y-62980500D01*
X165715941Y-62973518D01*
X165767452Y-62962312D01*
X165805658Y-62951354D01*
X165902571Y-62894675D01*
X165955375Y-62848920D01*
X165955382Y-62848912D01*
X165955387Y-62848908D01*
X165997548Y-62804192D01*
X165997553Y-62804187D01*
X166048439Y-62704111D01*
X166068124Y-62637072D01*
X166073941Y-62596615D01*
X166102966Y-62533063D01*
X166161744Y-62495289D01*
X166231614Y-62495289D01*
X166277427Y-62520162D01*
X166288011Y-62529244D01*
X166288012Y-62529245D01*
X166294017Y-62533063D01*
X166346928Y-62566707D01*
X166400540Y-62590885D01*
X166477982Y-62625811D01*
X166477988Y-62625813D01*
X166477992Y-62625815D01*
X166477994Y-62625815D01*
X166477998Y-62625817D01*
X166493004Y-62630148D01*
X166493008Y-62630149D01*
X166493012Y-62630150D01*
X166505597Y-62632827D01*
X166563544Y-62645154D01*
X166563550Y-62645154D01*
X166563551Y-62645155D01*
X166598509Y-62650017D01*
X166626536Y-62649952D01*
X166643899Y-62651133D01*
X166670485Y-62654831D01*
X171300004Y-62633399D01*
X171367134Y-62652773D01*
X171413133Y-62705365D01*
X171424574Y-62756398D01*
X171493995Y-71364780D01*
X171513664Y-71500395D01*
X171513664Y-71500397D01*
X171532070Y-71564410D01*
X171532073Y-71564417D01*
X171587430Y-71689741D01*
X171587432Y-71689744D01*
X171587434Y-71689748D01*
X171587435Y-71689749D01*
X171600762Y-71711394D01*
X171642571Y-71769549D01*
X171642880Y-71769979D01*
X171665463Y-71797079D01*
X171715451Y-71849034D01*
X171715482Y-71849063D01*
X172596125Y-72642434D01*
X174392554Y-74260838D01*
X174392556Y-74260839D01*
X174392559Y-74260842D01*
X174407111Y-74271246D01*
X174484976Y-74326917D01*
X174533367Y-74353863D01*
X174533379Y-74353868D01*
X174533383Y-74353870D01*
X174569767Y-74369058D01*
X174638218Y-74397632D01*
X174638219Y-74397632D01*
X174638221Y-74397633D01*
X174664615Y-74405304D01*
X174664619Y-74405305D01*
X174735120Y-74420438D01*
X174735125Y-74420439D01*
X174770074Y-74425366D01*
X174797810Y-74425328D01*
X174815285Y-74426541D01*
X174842050Y-74430314D01*
X183380083Y-74406531D01*
X183447175Y-74426029D01*
X183488785Y-74470246D01*
X184647584Y-76553150D01*
X184654762Y-76566051D01*
X184670402Y-76625838D01*
X184680700Y-79189743D01*
X184693465Y-82368524D01*
X184674050Y-82435642D01*
X184658028Y-82455813D01*
X181199424Y-85985000D01*
X181199379Y-85985049D01*
X181165242Y-86023638D01*
X181165217Y-86023668D01*
X181149469Y-86043415D01*
X181119434Y-86085291D01*
X181119433Y-86085292D01*
X181059663Y-86216166D01*
X181059662Y-86216170D01*
X181039977Y-86283209D01*
X181039976Y-86283213D01*
X181019500Y-86425629D01*
X181019500Y-88180749D01*
X181019942Y-88189734D01*
X181021935Y-88230303D01*
X181021935Y-88230312D01*
X181024315Y-88254470D01*
X181024317Y-88254489D01*
X181031600Y-88303579D01*
X181042617Y-88358960D01*
X181045000Y-88383153D01*
X181045000Y-88416843D01*
X181042617Y-88441034D01*
X181031601Y-88496410D01*
X181031600Y-88496418D01*
X181024317Y-88545508D01*
X181024315Y-88545527D01*
X181021935Y-88569685D01*
X181021935Y-88569694D01*
X181021935Y-88569695D01*
X181019500Y-88619249D01*
X181019500Y-89376000D01*
X181019501Y-89376009D01*
X181031052Y-89483450D01*
X181031054Y-89483462D01*
X181042260Y-89534972D01*
X181076383Y-89637497D01*
X181076386Y-89637503D01*
X181154171Y-89758537D01*
X181154179Y-89758548D01*
X181199923Y-89811340D01*
X181199926Y-89811343D01*
X181199930Y-89811347D01*
X181308664Y-89905567D01*
X181439541Y-89965338D01*
X181506580Y-89985023D01*
X181506584Y-89985024D01*
X181649000Y-90005500D01*
X182945500Y-90005500D01*
X183012539Y-90025185D01*
X183058294Y-90077989D01*
X183069500Y-90129500D01*
X183069500Y-90851000D01*
X183069501Y-90851009D01*
X183081052Y-90958450D01*
X183081054Y-90958462D01*
X183092260Y-91009972D01*
X183126383Y-91112497D01*
X183126386Y-91112503D01*
X183204171Y-91233537D01*
X183204179Y-91233548D01*
X183249923Y-91286340D01*
X183249926Y-91286343D01*
X183249930Y-91286347D01*
X183358664Y-91380567D01*
X183358667Y-91380568D01*
X183358668Y-91380569D01*
X183390586Y-91395146D01*
X183489541Y-91440338D01*
X183556580Y-91460023D01*
X183556584Y-91460024D01*
X183699000Y-91480500D01*
X183699003Y-91480500D01*
X185218351Y-91480500D01*
X185218359Y-91480500D01*
X185218363Y-91480499D01*
X185290354Y-91475346D01*
X185325321Y-91470314D01*
X185395869Y-91454952D01*
X185526730Y-91395146D01*
X185585498Y-91357355D01*
X185694208Y-91263105D01*
X186976357Y-89782611D01*
X186998958Y-89754552D01*
X187009538Y-89740414D01*
X187030067Y-89710842D01*
X187089838Y-89579965D01*
X187109523Y-89512926D01*
X187109524Y-89512922D01*
X187116335Y-89465548D01*
X187117454Y-89459011D01*
X187120285Y-89444772D01*
X187120287Y-89444773D01*
X187138957Y-89350909D01*
X187146006Y-89327673D01*
X187158902Y-89296538D01*
X187170356Y-89275112D01*
X187189075Y-89247096D01*
X187204491Y-89228312D01*
X187236657Y-89196149D01*
X187304467Y-89112004D01*
X187332968Y-89067657D01*
X187381347Y-88971008D01*
X187411930Y-88830416D01*
X187416914Y-88760724D01*
X187406650Y-88617213D01*
X187356368Y-88482404D01*
X187322883Y-88421081D01*
X187236659Y-88305900D01*
X187177445Y-88246686D01*
X187162029Y-88227901D01*
X187143312Y-88199889D01*
X187131853Y-88178451D01*
X187118965Y-88147337D01*
X187111908Y-88124072D01*
X187105336Y-88091028D01*
X187102954Y-88066840D01*
X187102954Y-88033157D01*
X187105336Y-88008967D01*
X187111909Y-87975921D01*
X187118965Y-87952661D01*
X187131854Y-87921543D01*
X187143311Y-87900110D01*
X187169646Y-87860698D01*
X187174624Y-87853101D01*
X187177016Y-87849378D01*
X187181793Y-87841796D01*
X187239218Y-87709872D01*
X187257703Y-87642492D01*
X187275634Y-87499734D01*
X187275634Y-87499733D01*
X187252621Y-87357710D01*
X187231744Y-87291033D01*
X187231741Y-87291026D01*
X187212417Y-87250636D01*
X187169644Y-87161235D01*
X187145356Y-87124886D01*
X187133900Y-87103452D01*
X187121012Y-87072339D01*
X187113954Y-87049072D01*
X187107382Y-87016028D01*
X187105000Y-86991840D01*
X187105000Y-86958157D01*
X187107382Y-86933969D01*
X187113954Y-86900925D01*
X187121009Y-86877666D01*
X187133902Y-86846539D01*
X187145353Y-86825115D01*
X187164080Y-86797089D01*
X187179491Y-86778311D01*
X187203311Y-86754491D01*
X187222088Y-86739081D01*
X187250118Y-86720351D01*
X187271539Y-86708902D01*
X187302667Y-86696008D01*
X187325920Y-86688955D01*
X187358968Y-86682381D01*
X187383158Y-86680000D01*
X187416845Y-86680000D01*
X187441027Y-86682381D01*
X187474080Y-86688955D01*
X187497332Y-86696009D01*
X187528449Y-86708899D01*
X187549883Y-86720354D01*
X187577904Y-86739077D01*
X187596691Y-86754496D01*
X187620501Y-86778306D01*
X187635922Y-86797096D01*
X187654639Y-86825108D01*
X187666098Y-86846546D01*
X187666099Y-86846548D01*
X187678988Y-86877666D01*
X187686042Y-86900921D01*
X187692616Y-86933964D01*
X187695000Y-86958160D01*
X187695000Y-86991839D01*
X187692616Y-87016036D01*
X187686043Y-87049073D01*
X187678990Y-87072324D01*
X187659202Y-87120102D01*
X187659196Y-87120117D01*
X187624650Y-87250635D01*
X187616479Y-87315758D01*
X187616478Y-87315765D01*
X187617712Y-87450766D01*
X187658282Y-87588802D01*
X187658285Y-87588809D01*
X187687323Y-87652349D01*
X187687325Y-87652354D01*
X187764979Y-87773114D01*
X187765144Y-87773371D01*
X187873906Y-87867564D01*
X187932694Y-87905323D01*
X187932699Y-87905326D01*
X188063593Y-87965060D01*
X188206014Y-87985498D01*
X188275866Y-87985479D01*
X188275885Y-87985479D01*
X188275889Y-87985479D01*
X188290213Y-87983415D01*
X188418298Y-87964963D01*
X188549159Y-87905157D01*
X188607927Y-87867366D01*
X188716636Y-87773116D01*
X190151856Y-86115874D01*
X190174458Y-86087815D01*
X190185038Y-86073677D01*
X190205567Y-86044105D01*
X190265338Y-85913228D01*
X190285023Y-85846189D01*
X190285024Y-85846185D01*
X190305500Y-85703769D01*
X190305500Y-77900862D01*
X190310522Y-77883759D01*
X190310521Y-77865934D01*
X190320161Y-77850931D01*
X190325185Y-77833823D01*
X190338655Y-77822150D01*
X190348292Y-77807154D01*
X190364513Y-77799744D01*
X190377989Y-77788068D01*
X190395631Y-77785531D01*
X190411846Y-77778125D01*
X190429496Y-77780661D01*
X190447147Y-77778124D01*
X190463364Y-77785529D01*
X190481005Y-77788065D01*
X190510694Y-77807142D01*
X190514979Y-77810854D01*
X190514986Y-77810860D01*
X190514994Y-77810867D01*
X190534883Y-77828102D01*
X190534905Y-77828116D01*
X190593651Y-77865859D01*
X190621101Y-77878393D01*
X190724442Y-77925584D01*
X190724446Y-77925585D01*
X190724448Y-77925586D01*
X190739447Y-77929991D01*
X190809917Y-77945325D01*
X190844851Y-77950350D01*
X190862561Y-77952579D01*
X190872513Y-77952228D01*
X190889096Y-77952753D01*
X190916830Y-77955500D01*
X193650990Y-77955500D01*
X193651000Y-77955500D01*
X193758456Y-77943947D01*
X193809967Y-77932741D01*
X193912504Y-77898613D01*
X193912509Y-77898609D01*
X193917103Y-77896412D01*
X193956564Y-77885064D01*
X194004514Y-77879593D01*
X194004524Y-77879590D01*
X194004526Y-77879590D01*
X194056608Y-77865934D01*
X194143687Y-77843102D01*
X195453148Y-77290672D01*
X195564490Y-77225885D01*
X195614212Y-77187712D01*
X195698569Y-77103839D01*
X195699308Y-77104455D01*
X195699313Y-77104449D01*
X195704742Y-77097701D01*
X195705567Y-77096882D01*
X195708679Y-77092875D01*
X195710652Y-77090439D01*
X195712132Y-77088431D01*
X195725262Y-77071530D01*
X195727926Y-77059789D01*
X195728343Y-77059048D01*
X195781379Y-76965910D01*
X195806960Y-76900891D01*
X195840046Y-76760868D01*
X195841439Y-76745300D01*
X195842051Y-76710940D01*
X195842724Y-76673173D01*
X195842723Y-76673170D01*
X195842724Y-76673149D01*
X195841935Y-76658453D01*
X195841934Y-76658453D01*
X195841854Y-76656964D01*
X195842571Y-76647643D01*
X195842036Y-76639559D01*
X195840154Y-76625303D01*
X195839897Y-76620504D01*
X195839186Y-76607260D01*
X195839314Y-76607253D01*
X195838347Y-76600017D01*
X195838347Y-76553150D01*
X195840728Y-76528967D01*
X195847303Y-76495914D01*
X195854354Y-76472668D01*
X195867245Y-76441546D01*
X195878701Y-76420113D01*
X195897427Y-76392086D01*
X195912839Y-76373308D01*
X195936650Y-76349497D01*
X195955430Y-76334085D01*
X196025736Y-76287109D01*
X196126919Y-76197840D01*
X196169880Y-76148262D01*
X196229833Y-76056786D01*
X196232002Y-76057992D01*
X196232007Y-76057983D01*
X196242992Y-76036708D01*
X196243837Y-76035420D01*
X196244731Y-76033552D01*
X196246025Y-76031017D01*
X196247354Y-76028069D01*
X196254263Y-76013630D01*
X196255030Y-76002196D01*
X196255456Y-76000836D01*
X196289112Y-75893340D01*
X196300287Y-75824370D01*
X196302854Y-75680518D01*
X196290225Y-75634485D01*
X196264789Y-75541769D01*
X196264787Y-75541764D01*
X196236902Y-75477704D01*
X196236900Y-75477700D01*
X196161283Y-75355292D01*
X196152378Y-75344637D01*
X196102302Y-75292742D01*
X196102299Y-75292740D01*
X196102294Y-75292734D01*
X196076057Y-75269168D01*
X196076055Y-75269166D01*
X196076053Y-75269164D01*
X196019098Y-75224920D01*
X196019096Y-75224918D01*
X196019090Y-75224914D01*
X195953248Y-75180920D01*
X195934458Y-75165499D01*
X195910652Y-75141693D01*
X195895231Y-75122903D01*
X195876510Y-75094885D01*
X195865051Y-75073446D01*
X195852163Y-75042331D01*
X195845109Y-75019079D01*
X195838536Y-74986034D01*
X195836155Y-74961852D01*
X195836155Y-74928150D01*
X195838536Y-74903967D01*
X195845111Y-74870914D01*
X195852162Y-74847668D01*
X195865053Y-74816546D01*
X195876509Y-74795113D01*
X195895235Y-74767086D01*
X195910647Y-74748308D01*
X195934459Y-74724496D01*
X195953244Y-74709080D01*
X195963091Y-74702501D01*
X196064281Y-74613225D01*
X196107247Y-74563639D01*
X196181215Y-74450768D01*
X196183476Y-74446042D01*
X196226465Y-74308748D01*
X196227138Y-74304600D01*
X196232542Y-74271246D01*
X196237641Y-74239785D01*
X196239527Y-74134302D01*
X196240213Y-74095949D01*
X196240212Y-74095941D01*
X196202157Y-73957202D01*
X196202154Y-73957190D01*
X196175240Y-73895353D01*
X196174564Y-73893711D01*
X196174267Y-73893116D01*
X196174264Y-73893107D01*
X196098650Y-73770698D01*
X196098649Y-73770697D01*
X196098648Y-73770695D01*
X196089752Y-73760050D01*
X196039676Y-73708152D01*
X196039673Y-73708149D01*
X196013421Y-73684567D01*
X196013417Y-73684564D01*
X196013414Y-73684561D01*
X196000142Y-73675525D01*
X195993214Y-73670448D01*
X195992197Y-73669647D01*
X195956454Y-73640313D01*
X195946500Y-73633662D01*
X195942701Y-73630670D01*
X195941437Y-73628892D01*
X195931736Y-73620931D01*
X195907928Y-73597123D01*
X195892507Y-73578333D01*
X195873786Y-73550315D01*
X195862327Y-73528876D01*
X195849439Y-73497761D01*
X195842385Y-73474509D01*
X195835812Y-73441464D01*
X195833431Y-73417282D01*
X195833431Y-73383580D01*
X195835812Y-73359397D01*
X195842387Y-73326344D01*
X195849438Y-73303098D01*
X195862329Y-73271976D01*
X195873785Y-73250543D01*
X195892511Y-73222516D01*
X195907923Y-73203738D01*
X195931740Y-73179921D01*
X195950522Y-73164507D01*
X195989350Y-73138564D01*
X196090528Y-73049301D01*
X196133489Y-72999724D01*
X196193444Y-72908244D01*
X196195614Y-72909450D01*
X196195619Y-72909441D01*
X196206604Y-72888166D01*
X196207449Y-72886878D01*
X196208343Y-72885010D01*
X196209637Y-72882475D01*
X196210966Y-72879527D01*
X196217875Y-72865088D01*
X196218642Y-72853654D01*
X196252721Y-72744806D01*
X196252724Y-72744798D01*
X196263899Y-72675828D01*
X196266466Y-72531976D01*
X196238492Y-72430011D01*
X196228401Y-72393227D01*
X196228399Y-72393222D01*
X196200514Y-72329162D01*
X196200512Y-72329158D01*
X196145455Y-72240033D01*
X196124897Y-72206753D01*
X196124894Y-72206749D01*
X196115989Y-72196094D01*
X196065906Y-72144192D01*
X196049537Y-72129489D01*
X196039665Y-72120622D01*
X195982679Y-72076402D01*
X195982700Y-72076371D01*
X195950063Y-72054563D01*
X195948066Y-72053112D01*
X195947023Y-72051759D01*
X195933302Y-72040498D01*
X195909497Y-72016693D01*
X195894076Y-71997903D01*
X195875355Y-71969885D01*
X195863896Y-71948446D01*
X195851008Y-71917331D01*
X195843954Y-71894079D01*
X195837381Y-71861034D01*
X195835000Y-71836852D01*
X195835000Y-71803150D01*
X195837381Y-71778967D01*
X195843956Y-71745914D01*
X195851007Y-71722668D01*
X195863898Y-71691546D01*
X195875354Y-71670113D01*
X195894080Y-71642086D01*
X195909492Y-71623308D01*
X195961019Y-71571781D01*
X195966631Y-71566509D01*
X196031141Y-71509595D01*
X196074106Y-71460009D01*
X196148070Y-71347143D01*
X196150331Y-71342417D01*
X196193320Y-71205122D01*
X196204496Y-71136158D01*
X196207067Y-70992312D01*
X196169006Y-70853558D01*
X196161633Y-70836619D01*
X196141125Y-70789500D01*
X196141122Y-70789493D01*
X196103317Y-70728287D01*
X196065519Y-70667091D01*
X196065512Y-70667081D01*
X196056620Y-70656439D01*
X196049705Y-70649273D01*
X196006533Y-70604529D01*
X195980277Y-70580943D01*
X195980276Y-70580942D01*
X195980272Y-70580939D01*
X195969456Y-70573575D01*
X195951563Y-70558759D01*
X195909497Y-70516693D01*
X195894076Y-70497903D01*
X195875355Y-70469885D01*
X195863896Y-70448446D01*
X195857173Y-70432216D01*
X195851007Y-70417330D01*
X195843954Y-70394079D01*
X195837381Y-70361034D01*
X195835000Y-70336852D01*
X195835000Y-70303150D01*
X195837381Y-70278967D01*
X195843956Y-70245914D01*
X195851007Y-70222668D01*
X195863898Y-70191546D01*
X195875354Y-70170113D01*
X195894080Y-70142086D01*
X195909492Y-70123308D01*
X195933308Y-70099492D01*
X195952086Y-70084080D01*
X195980116Y-70065352D01*
X196001536Y-70053902D01*
X196032672Y-70041005D01*
X196055922Y-70033954D01*
X196088966Y-70027382D01*
X196113154Y-70025000D01*
X196146844Y-70025000D01*
X196171033Y-70027381D01*
X196204077Y-70033954D01*
X196227327Y-70041006D01*
X196258456Y-70053900D01*
X196279885Y-70065355D01*
X196307903Y-70084076D01*
X196326693Y-70099497D01*
X196392646Y-70165450D01*
X196392660Y-70165465D01*
X196392661Y-70165465D01*
X196394336Y-70167140D01*
X196394342Y-70167147D01*
X196394344Y-70167149D01*
X196394344Y-70167148D01*
X196419968Y-70192773D01*
X196424932Y-70198036D01*
X196430022Y-70203758D01*
X196437350Y-70210011D01*
X196481291Y-70247508D01*
X196481301Y-70247515D01*
X196481304Y-70247518D01*
X196598101Y-70322195D01*
X196599257Y-70322727D01*
X196599541Y-70322857D01*
X196600577Y-70323333D01*
X196610147Y-70327611D01*
X196619401Y-70330143D01*
X196625045Y-70332297D01*
X196632856Y-70338236D01*
X196667922Y-70348635D01*
X196667922Y-70348636D01*
X196701697Y-70358653D01*
X196772154Y-70374179D01*
X196807494Y-70374273D01*
X196807567Y-70374284D01*
X196807618Y-70374291D01*
X196871627Y-70374444D01*
X196916034Y-70374563D01*
X196916037Y-70374562D01*
X196920356Y-70374574D01*
X196920716Y-70374562D01*
X196951498Y-70374636D01*
X197032586Y-70351036D01*
X197123369Y-70324645D01*
X197132279Y-70318952D01*
X197147569Y-70314040D01*
X197167073Y-70313546D01*
X197185809Y-70308096D01*
X197201283Y-70312681D01*
X197217416Y-70312274D01*
X197234091Y-70322404D01*
X197252799Y-70327948D01*
X197263336Y-70340170D01*
X197277130Y-70348550D01*
X197285682Y-70366089D01*
X197298422Y-70380866D01*
X197302831Y-70401259D01*
X197307753Y-70411352D01*
X197306785Y-70419543D01*
X197309500Y-70432096D01*
X197309500Y-98182670D01*
X197304475Y-98217614D01*
X197300070Y-98232612D01*
X197262327Y-98291355D01*
X197260958Y-98292542D01*
X197206097Y-98320018D01*
X197198539Y-98321663D01*
X197172168Y-98324500D01*
X123442330Y-98324500D01*
X123442325Y-98324499D01*
X123442323Y-98324500D01*
X123407389Y-98319475D01*
X123392390Y-98315070D01*
X123333644Y-98277327D01*
X123333615Y-98277293D01*
X123333614Y-98277293D01*
X123333613Y-98277291D01*
X123332457Y-98275958D01*
X123304977Y-98221083D01*
X123303332Y-98213521D01*
X123300500Y-98187168D01*
X123300500Y-93771987D01*
X125479500Y-93771987D01*
X125479500Y-94008011D01*
X125479503Y-94008035D01*
X125510305Y-94242006D01*
X125571395Y-94469997D01*
X125661714Y-94688045D01*
X125661719Y-94688056D01*
X125732677Y-94810957D01*
X125779727Y-94892450D01*
X125779729Y-94892453D01*
X125779730Y-94892454D01*
X125785446Y-94899904D01*
X125785449Y-94899908D01*
X125923399Y-95079689D01*
X125923403Y-95079694D01*
X125923406Y-95079697D01*
X125923412Y-95079704D01*
X125923420Y-95079712D01*
X126090281Y-95246574D01*
X126090297Y-95246589D01*
X126090305Y-95246595D01*
X126277548Y-95390272D01*
X126288500Y-95396595D01*
X126408918Y-95466118D01*
X126478516Y-95506301D01*
X126480255Y-95507382D01*
X126481660Y-95508162D01*
X126481938Y-95508277D01*
X126481943Y-95508280D01*
X126481948Y-95508282D01*
X126481951Y-95508284D01*
X126700007Y-95598606D01*
X126927986Y-95659693D01*
X127161989Y-95690500D01*
X127161996Y-95690500D01*
X127398004Y-95690500D01*
X127398011Y-95690500D01*
X127632014Y-95659693D01*
X127859993Y-95598606D01*
X128078049Y-95508284D01*
X128282450Y-95390273D01*
X128469699Y-95246592D01*
X128636592Y-95079699D01*
X128780273Y-94892450D01*
X128898284Y-94688049D01*
X128988606Y-94469993D01*
X129049693Y-94242014D01*
X129080500Y-94008011D01*
X129080500Y-93921987D01*
X191509500Y-93921987D01*
X191509500Y-94158011D01*
X191509503Y-94158040D01*
X191518654Y-94227551D01*
X191520558Y-94242010D01*
X191540307Y-94392014D01*
X191561203Y-94469997D01*
X191601395Y-94619997D01*
X191691715Y-94838048D01*
X191691724Y-94838065D01*
X191723125Y-94892453D01*
X191762677Y-94960957D01*
X191809727Y-95042450D01*
X191809729Y-95042453D01*
X191809730Y-95042454D01*
X191815446Y-95049904D01*
X191815449Y-95049908D01*
X191953399Y-95229689D01*
X191953403Y-95229694D01*
X191953406Y-95229697D01*
X191953412Y-95229704D01*
X191953420Y-95229712D01*
X192120281Y-95396574D01*
X192120295Y-95396587D01*
X192120301Y-95396592D01*
X192307550Y-95540273D01*
X192408584Y-95598605D01*
X192508505Y-95656295D01*
X192510241Y-95657374D01*
X192511663Y-95658163D01*
X192511937Y-95658276D01*
X192511943Y-95658280D01*
X192511948Y-95658282D01*
X192511951Y-95658284D01*
X192730007Y-95748606D01*
X192957986Y-95809693D01*
X193191989Y-95840500D01*
X193191996Y-95840500D01*
X193428004Y-95840500D01*
X193428011Y-95840500D01*
X193662014Y-95809693D01*
X193889993Y-95748606D01*
X194108049Y-95658284D01*
X194312450Y-95540273D01*
X194499699Y-95396592D01*
X194666592Y-95229699D01*
X194810273Y-95042450D01*
X194928284Y-94838049D01*
X195018606Y-94619993D01*
X195079693Y-94392014D01*
X195110500Y-94158011D01*
X195110500Y-93921989D01*
X195079693Y-93687986D01*
X195018606Y-93460007D01*
X194928284Y-93241951D01*
X194928282Y-93241948D01*
X194928280Y-93241943D01*
X194928276Y-93241937D01*
X194928163Y-93241663D01*
X194927374Y-93240241D01*
X194926294Y-93238503D01*
X194841681Y-93091950D01*
X194810273Y-93037550D01*
X194666595Y-92850305D01*
X194666589Y-92850297D01*
X194666574Y-92850281D01*
X194499712Y-92683420D01*
X194499704Y-92683412D01*
X194499697Y-92683406D01*
X194499694Y-92683403D01*
X194499689Y-92683399D01*
X194319908Y-92545449D01*
X194319904Y-92545446D01*
X194312454Y-92539730D01*
X194312453Y-92539729D01*
X194312450Y-92539727D01*
X194230957Y-92492677D01*
X194230282Y-92492287D01*
X194230263Y-92492276D01*
X194108065Y-92421724D01*
X194108048Y-92421715D01*
X193889997Y-92331395D01*
X193673783Y-92273459D01*
X193673761Y-92273454D01*
X193662014Y-92270307D01*
X193662013Y-92270306D01*
X193662010Y-92270306D01*
X193429889Y-92239747D01*
X193428208Y-92239500D01*
X193428017Y-92239500D01*
X193428011Y-92239500D01*
X193191989Y-92239500D01*
X193191983Y-92239500D01*
X193191981Y-92239500D01*
X193185861Y-92240253D01*
X193184955Y-92240425D01*
X192957992Y-92270305D01*
X192730001Y-92331395D01*
X192511950Y-92421715D01*
X192511942Y-92421719D01*
X192307545Y-92539730D01*
X192307536Y-92539736D01*
X192120309Y-92683399D01*
X192120294Y-92683413D01*
X192120286Y-92683420D01*
X191953420Y-92850286D01*
X191953413Y-92850294D01*
X191953399Y-92850309D01*
X191809736Y-93037536D01*
X191809730Y-93037545D01*
X191691719Y-93241942D01*
X191691715Y-93241950D01*
X191601395Y-93460001D01*
X191540305Y-93687992D01*
X191509503Y-93921963D01*
X191509500Y-93921987D01*
X129080500Y-93921987D01*
X129080500Y-93771989D01*
X129049693Y-93537986D01*
X128988606Y-93310007D01*
X128898284Y-93091951D01*
X128898282Y-93091948D01*
X128898280Y-93091943D01*
X128898277Y-93091938D01*
X128898162Y-93091660D01*
X128897382Y-93090255D01*
X128896297Y-93088509D01*
X128866872Y-93037545D01*
X128856118Y-93018918D01*
X128780273Y-92887550D01*
X128780272Y-92887548D01*
X128636595Y-92700305D01*
X128636589Y-92700297D01*
X128636574Y-92700281D01*
X128469712Y-92533420D01*
X128469704Y-92533412D01*
X128469697Y-92533406D01*
X128469694Y-92533403D01*
X128469689Y-92533399D01*
X128289908Y-92395449D01*
X128289904Y-92395446D01*
X128282454Y-92389730D01*
X128282453Y-92389729D01*
X128282450Y-92389727D01*
X128200957Y-92342677D01*
X128200282Y-92342287D01*
X128200263Y-92342276D01*
X128078065Y-92271724D01*
X128078048Y-92271715D01*
X127859997Y-92181395D01*
X127632006Y-92120305D01*
X127399889Y-92089747D01*
X127398208Y-92089500D01*
X127398017Y-92089500D01*
X127398011Y-92089500D01*
X127161989Y-92089500D01*
X127161983Y-92089500D01*
X127161981Y-92089500D01*
X127155861Y-92090253D01*
X127154955Y-92090425D01*
X126927992Y-92120305D01*
X126700001Y-92181395D01*
X126481950Y-92271715D01*
X126481942Y-92271719D01*
X126277545Y-92389730D01*
X126277536Y-92389736D01*
X126090309Y-92533399D01*
X126090294Y-92533413D01*
X126090286Y-92533420D01*
X125923420Y-92700286D01*
X125923413Y-92700294D01*
X125923399Y-92700309D01*
X125779736Y-92887536D01*
X125779730Y-92887545D01*
X125661719Y-93091942D01*
X125661715Y-93091950D01*
X125571395Y-93310001D01*
X125510305Y-93537992D01*
X125479503Y-93771963D01*
X125479500Y-93771987D01*
X123300500Y-93771987D01*
X123300500Y-80525507D01*
X139629500Y-80525507D01*
X139629500Y-80714491D01*
X139659058Y-80901112D01*
X139659059Y-80901118D01*
X139717454Y-81080836D01*
X139803240Y-81249199D01*
X139914310Y-81402073D01*
X140047927Y-81535690D01*
X140134229Y-81598393D01*
X140200796Y-81646757D01*
X140200797Y-81646757D01*
X140200801Y-81646760D01*
X140280347Y-81687290D01*
X140362722Y-81729263D01*
X140364320Y-81730199D01*
X140368037Y-81731999D01*
X140370021Y-81732985D01*
X140373775Y-81734043D01*
X140465497Y-81763846D01*
X140548881Y-81790940D01*
X140735514Y-81820500D01*
X140735519Y-81820500D01*
X140924485Y-81820500D01*
X140924486Y-81820500D01*
X141111118Y-81790940D01*
X141290832Y-81732547D01*
X141459199Y-81646760D01*
X141612073Y-81535690D01*
X141745690Y-81402073D01*
X141856760Y-81249199D01*
X141942547Y-81080832D01*
X142000940Y-80901118D01*
X142030500Y-80714486D01*
X142030500Y-80525513D01*
X142000940Y-80338881D01*
X141942545Y-80159163D01*
X141897290Y-80070347D01*
X141856760Y-79990801D01*
X141856758Y-79990798D01*
X141856757Y-79990796D01*
X141778605Y-79883231D01*
X141745690Y-79837927D01*
X141612073Y-79704310D01*
X141459199Y-79593240D01*
X141290836Y-79507454D01*
X141111118Y-79449059D01*
X141111112Y-79449058D01*
X140924491Y-79419500D01*
X140924486Y-79419500D01*
X140924481Y-79419500D01*
X140735519Y-79419500D01*
X140735514Y-79419500D01*
X140735509Y-79419500D01*
X140548886Y-79449058D01*
X140548884Y-79449058D01*
X140548881Y-79449059D01*
X140369163Y-79507454D01*
X140284981Y-79550347D01*
X140200799Y-79593240D01*
X140113579Y-79656610D01*
X140113578Y-79656610D01*
X140059794Y-79695686D01*
X140052419Y-79699816D01*
X139909817Y-79842418D01*
X139905687Y-79849794D01*
X139881398Y-79883226D01*
X139881397Y-79883228D01*
X139803239Y-79990800D01*
X139762709Y-80070345D01*
X139717454Y-80159163D01*
X139659059Y-80338881D01*
X139659058Y-80338884D01*
X139659058Y-80338886D01*
X139629500Y-80525507D01*
X123300500Y-80525507D01*
X123300500Y-78743379D01*
X178605400Y-78743379D01*
X178605400Y-78956619D01*
X178637964Y-79162220D01*
X178637965Y-79162220D01*
X178638754Y-79167203D01*
X178638755Y-79167206D01*
X178704644Y-79369990D01*
X178774686Y-79507454D01*
X178801442Y-79559965D01*
X178926769Y-79732463D01*
X179077537Y-79883231D01*
X179250035Y-80008558D01*
X179339792Y-80054291D01*
X179440009Y-80105355D01*
X179440011Y-80105355D01*
X179440014Y-80105357D01*
X179642797Y-80171246D01*
X179661894Y-80174270D01*
X179702806Y-80180750D01*
X179702873Y-80180760D01*
X179702966Y-80180775D01*
X179853386Y-80204600D01*
X179853391Y-80204600D01*
X180066613Y-80204600D01*
X180066614Y-80204600D01*
X180183605Y-80186070D01*
X180277203Y-80171246D01*
X180479986Y-80105357D01*
X180669965Y-80008558D01*
X180842463Y-79883231D01*
X180993231Y-79732463D01*
X181118558Y-79559965D01*
X181215357Y-79369986D01*
X181281246Y-79167203D01*
X181290086Y-79111382D01*
X181314600Y-78956614D01*
X181314600Y-78743385D01*
X181281246Y-78532800D01*
X181281246Y-78532797D01*
X181215357Y-78330014D01*
X181215355Y-78330011D01*
X181215355Y-78330009D01*
X181118557Y-78140034D01*
X180993231Y-77967537D01*
X180842463Y-77816769D01*
X180669965Y-77691442D01*
X180479990Y-77594644D01*
X180290725Y-77533147D01*
X180290717Y-77533145D01*
X180277203Y-77528754D01*
X180277201Y-77528753D01*
X180277200Y-77528753D01*
X180262803Y-77526472D01*
X180262800Y-77526472D01*
X180066619Y-77495400D01*
X180066614Y-77495400D01*
X180066609Y-77495400D01*
X179853391Y-77495400D01*
X179853386Y-77495400D01*
X179853381Y-77495400D01*
X179642805Y-77528752D01*
X179642803Y-77528752D01*
X179642800Y-77528753D01*
X179541405Y-77561698D01*
X179440006Y-77594645D01*
X179250033Y-77691442D01*
X179191488Y-77733978D01*
X179077534Y-77816771D01*
X179077532Y-77816773D01*
X179077531Y-77816773D01*
X178926773Y-77967531D01*
X178926773Y-77967532D01*
X178926771Y-77967534D01*
X178926769Y-77967537D01*
X178801442Y-78140033D01*
X178704645Y-78330006D01*
X178671698Y-78431405D01*
X178638753Y-78532800D01*
X178638752Y-78532803D01*
X178638752Y-78532805D01*
X178605400Y-78743379D01*
X123300500Y-78743379D01*
X123300500Y-75445507D01*
X154869500Y-75445507D01*
X154869500Y-75634491D01*
X154899058Y-75821112D01*
X154899059Y-75821118D01*
X154957454Y-76000836D01*
X155014713Y-76113212D01*
X155043240Y-76169199D01*
X155154310Y-76322073D01*
X155287927Y-76455690D01*
X155343310Y-76495928D01*
X155440796Y-76566757D01*
X155440797Y-76566757D01*
X155440801Y-76566760D01*
X155520347Y-76607290D01*
X155602722Y-76649263D01*
X155604320Y-76650199D01*
X155608037Y-76651999D01*
X155610021Y-76652985D01*
X155613775Y-76654043D01*
X155705497Y-76683846D01*
X155788881Y-76710940D01*
X155975514Y-76740500D01*
X155975519Y-76740500D01*
X156164485Y-76740500D01*
X156164486Y-76740500D01*
X156351118Y-76710940D01*
X156530832Y-76652547D01*
X156699199Y-76566760D01*
X156852073Y-76455690D01*
X156985690Y-76322073D01*
X157096760Y-76169199D01*
X157182547Y-76000832D01*
X157240940Y-75821118D01*
X157270500Y-75634486D01*
X157270500Y-75445513D01*
X157240940Y-75258881D01*
X157182545Y-75079163D01*
X157096759Y-74910800D01*
X156985690Y-74757927D01*
X156852073Y-74624310D01*
X156699199Y-74513240D01*
X156530836Y-74427454D01*
X156351118Y-74369059D01*
X156351112Y-74369058D01*
X156164491Y-74339500D01*
X156164486Y-74339500D01*
X156164481Y-74339500D01*
X155975519Y-74339500D01*
X155975514Y-74339500D01*
X155975509Y-74339500D01*
X155788886Y-74369058D01*
X155788884Y-74369058D01*
X155788881Y-74369059D01*
X155609163Y-74427454D01*
X155525180Y-74470246D01*
X155440799Y-74513240D01*
X155353579Y-74576610D01*
X155353578Y-74576610D01*
X155299794Y-74615686D01*
X155292419Y-74619816D01*
X155149816Y-74762419D01*
X155145686Y-74769794D01*
X155106610Y-74823578D01*
X155106610Y-74823579D01*
X155043240Y-74910799D01*
X155004902Y-74986042D01*
X154957454Y-75079163D01*
X154899059Y-75258881D01*
X154899058Y-75258884D01*
X154899058Y-75258886D01*
X154869500Y-75445507D01*
X123300500Y-75445507D01*
X123300500Y-72843379D01*
X126865400Y-72843379D01*
X126865400Y-73056619D01*
X126898751Y-73267188D01*
X126898754Y-73267203D01*
X126898755Y-73267207D01*
X126964644Y-73469990D01*
X127045953Y-73629567D01*
X127061442Y-73659965D01*
X127186769Y-73832463D01*
X127337537Y-73983231D01*
X127510035Y-74108558D01*
X127599792Y-74154291D01*
X127700009Y-74205355D01*
X127700011Y-74205355D01*
X127700014Y-74205357D01*
X127902797Y-74271246D01*
X127921894Y-74274270D01*
X127962806Y-74280750D01*
X127962873Y-74280760D01*
X127962966Y-74280775D01*
X128113386Y-74304600D01*
X128113391Y-74304600D01*
X128326613Y-74304600D01*
X128326614Y-74304600D01*
X128443605Y-74286070D01*
X128537203Y-74271246D01*
X128739986Y-74205357D01*
X128929965Y-74108558D01*
X129102463Y-73983231D01*
X129253231Y-73832463D01*
X129378558Y-73659965D01*
X129475357Y-73469986D01*
X129541246Y-73267203D01*
X129549783Y-73213297D01*
X129559792Y-73150110D01*
X129564022Y-73123396D01*
X129574600Y-73056619D01*
X129574600Y-72843385D01*
X129542773Y-72642440D01*
X129542772Y-72642433D01*
X129542772Y-72642434D01*
X129541246Y-72632800D01*
X129541246Y-72632797D01*
X129475357Y-72430014D01*
X129475355Y-72430011D01*
X129475355Y-72430009D01*
X129378557Y-72240034D01*
X129253231Y-72067537D01*
X129102463Y-71916769D01*
X128929965Y-71791442D01*
X128901476Y-71776926D01*
X128739990Y-71694644D01*
X128550725Y-71633147D01*
X128550717Y-71633145D01*
X128537203Y-71628754D01*
X128537201Y-71628753D01*
X128537200Y-71628753D01*
X128522803Y-71626472D01*
X128522800Y-71626472D01*
X128326619Y-71595400D01*
X128326614Y-71595400D01*
X128326609Y-71595400D01*
X128113391Y-71595400D01*
X128113386Y-71595400D01*
X128113381Y-71595400D01*
X127902805Y-71628752D01*
X127902803Y-71628752D01*
X127902800Y-71628753D01*
X127818796Y-71656048D01*
X127700006Y-71694645D01*
X127510033Y-71791442D01*
X127430757Y-71849040D01*
X127337534Y-71916771D01*
X127337532Y-71916773D01*
X127337531Y-71916773D01*
X127186773Y-72067531D01*
X127186773Y-72067532D01*
X127186771Y-72067534D01*
X127186769Y-72067537D01*
X127061442Y-72240033D01*
X126964645Y-72430006D01*
X126931698Y-72531405D01*
X126898753Y-72632800D01*
X126898752Y-72632803D01*
X126898752Y-72632805D01*
X126865400Y-72843379D01*
X123300500Y-72843379D01*
X123300500Y-70623379D01*
X166275400Y-70623379D01*
X166275400Y-70836619D01*
X166298193Y-70980524D01*
X166300060Y-70992315D01*
X166308754Y-71047203D01*
X166374643Y-71249986D01*
X166471442Y-71439965D01*
X166596769Y-71612463D01*
X166747537Y-71763231D01*
X166920035Y-71888558D01*
X167009792Y-71934291D01*
X167110009Y-71985355D01*
X167110011Y-71985355D01*
X167110014Y-71985357D01*
X167312797Y-72051246D01*
X167331894Y-72054270D01*
X167372806Y-72060750D01*
X167372873Y-72060760D01*
X167372966Y-72060775D01*
X167523386Y-72084600D01*
X167523391Y-72084600D01*
X167736613Y-72084600D01*
X167736614Y-72084600D01*
X167853605Y-72066070D01*
X167947203Y-72051246D01*
X168149986Y-71985357D01*
X168339965Y-71888558D01*
X168512463Y-71763231D01*
X168663231Y-71612463D01*
X168788558Y-71439965D01*
X168885357Y-71249986D01*
X168951246Y-71047203D01*
X168970092Y-70928211D01*
X168979515Y-70868718D01*
X168979515Y-70868717D01*
X168984600Y-70836612D01*
X168984600Y-70623386D01*
X168977878Y-70580943D01*
X168954321Y-70432214D01*
X168951246Y-70412797D01*
X168885357Y-70210014D01*
X168885355Y-70210011D01*
X168885355Y-70210009D01*
X168829046Y-70099497D01*
X168788558Y-70020035D01*
X168663231Y-69847537D01*
X168512463Y-69696769D01*
X168339965Y-69571442D01*
X168300393Y-69551279D01*
X168149990Y-69474644D01*
X167960725Y-69413147D01*
X167960717Y-69413145D01*
X167947203Y-69408754D01*
X167947201Y-69408753D01*
X167947200Y-69408753D01*
X167932803Y-69406472D01*
X167932800Y-69406472D01*
X167736619Y-69375400D01*
X167736614Y-69375400D01*
X167736609Y-69375400D01*
X167523391Y-69375400D01*
X167523386Y-69375400D01*
X167523381Y-69375400D01*
X167312805Y-69408752D01*
X167312803Y-69408752D01*
X167312800Y-69408753D01*
X167211405Y-69441698D01*
X167110006Y-69474645D01*
X166920033Y-69571442D01*
X166821615Y-69642947D01*
X166747534Y-69696771D01*
X166747532Y-69696773D01*
X166747531Y-69696773D01*
X166596773Y-69847531D01*
X166596773Y-69847532D01*
X166596771Y-69847534D01*
X166596769Y-69847537D01*
X166471442Y-70020033D01*
X166374645Y-70210006D01*
X166362460Y-70247508D01*
X166308753Y-70412800D01*
X166308752Y-70412803D01*
X166308752Y-70412805D01*
X166275400Y-70623379D01*
X123300500Y-70623379D01*
X123300500Y-67673379D01*
X154745400Y-67673379D01*
X154745400Y-67886619D01*
X154776472Y-68082802D01*
X154776474Y-68082811D01*
X154778753Y-68097199D01*
X154778753Y-68097201D01*
X154778754Y-68097203D01*
X154783144Y-68110714D01*
X154783146Y-68110722D01*
X154844644Y-68299990D01*
X154869057Y-68347902D01*
X154941442Y-68489965D01*
X155066769Y-68662463D01*
X155217537Y-68813231D01*
X155390035Y-68938558D01*
X155479792Y-68984291D01*
X155580009Y-69035355D01*
X155580011Y-69035355D01*
X155580014Y-69035357D01*
X155782797Y-69101246D01*
X155801894Y-69104270D01*
X155842806Y-69110750D01*
X155842873Y-69110760D01*
X155842966Y-69110775D01*
X155993386Y-69134600D01*
X155993391Y-69134600D01*
X156206613Y-69134600D01*
X156206614Y-69134600D01*
X156323605Y-69116070D01*
X156417203Y-69101246D01*
X156619986Y-69035357D01*
X156809965Y-68938558D01*
X156982463Y-68813231D01*
X157133231Y-68662463D01*
X157258558Y-68489965D01*
X157355357Y-68299986D01*
X157421246Y-68097203D01*
X157441595Y-67968721D01*
X157454600Y-67886614D01*
X157454600Y-67673385D01*
X157421246Y-67462800D01*
X157421246Y-67462797D01*
X157355357Y-67260014D01*
X157355354Y-67260008D01*
X157337928Y-67225806D01*
X157337927Y-67225805D01*
X157258557Y-67070034D01*
X157211490Y-67005251D01*
X157133236Y-66897543D01*
X157133232Y-66897538D01*
X156982465Y-66746771D01*
X156982463Y-66746769D01*
X156809965Y-66621442D01*
X156619990Y-66524644D01*
X156430725Y-66463147D01*
X156430717Y-66463145D01*
X156417203Y-66458754D01*
X156417201Y-66458753D01*
X156417200Y-66458753D01*
X156402803Y-66456472D01*
X156402800Y-66456472D01*
X156206619Y-66425400D01*
X156206614Y-66425400D01*
X156206609Y-66425400D01*
X155993391Y-66425400D01*
X155993386Y-66425400D01*
X155993381Y-66425400D01*
X155782805Y-66458752D01*
X155782803Y-66458752D01*
X155782800Y-66458753D01*
X155710571Y-66482222D01*
X155580006Y-66524645D01*
X155390033Y-66621442D01*
X155308862Y-66680417D01*
X155217534Y-66746771D01*
X155217532Y-66746773D01*
X155217531Y-66746773D01*
X155066773Y-66897531D01*
X155066773Y-66897532D01*
X155066771Y-66897534D01*
X155012947Y-66971615D01*
X154941442Y-67070033D01*
X154844645Y-67260006D01*
X154816827Y-67345621D01*
X154778753Y-67462800D01*
X154778752Y-67462803D01*
X154778752Y-67462805D01*
X154745400Y-67673379D01*
X123300500Y-67673379D01*
X123300500Y-44941987D01*
X125679500Y-44941987D01*
X125679500Y-45178011D01*
X125679503Y-45178035D01*
X125710305Y-45412006D01*
X125771395Y-45639997D01*
X125855572Y-45843218D01*
X125861714Y-45858045D01*
X125861719Y-45858056D01*
X125932677Y-45980957D01*
X125979727Y-46062450D01*
X125979729Y-46062453D01*
X125979730Y-46062454D01*
X125985446Y-46069904D01*
X125985449Y-46069908D01*
X126123399Y-46249689D01*
X126123403Y-46249694D01*
X126123406Y-46249697D01*
X126123412Y-46249704D01*
X126290295Y-46416587D01*
X126290302Y-46416593D01*
X126325650Y-46443716D01*
X126477550Y-46560273D01*
X126477554Y-46560275D01*
X126477556Y-46560277D01*
X126568077Y-46612539D01*
X126606241Y-46634573D01*
X126681943Y-46678280D01*
X126681948Y-46678282D01*
X126681951Y-46678284D01*
X126900007Y-46768606D01*
X127127986Y-46829693D01*
X127361989Y-46860500D01*
X127361996Y-46860500D01*
X127598004Y-46860500D01*
X127598011Y-46860500D01*
X127832014Y-46829693D01*
X128059993Y-46768606D01*
X128278049Y-46678284D01*
X128482450Y-46560273D01*
X128669699Y-46416592D01*
X128836592Y-46249699D01*
X128980273Y-46062450D01*
X129098284Y-45858049D01*
X129188606Y-45639993D01*
X129249693Y-45412014D01*
X129280500Y-45178011D01*
X129280500Y-44941989D01*
X129249693Y-44707986D01*
X129188606Y-44480007D01*
X129098284Y-44261951D01*
X129098282Y-44261948D01*
X129098280Y-44261943D01*
X129098277Y-44261938D01*
X129098162Y-44261660D01*
X129097382Y-44260255D01*
X129096297Y-44258509D01*
X129069734Y-44212502D01*
X129056118Y-44188918D01*
X128980273Y-44057550D01*
X128980272Y-44057548D01*
X128836595Y-43870305D01*
X128836589Y-43870297D01*
X128836574Y-43870281D01*
X128669712Y-43703420D01*
X128669704Y-43703412D01*
X128669697Y-43703406D01*
X128669694Y-43703403D01*
X128669689Y-43703399D01*
X128489908Y-43565449D01*
X128489904Y-43565446D01*
X128482454Y-43559730D01*
X128482453Y-43559729D01*
X128482450Y-43559727D01*
X128400957Y-43512677D01*
X128400282Y-43512287D01*
X128400263Y-43512276D01*
X128278065Y-43441724D01*
X128278048Y-43441715D01*
X128059997Y-43351395D01*
X127832006Y-43290305D01*
X127599889Y-43259747D01*
X127598208Y-43259500D01*
X127598017Y-43259500D01*
X127598011Y-43259500D01*
X127361989Y-43259500D01*
X127361983Y-43259500D01*
X127361981Y-43259500D01*
X127355861Y-43260253D01*
X127354955Y-43260425D01*
X127127992Y-43290305D01*
X126900001Y-43351395D01*
X126681950Y-43441715D01*
X126681942Y-43441719D01*
X126477545Y-43559730D01*
X126477536Y-43559736D01*
X126290309Y-43703399D01*
X126290294Y-43703413D01*
X126290286Y-43703420D01*
X126123420Y-43870286D01*
X126123413Y-43870294D01*
X126123399Y-43870309D01*
X125979736Y-44057536D01*
X125979730Y-44057545D01*
X125861719Y-44261942D01*
X125861715Y-44261950D01*
X125771395Y-44480001D01*
X125710305Y-44707992D01*
X125679503Y-44941963D01*
X125679500Y-44941987D01*
X123300500Y-44941987D01*
X123300500Y-41612329D01*
X123305523Y-41577393D01*
X123309927Y-41562395D01*
X123347672Y-41503644D01*
X123347700Y-41503619D01*
X123347699Y-41503619D01*
X123349041Y-41502456D01*
X123403920Y-41474977D01*
X123411479Y-41473333D01*
X123437832Y-41470500D01*
X197167670Y-41470500D01*
X197202606Y-41475523D01*
G37*
%TD.AperFunction*%
%TA.AperFunction,Conductor*%
G36*
X188931222Y-66479128D02*
G01*
X188986629Y-66487904D01*
X189006688Y-66490670D01*
X189016556Y-66491830D01*
X189016573Y-66491831D01*
X189016576Y-66491832D01*
X189019759Y-66492141D01*
X189036728Y-66493792D01*
X189040001Y-66494044D01*
X189046596Y-66494553D01*
X189046619Y-66494554D01*
X189046628Y-66494555D01*
X189066892Y-66495708D01*
X189076843Y-66496074D01*
X189097142Y-66496413D01*
X189097167Y-66496412D01*
X189097173Y-66496413D01*
X189303162Y-66495712D01*
X190830560Y-66490516D01*
X190837232Y-66492451D01*
X190844071Y-66491208D01*
X190870356Y-66502054D01*
X190897664Y-66509972D01*
X190902232Y-66515208D01*
X190908658Y-66517860D01*
X190924907Y-66541197D01*
X190943598Y-66562620D01*
X190944610Y-66569494D01*
X190948582Y-66575199D01*
X190949634Y-66603615D01*
X190953777Y-66631744D01*
X190950973Y-66639750D01*
X190951169Y-66645021D01*
X190943113Y-66662202D01*
X190937706Y-66677647D01*
X190934728Y-66682679D01*
X190929546Y-66689813D01*
X190929545Y-66689816D01*
X190923572Y-66701537D01*
X190923554Y-66701569D01*
X190851807Y-66842382D01*
X190798886Y-67005253D01*
X190798886Y-67005254D01*
X190788627Y-67070033D01*
X190788627Y-67070035D01*
X190772100Y-67174377D01*
X190772100Y-67345621D01*
X190798887Y-67514749D01*
X190798887Y-67514750D01*
X190851801Y-67677604D01*
X190851807Y-67677617D01*
X190858331Y-67690424D01*
X190858332Y-67690424D01*
X190921745Y-67814880D01*
X190921747Y-67814883D01*
X190929545Y-67830187D01*
X190929546Y-67830190D01*
X190971392Y-67887784D01*
X191030196Y-67968721D01*
X191151281Y-68089806D01*
X191199029Y-68124497D01*
X191220012Y-68139742D01*
X191289090Y-68189931D01*
X191290599Y-68191046D01*
X191292279Y-68192306D01*
X191298496Y-68194880D01*
X191442391Y-68268198D01*
X191605249Y-68321114D01*
X191774380Y-68347902D01*
X191774381Y-68347902D01*
X191945619Y-68347902D01*
X191945620Y-68347902D01*
X192114751Y-68321114D01*
X192277609Y-68268198D01*
X192430184Y-68190458D01*
X192568719Y-68089806D01*
X192689804Y-67968721D01*
X192790456Y-67830186D01*
X192868196Y-67677611D01*
X192921112Y-67514753D01*
X192947900Y-67345622D01*
X192947900Y-67174382D01*
X192921112Y-67005251D01*
X192868196Y-66842393D01*
X192790456Y-66689818D01*
X192790453Y-66689814D01*
X192790453Y-66689813D01*
X192783625Y-66680416D01*
X192760147Y-66614610D01*
X192775974Y-66546556D01*
X192826080Y-66497862D01*
X192883521Y-66483534D01*
X193145079Y-66482645D01*
X193212185Y-66502101D01*
X193258119Y-66554749D01*
X193269500Y-66606644D01*
X193269500Y-71370500D01*
X193249815Y-71437539D01*
X193197011Y-71483294D01*
X193145500Y-71494500D01*
X192349962Y-71494500D01*
X192282923Y-71474815D01*
X192237168Y-71422011D01*
X192227224Y-71352853D01*
X192256249Y-71289297D01*
X192293667Y-71260015D01*
X192430184Y-71190457D01*
X192568719Y-71089805D01*
X192689804Y-70968720D01*
X192790456Y-70830185D01*
X192868196Y-70677610D01*
X192921112Y-70514752D01*
X192947900Y-70345621D01*
X192947900Y-70174381D01*
X192921112Y-70005250D01*
X192868196Y-69842392D01*
X192790456Y-69689817D01*
X192790453Y-69689813D01*
X192790453Y-69689812D01*
X192761234Y-69649597D01*
X192689804Y-69551282D01*
X192568719Y-69430197D01*
X192545252Y-69413147D01*
X192497744Y-69378629D01*
X192497690Y-69378591D01*
X192493298Y-69375400D01*
X192430188Y-69329547D01*
X192430185Y-69329546D01*
X192430186Y-69329546D01*
X192430184Y-69329545D01*
X192422142Y-69325447D01*
X192422069Y-69325396D01*
X192421915Y-69325332D01*
X192277613Y-69251806D01*
X192128277Y-69203283D01*
X192128266Y-69203280D01*
X192114751Y-69198889D01*
X192114749Y-69198888D01*
X192114747Y-69198888D01*
X192100350Y-69196607D01*
X192100343Y-69196606D01*
X192019369Y-69183781D01*
X191996658Y-69180184D01*
X191984819Y-69178309D01*
X191945624Y-69172101D01*
X191945620Y-69172101D01*
X191774380Y-69172101D01*
X191774379Y-69172101D01*
X191735171Y-69178310D01*
X191735170Y-69178309D01*
X191605254Y-69198887D01*
X191462900Y-69245140D01*
X191444940Y-69250977D01*
X191442382Y-69251808D01*
X191305727Y-69321436D01*
X191305716Y-69321443D01*
X191289814Y-69329546D01*
X191289811Y-69329547D01*
X191186039Y-69404943D01*
X191185103Y-69405622D01*
X191185073Y-69405644D01*
X191163146Y-69421575D01*
X191155772Y-69425704D01*
X191025704Y-69555772D01*
X191021574Y-69563148D01*
X191015553Y-69571436D01*
X191015549Y-69571442D01*
X190929547Y-69689808D01*
X190925502Y-69697675D01*
X190925331Y-69698083D01*
X190851807Y-69842381D01*
X190798886Y-70005254D01*
X190796634Y-70019479D01*
X190796633Y-70019482D01*
X190773512Y-70165465D01*
X190772100Y-70174381D01*
X190772100Y-70345621D01*
X190780912Y-70401259D01*
X190798888Y-70514753D01*
X190809334Y-70546903D01*
X190819781Y-70579055D01*
X190828055Y-70604520D01*
X190851806Y-70677616D01*
X190922008Y-70815395D01*
X190922010Y-70815399D01*
X190929545Y-70830186D01*
X190929546Y-70830189D01*
X190957539Y-70868717D01*
X190958950Y-70870659D01*
X190958958Y-70870671D01*
X191009661Y-70940457D01*
X191030196Y-70968720D01*
X191151281Y-71089805D01*
X191229488Y-71146626D01*
X191289082Y-71189924D01*
X191290595Y-71191041D01*
X191292281Y-71192306D01*
X191298496Y-71194879D01*
X191381709Y-71237278D01*
X191426332Y-71260015D01*
X191477128Y-71307990D01*
X191493923Y-71375811D01*
X191471385Y-71441946D01*
X191416670Y-71485397D01*
X191370037Y-71494500D01*
X190912330Y-71494500D01*
X190858306Y-71497395D01*
X190831937Y-71500230D01*
X190778571Y-71508875D01*
X190778569Y-71508876D01*
X190778552Y-71508879D01*
X190778550Y-71508880D01*
X190770991Y-71510524D01*
X190770986Y-71510525D01*
X190770977Y-71510528D01*
X190652097Y-71552472D01*
X190652091Y-71552474D01*
X190597217Y-71579950D01*
X190597215Y-71579952D01*
X190522277Y-71630033D01*
X190522262Y-71630044D01*
X190492484Y-71649946D01*
X190491142Y-71651109D01*
X190485847Y-71656404D01*
X190485529Y-71656048D01*
X190485501Y-71656073D01*
X190481553Y-71660698D01*
X190473115Y-71669135D01*
X190473107Y-71669143D01*
X190440170Y-71702084D01*
X190426226Y-71723780D01*
X190419563Y-71733159D01*
X190417942Y-71735230D01*
X190396879Y-71759911D01*
X190388870Y-71772377D01*
X190385310Y-71776926D01*
X190361399Y-71794037D01*
X190339183Y-71813292D01*
X190333313Y-71814136D01*
X190328491Y-71817588D01*
X190299126Y-71819055D01*
X190270026Y-71823243D01*
X190264631Y-71820779D01*
X190258708Y-71821076D01*
X190233213Y-71806436D01*
X190206467Y-71794225D01*
X190200820Y-71787834D01*
X190198118Y-71786283D01*
X190196227Y-71782637D01*
X190184662Y-71769549D01*
X190149378Y-71716915D01*
X190149374Y-71716910D01*
X190148720Y-71716158D01*
X190148235Y-71715592D01*
X190148191Y-71715548D01*
X190148188Y-71715545D01*
X190148186Y-71715543D01*
X190039281Y-71621515D01*
X190039275Y-71621511D01*
X190039273Y-71621509D01*
X189998486Y-71595400D01*
X189980439Y-71583847D01*
X189849487Y-71524318D01*
X189834482Y-71519940D01*
X189834478Y-71519939D01*
X189834474Y-71519938D01*
X189763944Y-71504724D01*
X189763936Y-71504723D01*
X189729010Y-71499765D01*
X189701982Y-71497880D01*
X189657076Y-71494748D01*
X189657074Y-71494748D01*
X189657060Y-71494747D01*
X185848104Y-71501395D01*
X185825460Y-71494789D01*
X185801978Y-71492583D01*
X185792540Y-71485184D01*
X185781031Y-71481827D01*
X185765555Y-71464030D01*
X185746991Y-71449477D01*
X185743051Y-71438150D01*
X185735184Y-71429103D01*
X185731786Y-71405763D01*
X185724038Y-71383485D01*
X185725805Y-71364670D01*
X185725120Y-71359962D01*
X185727339Y-71348346D01*
X185728769Y-71342413D01*
X185730425Y-71335540D01*
X185735158Y-71320292D01*
X185743834Y-71297620D01*
X186807353Y-66600405D01*
X186841356Y-66539369D01*
X186902960Y-66506404D01*
X186927867Y-66503790D01*
X188617253Y-66498045D01*
X188625925Y-66497849D01*
X188636601Y-66497609D01*
X188636646Y-66497607D01*
X188636651Y-66497607D01*
X188646170Y-66497209D01*
X188662892Y-66496187D01*
X188665506Y-66496028D01*
X188665506Y-66496027D01*
X188665554Y-66496025D01*
X188668938Y-66495753D01*
X188668975Y-66495750D01*
X188675078Y-66495259D01*
X188694441Y-66493325D01*
X188703893Y-66492197D01*
X188723066Y-66489536D01*
X188790003Y-66478934D01*
X188791312Y-66478755D01*
X188792072Y-66478869D01*
X188808179Y-66477602D01*
X188911827Y-66477602D01*
X188931222Y-66479128D01*
G37*
%TD.AperFunction*%
%TA.AperFunction,Conductor*%
G36*
X149779605Y-59009225D02*
G01*
X149823094Y-59020877D01*
X149853003Y-59033265D01*
X149891997Y-59055778D01*
X149917678Y-59075484D01*
X149949513Y-59107319D01*
X149969219Y-59133000D01*
X149991733Y-59171995D01*
X150004121Y-59201901D01*
X150015775Y-59245393D01*
X150020000Y-59277487D01*
X150020000Y-59322511D01*
X150015775Y-59354605D01*
X150004121Y-59398097D01*
X149991733Y-59428003D01*
X149969219Y-59466998D01*
X149949513Y-59492679D01*
X149917679Y-59524513D01*
X149891997Y-59544220D01*
X149852999Y-59566735D01*
X149823097Y-59579121D01*
X149813145Y-59581788D01*
X149779608Y-59590774D01*
X149747515Y-59595000D01*
X149702485Y-59595000D01*
X149670391Y-59590774D01*
X149635251Y-59581358D01*
X149626899Y-59579120D01*
X149597051Y-59566765D01*
X149596337Y-59566353D01*
X149595687Y-59565978D01*
X149595642Y-59565931D01*
X149595634Y-59565947D01*
X149558000Y-59544219D01*
X149532319Y-59524513D01*
X149500483Y-59492677D01*
X149480778Y-59466998D01*
X149458264Y-59428002D01*
X149445881Y-59398105D01*
X149434223Y-59354596D01*
X149430000Y-59322510D01*
X149430000Y-59277485D01*
X149434225Y-59245393D01*
X149445878Y-59201901D01*
X149458265Y-59171995D01*
X149480779Y-59132998D01*
X149500480Y-59107323D01*
X149532323Y-59075480D01*
X149557996Y-59055780D01*
X149596998Y-59033263D01*
X149626900Y-59020878D01*
X149639202Y-59017582D01*
X149670395Y-59009225D01*
X149702486Y-59005000D01*
X149747514Y-59005000D01*
X149779605Y-59009225D01*
G37*
%TD.AperFunction*%
%TA.AperFunction,Conductor*%
G36*
X161404605Y-57509225D02*
G01*
X161448094Y-57520877D01*
X161478003Y-57533265D01*
X161516997Y-57555778D01*
X161542678Y-57575484D01*
X161574514Y-57607320D01*
X161594220Y-57633001D01*
X161613466Y-57666337D01*
X161616731Y-57671992D01*
X161629119Y-57701897D01*
X161640774Y-57745391D01*
X161645000Y-57777485D01*
X161645000Y-57822511D01*
X161640775Y-57854605D01*
X161629121Y-57898097D01*
X161616733Y-57928004D01*
X161594220Y-57966997D01*
X161574515Y-57992676D01*
X161502700Y-58064492D01*
X161502701Y-58064493D01*
X161496937Y-58070257D01*
X161491839Y-58075850D01*
X161477937Y-58091099D01*
X161477935Y-58091101D01*
X161477935Y-58091102D01*
X161477933Y-58091104D01*
X161467770Y-58109350D01*
X161460392Y-58121017D01*
X161451250Y-58133833D01*
X161396293Y-58176979D01*
X161326735Y-58183564D01*
X161264658Y-58151497D01*
X161251034Y-58136135D01*
X161230983Y-58109350D01*
X161197714Y-58064908D01*
X161125480Y-57992674D01*
X161105777Y-57966996D01*
X161083265Y-57928003D01*
X161070878Y-57898096D01*
X161059225Y-57854604D01*
X161055000Y-57822512D01*
X161055000Y-57777485D01*
X161059225Y-57745393D01*
X161064032Y-57727451D01*
X161070879Y-57701897D01*
X161083263Y-57671998D01*
X161105780Y-57632996D01*
X161125480Y-57607323D01*
X161157323Y-57575480D01*
X161182996Y-57555780D01*
X161221998Y-57533263D01*
X161251900Y-57520878D01*
X161264202Y-57517582D01*
X161295395Y-57509225D01*
X161327486Y-57505000D01*
X161372514Y-57505000D01*
X161404605Y-57509225D01*
G37*
%TD.AperFunction*%
%TD*%
%TA.AperFunction,Conductor*%
%TO.N,+15V*%
G36*
X182475000Y-56055244D02*
G01*
X182475000Y-57214513D01*
X182455315Y-57281552D01*
X182438681Y-57302194D01*
X182353213Y-57387661D01*
X182353210Y-57387665D01*
X182265609Y-57518768D01*
X182265602Y-57518781D01*
X182205264Y-57664452D01*
X182205261Y-57664464D01*
X182174500Y-57819107D01*
X182174500Y-57976800D01*
X182205261Y-58131443D01*
X182205264Y-58131455D01*
X182265602Y-58277126D01*
X182265609Y-58277139D01*
X182353209Y-58408241D01*
X182353210Y-58408242D01*
X182353211Y-58408243D01*
X182438682Y-58493714D01*
X182472166Y-58555035D01*
X182475000Y-58581394D01*
X182475000Y-59050000D01*
X184576000Y-59050000D01*
X184643039Y-59069685D01*
X184688794Y-59122489D01*
X184700000Y-59174000D01*
X184700000Y-63600000D01*
X182475000Y-63600000D01*
X180980728Y-58868141D01*
X180974973Y-58830978D01*
X180974495Y-58493712D01*
X180971030Y-56046090D01*
X182475000Y-56055244D01*
G37*
%TD.AperFunction*%
%TD*%
%TA.AperFunction,Conductor*%
%TO.N,+5V*%
G36*
X170476254Y-57969685D02*
G01*
X170482816Y-57974205D01*
X170641274Y-58091088D01*
X174640414Y-61040949D01*
X175435106Y-61627133D01*
X175435107Y-61627134D01*
X175460239Y-61651914D01*
X175473808Y-61669776D01*
X175497044Y-61722473D01*
X175497796Y-61726584D01*
X175498514Y-61734615D01*
X175498687Y-61735067D01*
X175498594Y-61735506D01*
X175499820Y-61749196D01*
X175476605Y-71360704D01*
X175475000Y-72024999D01*
X175475000Y-72025000D01*
X189657958Y-72000247D01*
X189692896Y-72005207D01*
X189707901Y-72009585D01*
X189766743Y-72047253D01*
X189767909Y-72048594D01*
X189795468Y-72103472D01*
X189797141Y-72111127D01*
X189800000Y-72137602D01*
X189800000Y-77326000D01*
X189780315Y-77393039D01*
X189727511Y-77438794D01*
X189676000Y-77450000D01*
X187625000Y-77450000D01*
X187625000Y-76375000D01*
X185175000Y-76400000D01*
X185175248Y-76461837D01*
X183750000Y-73900000D01*
X174840642Y-73924816D01*
X174840640Y-73924815D01*
X174840640Y-73924816D01*
X174805691Y-73919889D01*
X174779293Y-73912217D01*
X174730902Y-73885271D01*
X172053805Y-71473473D01*
X172031213Y-71446362D01*
X172017886Y-71424717D01*
X171999480Y-71360706D01*
X171925000Y-62125000D01*
X166668145Y-62149336D01*
X166668144Y-62149335D01*
X166668144Y-62149336D01*
X166633186Y-62144474D01*
X166618166Y-62140139D01*
X166559249Y-62102676D01*
X166558282Y-62101570D01*
X166530405Y-62046175D01*
X166528639Y-62038031D01*
X166525826Y-62011023D01*
X166549159Y-58091077D01*
X166554390Y-58056185D01*
X166558884Y-58041208D01*
X166597006Y-57982662D01*
X166598551Y-57981339D01*
X166653185Y-57954305D01*
X166660427Y-57952752D01*
X166686408Y-57950000D01*
X170409215Y-57950000D01*
X170476254Y-57969685D01*
G37*
%TD.AperFunction*%
%TD*%
%TA.AperFunction,Conductor*%
%TO.N,+15V*%
G36*
X193718039Y-72019685D02*
G01*
X193763794Y-72072489D01*
X193775000Y-72124000D01*
X193775000Y-77326000D01*
X193755315Y-77393039D01*
X193702511Y-77438794D01*
X193651000Y-77450000D01*
X190916830Y-77450000D01*
X190916825Y-77449999D01*
X190916823Y-77450000D01*
X190881889Y-77444975D01*
X190866890Y-77440570D01*
X190808144Y-77402827D01*
X190808115Y-77402793D01*
X190808114Y-77402793D01*
X190808113Y-77402791D01*
X190806957Y-77401458D01*
X190779477Y-77346583D01*
X190777832Y-77339021D01*
X190775000Y-77312668D01*
X190775000Y-72141829D01*
X190780023Y-72106893D01*
X190784427Y-72091895D01*
X190822172Y-72033144D01*
X190822200Y-72033119D01*
X190822199Y-72033119D01*
X190823541Y-72031956D01*
X190878420Y-72004477D01*
X190885979Y-72002833D01*
X190912332Y-72000000D01*
X193651000Y-72000000D01*
X193718039Y-72019685D01*
G37*
%TD.AperFunction*%
%TD*%
%TA.AperFunction,Conductor*%
%TO.N,+5VA*%
G36*
X147818238Y-52069685D02*
G01*
X147863993Y-52122489D01*
X147875199Y-52174000D01*
X147875199Y-52179056D01*
X147916122Y-52331783D01*
X147916125Y-52331790D01*
X147995174Y-52468709D01*
X147995178Y-52468714D01*
X147995179Y-52468716D01*
X148106983Y-52580520D01*
X148106985Y-52580521D01*
X148106989Y-52580524D01*
X148240896Y-52657834D01*
X148243915Y-52659577D01*
X148396642Y-52700500D01*
X148396644Y-52700500D01*
X148554754Y-52700500D01*
X148554756Y-52700500D01*
X148707483Y-52659577D01*
X148844415Y-52580520D01*
X148956219Y-52468716D01*
X149035276Y-52331784D01*
X149076199Y-52179057D01*
X149076199Y-52174000D01*
X149078749Y-52165314D01*
X149077461Y-52156353D01*
X149088439Y-52132312D01*
X149095884Y-52106961D01*
X149102724Y-52101033D01*
X149106486Y-52092797D01*
X149128720Y-52078507D01*
X149148688Y-52061206D01*
X149159202Y-52058918D01*
X149165264Y-52055023D01*
X149200199Y-52050000D01*
X149351199Y-52050000D01*
X149418238Y-52069685D01*
X149463993Y-52122489D01*
X149475199Y-52174000D01*
X149475199Y-52177318D01*
X149475665Y-52179055D01*
X149516122Y-52330044D01*
X149516125Y-52330051D01*
X149595174Y-52466970D01*
X149595178Y-52466975D01*
X149595179Y-52466977D01*
X149706983Y-52578781D01*
X149706985Y-52578782D01*
X149706989Y-52578785D01*
X149843908Y-52657834D01*
X149843915Y-52657838D01*
X149996642Y-52698761D01*
X149996644Y-52698761D01*
X150154754Y-52698761D01*
X150154756Y-52698761D01*
X150307483Y-52657838D01*
X150444415Y-52578781D01*
X150556219Y-52466977D01*
X150635276Y-52330045D01*
X150676199Y-52177318D01*
X150676199Y-52174000D01*
X150676990Y-52171304D01*
X150677260Y-52169258D01*
X150677579Y-52169300D01*
X150678749Y-52165314D01*
X150677461Y-52156353D01*
X150688439Y-52132312D01*
X150695884Y-52106961D01*
X150702724Y-52101033D01*
X150706486Y-52092797D01*
X150728720Y-52078507D01*
X150748688Y-52061206D01*
X150759202Y-52058918D01*
X150765264Y-52055023D01*
X150800199Y-52050000D01*
X150851199Y-52050000D01*
X150918238Y-52069685D01*
X150963993Y-52122489D01*
X150975199Y-52174000D01*
X150975199Y-52177318D01*
X150975665Y-52179055D01*
X151016122Y-52330044D01*
X151016125Y-52330051D01*
X151095174Y-52466970D01*
X151095178Y-52466975D01*
X151095179Y-52466977D01*
X151206983Y-52578781D01*
X151206985Y-52578782D01*
X151206989Y-52578785D01*
X151343908Y-52657834D01*
X151343915Y-52657838D01*
X151496642Y-52698761D01*
X151496644Y-52698761D01*
X151654754Y-52698761D01*
X151654756Y-52698761D01*
X151807483Y-52657838D01*
X151944415Y-52578781D01*
X152056219Y-52466977D01*
X152135276Y-52330045D01*
X152176199Y-52177318D01*
X152176199Y-52174000D01*
X152176990Y-52171304D01*
X152177260Y-52169258D01*
X152177579Y-52169300D01*
X152178749Y-52165314D01*
X152177461Y-52156353D01*
X152188439Y-52132312D01*
X152195884Y-52106961D01*
X152202724Y-52101033D01*
X152206486Y-52092797D01*
X152228720Y-52078507D01*
X152248688Y-52061206D01*
X152259202Y-52058918D01*
X152265264Y-52055023D01*
X152300199Y-52050000D01*
X152351199Y-52050000D01*
X152418238Y-52069685D01*
X152463993Y-52122489D01*
X152475199Y-52174000D01*
X152475199Y-52177318D01*
X152475665Y-52179055D01*
X152516122Y-52330044D01*
X152516125Y-52330051D01*
X152595174Y-52466970D01*
X152595178Y-52466975D01*
X152595179Y-52466977D01*
X152706983Y-52578781D01*
X152706985Y-52578782D01*
X152706989Y-52578785D01*
X152843908Y-52657834D01*
X152843915Y-52657838D01*
X152996642Y-52698761D01*
X152996644Y-52698761D01*
X153154754Y-52698761D01*
X153154756Y-52698761D01*
X153307483Y-52657838D01*
X153444415Y-52578781D01*
X153556219Y-52466977D01*
X153635276Y-52330045D01*
X153676199Y-52177318D01*
X153676199Y-52174000D01*
X153676990Y-52171304D01*
X153677260Y-52169258D01*
X153677579Y-52169300D01*
X153678749Y-52165314D01*
X153677461Y-52156353D01*
X153688439Y-52132312D01*
X153695884Y-52106961D01*
X153702724Y-52101033D01*
X153706486Y-52092797D01*
X153728720Y-52078507D01*
X153748688Y-52061206D01*
X153759202Y-52058918D01*
X153765264Y-52055023D01*
X153800199Y-52050000D01*
X153851199Y-52050000D01*
X153918238Y-52069685D01*
X153963993Y-52122489D01*
X153975199Y-52174000D01*
X153975199Y-52177318D01*
X153975665Y-52179055D01*
X154016122Y-52330044D01*
X154016125Y-52330051D01*
X154095174Y-52466970D01*
X154095178Y-52466975D01*
X154095179Y-52466977D01*
X154206983Y-52578781D01*
X154206985Y-52578782D01*
X154206989Y-52578785D01*
X154343908Y-52657834D01*
X154343915Y-52657838D01*
X154496642Y-52698761D01*
X154496644Y-52698761D01*
X154654754Y-52698761D01*
X154654756Y-52698761D01*
X154807483Y-52657838D01*
X154944415Y-52578781D01*
X155056219Y-52466977D01*
X155135276Y-52330045D01*
X155176199Y-52177318D01*
X155176199Y-52174000D01*
X155176990Y-52171304D01*
X155177260Y-52169258D01*
X155177579Y-52169300D01*
X155195884Y-52106961D01*
X155248688Y-52061206D01*
X155300199Y-52050000D01*
X155958432Y-52050000D01*
X156025471Y-52069685D01*
X156050281Y-52090695D01*
X156266508Y-52329099D01*
X156296966Y-52391981D01*
X156294434Y-52444495D01*
X156274500Y-52518892D01*
X156274500Y-52677010D01*
X156315423Y-52829737D01*
X156315426Y-52829744D01*
X156394475Y-52966663D01*
X156394479Y-52966668D01*
X156394480Y-52966670D01*
X156506284Y-53078474D01*
X156506286Y-53078475D01*
X156506290Y-53078478D01*
X156643209Y-53157527D01*
X156643216Y-53157531D01*
X156795943Y-53198454D01*
X156795945Y-53198454D01*
X156954053Y-53198454D01*
X156954057Y-53198454D01*
X156962158Y-53196283D01*
X157032004Y-53197943D01*
X157086100Y-53232751D01*
X159800000Y-56225000D01*
X162050000Y-56225000D01*
X162050000Y-58500000D01*
X162030217Y-58499873D01*
X162030218Y-58499873D01*
X162030216Y-58499872D01*
X161799268Y-58498396D01*
X161732356Y-58478284D01*
X161686940Y-58425188D01*
X161677438Y-58355968D01*
X161706869Y-58292599D01*
X161713292Y-58286590D01*
X161712969Y-58286267D01*
X161718716Y-58280520D01*
X161830520Y-58168716D01*
X161909577Y-58031784D01*
X161950500Y-57879057D01*
X161950500Y-57720943D01*
X161909577Y-57568216D01*
X161878040Y-57513592D01*
X161830524Y-57431290D01*
X161830518Y-57431282D01*
X161718717Y-57319481D01*
X161718709Y-57319475D01*
X161581790Y-57240426D01*
X161581786Y-57240424D01*
X161581784Y-57240423D01*
X161429057Y-57199500D01*
X161270943Y-57199500D01*
X161118216Y-57240423D01*
X161118209Y-57240426D01*
X160981290Y-57319475D01*
X160981282Y-57319481D01*
X160869481Y-57431282D01*
X160869475Y-57431290D01*
X160790426Y-57568209D01*
X160790423Y-57568216D01*
X160749500Y-57720943D01*
X160749500Y-57879056D01*
X160790423Y-58031783D01*
X160790426Y-58031790D01*
X160869475Y-58168709D01*
X160869481Y-58168717D01*
X160981693Y-58280929D01*
X161015178Y-58342252D01*
X161010194Y-58411944D01*
X160968322Y-58467877D01*
X160902858Y-58492294D01*
X160893220Y-58492607D01*
X154225002Y-58449999D01*
X154224999Y-58450000D01*
X151401576Y-60609087D01*
X151336365Y-60634174D01*
X151267944Y-60620022D01*
X151218034Y-60571126D01*
X151203313Y-60526770D01*
X151202546Y-60520945D01*
X151202546Y-60520943D01*
X151161623Y-60368216D01*
X151089455Y-60243216D01*
X151082570Y-60231290D01*
X151082564Y-60231282D01*
X150970763Y-60119481D01*
X150970755Y-60119475D01*
X150833836Y-60040426D01*
X150833832Y-60040424D01*
X150833830Y-60040423D01*
X150681103Y-59999500D01*
X150522989Y-59999500D01*
X150370262Y-60040423D01*
X150370255Y-60040426D01*
X150233336Y-60119475D01*
X150233328Y-60119481D01*
X150121527Y-60231282D01*
X150121521Y-60231290D01*
X150042472Y-60368209D01*
X150042469Y-60368216D01*
X150001546Y-60520943D01*
X150001546Y-60679057D01*
X150008976Y-60706784D01*
X150042469Y-60831783D01*
X150042472Y-60831790D01*
X150121521Y-60968709D01*
X150121525Y-60968714D01*
X150121526Y-60968716D01*
X150233330Y-61080520D01*
X150341713Y-61143094D01*
X150389929Y-61193661D01*
X150403153Y-61262268D01*
X150377185Y-61327133D01*
X150320271Y-61367662D01*
X150279182Y-61374481D01*
X144698468Y-61350529D01*
X144631513Y-61330557D01*
X144585986Y-61277557D01*
X144575000Y-61226530D01*
X144575000Y-59220943D01*
X149124500Y-59220943D01*
X149124500Y-59379057D01*
X149137898Y-59429057D01*
X149165423Y-59531783D01*
X149165426Y-59531790D01*
X149244475Y-59668709D01*
X149244479Y-59668714D01*
X149244480Y-59668716D01*
X149356284Y-59780520D01*
X149356286Y-59780521D01*
X149356290Y-59780524D01*
X149442887Y-59830520D01*
X149493216Y-59859577D01*
X149645943Y-59900500D01*
X149645945Y-59900500D01*
X149804055Y-59900500D01*
X149804057Y-59900500D01*
X149956784Y-59859577D01*
X150093716Y-59780520D01*
X150205520Y-59668716D01*
X150284577Y-59531784D01*
X150325500Y-59379057D01*
X150325500Y-59220943D01*
X150284577Y-59068216D01*
X150284573Y-59068209D01*
X150205524Y-58931290D01*
X150205518Y-58931282D01*
X150093717Y-58819481D01*
X150093709Y-58819475D01*
X149956790Y-58740426D01*
X149956786Y-58740424D01*
X149956784Y-58740423D01*
X149804057Y-58699500D01*
X149645943Y-58699500D01*
X149493216Y-58740423D01*
X149493209Y-58740426D01*
X149356290Y-58819475D01*
X149356282Y-58819481D01*
X149244481Y-58931282D01*
X149244475Y-58931290D01*
X149165426Y-59068209D01*
X149165423Y-59068216D01*
X149124500Y-59220943D01*
X144575000Y-59220943D01*
X144575000Y-57618812D01*
X144594685Y-57551773D01*
X144633389Y-57513592D01*
X146700000Y-56225000D01*
X146726429Y-52815526D01*
X146746632Y-52748644D01*
X146799789Y-52703300D01*
X146869023Y-52693893D01*
X146882506Y-52696712D01*
X146896642Y-52700500D01*
X146896645Y-52700500D01*
X147054754Y-52700500D01*
X147054756Y-52700500D01*
X147207483Y-52659577D01*
X147344415Y-52580520D01*
X147456219Y-52468716D01*
X147535276Y-52331784D01*
X147576199Y-52179057D01*
X147576199Y-52174000D01*
X147578749Y-52165314D01*
X147577461Y-52156353D01*
X147588439Y-52132312D01*
X147595884Y-52106961D01*
X147602724Y-52101033D01*
X147606486Y-52092797D01*
X147628720Y-52078507D01*
X147648688Y-52061206D01*
X147659202Y-52058918D01*
X147665264Y-52055023D01*
X147700199Y-52050000D01*
X147751199Y-52050000D01*
X147818238Y-52069685D01*
G37*
%TD.AperFunction*%
%TD*%
%TA.AperFunction,Conductor*%
%TO.N,+15V*%
G36*
X187263460Y-63605023D02*
G01*
X187276528Y-63608860D01*
X187288325Y-63616441D01*
X187302003Y-63619547D01*
X187317137Y-63634957D01*
X187335306Y-63646634D01*
X187341132Y-63659390D01*
X187350959Y-63669397D01*
X187355358Y-63690541D01*
X187364332Y-63710189D01*
X187362621Y-63725445D01*
X187365193Y-63737801D01*
X187357379Y-63772220D01*
X187354424Y-63779929D01*
X187341742Y-63804436D01*
X187269624Y-63912369D01*
X187269621Y-63912374D01*
X187214303Y-64045926D01*
X187214297Y-64045953D01*
X187186100Y-64187709D01*
X187186100Y-64187712D01*
X187186100Y-64332287D01*
X187186100Y-64332289D01*
X187186099Y-64332289D01*
X187214297Y-64474045D01*
X187214303Y-64474072D01*
X187269620Y-64607622D01*
X187269624Y-64607629D01*
X187349942Y-64727833D01*
X187349945Y-64727837D01*
X187349946Y-64727838D01*
X187349949Y-64727842D01*
X187452156Y-64830049D01*
X187452162Y-64830054D01*
X187452166Y-64830057D01*
X187572368Y-64910374D01*
X187705929Y-64965697D01*
X187847712Y-64993899D01*
X187847716Y-64993900D01*
X187847717Y-64993900D01*
X187992284Y-64993900D01*
X187992285Y-64993899D01*
X188134071Y-64965697D01*
X188267632Y-64910374D01*
X188387834Y-64830057D01*
X188490057Y-64727834D01*
X188570374Y-64607632D01*
X188625697Y-64474071D01*
X188653900Y-64332283D01*
X188653900Y-64187717D01*
X188625697Y-64045929D01*
X188598035Y-63979148D01*
X188570375Y-63912369D01*
X188497881Y-63803875D01*
X188495608Y-63799854D01*
X188494583Y-63795457D01*
X188485216Y-63775878D01*
X188481146Y-63762880D01*
X188480660Y-63735720D01*
X188479749Y-63731808D01*
X188480550Y-63729557D01*
X188479898Y-63693022D01*
X188516617Y-63633579D01*
X188572050Y-63604899D01*
X188575594Y-63604095D01*
X188580107Y-63603072D01*
X188607535Y-63600000D01*
X190338902Y-63600000D01*
X190373837Y-63605023D01*
X190405645Y-63614363D01*
X190439594Y-63630234D01*
X190445814Y-63634390D01*
X190445827Y-63634397D01*
X190504822Y-63658833D01*
X190591503Y-63694737D01*
X190591505Y-63694737D01*
X190591510Y-63694739D01*
X190669185Y-63710189D01*
X190746153Y-63725499D01*
X190746156Y-63725500D01*
X190746158Y-63725500D01*
X190903844Y-63725500D01*
X190903845Y-63725499D01*
X191058497Y-63694737D01*
X191204179Y-63634394D01*
X191209554Y-63630802D01*
X191241391Y-63615571D01*
X191273029Y-63605665D01*
X191310080Y-63600000D01*
X193717132Y-63600000D01*
X193752067Y-63605023D01*
X193782149Y-63613856D01*
X193819729Y-63632247D01*
X194987421Y-64474071D01*
X195669353Y-64965697D01*
X196933895Y-65877343D01*
X196956206Y-65898865D01*
X196959292Y-65901842D01*
X196972839Y-65919277D01*
X196996778Y-65972394D01*
X196997669Y-65977122D01*
X196998299Y-65983962D01*
X196998428Y-65984289D01*
X196998360Y-65984626D01*
X196999814Y-66000391D01*
X196990623Y-69740790D01*
X196985514Y-69775712D01*
X196982301Y-69786556D01*
X196972617Y-69801543D01*
X196967543Y-69818652D01*
X196954049Y-69830279D01*
X196944383Y-69845241D01*
X196928132Y-69852614D01*
X196914615Y-69864263D01*
X196896977Y-69866749D01*
X196880756Y-69874110D01*
X196863097Y-69871526D01*
X196845430Y-69874018D01*
X196811655Y-69864001D01*
X196811623Y-69863997D01*
X196810587Y-69863521D01*
X196809431Y-69862989D01*
X196758149Y-69819229D01*
X196757763Y-69818652D01*
X196751790Y-69809712D01*
X196751786Y-69809707D01*
X196751784Y-69809705D01*
X196751778Y-69809698D01*
X196640297Y-69698217D01*
X196640291Y-69698212D01*
X196640290Y-69698211D01*
X196509191Y-69610613D01*
X196509190Y-69610612D01*
X196509185Y-69610609D01*
X196509172Y-69610602D01*
X196509165Y-69610598D01*
X196363502Y-69550264D01*
X196363471Y-69550257D01*
X196208847Y-69519500D01*
X196208845Y-69519500D01*
X196208842Y-69519500D01*
X196051158Y-69519500D01*
X196051155Y-69519500D01*
X196051153Y-69519500D01*
X195896527Y-69550257D01*
X195896496Y-69550264D01*
X195750833Y-69610598D01*
X195750824Y-69610603D01*
X195750807Y-69610613D01*
X195619708Y-69698211D01*
X195619707Y-69698212D01*
X195619701Y-69698217D01*
X195508217Y-69809701D01*
X195508212Y-69809707D01*
X195508211Y-69809708D01*
X195420613Y-69940807D01*
X195420603Y-69940824D01*
X195420598Y-69940833D01*
X195360264Y-70086496D01*
X195360257Y-70086527D01*
X195329500Y-70241150D01*
X195329500Y-70241153D01*
X195329500Y-70398846D01*
X195329500Y-70398848D01*
X195329499Y-70398848D01*
X195360257Y-70553471D01*
X195360264Y-70553502D01*
X195420598Y-70699165D01*
X195420603Y-70699174D01*
X195420613Y-70699191D01*
X195508211Y-70830290D01*
X195508212Y-70830291D01*
X195508217Y-70830297D01*
X195619697Y-70941777D01*
X195619702Y-70941781D01*
X195619707Y-70941786D01*
X195619710Y-70941788D01*
X195619711Y-70941789D01*
X195630720Y-70949145D01*
X195642464Y-70956992D01*
X195642465Y-70956993D01*
X195642467Y-70956994D01*
X195668723Y-70980580D01*
X195677622Y-70991229D01*
X195705506Y-71055294D01*
X195694330Y-71124258D01*
X195692069Y-71128984D01*
X195649104Y-71178570D01*
X195619703Y-71198215D01*
X195508217Y-71309701D01*
X195508212Y-71309707D01*
X195508211Y-71309708D01*
X195420613Y-71440807D01*
X195420603Y-71440824D01*
X195420598Y-71440833D01*
X195360264Y-71586496D01*
X195360257Y-71586527D01*
X195329500Y-71741150D01*
X195329500Y-71741153D01*
X195329500Y-71898846D01*
X195329500Y-71898848D01*
X195329499Y-71898848D01*
X195360257Y-72053471D01*
X195360264Y-72053502D01*
X195420598Y-72199165D01*
X195420603Y-72199174D01*
X195420613Y-72199191D01*
X195508211Y-72330290D01*
X195508212Y-72330291D01*
X195508217Y-72330297D01*
X195619701Y-72441781D01*
X195619707Y-72441786D01*
X195619724Y-72441799D01*
X195701862Y-72496681D01*
X195701868Y-72496685D01*
X195728117Y-72520263D01*
X195737022Y-72530918D01*
X195764907Y-72594978D01*
X195753732Y-72663948D01*
X195753727Y-72663957D01*
X195751466Y-72668682D01*
X195708505Y-72718259D01*
X195618160Y-72778627D01*
X195618144Y-72778638D01*
X195618139Y-72778641D01*
X195618135Y-72778645D01*
X195618124Y-72778655D01*
X195506648Y-72890131D01*
X195506643Y-72890137D01*
X195506642Y-72890138D01*
X195419044Y-73021237D01*
X195419034Y-73021254D01*
X195419029Y-73021263D01*
X195358695Y-73166926D01*
X195358688Y-73166957D01*
X195327931Y-73321580D01*
X195327931Y-73321583D01*
X195327931Y-73479276D01*
X195327931Y-73479278D01*
X195327930Y-73479278D01*
X195358688Y-73633901D01*
X195358695Y-73633932D01*
X195419029Y-73779595D01*
X195419034Y-73779604D01*
X195419044Y-73779621D01*
X195506642Y-73910720D01*
X195506643Y-73910721D01*
X195506648Y-73910727D01*
X195618132Y-74022211D01*
X195618136Y-74022214D01*
X195618138Y-74022216D01*
X195618142Y-74022219D01*
X195675611Y-74060619D01*
X195675612Y-74060620D01*
X195675614Y-74060621D01*
X195701866Y-74084203D01*
X195710768Y-74094855D01*
X195738651Y-74158920D01*
X195727475Y-74227883D01*
X195725214Y-74232609D01*
X195682248Y-74282195D01*
X195620873Y-74323205D01*
X195620859Y-74323214D01*
X195509372Y-74434701D01*
X195509367Y-74434707D01*
X195509366Y-74434708D01*
X195421768Y-74565807D01*
X195421758Y-74565824D01*
X195421753Y-74565833D01*
X195361419Y-74711496D01*
X195361412Y-74711527D01*
X195330655Y-74866150D01*
X195330655Y-74866153D01*
X195330655Y-75023846D01*
X195330655Y-75023848D01*
X195330654Y-75023848D01*
X195361412Y-75178471D01*
X195361419Y-75178502D01*
X195421753Y-75324165D01*
X195421758Y-75324174D01*
X195421768Y-75324191D01*
X195509366Y-75455290D01*
X195509367Y-75455291D01*
X195509372Y-75455297D01*
X195620856Y-75566781D01*
X195620862Y-75566786D01*
X195620866Y-75566789D01*
X195738256Y-75645227D01*
X195764505Y-75668805D01*
X195773410Y-75679460D01*
X195801295Y-75743520D01*
X195790120Y-75812490D01*
X195790115Y-75812499D01*
X195787854Y-75817224D01*
X195744893Y-75866802D01*
X195623048Y-75948217D01*
X195511564Y-76059701D01*
X195511559Y-76059707D01*
X195511558Y-76059708D01*
X195423960Y-76190807D01*
X195423950Y-76190824D01*
X195423945Y-76190833D01*
X195363611Y-76336496D01*
X195363604Y-76336527D01*
X195332847Y-76491150D01*
X195332847Y-76491153D01*
X195332847Y-76491158D01*
X195332847Y-76648842D01*
X195332847Y-76648844D01*
X195332846Y-76648844D01*
X195337639Y-76672940D01*
X195338174Y-76681024D01*
X195337162Y-76685553D01*
X195337951Y-76700249D01*
X195336558Y-76715817D01*
X195310977Y-76780836D01*
X195310972Y-76780842D01*
X195306382Y-76786750D01*
X195256660Y-76824923D01*
X193947199Y-77377353D01*
X193877780Y-77385275D01*
X193815098Y-77354408D01*
X193779054Y-77294553D01*
X193775000Y-77263104D01*
X193775000Y-65975000D01*
X192032350Y-65980927D01*
X192022412Y-65980562D01*
X192012512Y-65979800D01*
X192002635Y-65978639D01*
X191961363Y-65972102D01*
X191961360Y-65972102D01*
X191758640Y-65972102D01*
X191758636Y-65972102D01*
X191758631Y-65972102D01*
X191709831Y-65979831D01*
X191700379Y-65980958D01*
X191690897Y-65981721D01*
X191681373Y-65982120D01*
X189095423Y-65990916D01*
X189085472Y-65990550D01*
X189075572Y-65989787D01*
X189065704Y-65988627D01*
X188961366Y-65972102D01*
X188961361Y-65972102D01*
X188758641Y-65972102D01*
X188758636Y-65972102D01*
X188643992Y-65990259D01*
X188634540Y-65991387D01*
X188628437Y-65991878D01*
X188625053Y-65992150D01*
X188615534Y-65992548D01*
X186425000Y-65999998D01*
X186423254Y-66001750D01*
X186421939Y-66013519D01*
X185250813Y-71185993D01*
X185250811Y-71185995D01*
X185250812Y-71185997D01*
X185238198Y-71218960D01*
X185230590Y-71232616D01*
X185180778Y-71281594D01*
X185173803Y-71285327D01*
X185115291Y-71300000D01*
X182641830Y-71300000D01*
X182606889Y-71294975D01*
X182591890Y-71290570D01*
X182576902Y-71280940D01*
X182559824Y-71275932D01*
X182533144Y-71252827D01*
X182531957Y-71251458D01*
X182504477Y-71196583D01*
X182502832Y-71189021D01*
X182500000Y-71162668D01*
X182500000Y-69250097D01*
X182485586Y-65992532D01*
X182480798Y-64910374D01*
X182475551Y-63724548D01*
X182494939Y-63657423D01*
X182547540Y-63611435D01*
X182599550Y-63600000D01*
X187228526Y-63600000D01*
X187263460Y-63605023D01*
G37*
%TD.AperFunction*%
%TD*%
%TA.AperFunction,Conductor*%
%TO.N,+5VA*%
G36*
X164318039Y-55544685D02*
G01*
X164363794Y-55597489D01*
X164375000Y-55649000D01*
X164375000Y-57950000D01*
X165651000Y-57950000D01*
X165718039Y-57969685D01*
X165763794Y-58022489D01*
X165775000Y-58074000D01*
X165775000Y-62551000D01*
X165755315Y-62618039D01*
X165702511Y-62663794D01*
X165651000Y-62675000D01*
X162149000Y-62675000D01*
X162081961Y-62655315D01*
X162036206Y-62602511D01*
X162025000Y-62551000D01*
X162025000Y-59100503D01*
X162025005Y-59099425D01*
X162030217Y-58499873D01*
X162050000Y-58500000D01*
X162050000Y-56225000D01*
X162050000Y-55525000D01*
X163079061Y-55525000D01*
X163079062Y-55525000D01*
X164251000Y-55525000D01*
X164318039Y-55544685D01*
G37*
%TD.AperFunction*%
%TD*%
%TA.AperFunction,Conductor*%
%TO.N,+15V*%
G36*
X184543039Y-44094685D02*
G01*
X184588794Y-44147489D01*
X184600000Y-44199000D01*
X184600000Y-48197742D01*
X184588569Y-48249744D01*
X182475000Y-52825000D01*
X182475000Y-56055244D01*
X180971030Y-56046090D01*
X180971030Y-51226457D01*
X180981829Y-51175846D01*
X183049999Y-46550003D01*
X183050000Y-46550000D01*
X183050000Y-44199000D01*
X183069685Y-44131961D01*
X183122489Y-44086206D01*
X183174000Y-44075000D01*
X184476000Y-44075000D01*
X184543039Y-44094685D01*
G37*
%TD.AperFunction*%
%TD*%
%TA.AperFunction,Conductor*%
%TO.N,+5V*%
G36*
X179693039Y-44369685D02*
G01*
X179738794Y-44422489D01*
X179750000Y-44474000D01*
X179750000Y-49351000D01*
X179730315Y-49418039D01*
X179677511Y-49463794D01*
X179626000Y-49475000D01*
X175874999Y-49475000D01*
X170564123Y-55838263D01*
X170450000Y-55975000D01*
X170450000Y-57950000D01*
X168825000Y-57950000D01*
X168825000Y-55928682D01*
X168844685Y-55861643D01*
X168864141Y-55838267D01*
X170450000Y-54350000D01*
X176362811Y-47219846D01*
X176420757Y-47180808D01*
X176458261Y-47175000D01*
X178275000Y-47175000D01*
X178275000Y-44474000D01*
X178294685Y-44406961D01*
X178347489Y-44361206D01*
X178399000Y-44350000D01*
X179626000Y-44350000D01*
X179693039Y-44369685D01*
G37*
%TD.AperFunction*%
%TD*%
%TA.AperFunction,Conductor*%
%TO.N,+5VA*%
G36*
X169718039Y-48844685D02*
G01*
X169763794Y-48897489D01*
X169775000Y-48949000D01*
X169775000Y-52476000D01*
X169755315Y-52543039D01*
X169702511Y-52588794D01*
X169651000Y-52600000D01*
X166954061Y-52600000D01*
X163079061Y-55525000D01*
X162050000Y-55525000D01*
X162050000Y-54616111D01*
X162069685Y-54549072D01*
X162104890Y-54513156D01*
X165700000Y-52100000D01*
X165700000Y-49581111D01*
X165703848Y-49568005D01*
X165702916Y-49554379D01*
X165713499Y-49535138D01*
X165719685Y-49514072D01*
X165730721Y-49503828D01*
X165736590Y-49493159D01*
X165756505Y-49479896D01*
X165764910Y-49472096D01*
X165770588Y-49469018D01*
X165854179Y-49434394D01*
X165938884Y-49377795D01*
X165943922Y-49375065D01*
X165972702Y-49368897D01*
X166000798Y-49360100D01*
X166006479Y-49361658D01*
X166012240Y-49360424D01*
X166039788Y-49370796D01*
X166068178Y-49378584D01*
X166071903Y-49380978D01*
X166145814Y-49430364D01*
X166145827Y-49430371D01*
X166246562Y-49472096D01*
X166291503Y-49490711D01*
X166408946Y-49514072D01*
X166446153Y-49521473D01*
X166446156Y-49521474D01*
X166446158Y-49521474D01*
X166603844Y-49521474D01*
X166603845Y-49521473D01*
X166758497Y-49490711D01*
X166899232Y-49432417D01*
X166904172Y-49430371D01*
X166904172Y-49430370D01*
X166904179Y-49430368D01*
X166992078Y-49371635D01*
X167058754Y-49350758D01*
X167126134Y-49369242D01*
X167129859Y-49371636D01*
X167220814Y-49432410D01*
X167220827Y-49432417D01*
X167366498Y-49492755D01*
X167366503Y-49492757D01*
X167510867Y-49521473D01*
X167521153Y-49523519D01*
X167521156Y-49523520D01*
X167521158Y-49523520D01*
X167678844Y-49523520D01*
X167678845Y-49523519D01*
X167833497Y-49492757D01*
X167979179Y-49432414D01*
X168110289Y-49344809D01*
X168221789Y-49233309D01*
X168309394Y-49102199D01*
X168369737Y-48956517D01*
X168371232Y-48949000D01*
X168376045Y-48924808D01*
X168408431Y-48862897D01*
X168469147Y-48828323D01*
X168497662Y-48825000D01*
X169651000Y-48825000D01*
X169718039Y-48844685D01*
G37*
%TD.AperFunction*%
%TD*%
M02*
