M48
; DRILL file KiCad 10.0.3 date 2026-08-08T18:02:05
; FORMAT={-:-/ absolute / metric / decimal}
; #@! TF.CreationDate,2026-08-08T18:02:05-05:00
; #@! TF.GenerationSoftware,Kicad,Pcbnew,10.0.3
; #@! TF.FileFunction,Plated,1,4,PTH
FMAT,2
METRIC
; #@! TA.AperFunction,Plated,PTH,ViaDrill
T1C0.250
; #@! TA.AperFunction,Plated,PTH,ViaDrill
T2C0.300
; #@! TA.AperFunction,Plated,PTH,ComponentDrill
T3C0.700
; #@! TA.AperFunction,Plated,PTH,ComponentDrill
T4C1.067
; #@! TA.AperFunction,Plated,PTH,ComponentDrill
T5C1.100
; #@! TA.AperFunction,Plated,PTH,ComponentDrill
T6C1.600
%
G90
G05
T1
X164.96Y-55.8
X164.975Y-55.075
T2
X124.024Y-58.075
X124.024Y-59.575
X124.025Y-49.0
X124.025Y-50.5
X124.026Y-67.0
X124.026Y-68.5
X124.03Y-64.125
X124.03Y-65.625
X124.03Y-55.05
X124.03Y-56.55
X124.032Y-61.025
X124.032Y-62.525
X124.032Y-51.95
X124.032Y-53.45
X124.045Y-81.525
X124.045Y-83.025
X124.051Y-87.575
X124.051Y-89.075
X124.053Y-84.475
X124.053Y-85.975
X125.524Y-58.075
X125.524Y-59.575
X125.525Y-49.0
X125.525Y-50.5
X125.526Y-67.0
X125.526Y-68.5
X125.53Y-64.125
X125.53Y-65.625
X125.53Y-55.05
X125.53Y-56.55
X125.532Y-61.025
X125.532Y-62.525
X125.532Y-51.95
X125.532Y-53.45
X125.545Y-81.525
X125.545Y-83.025
X125.551Y-87.575
X125.551Y-89.075
X125.553Y-84.475
X125.553Y-85.975
X127.025Y-49.0
X127.025Y-50.5
X127.03Y-55.05
X127.03Y-56.55
X127.032Y-51.95
X127.032Y-53.45
X127.032Y-81.525
X127.032Y-83.025
X127.038Y-87.575
X127.038Y-89.075
X127.04Y-84.475
X127.04Y-85.975
X128.525Y-49.0
X128.525Y-50.5
X128.532Y-51.95
X128.532Y-53.45
X128.532Y-81.525
X128.532Y-83.025
X128.538Y-87.575
X128.538Y-89.075
X128.54Y-84.475
X128.54Y-85.975
X130.025Y-49.0
X130.025Y-50.5
X130.032Y-51.95
X130.032Y-53.45
X130.07Y-81.55
X130.07Y-83.05
X130.076Y-87.6
X130.076Y-89.1
X130.078Y-84.5
X130.078Y-86.0
X131.5Y-60.65
X131.525Y-63.575
X131.57Y-81.55
X131.57Y-83.05
X131.575Y-66.6
X131.576Y-87.6
X131.576Y-89.1
X131.578Y-84.5
X131.578Y-86.0
X131.595Y-92.575
X131.595Y-94.075
X131.597Y-95.55
X131.597Y-97.05
X131.597Y-90.975
X131.625Y-48.998
X131.625Y-50.498
X131.632Y-51.948
X132.715Y-69.65
X132.715Y-71.15
X132.72Y-80.4
X132.72Y-81.9
X132.721Y-75.7
X132.721Y-77.2
X132.722Y-78.8
X132.723Y-72.6
X132.723Y-74.1
X132.725Y-60.675
X132.725Y-62.175
X132.73Y-66.725
X132.73Y-68.225
X132.732Y-63.625
X132.732Y-65.125
X133.125Y-48.998
X133.125Y-50.498
X133.131Y-51.95
X133.25Y-97.049
X133.775Y-66.575
X133.825Y-60.6
X133.875Y-63.6
X134.625Y-48.998
X134.625Y-50.498
X134.631Y-51.95
X134.75Y-97.049
X136.125Y-48.998
X136.125Y-50.498
X136.131Y-51.95
X136.297Y-97.047
X137.585Y-69.647
X137.585Y-71.147
X137.589Y-80.397
X137.59Y-75.697
X137.59Y-77.197
X137.591Y-78.797
X137.592Y-72.597
X137.592Y-74.097
X137.6Y-68.222
X137.625Y-48.998
X137.625Y-50.498
X137.631Y-51.95
X137.95Y-97.046
X139.375Y-48.999
X139.375Y-50.499
X139.45Y-97.046
X140.25Y-59.575
X140.25Y-61.075
X140.252Y-62.675
X140.252Y-64.175
X140.252Y-65.675
X140.262Y-69.45
X140.262Y-70.95
X140.875Y-48.999
X140.875Y-50.499
X141.75Y-59.575
X141.75Y-61.075
X141.752Y-62.675
X141.752Y-64.175
X141.752Y-65.675
X141.756Y-72.45
X141.762Y-69.45
X141.762Y-70.95
X142.475Y-48.997
X142.475Y-50.497
X143.2Y-61.068
X143.202Y-59.569
X143.202Y-62.668
X143.202Y-64.168
X143.202Y-65.668
X143.206Y-72.443
X143.212Y-69.443
X143.212Y-70.943
X143.975Y-48.997
X143.975Y-50.497
X144.875Y-62.679
X144.875Y-64.179
X144.875Y-65.679
X144.879Y-72.454
X144.885Y-69.454
X144.885Y-70.954
X144.925Y-85.611
X144.925Y-87.111
X144.935Y-90.15
X144.937Y-88.686
X144.946Y-91.725
X145.475Y-48.997
X145.475Y-50.497
X145.6Y-94.023
X145.675Y-52.875
X146.375Y-62.679
X146.375Y-64.179
X146.375Y-65.679
X146.379Y-72.454
X146.385Y-69.454
X146.385Y-70.954
X146.425Y-85.611
X146.425Y-87.111
X146.435Y-90.15
X146.437Y-88.686
X146.446Y-91.725
X146.675Y-94.025
X146.975Y-48.997
X146.975Y-50.497
X146.976Y-52.1
X147.0Y-60.6
X147.825Y-62.672
X147.825Y-64.172
X147.825Y-65.672
X147.829Y-72.447
X147.835Y-69.447
X147.835Y-70.947
X147.925Y-85.611
X147.925Y-87.111
X147.935Y-90.15
X147.937Y-88.686
X147.946Y-91.725
X148.475Y-48.997
X148.475Y-50.497
X148.476Y-52.1
X149.325Y-85.603
X149.325Y-88.688
X149.335Y-91.726
X149.337Y-87.178
X149.346Y-90.217
X149.425Y-62.685
X149.425Y-64.185
X149.425Y-65.685
X149.429Y-72.46
X149.435Y-69.46
X149.435Y-70.96
X149.725Y-59.3
X150.07Y-46.1
X150.07Y-47.6
X150.075Y-48.995
X150.075Y-50.495
X150.076Y-52.098
X150.078Y-42.9
X150.078Y-44.4
X150.602Y-60.6
X150.825Y-84.103
X150.825Y-85.603
X150.825Y-88.688
X150.835Y-91.726
X150.837Y-87.178
X150.846Y-90.217
X151.125Y-72.46
X151.131Y-69.46
X151.131Y-70.96
X151.57Y-46.1
X151.57Y-47.6
X151.575Y-48.995
X151.575Y-50.495
X151.576Y-52.098
X151.578Y-42.9
X151.578Y-44.4
X152.325Y-84.103
X152.325Y-85.603
X152.325Y-88.688
X152.337Y-87.178
X152.346Y-90.217
X153.07Y-46.1
X153.07Y-47.6
X153.075Y-48.995
X153.075Y-50.495
X153.076Y-52.098
X153.078Y-42.9
X153.078Y-44.4
X153.45Y-93.225
X153.925Y-84.1
X153.925Y-85.6
X153.937Y-87.175
X154.4Y-59.35
X154.525Y-93.227
X154.57Y-46.1
X154.57Y-47.6
X154.575Y-48.995
X154.575Y-50.495
X154.576Y-52.098
X154.578Y-42.9
X154.578Y-44.4
X155.425Y-84.1
X155.425Y-85.6
X155.437Y-87.175
X155.525Y-52.65
X156.15Y-46.102
X156.15Y-47.602
X156.155Y-48.997
X156.158Y-42.902
X156.158Y-44.402
X156.875Y-52.598
X156.925Y-84.1
X156.925Y-85.6
X156.937Y-87.175
X157.05Y-62.85
X157.65Y-46.102
X157.65Y-47.602
X157.655Y-48.997
X157.658Y-42.902
X157.658Y-44.402
X157.95Y-52.6
X158.425Y-84.1
X158.425Y-85.6
X158.437Y-87.175
X160.075Y-93.22
X160.15Y-60.475
X160.152Y-59.4
X160.25Y-62.475
X160.252Y-61.4
X160.889Y-69.9
X160.889Y-71.4
X160.889Y-72.9
X160.889Y-74.4
X160.896Y-75.825
X160.896Y-77.325
X160.896Y-78.825
X160.896Y-80.325
X160.898Y-81.925
X160.898Y-83.425
X160.898Y-84.925
X160.898Y-86.425
X160.9Y-63.8
X160.9Y-65.3
X160.9Y-66.8
X160.9Y-68.3
X161.15Y-93.222
X161.35Y-57.8
X161.642Y-46.101
X161.65Y-42.901
X161.65Y-44.401
X161.651Y-49.35
X161.659Y-47.65
X162.389Y-69.9
X162.389Y-71.4
X162.389Y-72.9
X162.389Y-74.4
X162.396Y-75.825
X162.396Y-77.325
X162.396Y-78.825
X162.396Y-80.325
X162.398Y-81.925
X162.398Y-83.425
X162.398Y-84.925
X162.398Y-86.425
X162.4Y-63.8
X162.4Y-65.3
X162.4Y-66.8
X162.4Y-68.3
X163.025Y-58.7
X163.142Y-46.101
X163.15Y-42.901
X163.15Y-44.401
X163.151Y-49.35
X163.159Y-47.65
X163.9Y-58.7
X163.9Y-75.825
X163.9Y-77.325
X163.9Y-78.825
X164.4Y-48.723
X164.722Y-46.102
X164.73Y-42.902
X164.73Y-44.402
X165.325Y-75.819
X165.325Y-77.319
X165.325Y-78.819
X165.475Y-48.725
X166.222Y-46.102
X166.23Y-42.902
X166.23Y-44.402
X166.525Y-48.721
X167.25Y-66.05
X167.6Y-48.723
X167.775Y-63.623
X167.967Y-46.099
X167.975Y-42.899
X167.975Y-44.399
X168.271Y-59.55
X168.275Y-58.35
X168.75Y-66.05
X168.85Y-63.625
X169.025Y-50.35
X169.394Y-91.481
X169.396Y-88.306
X169.4Y-86.95
X169.547Y-46.1
X169.555Y-42.9
X169.555Y-44.4
X170.021Y-59.554
X170.025Y-58.354
X170.025Y-63.631
X170.25Y-66.05
X170.3Y-75.477
X170.3Y-76.977
X170.444Y-91.474
X170.446Y-88.299
X170.45Y-86.943
X171.042Y-49.352
X171.047Y-46.1
X171.05Y-47.652
X171.055Y-42.9
X171.055Y-44.4
X171.09Y-95.02
X171.1Y-63.633
X171.494Y-91.475
X171.496Y-88.3
X171.5Y-86.944
X172.075Y-75.477
X172.075Y-76.977
X172.081Y-78.527
X172.319Y-87.425
X172.325Y-89.525
X172.326Y-88.475
X172.375Y-96.173
X172.542Y-49.352
X172.55Y-47.652
X173.26Y-86.36
X173.45Y-96.175
X173.7Y-75.45
X173.7Y-76.95
X173.706Y-78.5
X173.95Y-42.99
X174.12Y-86.36
X174.45Y-96.173
X175.17Y-45.97
X175.35Y-75.453
X175.35Y-76.953
X175.356Y-78.503
X175.525Y-96.175
X176.859Y-67.5
X176.859Y-69.0
X176.875Y-65.975
X177.35Y-62.325
X177.35Y-63.825
X177.8Y-88.398
X178.244Y-92.8
X178.244Y-94.3
X178.25Y-95.85
X178.25Y-97.35
X178.85Y-62.325
X178.85Y-63.825
X178.875Y-88.4
X179.025Y-46.075
X179.675Y-88.398
X179.744Y-92.8
X179.744Y-94.3
X179.75Y-95.85
X179.75Y-97.35
X180.375Y-62.341
X180.375Y-63.841
X180.75Y-88.4
X181.194Y-92.793
X181.194Y-94.293
X181.2Y-95.843
X181.2Y-97.343
X181.5Y-46.075
X181.7Y-57.975
X182.694Y-92.793
X182.694Y-94.293
X182.7Y-95.843
X182.7Y-97.343
X182.975Y-57.898
X183.225Y-86.825
X183.23Y-87.775
X183.825Y-46.075
X184.05Y-57.9
X184.188Y-70.5
X184.191Y-68.25
X184.2Y-65.625
X184.294Y-92.795
X184.294Y-94.295
X184.3Y-95.845
X184.3Y-97.345
X185.723Y-52.31
X185.725Y-49.229
X185.725Y-50.729
X185.725Y-56.4
X185.725Y-57.9
X185.726Y-53.854
X185.735Y-46.375
X185.735Y-47.875
X185.794Y-92.795
X185.794Y-94.295
X185.8Y-95.845
X185.8Y-97.345
X187.223Y-52.31
X187.225Y-49.229
X187.225Y-50.729
X187.225Y-56.4
X187.225Y-57.9
X187.226Y-53.854
X187.235Y-46.375
X187.235Y-47.875
X187.398Y-88.05
X187.4Y-86.975
X187.423Y-90.5
X187.425Y-89.425
X187.55Y-92.8
X187.55Y-94.3
X187.556Y-95.85
X187.556Y-97.35
X188.748Y-52.325
X188.75Y-49.245
X188.75Y-50.745
X188.75Y-56.416
X188.75Y-57.916
X188.751Y-53.87
X188.76Y-46.391
X188.76Y-47.891
X189.2Y-92.804
X189.2Y-94.304
X189.206Y-95.854
X189.206Y-97.354
X190.248Y-52.325
X190.25Y-49.245
X190.25Y-50.745
X190.251Y-53.87
X190.825Y-62.925
X190.875Y-55.175
X191.275Y-81.232
X191.278Y-82.776
X191.278Y-85.982
X191.28Y-84.401
X191.281Y-87.526
X191.292Y-89.076
X191.698Y-52.307
X191.7Y-49.227
X191.7Y-50.727
X191.701Y-53.852
X192.575Y-82.771
X192.576Y-85.977
X192.577Y-84.396
X192.578Y-87.521
X192.589Y-89.071
X193.198Y-52.307
X193.2Y-49.227
X193.2Y-50.727
X193.201Y-53.852
X193.46Y-60.73
X193.49Y-62.7
X193.78Y-57.91
X193.85Y-55.27
X194.673Y-52.305
X194.675Y-49.225
X194.675Y-50.725
X194.676Y-53.85
X196.128Y-73.4
X196.13Y-70.32
X196.13Y-71.82
X196.131Y-74.945
X196.133Y-76.57
X196.17Y-81.23
X196.172Y-78.15
X196.172Y-79.65
X196.173Y-82.775
X196.173Y-85.98
X196.173Y-52.305
X196.175Y-84.4
X196.175Y-49.225
X196.175Y-50.725
X196.176Y-87.525
X196.176Y-53.85
X196.187Y-89.075
X196.19Y-90.62
T3
X173.18Y-55.1
X175.72Y-52.56
X178.26Y-55.1
T4
X188.86Y-67.26
X188.86Y-70.26
X188.86Y-73.26
X188.86Y-76.26
X191.86Y-67.26
X191.86Y-70.26
X191.86Y-73.26
X191.86Y-76.26
T5
X140.83Y-75.54
X140.83Y-80.62
X145.91Y-75.54
X145.91Y-80.62
X150.99Y-75.54
X150.99Y-80.62
X156.07Y-75.54
X156.07Y-80.62
T6
X125.68Y-70.41
X125.68Y-75.49
X128.22Y-72.95
X130.76Y-70.41
X130.76Y-75.49
X153.56Y-65.24
X153.56Y-70.32
X156.1Y-67.78
X158.64Y-65.24
X158.64Y-70.32
X165.09Y-68.19
X165.09Y-73.27
X167.63Y-70.73
X170.17Y-68.19
X170.17Y-73.27
X177.42Y-76.31
X177.42Y-81.39
X179.96Y-78.85
X182.5Y-76.31
X182.5Y-81.39
M30
