%TF.GenerationSoftware,KiCad,Pcbnew,10.0.3*%
%TF.CreationDate,2026-08-08T18:02:01-05:00*%
%TF.ProjectId,mts-demod,6d74732d-6465-46d6-9f64-2e6b69636164,rev?*%
%TF.SameCoordinates,Original*%
%TF.FileFunction,Copper,L2,Inr*%
%TF.FilePolarity,Positive*%
%FSLAX46Y46*%
G04 Gerber Fmt 4.6, Leading zero omitted, Abs format (unit mm)*
G04 Created by KiCad (PCBNEW 10.0.3) date 2026-08-08 18:02:01*
%MOMM*%
%LPD*%
G01*
G04 APERTURE LIST*
%TA.AperFunction,ComponentPad*%
%ADD10O,1.600000X1.200000*%
%TD*%
%TA.AperFunction,ComponentPad*%
%ADD11C,1.200000*%
%TD*%
%TA.AperFunction,ComponentPad*%
%ADD12C,2.108200*%
%TD*%
%TA.AperFunction,ComponentPad*%
%ADD13C,1.574800*%
%TD*%
%TA.AperFunction,ComponentPad*%
%ADD14C,1.800000*%
%TD*%
%TA.AperFunction,ViaPad*%
%ADD15C,0.600000*%
%TD*%
%TA.AperFunction,ViaPad*%
%ADD16C,0.450000*%
%TD*%
G04 APERTURE END LIST*
D10*
%TO.N,Net-(U1-D+)*%
%TO.C,U1*%
X178260000Y-55100000D03*
D11*
%TO.N,GND*%
X175720000Y-52560000D03*
%TO.N,FDS010_ANODE*%
X173180000Y-55100000D03*
%TD*%
D12*
%TO.N,ADC_CH0*%
%TO.C,J1*%
X128220000Y-72950000D03*
%TO.N,GND*%
X125680000Y-70410000D03*
X125680000Y-75490000D03*
X130760000Y-75490000D03*
X130760000Y-70410000D03*
%TD*%
D13*
%TO.N,+10V*%
%TO.C,J6*%
X191860000Y-67260002D03*
X191860000Y-70260001D03*
%TO.N,+15V*%
X191860000Y-73260000D03*
X191860000Y-76259999D03*
%TO.N,GND*%
X188860001Y-67260002D03*
X188860001Y-70260001D03*
%TO.N,+5V*%
X188860001Y-73260000D03*
X188860001Y-76259999D03*
%TD*%
D12*
%TO.N,ADC_CH1*%
%TO.C,J3*%
X179960000Y-78850000D03*
%TO.N,GND*%
X177420000Y-76310000D03*
X177420000Y-81390000D03*
X182500000Y-81390000D03*
X182500000Y-76310000D03*
%TD*%
%TO.N,ADC_CH1b*%
%TO.C,J4*%
X156100000Y-67780000D03*
%TO.N,GND*%
X153560000Y-65240000D03*
X153560000Y-70320000D03*
X158640000Y-70320000D03*
X158640000Y-65240000D03*
%TD*%
%TO.N,10MHz_DEMOD_IN*%
%TO.C,J2*%
X167630000Y-70730000D03*
%TO.N,GND*%
X170170000Y-73270000D03*
X170170000Y-68190000D03*
X165090000Y-68190000D03*
X165090000Y-73270000D03*
%TD*%
D14*
%TO.N,DEMOD_IF*%
%TO.C,J5*%
X140830000Y-80620000D03*
%TO.N,GND*%
X140830000Y-75540000D03*
X145910000Y-80620000D03*
X145910000Y-75540000D03*
X150990000Y-80620000D03*
X150990000Y-75540000D03*
X156070000Y-80620000D03*
%TO.N,ADC_CH1b*%
X156070000Y-75540000D03*
%TD*%
D15*
%TO.N,GND*%
X150075699Y-52098261D03*
X143975000Y-48996875D03*
X194676155Y-53850000D03*
X185793772Y-92794617D03*
X162397777Y-81925000D03*
X155425000Y-85600000D03*
X130075740Y-87600000D03*
X156150000Y-46101569D03*
X146425000Y-87111233D03*
X191700000Y-50726979D03*
X196133347Y-76570000D03*
X170446274Y-88298933D03*
X165325000Y-75818740D03*
X193780000Y-57910000D03*
X156155430Y-48996705D03*
X128539755Y-84475000D03*
X192578347Y-87521113D03*
X171496274Y-88300000D03*
X137631316Y-51950000D03*
X171047420Y-46100353D03*
X124029538Y-65625000D03*
X127037776Y-87575000D03*
X160897777Y-84925000D03*
X164730430Y-42902325D03*
X169555430Y-42900353D03*
X196186932Y-89075000D03*
X170300000Y-75477269D03*
X166222420Y-46102325D03*
X130070357Y-83050000D03*
X170300000Y-76977269D03*
X130077719Y-84500000D03*
X194675000Y-49225000D03*
X172325000Y-89525000D03*
X162400000Y-68300000D03*
X132732362Y-65125000D03*
X125552719Y-85975000D03*
X174120000Y-86360000D03*
X146975000Y-50496875D03*
X192575000Y-82771113D03*
X190251155Y-53869906D03*
X131625000Y-48997953D03*
X193460000Y-60730000D03*
X144885118Y-69453870D03*
X124030383Y-55050000D03*
X196175000Y-49225000D03*
X196176154Y-87525000D03*
X144879180Y-72453870D03*
X157658010Y-44401569D03*
X171100000Y-63632740D03*
X149425000Y-65685098D03*
X161150000Y-93221886D03*
X196171652Y-79650000D03*
X185800000Y-97344617D03*
X124026378Y-67000000D03*
X146379180Y-72453870D03*
X141752047Y-65675000D03*
X132725000Y-60675000D03*
X124032362Y-51950000D03*
X125550740Y-89075000D03*
X143202047Y-59568684D03*
X125545357Y-81525000D03*
X154525000Y-93227046D03*
X156158010Y-42901569D03*
X191698431Y-52307409D03*
X125532362Y-53450000D03*
X127032393Y-83025000D03*
X150069570Y-47600000D03*
X156875000Y-52597954D03*
X160897777Y-83425000D03*
X179743772Y-92800000D03*
X149334875Y-91726456D03*
X132719616Y-80400000D03*
X178850000Y-62325000D03*
X166525000Y-48720974D03*
X128532393Y-81525000D03*
X128537776Y-87575000D03*
X137600000Y-68221974D03*
X188759875Y-47890803D03*
X173700000Y-75450000D03*
X161651420Y-49350000D03*
X143200000Y-61067638D03*
X187422954Y-90500000D03*
X171493535Y-91475000D03*
X161650000Y-44400756D03*
X164730430Y-44402325D03*
X145475000Y-48996875D03*
X187225000Y-49229103D03*
X145475000Y-50496875D03*
X164722420Y-46102325D03*
X175350000Y-75453129D03*
X187556228Y-97350378D03*
X185723431Y-52309533D03*
X128525000Y-49000000D03*
X147925000Y-85611233D03*
X131596652Y-97050000D03*
X172319305Y-87425000D03*
X147934875Y-90150000D03*
X132715279Y-71150000D03*
X125532362Y-51950000D03*
X149336621Y-87178025D03*
X193200000Y-49226979D03*
X131632362Y-51947953D03*
X165325000Y-78818740D03*
X134625000Y-48997953D03*
X147825000Y-65671508D03*
X149429180Y-72460098D03*
X144885118Y-70953870D03*
X160889056Y-74400000D03*
X163150000Y-42900756D03*
X171055430Y-44400353D03*
X194675000Y-50725000D03*
X162395518Y-78825000D03*
X151575000Y-48995136D03*
X131575740Y-89100000D03*
X172375000Y-96172954D03*
X125529538Y-65625000D03*
X144925000Y-87111233D03*
X128539755Y-85975000D03*
X192575623Y-85976543D03*
X163141990Y-46100756D03*
X136131316Y-51950000D03*
X182693772Y-94292638D03*
X193200000Y-50726979D03*
X156150000Y-47601569D03*
X131570357Y-83050000D03*
X185734875Y-46375000D03*
X146975699Y-52100000D03*
X150069570Y-46100000D03*
X196170083Y-81230430D03*
X165475000Y-48725000D03*
X187425000Y-89425000D03*
X148475000Y-50496875D03*
X141756227Y-72450000D03*
X157658010Y-42901569D03*
X178243772Y-94300000D03*
X185725491Y-57900000D03*
X160150000Y-60475000D03*
X144875000Y-62678870D03*
X149425000Y-64185098D03*
X163900000Y-78824725D03*
X146375000Y-64178870D03*
X153075000Y-50495136D03*
X150825000Y-85603025D03*
X136125000Y-50497953D03*
X160897777Y-81925000D03*
X131595163Y-94075000D03*
X182700000Y-95842638D03*
X170250000Y-66050000D03*
X137589233Y-80396974D03*
X144875000Y-65678870D03*
X152325000Y-85603025D03*
X188750491Y-56415803D03*
X196131155Y-74945000D03*
X167975000Y-44398784D03*
X179750000Y-95850000D03*
X171055430Y-42900353D03*
X160900000Y-68300000D03*
X139375000Y-50498922D03*
X172075000Y-75477493D03*
X132721595Y-78800000D03*
X162389056Y-74400000D03*
X169555430Y-44400353D03*
X192577192Y-84396113D03*
X160250000Y-62475000D03*
X169400000Y-86950000D03*
X160897777Y-86425000D03*
X124026378Y-68500000D03*
X178875000Y-88400000D03*
X124052719Y-85975000D03*
X125545357Y-83025000D03*
X149435118Y-70960098D03*
X148475699Y-52100000D03*
X133825000Y-60600000D03*
X187550000Y-94300378D03*
X141750000Y-59575000D03*
X151130938Y-69460186D03*
X160900000Y-66800000D03*
X193198431Y-52307409D03*
X193850000Y-55270000D03*
X196175000Y-50725000D03*
X140252047Y-65675000D03*
X190250000Y-50744906D03*
X187223431Y-52309533D03*
D16*
X164975000Y-55075000D03*
D15*
X188750000Y-49244906D03*
X184050000Y-57900000D03*
X150836621Y-87178025D03*
X193201155Y-53851979D03*
X140262165Y-70950000D03*
X152336621Y-87178025D03*
X130070357Y-81550000D03*
X160895518Y-75825000D03*
X185725000Y-50729103D03*
X140250000Y-61075000D03*
X179743772Y-94300000D03*
X175350000Y-76953129D03*
X137592258Y-72596974D03*
X131597142Y-90975000D03*
X177800000Y-88397954D03*
X187400000Y-86975000D03*
X161641990Y-46100756D03*
X144875000Y-64178870D03*
X157950000Y-52600000D03*
X132720662Y-75700000D03*
X146675000Y-94025000D03*
X146385118Y-69453870D03*
X191701155Y-53851979D03*
X149435118Y-69460098D03*
X181193772Y-92792638D03*
X127032362Y-51950000D03*
X160889056Y-69900000D03*
X190250000Y-49244906D03*
X184293772Y-94294617D03*
X176859197Y-67500000D03*
X146375000Y-65678870D03*
X172081228Y-78527493D03*
X182700000Y-97342638D03*
X173700000Y-76950000D03*
X132722641Y-74100000D03*
X140875000Y-48998922D03*
X124031517Y-62525000D03*
X124050740Y-89075000D03*
X143202047Y-64167638D03*
X157655430Y-48996705D03*
X130032362Y-53450000D03*
X144934875Y-90150000D03*
X130077719Y-86000000D03*
X133131316Y-51950000D03*
X184300000Y-95844617D03*
X191278347Y-85981911D03*
X160900000Y-65300000D03*
X147946496Y-91725000D03*
X125524155Y-58075000D03*
X152325000Y-84103025D03*
X162397777Y-83425000D03*
X153069570Y-46100000D03*
X166230430Y-42902325D03*
X173706228Y-78500000D03*
X175170000Y-45970000D03*
X140252047Y-62675000D03*
X142475000Y-50496875D03*
X161650000Y-42900756D03*
X137590279Y-77196974D03*
X132720662Y-77200000D03*
X124029538Y-64125000D03*
X128525000Y-50500000D03*
X181200000Y-97342638D03*
X173260000Y-86360000D03*
X163150000Y-44400756D03*
X156925000Y-84100000D03*
X125552719Y-84475000D03*
X154575000Y-50495136D03*
X153936621Y-87175000D03*
X171090000Y-95020000D03*
X128532362Y-53450000D03*
X134631316Y-51950000D03*
X189206228Y-95853507D03*
X188750000Y-50744906D03*
X191277724Y-82776481D03*
X167600000Y-48723020D03*
X187550000Y-92800378D03*
X160075000Y-93219840D03*
X167975000Y-42898784D03*
X191291849Y-89076481D03*
X144925000Y-85611233D03*
X150846496Y-90216792D03*
X157650000Y-46101569D03*
X131625000Y-50497953D03*
X162400000Y-63800000D03*
X184293772Y-92794617D03*
X146436621Y-88686233D03*
X147925000Y-87111233D03*
X190248431Y-52325336D03*
X151125000Y-72460186D03*
X145600000Y-94022954D03*
X147829180Y-72446508D03*
X161659430Y-47650000D03*
X131525000Y-63575000D03*
X155425000Y-84100000D03*
X196130000Y-70320000D03*
X152346496Y-90216792D03*
X156925000Y-85600000D03*
X170450000Y-86943238D03*
X131595163Y-92575000D03*
X124050740Y-87575000D03*
X180375000Y-62340803D03*
X187226155Y-53854103D03*
X155436621Y-87175000D03*
X146385118Y-70953870D03*
X124025000Y-49000000D03*
X189206228Y-97353507D03*
X160889056Y-72900000D03*
X147835118Y-69446508D03*
X131575000Y-66600000D03*
X180375000Y-63840803D03*
X133125000Y-48997953D03*
X150077580Y-44400000D03*
X131577719Y-84500000D03*
X154569570Y-46100000D03*
X162400000Y-66800000D03*
X139375000Y-48998922D03*
X151130938Y-70960186D03*
X162397777Y-86425000D03*
X131500000Y-60650000D03*
X150075000Y-50495136D03*
X189200000Y-92803507D03*
X127039755Y-84475000D03*
X134750000Y-97049243D03*
X163900000Y-75824725D03*
X178250000Y-97350000D03*
X127030383Y-55050000D03*
X153925000Y-85600000D03*
X181193772Y-94292638D03*
X146425000Y-85611233D03*
X180750000Y-88400000D03*
X179675000Y-88397954D03*
X132730383Y-66725000D03*
X169547420Y-46100353D03*
X136125000Y-48997953D03*
X196173431Y-52305430D03*
X128532393Y-83025000D03*
X150602046Y-60600000D03*
X127025000Y-50500000D03*
X153075699Y-52098261D03*
X133250000Y-97049243D03*
X127037776Y-89075000D03*
X154577580Y-42900000D03*
X187234875Y-46375000D03*
X130025000Y-49000000D03*
X162389056Y-72900000D03*
X191275000Y-81231911D03*
X175525000Y-96175000D03*
X177350000Y-63825000D03*
X150834875Y-91726456D03*
X153925000Y-84100000D03*
X168750000Y-66050000D03*
X124030383Y-56550000D03*
X150825000Y-84103025D03*
X147825000Y-64171508D03*
X137590279Y-75696974D03*
X153075000Y-48995136D03*
X127030383Y-56550000D03*
X125526378Y-68500000D03*
X125530383Y-55050000D03*
X154575000Y-48995136D03*
X185725491Y-56400000D03*
X149425000Y-62685098D03*
X161350000Y-57800000D03*
X181200000Y-95842638D03*
X170443535Y-91473933D03*
X173950000Y-42990000D03*
X133875000Y-63600000D03*
X192589125Y-89071113D03*
X139450000Y-97046331D03*
X144946496Y-91725000D03*
X166230430Y-44402325D03*
X136296652Y-97047088D03*
X162389056Y-71400000D03*
X189200000Y-94303507D03*
X191700000Y-49226979D03*
X157050000Y-62850000D03*
X162395518Y-75825000D03*
X137584896Y-69646974D03*
X124031517Y-61025000D03*
X131596652Y-95550000D03*
X167775000Y-63622954D03*
X140875000Y-50498922D03*
X158436621Y-87175000D03*
X191281071Y-87526481D03*
X137592258Y-74096974D03*
X154575699Y-52098261D03*
X160895518Y-78825000D03*
X176875000Y-65975000D03*
X143206227Y-72442638D03*
X156936621Y-87175000D03*
X125531517Y-61025000D03*
X175356228Y-78503129D03*
X140252047Y-64175000D03*
X153450000Y-93225000D03*
X196128431Y-73400430D03*
X151577580Y-44400000D03*
X193490000Y-62700000D03*
X151575699Y-52098261D03*
X178850000Y-63825000D03*
X182693772Y-92792638D03*
X132725000Y-62175000D03*
X132715279Y-69650000D03*
X178243772Y-92800000D03*
X132719616Y-81900000D03*
X194673431Y-52305430D03*
X151569570Y-46100000D03*
X144936621Y-88686233D03*
X162395518Y-80325000D03*
X158425000Y-84100000D03*
X196189656Y-90619570D03*
X153077580Y-44400000D03*
X130025000Y-50500000D03*
X141750000Y-61075000D03*
X142475000Y-48996875D03*
X147825000Y-62671508D03*
X196174999Y-84400000D03*
X164400000Y-48722954D03*
X187397954Y-88050000D03*
X160895518Y-77325000D03*
X157650000Y-47601569D03*
X132730383Y-68225000D03*
X169396274Y-88305695D03*
X162389056Y-69900000D03*
X131577719Y-86000000D03*
X151575000Y-50495136D03*
X196130000Y-71820000D03*
X125530383Y-56550000D03*
X149346496Y-90216792D03*
X160900000Y-63800000D03*
X137950000Y-97046331D03*
X188751155Y-53869906D03*
X196173430Y-85980430D03*
X134625000Y-50497953D03*
X143212165Y-69442638D03*
X187556228Y-95850378D03*
X153069570Y-47600000D03*
X171050000Y-47651834D03*
X133125000Y-50497953D03*
X130075740Y-89100000D03*
X172550000Y-47651834D03*
X141762165Y-69450000D03*
X124032362Y-53450000D03*
X143212165Y-70942638D03*
X127025000Y-49000000D03*
X185800000Y-95844617D03*
X132722641Y-72600000D03*
X153077580Y-42900000D03*
X133775000Y-66575000D03*
X149325000Y-85603025D03*
X137584896Y-71146974D03*
X137625000Y-50497953D03*
X171500000Y-86944305D03*
X163900000Y-77324725D03*
X158425000Y-85600000D03*
X130032362Y-51950000D03*
X188750491Y-57915803D03*
X182975000Y-57897954D03*
X188748431Y-52325336D03*
X185726155Y-53854103D03*
X124045357Y-83025000D03*
X125531517Y-62525000D03*
X143202047Y-62667638D03*
X187225491Y-57900000D03*
D16*
X164960499Y-55800000D03*
D15*
X187234875Y-47875000D03*
X170025000Y-63630694D03*
X160889056Y-71400000D03*
X174450000Y-96172954D03*
X132732362Y-63625000D03*
X162395518Y-77325000D03*
X140262165Y-69450000D03*
X125525000Y-50500000D03*
X150077580Y-42900000D03*
X177350000Y-62325000D03*
X149325000Y-88687689D03*
X131570357Y-81550000D03*
X137625000Y-48997953D03*
X160252046Y-61400000D03*
X125550740Y-87575000D03*
X141752047Y-62675000D03*
X128537776Y-89075000D03*
X167966990Y-46098784D03*
X154569570Y-47600000D03*
X171041990Y-49351834D03*
X124024155Y-58075000D03*
X137591212Y-78796974D03*
X150075000Y-48995136D03*
X146975000Y-48996875D03*
X150825000Y-88687689D03*
X185793772Y-94294617D03*
X124025000Y-50500000D03*
X124045357Y-81525000D03*
X154577580Y-44400000D03*
X125524155Y-59575000D03*
X131575740Y-87600000D03*
X168850000Y-63625000D03*
X160152046Y-59400000D03*
X125525000Y-49000000D03*
X196171652Y-78150000D03*
X165325000Y-77318740D03*
X163159430Y-47650000D03*
X191279916Y-84401481D03*
X127032362Y-53450000D03*
X172326067Y-88475000D03*
X162400000Y-65300000D03*
X125526378Y-67000000D03*
X172075000Y-76977493D03*
X196172807Y-82775000D03*
X148475000Y-48996875D03*
X176859197Y-69000000D03*
X124052719Y-84475000D03*
X128532362Y-51950000D03*
X149725000Y-59300000D03*
X187225491Y-56400000D03*
X185734875Y-47875000D03*
X141762165Y-70950000D03*
X125529538Y-64125000D03*
X140250000Y-59575000D03*
X146446496Y-91725000D03*
X124024155Y-59575000D03*
X185725000Y-49229103D03*
X146375000Y-62678870D03*
X188759875Y-46390803D03*
X152325000Y-88687689D03*
X147835118Y-70946508D03*
X127032393Y-81525000D03*
X178250000Y-95850000D03*
X169393535Y-91480695D03*
X151577580Y-42900000D03*
X143975000Y-50496875D03*
X163151420Y-49350000D03*
X141752047Y-64175000D03*
X172541990Y-49351834D03*
X143202047Y-65667638D03*
X156158010Y-44401569D03*
X162397777Y-84925000D03*
X167250000Y-66050000D03*
X196176155Y-53850000D03*
X151569570Y-47600000D03*
X147936621Y-88686233D03*
X127039755Y-85975000D03*
X179750000Y-97350000D03*
X187225000Y-50729103D03*
X173450000Y-96175000D03*
X160895518Y-80325000D03*
X184300000Y-97344617D03*
X146434875Y-90150000D03*
%TO.N,+5VA*%
X147000000Y-60600000D03*
X169025000Y-50350000D03*
X155525000Y-52650000D03*
X163025000Y-58700000D03*
X163900000Y-58700000D03*
%TO.N,INV_695*%
X154400000Y-59350000D03*
X145675000Y-52875000D03*
%TO.N,+5V*%
X168271070Y-59550000D03*
X179025000Y-46075000D03*
X170021070Y-59554068D03*
X170025000Y-58354068D03*
X168275000Y-58350000D03*
X183230424Y-87775000D03*
X183225000Y-86825000D03*
%TO.N,+10V*%
X190825000Y-62925000D03*
X190875000Y-55175000D03*
X181500000Y-46075000D03*
%TO.N,+15V*%
X181700000Y-57975000D03*
X183825000Y-46075000D03*
X184190681Y-68250000D03*
X184187632Y-70500000D03*
X184200000Y-65625000D03*
%TD*%
%TA.AperFunction,Conductor*%
%TO.N,GND*%
G36*
X197252539Y-41490185D02*
G01*
X197298294Y-41542989D01*
X197309500Y-41594500D01*
X197309500Y-98200500D01*
X197289815Y-98267539D01*
X197237011Y-98313294D01*
X197185500Y-98324500D01*
X123424500Y-98324500D01*
X123357461Y-98304815D01*
X123311706Y-98252011D01*
X123300500Y-98200500D01*
X123300500Y-93771995D01*
X125479500Y-93771995D01*
X125479500Y-94008004D01*
X125479501Y-94008020D01*
X125510306Y-94242010D01*
X125571394Y-94469993D01*
X125661714Y-94688045D01*
X125661719Y-94688056D01*
X125732677Y-94810957D01*
X125779727Y-94892450D01*
X125779729Y-94892453D01*
X125779730Y-94892454D01*
X125923406Y-95079697D01*
X125923412Y-95079704D01*
X126090295Y-95246587D01*
X126090301Y-95246592D01*
X126277550Y-95390273D01*
X126408918Y-95466118D01*
X126481943Y-95508280D01*
X126481948Y-95508282D01*
X126481951Y-95508284D01*
X126700007Y-95598606D01*
X126927986Y-95659693D01*
X127161989Y-95690500D01*
X127161996Y-95690500D01*
X127398004Y-95690500D01*
X127398011Y-95690500D01*
X127632014Y-95659693D01*
X127859993Y-95598606D01*
X128078049Y-95508284D01*
X128282450Y-95390273D01*
X128469699Y-95246592D01*
X128636592Y-95079699D01*
X128780273Y-94892450D01*
X128898284Y-94688049D01*
X128988606Y-94469993D01*
X129049693Y-94242014D01*
X129080500Y-94008011D01*
X129080500Y-93921995D01*
X191509500Y-93921995D01*
X191509500Y-94158004D01*
X191509501Y-94158020D01*
X191520558Y-94242010D01*
X191540307Y-94392014D01*
X191601394Y-94619993D01*
X191691714Y-94838045D01*
X191691719Y-94838056D01*
X191762677Y-94960957D01*
X191809727Y-95042450D01*
X191809729Y-95042453D01*
X191809730Y-95042454D01*
X191953406Y-95229697D01*
X191953412Y-95229704D01*
X192120295Y-95396587D01*
X192120301Y-95396592D01*
X192307550Y-95540273D01*
X192408584Y-95598605D01*
X192511943Y-95658280D01*
X192511948Y-95658282D01*
X192511951Y-95658284D01*
X192730007Y-95748606D01*
X192957986Y-95809693D01*
X193191989Y-95840500D01*
X193191996Y-95840500D01*
X193428004Y-95840500D01*
X193428011Y-95840500D01*
X193662014Y-95809693D01*
X193889993Y-95748606D01*
X194108049Y-95658284D01*
X194312450Y-95540273D01*
X194499699Y-95396592D01*
X194666592Y-95229699D01*
X194810273Y-95042450D01*
X194928284Y-94838049D01*
X195018606Y-94619993D01*
X195079693Y-94392014D01*
X195110500Y-94158011D01*
X195110500Y-93921989D01*
X195079693Y-93687986D01*
X195018606Y-93460007D01*
X194928284Y-93241951D01*
X194928282Y-93241948D01*
X194928280Y-93241943D01*
X194841681Y-93091951D01*
X194810273Y-93037550D01*
X194666592Y-92850301D01*
X194666587Y-92850295D01*
X194499704Y-92683412D01*
X194499697Y-92683406D01*
X194312454Y-92539730D01*
X194312453Y-92539729D01*
X194312450Y-92539727D01*
X194230957Y-92492677D01*
X194108056Y-92421719D01*
X194108045Y-92421714D01*
X193889993Y-92331394D01*
X193662014Y-92270307D01*
X193662013Y-92270306D01*
X193662010Y-92270306D01*
X193428020Y-92239501D01*
X193428017Y-92239500D01*
X193428011Y-92239500D01*
X193191989Y-92239500D01*
X193191983Y-92239500D01*
X193191979Y-92239501D01*
X192957989Y-92270306D01*
X192730006Y-92331394D01*
X192511954Y-92421714D01*
X192511943Y-92421719D01*
X192307545Y-92539730D01*
X192120302Y-92683406D01*
X192120295Y-92683412D01*
X191953412Y-92850295D01*
X191953406Y-92850302D01*
X191809730Y-93037545D01*
X191691719Y-93241943D01*
X191691714Y-93241954D01*
X191601394Y-93460006D01*
X191540306Y-93687989D01*
X191509501Y-93921979D01*
X191509500Y-93921995D01*
X129080500Y-93921995D01*
X129080500Y-93771989D01*
X129049693Y-93537986D01*
X128988606Y-93310007D01*
X128898284Y-93091951D01*
X128898282Y-93091948D01*
X128898280Y-93091943D01*
X128856118Y-93018918D01*
X128780273Y-92887550D01*
X128636592Y-92700301D01*
X128636587Y-92700295D01*
X128469704Y-92533412D01*
X128469697Y-92533406D01*
X128282454Y-92389730D01*
X128282453Y-92389729D01*
X128282450Y-92389727D01*
X128200957Y-92342677D01*
X128078056Y-92271719D01*
X128078045Y-92271714D01*
X127859993Y-92181394D01*
X127632010Y-92120306D01*
X127398020Y-92089501D01*
X127398017Y-92089500D01*
X127398011Y-92089500D01*
X127161989Y-92089500D01*
X127161983Y-92089500D01*
X127161979Y-92089501D01*
X126927989Y-92120306D01*
X126700006Y-92181394D01*
X126481954Y-92271714D01*
X126481943Y-92271719D01*
X126277545Y-92389730D01*
X126090302Y-92533406D01*
X126090295Y-92533412D01*
X125923412Y-92700295D01*
X125923406Y-92700302D01*
X125779730Y-92887545D01*
X125661719Y-93091943D01*
X125661714Y-93091954D01*
X125571394Y-93310006D01*
X125510306Y-93537989D01*
X125479501Y-93771979D01*
X125479500Y-93771995D01*
X123300500Y-93771995D01*
X123300500Y-86746153D01*
X182424500Y-86746153D01*
X182424500Y-86903846D01*
X182455261Y-87058489D01*
X182455264Y-87058501D01*
X182515602Y-87204172D01*
X182515609Y-87204185D01*
X182536311Y-87235167D01*
X182557189Y-87301844D01*
X182538705Y-87369225D01*
X182536314Y-87372945D01*
X182521033Y-87395816D01*
X182521026Y-87395828D01*
X182460688Y-87541498D01*
X182460685Y-87541510D01*
X182429924Y-87696153D01*
X182429924Y-87853846D01*
X182460685Y-88008489D01*
X182460688Y-88008501D01*
X182521026Y-88154172D01*
X182521033Y-88154185D01*
X182608634Y-88285288D01*
X182608637Y-88285292D01*
X182720131Y-88396786D01*
X182720135Y-88396789D01*
X182851238Y-88484390D01*
X182851251Y-88484397D01*
X182996922Y-88544735D01*
X182996927Y-88544737D01*
X183151577Y-88575499D01*
X183151580Y-88575500D01*
X183151582Y-88575500D01*
X183309268Y-88575500D01*
X183309269Y-88575499D01*
X183463921Y-88544737D01*
X183609603Y-88484394D01*
X183740713Y-88396789D01*
X183852213Y-88285289D01*
X183939818Y-88154179D01*
X184000161Y-88008497D01*
X184030924Y-87853842D01*
X184030924Y-87696158D01*
X184030924Y-87696155D01*
X184030923Y-87696153D01*
X184000162Y-87541510D01*
X184000161Y-87541503D01*
X183939821Y-87395828D01*
X183939821Y-87395827D01*
X183939813Y-87395813D01*
X183919112Y-87364832D01*
X183898233Y-87298155D01*
X183916717Y-87230775D01*
X183919072Y-87227108D01*
X183934394Y-87204179D01*
X183994737Y-87058497D01*
X184025500Y-86903842D01*
X184025500Y-86746158D01*
X184025500Y-86746155D01*
X184025499Y-86746153D01*
X183994738Y-86591510D01*
X183994737Y-86591503D01*
X183994735Y-86591498D01*
X183934397Y-86445827D01*
X183934390Y-86445814D01*
X183846789Y-86314711D01*
X183846786Y-86314707D01*
X183735292Y-86203213D01*
X183735288Y-86203210D01*
X183604185Y-86115609D01*
X183604172Y-86115602D01*
X183458501Y-86055264D01*
X183458489Y-86055261D01*
X183303845Y-86024500D01*
X183303842Y-86024500D01*
X183146158Y-86024500D01*
X183146155Y-86024500D01*
X182991510Y-86055261D01*
X182991498Y-86055264D01*
X182845827Y-86115602D01*
X182845814Y-86115609D01*
X182714711Y-86203210D01*
X182714707Y-86203213D01*
X182603213Y-86314707D01*
X182603210Y-86314711D01*
X182515609Y-86445814D01*
X182515602Y-86445827D01*
X182455264Y-86591498D01*
X182455261Y-86591510D01*
X182424500Y-86746153D01*
X123300500Y-86746153D01*
X123300500Y-80509778D01*
X139429500Y-80509778D01*
X139429500Y-80730221D01*
X139463985Y-80947952D01*
X139532103Y-81157603D01*
X139532104Y-81157606D01*
X139632187Y-81354025D01*
X139761752Y-81532358D01*
X139761756Y-81532363D01*
X139917636Y-81688243D01*
X139917641Y-81688247D01*
X140073192Y-81801260D01*
X140095978Y-81817815D01*
X140224375Y-81883237D01*
X140292393Y-81917895D01*
X140292396Y-81917896D01*
X140397221Y-81951955D01*
X140502049Y-81986015D01*
X140719778Y-82020500D01*
X140719779Y-82020500D01*
X140940221Y-82020500D01*
X140940222Y-82020500D01*
X141157951Y-81986015D01*
X141367606Y-81917895D01*
X141564022Y-81817815D01*
X141742365Y-81688242D01*
X141898242Y-81532365D01*
X142027815Y-81354022D01*
X142127895Y-81157606D01*
X142196015Y-80947951D01*
X142230500Y-80730222D01*
X142230500Y-80509778D01*
X142196015Y-80292049D01*
X142127895Y-80082394D01*
X142127895Y-80082393D01*
X142082805Y-79993901D01*
X142027815Y-79885978D01*
X141987185Y-79830055D01*
X141898247Y-79707641D01*
X141898243Y-79707636D01*
X141742363Y-79551756D01*
X141742358Y-79551752D01*
X141564025Y-79422187D01*
X141564024Y-79422186D01*
X141564022Y-79422185D01*
X141501096Y-79390122D01*
X141367606Y-79322104D01*
X141367603Y-79322103D01*
X141157952Y-79253985D01*
X141049086Y-79236742D01*
X140940222Y-79219500D01*
X140719778Y-79219500D01*
X140647201Y-79230995D01*
X140502047Y-79253985D01*
X140292396Y-79322103D01*
X140292393Y-79322104D01*
X140095974Y-79422187D01*
X139917641Y-79551752D01*
X139917636Y-79551756D01*
X139761756Y-79707636D01*
X139761752Y-79707641D01*
X139632187Y-79885974D01*
X139532104Y-80082393D01*
X139532103Y-80082396D01*
X139463985Y-80292047D01*
X139429500Y-80509778D01*
X123300500Y-80509778D01*
X123300500Y-78727650D01*
X178405400Y-78727650D01*
X178405400Y-78972349D01*
X178443680Y-79214037D01*
X178443680Y-79214040D01*
X178519294Y-79446756D01*
X178519296Y-79446759D01*
X178630387Y-79664788D01*
X178774218Y-79862754D01*
X178947246Y-80035782D01*
X179145212Y-80179613D01*
X179363241Y-80290704D01*
X179363243Y-80290705D01*
X179580311Y-80361234D01*
X179595964Y-80366320D01*
X179837650Y-80404600D01*
X179837651Y-80404600D01*
X180082349Y-80404600D01*
X180082350Y-80404600D01*
X180324036Y-80366320D01*
X180324039Y-80366319D01*
X180324040Y-80366319D01*
X180556756Y-80290705D01*
X180556756Y-80290704D01*
X180556759Y-80290704D01*
X180774788Y-80179613D01*
X180972754Y-80035782D01*
X181145782Y-79862754D01*
X181289613Y-79664788D01*
X181400704Y-79446759D01*
X181437899Y-79332284D01*
X181476319Y-79214040D01*
X181476319Y-79214039D01*
X181476320Y-79214036D01*
X181480489Y-79187713D01*
X187186100Y-79187713D01*
X187186100Y-79332288D01*
X187214301Y-79474064D01*
X187214303Y-79474072D01*
X187269624Y-79607630D01*
X187349942Y-79727834D01*
X187349945Y-79727838D01*
X187452162Y-79830055D01*
X187452166Y-79830058D01*
X187572368Y-79910375D01*
X187705929Y-79965698D01*
X187847712Y-79993900D01*
X187847716Y-79993901D01*
X187847717Y-79993901D01*
X187992284Y-79993901D01*
X187992285Y-79993900D01*
X188134071Y-79965698D01*
X188267632Y-79910375D01*
X188387834Y-79830058D01*
X188490057Y-79727835D01*
X188570374Y-79607633D01*
X188625697Y-79474072D01*
X188653900Y-79332284D01*
X188653900Y-79187718D01*
X188625697Y-79045930D01*
X188570374Y-78912369D01*
X188490057Y-78792167D01*
X188490054Y-78792163D01*
X188387837Y-78689946D01*
X188387833Y-78689943D01*
X188267629Y-78609625D01*
X188134071Y-78554304D01*
X188134063Y-78554302D01*
X187992287Y-78526101D01*
X187992283Y-78526101D01*
X187847717Y-78526101D01*
X187847712Y-78526101D01*
X187705936Y-78554302D01*
X187705928Y-78554304D01*
X187572370Y-78609625D01*
X187452166Y-78689943D01*
X187452162Y-78689946D01*
X187349945Y-78792163D01*
X187349942Y-78792167D01*
X187269624Y-78912371D01*
X187214303Y-79045929D01*
X187214301Y-79045937D01*
X187186100Y-79187713D01*
X181480489Y-79187713D01*
X181514600Y-78972350D01*
X181514600Y-78727650D01*
X181476320Y-78485964D01*
X181476319Y-78485960D01*
X181476319Y-78485959D01*
X181400705Y-78253243D01*
X181400703Y-78253240D01*
X181289612Y-78035211D01*
X181145782Y-77837246D01*
X180972754Y-77664218D01*
X180774788Y-77520387D01*
X180556759Y-77409296D01*
X180556756Y-77409294D01*
X180324038Y-77333680D01*
X180162912Y-77308160D01*
X180082350Y-77295400D01*
X179837650Y-77295400D01*
X179757088Y-77308160D01*
X179595962Y-77333680D01*
X179595959Y-77333680D01*
X179363243Y-77409294D01*
X179363240Y-77409296D01*
X179145211Y-77520387D01*
X179032265Y-77602447D01*
X178947246Y-77664218D01*
X178947244Y-77664220D01*
X178947243Y-77664220D01*
X178774220Y-77837243D01*
X178774220Y-77837244D01*
X178774218Y-77837246D01*
X178712447Y-77922265D01*
X178630387Y-78035211D01*
X178519296Y-78253240D01*
X178519294Y-78253243D01*
X178443680Y-78485959D01*
X178443680Y-78485962D01*
X178405400Y-78727650D01*
X123300500Y-78727650D01*
X123300500Y-75429778D01*
X154669500Y-75429778D01*
X154669500Y-75650221D01*
X154703985Y-75867952D01*
X154772103Y-76077603D01*
X154772104Y-76077606D01*
X154872187Y-76274025D01*
X155001752Y-76452358D01*
X155001756Y-76452363D01*
X155157636Y-76608243D01*
X155157641Y-76608247D01*
X155313192Y-76721260D01*
X155335978Y-76737815D01*
X155464375Y-76803237D01*
X155532393Y-76837895D01*
X155532396Y-76837896D01*
X155637221Y-76871955D01*
X155742049Y-76906015D01*
X155959778Y-76940500D01*
X155959779Y-76940500D01*
X156180221Y-76940500D01*
X156180222Y-76940500D01*
X156397951Y-76906015D01*
X156607606Y-76837895D01*
X156804022Y-76737815D01*
X156982365Y-76608242D01*
X157138242Y-76452365D01*
X157267815Y-76274022D01*
X157301249Y-76208404D01*
X157326606Y-76158639D01*
X187572101Y-76158639D01*
X187572101Y-76361359D01*
X187603814Y-76561583D01*
X187666458Y-76754381D01*
X187743719Y-76906014D01*
X187758493Y-76935008D01*
X187877640Y-77099003D01*
X188020996Y-77242359D01*
X188146691Y-77333680D01*
X188184995Y-77361509D01*
X188365619Y-77453542D01*
X188558417Y-77516186D01*
X188758641Y-77547899D01*
X188758642Y-77547899D01*
X188961360Y-77547899D01*
X188961361Y-77547899D01*
X189161585Y-77516186D01*
X189354383Y-77453542D01*
X189535007Y-77361509D01*
X189627086Y-77294609D01*
X189699005Y-77242359D01*
X189699007Y-77242356D01*
X189699011Y-77242354D01*
X189842356Y-77099009D01*
X189842358Y-77099005D01*
X189842361Y-77099003D01*
X189894611Y-77027084D01*
X189961511Y-76935005D01*
X190053544Y-76754381D01*
X190116188Y-76561583D01*
X190147901Y-76361359D01*
X190147901Y-76158639D01*
X190572100Y-76158639D01*
X190572100Y-76361359D01*
X190603813Y-76561583D01*
X190666457Y-76754381D01*
X190743718Y-76906014D01*
X190758492Y-76935008D01*
X190877639Y-77099003D01*
X191020995Y-77242359D01*
X191146690Y-77333680D01*
X191184994Y-77361509D01*
X191365618Y-77453542D01*
X191558416Y-77516186D01*
X191758640Y-77547899D01*
X191758641Y-77547899D01*
X191961359Y-77547899D01*
X191961360Y-77547899D01*
X192161584Y-77516186D01*
X192354382Y-77453542D01*
X192535006Y-77361509D01*
X192627085Y-77294609D01*
X192699004Y-77242359D01*
X192699006Y-77242356D01*
X192699010Y-77242354D01*
X192842355Y-77099009D01*
X192842357Y-77099005D01*
X192842360Y-77099003D01*
X192894610Y-77027084D01*
X192961510Y-76935005D01*
X193053543Y-76754381D01*
X193116187Y-76561583D01*
X193147900Y-76361359D01*
X193147900Y-76158639D01*
X193116187Y-75958415D01*
X193053543Y-75765617D01*
X192961510Y-75584993D01*
X192953854Y-75574455D01*
X192842360Y-75420994D01*
X192699004Y-75277638D01*
X192535009Y-75158491D01*
X192535008Y-75158490D01*
X192535006Y-75158489D01*
X192354382Y-75066456D01*
X192161584Y-75003812D01*
X192161582Y-75003811D01*
X192161580Y-75003811D01*
X192021782Y-74981669D01*
X191961360Y-74972099D01*
X191758640Y-74972099D01*
X191712224Y-74979450D01*
X191558419Y-75003811D01*
X191365615Y-75066457D01*
X191184990Y-75158491D01*
X191020995Y-75277638D01*
X190877639Y-75420994D01*
X190758492Y-75584989D01*
X190666458Y-75765614D01*
X190603812Y-75958418D01*
X190581788Y-76097471D01*
X190572100Y-76158639D01*
X190147901Y-76158639D01*
X190116188Y-75958415D01*
X190053544Y-75765617D01*
X189961511Y-75584993D01*
X189953855Y-75574455D01*
X189842361Y-75420994D01*
X189699005Y-75277638D01*
X189535010Y-75158491D01*
X189535009Y-75158490D01*
X189535007Y-75158489D01*
X189354383Y-75066456D01*
X189161585Y-75003812D01*
X189161583Y-75003811D01*
X189161581Y-75003811D01*
X189021783Y-74981669D01*
X188961361Y-74972099D01*
X188758641Y-74972099D01*
X188712225Y-74979450D01*
X188558420Y-75003811D01*
X188365616Y-75066457D01*
X188184991Y-75158491D01*
X188020996Y-75277638D01*
X187877640Y-75420994D01*
X187758493Y-75584989D01*
X187666459Y-75765614D01*
X187603813Y-75958418D01*
X187581789Y-76097471D01*
X187572101Y-76158639D01*
X157326606Y-76158639D01*
X157357774Y-76097471D01*
X157362361Y-76088466D01*
X157367895Y-76077606D01*
X157436015Y-75867951D01*
X157470500Y-75650222D01*
X157470500Y-75429778D01*
X157436015Y-75212049D01*
X157368356Y-75003812D01*
X157367896Y-75002396D01*
X157367895Y-75002393D01*
X157333237Y-74934375D01*
X157267815Y-74805978D01*
X157251260Y-74783192D01*
X157138247Y-74627641D01*
X157138243Y-74627636D01*
X156982363Y-74471756D01*
X156982358Y-74471752D01*
X156804025Y-74342187D01*
X156804024Y-74342186D01*
X156804022Y-74342185D01*
X156741096Y-74310122D01*
X156607606Y-74242104D01*
X156607603Y-74242103D01*
X156397952Y-74173985D01*
X156289086Y-74156742D01*
X156180222Y-74139500D01*
X155959778Y-74139500D01*
X155887201Y-74150995D01*
X155742047Y-74173985D01*
X155532396Y-74242103D01*
X155532393Y-74242104D01*
X155335974Y-74342187D01*
X155157641Y-74471752D01*
X155157636Y-74471756D01*
X155001756Y-74627636D01*
X155001752Y-74627641D01*
X154872187Y-74805974D01*
X154772104Y-75002393D01*
X154772103Y-75002396D01*
X154703985Y-75212047D01*
X154669500Y-75429778D01*
X123300500Y-75429778D01*
X123300500Y-72827650D01*
X126665400Y-72827650D01*
X126665400Y-73072349D01*
X126703680Y-73314037D01*
X126703680Y-73314040D01*
X126779294Y-73546756D01*
X126779296Y-73546759D01*
X126890387Y-73764788D01*
X127034218Y-73962754D01*
X127207246Y-74135782D01*
X127405212Y-74279613D01*
X127623241Y-74390704D01*
X127623243Y-74390705D01*
X127816634Y-74453541D01*
X127855964Y-74466320D01*
X128097650Y-74504600D01*
X128097651Y-74504600D01*
X128342349Y-74504600D01*
X128342350Y-74504600D01*
X128584036Y-74466320D01*
X128584039Y-74466319D01*
X128584040Y-74466319D01*
X128816756Y-74390705D01*
X128816756Y-74390704D01*
X128816759Y-74390704D01*
X129034788Y-74279613D01*
X129232754Y-74135782D01*
X129405782Y-73962754D01*
X129549613Y-73764788D01*
X129660704Y-73546759D01*
X129736320Y-73314036D01*
X129760933Y-73158640D01*
X187572101Y-73158640D01*
X187572101Y-73361359D01*
X187603813Y-73561580D01*
X187666459Y-73754384D01*
X187758493Y-73935009D01*
X187877640Y-74099004D01*
X188020996Y-74242360D01*
X188158396Y-74342185D01*
X188184995Y-74361510D01*
X188365619Y-74453543D01*
X188558417Y-74516187D01*
X188758641Y-74547900D01*
X188758642Y-74547900D01*
X188961360Y-74547900D01*
X188961361Y-74547900D01*
X189161585Y-74516187D01*
X189354383Y-74453543D01*
X189535007Y-74361510D01*
X189627086Y-74294610D01*
X189699005Y-74242360D01*
X189699007Y-74242357D01*
X189699011Y-74242355D01*
X189842356Y-74099010D01*
X189842358Y-74099006D01*
X189842361Y-74099004D01*
X189894611Y-74027085D01*
X189961511Y-73935006D01*
X190053544Y-73754382D01*
X190116188Y-73561584D01*
X190147901Y-73361360D01*
X190147901Y-73158640D01*
X190572100Y-73158640D01*
X190572100Y-73361359D01*
X190603812Y-73561580D01*
X190666458Y-73754384D01*
X190758492Y-73935009D01*
X190877639Y-74099004D01*
X191020995Y-74242360D01*
X191158395Y-74342185D01*
X191184994Y-74361510D01*
X191365618Y-74453543D01*
X191558416Y-74516187D01*
X191758640Y-74547900D01*
X191758641Y-74547900D01*
X191961359Y-74547900D01*
X191961360Y-74547900D01*
X192161584Y-74516187D01*
X192354382Y-74453543D01*
X192535006Y-74361510D01*
X192627085Y-74294610D01*
X192699004Y-74242360D01*
X192699006Y-74242357D01*
X192699010Y-74242355D01*
X192842355Y-74099010D01*
X192842357Y-74099006D01*
X192842360Y-74099004D01*
X192894610Y-74027085D01*
X192961510Y-73935006D01*
X193053543Y-73754382D01*
X193116187Y-73561584D01*
X193147900Y-73361360D01*
X193147900Y-73158640D01*
X193116187Y-72958416D01*
X193053543Y-72765618D01*
X192961510Y-72584994D01*
X192953854Y-72574456D01*
X192842360Y-72420995D01*
X192699004Y-72277639D01*
X192535009Y-72158492D01*
X192535008Y-72158491D01*
X192535006Y-72158490D01*
X192354382Y-72066457D01*
X192161584Y-72003813D01*
X192161582Y-72003812D01*
X192161580Y-72003812D01*
X192021782Y-71981670D01*
X191961360Y-71972100D01*
X191758640Y-71972100D01*
X191712224Y-71979451D01*
X191558419Y-72003812D01*
X191365615Y-72066458D01*
X191184990Y-72158492D01*
X191020995Y-72277639D01*
X190877639Y-72420995D01*
X190758492Y-72584990D01*
X190666458Y-72765615D01*
X190603812Y-72958419D01*
X190572100Y-73158640D01*
X190147901Y-73158640D01*
X190116188Y-72958416D01*
X190053544Y-72765618D01*
X189961511Y-72584994D01*
X189953855Y-72574456D01*
X189842361Y-72420995D01*
X189699005Y-72277639D01*
X189535010Y-72158492D01*
X189535009Y-72158491D01*
X189535007Y-72158490D01*
X189354383Y-72066457D01*
X189161585Y-72003813D01*
X189161583Y-72003812D01*
X189161581Y-72003812D01*
X189021783Y-71981670D01*
X188961361Y-71972100D01*
X188758641Y-71972100D01*
X188712225Y-71979451D01*
X188558420Y-72003812D01*
X188365616Y-72066458D01*
X188184991Y-72158492D01*
X188020996Y-72277639D01*
X187877640Y-72420995D01*
X187758493Y-72584990D01*
X187666459Y-72765615D01*
X187603813Y-72958419D01*
X187572101Y-73158640D01*
X129760933Y-73158640D01*
X129774600Y-73072350D01*
X129774600Y-72827650D01*
X129736320Y-72585964D01*
X129736319Y-72585960D01*
X129736319Y-72585959D01*
X129660705Y-72353243D01*
X129660703Y-72353240D01*
X129625730Y-72284600D01*
X129549613Y-72135212D01*
X129405782Y-71937246D01*
X129232754Y-71764218D01*
X129034788Y-71620387D01*
X128816759Y-71509296D01*
X128816756Y-71509294D01*
X128584038Y-71433680D01*
X128422912Y-71408160D01*
X128342350Y-71395400D01*
X128097650Y-71395400D01*
X128017088Y-71408160D01*
X127855962Y-71433680D01*
X127855959Y-71433680D01*
X127623243Y-71509294D01*
X127623240Y-71509296D01*
X127405211Y-71620387D01*
X127292265Y-71702447D01*
X127207246Y-71764218D01*
X127207244Y-71764220D01*
X127207243Y-71764220D01*
X127034220Y-71937243D01*
X127034220Y-71937244D01*
X127034218Y-71937246D01*
X127008895Y-71972100D01*
X126890387Y-72135211D01*
X126779296Y-72353240D01*
X126779294Y-72353243D01*
X126703680Y-72585959D01*
X126703680Y-72585962D01*
X126665400Y-72827650D01*
X123300500Y-72827650D01*
X123300500Y-70607650D01*
X166075400Y-70607650D01*
X166075400Y-70852349D01*
X166113680Y-71094037D01*
X166113680Y-71094040D01*
X166189294Y-71326756D01*
X166189296Y-71326759D01*
X166300387Y-71544788D01*
X166444218Y-71742754D01*
X166617246Y-71915782D01*
X166815212Y-72059613D01*
X167033241Y-72170704D01*
X167033243Y-72170705D01*
X167250311Y-72241234D01*
X167265964Y-72246320D01*
X167507650Y-72284600D01*
X167507651Y-72284600D01*
X167752349Y-72284600D01*
X167752350Y-72284600D01*
X167994036Y-72246320D01*
X167994039Y-72246319D01*
X167994040Y-72246319D01*
X168226756Y-72170705D01*
X168226756Y-72170704D01*
X168226759Y-72170704D01*
X168444788Y-72059613D01*
X168642754Y-71915782D01*
X168815782Y-71742754D01*
X168959613Y-71544788D01*
X169070704Y-71326759D01*
X169089232Y-71269735D01*
X169146319Y-71094040D01*
X169146319Y-71094039D01*
X169146320Y-71094036D01*
X169184600Y-70852350D01*
X169184600Y-70607650D01*
X169180038Y-70578846D01*
X169157170Y-70434464D01*
X169155062Y-70421153D01*
X183387132Y-70421153D01*
X183387132Y-70578846D01*
X183417893Y-70733489D01*
X183417896Y-70733501D01*
X183478234Y-70879172D01*
X183478241Y-70879185D01*
X183565842Y-71010288D01*
X183565845Y-71010292D01*
X183677339Y-71121786D01*
X183677343Y-71121789D01*
X183808446Y-71209390D01*
X183808459Y-71209397D01*
X183954130Y-71269735D01*
X183954135Y-71269737D01*
X184108785Y-71300499D01*
X184108788Y-71300500D01*
X184108790Y-71300500D01*
X184266476Y-71300500D01*
X184266477Y-71300499D01*
X184421129Y-71269737D01*
X184566811Y-71209394D01*
X184697921Y-71121789D01*
X184809421Y-71010289D01*
X184897026Y-70879179D01*
X184957369Y-70733497D01*
X184988132Y-70578842D01*
X184988132Y-70421158D01*
X184988132Y-70421155D01*
X184988131Y-70421153D01*
X184977152Y-70365959D01*
X184957369Y-70266503D01*
X184930329Y-70201221D01*
X184912692Y-70158641D01*
X190572100Y-70158641D01*
X190572100Y-70361361D01*
X190603813Y-70561585D01*
X190666457Y-70754383D01*
X190730040Y-70879172D01*
X190758492Y-70935010D01*
X190877639Y-71099005D01*
X191020995Y-71242361D01*
X191174456Y-71353855D01*
X191184994Y-71361511D01*
X191365618Y-71453544D01*
X191558416Y-71516188D01*
X191758640Y-71547901D01*
X191758641Y-71547901D01*
X191961359Y-71547901D01*
X191961360Y-71547901D01*
X192161584Y-71516188D01*
X192354382Y-71453544D01*
X192535006Y-71361511D01*
X192661326Y-71269735D01*
X192699004Y-71242361D01*
X192699006Y-71242358D01*
X192699010Y-71242356D01*
X192842355Y-71099011D01*
X192842357Y-71099007D01*
X192842360Y-71099005D01*
X192906815Y-71010289D01*
X192961510Y-70935007D01*
X193053543Y-70754383D01*
X193116187Y-70561585D01*
X193147900Y-70361361D01*
X193147900Y-70158641D01*
X193116187Y-69958417D01*
X193053543Y-69765619D01*
X192961510Y-69584995D01*
X192953854Y-69574457D01*
X192842360Y-69420996D01*
X192699004Y-69277640D01*
X192535009Y-69158493D01*
X192535008Y-69158492D01*
X192535006Y-69158491D01*
X192354382Y-69066458D01*
X192161584Y-69003814D01*
X192161582Y-69003813D01*
X192161580Y-69003813D01*
X192021782Y-68981671D01*
X191961360Y-68972101D01*
X191758640Y-68972101D01*
X191712224Y-68979452D01*
X191558419Y-69003813D01*
X191365615Y-69066459D01*
X191184990Y-69158493D01*
X191020995Y-69277640D01*
X190877639Y-69420996D01*
X190758492Y-69584991D01*
X190666458Y-69765616D01*
X190603812Y-69958420D01*
X190598857Y-69989707D01*
X190572100Y-70158641D01*
X184912692Y-70158641D01*
X184897029Y-70120827D01*
X184897022Y-70120814D01*
X184809421Y-69989711D01*
X184809418Y-69989707D01*
X184697924Y-69878213D01*
X184697920Y-69878210D01*
X184566817Y-69790609D01*
X184566804Y-69790602D01*
X184421133Y-69730264D01*
X184421121Y-69730261D01*
X184266477Y-69699500D01*
X184266474Y-69699500D01*
X184108790Y-69699500D01*
X184108787Y-69699500D01*
X183954142Y-69730261D01*
X183954130Y-69730264D01*
X183808459Y-69790602D01*
X183808446Y-69790609D01*
X183677343Y-69878210D01*
X183677339Y-69878213D01*
X183565845Y-69989707D01*
X183565842Y-69989711D01*
X183478241Y-70120814D01*
X183478234Y-70120827D01*
X183417896Y-70266498D01*
X183417893Y-70266510D01*
X183387132Y-70421153D01*
X169155062Y-70421153D01*
X169146319Y-70365960D01*
X169146319Y-70365959D01*
X169070705Y-70133243D01*
X169070703Y-70133240D01*
X169064379Y-70120827D01*
X168959613Y-69915212D01*
X168815782Y-69717246D01*
X168642754Y-69544218D01*
X168444788Y-69400387D01*
X168226759Y-69289296D01*
X168226756Y-69289294D01*
X167994038Y-69213680D01*
X167832912Y-69188160D01*
X167752350Y-69175400D01*
X167507650Y-69175400D01*
X167427088Y-69188160D01*
X167265962Y-69213680D01*
X167265959Y-69213680D01*
X167033243Y-69289294D01*
X167033240Y-69289296D01*
X166815211Y-69400387D01*
X166702265Y-69482447D01*
X166617246Y-69544218D01*
X166617244Y-69544220D01*
X166617243Y-69544220D01*
X166444220Y-69717243D01*
X166444220Y-69717244D01*
X166444218Y-69717246D01*
X166434762Y-69730261D01*
X166300387Y-69915211D01*
X166189296Y-70133240D01*
X166189294Y-70133243D01*
X166113680Y-70365959D01*
X166113680Y-70365962D01*
X166075400Y-70607650D01*
X123300500Y-70607650D01*
X123300500Y-67657650D01*
X154545400Y-67657650D01*
X154545400Y-67902350D01*
X154564540Y-68023193D01*
X154583680Y-68144037D01*
X154583680Y-68144040D01*
X154659294Y-68376756D01*
X154659296Y-68376759D01*
X154770387Y-68594788D01*
X154914218Y-68792754D01*
X155087246Y-68965782D01*
X155285212Y-69109613D01*
X155503241Y-69220704D01*
X155503243Y-69220705D01*
X155678491Y-69277646D01*
X155735964Y-69296320D01*
X155977650Y-69334600D01*
X155977651Y-69334600D01*
X156222349Y-69334600D01*
X156222350Y-69334600D01*
X156464036Y-69296320D01*
X156464039Y-69296319D01*
X156464040Y-69296319D01*
X156696756Y-69220705D01*
X156696756Y-69220704D01*
X156696759Y-69220704D01*
X156914788Y-69109613D01*
X157112754Y-68965782D01*
X157285782Y-68792754D01*
X157429613Y-68594788D01*
X157540704Y-68376759D01*
X157556272Y-68328846D01*
X157607509Y-68171153D01*
X183390181Y-68171153D01*
X183390181Y-68328846D01*
X183420942Y-68483489D01*
X183420945Y-68483501D01*
X183481283Y-68629172D01*
X183481290Y-68629185D01*
X183568891Y-68760288D01*
X183568894Y-68760292D01*
X183680388Y-68871786D01*
X183680392Y-68871789D01*
X183811495Y-68959390D01*
X183811508Y-68959397D01*
X183918742Y-69003814D01*
X183957184Y-69019737D01*
X184111834Y-69050499D01*
X184111837Y-69050500D01*
X184111839Y-69050500D01*
X184269525Y-69050500D01*
X184269526Y-69050499D01*
X184424178Y-69019737D01*
X184569860Y-68959394D01*
X184700970Y-68871789D01*
X184812470Y-68760289D01*
X184900075Y-68629179D01*
X184960418Y-68483497D01*
X184991181Y-68328842D01*
X184991181Y-68171158D01*
X184991181Y-68171155D01*
X184991180Y-68171153D01*
X184960419Y-68016510D01*
X184960418Y-68016503D01*
X184913135Y-67902350D01*
X184900078Y-67870827D01*
X184900071Y-67870814D01*
X184812470Y-67739711D01*
X184812467Y-67739707D01*
X184700973Y-67628213D01*
X184700969Y-67628210D01*
X184569866Y-67540609D01*
X184569853Y-67540602D01*
X184424182Y-67480264D01*
X184424170Y-67480261D01*
X184269526Y-67449500D01*
X184269523Y-67449500D01*
X184111839Y-67449500D01*
X184111836Y-67449500D01*
X183957191Y-67480261D01*
X183957179Y-67480264D01*
X183811508Y-67540602D01*
X183811495Y-67540609D01*
X183680392Y-67628210D01*
X183680388Y-67628213D01*
X183568894Y-67739707D01*
X183568891Y-67739711D01*
X183481290Y-67870814D01*
X183481283Y-67870827D01*
X183420945Y-68016498D01*
X183420942Y-68016510D01*
X183390181Y-68171153D01*
X157607509Y-68171153D01*
X157616319Y-68144040D01*
X157616319Y-68144038D01*
X157616320Y-68144036D01*
X157654600Y-67902350D01*
X157654600Y-67657650D01*
X157616320Y-67415964D01*
X157616319Y-67415960D01*
X157616319Y-67415959D01*
X157543579Y-67192088D01*
X157542434Y-67188566D01*
X157540704Y-67183241D01*
X157528170Y-67158642D01*
X190572100Y-67158642D01*
X190572100Y-67361362D01*
X190580748Y-67415962D01*
X190600490Y-67540609D01*
X190603813Y-67561586D01*
X190666457Y-67754384D01*
X190741849Y-67902349D01*
X190758492Y-67935011D01*
X190877639Y-68099006D01*
X191020995Y-68242362D01*
X191174456Y-68353856D01*
X191184994Y-68361512D01*
X191365618Y-68453545D01*
X191558416Y-68516189D01*
X191758640Y-68547902D01*
X191758641Y-68547902D01*
X191961359Y-68547902D01*
X191961360Y-68547902D01*
X192161584Y-68516189D01*
X192354382Y-68453545D01*
X192535006Y-68361512D01*
X192627085Y-68294612D01*
X192699004Y-68242362D01*
X192699006Y-68242359D01*
X192699010Y-68242357D01*
X192842355Y-68099012D01*
X192842357Y-68099008D01*
X192842360Y-68099006D01*
X192902304Y-68016498D01*
X192961510Y-67935008D01*
X193053543Y-67754384D01*
X193116187Y-67561586D01*
X193147900Y-67361362D01*
X193147900Y-67158642D01*
X193116187Y-66958418D01*
X193053543Y-66765620D01*
X192961510Y-66584996D01*
X192953854Y-66574458D01*
X192842360Y-66420997D01*
X192699004Y-66277641D01*
X192535009Y-66158494D01*
X192535008Y-66158493D01*
X192535006Y-66158492D01*
X192354382Y-66066459D01*
X192161584Y-66003815D01*
X192161582Y-66003814D01*
X192161580Y-66003814D01*
X192021782Y-65981672D01*
X191961360Y-65972102D01*
X191758640Y-65972102D01*
X191712224Y-65979453D01*
X191558419Y-66003814D01*
X191365615Y-66066460D01*
X191184990Y-66158494D01*
X191020995Y-66277641D01*
X190877639Y-66420997D01*
X190758492Y-66584992D01*
X190666458Y-66765617D01*
X190603812Y-66958421D01*
X190572100Y-67158642D01*
X157528170Y-67158642D01*
X157429613Y-66965212D01*
X157285782Y-66767246D01*
X157112754Y-66594218D01*
X156914788Y-66450387D01*
X156696759Y-66339296D01*
X156696756Y-66339294D01*
X156464038Y-66263680D01*
X156302912Y-66238160D01*
X156222350Y-66225400D01*
X155977650Y-66225400D01*
X155897088Y-66238160D01*
X155735962Y-66263680D01*
X155735959Y-66263680D01*
X155503243Y-66339294D01*
X155503240Y-66339296D01*
X155285211Y-66450387D01*
X155172265Y-66532447D01*
X155087246Y-66594218D01*
X155087244Y-66594220D01*
X155087243Y-66594220D01*
X154914220Y-66767243D01*
X154914220Y-66767244D01*
X154914218Y-66767246D01*
X154852447Y-66852265D01*
X154770387Y-66965211D01*
X154659296Y-67183240D01*
X154659294Y-67183243D01*
X154583680Y-67415959D01*
X154583680Y-67415962D01*
X154563939Y-67540602D01*
X154545400Y-67657650D01*
X123300500Y-67657650D01*
X123300500Y-65546153D01*
X183399500Y-65546153D01*
X183399500Y-65703846D01*
X183430261Y-65858489D01*
X183430264Y-65858501D01*
X183490602Y-66004172D01*
X183490609Y-66004185D01*
X183578210Y-66135288D01*
X183578213Y-66135292D01*
X183689707Y-66246786D01*
X183689711Y-66246789D01*
X183820814Y-66334390D01*
X183820827Y-66334397D01*
X183966498Y-66394735D01*
X183966503Y-66394737D01*
X184098495Y-66420992D01*
X184121153Y-66425499D01*
X184121156Y-66425500D01*
X184121158Y-66425500D01*
X184278844Y-66425500D01*
X184278845Y-66425499D01*
X184433497Y-66394737D01*
X184546166Y-66348067D01*
X184579172Y-66334397D01*
X184579172Y-66334396D01*
X184579179Y-66334394D01*
X184710289Y-66246789D01*
X184821789Y-66135289D01*
X184909394Y-66004179D01*
X184969737Y-65858497D01*
X185000500Y-65703842D01*
X185000500Y-65546158D01*
X185000500Y-65546155D01*
X185000499Y-65546153D01*
X184969738Y-65391510D01*
X184969737Y-65391503D01*
X184969735Y-65391498D01*
X184909397Y-65245827D01*
X184909390Y-65245814D01*
X184821789Y-65114711D01*
X184821786Y-65114707D01*
X184710292Y-65003213D01*
X184710288Y-65003210D01*
X184579185Y-64915609D01*
X184579172Y-64915602D01*
X184433501Y-64855264D01*
X184433489Y-64855261D01*
X184278845Y-64824500D01*
X184278842Y-64824500D01*
X184121158Y-64824500D01*
X184121155Y-64824500D01*
X183966510Y-64855261D01*
X183966498Y-64855264D01*
X183820827Y-64915602D01*
X183820814Y-64915609D01*
X183689711Y-65003210D01*
X183689707Y-65003213D01*
X183578213Y-65114707D01*
X183578210Y-65114711D01*
X183490609Y-65245814D01*
X183490602Y-65245827D01*
X183430264Y-65391498D01*
X183430261Y-65391510D01*
X183399500Y-65546153D01*
X123300500Y-65546153D01*
X123300500Y-64187712D01*
X187186100Y-64187712D01*
X187186100Y-64332287D01*
X187214301Y-64474063D01*
X187214303Y-64474071D01*
X187269624Y-64607629D01*
X187349942Y-64727833D01*
X187349945Y-64727837D01*
X187452162Y-64830054D01*
X187452166Y-64830057D01*
X187572368Y-64910374D01*
X187705929Y-64965697D01*
X187847712Y-64993899D01*
X187847716Y-64993900D01*
X187847717Y-64993900D01*
X187992284Y-64993900D01*
X187992285Y-64993899D01*
X188134071Y-64965697D01*
X188267632Y-64910374D01*
X188387834Y-64830057D01*
X188490057Y-64727834D01*
X188570374Y-64607632D01*
X188625697Y-64474071D01*
X188653900Y-64332283D01*
X188653900Y-64187717D01*
X188625697Y-64045929D01*
X188570374Y-63912368D01*
X188490057Y-63792166D01*
X188490054Y-63792162D01*
X188387837Y-63689945D01*
X188387833Y-63689942D01*
X188267629Y-63609624D01*
X188134071Y-63554303D01*
X188134063Y-63554301D01*
X187992287Y-63526100D01*
X187992283Y-63526100D01*
X187847717Y-63526100D01*
X187847712Y-63526100D01*
X187705936Y-63554301D01*
X187705928Y-63554303D01*
X187572370Y-63609624D01*
X187452166Y-63689942D01*
X187452162Y-63689945D01*
X187349945Y-63792162D01*
X187349942Y-63792166D01*
X187269624Y-63912370D01*
X187214303Y-64045928D01*
X187214301Y-64045936D01*
X187186100Y-64187712D01*
X123300500Y-64187712D01*
X123300500Y-62846153D01*
X190024500Y-62846153D01*
X190024500Y-63003846D01*
X190055261Y-63158489D01*
X190055264Y-63158501D01*
X190115602Y-63304172D01*
X190115609Y-63304185D01*
X190203210Y-63435288D01*
X190203213Y-63435292D01*
X190314707Y-63546786D01*
X190314711Y-63546789D01*
X190445814Y-63634390D01*
X190445827Y-63634397D01*
X190579927Y-63689942D01*
X190591503Y-63694737D01*
X190746153Y-63725499D01*
X190746156Y-63725500D01*
X190746158Y-63725500D01*
X190903844Y-63725500D01*
X190903845Y-63725499D01*
X191058497Y-63694737D01*
X191204179Y-63634394D01*
X191335289Y-63546789D01*
X191446789Y-63435289D01*
X191534394Y-63304179D01*
X191594737Y-63158497D01*
X191625500Y-63003842D01*
X191625500Y-62846158D01*
X191625500Y-62846155D01*
X191625499Y-62846153D01*
X191594738Y-62691510D01*
X191594737Y-62691503D01*
X191594735Y-62691498D01*
X191534397Y-62545827D01*
X191534390Y-62545814D01*
X191446789Y-62414711D01*
X191446786Y-62414707D01*
X191335292Y-62303213D01*
X191335288Y-62303210D01*
X191204185Y-62215609D01*
X191204172Y-62215602D01*
X191058501Y-62155264D01*
X191058489Y-62155261D01*
X190903845Y-62124500D01*
X190903842Y-62124500D01*
X190746158Y-62124500D01*
X190746155Y-62124500D01*
X190591510Y-62155261D01*
X190591498Y-62155264D01*
X190445827Y-62215602D01*
X190445814Y-62215609D01*
X190314711Y-62303210D01*
X190314707Y-62303213D01*
X190203213Y-62414707D01*
X190203210Y-62414711D01*
X190115609Y-62545814D01*
X190115602Y-62545827D01*
X190055264Y-62691498D01*
X190055261Y-62691510D01*
X190024500Y-62846153D01*
X123300500Y-62846153D01*
X123300500Y-60521153D01*
X146199500Y-60521153D01*
X146199500Y-60678846D01*
X146230261Y-60833489D01*
X146230264Y-60833501D01*
X146290602Y-60979172D01*
X146290609Y-60979185D01*
X146378210Y-61110288D01*
X146378213Y-61110292D01*
X146489707Y-61221786D01*
X146489711Y-61221789D01*
X146620814Y-61309390D01*
X146620827Y-61309397D01*
X146766498Y-61369735D01*
X146766503Y-61369737D01*
X146921153Y-61400499D01*
X146921156Y-61400500D01*
X146921158Y-61400500D01*
X147078844Y-61400500D01*
X147078845Y-61400499D01*
X147233497Y-61369737D01*
X147379179Y-61309394D01*
X147510289Y-61221789D01*
X147621789Y-61110289D01*
X147709394Y-60979179D01*
X147769737Y-60833497D01*
X147800500Y-60678842D01*
X147800500Y-60521158D01*
X147800500Y-60521155D01*
X147800499Y-60521153D01*
X147769738Y-60366510D01*
X147769737Y-60366503D01*
X147769735Y-60366498D01*
X147709397Y-60220827D01*
X147709390Y-60220814D01*
X147621789Y-60089711D01*
X147621786Y-60089707D01*
X147510292Y-59978213D01*
X147510288Y-59978210D01*
X147379185Y-59890609D01*
X147379172Y-59890602D01*
X147233501Y-59830264D01*
X147233489Y-59830261D01*
X147078845Y-59799500D01*
X147078842Y-59799500D01*
X146921158Y-59799500D01*
X146921155Y-59799500D01*
X146766510Y-59830261D01*
X146766498Y-59830264D01*
X146620827Y-59890602D01*
X146620814Y-59890609D01*
X146489711Y-59978210D01*
X146489707Y-59978213D01*
X146378213Y-60089707D01*
X146378210Y-60089711D01*
X146290609Y-60220814D01*
X146290602Y-60220827D01*
X146230264Y-60366498D01*
X146230261Y-60366510D01*
X146199500Y-60521153D01*
X123300500Y-60521153D01*
X123300500Y-59271153D01*
X153599500Y-59271153D01*
X153599500Y-59428846D01*
X153630261Y-59583489D01*
X153630264Y-59583501D01*
X153690602Y-59729172D01*
X153690609Y-59729185D01*
X153778210Y-59860288D01*
X153778213Y-59860292D01*
X153889707Y-59971786D01*
X153889711Y-59971789D01*
X154020814Y-60059390D01*
X154020827Y-60059397D01*
X154094013Y-60089711D01*
X154166503Y-60119737D01*
X154321153Y-60150499D01*
X154321156Y-60150500D01*
X154321158Y-60150500D01*
X154478844Y-60150500D01*
X154478845Y-60150499D01*
X154633497Y-60119737D01*
X154779179Y-60059394D01*
X154910289Y-59971789D01*
X155021789Y-59860289D01*
X155109394Y-59729179D01*
X155169737Y-59583497D01*
X155200500Y-59428842D01*
X155200500Y-59271158D01*
X155200500Y-59271155D01*
X155200499Y-59271153D01*
X155180543Y-59170827D01*
X155169737Y-59116503D01*
X155169735Y-59116498D01*
X155109397Y-58970827D01*
X155109390Y-58970814D01*
X155021789Y-58839711D01*
X155021786Y-58839707D01*
X154910289Y-58728210D01*
X154895259Y-58718168D01*
X154779185Y-58640609D01*
X154779172Y-58640602D01*
X154732217Y-58621153D01*
X162224500Y-58621153D01*
X162224500Y-58778846D01*
X162255261Y-58933489D01*
X162255264Y-58933501D01*
X162315602Y-59079172D01*
X162315609Y-59079185D01*
X162403210Y-59210288D01*
X162403213Y-59210292D01*
X162514707Y-59321786D01*
X162514711Y-59321789D01*
X162645814Y-59409390D01*
X162645827Y-59409397D01*
X162791498Y-59469735D01*
X162791503Y-59469737D01*
X162946153Y-59500499D01*
X162946156Y-59500500D01*
X162946158Y-59500500D01*
X163103844Y-59500500D01*
X163103845Y-59500499D01*
X163258497Y-59469737D01*
X163314120Y-59446697D01*
X163409808Y-59407063D01*
X163410266Y-59408170D01*
X163472447Y-59395223D01*
X163514929Y-59407696D01*
X163515192Y-59407063D01*
X163666498Y-59469735D01*
X163666503Y-59469737D01*
X163821153Y-59500499D01*
X163821156Y-59500500D01*
X163821158Y-59500500D01*
X163978844Y-59500500D01*
X163978845Y-59500499D01*
X164133497Y-59469737D01*
X164279179Y-59409394D01*
X164410289Y-59321789D01*
X164521789Y-59210289D01*
X164609394Y-59079179D01*
X164669737Y-58933497D01*
X164700500Y-58778842D01*
X164700500Y-58621158D01*
X164700500Y-58621155D01*
X164700499Y-58621153D01*
X164669737Y-58466503D01*
X164655823Y-58432912D01*
X164609397Y-58320827D01*
X164609390Y-58320814D01*
X164521789Y-58189711D01*
X164521786Y-58189707D01*
X164410292Y-58078213D01*
X164410288Y-58078210D01*
X164279185Y-57990609D01*
X164279172Y-57990602D01*
X164133501Y-57930264D01*
X164133489Y-57930261D01*
X163978845Y-57899500D01*
X163978842Y-57899500D01*
X163821158Y-57899500D01*
X163821155Y-57899500D01*
X163666510Y-57930261D01*
X163666498Y-57930264D01*
X163515193Y-57992937D01*
X163514734Y-57991831D01*
X163452544Y-58004777D01*
X163410068Y-57992304D01*
X163409807Y-57992937D01*
X163258501Y-57930264D01*
X163258489Y-57930261D01*
X163103845Y-57899500D01*
X163103842Y-57899500D01*
X162946158Y-57899500D01*
X162946155Y-57899500D01*
X162791510Y-57930261D01*
X162791498Y-57930264D01*
X162645827Y-57990602D01*
X162645814Y-57990609D01*
X162514711Y-58078210D01*
X162514707Y-58078213D01*
X162403213Y-58189707D01*
X162403210Y-58189711D01*
X162315609Y-58320814D01*
X162315602Y-58320827D01*
X162255264Y-58466498D01*
X162255261Y-58466510D01*
X162224500Y-58621153D01*
X154732217Y-58621153D01*
X154633501Y-58580264D01*
X154633489Y-58580261D01*
X154478845Y-58549500D01*
X154478842Y-58549500D01*
X154321158Y-58549500D01*
X154321155Y-58549500D01*
X154166510Y-58580261D01*
X154166498Y-58580264D01*
X154020827Y-58640602D01*
X154020814Y-58640609D01*
X153889711Y-58728210D01*
X153889707Y-58728213D01*
X153778213Y-58839707D01*
X153778210Y-58839711D01*
X153690609Y-58970814D01*
X153690602Y-58970827D01*
X153630264Y-59116498D01*
X153630261Y-59116510D01*
X153599500Y-59271153D01*
X123300500Y-59271153D01*
X123300500Y-54200000D01*
X165675000Y-54200000D01*
X165675000Y-56475000D01*
X168351000Y-56475000D01*
X168418039Y-56494685D01*
X168463794Y-56547489D01*
X168475000Y-56599000D01*
X168475000Y-57425500D01*
X168455315Y-57492539D01*
X168402511Y-57538294D01*
X168351000Y-57549500D01*
X168196155Y-57549500D01*
X168041510Y-57580261D01*
X168041498Y-57580264D01*
X167895827Y-57640602D01*
X167895814Y-57640609D01*
X167764711Y-57728210D01*
X167764707Y-57728213D01*
X167653213Y-57839707D01*
X167653210Y-57839711D01*
X167565609Y-57970814D01*
X167565602Y-57970827D01*
X167505264Y-58116498D01*
X167505261Y-58116510D01*
X167474500Y-58271153D01*
X167474500Y-58428846D01*
X167505261Y-58583489D01*
X167505264Y-58583501D01*
X167565602Y-58729172D01*
X167565609Y-58729185D01*
X167653210Y-58860288D01*
X167653213Y-58860292D01*
X167653275Y-58860354D01*
X167653296Y-58860393D01*
X167657076Y-58864999D01*
X167656202Y-58865715D01*
X167686760Y-58921677D01*
X167681776Y-58991369D01*
X167653275Y-59035716D01*
X167649283Y-59039707D01*
X167649280Y-59039711D01*
X167561679Y-59170814D01*
X167561672Y-59170827D01*
X167501334Y-59316498D01*
X167501331Y-59316510D01*
X167470570Y-59471153D01*
X167470570Y-59628846D01*
X167501331Y-59783489D01*
X167501334Y-59783501D01*
X167561672Y-59929172D01*
X167561679Y-59929185D01*
X167649280Y-60060288D01*
X167649283Y-60060292D01*
X167760777Y-60171786D01*
X167760781Y-60171789D01*
X167891884Y-60259390D01*
X167891897Y-60259397D01*
X168037568Y-60319735D01*
X168037573Y-60319737D01*
X168192223Y-60350499D01*
X168192226Y-60350500D01*
X168192228Y-60350500D01*
X168349914Y-60350500D01*
X168349915Y-60350499D01*
X168504567Y-60319737D01*
X168650249Y-60259394D01*
X168781359Y-60171789D01*
X168892859Y-60060289D01*
X168980464Y-59929179D01*
X168980465Y-59929176D01*
X168980467Y-59929173D01*
X169012146Y-59852689D01*
X169030666Y-59807978D01*
X169074506Y-59753575D01*
X169140800Y-59731510D01*
X169208500Y-59748789D01*
X169256110Y-59799926D01*
X169259788Y-59807978D01*
X169311674Y-59933244D01*
X169311679Y-59933253D01*
X169399280Y-60064356D01*
X169399283Y-60064360D01*
X169510777Y-60175854D01*
X169510781Y-60175857D01*
X169641884Y-60263458D01*
X169641897Y-60263465D01*
X169777747Y-60319735D01*
X169787573Y-60323805D01*
X169921772Y-60350499D01*
X169942223Y-60354567D01*
X169942226Y-60354568D01*
X169942228Y-60354568D01*
X170099914Y-60354568D01*
X170099915Y-60354567D01*
X170254567Y-60323805D01*
X170400249Y-60263462D01*
X170531359Y-60175857D01*
X170642859Y-60064357D01*
X170730464Y-59933247D01*
X170732152Y-59929173D01*
X170760684Y-59860288D01*
X170790807Y-59787565D01*
X170821570Y-59632910D01*
X170821570Y-59475226D01*
X170821570Y-59475223D01*
X170821569Y-59475221D01*
X170812344Y-59428844D01*
X170790807Y-59320571D01*
X170770340Y-59271158D01*
X170730467Y-59174895D01*
X170730460Y-59174882D01*
X170642859Y-59043779D01*
X170642856Y-59043775D01*
X170642794Y-59043713D01*
X170642771Y-59043672D01*
X170638994Y-59039069D01*
X170639866Y-59038352D01*
X170609309Y-58982390D01*
X170614293Y-58912698D01*
X170642800Y-58868345D01*
X170646789Y-58864357D01*
X170734394Y-58733247D01*
X170736082Y-58729173D01*
X170754631Y-58684390D01*
X170794737Y-58587565D01*
X170825500Y-58432910D01*
X170825500Y-58275226D01*
X170825500Y-58275223D01*
X170825499Y-58275221D01*
X170808489Y-58189707D01*
X170794737Y-58120571D01*
X170741870Y-57992937D01*
X170734397Y-57974895D01*
X170734393Y-57974888D01*
X170723749Y-57958958D01*
X170723748Y-57958956D01*
X170681784Y-57896153D01*
X180899500Y-57896153D01*
X180899500Y-58053846D01*
X180930261Y-58208489D01*
X180930264Y-58208501D01*
X180990602Y-58354172D01*
X180990609Y-58354185D01*
X181078210Y-58485288D01*
X181078213Y-58485292D01*
X181189707Y-58596786D01*
X181189711Y-58596789D01*
X181320814Y-58684390D01*
X181320827Y-58684397D01*
X181438756Y-58733244D01*
X181466503Y-58744737D01*
X181621153Y-58775499D01*
X181621156Y-58775500D01*
X181621158Y-58775500D01*
X181778844Y-58775500D01*
X181778845Y-58775499D01*
X181933497Y-58744737D01*
X182079179Y-58684394D01*
X182210289Y-58596789D01*
X182321789Y-58485289D01*
X182409394Y-58354179D01*
X182469737Y-58208497D01*
X182500500Y-58053842D01*
X182500500Y-57896158D01*
X182500500Y-57896155D01*
X182500499Y-57896153D01*
X182469738Y-57741510D01*
X182469737Y-57741503D01*
X182444947Y-57681653D01*
X182409397Y-57595827D01*
X182409390Y-57595814D01*
X182321789Y-57464711D01*
X182321786Y-57464707D01*
X182210292Y-57353213D01*
X182210288Y-57353210D01*
X182079185Y-57265609D01*
X182079172Y-57265602D01*
X181933501Y-57205264D01*
X181933489Y-57205261D01*
X181778845Y-57174500D01*
X181778842Y-57174500D01*
X181621158Y-57174500D01*
X181621155Y-57174500D01*
X181466510Y-57205261D01*
X181466498Y-57205264D01*
X181320827Y-57265602D01*
X181320814Y-57265609D01*
X181189711Y-57353210D01*
X181189707Y-57353213D01*
X181078213Y-57464707D01*
X181078210Y-57464711D01*
X180990609Y-57595814D01*
X180990602Y-57595827D01*
X180930264Y-57741498D01*
X180930261Y-57741510D01*
X180899500Y-57896153D01*
X170681784Y-57896153D01*
X170646789Y-57843779D01*
X170646786Y-57843775D01*
X170535292Y-57732281D01*
X170535288Y-57732278D01*
X170466117Y-57686059D01*
X170421312Y-57632447D01*
X170412605Y-57563122D01*
X170442760Y-57500094D01*
X170502203Y-57463375D01*
X170535540Y-57458958D01*
X174225000Y-57475000D01*
X174240721Y-55415427D01*
X174246786Y-55378061D01*
X174253402Y-55357701D01*
X174280500Y-55186611D01*
X174280500Y-55013389D01*
X176959500Y-55013389D01*
X176959500Y-55186610D01*
X176986597Y-55357697D01*
X176986597Y-55357699D01*
X176986598Y-55357701D01*
X177040127Y-55522445D01*
X177118768Y-55676788D01*
X177220586Y-55816928D01*
X177343072Y-55939414D01*
X177483212Y-56041232D01*
X177637555Y-56119873D01*
X177802299Y-56173402D01*
X177973389Y-56200500D01*
X177973390Y-56200500D01*
X178546610Y-56200500D01*
X178546611Y-56200500D01*
X178717701Y-56173402D01*
X178882445Y-56119873D01*
X179036788Y-56041232D01*
X179176928Y-55939414D01*
X179299414Y-55816928D01*
X179401232Y-55676788D01*
X179479873Y-55522445D01*
X179533402Y-55357701D01*
X179560500Y-55186611D01*
X179560500Y-55096153D01*
X190074500Y-55096153D01*
X190074500Y-55253846D01*
X190105261Y-55408489D01*
X190105264Y-55408501D01*
X190165602Y-55554172D01*
X190165609Y-55554185D01*
X190253210Y-55685288D01*
X190253213Y-55685292D01*
X190364707Y-55796786D01*
X190364711Y-55796789D01*
X190495814Y-55884390D01*
X190495827Y-55884397D01*
X190628645Y-55939411D01*
X190641503Y-55944737D01*
X190796153Y-55975499D01*
X190796156Y-55975500D01*
X190796158Y-55975500D01*
X190953844Y-55975500D01*
X190953845Y-55975499D01*
X191108497Y-55944737D01*
X191254179Y-55884394D01*
X191385289Y-55796789D01*
X191496789Y-55685289D01*
X191584394Y-55554179D01*
X191644737Y-55408497D01*
X191675500Y-55253842D01*
X191675500Y-55096158D01*
X191675500Y-55096155D01*
X191675499Y-55096153D01*
X191644738Y-54941510D01*
X191644737Y-54941503D01*
X191603646Y-54842299D01*
X191584397Y-54795827D01*
X191584390Y-54795814D01*
X191496789Y-54664711D01*
X191496786Y-54664707D01*
X191385292Y-54553213D01*
X191385288Y-54553210D01*
X191254185Y-54465609D01*
X191254172Y-54465602D01*
X191108501Y-54405264D01*
X191108489Y-54405261D01*
X190953845Y-54374500D01*
X190953842Y-54374500D01*
X190796158Y-54374500D01*
X190796155Y-54374500D01*
X190641510Y-54405261D01*
X190641498Y-54405264D01*
X190495827Y-54465602D01*
X190495814Y-54465609D01*
X190364711Y-54553210D01*
X190364707Y-54553213D01*
X190253213Y-54664707D01*
X190253210Y-54664711D01*
X190165609Y-54795814D01*
X190165602Y-54795827D01*
X190105264Y-54941498D01*
X190105261Y-54941510D01*
X190074500Y-55096153D01*
X179560500Y-55096153D01*
X179560500Y-55013389D01*
X179533402Y-54842299D01*
X179479873Y-54677555D01*
X179401232Y-54523212D01*
X179299414Y-54383072D01*
X179176928Y-54260586D01*
X179036788Y-54158768D01*
X178882445Y-54080127D01*
X178717701Y-54026598D01*
X178717699Y-54026597D01*
X178717698Y-54026597D01*
X178586271Y-54005781D01*
X178546611Y-53999500D01*
X177973389Y-53999500D01*
X177933728Y-54005781D01*
X177802302Y-54026597D01*
X177637552Y-54080128D01*
X177483211Y-54158768D01*
X177453555Y-54180315D01*
X177343072Y-54260586D01*
X177343070Y-54260588D01*
X177343069Y-54260588D01*
X177220588Y-54383069D01*
X177220588Y-54383070D01*
X177220586Y-54383072D01*
X177204463Y-54405264D01*
X177118768Y-54523211D01*
X177040128Y-54677552D01*
X176986597Y-54842302D01*
X176959500Y-55013389D01*
X174280500Y-55013389D01*
X174253402Y-54842299D01*
X174248643Y-54827654D01*
X174247123Y-54818532D01*
X174247831Y-54812678D01*
X174245440Y-54797202D01*
X174250000Y-54200000D01*
X173853829Y-54200000D01*
X173786790Y-54180315D01*
X173780951Y-54176323D01*
X173756788Y-54158768D01*
X173602445Y-54080127D01*
X173437701Y-54026598D01*
X173437699Y-54026597D01*
X173437698Y-54026597D01*
X173306271Y-54005781D01*
X173266611Y-53999500D01*
X173093389Y-53999500D01*
X173053728Y-54005781D01*
X172922302Y-54026597D01*
X172757552Y-54080128D01*
X172603210Y-54158769D01*
X172603208Y-54158770D01*
X172586080Y-54171214D01*
X172579055Y-54176318D01*
X172513251Y-54199798D01*
X172506171Y-54200000D01*
X165675000Y-54200000D01*
X123300500Y-54200000D01*
X123300500Y-52796153D01*
X144874500Y-52796153D01*
X144874500Y-52953846D01*
X144905261Y-53108489D01*
X144905264Y-53108501D01*
X144965602Y-53254172D01*
X144965609Y-53254185D01*
X145053210Y-53385288D01*
X145053213Y-53385292D01*
X145164707Y-53496786D01*
X145164711Y-53496789D01*
X145295814Y-53584390D01*
X145295827Y-53584397D01*
X145441498Y-53644735D01*
X145441503Y-53644737D01*
X145596153Y-53675499D01*
X145596156Y-53675500D01*
X145596158Y-53675500D01*
X145753844Y-53675500D01*
X145753845Y-53675499D01*
X145908497Y-53644737D01*
X146054179Y-53584394D01*
X146185289Y-53496789D01*
X146296789Y-53385289D01*
X146384394Y-53254179D01*
X146444737Y-53108497D01*
X146475500Y-52953842D01*
X146475500Y-52796158D01*
X146475500Y-52796155D01*
X146475499Y-52796153D01*
X146444738Y-52641510D01*
X146444737Y-52641503D01*
X146415597Y-52571153D01*
X154724500Y-52571153D01*
X154724500Y-52728846D01*
X154755261Y-52883489D01*
X154755264Y-52883501D01*
X154815602Y-53029172D01*
X154815609Y-53029185D01*
X154903210Y-53160288D01*
X154903213Y-53160292D01*
X155014707Y-53271786D01*
X155014711Y-53271789D01*
X155145814Y-53359390D01*
X155145827Y-53359397D01*
X155291498Y-53419735D01*
X155291503Y-53419737D01*
X155446153Y-53450499D01*
X155446156Y-53450500D01*
X155446158Y-53450500D01*
X155603844Y-53450500D01*
X155603845Y-53450499D01*
X155758497Y-53419737D01*
X155904179Y-53359394D01*
X156035289Y-53271789D01*
X156146789Y-53160289D01*
X156234394Y-53029179D01*
X156294737Y-52883497D01*
X156325500Y-52728842D01*
X156325500Y-52571158D01*
X156325500Y-52571155D01*
X156325499Y-52571153D01*
X156294737Y-52416503D01*
X156273283Y-52364707D01*
X156234397Y-52270827D01*
X156234390Y-52270814D01*
X156146789Y-52139711D01*
X156146786Y-52139707D01*
X156035292Y-52028213D01*
X156035288Y-52028210D01*
X155904185Y-51940609D01*
X155904172Y-51940602D01*
X155758501Y-51880264D01*
X155758489Y-51880261D01*
X155603845Y-51849500D01*
X155603842Y-51849500D01*
X155446158Y-51849500D01*
X155446155Y-51849500D01*
X155291510Y-51880261D01*
X155291498Y-51880264D01*
X155145827Y-51940602D01*
X155145814Y-51940609D01*
X155014711Y-52028210D01*
X155014707Y-52028213D01*
X154903213Y-52139707D01*
X154903210Y-52139711D01*
X154815609Y-52270814D01*
X154815602Y-52270827D01*
X154755264Y-52416498D01*
X154755261Y-52416510D01*
X154724500Y-52571153D01*
X146415597Y-52571153D01*
X146404924Y-52545386D01*
X146384397Y-52495827D01*
X146384390Y-52495814D01*
X146296789Y-52364711D01*
X146296786Y-52364707D01*
X146185292Y-52253213D01*
X146185288Y-52253210D01*
X146054185Y-52165609D01*
X146054172Y-52165602D01*
X145908501Y-52105264D01*
X145908489Y-52105261D01*
X145753845Y-52074500D01*
X145753842Y-52074500D01*
X145596158Y-52074500D01*
X145596155Y-52074500D01*
X145441510Y-52105261D01*
X145441498Y-52105264D01*
X145295827Y-52165602D01*
X145295814Y-52165609D01*
X145164711Y-52253210D01*
X145164707Y-52253213D01*
X145053213Y-52364707D01*
X145053210Y-52364711D01*
X144965609Y-52495814D01*
X144965602Y-52495827D01*
X144905264Y-52641498D01*
X144905261Y-52641510D01*
X144874500Y-52796153D01*
X123300500Y-52796153D01*
X123300500Y-50271153D01*
X168224500Y-50271153D01*
X168224500Y-50428846D01*
X168255261Y-50583489D01*
X168255264Y-50583501D01*
X168315602Y-50729172D01*
X168315609Y-50729185D01*
X168403210Y-50860288D01*
X168403213Y-50860292D01*
X168514707Y-50971786D01*
X168514711Y-50971789D01*
X168645814Y-51059390D01*
X168645827Y-51059397D01*
X168791498Y-51119735D01*
X168791503Y-51119737D01*
X168946153Y-51150499D01*
X168946156Y-51150500D01*
X168946158Y-51150500D01*
X169103844Y-51150500D01*
X169103845Y-51150499D01*
X169258497Y-51119737D01*
X169404179Y-51059394D01*
X169535289Y-50971789D01*
X169646789Y-50860289D01*
X169734394Y-50729179D01*
X169794737Y-50583497D01*
X169825500Y-50428842D01*
X169825500Y-50271158D01*
X169825500Y-50271155D01*
X169825499Y-50271153D01*
X169794738Y-50116510D01*
X169794737Y-50116503D01*
X169794735Y-50116498D01*
X169734397Y-49970827D01*
X169734390Y-49970814D01*
X169646789Y-49839711D01*
X169646786Y-49839707D01*
X169535292Y-49728213D01*
X169535288Y-49728210D01*
X169404185Y-49640609D01*
X169404172Y-49640602D01*
X169258501Y-49580264D01*
X169258489Y-49580261D01*
X169103845Y-49549500D01*
X169103842Y-49549500D01*
X168946158Y-49549500D01*
X168946155Y-49549500D01*
X168791510Y-49580261D01*
X168791498Y-49580264D01*
X168645827Y-49640602D01*
X168645814Y-49640609D01*
X168514711Y-49728210D01*
X168514707Y-49728213D01*
X168403213Y-49839707D01*
X168403210Y-49839711D01*
X168315609Y-49970814D01*
X168315602Y-49970827D01*
X168255264Y-50116498D01*
X168255261Y-50116510D01*
X168224500Y-50271153D01*
X123300500Y-50271153D01*
X123300500Y-44941995D01*
X125679500Y-44941995D01*
X125679500Y-45178004D01*
X125679501Y-45178020D01*
X125704197Y-45365609D01*
X125710307Y-45412014D01*
X125721346Y-45453211D01*
X125771394Y-45639993D01*
X125861714Y-45858045D01*
X125861719Y-45858056D01*
X125932677Y-45980957D01*
X125979727Y-46062450D01*
X125979729Y-46062453D01*
X125979730Y-46062454D01*
X126123406Y-46249697D01*
X126123412Y-46249704D01*
X126290295Y-46416587D01*
X126290301Y-46416592D01*
X126477550Y-46560273D01*
X126608918Y-46636118D01*
X126681943Y-46678280D01*
X126681948Y-46678282D01*
X126681951Y-46678284D01*
X126900007Y-46768606D01*
X127127986Y-46829693D01*
X127361989Y-46860500D01*
X127361996Y-46860500D01*
X127598004Y-46860500D01*
X127598011Y-46860500D01*
X127832014Y-46829693D01*
X128059993Y-46768606D01*
X128278049Y-46678284D01*
X128482450Y-46560273D01*
X128669699Y-46416592D01*
X128836592Y-46249699D01*
X128980273Y-46062450D01*
X129018550Y-45996153D01*
X178224500Y-45996153D01*
X178224500Y-46153846D01*
X178255261Y-46308489D01*
X178255264Y-46308501D01*
X178315602Y-46454172D01*
X178315609Y-46454185D01*
X178403210Y-46585288D01*
X178403213Y-46585292D01*
X178514707Y-46696786D01*
X178514711Y-46696789D01*
X178645814Y-46784390D01*
X178645827Y-46784397D01*
X178751784Y-46828285D01*
X178791503Y-46844737D01*
X178946153Y-46875499D01*
X178946156Y-46875500D01*
X178946158Y-46875500D01*
X179103844Y-46875500D01*
X179103845Y-46875499D01*
X179258497Y-46844737D01*
X179404179Y-46784394D01*
X179535289Y-46696789D01*
X179646789Y-46585289D01*
X179734394Y-46454179D01*
X179794737Y-46308497D01*
X179825500Y-46153842D01*
X179825500Y-45996158D01*
X179825500Y-45996155D01*
X179825499Y-45996153D01*
X180699500Y-45996153D01*
X180699500Y-46153846D01*
X180730261Y-46308489D01*
X180730264Y-46308501D01*
X180790602Y-46454172D01*
X180790609Y-46454185D01*
X180878210Y-46585288D01*
X180878213Y-46585292D01*
X180989707Y-46696786D01*
X180989711Y-46696789D01*
X181120814Y-46784390D01*
X181120827Y-46784397D01*
X181226784Y-46828285D01*
X181266503Y-46844737D01*
X181421153Y-46875499D01*
X181421156Y-46875500D01*
X181421158Y-46875500D01*
X181578844Y-46875500D01*
X181578845Y-46875499D01*
X181733497Y-46844737D01*
X181879179Y-46784394D01*
X182010289Y-46696789D01*
X182121789Y-46585289D01*
X182209394Y-46454179D01*
X182269737Y-46308497D01*
X182300500Y-46153842D01*
X182300500Y-45996158D01*
X182300500Y-45996155D01*
X182300499Y-45996153D01*
X183024500Y-45996153D01*
X183024500Y-46153846D01*
X183055261Y-46308489D01*
X183055264Y-46308501D01*
X183115602Y-46454172D01*
X183115609Y-46454185D01*
X183203210Y-46585288D01*
X183203213Y-46585292D01*
X183314707Y-46696786D01*
X183314711Y-46696789D01*
X183445814Y-46784390D01*
X183445827Y-46784397D01*
X183551784Y-46828285D01*
X183591503Y-46844737D01*
X183746153Y-46875499D01*
X183746156Y-46875500D01*
X183746158Y-46875500D01*
X183903844Y-46875500D01*
X183903845Y-46875499D01*
X184058497Y-46844737D01*
X184204179Y-46784394D01*
X184335289Y-46696789D01*
X184446789Y-46585289D01*
X184534394Y-46454179D01*
X184594737Y-46308497D01*
X184625500Y-46153842D01*
X184625500Y-45996158D01*
X184625500Y-45996155D01*
X184625499Y-45996153D01*
X184611955Y-45928063D01*
X184594737Y-45841503D01*
X184573401Y-45789993D01*
X184534397Y-45695827D01*
X184534390Y-45695814D01*
X184446789Y-45564711D01*
X184446786Y-45564707D01*
X184335292Y-45453213D01*
X184335288Y-45453210D01*
X184204185Y-45365609D01*
X184204172Y-45365602D01*
X184058501Y-45305264D01*
X184058489Y-45305261D01*
X183903845Y-45274500D01*
X183903842Y-45274500D01*
X183746158Y-45274500D01*
X183746155Y-45274500D01*
X183591510Y-45305261D01*
X183591498Y-45305264D01*
X183445827Y-45365602D01*
X183445814Y-45365609D01*
X183314711Y-45453210D01*
X183314707Y-45453213D01*
X183203213Y-45564707D01*
X183203210Y-45564711D01*
X183115609Y-45695814D01*
X183115602Y-45695827D01*
X183055264Y-45841498D01*
X183055261Y-45841510D01*
X183024500Y-45996153D01*
X182300499Y-45996153D01*
X182286955Y-45928063D01*
X182269737Y-45841503D01*
X182248401Y-45789993D01*
X182209397Y-45695827D01*
X182209390Y-45695814D01*
X182121789Y-45564711D01*
X182121786Y-45564707D01*
X182010292Y-45453213D01*
X182010288Y-45453210D01*
X181879185Y-45365609D01*
X181879172Y-45365602D01*
X181733501Y-45305264D01*
X181733489Y-45305261D01*
X181578845Y-45274500D01*
X181578842Y-45274500D01*
X181421158Y-45274500D01*
X181421155Y-45274500D01*
X181266510Y-45305261D01*
X181266498Y-45305264D01*
X181120827Y-45365602D01*
X181120814Y-45365609D01*
X180989711Y-45453210D01*
X180989707Y-45453213D01*
X180878213Y-45564707D01*
X180878210Y-45564711D01*
X180790609Y-45695814D01*
X180790602Y-45695827D01*
X180730264Y-45841498D01*
X180730261Y-45841510D01*
X180699500Y-45996153D01*
X179825499Y-45996153D01*
X179811955Y-45928063D01*
X179794737Y-45841503D01*
X179773401Y-45789993D01*
X179734397Y-45695827D01*
X179734390Y-45695814D01*
X179646789Y-45564711D01*
X179646786Y-45564707D01*
X179535292Y-45453213D01*
X179535288Y-45453210D01*
X179404185Y-45365609D01*
X179404172Y-45365602D01*
X179258501Y-45305264D01*
X179258489Y-45305261D01*
X179103845Y-45274500D01*
X179103842Y-45274500D01*
X178946158Y-45274500D01*
X178946155Y-45274500D01*
X178791510Y-45305261D01*
X178791498Y-45305264D01*
X178645827Y-45365602D01*
X178645814Y-45365609D01*
X178514711Y-45453210D01*
X178514707Y-45453213D01*
X178403213Y-45564707D01*
X178403210Y-45564711D01*
X178315609Y-45695814D01*
X178315602Y-45695827D01*
X178255264Y-45841498D01*
X178255261Y-45841510D01*
X178224500Y-45996153D01*
X129018550Y-45996153D01*
X129098284Y-45858049D01*
X129188606Y-45639993D01*
X129249693Y-45412014D01*
X129280500Y-45178011D01*
X129280500Y-45091995D01*
X191709500Y-45091995D01*
X191709500Y-45328004D01*
X191709501Y-45328020D01*
X191725982Y-45453210D01*
X191740307Y-45562014D01*
X191776159Y-45695814D01*
X191801394Y-45789993D01*
X191891714Y-46008045D01*
X191891719Y-46008056D01*
X191923128Y-46062457D01*
X192009727Y-46212450D01*
X192009729Y-46212453D01*
X192009730Y-46212454D01*
X192153406Y-46399697D01*
X192153412Y-46399704D01*
X192320295Y-46566587D01*
X192320301Y-46566592D01*
X192507550Y-46710273D01*
X192608584Y-46768605D01*
X192711943Y-46828280D01*
X192711948Y-46828282D01*
X192711951Y-46828284D01*
X192930007Y-46918606D01*
X193157986Y-46979693D01*
X193391989Y-47010500D01*
X193391996Y-47010500D01*
X193628004Y-47010500D01*
X193628011Y-47010500D01*
X193862014Y-46979693D01*
X194089993Y-46918606D01*
X194308049Y-46828284D01*
X194512450Y-46710273D01*
X194699699Y-46566592D01*
X194866592Y-46399699D01*
X195010273Y-46212450D01*
X195128284Y-46008049D01*
X195218606Y-45789993D01*
X195279693Y-45562014D01*
X195310500Y-45328011D01*
X195310500Y-45091989D01*
X195279693Y-44857986D01*
X195218606Y-44630007D01*
X195128284Y-44411951D01*
X195128282Y-44411948D01*
X195128280Y-44411943D01*
X195041681Y-44261951D01*
X195010273Y-44207550D01*
X194866592Y-44020301D01*
X194866587Y-44020295D01*
X194699704Y-43853412D01*
X194699697Y-43853406D01*
X194512454Y-43709730D01*
X194512453Y-43709729D01*
X194512450Y-43709727D01*
X194430957Y-43662677D01*
X194308056Y-43591719D01*
X194308045Y-43591714D01*
X194089993Y-43501394D01*
X193862014Y-43440307D01*
X193862013Y-43440306D01*
X193862010Y-43440306D01*
X193628020Y-43409501D01*
X193628017Y-43409500D01*
X193628011Y-43409500D01*
X193391989Y-43409500D01*
X193391983Y-43409500D01*
X193391979Y-43409501D01*
X193157989Y-43440306D01*
X192930006Y-43501394D01*
X192711954Y-43591714D01*
X192711943Y-43591719D01*
X192507545Y-43709730D01*
X192320302Y-43853406D01*
X192320295Y-43853412D01*
X192153412Y-44020295D01*
X192153406Y-44020302D01*
X192009730Y-44207545D01*
X191891719Y-44411943D01*
X191891714Y-44411954D01*
X191801394Y-44630006D01*
X191740306Y-44857989D01*
X191709501Y-45091979D01*
X191709500Y-45091995D01*
X129280500Y-45091995D01*
X129280500Y-44941989D01*
X129249693Y-44707986D01*
X129188606Y-44480007D01*
X129098284Y-44261951D01*
X129098282Y-44261948D01*
X129098280Y-44261943D01*
X129056118Y-44188918D01*
X128980273Y-44057550D01*
X128836592Y-43870301D01*
X128836587Y-43870295D01*
X128669704Y-43703412D01*
X128669697Y-43703406D01*
X128482454Y-43559730D01*
X128482453Y-43559729D01*
X128482450Y-43559727D01*
X128400957Y-43512677D01*
X128278056Y-43441719D01*
X128278045Y-43441714D01*
X128059993Y-43351394D01*
X127832010Y-43290306D01*
X127598020Y-43259501D01*
X127598017Y-43259500D01*
X127598011Y-43259500D01*
X127361989Y-43259500D01*
X127361983Y-43259500D01*
X127361979Y-43259501D01*
X127127989Y-43290306D01*
X126900006Y-43351394D01*
X126681954Y-43441714D01*
X126681943Y-43441719D01*
X126477545Y-43559730D01*
X126290302Y-43703406D01*
X126290295Y-43703412D01*
X126123412Y-43870295D01*
X126123406Y-43870302D01*
X125979730Y-44057545D01*
X125861719Y-44261943D01*
X125861714Y-44261954D01*
X125771394Y-44480006D01*
X125710306Y-44707989D01*
X125679501Y-44941979D01*
X125679500Y-44941995D01*
X123300500Y-44941995D01*
X123300500Y-41594500D01*
X123320185Y-41527461D01*
X123372989Y-41481706D01*
X123424500Y-41470500D01*
X197185500Y-41470500D01*
X197252539Y-41490185D01*
G37*
%TD.AperFunction*%
%TD*%
M02*
