%TF.GenerationSoftware,KiCad,Pcbnew,10.0.3*%
%TF.CreationDate,2026-08-08T18:02:01-05:00*%
%TF.ProjectId,mts-demod,6d74732d-6465-46d6-9f64-2e6b69636164,rev?*%
%TF.SameCoordinates,Original*%
%TF.FileFunction,Copper,L4,Bot*%
%TF.FilePolarity,Positive*%
%FSLAX46Y46*%
G04 Gerber Fmt 4.6, Leading zero omitted, Abs format (unit mm)*
G04 Created by KiCad (PCBNEW 10.0.3) date 2026-08-08 18:02:01*
%MOMM*%
%LPD*%
G01*
G04 APERTURE LIST*
%TA.AperFunction,ComponentPad*%
%ADD10O,1.600000X1.200000*%
%TD*%
%TA.AperFunction,ComponentPad*%
%ADD11C,1.200000*%
%TD*%
%TA.AperFunction,ComponentPad*%
%ADD12C,2.108200*%
%TD*%
%TA.AperFunction,ComponentPad*%
%ADD13C,1.574800*%
%TD*%
%TA.AperFunction,ComponentPad*%
%ADD14C,1.800000*%
%TD*%
%TA.AperFunction,ViaPad*%
%ADD15C,0.600000*%
%TD*%
%TA.AperFunction,ViaPad*%
%ADD16C,0.450000*%
%TD*%
%TA.AperFunction,Conductor*%
%ADD17C,0.570700*%
%TD*%
%TA.AperFunction,Conductor*%
%ADD18C,0.200000*%
%TD*%
G04 APERTURE END LIST*
D10*
%TO.P,U1,1,D+_1*%
%TO.N,Net-(U1-D+)*%
X178260000Y-55100000D03*
D11*
%TO.P,U1,2,GND_2*%
%TO.N,GND*%
X175720000Y-52560000D03*
%TO.P,U1,3,D-_3*%
%TO.N,FDS010_ANODE*%
X173180000Y-55100000D03*
%TD*%
D12*
%TO.P,J1,1,In_1*%
%TO.N,ADC_CH0*%
X128220000Y-72950000D03*
%TO.P,J1,2,Ext_2*%
%TO.N,GND*%
X125680000Y-70410000D03*
%TO.P,J1,3*%
X125680000Y-75490000D03*
%TO.P,J1,4*%
X130760000Y-75490000D03*
%TO.P,J1,5*%
X130760000Y-70410000D03*
%TD*%
D13*
%TO.P,J6,1,1_1*%
%TO.N,+10V*%
X191860000Y-67260002D03*
%TO.P,J6,2,2_2*%
X191860000Y-70260001D03*
%TO.P,J6,3,3_3*%
%TO.N,+15V*%
X191860000Y-73260000D03*
%TO.P,J6,4,4_4*%
X191860000Y-76259999D03*
%TO.P,J6,5,5_5*%
%TO.N,GND*%
X188860001Y-67260002D03*
%TO.P,J6,6,6_6*%
X188860001Y-70260001D03*
%TO.P,J6,7,7_7*%
%TO.N,+5V*%
X188860001Y-73260000D03*
%TO.P,J6,8,8_8*%
X188860001Y-76259999D03*
%TD*%
D12*
%TO.P,J3,1,In_1*%
%TO.N,ADC_CH1*%
X179960000Y-78850000D03*
%TO.P,J3,2,Ext_2*%
%TO.N,GND*%
X177420000Y-76310000D03*
%TO.P,J3,3*%
X177420000Y-81390000D03*
%TO.P,J3,4*%
X182500000Y-81390000D03*
%TO.P,J3,5*%
X182500000Y-76310000D03*
%TD*%
%TO.P,J4,1,In_1*%
%TO.N,ADC_CH1b*%
X156100000Y-67780000D03*
%TO.P,J4,2,Ext_2*%
%TO.N,GND*%
X153560000Y-65240000D03*
%TO.P,J4,3*%
X153560000Y-70320000D03*
%TO.P,J4,4*%
X158640000Y-70320000D03*
%TO.P,J4,5*%
X158640000Y-65240000D03*
%TD*%
%TO.P,J2,1,In_1*%
%TO.N,10MHz_DEMOD_IN*%
X167630000Y-70730000D03*
%TO.P,J2,2,Ext_2*%
%TO.N,GND*%
X170170000Y-73270000D03*
%TO.P,J2,3*%
X170170000Y-68190000D03*
%TO.P,J2,4*%
X165090000Y-68190000D03*
%TO.P,J2,5*%
X165090000Y-73270000D03*
%TD*%
D14*
%TO.P,J5,1,Pin_1_1*%
%TO.N,DEMOD_IF*%
X140830000Y-80620000D03*
%TO.P,J5,2,Pin_2_2*%
%TO.N,GND*%
X140830000Y-75540000D03*
%TO.P,J5,3,Pin_3_3*%
X145910000Y-80620000D03*
%TO.P,J5,4,Pin_4_4*%
X145910000Y-75540000D03*
%TO.P,J5,5,Pin_5_5*%
X150990000Y-80620000D03*
%TO.P,J5,6,Pin_6_6*%
X150990000Y-75540000D03*
%TO.P,J5,7,Pin_7_7*%
X156070000Y-80620000D03*
%TO.P,J5,8,Pin_8_8*%
%TO.N,ADC_CH1b*%
X156070000Y-75540000D03*
%TD*%
D15*
%TO.N,GND*%
X150075699Y-52098261D03*
X143975000Y-48996875D03*
X194676155Y-53850000D03*
X185793772Y-92794617D03*
X162397777Y-81925000D03*
X155425000Y-85600000D03*
X130075740Y-87600000D03*
X156150000Y-46101569D03*
X146425000Y-87111233D03*
X191700000Y-50726979D03*
X196133347Y-76570000D03*
X170446274Y-88298933D03*
X165325000Y-75818740D03*
X193780000Y-57910000D03*
X156155430Y-48996705D03*
X128539755Y-84475000D03*
X192578347Y-87521113D03*
X171496274Y-88300000D03*
X137631316Y-51950000D03*
X171047420Y-46100353D03*
X124029538Y-65625000D03*
X127037776Y-87575000D03*
X160897777Y-84925000D03*
X164730430Y-42902325D03*
X169555430Y-42900353D03*
X196186932Y-89075000D03*
X170300000Y-75477269D03*
X166222420Y-46102325D03*
X130070357Y-83050000D03*
X170300000Y-76977269D03*
X130077719Y-84500000D03*
X194675000Y-49225000D03*
X172325000Y-89525000D03*
X162400000Y-68300000D03*
X132732362Y-65125000D03*
X125552719Y-85975000D03*
X174120000Y-86360000D03*
X146975000Y-50496875D03*
X192575000Y-82771113D03*
X190251155Y-53869906D03*
X131625000Y-48997953D03*
X193460000Y-60730000D03*
X144885118Y-69453870D03*
X124030383Y-55050000D03*
X196175000Y-49225000D03*
X196176154Y-87525000D03*
X144879180Y-72453870D03*
X157658010Y-44401569D03*
X171100000Y-63632740D03*
X149425000Y-65685098D03*
X161150000Y-93221886D03*
X196171652Y-79650000D03*
X185800000Y-97344617D03*
X124026378Y-67000000D03*
X146379180Y-72453870D03*
X141752047Y-65675000D03*
X132725000Y-60675000D03*
X124032362Y-51950000D03*
X125550740Y-89075000D03*
X143202047Y-59568684D03*
X125545357Y-81525000D03*
X154525000Y-93227046D03*
X156158010Y-42901569D03*
X191698431Y-52307409D03*
X125532362Y-53450000D03*
X127032393Y-83025000D03*
X150069570Y-47600000D03*
X156875000Y-52597954D03*
X160897777Y-83425000D03*
X179743772Y-92800000D03*
X149334875Y-91726456D03*
X132719616Y-80400000D03*
X178850000Y-62325000D03*
X166525000Y-48720974D03*
X128532393Y-81525000D03*
X128537776Y-87575000D03*
X137600000Y-68221974D03*
X188759875Y-47890803D03*
X173700000Y-75450000D03*
X161651420Y-49350000D03*
X143200000Y-61067638D03*
X187422954Y-90500000D03*
X171493535Y-91475000D03*
X161650000Y-44400756D03*
X164730430Y-44402325D03*
X145475000Y-48996875D03*
X187225000Y-49229103D03*
X145475000Y-50496875D03*
X164722420Y-46102325D03*
X175350000Y-75453129D03*
X187556228Y-97350378D03*
X185723431Y-52309533D03*
X128525000Y-49000000D03*
X147925000Y-85611233D03*
X131596652Y-97050000D03*
X172319305Y-87425000D03*
X147934875Y-90150000D03*
X132715279Y-71150000D03*
X125532362Y-51950000D03*
X149336621Y-87178025D03*
X193200000Y-49226979D03*
X131632362Y-51947953D03*
X165325000Y-78818740D03*
X134625000Y-48997953D03*
X147825000Y-65671508D03*
X149429180Y-72460098D03*
X144885118Y-70953870D03*
X160889056Y-74400000D03*
X163150000Y-42900756D03*
X171055430Y-44400353D03*
X194675000Y-50725000D03*
X162395518Y-78825000D03*
X151575000Y-48995136D03*
X131575740Y-89100000D03*
X172375000Y-96172954D03*
X125529538Y-65625000D03*
X144925000Y-87111233D03*
X128539755Y-85975000D03*
X192575623Y-85976543D03*
X163141990Y-46100756D03*
X136131316Y-51950000D03*
X182693772Y-94292638D03*
X193200000Y-50726979D03*
X156150000Y-47601569D03*
X131570357Y-83050000D03*
X185734875Y-46375000D03*
X146975699Y-52100000D03*
X150069570Y-46100000D03*
X196170083Y-81230430D03*
X165475000Y-48725000D03*
X187425000Y-89425000D03*
X148475000Y-50496875D03*
X141756227Y-72450000D03*
X157658010Y-42901569D03*
X178243772Y-94300000D03*
X185725491Y-57900000D03*
X160150000Y-60475000D03*
X144875000Y-62678870D03*
X149425000Y-64185098D03*
X163900000Y-78824725D03*
X146375000Y-64178870D03*
X153075000Y-50495136D03*
X150825000Y-85603025D03*
X136125000Y-50497953D03*
X160897777Y-81925000D03*
X131595163Y-94075000D03*
X182700000Y-95842638D03*
X170250000Y-66050000D03*
X137589233Y-80396974D03*
X144875000Y-65678870D03*
X152325000Y-85603025D03*
X188750491Y-56415803D03*
X196131155Y-74945000D03*
X167975000Y-44398784D03*
X179750000Y-95850000D03*
X171055430Y-42900353D03*
X160900000Y-68300000D03*
X139375000Y-50498922D03*
X172075000Y-75477493D03*
X132721595Y-78800000D03*
X162389056Y-74400000D03*
X169555430Y-44400353D03*
X192577192Y-84396113D03*
X160250000Y-62475000D03*
X169400000Y-86950000D03*
X160897777Y-86425000D03*
X124026378Y-68500000D03*
X178875000Y-88400000D03*
X124052719Y-85975000D03*
X125545357Y-83025000D03*
X149435118Y-70960098D03*
X148475699Y-52100000D03*
X133825000Y-60600000D03*
X187550000Y-94300378D03*
X141750000Y-59575000D03*
X151130938Y-69460186D03*
X160900000Y-66800000D03*
X193198431Y-52307409D03*
X193850000Y-55270000D03*
X196175000Y-50725000D03*
X140252047Y-65675000D03*
X190250000Y-50744906D03*
X187223431Y-52309533D03*
D16*
X164975000Y-55075000D03*
D15*
X188750000Y-49244906D03*
X184050000Y-57900000D03*
X150836621Y-87178025D03*
X193201155Y-53851979D03*
X140262165Y-70950000D03*
X152336621Y-87178025D03*
X130070357Y-81550000D03*
X160895518Y-75825000D03*
X185725000Y-50729103D03*
X140250000Y-61075000D03*
X179743772Y-94300000D03*
X175350000Y-76953129D03*
X137592258Y-72596974D03*
X131597142Y-90975000D03*
X177800000Y-88397954D03*
X187400000Y-86975000D03*
X161641990Y-46100756D03*
X144875000Y-64178870D03*
X157950000Y-52600000D03*
X132720662Y-75700000D03*
X146675000Y-94025000D03*
X146385118Y-69453870D03*
X191701155Y-53851979D03*
X149435118Y-69460098D03*
X181193772Y-92792638D03*
X127032362Y-51950000D03*
X160889056Y-69900000D03*
X190250000Y-49244906D03*
X184293772Y-94294617D03*
X176859197Y-67500000D03*
X146375000Y-65678870D03*
X172081228Y-78527493D03*
X182700000Y-97342638D03*
X173700000Y-76950000D03*
X132722641Y-74100000D03*
X140875000Y-48998922D03*
X124031517Y-62525000D03*
X124050740Y-89075000D03*
X143202047Y-64167638D03*
X157655430Y-48996705D03*
X130032362Y-53450000D03*
X144934875Y-90150000D03*
X130077719Y-86000000D03*
X133131316Y-51950000D03*
X184300000Y-95844617D03*
X191278347Y-85981911D03*
X160900000Y-65300000D03*
X147946496Y-91725000D03*
X125524155Y-58075000D03*
X152325000Y-84103025D03*
X162397777Y-83425000D03*
X153069570Y-46100000D03*
X166230430Y-42902325D03*
X173706228Y-78500000D03*
X175170000Y-45970000D03*
X140252047Y-62675000D03*
X142475000Y-50496875D03*
X161650000Y-42900756D03*
X137590279Y-77196974D03*
X132720662Y-77200000D03*
X124029538Y-64125000D03*
X128525000Y-50500000D03*
X181200000Y-97342638D03*
X173260000Y-86360000D03*
X163150000Y-44400756D03*
X156925000Y-84100000D03*
X125552719Y-84475000D03*
X154575000Y-50495136D03*
X153936621Y-87175000D03*
X171090000Y-95020000D03*
X128532362Y-53450000D03*
X134631316Y-51950000D03*
X189206228Y-95853507D03*
X188750000Y-50744906D03*
X191277724Y-82776481D03*
X167600000Y-48723020D03*
X187550000Y-92800378D03*
X160075000Y-93219840D03*
X167975000Y-42898784D03*
X191291849Y-89076481D03*
X144925000Y-85611233D03*
X150846496Y-90216792D03*
X157650000Y-46101569D03*
X131625000Y-50497953D03*
X162400000Y-63800000D03*
X184293772Y-92794617D03*
X146436621Y-88686233D03*
X147925000Y-87111233D03*
X190248431Y-52325336D03*
X151125000Y-72460186D03*
X145600000Y-94022954D03*
X147829180Y-72446508D03*
X161659430Y-47650000D03*
X131525000Y-63575000D03*
X155425000Y-84100000D03*
X196130000Y-70320000D03*
X152346496Y-90216792D03*
X156925000Y-85600000D03*
X170450000Y-86943238D03*
X131595163Y-92575000D03*
X124050740Y-87575000D03*
X180375000Y-62340803D03*
X187226155Y-53854103D03*
X155436621Y-87175000D03*
X146385118Y-70953870D03*
X124025000Y-49000000D03*
X189206228Y-97353507D03*
X160889056Y-72900000D03*
X147835118Y-69446508D03*
X131575000Y-66600000D03*
X180375000Y-63840803D03*
X133125000Y-48997953D03*
X150077580Y-44400000D03*
X131577719Y-84500000D03*
X154569570Y-46100000D03*
X162400000Y-66800000D03*
X139375000Y-48998922D03*
X151130938Y-70960186D03*
X162397777Y-86425000D03*
X131500000Y-60650000D03*
X150075000Y-50495136D03*
X189200000Y-92803507D03*
X127039755Y-84475000D03*
X134750000Y-97049243D03*
X163900000Y-75824725D03*
X178250000Y-97350000D03*
X127030383Y-55050000D03*
X153925000Y-85600000D03*
X181193772Y-94292638D03*
X146425000Y-85611233D03*
X180750000Y-88400000D03*
X179675000Y-88397954D03*
X132730383Y-66725000D03*
X169547420Y-46100353D03*
X136125000Y-48997953D03*
X196173431Y-52305430D03*
X128532393Y-83025000D03*
X150602046Y-60600000D03*
X127025000Y-50500000D03*
X153075699Y-52098261D03*
X133250000Y-97049243D03*
X127037776Y-89075000D03*
X154577580Y-42900000D03*
X187234875Y-46375000D03*
X130025000Y-49000000D03*
X162389056Y-72900000D03*
X191275000Y-81231911D03*
X175525000Y-96175000D03*
X177350000Y-63825000D03*
X150834875Y-91726456D03*
X153925000Y-84100000D03*
X168750000Y-66050000D03*
X124030383Y-56550000D03*
X150825000Y-84103025D03*
X147825000Y-64171508D03*
X137590279Y-75696974D03*
X153075000Y-48995136D03*
X127030383Y-56550000D03*
X125526378Y-68500000D03*
X125530383Y-55050000D03*
X154575000Y-48995136D03*
X185725491Y-56400000D03*
X149425000Y-62685098D03*
X161350000Y-57800000D03*
X181200000Y-95842638D03*
X170443535Y-91473933D03*
X173950000Y-42990000D03*
X133875000Y-63600000D03*
X192589125Y-89071113D03*
X139450000Y-97046331D03*
X144946496Y-91725000D03*
X166230430Y-44402325D03*
X136296652Y-97047088D03*
X162389056Y-71400000D03*
X189200000Y-94303507D03*
X191700000Y-49226979D03*
X157050000Y-62850000D03*
X162395518Y-75825000D03*
X137584896Y-69646974D03*
X124031517Y-61025000D03*
X131596652Y-95550000D03*
X167775000Y-63622954D03*
X140875000Y-50498922D03*
X158436621Y-87175000D03*
X191281071Y-87526481D03*
X137592258Y-74096974D03*
X154575699Y-52098261D03*
X160895518Y-78825000D03*
X176875000Y-65975000D03*
X143206227Y-72442638D03*
X156936621Y-87175000D03*
X125531517Y-61025000D03*
X175356228Y-78503129D03*
X140252047Y-64175000D03*
X153450000Y-93225000D03*
X196128431Y-73400430D03*
X151577580Y-44400000D03*
X193490000Y-62700000D03*
X151575699Y-52098261D03*
X178850000Y-63825000D03*
X182693772Y-92792638D03*
X132725000Y-62175000D03*
X132715279Y-69650000D03*
X178243772Y-92800000D03*
X132719616Y-81900000D03*
X194673431Y-52305430D03*
X151569570Y-46100000D03*
X144936621Y-88686233D03*
X162395518Y-80325000D03*
X158425000Y-84100000D03*
X196189656Y-90619570D03*
X153077580Y-44400000D03*
X130025000Y-50500000D03*
X141750000Y-61075000D03*
X142475000Y-48996875D03*
X147825000Y-62671508D03*
X196174999Y-84400000D03*
X164400000Y-48722954D03*
X187397954Y-88050000D03*
X160895518Y-77325000D03*
X157650000Y-47601569D03*
X132730383Y-68225000D03*
X169396274Y-88305695D03*
X162389056Y-69900000D03*
X131577719Y-86000000D03*
X151575000Y-50495136D03*
X196130000Y-71820000D03*
X125530383Y-56550000D03*
X149346496Y-90216792D03*
X160900000Y-63800000D03*
X137950000Y-97046331D03*
X188751155Y-53869906D03*
X196173430Y-85980430D03*
X134625000Y-50497953D03*
X143212165Y-69442638D03*
X187556228Y-95850378D03*
X153069570Y-47600000D03*
X171050000Y-47651834D03*
X133125000Y-50497953D03*
X130075740Y-89100000D03*
X172550000Y-47651834D03*
X141762165Y-69450000D03*
X124032362Y-53450000D03*
X143212165Y-70942638D03*
X127025000Y-49000000D03*
X185800000Y-95844617D03*
X132722641Y-72600000D03*
X153077580Y-42900000D03*
X133775000Y-66575000D03*
X149325000Y-85603025D03*
X137584896Y-71146974D03*
X137625000Y-50497953D03*
X171500000Y-86944305D03*
X163900000Y-77324725D03*
X158425000Y-85600000D03*
X130032362Y-51950000D03*
X188750491Y-57915803D03*
X182975000Y-57897954D03*
X188748431Y-52325336D03*
X185726155Y-53854103D03*
X124045357Y-83025000D03*
X125531517Y-62525000D03*
X143202047Y-62667638D03*
X187225491Y-57900000D03*
D16*
X164960499Y-55800000D03*
D15*
X187234875Y-47875000D03*
X170025000Y-63630694D03*
X160889056Y-71400000D03*
X174450000Y-96172954D03*
X132732362Y-63625000D03*
X162395518Y-77325000D03*
X140262165Y-69450000D03*
X125525000Y-50500000D03*
X150077580Y-42900000D03*
X177350000Y-62325000D03*
X149325000Y-88687689D03*
X131570357Y-81550000D03*
X137625000Y-48997953D03*
X160252046Y-61400000D03*
X125550740Y-87575000D03*
X141752047Y-62675000D03*
X128537776Y-89075000D03*
X167966990Y-46098784D03*
X154569570Y-47600000D03*
X171041990Y-49351834D03*
X124024155Y-58075000D03*
X137591212Y-78796974D03*
X150075000Y-48995136D03*
X146975000Y-48996875D03*
X150825000Y-88687689D03*
X185793772Y-94294617D03*
X124025000Y-50500000D03*
X124045357Y-81525000D03*
X154577580Y-44400000D03*
X125524155Y-59575000D03*
X131575740Y-87600000D03*
X168850000Y-63625000D03*
X160152046Y-59400000D03*
X125525000Y-49000000D03*
X196171652Y-78150000D03*
X165325000Y-77318740D03*
X163159430Y-47650000D03*
X191279916Y-84401481D03*
X127032362Y-53450000D03*
X172326067Y-88475000D03*
X162400000Y-65300000D03*
X125526378Y-67000000D03*
X172075000Y-76977493D03*
X196172807Y-82775000D03*
X148475000Y-48996875D03*
X176859197Y-69000000D03*
X124052719Y-84475000D03*
X128532362Y-51950000D03*
X149725000Y-59300000D03*
X187225491Y-56400000D03*
X185734875Y-47875000D03*
X141762165Y-70950000D03*
X125529538Y-64125000D03*
X140250000Y-59575000D03*
X146446496Y-91725000D03*
X124024155Y-59575000D03*
X185725000Y-49229103D03*
X146375000Y-62678870D03*
X188759875Y-46390803D03*
X152325000Y-88687689D03*
X147835118Y-70946508D03*
X127032393Y-81525000D03*
X178250000Y-95850000D03*
X169393535Y-91480695D03*
X151577580Y-42900000D03*
X143975000Y-50496875D03*
X163151420Y-49350000D03*
X141752047Y-64175000D03*
X172541990Y-49351834D03*
X143202047Y-65667638D03*
X156158010Y-44401569D03*
X162397777Y-84925000D03*
X167250000Y-66050000D03*
X196176155Y-53850000D03*
X151569570Y-47600000D03*
X147936621Y-88686233D03*
X127039755Y-85975000D03*
X179750000Y-97350000D03*
X187225000Y-50729103D03*
X173450000Y-96175000D03*
X160895518Y-80325000D03*
X184300000Y-97344617D03*
X146434875Y-90150000D03*
%TO.N,+5VA*%
X147000000Y-60600000D03*
X169025000Y-50350000D03*
X155525000Y-52650000D03*
X163025000Y-58700000D03*
X163900000Y-58700000D03*
%TO.N,INV_695*%
X154400000Y-59350000D03*
X145675000Y-52875000D03*
%TO.N,+5V*%
X168271070Y-59550000D03*
X179025000Y-46075000D03*
X170021070Y-59554068D03*
X170025000Y-58354068D03*
X168275000Y-58350000D03*
X183230424Y-87775000D03*
X183225000Y-86825000D03*
%TO.N,+10V*%
X190825000Y-62925000D03*
X190875000Y-55175000D03*
X181500000Y-46075000D03*
%TO.N,+15V*%
X181700000Y-57975000D03*
X183825000Y-46075000D03*
X184190681Y-68250000D03*
X184187632Y-70500000D03*
X184200000Y-65625000D03*
%TD*%
%TO.N,INV_695*%
D17*
X145675000Y-52875000D02*
X152150000Y-59350000D01*
X152150000Y-59350000D02*
X154400000Y-59350000D01*
%TO.N,+10V*%
D18*
X190875000Y-55175000D02*
X185300000Y-55175000D01*
D17*
X191860000Y-70260001D02*
X191860000Y-67260002D01*
D18*
X181500000Y-51375000D02*
X181500000Y-46075000D01*
D17*
X191860000Y-67260002D02*
X191860000Y-63960000D01*
X191860000Y-63960000D02*
X190825000Y-62925000D01*
D18*
X185300000Y-55175000D02*
X181500000Y-51375000D01*
%TD*%
%TA.AperFunction,Conductor*%
%TO.N,+15V*%
G36*
X193668106Y-72005023D02*
G01*
X193683104Y-72009427D01*
X193698094Y-72019057D01*
X193715175Y-72024067D01*
X193741855Y-72047172D01*
X193743042Y-72048541D01*
X193770518Y-72103402D01*
X193772163Y-72110960D01*
X193775000Y-72137331D01*
X193775000Y-77308148D01*
X193769975Y-77343092D01*
X193765570Y-77358090D01*
X193755943Y-77373075D01*
X193750945Y-77390132D01*
X193727846Y-77416817D01*
X193726481Y-77418001D01*
X193671571Y-77445500D01*
X193664004Y-77447145D01*
X193637642Y-77449975D01*
X190941366Y-77449520D01*
X190906435Y-77444491D01*
X190891433Y-77440083D01*
X190876429Y-77430437D01*
X190859316Y-77425406D01*
X190832676Y-77402307D01*
X190832664Y-77402299D01*
X190832650Y-77402284D01*
X190831462Y-77400912D01*
X190804034Y-77346085D01*
X190802391Y-77338524D01*
X190799562Y-77312168D01*
X190799563Y-77308148D01*
X190800437Y-72141800D01*
X190805465Y-72106876D01*
X190809875Y-72091869D01*
X190819515Y-72076875D01*
X190824541Y-72059772D01*
X190847659Y-72033103D01*
X190849034Y-72031912D01*
X190903879Y-72004471D01*
X190911432Y-72002828D01*
X190937765Y-72000000D01*
X193633170Y-72000000D01*
X193668106Y-72005023D01*
G37*
%TD.AperFunction*%
%TD*%
%TA.AperFunction,Conductor*%
%TO.N,+5V*%
G36*
X189743039Y-72019685D02*
G01*
X189788794Y-72072489D01*
X189800000Y-72124000D01*
X189800000Y-77326000D01*
X189780315Y-77393039D01*
X189727511Y-77438794D01*
X189676000Y-77450000D01*
X185850143Y-77450000D01*
X185783104Y-77430315D01*
X185737349Y-77377511D01*
X185726148Y-77324862D01*
X185773873Y-72122862D01*
X185794172Y-72056006D01*
X185847393Y-72010738D01*
X185897868Y-72000000D01*
X189676000Y-72000000D01*
X189743039Y-72019685D01*
G37*
%TD.AperFunction*%
%TD*%
M02*
