%TF.GenerationSoftware,KiCad,Pcbnew,10.0.3*%
%TF.CreationDate,2026-08-08T18:02:01-05:00*%
%TF.ProjectId,mts-demod,6d74732d-6465-46d6-9f64-2e6b69636164,rev?*%
%TF.SameCoordinates,Original*%
%TF.FileFunction,Soldermask,Top*%
%TF.FilePolarity,Negative*%
%FSLAX46Y46*%
G04 Gerber Fmt 4.6, Leading zero omitted, Abs format (unit mm)*
G04 Created by KiCad (PCBNEW 10.0.3) date 2026-08-08 18:02:01*
%MOMM*%
%LPD*%
G01*
G04 APERTURE LIST*
G04 Aperture macros list*
%AMRoundRect*
0 Rectangle with rounded corners*
0 $1 Rounding radius*
0 $2 $3 $4 $5 $6 $7 $8 $9 X,Y pos of 4 corners*
0 Add a 4 corners polygon primitive as box body*
4,1,4,$2,$3,$4,$5,$6,$7,$8,$9,$2,$3,0*
0 Add four circle primitives for the rounded corners*
1,1,$1+$1,$2,$3*
1,1,$1+$1,$4,$5*
1,1,$1+$1,$6,$7*
1,1,$1+$1,$8,$9*
0 Add four rect primitives between the rounded corners*
20,1,$1+$1,$2,$3,$4,$5,0*
20,1,$1+$1,$4,$5,$6,$7,0*
20,1,$1+$1,$6,$7,$8,$9,0*
20,1,$1+$1,$8,$9,$2,$3,0*%
%AMFreePoly0*
4,1,9,3.862500,-0.866500,0.737500,-0.866500,0.737500,-0.450000,-0.737500,-0.450000,-0.737500,0.450000,0.737500,0.450000,0.737500,0.866500,3.862500,0.866500,3.862500,-0.866500,3.862500,-0.866500,$1*%
G04 Aperture macros list end*
%ADD10RoundRect,0.140000X0.170000X-0.140000X0.170000X0.140000X-0.170000X0.140000X-0.170000X-0.140000X0*%
%ADD11RoundRect,0.140000X-0.140000X-0.170000X0.140000X-0.170000X0.140000X0.170000X-0.140000X0.170000X0*%
%ADD12RoundRect,0.225000X-0.250000X0.225000X-0.250000X-0.225000X0.250000X-0.225000X0.250000X0.225000X0*%
%ADD13RoundRect,0.225000X-0.225000X-0.250000X0.225000X-0.250000X0.225000X0.250000X-0.225000X0.250000X0*%
%ADD14R,0.499999X0.249999*%
%ADD15R,0.900001X1.599999*%
%ADD16RoundRect,0.225000X0.225000X0.250000X-0.225000X0.250000X-0.225000X-0.250000X0.225000X-0.250000X0*%
%ADD17RoundRect,0.218750X-0.381250X0.218750X-0.381250X-0.218750X0.381250X-0.218750X0.381250X0.218750X0*%
%ADD18RoundRect,0.250000X-0.250000X-0.475000X0.250000X-0.475000X0.250000X0.475000X-0.250000X0.475000X0*%
%ADD19RoundRect,0.250000X0.250000X0.475000X-0.250000X0.475000X-0.250000X-0.475000X0.250000X-0.475000X0*%
%ADD20R,1.981200X0.558800*%
%ADD21O,1.600000X1.200000*%
%ADD22C,1.200000*%
%ADD23RoundRect,0.250000X-0.475000X0.250000X-0.475000X-0.250000X0.475000X-0.250000X0.475000X0.250000X0*%
%ADD24RoundRect,0.135000X-0.135000X-0.185000X0.135000X-0.185000X0.135000X0.185000X-0.135000X0.185000X0*%
%ADD25C,2.108200*%
%ADD26C,3.200000*%
%ADD27RoundRect,0.218750X0.218750X0.381250X-0.218750X0.381250X-0.218750X-0.381250X0.218750X-0.381250X0*%
%ADD28R,1.650000X0.760000*%
%ADD29RoundRect,0.140000X0.140000X0.170000X-0.140000X0.170000X-0.140000X-0.170000X0.140000X-0.170000X0*%
%ADD30RoundRect,0.140000X-0.170000X0.140000X-0.170000X-0.140000X0.170000X-0.140000X0.170000X0.140000X0*%
%ADD31RoundRect,0.225000X0.250000X-0.225000X0.250000X0.225000X-0.250000X0.225000X-0.250000X-0.225000X0*%
%ADD32C,1.066800*%
%ADD33C,1.574800*%
%ADD34RoundRect,0.200000X-0.275000X0.200000X-0.275000X-0.200000X0.275000X-0.200000X0.275000X0.200000X0*%
%ADD35RoundRect,0.250000X-1.450000X-0.650000X1.450000X-0.650000X1.450000X0.650000X-1.450000X0.650000X0*%
%ADD36RoundRect,0.250000X0.650000X-1.450000X0.650000X1.450000X-0.650000X1.450000X-0.650000X-1.450000X0*%
%ADD37R,0.800000X0.700000*%
%ADD38R,2.300000X0.700000*%
%ADD39RoundRect,0.218750X-0.256250X0.218750X-0.256250X-0.218750X0.256250X-0.218750X0.256250X0.218750X0*%
%ADD40RoundRect,0.218750X0.218750X0.256250X-0.218750X0.256250X-0.218750X-0.256250X0.218750X-0.256250X0*%
%ADD41C,1.800000*%
%ADD42R,1.650000X2.540000*%
%ADD43RoundRect,0.135000X0.185000X-0.135000X0.185000X0.135000X-0.185000X0.135000X-0.185000X-0.135000X0*%
%ADD44RoundRect,0.225000X-0.425000X-0.225000X0.425000X-0.225000X0.425000X0.225000X-0.425000X0.225000X0*%
%ADD45FreePoly0,0.000000*%
%ADD46RoundRect,0.200000X-0.200000X-0.275000X0.200000X-0.275000X0.200000X0.275000X-0.200000X0.275000X0*%
%ADD47RoundRect,0.135000X0.135000X0.185000X-0.135000X0.185000X-0.135000X-0.185000X0.135000X-0.185000X0*%
%ADD48R,0.700000X0.800000*%
%ADD49R,0.700000X2.300000*%
%ADD50C,0.450000*%
G04 APERTURE END LIST*
D10*
%TO.C,C12*%
X157040000Y-61860000D03*
X157040000Y-60900000D03*
%TD*%
D11*
%TO.C,C24*%
X129650000Y-66580000D03*
X130610000Y-66580000D03*
%TD*%
D12*
%TO.C,C1*%
X183470002Y-55219999D03*
X183470002Y-56769999D03*
%TD*%
D13*
%TO.C,R16*%
X185990000Y-44870000D03*
X187540000Y-44870000D03*
%TD*%
D10*
%TO.C,C20*%
X165690000Y-85124500D03*
X165690000Y-84164500D03*
%TD*%
D14*
%TO.C,U2*%
X165940000Y-56229999D03*
X165940000Y-55730001D03*
X165940000Y-55229999D03*
X165940000Y-54730000D03*
X164039998Y-54730000D03*
X164039998Y-55229999D03*
X164039998Y-55730001D03*
X164039998Y-56229999D03*
D15*
X164989999Y-55480001D03*
%TD*%
D16*
%TO.C,R12*%
X157050000Y-59260000D03*
X155500000Y-59260000D03*
%TD*%
D17*
%TO.C,FB2*%
X182410000Y-88930000D03*
X182410000Y-91055000D03*
%TD*%
D18*
%TO.C,C33*%
X190850000Y-59320001D03*
X192750000Y-59320001D03*
%TD*%
D19*
%TO.C,C29*%
X183250000Y-65540000D03*
X181350000Y-65540000D03*
%TD*%
D17*
%TO.C,L4*%
X137070000Y-60615000D03*
X137070000Y-62740000D03*
%TD*%
D20*
%TO.C,U3*%
X152950000Y-57750000D03*
X152950000Y-56480000D03*
X152950000Y-55210000D03*
X152950000Y-53940000D03*
X148022400Y-53940000D03*
X148022400Y-55210000D03*
X148022400Y-56480000D03*
X148022400Y-57750000D03*
%TD*%
D21*
%TO.C,U1*%
X178260000Y-55100000D03*
D22*
X175720000Y-52560000D03*
X173180000Y-55100000D03*
%TD*%
D10*
%TO.C,C16*%
X165800000Y-80854090D03*
X165800000Y-79894090D03*
%TD*%
D11*
%TO.C,C13*%
X148000000Y-59225000D03*
X148960000Y-59225000D03*
%TD*%
D17*
%TO.C,L7*%
X128190000Y-64440000D03*
X128190000Y-66565000D03*
%TD*%
D23*
%TO.C,C27*%
X160670000Y-94350000D03*
X160670000Y-96250000D03*
%TD*%
D16*
%TO.C,C4*%
X162785000Y-61850000D03*
X161235000Y-61850000D03*
%TD*%
D24*
%TO.C,R10*%
X142140000Y-54510000D03*
X143160000Y-54510000D03*
%TD*%
D23*
%TO.C,C2*%
X170540000Y-60660000D03*
X170540000Y-62560000D03*
%TD*%
D25*
%TO.C,J1*%
X128220000Y-72950000D03*
X125680000Y-70410000D03*
X125680000Y-75490000D03*
X130760000Y-75490000D03*
X130760000Y-70410000D03*
%TD*%
D26*
%TO.C,REF\u002A\u002A*%
X193310000Y-94040000D03*
%TD*%
%TO.C,REF\u002A\u002A*%
X193510000Y-45210000D03*
%TD*%
D27*
%TO.C,FB1*%
X167245000Y-58830000D03*
X165120000Y-58830000D03*
%TD*%
D28*
%TO.C,U4*%
X170750000Y-79610000D03*
X170750000Y-80880000D03*
X170750000Y-82150000D03*
X167570000Y-82150000D03*
X167570000Y-80880000D03*
X167570000Y-79610000D03*
%TD*%
D29*
%TO.C,C21*%
X135650000Y-63600000D03*
X134690000Y-63600000D03*
%TD*%
D30*
%TO.C,C9*%
X167110000Y-55070000D03*
X167110000Y-56030000D03*
%TD*%
D11*
%TO.C,C19*%
X129640000Y-60640000D03*
X130600000Y-60640000D03*
%TD*%
D16*
%TO.C,C5*%
X162800000Y-59880000D03*
X161250000Y-59880000D03*
%TD*%
D26*
%TO.C,REF\u002A\u002A*%
X127280000Y-93890000D03*
%TD*%
D16*
%TO.C,R15*%
X176700000Y-42990000D03*
X175150000Y-42990000D03*
%TD*%
D29*
%TO.C,C15*%
X140725397Y-56431477D03*
X139765397Y-56431477D03*
%TD*%
D13*
%TO.C,C34*%
X190780000Y-61630001D03*
X192330000Y-61630001D03*
%TD*%
D16*
%TO.C,C14*%
X149550000Y-60622323D03*
X148000000Y-60622323D03*
%TD*%
D31*
%TO.C,R1*%
X181690002Y-56764999D03*
X181690002Y-55214999D03*
%TD*%
D18*
%TO.C,C36*%
X184320000Y-89950000D03*
X186220000Y-89950000D03*
%TD*%
D32*
%TO.C,J6*%
X187920000Y-79260001D03*
X187920000Y-64260000D03*
D33*
X191860000Y-67260002D03*
X191860000Y-70260001D03*
X191860000Y-73260000D03*
X191860000Y-76259999D03*
X188860001Y-67260002D03*
X188860001Y-70260001D03*
X188860001Y-73260000D03*
X188860001Y-76259999D03*
%TD*%
D27*
%TO.C,L2*%
X158360000Y-96210000D03*
X156235000Y-96210000D03*
%TD*%
%TO.C,L3*%
X151410000Y-96250000D03*
X149285000Y-96250000D03*
%TD*%
D34*
%TO.C,R4*%
X169160000Y-55070000D03*
X169160000Y-56720000D03*
%TD*%
D12*
%TO.C,C41*%
X174890000Y-93520000D03*
X174890000Y-95070000D03*
%TD*%
%TO.C,R7*%
X157350000Y-53730000D03*
X157350000Y-55280000D03*
%TD*%
D10*
%TO.C,C17*%
X172500000Y-80845647D03*
X172500000Y-79885647D03*
%TD*%
D29*
%TO.C,C22*%
X135660000Y-66580000D03*
X134700000Y-66580000D03*
%TD*%
D18*
%TO.C,C35*%
X184320000Y-87560000D03*
X186220000Y-87560000D03*
%TD*%
D34*
%TO.C,R2*%
X169020000Y-51570000D03*
X169020000Y-53220000D03*
%TD*%
D30*
%TO.C,C39*%
X171100000Y-93270000D03*
X171100000Y-94230000D03*
%TD*%
D17*
%TO.C,L5*%
X137080000Y-64435000D03*
X137080000Y-66560000D03*
%TD*%
D25*
%TO.C,J3*%
X179960000Y-78850000D03*
X177420000Y-76310000D03*
X177420000Y-81390000D03*
X182500000Y-81390000D03*
X182500000Y-76310000D03*
%TD*%
D26*
%TO.C,REF\u002A\u002A*%
X127480000Y-45060000D03*
%TD*%
D16*
%TO.C,R13*%
X169975000Y-83900000D03*
X168425000Y-83900000D03*
%TD*%
D31*
%TO.C,C8*%
X167050000Y-51370000D03*
X167050000Y-49820000D03*
%TD*%
D23*
%TO.C,C3*%
X168270000Y-60650000D03*
X168270000Y-62550000D03*
%TD*%
D12*
%TO.C,C40*%
X172930000Y-93525000D03*
X172930000Y-95075000D03*
%TD*%
D25*
%TO.C,J4*%
X156100000Y-67780000D03*
X153560000Y-65240000D03*
X153560000Y-70320000D03*
X158640000Y-70320000D03*
X158640000Y-65240000D03*
%TD*%
D35*
%TO.C,+10V*%
X187310000Y-61080000D03*
%TD*%
D36*
%TO.C,TIA 1 OUT*%
X160100000Y-52300000D03*
%TD*%
D11*
%TO.C,C25*%
X163040000Y-96300000D03*
X164000000Y-96300000D03*
%TD*%
D24*
%TO.C,R11*%
X142140000Y-55920000D03*
X143160000Y-55920000D03*
%TD*%
D16*
%TO.C,C31*%
X183240000Y-70540000D03*
X181690000Y-70540000D03*
%TD*%
D11*
%TO.C,C23*%
X129630000Y-63600000D03*
X130590000Y-63600000D03*
%TD*%
D29*
%TO.C,C6*%
X163065000Y-57800000D03*
X162105000Y-57800000D03*
%TD*%
D37*
%TO.C,U7*%
X146883465Y-96237988D03*
X145383465Y-96237988D03*
D38*
X146133465Y-95037988D03*
%TD*%
D37*
%TO.C,U6*%
X172500000Y-84200000D03*
X174000000Y-84200000D03*
D38*
X173250000Y-85400000D03*
%TD*%
D39*
%TO.C,+5V*%
X179020000Y-43315000D03*
X179020000Y-44890000D03*
%TD*%
D23*
%TO.C,C28*%
X154021272Y-94345874D03*
X154021272Y-96245874D03*
%TD*%
D31*
%TO.C,C38*%
X178375000Y-91056015D03*
X178375000Y-89506015D03*
%TD*%
D40*
%TO.C,L1*%
X169205000Y-93280000D03*
X167630000Y-93280000D03*
%TD*%
D25*
%TO.C,J2*%
X167630000Y-70730000D03*
X170170000Y-73270000D03*
X170170000Y-68190000D03*
X165090000Y-68190000D03*
X165090000Y-73270000D03*
%TD*%
D39*
%TO.C,+10V*%
X181460000Y-43295000D03*
X181460000Y-44870000D03*
%TD*%
D19*
%TO.C,C30*%
X183250000Y-68220000D03*
X181350000Y-68220000D03*
%TD*%
D16*
%TO.C,R14*%
X176700000Y-44850000D03*
X175150000Y-44850000D03*
%TD*%
D41*
%TO.C,J5*%
X140830000Y-80620000D03*
X140830000Y-75540000D03*
X145910000Y-80620000D03*
X145910000Y-75540000D03*
X150990000Y-80620000D03*
X150990000Y-75540000D03*
X156070000Y-80620000D03*
X156070000Y-75540000D03*
%TD*%
D31*
%TO.C,C7*%
X164940000Y-51365000D03*
X164940000Y-49815000D03*
%TD*%
D17*
%TO.C,L6*%
X128180000Y-60630000D03*
X128180000Y-62755000D03*
%TD*%
D42*
%TO.C,IC1*%
X140650000Y-89330000D03*
X138110000Y-89330000D03*
X135570000Y-89330000D03*
X135570000Y-94410000D03*
X138110000Y-94410000D03*
X140650000Y-94410000D03*
%TD*%
D29*
%TO.C,C10*%
X159870000Y-55230000D03*
X158910000Y-55230000D03*
%TD*%
%TO.C,C18*%
X135590000Y-60600000D03*
X134630000Y-60600000D03*
%TD*%
D31*
%TO.C,R6*%
X155530000Y-55270000D03*
X155530000Y-53720000D03*
%TD*%
D18*
%TO.C,C32*%
X190860000Y-56630001D03*
X192760000Y-56630001D03*
%TD*%
D43*
%TO.C,R8*%
X145630000Y-55210000D03*
X145630000Y-54190000D03*
%TD*%
D39*
%TO.C,+15V*%
X183820000Y-43302500D03*
X183820000Y-44877500D03*
%TD*%
D44*
%TO.C,U5*%
X167620000Y-88270000D03*
D45*
X167707500Y-89770000D03*
D44*
X167620000Y-91270000D03*
%TD*%
D46*
%TO.C,R3*%
X164570000Y-53170000D03*
X166220000Y-53170000D03*
%TD*%
D47*
%TO.C,R5*%
X162590000Y-55230000D03*
X161570000Y-55230000D03*
%TD*%
D29*
%TO.C,C11*%
X140720000Y-53980000D03*
X139760000Y-53980000D03*
%TD*%
D31*
%TO.C,C37*%
X180250000Y-91050000D03*
X180250000Y-89500000D03*
%TD*%
D48*
%TO.C,U8*%
X135560000Y-83590000D03*
X135560000Y-85090000D03*
D49*
X134360000Y-84340000D03*
%TD*%
D13*
%TO.C,R9*%
X155500000Y-57460000D03*
X157050000Y-57460000D03*
%TD*%
D50*
X164975000Y-55075000D03*
X164960499Y-55800000D03*
M02*
