M48
; DRILL file KiCad 10.0.3 date 2026-08-08T17:59:31
; FORMAT={-:-/ absolute / metric / decimal}
; #@! TF.CreationDate,2026-08-08T17:59:31-05:00
; #@! TF.GenerationSoftware,Kicad,Pcbnew,10.0.3
; #@! TF.FileFunction,Plated,1,4,PTH
FMAT,2
METRIC
; #@! TA.AperFunction,Plated,PTH,ViaDrill
T1C0.200
; #@! TA.AperFunction,Plated,PTH,ViaDrill
T2C0.300
; #@! TA.AperFunction,Plated,PTH,ComponentDrill
T3C0.813
; #@! TA.AperFunction,Plated,PTH,ComponentDrill
T4C1.067
; #@! TA.AperFunction,Plated,PTH,ComponentDrill
T5C1.600
%
G90
G05
T1
X125.597Y-119.728
X128.54Y-118.5
T2
X117.075Y-93.175
X117.075Y-107.96
X117.075Y-110.085
X117.075Y-112.2
X117.075Y-114.35
X117.075Y-116.35
X117.08Y-123.9
X117.08Y-124.73
X117.08Y-125.88
X117.08Y-126.71
X117.09Y-137.15
X117.1Y-118.4
X117.1Y-120.4
X117.1Y-135.0
X117.15Y-130.57
X117.33Y-122.97
X117.88Y-122.42
X117.9Y-77.26
X117.9Y-134.46
X118.68Y-131.33
X118.85Y-93.175
X118.85Y-107.96
X118.85Y-110.085
X119.59Y-131.33
X119.81Y-129.75
X120.02Y-128.79
X120.37Y-77.33
X120.57Y-79.18
X120.57Y-80.18
X120.57Y-80.93
X120.59Y-134.46
X120.75Y-93.175
X120.75Y-107.96
X120.75Y-110.085
X120.84Y-130.56
X120.96Y-91.62
X120.97Y-117.39
X121.41Y-131.33
X121.57Y-80.18
X121.57Y-80.93
X121.72Y-117.39
X121.87Y-116.15
X122.39Y-119.93
X122.725Y-93.175
X123.03Y-86.89
X123.03Y-88.11
X123.31Y-134.46
X123.49Y-80.18
X123.49Y-80.93
X123.725Y-120.7
X123.85Y-86.89
X123.85Y-88.11
X123.89Y-116.18
X123.89Y-117.0
X123.92Y-117.79
X124.49Y-80.18
X124.49Y-80.93
X124.69Y-116.18
X124.69Y-117.0
X124.7Y-86.89
X124.7Y-88.11
X124.72Y-117.79
X124.825Y-93.175
X124.925Y-107.96
X124.94Y-112.2
X124.95Y-110.05
X125.1Y-89.73
X125.1Y-90.86
X125.11Y-137.15
X125.12Y-135.0
X125.52Y-116.16
X125.52Y-116.98
X125.55Y-86.89
X125.55Y-88.11
X125.55Y-117.77
X125.9Y-78.84
X126.065Y-75.8
X126.075Y-72.225
X126.075Y-74.175
X126.08Y-90.86
X126.085Y-70.2
X126.39Y-86.89
X126.39Y-88.11
X126.775Y-139.175
X126.775Y-140.85
X126.775Y-142.975
X126.775Y-144.65
X126.8Y-93.175
X126.825Y-105.725
X126.825Y-107.96
X126.94Y-95.3
X126.95Y-110.05
X127.11Y-137.15
X127.12Y-135.0
X127.6Y-116.93
X127.675Y-118.8
X127.87Y-115.79
X128.105Y-75.8
X128.115Y-72.225
X128.115Y-74.175
X128.125Y-70.2
X128.63Y-89.7
X128.825Y-139.175
X128.825Y-140.85
X128.825Y-142.975
X128.825Y-144.65
X128.85Y-104.07
X129.15Y-137.15
X129.16Y-135.0
X129.95Y-107.95
X129.965Y-112.2
X129.97Y-127.41
X129.975Y-110.05
X129.98Y-123.26
X129.98Y-125.26
X130.155Y-75.8
X130.165Y-72.225
X130.165Y-74.175
X130.175Y-70.2
X130.865Y-139.175
X130.865Y-140.85
X130.865Y-142.975
X130.865Y-144.65
X131.1Y-90.25
X131.65Y-134.45
X131.965Y-112.2
X131.975Y-110.05
X131.98Y-123.26
X132.155Y-75.8
X132.165Y-72.225
X132.165Y-74.175
X132.175Y-70.2
X132.865Y-139.175
X132.865Y-140.85
X132.865Y-142.975
X132.865Y-144.65
X133.125Y-95.375
X133.59Y-82.74
X133.65Y-89.5
X133.665Y-87.675
X133.675Y-79.35
X133.675Y-85.525
X133.675Y-94.425
X134.0Y-137.15
X134.005Y-112.2
X134.005Y-134.2
X134.015Y-110.05
X134.14Y-75.8
X134.15Y-72.225
X134.15Y-74.175
X134.16Y-70.2
X134.725Y-97.225
X134.9Y-139.175
X134.9Y-140.85
X134.9Y-142.975
X134.9Y-144.65
X136.0Y-94.25
X136.0Y-123.35
X136.0Y-137.15
X136.005Y-87.685
X136.005Y-112.2
X136.005Y-134.2
X136.01Y-127.41
X136.015Y-85.535
X136.015Y-110.05
X136.015Y-116.475
X136.02Y-125.26
X136.025Y-114.325
X136.14Y-75.8
X136.15Y-72.225
X136.15Y-74.175
X136.16Y-70.2
X136.9Y-139.175
X136.9Y-140.85
X136.9Y-142.975
X136.9Y-144.65
X138.18Y-75.8
X138.19Y-72.225
X138.19Y-74.175
X138.2Y-70.2
X138.22Y-137.15
X138.225Y-79.35
X138.225Y-83.55
X138.225Y-87.685
X138.225Y-94.275
X138.225Y-129.325
X138.225Y-134.2
X138.23Y-127.41
X138.235Y-81.4
X138.235Y-85.535
X138.24Y-125.26
X138.95Y-139.175
X138.95Y-140.85
X138.95Y-142.975
X138.95Y-144.65
X139.2Y-134.44
X140.175Y-97.6
X140.215Y-102.26
X140.225Y-79.35
X140.225Y-83.55
X140.225Y-87.685
X140.225Y-96.15
X140.225Y-129.325
X140.23Y-75.8
X140.23Y-127.41
X140.23Y-137.15
X140.235Y-81.4
X140.235Y-85.535
X140.235Y-134.2
X140.24Y-72.225
X140.24Y-74.175
X140.24Y-125.26
X140.25Y-70.2
X140.99Y-139.175
X140.99Y-140.85
X140.99Y-142.975
X140.99Y-144.65
X142.255Y-102.26
X142.265Y-87.685
X142.265Y-100.11
X142.265Y-129.325
X142.275Y-85.535
X142.275Y-134.2
X142.28Y-125.26
X142.455Y-75.8
X142.465Y-72.225
X142.465Y-74.175
X142.475Y-70.2
X142.99Y-139.175
X142.99Y-140.85
X142.99Y-142.975
X142.99Y-144.65
X144.22Y-82.85
X144.255Y-102.26
X144.265Y-100.11
X144.28Y-125.26
X144.425Y-79.35
X144.455Y-75.8
X144.465Y-72.225
X144.465Y-74.175
X144.475Y-70.2
X144.875Y-139.165
X144.875Y-140.84
X144.875Y-142.965
X144.875Y-144.64
X144.94Y-96.74
X144.95Y-97.51
X144.97Y-90.99
X145.74Y-90.29
X146.19Y-92.93
X146.19Y-93.75
X146.22Y-94.54
X146.425Y-79.35
X146.435Y-102.26
X146.445Y-100.11
X146.45Y-127.41
X146.46Y-88.53
X146.46Y-125.26
X146.495Y-75.8
X146.505Y-72.225
X146.505Y-74.175
X146.515Y-70.2
X146.915Y-139.165
X146.915Y-140.84
X146.915Y-142.965
X146.915Y-144.64
X146.99Y-92.93
X146.99Y-93.75
X147.02Y-94.54
X147.49Y-97.42
X147.64Y-98.82
X147.82Y-92.91
X147.82Y-93.73
X147.85Y-94.52
X148.435Y-102.26
X148.445Y-100.11
X148.45Y-127.41
X148.46Y-125.26
X148.545Y-75.8
X148.555Y-72.225
X148.555Y-74.175
X148.565Y-70.2
X148.85Y-81.87
X148.915Y-139.165
X148.915Y-140.84
X148.915Y-142.965
X148.915Y-144.64
X150.25Y-83.83
X150.25Y-94.04
X150.475Y-97.675
X150.475Y-102.26
X150.485Y-100.11
X150.49Y-127.41
X150.49Y-129.53
X150.5Y-125.26
X150.5Y-131.65
X150.5Y-133.77
X150.5Y-135.45
X150.545Y-75.8
X150.555Y-72.225
X150.555Y-74.175
X150.565Y-70.2
X150.82Y-77.75
X150.985Y-139.17
X150.985Y-140.845
X150.985Y-142.97
X150.985Y-144.645
X151.03Y-82.75
X151.49Y-93.87
X151.63Y-80.8
X152.475Y-97.675
X152.475Y-102.26
X152.485Y-95.525
X152.485Y-100.11
X152.49Y-127.41
X152.49Y-129.53
X152.5Y-125.26
X152.5Y-131.65
X152.5Y-133.77
X152.5Y-135.45
X152.5Y-137.125
X152.53Y-75.8
X152.54Y-72.225
X152.54Y-74.175
X152.55Y-70.2
X152.57Y-81.88
X152.73Y-80.8
X153.31Y-77.75
X153.63Y-81.88
X153.88Y-80.8
X154.525Y-97.675
X154.525Y-102.26
X154.53Y-75.8
X154.535Y-95.525
X154.535Y-100.11
X154.54Y-72.225
X154.54Y-74.175
X154.54Y-127.41
X154.54Y-129.53
X154.55Y-70.2
X154.55Y-125.26
X154.55Y-131.65
X154.55Y-133.77
X154.55Y-135.45
X154.55Y-137.125
X154.66Y-81.88
X154.91Y-80.8
X156.565Y-97.675
X156.565Y-102.26
X156.57Y-75.8
X156.575Y-89.1
X156.575Y-95.525
X156.575Y-100.11
X156.58Y-72.225
X156.58Y-74.175
X156.58Y-127.41
X156.58Y-129.53
X156.59Y-70.2
X156.59Y-125.26
X156.59Y-131.65
X156.59Y-133.77
X156.59Y-135.45
X156.59Y-137.125
X158.58Y-127.41
X158.58Y-129.53
X158.59Y-125.26
X158.59Y-131.65
X158.59Y-133.77
X158.59Y-135.45
X158.59Y-137.125
X158.62Y-75.8
X158.63Y-72.225
X158.63Y-74.175
X158.64Y-70.2
X160.46Y-100.1
X160.465Y-127.4
X160.465Y-129.52
X160.475Y-125.25
X160.475Y-131.64
X160.475Y-133.76
X160.475Y-135.44
X160.475Y-137.115
X160.485Y-97.675
X160.575Y-77.625
X160.575Y-79.675
X160.575Y-82.25
X160.575Y-84.35
X160.575Y-87.025
X160.575Y-89.1
X160.675Y-75.8
X160.685Y-72.225
X160.685Y-74.175
X160.695Y-70.2
X160.975Y-94.35
X161.45Y-105.26
X161.45Y-107.3
X161.45Y-109.01
X161.45Y-111.05
X162.505Y-127.4
X162.505Y-129.52
X162.515Y-121.125
X162.515Y-123.245
X162.515Y-125.25
X162.515Y-131.64
X162.515Y-133.76
X162.515Y-135.44
X162.515Y-137.115
X162.525Y-95.575
X162.525Y-97.675
X162.525Y-118.975
X162.575Y-87.025
X162.575Y-89.1
X162.675Y-75.8
X162.685Y-72.225
X162.685Y-74.175
X162.695Y-70.2
X164.505Y-127.4
X164.505Y-129.52
X164.515Y-121.125
X164.515Y-123.245
X164.515Y-125.25
X164.515Y-131.64
X164.515Y-133.76
X164.515Y-135.44
X164.515Y-137.115
X164.525Y-95.575
X164.525Y-97.675
X164.525Y-118.975
X164.715Y-75.8
X164.725Y-72.225
X164.725Y-74.175
X164.735Y-70.2
X164.775Y-77.625
X164.775Y-79.675
X164.775Y-82.25
X164.775Y-87.025
X165.55Y-107.45
X166.3Y-89.2
X166.4Y-95.575
X166.41Y-98.02
X166.41Y-100.6
X166.41Y-103.29
X166.565Y-121.125
X166.575Y-118.975
X166.575Y-129.525
X166.585Y-127.375
X166.585Y-133.765
X166.595Y-131.615
X166.9Y-72.225
X166.9Y-74.175
X166.9Y-87.2
X166.91Y-70.2
X166.925Y-75.8
X166.925Y-77.625
X167.42Y-94.23
X167.74Y-115.73
X167.85Y-103.22
X167.86Y-97.93
X168.91Y-97.93
X168.91Y-103.22
X169.125Y-75.8
X169.125Y-77.625
X170.075Y-92.425
X170.29Y-103.97
X171.825Y-77.625
X172.25Y-112.95
X172.25Y-115.69
X172.275Y-87.2
X172.275Y-89.2
X172.275Y-91.24
X172.275Y-93.29
X172.275Y-95.29
X172.275Y-97.275
X172.275Y-99.275
X172.275Y-101.315
X172.275Y-103.365
X172.5Y-110.67
X173.0Y-124.95
X174.4Y-77.625
X174.4Y-79.675
X174.425Y-87.21
X174.425Y-89.21
X174.425Y-91.25
X174.425Y-93.3
X174.425Y-95.3
X174.425Y-97.285
X174.425Y-99.285
X174.425Y-101.325
X174.425Y-103.375
X174.425Y-105.375
X175.0Y-119.56
T3
X170.28Y-129.308
X172.28Y-129.308
T4
X121.05Y-82.23
X121.05Y-85.23
X124.05Y-82.23
X124.05Y-85.23
X127.05Y-82.23
X127.05Y-85.23
T5
X118.42Y-97.92
X118.42Y-103.0
X120.96Y-100.46
X123.5Y-97.92
X123.5Y-103.0
X143.85Y-129.37
X143.85Y-134.45
X146.39Y-131.91
X148.93Y-129.37
X148.93Y-134.45
X166.975Y-79.495
X166.975Y-84.575
X169.515Y-82.035
X172.055Y-79.495
X172.055Y-84.575
M30
