%TF.GenerationSoftware,KiCad,Pcbnew,10.0.3*%
%TF.CreationDate,2026-08-08T17:59:29-05:00*%
%TF.ProjectId,mts-clk,6d74732d-636c-46b2-9e6b-696361645f70,rev?*%
%TF.SameCoordinates,Original*%
%TF.FileFunction,Legend,Top*%
%TF.FilePolarity,Positive*%
%FSLAX46Y46*%
G04 Gerber Fmt 4.6, Leading zero omitted, Abs format (unit mm)*
G04 Created by KiCad (PCBNEW 10.0.3) date 2026-08-08 17:59:29*
%MOMM*%
%LPD*%
G01*
G04 APERTURE LIST*
G04 Aperture macros list*
%AMRoundRect*
0 Rectangle with rounded corners*
0 $1 Rounding radius*
0 $2 $3 $4 $5 $6 $7 $8 $9 X,Y pos of 4 corners*
0 Add a 4 corners polygon primitive as box body*
4,1,4,$2,$3,$4,$5,$6,$7,$8,$9,$2,$3,0*
0 Add four circle primitives for the rounded corners*
1,1,$1+$1,$2,$3*
1,1,$1+$1,$4,$5*
1,1,$1+$1,$6,$7*
1,1,$1+$1,$8,$9*
0 Add four rect primitives between the rounded corners*
20,1,$1+$1,$2,$3,$4,$5,0*
20,1,$1+$1,$4,$5,$6,$7,0*
20,1,$1+$1,$6,$7,$8,$9,0*
20,1,$1+$1,$8,$9,$2,$3,0*%
%AMFreePoly0*
4,1,11,1.467500,1.700000,0.527500,0.844500,0.527500,-0.844500,1.467500,-1.700000,1.467500,-2.755000,0.527500,-2.755000,-0.527500,-1.700000,-0.527500,1.700000,0.527500,2.755000,1.467500,2.755000,1.467500,1.700000,1.467500,1.700000,$1*%
%AMFreePoly1*
4,1,11,0.527500,1.700000,0.527500,-1.700000,-0.527500,-2.755000,-1.467500,-2.755000,-1.467500,-1.700000,-0.527500,-0.844500,-0.527500,0.844500,-1.467500,1.700000,-1.467500,2.755000,-0.527500,2.755000,0.527500,1.700000,0.527500,1.700000,$1*%
G04 Aperture macros list end*
%ADD10C,0.150000*%
%ADD11C,0.254000*%
%ADD12C,0.120000*%
%ADD13C,0.152400*%
%ADD14C,0.000000*%
%ADD15C,0.508000*%
%ADD16C,0.100000*%
%ADD17C,0.200000*%
%ADD18RoundRect,0.250000X0.475000X-0.250000X0.475000X0.250000X-0.475000X0.250000X-0.475000X-0.250000X0*%
%ADD19RoundRect,0.200000X0.275000X-0.200000X0.275000X0.200000X-0.275000X0.200000X-0.275000X-0.200000X0*%
%ADD20RoundRect,0.140000X0.140000X0.170000X-0.140000X0.170000X-0.140000X-0.170000X0.140000X-0.170000X0*%
%ADD21C,2.108200*%
%ADD22RoundRect,0.250000X-0.250000X-0.475000X0.250000X-0.475000X0.250000X0.475000X-0.250000X0.475000X0*%
%ADD23RoundRect,0.225000X0.225000X0.250000X-0.225000X0.250000X-0.225000X-0.250000X0.225000X-0.250000X0*%
%ADD24RoundRect,0.250000X0.250000X0.475000X-0.250000X0.475000X-0.250000X-0.475000X0.250000X-0.475000X0*%
%ADD25RoundRect,0.200000X-0.275000X0.200000X-0.275000X-0.200000X0.275000X-0.200000X0.275000X0.200000X0*%
%ADD26RoundRect,0.250000X-0.262500X-0.450000X0.262500X-0.450000X0.262500X0.450000X-0.262500X0.450000X0*%
%ADD27RoundRect,0.225000X-0.225000X-0.250000X0.225000X-0.250000X0.225000X0.250000X-0.225000X0.250000X0*%
%ADD28FreePoly0,90.000000*%
%ADD29FreePoly1,90.000000*%
%ADD30RoundRect,0.140000X0.170000X-0.140000X0.170000X0.140000X-0.170000X0.140000X-0.170000X-0.140000X0*%
%ADD31R,0.812800X0.254000*%
%ADD32R,0.254000X0.812800*%
%ADD33R,2.438400X2.438400*%
%ADD34C,1.066800*%
%ADD35C,1.574800*%
%ADD36C,3.200000*%
%ADD37RoundRect,0.218750X0.256250X-0.218750X0.256250X0.218750X-0.256250X0.218750X-0.256250X-0.218750X0*%
%ADD38RoundRect,0.250000X-0.475000X0.250000X-0.475000X-0.250000X0.475000X-0.250000X0.475000X0.250000X0*%
%ADD39RoundRect,0.250000X-1.450000X-0.650000X1.450000X-0.650000X1.450000X0.650000X-1.450000X0.650000X0*%
%ADD40RoundRect,0.200000X0.200000X0.275000X-0.200000X0.275000X-0.200000X-0.275000X0.200000X-0.275000X0*%
%ADD41RoundRect,0.250000X-0.450000X0.262500X-0.450000X-0.262500X0.450000X-0.262500X0.450000X0.262500X0*%
%ADD42RoundRect,0.218750X0.218750X0.256250X-0.218750X0.256250X-0.218750X-0.256250X0.218750X-0.256250X0*%
%ADD43RoundRect,0.250000X-0.650000X1.450000X-0.650000X-1.450000X0.650000X-1.450000X0.650000X1.450000X0*%
%ADD44RoundRect,0.140000X-0.140000X-0.170000X0.140000X-0.170000X0.140000X0.170000X-0.140000X0.170000X0*%
%ADD45R,1.520000X1.520000*%
%ADD46R,0.760000X1.650000*%
%ADD47RoundRect,0.200000X-0.200000X-0.275000X0.200000X-0.275000X0.200000X0.275000X-0.200000X0.275000X0*%
%ADD48RoundRect,0.250000X-0.325000X-0.650000X0.325000X-0.650000X0.325000X0.650000X-0.325000X0.650000X0*%
%ADD49RoundRect,0.150000X0.150000X-0.825000X0.150000X0.825000X-0.150000X0.825000X-0.150000X-0.825000X0*%
%ADD50FreePoly0,180.000000*%
%ADD51FreePoly1,180.000000*%
%ADD52C,1.320800*%
%ADD53RoundRect,0.250000X0.650000X-1.450000X0.650000X1.450000X-0.650000X1.450000X-0.650000X-1.450000X0*%
%ADD54RoundRect,0.250000X0.262500X0.450000X-0.262500X0.450000X-0.262500X-0.450000X0.262500X-0.450000X0*%
%ADD55RoundRect,0.140000X-0.170000X0.140000X-0.170000X-0.140000X0.170000X-0.140000X0.170000X0.140000X0*%
%ADD56C,0.600000*%
G04 APERTURE END LIST*
D10*
X117716666Y-95379819D02*
X117716666Y-96094104D01*
X117716666Y-96094104D02*
X117669047Y-96236961D01*
X117669047Y-96236961D02*
X117573809Y-96332200D01*
X117573809Y-96332200D02*
X117430952Y-96379819D01*
X117430952Y-96379819D02*
X117335714Y-96379819D01*
X118716666Y-96379819D02*
X118145238Y-96379819D01*
X118430952Y-96379819D02*
X118430952Y-95379819D01*
X118430952Y-95379819D02*
X118335714Y-95522676D01*
X118335714Y-95522676D02*
X118240476Y-95617914D01*
X118240476Y-95617914D02*
X118145238Y-95665533D01*
X117860714Y-105704819D02*
X117289286Y-105704819D01*
X117575000Y-105704819D02*
X117575000Y-104704819D01*
X117575000Y-104704819D02*
X117479762Y-104847676D01*
X117479762Y-104847676D02*
X117384524Y-104942914D01*
X117384524Y-104942914D02*
X117289286Y-104990533D01*
X118479762Y-104704819D02*
X118575000Y-104704819D01*
X118575000Y-104704819D02*
X118670238Y-104752438D01*
X118670238Y-104752438D02*
X118717857Y-104800057D01*
X118717857Y-104800057D02*
X118765476Y-104895295D01*
X118765476Y-104895295D02*
X118813095Y-105085771D01*
X118813095Y-105085771D02*
X118813095Y-105323866D01*
X118813095Y-105323866D02*
X118765476Y-105514342D01*
X118765476Y-105514342D02*
X118717857Y-105609580D01*
X118717857Y-105609580D02*
X118670238Y-105657200D01*
X118670238Y-105657200D02*
X118575000Y-105704819D01*
X118575000Y-105704819D02*
X118479762Y-105704819D01*
X118479762Y-105704819D02*
X118384524Y-105657200D01*
X118384524Y-105657200D02*
X118336905Y-105609580D01*
X118336905Y-105609580D02*
X118289286Y-105514342D01*
X118289286Y-105514342D02*
X118241667Y-105323866D01*
X118241667Y-105323866D02*
X118241667Y-105085771D01*
X118241667Y-105085771D02*
X118289286Y-104895295D01*
X118289286Y-104895295D02*
X118336905Y-104800057D01*
X118336905Y-104800057D02*
X118384524Y-104752438D01*
X118384524Y-104752438D02*
X118479762Y-104704819D01*
X120003572Y-105704819D02*
X120003572Y-104704819D01*
X120003572Y-104704819D02*
X120336905Y-105419104D01*
X120336905Y-105419104D02*
X120670238Y-104704819D01*
X120670238Y-104704819D02*
X120670238Y-105704819D01*
X121146429Y-105704819D02*
X121146429Y-104704819D01*
X121146429Y-105181009D02*
X121717857Y-105181009D01*
X121717857Y-105704819D02*
X121717857Y-104704819D01*
X122098810Y-105038152D02*
X122622619Y-105038152D01*
X122622619Y-105038152D02*
X122098810Y-105704819D01*
X122098810Y-105704819D02*
X122622619Y-105704819D01*
X123765477Y-105704819D02*
X123765477Y-104704819D01*
X124241667Y-105704819D02*
X124241667Y-104704819D01*
X124241667Y-104704819D02*
X124813095Y-105704819D01*
X124813095Y-105704819D02*
X124813095Y-104704819D01*
X143016666Y-126704819D02*
X143016666Y-127419104D01*
X143016666Y-127419104D02*
X142969047Y-127561961D01*
X142969047Y-127561961D02*
X142873809Y-127657200D01*
X142873809Y-127657200D02*
X142730952Y-127704819D01*
X142730952Y-127704819D02*
X142635714Y-127704819D01*
X143397619Y-126704819D02*
X144016666Y-126704819D01*
X144016666Y-126704819D02*
X143683333Y-127085771D01*
X143683333Y-127085771D02*
X143826190Y-127085771D01*
X143826190Y-127085771D02*
X143921428Y-127133390D01*
X143921428Y-127133390D02*
X143969047Y-127181009D01*
X143969047Y-127181009D02*
X144016666Y-127276247D01*
X144016666Y-127276247D02*
X144016666Y-127514342D01*
X144016666Y-127514342D02*
X143969047Y-127609580D01*
X143969047Y-127609580D02*
X143921428Y-127657200D01*
X143921428Y-127657200D02*
X143826190Y-127704819D01*
X143826190Y-127704819D02*
X143540476Y-127704819D01*
X143540476Y-127704819D02*
X143445238Y-127657200D01*
X143445238Y-127657200D02*
X143397619Y-127609580D01*
X142680952Y-137079819D02*
X142680952Y-136079819D01*
X142680952Y-136079819D02*
X142919047Y-136079819D01*
X142919047Y-136079819D02*
X143061904Y-136127438D01*
X143061904Y-136127438D02*
X143157142Y-136222676D01*
X143157142Y-136222676D02*
X143204761Y-136317914D01*
X143204761Y-136317914D02*
X143252380Y-136508390D01*
X143252380Y-136508390D02*
X143252380Y-136651247D01*
X143252380Y-136651247D02*
X143204761Y-136841723D01*
X143204761Y-136841723D02*
X143157142Y-136936961D01*
X143157142Y-136936961D02*
X143061904Y-137032200D01*
X143061904Y-137032200D02*
X142919047Y-137079819D01*
X142919047Y-137079819D02*
X142680952Y-137079819D01*
X143680952Y-136556009D02*
X144014285Y-136556009D01*
X144157142Y-137079819D02*
X143680952Y-137079819D01*
X143680952Y-137079819D02*
X143680952Y-136079819D01*
X143680952Y-136079819D02*
X144157142Y-136079819D01*
X144585714Y-137079819D02*
X144585714Y-136079819D01*
X144585714Y-136079819D02*
X144919047Y-136794104D01*
X144919047Y-136794104D02*
X145252380Y-136079819D01*
X145252380Y-136079819D02*
X145252380Y-137079819D01*
X145919047Y-136079819D02*
X146109523Y-136079819D01*
X146109523Y-136079819D02*
X146204761Y-136127438D01*
X146204761Y-136127438D02*
X146299999Y-136222676D01*
X146299999Y-136222676D02*
X146347618Y-136413152D01*
X146347618Y-136413152D02*
X146347618Y-136746485D01*
X146347618Y-136746485D02*
X146299999Y-136936961D01*
X146299999Y-136936961D02*
X146204761Y-137032200D01*
X146204761Y-137032200D02*
X146109523Y-137079819D01*
X146109523Y-137079819D02*
X145919047Y-137079819D01*
X145919047Y-137079819D02*
X145823809Y-137032200D01*
X145823809Y-137032200D02*
X145728571Y-136936961D01*
X145728571Y-136936961D02*
X145680952Y-136746485D01*
X145680952Y-136746485D02*
X145680952Y-136413152D01*
X145680952Y-136413152D02*
X145728571Y-136222676D01*
X145728571Y-136222676D02*
X145823809Y-136127438D01*
X145823809Y-136127438D02*
X145919047Y-136079819D01*
X146776190Y-137079819D02*
X146776190Y-136079819D01*
X146776190Y-136079819D02*
X147014285Y-136079819D01*
X147014285Y-136079819D02*
X147157142Y-136127438D01*
X147157142Y-136127438D02*
X147252380Y-136222676D01*
X147252380Y-136222676D02*
X147299999Y-136317914D01*
X147299999Y-136317914D02*
X147347618Y-136508390D01*
X147347618Y-136508390D02*
X147347618Y-136651247D01*
X147347618Y-136651247D02*
X147299999Y-136841723D01*
X147299999Y-136841723D02*
X147252380Y-136936961D01*
X147252380Y-136936961D02*
X147157142Y-137032200D01*
X147157142Y-137032200D02*
X147014285Y-137079819D01*
X147014285Y-137079819D02*
X146776190Y-137079819D01*
X149014285Y-137079819D02*
X148538095Y-137079819D01*
X148538095Y-137079819D02*
X148538095Y-136079819D01*
X149538095Y-136079819D02*
X149728571Y-136079819D01*
X149728571Y-136079819D02*
X149823809Y-136127438D01*
X149823809Y-136127438D02*
X149919047Y-136222676D01*
X149919047Y-136222676D02*
X149966666Y-136413152D01*
X149966666Y-136413152D02*
X149966666Y-136746485D01*
X149966666Y-136746485D02*
X149919047Y-136936961D01*
X149919047Y-136936961D02*
X149823809Y-137032200D01*
X149823809Y-137032200D02*
X149728571Y-137079819D01*
X149728571Y-137079819D02*
X149538095Y-137079819D01*
X149538095Y-137079819D02*
X149442857Y-137032200D01*
X149442857Y-137032200D02*
X149347619Y-136936961D01*
X149347619Y-136936961D02*
X149300000Y-136746485D01*
X149300000Y-136746485D02*
X149300000Y-136413152D01*
X149300000Y-136413152D02*
X149347619Y-136222676D01*
X149347619Y-136222676D02*
X149442857Y-136127438D01*
X149442857Y-136127438D02*
X149538095Y-136079819D01*
X168752381Y-137304819D02*
X168752381Y-136304819D01*
X168752381Y-136304819D02*
X169133333Y-136304819D01*
X169133333Y-136304819D02*
X169228571Y-136352438D01*
X169228571Y-136352438D02*
X169276190Y-136400057D01*
X169276190Y-136400057D02*
X169323809Y-136495295D01*
X169323809Y-136495295D02*
X169323809Y-136638152D01*
X169323809Y-136638152D02*
X169276190Y-136733390D01*
X169276190Y-136733390D02*
X169228571Y-136781009D01*
X169228571Y-136781009D02*
X169133333Y-136828628D01*
X169133333Y-136828628D02*
X168752381Y-136828628D01*
X169657143Y-136304819D02*
X169895238Y-137304819D01*
X169895238Y-137304819D02*
X170085714Y-136590533D01*
X170085714Y-136590533D02*
X170276190Y-137304819D01*
X170276190Y-137304819D02*
X170514286Y-136304819D01*
X170895238Y-137304819D02*
X170895238Y-136304819D01*
X170895238Y-136304819D02*
X171228571Y-137019104D01*
X171228571Y-137019104D02*
X171561904Y-136304819D01*
X171561904Y-136304819D02*
X171561904Y-137304819D01*
X172800000Y-137304819D02*
X172800000Y-136304819D01*
X173276190Y-137304819D02*
X173276190Y-136304819D01*
X173276190Y-136304819D02*
X173847618Y-137304819D01*
X173847618Y-137304819D02*
X173847618Y-136304819D01*
X172113095Y-126427438D02*
X172017857Y-126379819D01*
X172017857Y-126379819D02*
X171875000Y-126379819D01*
X171875000Y-126379819D02*
X171732143Y-126427438D01*
X171732143Y-126427438D02*
X171636905Y-126522676D01*
X171636905Y-126522676D02*
X171589286Y-126617914D01*
X171589286Y-126617914D02*
X171541667Y-126808390D01*
X171541667Y-126808390D02*
X171541667Y-126951247D01*
X171541667Y-126951247D02*
X171589286Y-127141723D01*
X171589286Y-127141723D02*
X171636905Y-127236961D01*
X171636905Y-127236961D02*
X171732143Y-127332200D01*
X171732143Y-127332200D02*
X171875000Y-127379819D01*
X171875000Y-127379819D02*
X171970238Y-127379819D01*
X171970238Y-127379819D02*
X172113095Y-127332200D01*
X172113095Y-127332200D02*
X172160714Y-127284580D01*
X172160714Y-127284580D02*
X172160714Y-126951247D01*
X172160714Y-126951247D02*
X171970238Y-126951247D01*
X172589286Y-127379819D02*
X172589286Y-126379819D01*
X172589286Y-126379819D02*
X173160714Y-127379819D01*
X173160714Y-127379819D02*
X173160714Y-126379819D01*
X173636905Y-127379819D02*
X173636905Y-126379819D01*
X173636905Y-126379819D02*
X173875000Y-126379819D01*
X173875000Y-126379819D02*
X174017857Y-126427438D01*
X174017857Y-126427438D02*
X174113095Y-126522676D01*
X174113095Y-126522676D02*
X174160714Y-126617914D01*
X174160714Y-126617914D02*
X174208333Y-126808390D01*
X174208333Y-126808390D02*
X174208333Y-126951247D01*
X174208333Y-126951247D02*
X174160714Y-127141723D01*
X174160714Y-127141723D02*
X174113095Y-127236961D01*
X174113095Y-127236961D02*
X174017857Y-127332200D01*
X174017857Y-127332200D02*
X173875000Y-127379819D01*
X173875000Y-127379819D02*
X173636905Y-127379819D01*
X132404819Y-86352380D02*
X131404819Y-86352380D01*
X131404819Y-86352380D02*
X131404819Y-85971428D01*
X131404819Y-85971428D02*
X131452438Y-85876190D01*
X131452438Y-85876190D02*
X131500057Y-85828571D01*
X131500057Y-85828571D02*
X131595295Y-85780952D01*
X131595295Y-85780952D02*
X131738152Y-85780952D01*
X131738152Y-85780952D02*
X131833390Y-85828571D01*
X131833390Y-85828571D02*
X131881009Y-85876190D01*
X131881009Y-85876190D02*
X131928628Y-85971428D01*
X131928628Y-85971428D02*
X131928628Y-86352380D01*
X131404819Y-85161904D02*
X131404819Y-84971428D01*
X131404819Y-84971428D02*
X131452438Y-84876190D01*
X131452438Y-84876190D02*
X131547676Y-84780952D01*
X131547676Y-84780952D02*
X131738152Y-84733333D01*
X131738152Y-84733333D02*
X132071485Y-84733333D01*
X132071485Y-84733333D02*
X132261961Y-84780952D01*
X132261961Y-84780952D02*
X132357200Y-84876190D01*
X132357200Y-84876190D02*
X132404819Y-84971428D01*
X132404819Y-84971428D02*
X132404819Y-85161904D01*
X132404819Y-85161904D02*
X132357200Y-85257142D01*
X132357200Y-85257142D02*
X132261961Y-85352380D01*
X132261961Y-85352380D02*
X132071485Y-85399999D01*
X132071485Y-85399999D02*
X131738152Y-85399999D01*
X131738152Y-85399999D02*
X131547676Y-85352380D01*
X131547676Y-85352380D02*
X131452438Y-85257142D01*
X131452438Y-85257142D02*
X131404819Y-85161904D01*
X131404819Y-84399999D02*
X132404819Y-84161904D01*
X132404819Y-84161904D02*
X131690533Y-83971428D01*
X131690533Y-83971428D02*
X132404819Y-83780952D01*
X132404819Y-83780952D02*
X131404819Y-83542857D01*
X131881009Y-83161904D02*
X131881009Y-82828571D01*
X132404819Y-82685714D02*
X132404819Y-83161904D01*
X132404819Y-83161904D02*
X131404819Y-83161904D01*
X131404819Y-83161904D02*
X131404819Y-82685714D01*
X132404819Y-81685714D02*
X131928628Y-82019047D01*
X132404819Y-82257142D02*
X131404819Y-82257142D01*
X131404819Y-82257142D02*
X131404819Y-81876190D01*
X131404819Y-81876190D02*
X131452438Y-81780952D01*
X131452438Y-81780952D02*
X131500057Y-81733333D01*
X131500057Y-81733333D02*
X131595295Y-81685714D01*
X131595295Y-81685714D02*
X131738152Y-81685714D01*
X131738152Y-81685714D02*
X131833390Y-81733333D01*
X131833390Y-81733333D02*
X131881009Y-81780952D01*
X131881009Y-81780952D02*
X131928628Y-81876190D01*
X131928628Y-81876190D02*
X131928628Y-82257142D01*
X132404819Y-80495237D02*
X131404819Y-80495237D01*
X132404819Y-80019047D02*
X131404819Y-80019047D01*
X131404819Y-80019047D02*
X132404819Y-79447619D01*
X132404819Y-79447619D02*
X131404819Y-79447619D01*
X164354819Y-85283333D02*
X165069104Y-85283333D01*
X165069104Y-85283333D02*
X165211961Y-85330952D01*
X165211961Y-85330952D02*
X165307200Y-85426190D01*
X165307200Y-85426190D02*
X165354819Y-85569047D01*
X165354819Y-85569047D02*
X165354819Y-85664285D01*
X164450057Y-84854761D02*
X164402438Y-84807142D01*
X164402438Y-84807142D02*
X164354819Y-84711904D01*
X164354819Y-84711904D02*
X164354819Y-84473809D01*
X164354819Y-84473809D02*
X164402438Y-84378571D01*
X164402438Y-84378571D02*
X164450057Y-84330952D01*
X164450057Y-84330952D02*
X164545295Y-84283333D01*
X164545295Y-84283333D02*
X164640533Y-84283333D01*
X164640533Y-84283333D02*
X164783390Y-84330952D01*
X164783390Y-84330952D02*
X165354819Y-84902380D01*
X165354819Y-84902380D02*
X165354819Y-84283333D01*
X174381009Y-85684523D02*
X174381009Y-85351190D01*
X174904819Y-85208333D02*
X174904819Y-85684523D01*
X174904819Y-85684523D02*
X173904819Y-85684523D01*
X173904819Y-85684523D02*
X173904819Y-85208333D01*
X173904819Y-84589285D02*
X173904819Y-84398809D01*
X173904819Y-84398809D02*
X173952438Y-84303571D01*
X173952438Y-84303571D02*
X174047676Y-84208333D01*
X174047676Y-84208333D02*
X174238152Y-84160714D01*
X174238152Y-84160714D02*
X174571485Y-84160714D01*
X174571485Y-84160714D02*
X174761961Y-84208333D01*
X174761961Y-84208333D02*
X174857200Y-84303571D01*
X174857200Y-84303571D02*
X174904819Y-84398809D01*
X174904819Y-84398809D02*
X174904819Y-84589285D01*
X174904819Y-84589285D02*
X174857200Y-84684523D01*
X174857200Y-84684523D02*
X174761961Y-84779761D01*
X174761961Y-84779761D02*
X174571485Y-84827380D01*
X174571485Y-84827380D02*
X174238152Y-84827380D01*
X174238152Y-84827380D02*
X174047676Y-84779761D01*
X174047676Y-84779761D02*
X173952438Y-84684523D01*
X173952438Y-84684523D02*
X173904819Y-84589285D01*
X174904819Y-83732142D02*
X173904819Y-83732142D01*
X173904819Y-83732142D02*
X174619104Y-83398809D01*
X174619104Y-83398809D02*
X173904819Y-83065476D01*
X173904819Y-83065476D02*
X174904819Y-83065476D01*
D11*
X155676905Y-144549318D02*
X155676905Y-143702651D01*
X155676905Y-143823603D02*
X155737382Y-143763127D01*
X155737382Y-143763127D02*
X155858334Y-143702651D01*
X155858334Y-143702651D02*
X156039763Y-143702651D01*
X156039763Y-143702651D02*
X156160715Y-143763127D01*
X156160715Y-143763127D02*
X156221191Y-143884080D01*
X156221191Y-143884080D02*
X156221191Y-144549318D01*
X156221191Y-143884080D02*
X156281667Y-143763127D01*
X156281667Y-143763127D02*
X156402620Y-143702651D01*
X156402620Y-143702651D02*
X156584048Y-143702651D01*
X156584048Y-143702651D02*
X156705001Y-143763127D01*
X156705001Y-143763127D02*
X156765477Y-143884080D01*
X156765477Y-143884080D02*
X156765477Y-144549318D01*
X157188810Y-143702651D02*
X157672619Y-143702651D01*
X157370238Y-143279318D02*
X157370238Y-144367889D01*
X157370238Y-144367889D02*
X157430715Y-144488842D01*
X157430715Y-144488842D02*
X157551667Y-144549318D01*
X157551667Y-144549318D02*
X157672619Y-144549318D01*
X158035476Y-144488842D02*
X158156429Y-144549318D01*
X158156429Y-144549318D02*
X158398333Y-144549318D01*
X158398333Y-144549318D02*
X158519286Y-144488842D01*
X158519286Y-144488842D02*
X158579762Y-144367889D01*
X158579762Y-144367889D02*
X158579762Y-144307413D01*
X158579762Y-144307413D02*
X158519286Y-144186461D01*
X158519286Y-144186461D02*
X158398333Y-144125984D01*
X158398333Y-144125984D02*
X158216905Y-144125984D01*
X158216905Y-144125984D02*
X158095952Y-144065508D01*
X158095952Y-144065508D02*
X158035476Y-143944556D01*
X158035476Y-143944556D02*
X158035476Y-143884080D01*
X158035476Y-143884080D02*
X158095952Y-143763127D01*
X158095952Y-143763127D02*
X158216905Y-143702651D01*
X158216905Y-143702651D02*
X158398333Y-143702651D01*
X158398333Y-143702651D02*
X158519286Y-143763127D01*
X159124047Y-144065508D02*
X160091667Y-144065508D01*
X161240714Y-144488842D02*
X161119762Y-144549318D01*
X161119762Y-144549318D02*
X160877857Y-144549318D01*
X160877857Y-144549318D02*
X160756905Y-144488842D01*
X160756905Y-144488842D02*
X160696428Y-144428365D01*
X160696428Y-144428365D02*
X160635952Y-144307413D01*
X160635952Y-144307413D02*
X160635952Y-143944556D01*
X160635952Y-143944556D02*
X160696428Y-143823603D01*
X160696428Y-143823603D02*
X160756905Y-143763127D01*
X160756905Y-143763127D02*
X160877857Y-143702651D01*
X160877857Y-143702651D02*
X161119762Y-143702651D01*
X161119762Y-143702651D02*
X161240714Y-143763127D01*
X161966428Y-144549318D02*
X161845476Y-144488842D01*
X161845476Y-144488842D02*
X161784999Y-144367889D01*
X161784999Y-144367889D02*
X161784999Y-143279318D01*
X162450237Y-144549318D02*
X162450237Y-143279318D01*
X162571190Y-144065508D02*
X162934047Y-144549318D01*
X162934047Y-143702651D02*
X162450237Y-144186461D01*
X163478332Y-144065508D02*
X164445952Y-144065508D01*
X164929761Y-143702651D02*
X165232142Y-144549318D01*
X165232142Y-144549318D02*
X165534523Y-143702651D01*
X166260237Y-143279318D02*
X166381190Y-143279318D01*
X166381190Y-143279318D02*
X166502142Y-143339794D01*
X166502142Y-143339794D02*
X166562618Y-143400270D01*
X166562618Y-143400270D02*
X166623094Y-143521222D01*
X166623094Y-143521222D02*
X166683571Y-143763127D01*
X166683571Y-143763127D02*
X166683571Y-144065508D01*
X166683571Y-144065508D02*
X166623094Y-144307413D01*
X166623094Y-144307413D02*
X166562618Y-144428365D01*
X166562618Y-144428365D02*
X166502142Y-144488842D01*
X166502142Y-144488842D02*
X166381190Y-144549318D01*
X166381190Y-144549318D02*
X166260237Y-144549318D01*
X166260237Y-144549318D02*
X166139285Y-144488842D01*
X166139285Y-144488842D02*
X166078809Y-144428365D01*
X166078809Y-144428365D02*
X166018332Y-144307413D01*
X166018332Y-144307413D02*
X165957856Y-144065508D01*
X165957856Y-144065508D02*
X165957856Y-143763127D01*
X165957856Y-143763127D02*
X166018332Y-143521222D01*
X166018332Y-143521222D02*
X166078809Y-143400270D01*
X166078809Y-143400270D02*
X166139285Y-143339794D01*
X166139285Y-143339794D02*
X166260237Y-143279318D01*
D10*
X149449580Y-90206666D02*
X149497200Y-90254285D01*
X149497200Y-90254285D02*
X149544819Y-90397142D01*
X149544819Y-90397142D02*
X149544819Y-90492380D01*
X149544819Y-90492380D02*
X149497200Y-90635237D01*
X149497200Y-90635237D02*
X149401961Y-90730475D01*
X149401961Y-90730475D02*
X149306723Y-90778094D01*
X149306723Y-90778094D02*
X149116247Y-90825713D01*
X149116247Y-90825713D02*
X148973390Y-90825713D01*
X148973390Y-90825713D02*
X148782914Y-90778094D01*
X148782914Y-90778094D02*
X148687676Y-90730475D01*
X148687676Y-90730475D02*
X148592438Y-90635237D01*
X148592438Y-90635237D02*
X148544819Y-90492380D01*
X148544819Y-90492380D02*
X148544819Y-90397142D01*
X148544819Y-90397142D02*
X148592438Y-90254285D01*
X148592438Y-90254285D02*
X148640057Y-90206666D01*
X148973390Y-89635237D02*
X148925771Y-89730475D01*
X148925771Y-89730475D02*
X148878152Y-89778094D01*
X148878152Y-89778094D02*
X148782914Y-89825713D01*
X148782914Y-89825713D02*
X148735295Y-89825713D01*
X148735295Y-89825713D02*
X148640057Y-89778094D01*
X148640057Y-89778094D02*
X148592438Y-89730475D01*
X148592438Y-89730475D02*
X148544819Y-89635237D01*
X148544819Y-89635237D02*
X148544819Y-89444761D01*
X148544819Y-89444761D02*
X148592438Y-89349523D01*
X148592438Y-89349523D02*
X148640057Y-89301904D01*
X148640057Y-89301904D02*
X148735295Y-89254285D01*
X148735295Y-89254285D02*
X148782914Y-89254285D01*
X148782914Y-89254285D02*
X148878152Y-89301904D01*
X148878152Y-89301904D02*
X148925771Y-89349523D01*
X148925771Y-89349523D02*
X148973390Y-89444761D01*
X148973390Y-89444761D02*
X148973390Y-89635237D01*
X148973390Y-89635237D02*
X149021009Y-89730475D01*
X149021009Y-89730475D02*
X149068628Y-89778094D01*
X149068628Y-89778094D02*
X149163866Y-89825713D01*
X149163866Y-89825713D02*
X149354342Y-89825713D01*
X149354342Y-89825713D02*
X149449580Y-89778094D01*
X149449580Y-89778094D02*
X149497200Y-89730475D01*
X149497200Y-89730475D02*
X149544819Y-89635237D01*
X149544819Y-89635237D02*
X149544819Y-89444761D01*
X149544819Y-89444761D02*
X149497200Y-89349523D01*
X149497200Y-89349523D02*
X149449580Y-89301904D01*
X149449580Y-89301904D02*
X149354342Y-89254285D01*
X149354342Y-89254285D02*
X149163866Y-89254285D01*
X149163866Y-89254285D02*
X149068628Y-89301904D01*
X149068628Y-89301904D02*
X149021009Y-89349523D01*
X149021009Y-89349523D02*
X148973390Y-89444761D01*
X169139819Y-114597857D02*
X168663628Y-114931190D01*
X169139819Y-115169285D02*
X168139819Y-115169285D01*
X168139819Y-115169285D02*
X168139819Y-114788333D01*
X168139819Y-114788333D02*
X168187438Y-114693095D01*
X168187438Y-114693095D02*
X168235057Y-114645476D01*
X168235057Y-114645476D02*
X168330295Y-114597857D01*
X168330295Y-114597857D02*
X168473152Y-114597857D01*
X168473152Y-114597857D02*
X168568390Y-114645476D01*
X168568390Y-114645476D02*
X168616009Y-114693095D01*
X168616009Y-114693095D02*
X168663628Y-114788333D01*
X168663628Y-114788333D02*
X168663628Y-115169285D01*
X169139819Y-113645476D02*
X169139819Y-114216904D01*
X169139819Y-113931190D02*
X168139819Y-113931190D01*
X168139819Y-113931190D02*
X168282676Y-114026428D01*
X168282676Y-114026428D02*
X168377914Y-114121666D01*
X168377914Y-114121666D02*
X168425533Y-114216904D01*
X168473152Y-112788333D02*
X169139819Y-112788333D01*
X168092200Y-113026428D02*
X168806485Y-113264523D01*
X168806485Y-113264523D02*
X168806485Y-112645476D01*
X124197142Y-131019580D02*
X124149523Y-131067200D01*
X124149523Y-131067200D02*
X124006666Y-131114819D01*
X124006666Y-131114819D02*
X123911428Y-131114819D01*
X123911428Y-131114819D02*
X123768571Y-131067200D01*
X123768571Y-131067200D02*
X123673333Y-130971961D01*
X123673333Y-130971961D02*
X123625714Y-130876723D01*
X123625714Y-130876723D02*
X123578095Y-130686247D01*
X123578095Y-130686247D02*
X123578095Y-130543390D01*
X123578095Y-130543390D02*
X123625714Y-130352914D01*
X123625714Y-130352914D02*
X123673333Y-130257676D01*
X123673333Y-130257676D02*
X123768571Y-130162438D01*
X123768571Y-130162438D02*
X123911428Y-130114819D01*
X123911428Y-130114819D02*
X124006666Y-130114819D01*
X124006666Y-130114819D02*
X124149523Y-130162438D01*
X124149523Y-130162438D02*
X124197142Y-130210057D01*
X124578095Y-130210057D02*
X124625714Y-130162438D01*
X124625714Y-130162438D02*
X124720952Y-130114819D01*
X124720952Y-130114819D02*
X124959047Y-130114819D01*
X124959047Y-130114819D02*
X125054285Y-130162438D01*
X125054285Y-130162438D02*
X125101904Y-130210057D01*
X125101904Y-130210057D02*
X125149523Y-130305295D01*
X125149523Y-130305295D02*
X125149523Y-130400533D01*
X125149523Y-130400533D02*
X125101904Y-130543390D01*
X125101904Y-130543390D02*
X124530476Y-131114819D01*
X124530476Y-131114819D02*
X125149523Y-131114819D01*
X125768571Y-130114819D02*
X125863809Y-130114819D01*
X125863809Y-130114819D02*
X125959047Y-130162438D01*
X125959047Y-130162438D02*
X126006666Y-130210057D01*
X126006666Y-130210057D02*
X126054285Y-130305295D01*
X126054285Y-130305295D02*
X126101904Y-130495771D01*
X126101904Y-130495771D02*
X126101904Y-130733866D01*
X126101904Y-130733866D02*
X126054285Y-130924342D01*
X126054285Y-130924342D02*
X126006666Y-131019580D01*
X126006666Y-131019580D02*
X125959047Y-131067200D01*
X125959047Y-131067200D02*
X125863809Y-131114819D01*
X125863809Y-131114819D02*
X125768571Y-131114819D01*
X125768571Y-131114819D02*
X125673333Y-131067200D01*
X125673333Y-131067200D02*
X125625714Y-131019580D01*
X125625714Y-131019580D02*
X125578095Y-130924342D01*
X125578095Y-130924342D02*
X125530476Y-130733866D01*
X125530476Y-130733866D02*
X125530476Y-130495771D01*
X125530476Y-130495771D02*
X125578095Y-130305295D01*
X125578095Y-130305295D02*
X125625714Y-130210057D01*
X125625714Y-130210057D02*
X125673333Y-130162438D01*
X125673333Y-130162438D02*
X125768571Y-130114819D01*
X146056666Y-131364819D02*
X146056666Y-132079104D01*
X146056666Y-132079104D02*
X146009047Y-132221961D01*
X146009047Y-132221961D02*
X145913809Y-132317200D01*
X145913809Y-132317200D02*
X145770952Y-132364819D01*
X145770952Y-132364819D02*
X145675714Y-132364819D01*
X146437619Y-131364819D02*
X147056666Y-131364819D01*
X147056666Y-131364819D02*
X146723333Y-131745771D01*
X146723333Y-131745771D02*
X146866190Y-131745771D01*
X146866190Y-131745771D02*
X146961428Y-131793390D01*
X146961428Y-131793390D02*
X147009047Y-131841009D01*
X147009047Y-131841009D02*
X147056666Y-131936247D01*
X147056666Y-131936247D02*
X147056666Y-132174342D01*
X147056666Y-132174342D02*
X147009047Y-132269580D01*
X147009047Y-132269580D02*
X146961428Y-132317200D01*
X146961428Y-132317200D02*
X146866190Y-132364819D01*
X146866190Y-132364819D02*
X146580476Y-132364819D01*
X146580476Y-132364819D02*
X146485238Y-132317200D01*
X146485238Y-132317200D02*
X146437619Y-132269580D01*
X142058333Y-87109580D02*
X142010714Y-87157200D01*
X142010714Y-87157200D02*
X141867857Y-87204819D01*
X141867857Y-87204819D02*
X141772619Y-87204819D01*
X141772619Y-87204819D02*
X141629762Y-87157200D01*
X141629762Y-87157200D02*
X141534524Y-87061961D01*
X141534524Y-87061961D02*
X141486905Y-86966723D01*
X141486905Y-86966723D02*
X141439286Y-86776247D01*
X141439286Y-86776247D02*
X141439286Y-86633390D01*
X141439286Y-86633390D02*
X141486905Y-86442914D01*
X141486905Y-86442914D02*
X141534524Y-86347676D01*
X141534524Y-86347676D02*
X141629762Y-86252438D01*
X141629762Y-86252438D02*
X141772619Y-86204819D01*
X141772619Y-86204819D02*
X141867857Y-86204819D01*
X141867857Y-86204819D02*
X142010714Y-86252438D01*
X142010714Y-86252438D02*
X142058333Y-86300057D01*
X142915476Y-86204819D02*
X142725000Y-86204819D01*
X142725000Y-86204819D02*
X142629762Y-86252438D01*
X142629762Y-86252438D02*
X142582143Y-86300057D01*
X142582143Y-86300057D02*
X142486905Y-86442914D01*
X142486905Y-86442914D02*
X142439286Y-86633390D01*
X142439286Y-86633390D02*
X142439286Y-87014342D01*
X142439286Y-87014342D02*
X142486905Y-87109580D01*
X142486905Y-87109580D02*
X142534524Y-87157200D01*
X142534524Y-87157200D02*
X142629762Y-87204819D01*
X142629762Y-87204819D02*
X142820238Y-87204819D01*
X142820238Y-87204819D02*
X142915476Y-87157200D01*
X142915476Y-87157200D02*
X142963095Y-87109580D01*
X142963095Y-87109580D02*
X143010714Y-87014342D01*
X143010714Y-87014342D02*
X143010714Y-86776247D01*
X143010714Y-86776247D02*
X142963095Y-86681009D01*
X142963095Y-86681009D02*
X142915476Y-86633390D01*
X142915476Y-86633390D02*
X142820238Y-86585771D01*
X142820238Y-86585771D02*
X142629762Y-86585771D01*
X142629762Y-86585771D02*
X142534524Y-86633390D01*
X142534524Y-86633390D02*
X142486905Y-86681009D01*
X142486905Y-86681009D02*
X142439286Y-86776247D01*
X127717142Y-91609580D02*
X127669523Y-91657200D01*
X127669523Y-91657200D02*
X127526666Y-91704819D01*
X127526666Y-91704819D02*
X127431428Y-91704819D01*
X127431428Y-91704819D02*
X127288571Y-91657200D01*
X127288571Y-91657200D02*
X127193333Y-91561961D01*
X127193333Y-91561961D02*
X127145714Y-91466723D01*
X127145714Y-91466723D02*
X127098095Y-91276247D01*
X127098095Y-91276247D02*
X127098095Y-91133390D01*
X127098095Y-91133390D02*
X127145714Y-90942914D01*
X127145714Y-90942914D02*
X127193333Y-90847676D01*
X127193333Y-90847676D02*
X127288571Y-90752438D01*
X127288571Y-90752438D02*
X127431428Y-90704819D01*
X127431428Y-90704819D02*
X127526666Y-90704819D01*
X127526666Y-90704819D02*
X127669523Y-90752438D01*
X127669523Y-90752438D02*
X127717142Y-90800057D01*
X128050476Y-90704819D02*
X128669523Y-90704819D01*
X128669523Y-90704819D02*
X128336190Y-91085771D01*
X128336190Y-91085771D02*
X128479047Y-91085771D01*
X128479047Y-91085771D02*
X128574285Y-91133390D01*
X128574285Y-91133390D02*
X128621904Y-91181009D01*
X128621904Y-91181009D02*
X128669523Y-91276247D01*
X128669523Y-91276247D02*
X128669523Y-91514342D01*
X128669523Y-91514342D02*
X128621904Y-91609580D01*
X128621904Y-91609580D02*
X128574285Y-91657200D01*
X128574285Y-91657200D02*
X128479047Y-91704819D01*
X128479047Y-91704819D02*
X128193333Y-91704819D01*
X128193333Y-91704819D02*
X128098095Y-91657200D01*
X128098095Y-91657200D02*
X128050476Y-91609580D01*
X129050476Y-90800057D02*
X129098095Y-90752438D01*
X129098095Y-90752438D02*
X129193333Y-90704819D01*
X129193333Y-90704819D02*
X129431428Y-90704819D01*
X129431428Y-90704819D02*
X129526666Y-90752438D01*
X129526666Y-90752438D02*
X129574285Y-90800057D01*
X129574285Y-90800057D02*
X129621904Y-90895295D01*
X129621904Y-90895295D02*
X129621904Y-90990533D01*
X129621904Y-90990533D02*
X129574285Y-91133390D01*
X129574285Y-91133390D02*
X129002857Y-91704819D01*
X129002857Y-91704819D02*
X129621904Y-91704819D01*
X149254819Y-85861666D02*
X148778628Y-86194999D01*
X149254819Y-86433094D02*
X148254819Y-86433094D01*
X148254819Y-86433094D02*
X148254819Y-86052142D01*
X148254819Y-86052142D02*
X148302438Y-85956904D01*
X148302438Y-85956904D02*
X148350057Y-85909285D01*
X148350057Y-85909285D02*
X148445295Y-85861666D01*
X148445295Y-85861666D02*
X148588152Y-85861666D01*
X148588152Y-85861666D02*
X148683390Y-85909285D01*
X148683390Y-85909285D02*
X148731009Y-85956904D01*
X148731009Y-85956904D02*
X148778628Y-86052142D01*
X148778628Y-86052142D02*
X148778628Y-86433094D01*
X148254819Y-85528332D02*
X148254819Y-84909285D01*
X148254819Y-84909285D02*
X148635771Y-85242618D01*
X148635771Y-85242618D02*
X148635771Y-85099761D01*
X148635771Y-85099761D02*
X148683390Y-85004523D01*
X148683390Y-85004523D02*
X148731009Y-84956904D01*
X148731009Y-84956904D02*
X148826247Y-84909285D01*
X148826247Y-84909285D02*
X149064342Y-84909285D01*
X149064342Y-84909285D02*
X149159580Y-84956904D01*
X149159580Y-84956904D02*
X149207200Y-85004523D01*
X149207200Y-85004523D02*
X149254819Y-85099761D01*
X149254819Y-85099761D02*
X149254819Y-85385475D01*
X149254819Y-85385475D02*
X149207200Y-85480713D01*
X149207200Y-85480713D02*
X149159580Y-85528332D01*
X128317142Y-121219580D02*
X128269523Y-121267200D01*
X128269523Y-121267200D02*
X128126666Y-121314819D01*
X128126666Y-121314819D02*
X128031428Y-121314819D01*
X128031428Y-121314819D02*
X127888571Y-121267200D01*
X127888571Y-121267200D02*
X127793333Y-121171961D01*
X127793333Y-121171961D02*
X127745714Y-121076723D01*
X127745714Y-121076723D02*
X127698095Y-120886247D01*
X127698095Y-120886247D02*
X127698095Y-120743390D01*
X127698095Y-120743390D02*
X127745714Y-120552914D01*
X127745714Y-120552914D02*
X127793333Y-120457676D01*
X127793333Y-120457676D02*
X127888571Y-120362438D01*
X127888571Y-120362438D02*
X128031428Y-120314819D01*
X128031428Y-120314819D02*
X128126666Y-120314819D01*
X128126666Y-120314819D02*
X128269523Y-120362438D01*
X128269523Y-120362438D02*
X128317142Y-120410057D01*
X129269523Y-121314819D02*
X128698095Y-121314819D01*
X128983809Y-121314819D02*
X128983809Y-120314819D01*
X128983809Y-120314819D02*
X128888571Y-120457676D01*
X128888571Y-120457676D02*
X128793333Y-120552914D01*
X128793333Y-120552914D02*
X128698095Y-120600533D01*
X130126666Y-120314819D02*
X129936190Y-120314819D01*
X129936190Y-120314819D02*
X129840952Y-120362438D01*
X129840952Y-120362438D02*
X129793333Y-120410057D01*
X129793333Y-120410057D02*
X129698095Y-120552914D01*
X129698095Y-120552914D02*
X129650476Y-120743390D01*
X129650476Y-120743390D02*
X129650476Y-121124342D01*
X129650476Y-121124342D02*
X129698095Y-121219580D01*
X129698095Y-121219580D02*
X129745714Y-121267200D01*
X129745714Y-121267200D02*
X129840952Y-121314819D01*
X129840952Y-121314819D02*
X130031428Y-121314819D01*
X130031428Y-121314819D02*
X130126666Y-121267200D01*
X130126666Y-121267200D02*
X130174285Y-121219580D01*
X130174285Y-121219580D02*
X130221904Y-121124342D01*
X130221904Y-121124342D02*
X130221904Y-120886247D01*
X130221904Y-120886247D02*
X130174285Y-120791009D01*
X130174285Y-120791009D02*
X130126666Y-120743390D01*
X130126666Y-120743390D02*
X130031428Y-120695771D01*
X130031428Y-120695771D02*
X129840952Y-120695771D01*
X129840952Y-120695771D02*
X129745714Y-120743390D01*
X129745714Y-120743390D02*
X129698095Y-120791009D01*
X129698095Y-120791009D02*
X129650476Y-120886247D01*
X172367142Y-118259580D02*
X172319523Y-118307200D01*
X172319523Y-118307200D02*
X172176666Y-118354819D01*
X172176666Y-118354819D02*
X172081428Y-118354819D01*
X172081428Y-118354819D02*
X171938571Y-118307200D01*
X171938571Y-118307200D02*
X171843333Y-118211961D01*
X171843333Y-118211961D02*
X171795714Y-118116723D01*
X171795714Y-118116723D02*
X171748095Y-117926247D01*
X171748095Y-117926247D02*
X171748095Y-117783390D01*
X171748095Y-117783390D02*
X171795714Y-117592914D01*
X171795714Y-117592914D02*
X171843333Y-117497676D01*
X171843333Y-117497676D02*
X171938571Y-117402438D01*
X171938571Y-117402438D02*
X172081428Y-117354819D01*
X172081428Y-117354819D02*
X172176666Y-117354819D01*
X172176666Y-117354819D02*
X172319523Y-117402438D01*
X172319523Y-117402438D02*
X172367142Y-117450057D01*
X172748095Y-117450057D02*
X172795714Y-117402438D01*
X172795714Y-117402438D02*
X172890952Y-117354819D01*
X172890952Y-117354819D02*
X173129047Y-117354819D01*
X173129047Y-117354819D02*
X173224285Y-117402438D01*
X173224285Y-117402438D02*
X173271904Y-117450057D01*
X173271904Y-117450057D02*
X173319523Y-117545295D01*
X173319523Y-117545295D02*
X173319523Y-117640533D01*
X173319523Y-117640533D02*
X173271904Y-117783390D01*
X173271904Y-117783390D02*
X172700476Y-118354819D01*
X172700476Y-118354819D02*
X173319523Y-118354819D01*
X173652857Y-117354819D02*
X174319523Y-117354819D01*
X174319523Y-117354819D02*
X173890952Y-118354819D01*
X142073333Y-99809580D02*
X142025714Y-99857200D01*
X142025714Y-99857200D02*
X141882857Y-99904819D01*
X141882857Y-99904819D02*
X141787619Y-99904819D01*
X141787619Y-99904819D02*
X141644762Y-99857200D01*
X141644762Y-99857200D02*
X141549524Y-99761961D01*
X141549524Y-99761961D02*
X141501905Y-99666723D01*
X141501905Y-99666723D02*
X141454286Y-99476247D01*
X141454286Y-99476247D02*
X141454286Y-99333390D01*
X141454286Y-99333390D02*
X141501905Y-99142914D01*
X141501905Y-99142914D02*
X141549524Y-99047676D01*
X141549524Y-99047676D02*
X141644762Y-98952438D01*
X141644762Y-98952438D02*
X141787619Y-98904819D01*
X141787619Y-98904819D02*
X141882857Y-98904819D01*
X141882857Y-98904819D02*
X142025714Y-98952438D01*
X142025714Y-98952438D02*
X142073333Y-99000057D01*
X142406667Y-98904819D02*
X143025714Y-98904819D01*
X143025714Y-98904819D02*
X142692381Y-99285771D01*
X142692381Y-99285771D02*
X142835238Y-99285771D01*
X142835238Y-99285771D02*
X142930476Y-99333390D01*
X142930476Y-99333390D02*
X142978095Y-99381009D01*
X142978095Y-99381009D02*
X143025714Y-99476247D01*
X143025714Y-99476247D02*
X143025714Y-99714342D01*
X143025714Y-99714342D02*
X142978095Y-99809580D01*
X142978095Y-99809580D02*
X142930476Y-99857200D01*
X142930476Y-99857200D02*
X142835238Y-99904819D01*
X142835238Y-99904819D02*
X142549524Y-99904819D01*
X142549524Y-99904819D02*
X142454286Y-99857200D01*
X142454286Y-99857200D02*
X142406667Y-99809580D01*
X139694819Y-137072857D02*
X139218628Y-137406190D01*
X139694819Y-137644285D02*
X138694819Y-137644285D01*
X138694819Y-137644285D02*
X138694819Y-137263333D01*
X138694819Y-137263333D02*
X138742438Y-137168095D01*
X138742438Y-137168095D02*
X138790057Y-137120476D01*
X138790057Y-137120476D02*
X138885295Y-137072857D01*
X138885295Y-137072857D02*
X139028152Y-137072857D01*
X139028152Y-137072857D02*
X139123390Y-137120476D01*
X139123390Y-137120476D02*
X139171009Y-137168095D01*
X139171009Y-137168095D02*
X139218628Y-137263333D01*
X139218628Y-137263333D02*
X139218628Y-137644285D01*
X139694819Y-136120476D02*
X139694819Y-136691904D01*
X139694819Y-136406190D02*
X138694819Y-136406190D01*
X138694819Y-136406190D02*
X138837676Y-136501428D01*
X138837676Y-136501428D02*
X138932914Y-136596666D01*
X138932914Y-136596666D02*
X138980533Y-136691904D01*
X139694819Y-135644285D02*
X139694819Y-135453809D01*
X139694819Y-135453809D02*
X139647200Y-135358571D01*
X139647200Y-135358571D02*
X139599580Y-135310952D01*
X139599580Y-135310952D02*
X139456723Y-135215714D01*
X139456723Y-135215714D02*
X139266247Y-135168095D01*
X139266247Y-135168095D02*
X138885295Y-135168095D01*
X138885295Y-135168095D02*
X138790057Y-135215714D01*
X138790057Y-135215714D02*
X138742438Y-135263333D01*
X138742438Y-135263333D02*
X138694819Y-135358571D01*
X138694819Y-135358571D02*
X138694819Y-135549047D01*
X138694819Y-135549047D02*
X138742438Y-135644285D01*
X138742438Y-135644285D02*
X138790057Y-135691904D01*
X138790057Y-135691904D02*
X138885295Y-135739523D01*
X138885295Y-135739523D02*
X139123390Y-135739523D01*
X139123390Y-135739523D02*
X139218628Y-135691904D01*
X139218628Y-135691904D02*
X139266247Y-135644285D01*
X139266247Y-135644285D02*
X139313866Y-135549047D01*
X139313866Y-135549047D02*
X139313866Y-135358571D01*
X139313866Y-135358571D02*
X139266247Y-135263333D01*
X139266247Y-135263333D02*
X139218628Y-135215714D01*
X139218628Y-135215714D02*
X139123390Y-135168095D01*
X132144819Y-137012857D02*
X131668628Y-137346190D01*
X132144819Y-137584285D02*
X131144819Y-137584285D01*
X131144819Y-137584285D02*
X131144819Y-137203333D01*
X131144819Y-137203333D02*
X131192438Y-137108095D01*
X131192438Y-137108095D02*
X131240057Y-137060476D01*
X131240057Y-137060476D02*
X131335295Y-137012857D01*
X131335295Y-137012857D02*
X131478152Y-137012857D01*
X131478152Y-137012857D02*
X131573390Y-137060476D01*
X131573390Y-137060476D02*
X131621009Y-137108095D01*
X131621009Y-137108095D02*
X131668628Y-137203333D01*
X131668628Y-137203333D02*
X131668628Y-137584285D01*
X132144819Y-136060476D02*
X132144819Y-136631904D01*
X132144819Y-136346190D02*
X131144819Y-136346190D01*
X131144819Y-136346190D02*
X131287676Y-136441428D01*
X131287676Y-136441428D02*
X131382914Y-136536666D01*
X131382914Y-136536666D02*
X131430533Y-136631904D01*
X131144819Y-135727142D02*
X131144819Y-135060476D01*
X131144819Y-135060476D02*
X132144819Y-135489047D01*
X131814819Y-120106666D02*
X131338628Y-120439999D01*
X131814819Y-120678094D02*
X130814819Y-120678094D01*
X130814819Y-120678094D02*
X130814819Y-120297142D01*
X130814819Y-120297142D02*
X130862438Y-120201904D01*
X130862438Y-120201904D02*
X130910057Y-120154285D01*
X130910057Y-120154285D02*
X131005295Y-120106666D01*
X131005295Y-120106666D02*
X131148152Y-120106666D01*
X131148152Y-120106666D02*
X131243390Y-120154285D01*
X131243390Y-120154285D02*
X131291009Y-120201904D01*
X131291009Y-120201904D02*
X131338628Y-120297142D01*
X131338628Y-120297142D02*
X131338628Y-120678094D01*
X130814819Y-119201904D02*
X130814819Y-119678094D01*
X130814819Y-119678094D02*
X131291009Y-119725713D01*
X131291009Y-119725713D02*
X131243390Y-119678094D01*
X131243390Y-119678094D02*
X131195771Y-119582856D01*
X131195771Y-119582856D02*
X131195771Y-119344761D01*
X131195771Y-119344761D02*
X131243390Y-119249523D01*
X131243390Y-119249523D02*
X131291009Y-119201904D01*
X131291009Y-119201904D02*
X131386247Y-119154285D01*
X131386247Y-119154285D02*
X131624342Y-119154285D01*
X131624342Y-119154285D02*
X131719580Y-119201904D01*
X131719580Y-119201904D02*
X131767200Y-119249523D01*
X131767200Y-119249523D02*
X131814819Y-119344761D01*
X131814819Y-119344761D02*
X131814819Y-119582856D01*
X131814819Y-119582856D02*
X131767200Y-119678094D01*
X131767200Y-119678094D02*
X131719580Y-119725713D01*
X118437142Y-114769580D02*
X118389523Y-114817200D01*
X118389523Y-114817200D02*
X118246666Y-114864819D01*
X118246666Y-114864819D02*
X118151428Y-114864819D01*
X118151428Y-114864819D02*
X118008571Y-114817200D01*
X118008571Y-114817200D02*
X117913333Y-114721961D01*
X117913333Y-114721961D02*
X117865714Y-114626723D01*
X117865714Y-114626723D02*
X117818095Y-114436247D01*
X117818095Y-114436247D02*
X117818095Y-114293390D01*
X117818095Y-114293390D02*
X117865714Y-114102914D01*
X117865714Y-114102914D02*
X117913333Y-114007676D01*
X117913333Y-114007676D02*
X118008571Y-113912438D01*
X118008571Y-113912438D02*
X118151428Y-113864819D01*
X118151428Y-113864819D02*
X118246666Y-113864819D01*
X118246666Y-113864819D02*
X118389523Y-113912438D01*
X118389523Y-113912438D02*
X118437142Y-113960057D01*
X118818095Y-113960057D02*
X118865714Y-113912438D01*
X118865714Y-113912438D02*
X118960952Y-113864819D01*
X118960952Y-113864819D02*
X119199047Y-113864819D01*
X119199047Y-113864819D02*
X119294285Y-113912438D01*
X119294285Y-113912438D02*
X119341904Y-113960057D01*
X119341904Y-113960057D02*
X119389523Y-114055295D01*
X119389523Y-114055295D02*
X119389523Y-114150533D01*
X119389523Y-114150533D02*
X119341904Y-114293390D01*
X119341904Y-114293390D02*
X118770476Y-114864819D01*
X118770476Y-114864819D02*
X119389523Y-114864819D01*
X119865714Y-114864819D02*
X120056190Y-114864819D01*
X120056190Y-114864819D02*
X120151428Y-114817200D01*
X120151428Y-114817200D02*
X120199047Y-114769580D01*
X120199047Y-114769580D02*
X120294285Y-114626723D01*
X120294285Y-114626723D02*
X120341904Y-114436247D01*
X120341904Y-114436247D02*
X120341904Y-114055295D01*
X120341904Y-114055295D02*
X120294285Y-113960057D01*
X120294285Y-113960057D02*
X120246666Y-113912438D01*
X120246666Y-113912438D02*
X120151428Y-113864819D01*
X120151428Y-113864819D02*
X119960952Y-113864819D01*
X119960952Y-113864819D02*
X119865714Y-113912438D01*
X119865714Y-113912438D02*
X119818095Y-113960057D01*
X119818095Y-113960057D02*
X119770476Y-114055295D01*
X119770476Y-114055295D02*
X119770476Y-114293390D01*
X119770476Y-114293390D02*
X119818095Y-114388628D01*
X119818095Y-114388628D02*
X119865714Y-114436247D01*
X119865714Y-114436247D02*
X119960952Y-114483866D01*
X119960952Y-114483866D02*
X120151428Y-114483866D01*
X120151428Y-114483866D02*
X120246666Y-114436247D01*
X120246666Y-114436247D02*
X120294285Y-114388628D01*
X120294285Y-114388628D02*
X120341904Y-114293390D01*
X169164819Y-118312857D02*
X168688628Y-118646190D01*
X169164819Y-118884285D02*
X168164819Y-118884285D01*
X168164819Y-118884285D02*
X168164819Y-118503333D01*
X168164819Y-118503333D02*
X168212438Y-118408095D01*
X168212438Y-118408095D02*
X168260057Y-118360476D01*
X168260057Y-118360476D02*
X168355295Y-118312857D01*
X168355295Y-118312857D02*
X168498152Y-118312857D01*
X168498152Y-118312857D02*
X168593390Y-118360476D01*
X168593390Y-118360476D02*
X168641009Y-118408095D01*
X168641009Y-118408095D02*
X168688628Y-118503333D01*
X168688628Y-118503333D02*
X168688628Y-118884285D01*
X169164819Y-117360476D02*
X169164819Y-117931904D01*
X169164819Y-117646190D02*
X168164819Y-117646190D01*
X168164819Y-117646190D02*
X168307676Y-117741428D01*
X168307676Y-117741428D02*
X168402914Y-117836666D01*
X168402914Y-117836666D02*
X168450533Y-117931904D01*
X168164819Y-117027142D02*
X168164819Y-116408095D01*
X168164819Y-116408095D02*
X168545771Y-116741428D01*
X168545771Y-116741428D02*
X168545771Y-116598571D01*
X168545771Y-116598571D02*
X168593390Y-116503333D01*
X168593390Y-116503333D02*
X168641009Y-116455714D01*
X168641009Y-116455714D02*
X168736247Y-116408095D01*
X168736247Y-116408095D02*
X168974342Y-116408095D01*
X168974342Y-116408095D02*
X169069580Y-116455714D01*
X169069580Y-116455714D02*
X169117200Y-116503333D01*
X169117200Y-116503333D02*
X169164819Y-116598571D01*
X169164819Y-116598571D02*
X169164819Y-116884285D01*
X169164819Y-116884285D02*
X169117200Y-116979523D01*
X169117200Y-116979523D02*
X169069580Y-117027142D01*
X157993333Y-86044819D02*
X157517143Y-86044819D01*
X157517143Y-86044819D02*
X157517143Y-85044819D01*
X158850476Y-86044819D02*
X158279048Y-86044819D01*
X158564762Y-86044819D02*
X158564762Y-85044819D01*
X158564762Y-85044819D02*
X158469524Y-85187676D01*
X158469524Y-85187676D02*
X158374286Y-85282914D01*
X158374286Y-85282914D02*
X158279048Y-85330533D01*
X136583333Y-89584580D02*
X136535714Y-89632200D01*
X136535714Y-89632200D02*
X136392857Y-89679819D01*
X136392857Y-89679819D02*
X136297619Y-89679819D01*
X136297619Y-89679819D02*
X136154762Y-89632200D01*
X136154762Y-89632200D02*
X136059524Y-89536961D01*
X136059524Y-89536961D02*
X136011905Y-89441723D01*
X136011905Y-89441723D02*
X135964286Y-89251247D01*
X135964286Y-89251247D02*
X135964286Y-89108390D01*
X135964286Y-89108390D02*
X136011905Y-88917914D01*
X136011905Y-88917914D02*
X136059524Y-88822676D01*
X136059524Y-88822676D02*
X136154762Y-88727438D01*
X136154762Y-88727438D02*
X136297619Y-88679819D01*
X136297619Y-88679819D02*
X136392857Y-88679819D01*
X136392857Y-88679819D02*
X136535714Y-88727438D01*
X136535714Y-88727438D02*
X136583333Y-88775057D01*
X136916667Y-88679819D02*
X137583333Y-88679819D01*
X137583333Y-88679819D02*
X137154762Y-89679819D01*
X119639580Y-137222857D02*
X119687200Y-137270476D01*
X119687200Y-137270476D02*
X119734819Y-137413333D01*
X119734819Y-137413333D02*
X119734819Y-137508571D01*
X119734819Y-137508571D02*
X119687200Y-137651428D01*
X119687200Y-137651428D02*
X119591961Y-137746666D01*
X119591961Y-137746666D02*
X119496723Y-137794285D01*
X119496723Y-137794285D02*
X119306247Y-137841904D01*
X119306247Y-137841904D02*
X119163390Y-137841904D01*
X119163390Y-137841904D02*
X118972914Y-137794285D01*
X118972914Y-137794285D02*
X118877676Y-137746666D01*
X118877676Y-137746666D02*
X118782438Y-137651428D01*
X118782438Y-137651428D02*
X118734819Y-137508571D01*
X118734819Y-137508571D02*
X118734819Y-137413333D01*
X118734819Y-137413333D02*
X118782438Y-137270476D01*
X118782438Y-137270476D02*
X118830057Y-137222857D01*
X118830057Y-136841904D02*
X118782438Y-136794285D01*
X118782438Y-136794285D02*
X118734819Y-136699047D01*
X118734819Y-136699047D02*
X118734819Y-136460952D01*
X118734819Y-136460952D02*
X118782438Y-136365714D01*
X118782438Y-136365714D02*
X118830057Y-136318095D01*
X118830057Y-136318095D02*
X118925295Y-136270476D01*
X118925295Y-136270476D02*
X119020533Y-136270476D01*
X119020533Y-136270476D02*
X119163390Y-136318095D01*
X119163390Y-136318095D02*
X119734819Y-136889523D01*
X119734819Y-136889523D02*
X119734819Y-136270476D01*
X118734819Y-135937142D02*
X118734819Y-135318095D01*
X118734819Y-135318095D02*
X119115771Y-135651428D01*
X119115771Y-135651428D02*
X119115771Y-135508571D01*
X119115771Y-135508571D02*
X119163390Y-135413333D01*
X119163390Y-135413333D02*
X119211009Y-135365714D01*
X119211009Y-135365714D02*
X119306247Y-135318095D01*
X119306247Y-135318095D02*
X119544342Y-135318095D01*
X119544342Y-135318095D02*
X119639580Y-135365714D01*
X119639580Y-135365714D02*
X119687200Y-135413333D01*
X119687200Y-135413333D02*
X119734819Y-135508571D01*
X119734819Y-135508571D02*
X119734819Y-135794285D01*
X119734819Y-135794285D02*
X119687200Y-135889523D01*
X119687200Y-135889523D02*
X119639580Y-135937142D01*
X128439580Y-113292857D02*
X128487200Y-113340476D01*
X128487200Y-113340476D02*
X128534819Y-113483333D01*
X128534819Y-113483333D02*
X128534819Y-113578571D01*
X128534819Y-113578571D02*
X128487200Y-113721428D01*
X128487200Y-113721428D02*
X128391961Y-113816666D01*
X128391961Y-113816666D02*
X128296723Y-113864285D01*
X128296723Y-113864285D02*
X128106247Y-113911904D01*
X128106247Y-113911904D02*
X127963390Y-113911904D01*
X127963390Y-113911904D02*
X127772914Y-113864285D01*
X127772914Y-113864285D02*
X127677676Y-113816666D01*
X127677676Y-113816666D02*
X127582438Y-113721428D01*
X127582438Y-113721428D02*
X127534819Y-113578571D01*
X127534819Y-113578571D02*
X127534819Y-113483333D01*
X127534819Y-113483333D02*
X127582438Y-113340476D01*
X127582438Y-113340476D02*
X127630057Y-113292857D01*
X128534819Y-112340476D02*
X128534819Y-112911904D01*
X128534819Y-112626190D02*
X127534819Y-112626190D01*
X127534819Y-112626190D02*
X127677676Y-112721428D01*
X127677676Y-112721428D02*
X127772914Y-112816666D01*
X127772914Y-112816666D02*
X127820533Y-112911904D01*
X128534819Y-111864285D02*
X128534819Y-111673809D01*
X128534819Y-111673809D02*
X128487200Y-111578571D01*
X128487200Y-111578571D02*
X128439580Y-111530952D01*
X128439580Y-111530952D02*
X128296723Y-111435714D01*
X128296723Y-111435714D02*
X128106247Y-111388095D01*
X128106247Y-111388095D02*
X127725295Y-111388095D01*
X127725295Y-111388095D02*
X127630057Y-111435714D01*
X127630057Y-111435714D02*
X127582438Y-111483333D01*
X127582438Y-111483333D02*
X127534819Y-111578571D01*
X127534819Y-111578571D02*
X127534819Y-111769047D01*
X127534819Y-111769047D02*
X127582438Y-111864285D01*
X127582438Y-111864285D02*
X127630057Y-111911904D01*
X127630057Y-111911904D02*
X127725295Y-111959523D01*
X127725295Y-111959523D02*
X127963390Y-111959523D01*
X127963390Y-111959523D02*
X128058628Y-111911904D01*
X128058628Y-111911904D02*
X128106247Y-111864285D01*
X128106247Y-111864285D02*
X128153866Y-111769047D01*
X128153866Y-111769047D02*
X128153866Y-111578571D01*
X128153866Y-111578571D02*
X128106247Y-111483333D01*
X128106247Y-111483333D02*
X128058628Y-111435714D01*
X128058628Y-111435714D02*
X127963390Y-111388095D01*
X150013095Y-95304819D02*
X150013095Y-96114342D01*
X150013095Y-96114342D02*
X150060714Y-96209580D01*
X150060714Y-96209580D02*
X150108333Y-96257200D01*
X150108333Y-96257200D02*
X150203571Y-96304819D01*
X150203571Y-96304819D02*
X150394047Y-96304819D01*
X150394047Y-96304819D02*
X150489285Y-96257200D01*
X150489285Y-96257200D02*
X150536904Y-96209580D01*
X150536904Y-96209580D02*
X150584523Y-96114342D01*
X150584523Y-96114342D02*
X150584523Y-95304819D01*
X151013095Y-95400057D02*
X151060714Y-95352438D01*
X151060714Y-95352438D02*
X151155952Y-95304819D01*
X151155952Y-95304819D02*
X151394047Y-95304819D01*
X151394047Y-95304819D02*
X151489285Y-95352438D01*
X151489285Y-95352438D02*
X151536904Y-95400057D01*
X151536904Y-95400057D02*
X151584523Y-95495295D01*
X151584523Y-95495295D02*
X151584523Y-95590533D01*
X151584523Y-95590533D02*
X151536904Y-95733390D01*
X151536904Y-95733390D02*
X150965476Y-96304819D01*
X150965476Y-96304819D02*
X151584523Y-96304819D01*
X144160000Y-92114819D02*
X144160000Y-92352914D01*
X143921905Y-92257676D02*
X144160000Y-92352914D01*
X144160000Y-92352914D02*
X144398095Y-92257676D01*
X144017143Y-92543390D02*
X144160000Y-92352914D01*
X144160000Y-92352914D02*
X144302857Y-92543390D01*
X163507142Y-99729580D02*
X163459523Y-99777200D01*
X163459523Y-99777200D02*
X163316666Y-99824819D01*
X163316666Y-99824819D02*
X163221428Y-99824819D01*
X163221428Y-99824819D02*
X163078571Y-99777200D01*
X163078571Y-99777200D02*
X162983333Y-99681961D01*
X162983333Y-99681961D02*
X162935714Y-99586723D01*
X162935714Y-99586723D02*
X162888095Y-99396247D01*
X162888095Y-99396247D02*
X162888095Y-99253390D01*
X162888095Y-99253390D02*
X162935714Y-99062914D01*
X162935714Y-99062914D02*
X162983333Y-98967676D01*
X162983333Y-98967676D02*
X163078571Y-98872438D01*
X163078571Y-98872438D02*
X163221428Y-98824819D01*
X163221428Y-98824819D02*
X163316666Y-98824819D01*
X163316666Y-98824819D02*
X163459523Y-98872438D01*
X163459523Y-98872438D02*
X163507142Y-98920057D01*
X163888095Y-98920057D02*
X163935714Y-98872438D01*
X163935714Y-98872438D02*
X164030952Y-98824819D01*
X164030952Y-98824819D02*
X164269047Y-98824819D01*
X164269047Y-98824819D02*
X164364285Y-98872438D01*
X164364285Y-98872438D02*
X164411904Y-98920057D01*
X164411904Y-98920057D02*
X164459523Y-99015295D01*
X164459523Y-99015295D02*
X164459523Y-99110533D01*
X164459523Y-99110533D02*
X164411904Y-99253390D01*
X164411904Y-99253390D02*
X163840476Y-99824819D01*
X163840476Y-99824819D02*
X164459523Y-99824819D01*
X165316666Y-98824819D02*
X165126190Y-98824819D01*
X165126190Y-98824819D02*
X165030952Y-98872438D01*
X165030952Y-98872438D02*
X164983333Y-98920057D01*
X164983333Y-98920057D02*
X164888095Y-99062914D01*
X164888095Y-99062914D02*
X164840476Y-99253390D01*
X164840476Y-99253390D02*
X164840476Y-99634342D01*
X164840476Y-99634342D02*
X164888095Y-99729580D01*
X164888095Y-99729580D02*
X164935714Y-99777200D01*
X164935714Y-99777200D02*
X165030952Y-99824819D01*
X165030952Y-99824819D02*
X165221428Y-99824819D01*
X165221428Y-99824819D02*
X165316666Y-99777200D01*
X165316666Y-99777200D02*
X165364285Y-99729580D01*
X165364285Y-99729580D02*
X165411904Y-99634342D01*
X165411904Y-99634342D02*
X165411904Y-99396247D01*
X165411904Y-99396247D02*
X165364285Y-99301009D01*
X165364285Y-99301009D02*
X165316666Y-99253390D01*
X165316666Y-99253390D02*
X165221428Y-99205771D01*
X165221428Y-99205771D02*
X165030952Y-99205771D01*
X165030952Y-99205771D02*
X164935714Y-99253390D01*
X164935714Y-99253390D02*
X164888095Y-99301009D01*
X164888095Y-99301009D02*
X164840476Y-99396247D01*
X131414819Y-88108333D02*
X132129104Y-88108333D01*
X132129104Y-88108333D02*
X132271961Y-88155952D01*
X132271961Y-88155952D02*
X132367200Y-88251190D01*
X132367200Y-88251190D02*
X132414819Y-88394047D01*
X132414819Y-88394047D02*
X132414819Y-88489285D01*
X131748152Y-87203571D02*
X132414819Y-87203571D01*
X131367200Y-87441666D02*
X132081485Y-87679761D01*
X132081485Y-87679761D02*
X132081485Y-87060714D01*
X156237142Y-93639580D02*
X156189523Y-93687200D01*
X156189523Y-93687200D02*
X156046666Y-93734819D01*
X156046666Y-93734819D02*
X155951428Y-93734819D01*
X155951428Y-93734819D02*
X155808571Y-93687200D01*
X155808571Y-93687200D02*
X155713333Y-93591961D01*
X155713333Y-93591961D02*
X155665714Y-93496723D01*
X155665714Y-93496723D02*
X155618095Y-93306247D01*
X155618095Y-93306247D02*
X155618095Y-93163390D01*
X155618095Y-93163390D02*
X155665714Y-92972914D01*
X155665714Y-92972914D02*
X155713333Y-92877676D01*
X155713333Y-92877676D02*
X155808571Y-92782438D01*
X155808571Y-92782438D02*
X155951428Y-92734819D01*
X155951428Y-92734819D02*
X156046666Y-92734819D01*
X156046666Y-92734819D02*
X156189523Y-92782438D01*
X156189523Y-92782438D02*
X156237142Y-92830057D01*
X157189523Y-93734819D02*
X156618095Y-93734819D01*
X156903809Y-93734819D02*
X156903809Y-92734819D01*
X156903809Y-92734819D02*
X156808571Y-92877676D01*
X156808571Y-92877676D02*
X156713333Y-92972914D01*
X156713333Y-92972914D02*
X156618095Y-93020533D01*
X157522857Y-92734819D02*
X158141904Y-92734819D01*
X158141904Y-92734819D02*
X157808571Y-93115771D01*
X157808571Y-93115771D02*
X157951428Y-93115771D01*
X157951428Y-93115771D02*
X158046666Y-93163390D01*
X158046666Y-93163390D02*
X158094285Y-93211009D01*
X158094285Y-93211009D02*
X158141904Y-93306247D01*
X158141904Y-93306247D02*
X158141904Y-93544342D01*
X158141904Y-93544342D02*
X158094285Y-93639580D01*
X158094285Y-93639580D02*
X158046666Y-93687200D01*
X158046666Y-93687200D02*
X157951428Y-93734819D01*
X157951428Y-93734819D02*
X157665714Y-93734819D01*
X157665714Y-93734819D02*
X157570476Y-93687200D01*
X157570476Y-93687200D02*
X157522857Y-93639580D01*
X127403333Y-105019580D02*
X127355714Y-105067200D01*
X127355714Y-105067200D02*
X127212857Y-105114819D01*
X127212857Y-105114819D02*
X127117619Y-105114819D01*
X127117619Y-105114819D02*
X126974762Y-105067200D01*
X126974762Y-105067200D02*
X126879524Y-104971961D01*
X126879524Y-104971961D02*
X126831905Y-104876723D01*
X126831905Y-104876723D02*
X126784286Y-104686247D01*
X126784286Y-104686247D02*
X126784286Y-104543390D01*
X126784286Y-104543390D02*
X126831905Y-104352914D01*
X126831905Y-104352914D02*
X126879524Y-104257676D01*
X126879524Y-104257676D02*
X126974762Y-104162438D01*
X126974762Y-104162438D02*
X127117619Y-104114819D01*
X127117619Y-104114819D02*
X127212857Y-104114819D01*
X127212857Y-104114819D02*
X127355714Y-104162438D01*
X127355714Y-104162438D02*
X127403333Y-104210057D01*
X127784286Y-104210057D02*
X127831905Y-104162438D01*
X127831905Y-104162438D02*
X127927143Y-104114819D01*
X127927143Y-104114819D02*
X128165238Y-104114819D01*
X128165238Y-104114819D02*
X128260476Y-104162438D01*
X128260476Y-104162438D02*
X128308095Y-104210057D01*
X128308095Y-104210057D02*
X128355714Y-104305295D01*
X128355714Y-104305295D02*
X128355714Y-104400533D01*
X128355714Y-104400533D02*
X128308095Y-104543390D01*
X128308095Y-104543390D02*
X127736667Y-105114819D01*
X127736667Y-105114819D02*
X128355714Y-105114819D01*
X153164819Y-93406666D02*
X153164819Y-93882856D01*
X153164819Y-93882856D02*
X152164819Y-93882856D01*
X152260057Y-93120951D02*
X152212438Y-93073332D01*
X152212438Y-93073332D02*
X152164819Y-92978094D01*
X152164819Y-92978094D02*
X152164819Y-92739999D01*
X152164819Y-92739999D02*
X152212438Y-92644761D01*
X152212438Y-92644761D02*
X152260057Y-92597142D01*
X152260057Y-92597142D02*
X152355295Y-92549523D01*
X152355295Y-92549523D02*
X152450533Y-92549523D01*
X152450533Y-92549523D02*
X152593390Y-92597142D01*
X152593390Y-92597142D02*
X153164819Y-93168570D01*
X153164819Y-93168570D02*
X153164819Y-92549523D01*
X122259580Y-137202857D02*
X122307200Y-137250476D01*
X122307200Y-137250476D02*
X122354819Y-137393333D01*
X122354819Y-137393333D02*
X122354819Y-137488571D01*
X122354819Y-137488571D02*
X122307200Y-137631428D01*
X122307200Y-137631428D02*
X122211961Y-137726666D01*
X122211961Y-137726666D02*
X122116723Y-137774285D01*
X122116723Y-137774285D02*
X121926247Y-137821904D01*
X121926247Y-137821904D02*
X121783390Y-137821904D01*
X121783390Y-137821904D02*
X121592914Y-137774285D01*
X121592914Y-137774285D02*
X121497676Y-137726666D01*
X121497676Y-137726666D02*
X121402438Y-137631428D01*
X121402438Y-137631428D02*
X121354819Y-137488571D01*
X121354819Y-137488571D02*
X121354819Y-137393333D01*
X121354819Y-137393333D02*
X121402438Y-137250476D01*
X121402438Y-137250476D02*
X121450057Y-137202857D01*
X121450057Y-136821904D02*
X121402438Y-136774285D01*
X121402438Y-136774285D02*
X121354819Y-136679047D01*
X121354819Y-136679047D02*
X121354819Y-136440952D01*
X121354819Y-136440952D02*
X121402438Y-136345714D01*
X121402438Y-136345714D02*
X121450057Y-136298095D01*
X121450057Y-136298095D02*
X121545295Y-136250476D01*
X121545295Y-136250476D02*
X121640533Y-136250476D01*
X121640533Y-136250476D02*
X121783390Y-136298095D01*
X121783390Y-136298095D02*
X122354819Y-136869523D01*
X122354819Y-136869523D02*
X122354819Y-136250476D01*
X121688152Y-135393333D02*
X122354819Y-135393333D01*
X121307200Y-135631428D02*
X122021485Y-135869523D01*
X122021485Y-135869523D02*
X122021485Y-135250476D01*
X128103333Y-94409580D02*
X128055714Y-94457200D01*
X128055714Y-94457200D02*
X127912857Y-94504819D01*
X127912857Y-94504819D02*
X127817619Y-94504819D01*
X127817619Y-94504819D02*
X127674762Y-94457200D01*
X127674762Y-94457200D02*
X127579524Y-94361961D01*
X127579524Y-94361961D02*
X127531905Y-94266723D01*
X127531905Y-94266723D02*
X127484286Y-94076247D01*
X127484286Y-94076247D02*
X127484286Y-93933390D01*
X127484286Y-93933390D02*
X127531905Y-93742914D01*
X127531905Y-93742914D02*
X127579524Y-93647676D01*
X127579524Y-93647676D02*
X127674762Y-93552438D01*
X127674762Y-93552438D02*
X127817619Y-93504819D01*
X127817619Y-93504819D02*
X127912857Y-93504819D01*
X127912857Y-93504819D02*
X128055714Y-93552438D01*
X128055714Y-93552438D02*
X128103333Y-93600057D01*
X129055714Y-94504819D02*
X128484286Y-94504819D01*
X128770000Y-94504819D02*
X128770000Y-93504819D01*
X128770000Y-93504819D02*
X128674762Y-93647676D01*
X128674762Y-93647676D02*
X128579524Y-93742914D01*
X128579524Y-93742914D02*
X128484286Y-93790533D01*
X161424819Y-96006666D02*
X160948628Y-96339999D01*
X161424819Y-96578094D02*
X160424819Y-96578094D01*
X160424819Y-96578094D02*
X160424819Y-96197142D01*
X160424819Y-96197142D02*
X160472438Y-96101904D01*
X160472438Y-96101904D02*
X160520057Y-96054285D01*
X160520057Y-96054285D02*
X160615295Y-96006666D01*
X160615295Y-96006666D02*
X160758152Y-96006666D01*
X160758152Y-96006666D02*
X160853390Y-96054285D01*
X160853390Y-96054285D02*
X160901009Y-96101904D01*
X160901009Y-96101904D02*
X160948628Y-96197142D01*
X160948628Y-96197142D02*
X160948628Y-96578094D01*
X160853390Y-95435237D02*
X160805771Y-95530475D01*
X160805771Y-95530475D02*
X160758152Y-95578094D01*
X160758152Y-95578094D02*
X160662914Y-95625713D01*
X160662914Y-95625713D02*
X160615295Y-95625713D01*
X160615295Y-95625713D02*
X160520057Y-95578094D01*
X160520057Y-95578094D02*
X160472438Y-95530475D01*
X160472438Y-95530475D02*
X160424819Y-95435237D01*
X160424819Y-95435237D02*
X160424819Y-95244761D01*
X160424819Y-95244761D02*
X160472438Y-95149523D01*
X160472438Y-95149523D02*
X160520057Y-95101904D01*
X160520057Y-95101904D02*
X160615295Y-95054285D01*
X160615295Y-95054285D02*
X160662914Y-95054285D01*
X160662914Y-95054285D02*
X160758152Y-95101904D01*
X160758152Y-95101904D02*
X160805771Y-95149523D01*
X160805771Y-95149523D02*
X160853390Y-95244761D01*
X160853390Y-95244761D02*
X160853390Y-95435237D01*
X160853390Y-95435237D02*
X160901009Y-95530475D01*
X160901009Y-95530475D02*
X160948628Y-95578094D01*
X160948628Y-95578094D02*
X161043866Y-95625713D01*
X161043866Y-95625713D02*
X161234342Y-95625713D01*
X161234342Y-95625713D02*
X161329580Y-95578094D01*
X161329580Y-95578094D02*
X161377200Y-95530475D01*
X161377200Y-95530475D02*
X161424819Y-95435237D01*
X161424819Y-95435237D02*
X161424819Y-95244761D01*
X161424819Y-95244761D02*
X161377200Y-95149523D01*
X161377200Y-95149523D02*
X161329580Y-95101904D01*
X161329580Y-95101904D02*
X161234342Y-95054285D01*
X161234342Y-95054285D02*
X161043866Y-95054285D01*
X161043866Y-95054285D02*
X160948628Y-95101904D01*
X160948628Y-95101904D02*
X160901009Y-95149523D01*
X160901009Y-95149523D02*
X160853390Y-95244761D01*
X166024819Y-106222857D02*
X165548628Y-106556190D01*
X166024819Y-106794285D02*
X165024819Y-106794285D01*
X165024819Y-106794285D02*
X165024819Y-106413333D01*
X165024819Y-106413333D02*
X165072438Y-106318095D01*
X165072438Y-106318095D02*
X165120057Y-106270476D01*
X165120057Y-106270476D02*
X165215295Y-106222857D01*
X165215295Y-106222857D02*
X165358152Y-106222857D01*
X165358152Y-106222857D02*
X165453390Y-106270476D01*
X165453390Y-106270476D02*
X165501009Y-106318095D01*
X165501009Y-106318095D02*
X165548628Y-106413333D01*
X165548628Y-106413333D02*
X165548628Y-106794285D01*
X166024819Y-105270476D02*
X166024819Y-105841904D01*
X166024819Y-105556190D02*
X165024819Y-105556190D01*
X165024819Y-105556190D02*
X165167676Y-105651428D01*
X165167676Y-105651428D02*
X165262914Y-105746666D01*
X165262914Y-105746666D02*
X165310533Y-105841904D01*
X165024819Y-104365714D02*
X165024819Y-104841904D01*
X165024819Y-104841904D02*
X165501009Y-104889523D01*
X165501009Y-104889523D02*
X165453390Y-104841904D01*
X165453390Y-104841904D02*
X165405771Y-104746666D01*
X165405771Y-104746666D02*
X165405771Y-104508571D01*
X165405771Y-104508571D02*
X165453390Y-104413333D01*
X165453390Y-104413333D02*
X165501009Y-104365714D01*
X165501009Y-104365714D02*
X165596247Y-104318095D01*
X165596247Y-104318095D02*
X165834342Y-104318095D01*
X165834342Y-104318095D02*
X165929580Y-104365714D01*
X165929580Y-104365714D02*
X165977200Y-104413333D01*
X165977200Y-104413333D02*
X166024819Y-104508571D01*
X166024819Y-104508571D02*
X166024819Y-104746666D01*
X166024819Y-104746666D02*
X165977200Y-104841904D01*
X165977200Y-104841904D02*
X165929580Y-104889523D01*
X150189580Y-79212857D02*
X150237200Y-79260476D01*
X150237200Y-79260476D02*
X150284819Y-79403333D01*
X150284819Y-79403333D02*
X150284819Y-79498571D01*
X150284819Y-79498571D02*
X150237200Y-79641428D01*
X150237200Y-79641428D02*
X150141961Y-79736666D01*
X150141961Y-79736666D02*
X150046723Y-79784285D01*
X150046723Y-79784285D02*
X149856247Y-79831904D01*
X149856247Y-79831904D02*
X149713390Y-79831904D01*
X149713390Y-79831904D02*
X149522914Y-79784285D01*
X149522914Y-79784285D02*
X149427676Y-79736666D01*
X149427676Y-79736666D02*
X149332438Y-79641428D01*
X149332438Y-79641428D02*
X149284819Y-79498571D01*
X149284819Y-79498571D02*
X149284819Y-79403333D01*
X149284819Y-79403333D02*
X149332438Y-79260476D01*
X149332438Y-79260476D02*
X149380057Y-79212857D01*
X150284819Y-78260476D02*
X150284819Y-78831904D01*
X150284819Y-78546190D02*
X149284819Y-78546190D01*
X149284819Y-78546190D02*
X149427676Y-78641428D01*
X149427676Y-78641428D02*
X149522914Y-78736666D01*
X149522914Y-78736666D02*
X149570533Y-78831904D01*
X149380057Y-77879523D02*
X149332438Y-77831904D01*
X149332438Y-77831904D02*
X149284819Y-77736666D01*
X149284819Y-77736666D02*
X149284819Y-77498571D01*
X149284819Y-77498571D02*
X149332438Y-77403333D01*
X149332438Y-77403333D02*
X149380057Y-77355714D01*
X149380057Y-77355714D02*
X149475295Y-77308095D01*
X149475295Y-77308095D02*
X149570533Y-77308095D01*
X149570533Y-77308095D02*
X149713390Y-77355714D01*
X149713390Y-77355714D02*
X150284819Y-77927142D01*
X150284819Y-77927142D02*
X150284819Y-77308095D01*
X164948095Y-123004819D02*
X165519523Y-123004819D01*
X165233809Y-124004819D02*
X165233809Y-123004819D01*
X165852857Y-124004819D02*
X165852857Y-123004819D01*
X165852857Y-123004819D02*
X166233809Y-123004819D01*
X166233809Y-123004819D02*
X166329047Y-123052438D01*
X166329047Y-123052438D02*
X166376666Y-123100057D01*
X166376666Y-123100057D02*
X166424285Y-123195295D01*
X166424285Y-123195295D02*
X166424285Y-123338152D01*
X166424285Y-123338152D02*
X166376666Y-123433390D01*
X166376666Y-123433390D02*
X166329047Y-123481009D01*
X166329047Y-123481009D02*
X166233809Y-123528628D01*
X166233809Y-123528628D02*
X165852857Y-123528628D01*
X167281428Y-123338152D02*
X167281428Y-124004819D01*
X167043333Y-122957200D02*
X166805238Y-123671485D01*
X166805238Y-123671485D02*
X167424285Y-123671485D01*
X124223333Y-129584819D02*
X123890000Y-129108628D01*
X123651905Y-129584819D02*
X123651905Y-128584819D01*
X123651905Y-128584819D02*
X124032857Y-128584819D01*
X124032857Y-128584819D02*
X124128095Y-128632438D01*
X124128095Y-128632438D02*
X124175714Y-128680057D01*
X124175714Y-128680057D02*
X124223333Y-128775295D01*
X124223333Y-128775295D02*
X124223333Y-128918152D01*
X124223333Y-128918152D02*
X124175714Y-129013390D01*
X124175714Y-129013390D02*
X124128095Y-129061009D01*
X124128095Y-129061009D02*
X124032857Y-129108628D01*
X124032857Y-129108628D02*
X123651905Y-129108628D01*
X125080476Y-128584819D02*
X124890000Y-128584819D01*
X124890000Y-128584819D02*
X124794762Y-128632438D01*
X124794762Y-128632438D02*
X124747143Y-128680057D01*
X124747143Y-128680057D02*
X124651905Y-128822914D01*
X124651905Y-128822914D02*
X124604286Y-129013390D01*
X124604286Y-129013390D02*
X124604286Y-129394342D01*
X124604286Y-129394342D02*
X124651905Y-129489580D01*
X124651905Y-129489580D02*
X124699524Y-129537200D01*
X124699524Y-129537200D02*
X124794762Y-129584819D01*
X124794762Y-129584819D02*
X124985238Y-129584819D01*
X124985238Y-129584819D02*
X125080476Y-129537200D01*
X125080476Y-129537200D02*
X125128095Y-129489580D01*
X125128095Y-129489580D02*
X125175714Y-129394342D01*
X125175714Y-129394342D02*
X125175714Y-129156247D01*
X125175714Y-129156247D02*
X125128095Y-129061009D01*
X125128095Y-129061009D02*
X125080476Y-129013390D01*
X125080476Y-129013390D02*
X124985238Y-128965771D01*
X124985238Y-128965771D02*
X124794762Y-128965771D01*
X124794762Y-128965771D02*
X124699524Y-129013390D01*
X124699524Y-129013390D02*
X124651905Y-129061009D01*
X124651905Y-129061009D02*
X124604286Y-129156247D01*
X128989580Y-127332857D02*
X129037200Y-127380476D01*
X129037200Y-127380476D02*
X129084819Y-127523333D01*
X129084819Y-127523333D02*
X129084819Y-127618571D01*
X129084819Y-127618571D02*
X129037200Y-127761428D01*
X129037200Y-127761428D02*
X128941961Y-127856666D01*
X128941961Y-127856666D02*
X128846723Y-127904285D01*
X128846723Y-127904285D02*
X128656247Y-127951904D01*
X128656247Y-127951904D02*
X128513390Y-127951904D01*
X128513390Y-127951904D02*
X128322914Y-127904285D01*
X128322914Y-127904285D02*
X128227676Y-127856666D01*
X128227676Y-127856666D02*
X128132438Y-127761428D01*
X128132438Y-127761428D02*
X128084819Y-127618571D01*
X128084819Y-127618571D02*
X128084819Y-127523333D01*
X128084819Y-127523333D02*
X128132438Y-127380476D01*
X128132438Y-127380476D02*
X128180057Y-127332857D01*
X128180057Y-126951904D02*
X128132438Y-126904285D01*
X128132438Y-126904285D02*
X128084819Y-126809047D01*
X128084819Y-126809047D02*
X128084819Y-126570952D01*
X128084819Y-126570952D02*
X128132438Y-126475714D01*
X128132438Y-126475714D02*
X128180057Y-126428095D01*
X128180057Y-126428095D02*
X128275295Y-126380476D01*
X128275295Y-126380476D02*
X128370533Y-126380476D01*
X128370533Y-126380476D02*
X128513390Y-126428095D01*
X128513390Y-126428095D02*
X129084819Y-126999523D01*
X129084819Y-126999523D02*
X129084819Y-126380476D01*
X129084819Y-125428095D02*
X129084819Y-125999523D01*
X129084819Y-125713809D02*
X128084819Y-125713809D01*
X128084819Y-125713809D02*
X128227676Y-125809047D01*
X128227676Y-125809047D02*
X128322914Y-125904285D01*
X128322914Y-125904285D02*
X128370533Y-125999523D01*
X134183333Y-99404819D02*
X133850000Y-98928628D01*
X133611905Y-99404819D02*
X133611905Y-98404819D01*
X133611905Y-98404819D02*
X133992857Y-98404819D01*
X133992857Y-98404819D02*
X134088095Y-98452438D01*
X134088095Y-98452438D02*
X134135714Y-98500057D01*
X134135714Y-98500057D02*
X134183333Y-98595295D01*
X134183333Y-98595295D02*
X134183333Y-98738152D01*
X134183333Y-98738152D02*
X134135714Y-98833390D01*
X134135714Y-98833390D02*
X134088095Y-98881009D01*
X134088095Y-98881009D02*
X133992857Y-98928628D01*
X133992857Y-98928628D02*
X133611905Y-98928628D01*
X135135714Y-99404819D02*
X134564286Y-99404819D01*
X134850000Y-99404819D02*
X134850000Y-98404819D01*
X134850000Y-98404819D02*
X134754762Y-98547676D01*
X134754762Y-98547676D02*
X134659524Y-98642914D01*
X134659524Y-98642914D02*
X134564286Y-98690533D01*
X117039580Y-78952857D02*
X117087200Y-79000476D01*
X117087200Y-79000476D02*
X117134819Y-79143333D01*
X117134819Y-79143333D02*
X117134819Y-79238571D01*
X117134819Y-79238571D02*
X117087200Y-79381428D01*
X117087200Y-79381428D02*
X116991961Y-79476666D01*
X116991961Y-79476666D02*
X116896723Y-79524285D01*
X116896723Y-79524285D02*
X116706247Y-79571904D01*
X116706247Y-79571904D02*
X116563390Y-79571904D01*
X116563390Y-79571904D02*
X116372914Y-79524285D01*
X116372914Y-79524285D02*
X116277676Y-79476666D01*
X116277676Y-79476666D02*
X116182438Y-79381428D01*
X116182438Y-79381428D02*
X116134819Y-79238571D01*
X116134819Y-79238571D02*
X116134819Y-79143333D01*
X116134819Y-79143333D02*
X116182438Y-79000476D01*
X116182438Y-79000476D02*
X116230057Y-78952857D01*
X116134819Y-78619523D02*
X116134819Y-78000476D01*
X116134819Y-78000476D02*
X116515771Y-78333809D01*
X116515771Y-78333809D02*
X116515771Y-78190952D01*
X116515771Y-78190952D02*
X116563390Y-78095714D01*
X116563390Y-78095714D02*
X116611009Y-78048095D01*
X116611009Y-78048095D02*
X116706247Y-78000476D01*
X116706247Y-78000476D02*
X116944342Y-78000476D01*
X116944342Y-78000476D02*
X117039580Y-78048095D01*
X117039580Y-78048095D02*
X117087200Y-78095714D01*
X117087200Y-78095714D02*
X117134819Y-78190952D01*
X117134819Y-78190952D02*
X117134819Y-78476666D01*
X117134819Y-78476666D02*
X117087200Y-78571904D01*
X117087200Y-78571904D02*
X117039580Y-78619523D01*
X116468152Y-77143333D02*
X117134819Y-77143333D01*
X116087200Y-77381428D02*
X116801485Y-77619523D01*
X116801485Y-77619523D02*
X116801485Y-77000476D01*
X128263333Y-124614819D02*
X127787143Y-124614819D01*
X127787143Y-124614819D02*
X127787143Y-123614819D01*
X129025238Y-123948152D02*
X129025238Y-124614819D01*
X128787143Y-123567200D02*
X128549048Y-124281485D01*
X128549048Y-124281485D02*
X129168095Y-124281485D01*
X135044819Y-80361904D02*
X135044819Y-79790476D01*
X136044819Y-80076190D02*
X135044819Y-80076190D01*
X136044819Y-79457142D02*
X135044819Y-79457142D01*
X135044819Y-79457142D02*
X135044819Y-79076190D01*
X135044819Y-79076190D02*
X135092438Y-78980952D01*
X135092438Y-78980952D02*
X135140057Y-78933333D01*
X135140057Y-78933333D02*
X135235295Y-78885714D01*
X135235295Y-78885714D02*
X135378152Y-78885714D01*
X135378152Y-78885714D02*
X135473390Y-78933333D01*
X135473390Y-78933333D02*
X135521009Y-78980952D01*
X135521009Y-78980952D02*
X135568628Y-79076190D01*
X135568628Y-79076190D02*
X135568628Y-79457142D01*
X135140057Y-78504761D02*
X135092438Y-78457142D01*
X135092438Y-78457142D02*
X135044819Y-78361904D01*
X135044819Y-78361904D02*
X135044819Y-78123809D01*
X135044819Y-78123809D02*
X135092438Y-78028571D01*
X135092438Y-78028571D02*
X135140057Y-77980952D01*
X135140057Y-77980952D02*
X135235295Y-77933333D01*
X135235295Y-77933333D02*
X135330533Y-77933333D01*
X135330533Y-77933333D02*
X135473390Y-77980952D01*
X135473390Y-77980952D02*
X136044819Y-78552380D01*
X136044819Y-78552380D02*
X136044819Y-77933333D01*
X123759580Y-109762857D02*
X123807200Y-109810476D01*
X123807200Y-109810476D02*
X123854819Y-109953333D01*
X123854819Y-109953333D02*
X123854819Y-110048571D01*
X123854819Y-110048571D02*
X123807200Y-110191428D01*
X123807200Y-110191428D02*
X123711961Y-110286666D01*
X123711961Y-110286666D02*
X123616723Y-110334285D01*
X123616723Y-110334285D02*
X123426247Y-110381904D01*
X123426247Y-110381904D02*
X123283390Y-110381904D01*
X123283390Y-110381904D02*
X123092914Y-110334285D01*
X123092914Y-110334285D02*
X122997676Y-110286666D01*
X122997676Y-110286666D02*
X122902438Y-110191428D01*
X122902438Y-110191428D02*
X122854819Y-110048571D01*
X122854819Y-110048571D02*
X122854819Y-109953333D01*
X122854819Y-109953333D02*
X122902438Y-109810476D01*
X122902438Y-109810476D02*
X122950057Y-109762857D01*
X123854819Y-108810476D02*
X123854819Y-109381904D01*
X123854819Y-109096190D02*
X122854819Y-109096190D01*
X122854819Y-109096190D02*
X122997676Y-109191428D01*
X122997676Y-109191428D02*
X123092914Y-109286666D01*
X123092914Y-109286666D02*
X123140533Y-109381904D01*
X122854819Y-107905714D02*
X122854819Y-108381904D01*
X122854819Y-108381904D02*
X123331009Y-108429523D01*
X123331009Y-108429523D02*
X123283390Y-108381904D01*
X123283390Y-108381904D02*
X123235771Y-108286666D01*
X123235771Y-108286666D02*
X123235771Y-108048571D01*
X123235771Y-108048571D02*
X123283390Y-107953333D01*
X123283390Y-107953333D02*
X123331009Y-107905714D01*
X123331009Y-107905714D02*
X123426247Y-107858095D01*
X123426247Y-107858095D02*
X123664342Y-107858095D01*
X123664342Y-107858095D02*
X123759580Y-107905714D01*
X123759580Y-107905714D02*
X123807200Y-107953333D01*
X123807200Y-107953333D02*
X123854819Y-108048571D01*
X123854819Y-108048571D02*
X123854819Y-108286666D01*
X123854819Y-108286666D02*
X123807200Y-108381904D01*
X123807200Y-108381904D02*
X123759580Y-108429523D01*
X148763333Y-97829580D02*
X148715714Y-97877200D01*
X148715714Y-97877200D02*
X148572857Y-97924819D01*
X148572857Y-97924819D02*
X148477619Y-97924819D01*
X148477619Y-97924819D02*
X148334762Y-97877200D01*
X148334762Y-97877200D02*
X148239524Y-97781961D01*
X148239524Y-97781961D02*
X148191905Y-97686723D01*
X148191905Y-97686723D02*
X148144286Y-97496247D01*
X148144286Y-97496247D02*
X148144286Y-97353390D01*
X148144286Y-97353390D02*
X148191905Y-97162914D01*
X148191905Y-97162914D02*
X148239524Y-97067676D01*
X148239524Y-97067676D02*
X148334762Y-96972438D01*
X148334762Y-96972438D02*
X148477619Y-96924819D01*
X148477619Y-96924819D02*
X148572857Y-96924819D01*
X148572857Y-96924819D02*
X148715714Y-96972438D01*
X148715714Y-96972438D02*
X148763333Y-97020057D01*
X149620476Y-97258152D02*
X149620476Y-97924819D01*
X149382381Y-96877200D02*
X149144286Y-97591485D01*
X149144286Y-97591485D02*
X149763333Y-97591485D01*
X169181666Y-81489819D02*
X169181666Y-82204104D01*
X169181666Y-82204104D02*
X169134047Y-82346961D01*
X169134047Y-82346961D02*
X169038809Y-82442200D01*
X169038809Y-82442200D02*
X168895952Y-82489819D01*
X168895952Y-82489819D02*
X168800714Y-82489819D01*
X169610238Y-81585057D02*
X169657857Y-81537438D01*
X169657857Y-81537438D02*
X169753095Y-81489819D01*
X169753095Y-81489819D02*
X169991190Y-81489819D01*
X169991190Y-81489819D02*
X170086428Y-81537438D01*
X170086428Y-81537438D02*
X170134047Y-81585057D01*
X170134047Y-81585057D02*
X170181666Y-81680295D01*
X170181666Y-81680295D02*
X170181666Y-81775533D01*
X170181666Y-81775533D02*
X170134047Y-81918390D01*
X170134047Y-81918390D02*
X169562619Y-82489819D01*
X169562619Y-82489819D02*
X170181666Y-82489819D01*
D11*
X159435237Y-102324318D02*
X159435237Y-101054318D01*
X160765714Y-102203365D02*
X160705238Y-102263842D01*
X160705238Y-102263842D02*
X160523809Y-102324318D01*
X160523809Y-102324318D02*
X160402857Y-102324318D01*
X160402857Y-102324318D02*
X160221428Y-102263842D01*
X160221428Y-102263842D02*
X160100476Y-102142889D01*
X160100476Y-102142889D02*
X160039999Y-102021937D01*
X160039999Y-102021937D02*
X159979523Y-101780032D01*
X159979523Y-101780032D02*
X159979523Y-101598603D01*
X159979523Y-101598603D02*
X160039999Y-101356699D01*
X160039999Y-101356699D02*
X160100476Y-101235746D01*
X160100476Y-101235746D02*
X160221428Y-101114794D01*
X160221428Y-101114794D02*
X160402857Y-101054318D01*
X160402857Y-101054318D02*
X160523809Y-101054318D01*
X160523809Y-101054318D02*
X160705238Y-101114794D01*
X160705238Y-101114794D02*
X160765714Y-101175270D01*
X161975238Y-102324318D02*
X161249523Y-102324318D01*
X161612380Y-102324318D02*
X161612380Y-101054318D01*
X161612380Y-101054318D02*
X161491428Y-101235746D01*
X161491428Y-101235746D02*
X161370476Y-101356699D01*
X161370476Y-101356699D02*
X161249523Y-101417175D01*
D10*
X124994819Y-96301904D02*
X125804342Y-96301904D01*
X125804342Y-96301904D02*
X125899580Y-96254285D01*
X125899580Y-96254285D02*
X125947200Y-96206666D01*
X125947200Y-96206666D02*
X125994819Y-96111428D01*
X125994819Y-96111428D02*
X125994819Y-95920952D01*
X125994819Y-95920952D02*
X125947200Y-95825714D01*
X125947200Y-95825714D02*
X125899580Y-95778095D01*
X125899580Y-95778095D02*
X125804342Y-95730476D01*
X125804342Y-95730476D02*
X124994819Y-95730476D01*
X125994819Y-94730476D02*
X125994819Y-95301904D01*
X125994819Y-95016190D02*
X124994819Y-95016190D01*
X124994819Y-95016190D02*
X125137676Y-95111428D01*
X125137676Y-95111428D02*
X125232914Y-95206666D01*
X125232914Y-95206666D02*
X125280533Y-95301904D01*
X148897142Y-99229580D02*
X148849523Y-99277200D01*
X148849523Y-99277200D02*
X148706666Y-99324819D01*
X148706666Y-99324819D02*
X148611428Y-99324819D01*
X148611428Y-99324819D02*
X148468571Y-99277200D01*
X148468571Y-99277200D02*
X148373333Y-99181961D01*
X148373333Y-99181961D02*
X148325714Y-99086723D01*
X148325714Y-99086723D02*
X148278095Y-98896247D01*
X148278095Y-98896247D02*
X148278095Y-98753390D01*
X148278095Y-98753390D02*
X148325714Y-98562914D01*
X148325714Y-98562914D02*
X148373333Y-98467676D01*
X148373333Y-98467676D02*
X148468571Y-98372438D01*
X148468571Y-98372438D02*
X148611428Y-98324819D01*
X148611428Y-98324819D02*
X148706666Y-98324819D01*
X148706666Y-98324819D02*
X148849523Y-98372438D01*
X148849523Y-98372438D02*
X148897142Y-98420057D01*
X149230476Y-98324819D02*
X149849523Y-98324819D01*
X149849523Y-98324819D02*
X149516190Y-98705771D01*
X149516190Y-98705771D02*
X149659047Y-98705771D01*
X149659047Y-98705771D02*
X149754285Y-98753390D01*
X149754285Y-98753390D02*
X149801904Y-98801009D01*
X149801904Y-98801009D02*
X149849523Y-98896247D01*
X149849523Y-98896247D02*
X149849523Y-99134342D01*
X149849523Y-99134342D02*
X149801904Y-99229580D01*
X149801904Y-99229580D02*
X149754285Y-99277200D01*
X149754285Y-99277200D02*
X149659047Y-99324819D01*
X149659047Y-99324819D02*
X149373333Y-99324819D01*
X149373333Y-99324819D02*
X149278095Y-99277200D01*
X149278095Y-99277200D02*
X149230476Y-99229580D01*
X150468571Y-98324819D02*
X150563809Y-98324819D01*
X150563809Y-98324819D02*
X150659047Y-98372438D01*
X150659047Y-98372438D02*
X150706666Y-98420057D01*
X150706666Y-98420057D02*
X150754285Y-98515295D01*
X150754285Y-98515295D02*
X150801904Y-98705771D01*
X150801904Y-98705771D02*
X150801904Y-98943866D01*
X150801904Y-98943866D02*
X150754285Y-99134342D01*
X150754285Y-99134342D02*
X150706666Y-99229580D01*
X150706666Y-99229580D02*
X150659047Y-99277200D01*
X150659047Y-99277200D02*
X150563809Y-99324819D01*
X150563809Y-99324819D02*
X150468571Y-99324819D01*
X150468571Y-99324819D02*
X150373333Y-99277200D01*
X150373333Y-99277200D02*
X150325714Y-99229580D01*
X150325714Y-99229580D02*
X150278095Y-99134342D01*
X150278095Y-99134342D02*
X150230476Y-98943866D01*
X150230476Y-98943866D02*
X150230476Y-98705771D01*
X150230476Y-98705771D02*
X150278095Y-98515295D01*
X150278095Y-98515295D02*
X150325714Y-98420057D01*
X150325714Y-98420057D02*
X150373333Y-98372438D01*
X150373333Y-98372438D02*
X150468571Y-98324819D01*
X159457142Y-81559580D02*
X159409523Y-81607200D01*
X159409523Y-81607200D02*
X159266666Y-81654819D01*
X159266666Y-81654819D02*
X159171428Y-81654819D01*
X159171428Y-81654819D02*
X159028571Y-81607200D01*
X159028571Y-81607200D02*
X158933333Y-81511961D01*
X158933333Y-81511961D02*
X158885714Y-81416723D01*
X158885714Y-81416723D02*
X158838095Y-81226247D01*
X158838095Y-81226247D02*
X158838095Y-81083390D01*
X158838095Y-81083390D02*
X158885714Y-80892914D01*
X158885714Y-80892914D02*
X158933333Y-80797676D01*
X158933333Y-80797676D02*
X159028571Y-80702438D01*
X159028571Y-80702438D02*
X159171428Y-80654819D01*
X159171428Y-80654819D02*
X159266666Y-80654819D01*
X159266666Y-80654819D02*
X159409523Y-80702438D01*
X159409523Y-80702438D02*
X159457142Y-80750057D01*
X160409523Y-81654819D02*
X159838095Y-81654819D01*
X160123809Y-81654819D02*
X160123809Y-80654819D01*
X160123809Y-80654819D02*
X160028571Y-80797676D01*
X160028571Y-80797676D02*
X159933333Y-80892914D01*
X159933333Y-80892914D02*
X159838095Y-80940533D01*
X161028571Y-80654819D02*
X161123809Y-80654819D01*
X161123809Y-80654819D02*
X161219047Y-80702438D01*
X161219047Y-80702438D02*
X161266666Y-80750057D01*
X161266666Y-80750057D02*
X161314285Y-80845295D01*
X161314285Y-80845295D02*
X161361904Y-81035771D01*
X161361904Y-81035771D02*
X161361904Y-81273866D01*
X161361904Y-81273866D02*
X161314285Y-81464342D01*
X161314285Y-81464342D02*
X161266666Y-81559580D01*
X161266666Y-81559580D02*
X161219047Y-81607200D01*
X161219047Y-81607200D02*
X161123809Y-81654819D01*
X161123809Y-81654819D02*
X161028571Y-81654819D01*
X161028571Y-81654819D02*
X160933333Y-81607200D01*
X160933333Y-81607200D02*
X160885714Y-81559580D01*
X160885714Y-81559580D02*
X160838095Y-81464342D01*
X160838095Y-81464342D02*
X160790476Y-81273866D01*
X160790476Y-81273866D02*
X160790476Y-81035771D01*
X160790476Y-81035771D02*
X160838095Y-80845295D01*
X160838095Y-80845295D02*
X160885714Y-80750057D01*
X160885714Y-80750057D02*
X160933333Y-80702438D01*
X160933333Y-80702438D02*
X161028571Y-80654819D01*
X133939580Y-121962857D02*
X133987200Y-122010476D01*
X133987200Y-122010476D02*
X134034819Y-122153333D01*
X134034819Y-122153333D02*
X134034819Y-122248571D01*
X134034819Y-122248571D02*
X133987200Y-122391428D01*
X133987200Y-122391428D02*
X133891961Y-122486666D01*
X133891961Y-122486666D02*
X133796723Y-122534285D01*
X133796723Y-122534285D02*
X133606247Y-122581904D01*
X133606247Y-122581904D02*
X133463390Y-122581904D01*
X133463390Y-122581904D02*
X133272914Y-122534285D01*
X133272914Y-122534285D02*
X133177676Y-122486666D01*
X133177676Y-122486666D02*
X133082438Y-122391428D01*
X133082438Y-122391428D02*
X133034819Y-122248571D01*
X133034819Y-122248571D02*
X133034819Y-122153333D01*
X133034819Y-122153333D02*
X133082438Y-122010476D01*
X133082438Y-122010476D02*
X133130057Y-121962857D01*
X134034819Y-121010476D02*
X134034819Y-121581904D01*
X134034819Y-121296190D02*
X133034819Y-121296190D01*
X133034819Y-121296190D02*
X133177676Y-121391428D01*
X133177676Y-121391428D02*
X133272914Y-121486666D01*
X133272914Y-121486666D02*
X133320533Y-121581904D01*
X133463390Y-120439047D02*
X133415771Y-120534285D01*
X133415771Y-120534285D02*
X133368152Y-120581904D01*
X133368152Y-120581904D02*
X133272914Y-120629523D01*
X133272914Y-120629523D02*
X133225295Y-120629523D01*
X133225295Y-120629523D02*
X133130057Y-120581904D01*
X133130057Y-120581904D02*
X133082438Y-120534285D01*
X133082438Y-120534285D02*
X133034819Y-120439047D01*
X133034819Y-120439047D02*
X133034819Y-120248571D01*
X133034819Y-120248571D02*
X133082438Y-120153333D01*
X133082438Y-120153333D02*
X133130057Y-120105714D01*
X133130057Y-120105714D02*
X133225295Y-120058095D01*
X133225295Y-120058095D02*
X133272914Y-120058095D01*
X133272914Y-120058095D02*
X133368152Y-120105714D01*
X133368152Y-120105714D02*
X133415771Y-120153333D01*
X133415771Y-120153333D02*
X133463390Y-120248571D01*
X133463390Y-120248571D02*
X133463390Y-120439047D01*
X133463390Y-120439047D02*
X133511009Y-120534285D01*
X133511009Y-120534285D02*
X133558628Y-120581904D01*
X133558628Y-120581904D02*
X133653866Y-120629523D01*
X133653866Y-120629523D02*
X133844342Y-120629523D01*
X133844342Y-120629523D02*
X133939580Y-120581904D01*
X133939580Y-120581904D02*
X133987200Y-120534285D01*
X133987200Y-120534285D02*
X134034819Y-120439047D01*
X134034819Y-120439047D02*
X134034819Y-120248571D01*
X134034819Y-120248571D02*
X133987200Y-120153333D01*
X133987200Y-120153333D02*
X133939580Y-120105714D01*
X133939580Y-120105714D02*
X133844342Y-120058095D01*
X133844342Y-120058095D02*
X133653866Y-120058095D01*
X133653866Y-120058095D02*
X133558628Y-120105714D01*
X133558628Y-120105714D02*
X133511009Y-120153333D01*
X133511009Y-120153333D02*
X133463390Y-120248571D01*
X163507142Y-102289580D02*
X163459523Y-102337200D01*
X163459523Y-102337200D02*
X163316666Y-102384819D01*
X163316666Y-102384819D02*
X163221428Y-102384819D01*
X163221428Y-102384819D02*
X163078571Y-102337200D01*
X163078571Y-102337200D02*
X162983333Y-102241961D01*
X162983333Y-102241961D02*
X162935714Y-102146723D01*
X162935714Y-102146723D02*
X162888095Y-101956247D01*
X162888095Y-101956247D02*
X162888095Y-101813390D01*
X162888095Y-101813390D02*
X162935714Y-101622914D01*
X162935714Y-101622914D02*
X162983333Y-101527676D01*
X162983333Y-101527676D02*
X163078571Y-101432438D01*
X163078571Y-101432438D02*
X163221428Y-101384819D01*
X163221428Y-101384819D02*
X163316666Y-101384819D01*
X163316666Y-101384819D02*
X163459523Y-101432438D01*
X163459523Y-101432438D02*
X163507142Y-101480057D01*
X163888095Y-101480057D02*
X163935714Y-101432438D01*
X163935714Y-101432438D02*
X164030952Y-101384819D01*
X164030952Y-101384819D02*
X164269047Y-101384819D01*
X164269047Y-101384819D02*
X164364285Y-101432438D01*
X164364285Y-101432438D02*
X164411904Y-101480057D01*
X164411904Y-101480057D02*
X164459523Y-101575295D01*
X164459523Y-101575295D02*
X164459523Y-101670533D01*
X164459523Y-101670533D02*
X164411904Y-101813390D01*
X164411904Y-101813390D02*
X163840476Y-102384819D01*
X163840476Y-102384819D02*
X164459523Y-102384819D01*
X165364285Y-101384819D02*
X164888095Y-101384819D01*
X164888095Y-101384819D02*
X164840476Y-101861009D01*
X164840476Y-101861009D02*
X164888095Y-101813390D01*
X164888095Y-101813390D02*
X164983333Y-101765771D01*
X164983333Y-101765771D02*
X165221428Y-101765771D01*
X165221428Y-101765771D02*
X165316666Y-101813390D01*
X165316666Y-101813390D02*
X165364285Y-101861009D01*
X165364285Y-101861009D02*
X165411904Y-101956247D01*
X165411904Y-101956247D02*
X165411904Y-102194342D01*
X165411904Y-102194342D02*
X165364285Y-102289580D01*
X165364285Y-102289580D02*
X165316666Y-102337200D01*
X165316666Y-102337200D02*
X165221428Y-102384819D01*
X165221428Y-102384819D02*
X164983333Y-102384819D01*
X164983333Y-102384819D02*
X164888095Y-102337200D01*
X164888095Y-102337200D02*
X164840476Y-102289580D01*
X157189580Y-79132857D02*
X157237200Y-79180476D01*
X157237200Y-79180476D02*
X157284819Y-79323333D01*
X157284819Y-79323333D02*
X157284819Y-79418571D01*
X157284819Y-79418571D02*
X157237200Y-79561428D01*
X157237200Y-79561428D02*
X157141961Y-79656666D01*
X157141961Y-79656666D02*
X157046723Y-79704285D01*
X157046723Y-79704285D02*
X156856247Y-79751904D01*
X156856247Y-79751904D02*
X156713390Y-79751904D01*
X156713390Y-79751904D02*
X156522914Y-79704285D01*
X156522914Y-79704285D02*
X156427676Y-79656666D01*
X156427676Y-79656666D02*
X156332438Y-79561428D01*
X156332438Y-79561428D02*
X156284819Y-79418571D01*
X156284819Y-79418571D02*
X156284819Y-79323333D01*
X156284819Y-79323333D02*
X156332438Y-79180476D01*
X156332438Y-79180476D02*
X156380057Y-79132857D01*
X157284819Y-78180476D02*
X157284819Y-78751904D01*
X157284819Y-78466190D02*
X156284819Y-78466190D01*
X156284819Y-78466190D02*
X156427676Y-78561428D01*
X156427676Y-78561428D02*
X156522914Y-78656666D01*
X156522914Y-78656666D02*
X156570533Y-78751904D01*
X157284819Y-77228095D02*
X157284819Y-77799523D01*
X157284819Y-77513809D02*
X156284819Y-77513809D01*
X156284819Y-77513809D02*
X156427676Y-77609047D01*
X156427676Y-77609047D02*
X156522914Y-77704285D01*
X156522914Y-77704285D02*
X156570533Y-77799523D01*
X128303333Y-123204819D02*
X127970000Y-122728628D01*
X127731905Y-123204819D02*
X127731905Y-122204819D01*
X127731905Y-122204819D02*
X128112857Y-122204819D01*
X128112857Y-122204819D02*
X128208095Y-122252438D01*
X128208095Y-122252438D02*
X128255714Y-122300057D01*
X128255714Y-122300057D02*
X128303333Y-122395295D01*
X128303333Y-122395295D02*
X128303333Y-122538152D01*
X128303333Y-122538152D02*
X128255714Y-122633390D01*
X128255714Y-122633390D02*
X128208095Y-122681009D01*
X128208095Y-122681009D02*
X128112857Y-122728628D01*
X128112857Y-122728628D02*
X127731905Y-122728628D01*
X128636667Y-122204819D02*
X129303333Y-122204819D01*
X129303333Y-122204819D02*
X128874762Y-123204819D01*
X163804819Y-107182857D02*
X163328628Y-107516190D01*
X163804819Y-107754285D02*
X162804819Y-107754285D01*
X162804819Y-107754285D02*
X162804819Y-107373333D01*
X162804819Y-107373333D02*
X162852438Y-107278095D01*
X162852438Y-107278095D02*
X162900057Y-107230476D01*
X162900057Y-107230476D02*
X162995295Y-107182857D01*
X162995295Y-107182857D02*
X163138152Y-107182857D01*
X163138152Y-107182857D02*
X163233390Y-107230476D01*
X163233390Y-107230476D02*
X163281009Y-107278095D01*
X163281009Y-107278095D02*
X163328628Y-107373333D01*
X163328628Y-107373333D02*
X163328628Y-107754285D01*
X163804819Y-106230476D02*
X163804819Y-106801904D01*
X163804819Y-106516190D02*
X162804819Y-106516190D01*
X162804819Y-106516190D02*
X162947676Y-106611428D01*
X162947676Y-106611428D02*
X163042914Y-106706666D01*
X163042914Y-106706666D02*
X163090533Y-106801904D01*
X162804819Y-105373333D02*
X162804819Y-105563809D01*
X162804819Y-105563809D02*
X162852438Y-105659047D01*
X162852438Y-105659047D02*
X162900057Y-105706666D01*
X162900057Y-105706666D02*
X163042914Y-105801904D01*
X163042914Y-105801904D02*
X163233390Y-105849523D01*
X163233390Y-105849523D02*
X163614342Y-105849523D01*
X163614342Y-105849523D02*
X163709580Y-105801904D01*
X163709580Y-105801904D02*
X163757200Y-105754285D01*
X163757200Y-105754285D02*
X163804819Y-105659047D01*
X163804819Y-105659047D02*
X163804819Y-105468571D01*
X163804819Y-105468571D02*
X163757200Y-105373333D01*
X163757200Y-105373333D02*
X163709580Y-105325714D01*
X163709580Y-105325714D02*
X163614342Y-105278095D01*
X163614342Y-105278095D02*
X163376247Y-105278095D01*
X163376247Y-105278095D02*
X163281009Y-105325714D01*
X163281009Y-105325714D02*
X163233390Y-105373333D01*
X163233390Y-105373333D02*
X163185771Y-105468571D01*
X163185771Y-105468571D02*
X163185771Y-105659047D01*
X163185771Y-105659047D02*
X163233390Y-105754285D01*
X163233390Y-105754285D02*
X163281009Y-105801904D01*
X163281009Y-105801904D02*
X163376247Y-105849523D01*
X164003333Y-89574819D02*
X163670000Y-89098628D01*
X163431905Y-89574819D02*
X163431905Y-88574819D01*
X163431905Y-88574819D02*
X163812857Y-88574819D01*
X163812857Y-88574819D02*
X163908095Y-88622438D01*
X163908095Y-88622438D02*
X163955714Y-88670057D01*
X163955714Y-88670057D02*
X164003333Y-88765295D01*
X164003333Y-88765295D02*
X164003333Y-88908152D01*
X164003333Y-88908152D02*
X163955714Y-89003390D01*
X163955714Y-89003390D02*
X163908095Y-89051009D01*
X163908095Y-89051009D02*
X163812857Y-89098628D01*
X163812857Y-89098628D02*
X163431905Y-89098628D01*
X164479524Y-89574819D02*
X164670000Y-89574819D01*
X164670000Y-89574819D02*
X164765238Y-89527200D01*
X164765238Y-89527200D02*
X164812857Y-89479580D01*
X164812857Y-89479580D02*
X164908095Y-89336723D01*
X164908095Y-89336723D02*
X164955714Y-89146247D01*
X164955714Y-89146247D02*
X164955714Y-88765295D01*
X164955714Y-88765295D02*
X164908095Y-88670057D01*
X164908095Y-88670057D02*
X164860476Y-88622438D01*
X164860476Y-88622438D02*
X164765238Y-88574819D01*
X164765238Y-88574819D02*
X164574762Y-88574819D01*
X164574762Y-88574819D02*
X164479524Y-88622438D01*
X164479524Y-88622438D02*
X164431905Y-88670057D01*
X164431905Y-88670057D02*
X164384286Y-88765295D01*
X164384286Y-88765295D02*
X164384286Y-89003390D01*
X164384286Y-89003390D02*
X164431905Y-89098628D01*
X164431905Y-89098628D02*
X164479524Y-89146247D01*
X164479524Y-89146247D02*
X164574762Y-89193866D01*
X164574762Y-89193866D02*
X164765238Y-89193866D01*
X164765238Y-89193866D02*
X164860476Y-89146247D01*
X164860476Y-89146247D02*
X164908095Y-89098628D01*
X164908095Y-89098628D02*
X164955714Y-89003390D01*
X172107142Y-123929819D02*
X171773809Y-123453628D01*
X171535714Y-123929819D02*
X171535714Y-122929819D01*
X171535714Y-122929819D02*
X171916666Y-122929819D01*
X171916666Y-122929819D02*
X172011904Y-122977438D01*
X172011904Y-122977438D02*
X172059523Y-123025057D01*
X172059523Y-123025057D02*
X172107142Y-123120295D01*
X172107142Y-123120295D02*
X172107142Y-123263152D01*
X172107142Y-123263152D02*
X172059523Y-123358390D01*
X172059523Y-123358390D02*
X172011904Y-123406009D01*
X172011904Y-123406009D02*
X171916666Y-123453628D01*
X171916666Y-123453628D02*
X171535714Y-123453628D01*
X173059523Y-123929819D02*
X172488095Y-123929819D01*
X172773809Y-123929819D02*
X172773809Y-122929819D01*
X172773809Y-122929819D02*
X172678571Y-123072676D01*
X172678571Y-123072676D02*
X172583333Y-123167914D01*
X172583333Y-123167914D02*
X172488095Y-123215533D01*
X174011904Y-123929819D02*
X173440476Y-123929819D01*
X173726190Y-123929819D02*
X173726190Y-122929819D01*
X173726190Y-122929819D02*
X173630952Y-123072676D01*
X173630952Y-123072676D02*
X173535714Y-123167914D01*
X173535714Y-123167914D02*
X173440476Y-123215533D01*
X125529819Y-112761904D02*
X126339342Y-112761904D01*
X126339342Y-112761904D02*
X126434580Y-112714285D01*
X126434580Y-112714285D02*
X126482200Y-112666666D01*
X126482200Y-112666666D02*
X126529819Y-112571428D01*
X126529819Y-112571428D02*
X126529819Y-112380952D01*
X126529819Y-112380952D02*
X126482200Y-112285714D01*
X126482200Y-112285714D02*
X126434580Y-112238095D01*
X126434580Y-112238095D02*
X126339342Y-112190476D01*
X126339342Y-112190476D02*
X125529819Y-112190476D01*
X125529819Y-111809523D02*
X125529819Y-111190476D01*
X125529819Y-111190476D02*
X125910771Y-111523809D01*
X125910771Y-111523809D02*
X125910771Y-111380952D01*
X125910771Y-111380952D02*
X125958390Y-111285714D01*
X125958390Y-111285714D02*
X126006009Y-111238095D01*
X126006009Y-111238095D02*
X126101247Y-111190476D01*
X126101247Y-111190476D02*
X126339342Y-111190476D01*
X126339342Y-111190476D02*
X126434580Y-111238095D01*
X126434580Y-111238095D02*
X126482200Y-111285714D01*
X126482200Y-111285714D02*
X126529819Y-111380952D01*
X126529819Y-111380952D02*
X126529819Y-111666666D01*
X126529819Y-111666666D02*
X126482200Y-111761904D01*
X126482200Y-111761904D02*
X126434580Y-111809523D01*
X126565180Y-113760000D02*
X126327085Y-113760000D01*
X126422323Y-113521905D02*
X126327085Y-113760000D01*
X126327085Y-113760000D02*
X126422323Y-113998095D01*
X126136609Y-113617143D02*
X126327085Y-113760000D01*
X126327085Y-113760000D02*
X126136609Y-113902857D01*
X126967142Y-78319580D02*
X126919523Y-78367200D01*
X126919523Y-78367200D02*
X126776666Y-78414819D01*
X126776666Y-78414819D02*
X126681428Y-78414819D01*
X126681428Y-78414819D02*
X126538571Y-78367200D01*
X126538571Y-78367200D02*
X126443333Y-78271961D01*
X126443333Y-78271961D02*
X126395714Y-78176723D01*
X126395714Y-78176723D02*
X126348095Y-77986247D01*
X126348095Y-77986247D02*
X126348095Y-77843390D01*
X126348095Y-77843390D02*
X126395714Y-77652914D01*
X126395714Y-77652914D02*
X126443333Y-77557676D01*
X126443333Y-77557676D02*
X126538571Y-77462438D01*
X126538571Y-77462438D02*
X126681428Y-77414819D01*
X126681428Y-77414819D02*
X126776666Y-77414819D01*
X126776666Y-77414819D02*
X126919523Y-77462438D01*
X126919523Y-77462438D02*
X126967142Y-77510057D01*
X127300476Y-77414819D02*
X127919523Y-77414819D01*
X127919523Y-77414819D02*
X127586190Y-77795771D01*
X127586190Y-77795771D02*
X127729047Y-77795771D01*
X127729047Y-77795771D02*
X127824285Y-77843390D01*
X127824285Y-77843390D02*
X127871904Y-77891009D01*
X127871904Y-77891009D02*
X127919523Y-77986247D01*
X127919523Y-77986247D02*
X127919523Y-78224342D01*
X127919523Y-78224342D02*
X127871904Y-78319580D01*
X127871904Y-78319580D02*
X127824285Y-78367200D01*
X127824285Y-78367200D02*
X127729047Y-78414819D01*
X127729047Y-78414819D02*
X127443333Y-78414819D01*
X127443333Y-78414819D02*
X127348095Y-78367200D01*
X127348095Y-78367200D02*
X127300476Y-78319580D01*
X128252857Y-77414819D02*
X128871904Y-77414819D01*
X128871904Y-77414819D02*
X128538571Y-77795771D01*
X128538571Y-77795771D02*
X128681428Y-77795771D01*
X128681428Y-77795771D02*
X128776666Y-77843390D01*
X128776666Y-77843390D02*
X128824285Y-77891009D01*
X128824285Y-77891009D02*
X128871904Y-77986247D01*
X128871904Y-77986247D02*
X128871904Y-78224342D01*
X128871904Y-78224342D02*
X128824285Y-78319580D01*
X128824285Y-78319580D02*
X128776666Y-78367200D01*
X128776666Y-78367200D02*
X128681428Y-78414819D01*
X128681428Y-78414819D02*
X128395714Y-78414819D01*
X128395714Y-78414819D02*
X128300476Y-78367200D01*
X128300476Y-78367200D02*
X128252857Y-78319580D01*
X172644819Y-108286904D02*
X173454342Y-108286904D01*
X173454342Y-108286904D02*
X173549580Y-108239285D01*
X173549580Y-108239285D02*
X173597200Y-108191666D01*
X173597200Y-108191666D02*
X173644819Y-108096428D01*
X173644819Y-108096428D02*
X173644819Y-107905952D01*
X173644819Y-107905952D02*
X173597200Y-107810714D01*
X173597200Y-107810714D02*
X173549580Y-107763095D01*
X173549580Y-107763095D02*
X173454342Y-107715476D01*
X173454342Y-107715476D02*
X172644819Y-107715476D01*
X172978152Y-106810714D02*
X173644819Y-106810714D01*
X172597200Y-107048809D02*
X173311485Y-107286904D01*
X173311485Y-107286904D02*
X173311485Y-106667857D01*
X174159580Y-114932857D02*
X174207200Y-114980476D01*
X174207200Y-114980476D02*
X174254819Y-115123333D01*
X174254819Y-115123333D02*
X174254819Y-115218571D01*
X174254819Y-115218571D02*
X174207200Y-115361428D01*
X174207200Y-115361428D02*
X174111961Y-115456666D01*
X174111961Y-115456666D02*
X174016723Y-115504285D01*
X174016723Y-115504285D02*
X173826247Y-115551904D01*
X173826247Y-115551904D02*
X173683390Y-115551904D01*
X173683390Y-115551904D02*
X173492914Y-115504285D01*
X173492914Y-115504285D02*
X173397676Y-115456666D01*
X173397676Y-115456666D02*
X173302438Y-115361428D01*
X173302438Y-115361428D02*
X173254819Y-115218571D01*
X173254819Y-115218571D02*
X173254819Y-115123333D01*
X173254819Y-115123333D02*
X173302438Y-114980476D01*
X173302438Y-114980476D02*
X173350057Y-114932857D01*
X173350057Y-114551904D02*
X173302438Y-114504285D01*
X173302438Y-114504285D02*
X173254819Y-114409047D01*
X173254819Y-114409047D02*
X173254819Y-114170952D01*
X173254819Y-114170952D02*
X173302438Y-114075714D01*
X173302438Y-114075714D02*
X173350057Y-114028095D01*
X173350057Y-114028095D02*
X173445295Y-113980476D01*
X173445295Y-113980476D02*
X173540533Y-113980476D01*
X173540533Y-113980476D02*
X173683390Y-114028095D01*
X173683390Y-114028095D02*
X174254819Y-114599523D01*
X174254819Y-114599523D02*
X174254819Y-113980476D01*
X173683390Y-113409047D02*
X173635771Y-113504285D01*
X173635771Y-113504285D02*
X173588152Y-113551904D01*
X173588152Y-113551904D02*
X173492914Y-113599523D01*
X173492914Y-113599523D02*
X173445295Y-113599523D01*
X173445295Y-113599523D02*
X173350057Y-113551904D01*
X173350057Y-113551904D02*
X173302438Y-113504285D01*
X173302438Y-113504285D02*
X173254819Y-113409047D01*
X173254819Y-113409047D02*
X173254819Y-113218571D01*
X173254819Y-113218571D02*
X173302438Y-113123333D01*
X173302438Y-113123333D02*
X173350057Y-113075714D01*
X173350057Y-113075714D02*
X173445295Y-113028095D01*
X173445295Y-113028095D02*
X173492914Y-113028095D01*
X173492914Y-113028095D02*
X173588152Y-113075714D01*
X173588152Y-113075714D02*
X173635771Y-113123333D01*
X173635771Y-113123333D02*
X173683390Y-113218571D01*
X173683390Y-113218571D02*
X173683390Y-113409047D01*
X173683390Y-113409047D02*
X173731009Y-113504285D01*
X173731009Y-113504285D02*
X173778628Y-113551904D01*
X173778628Y-113551904D02*
X173873866Y-113599523D01*
X173873866Y-113599523D02*
X174064342Y-113599523D01*
X174064342Y-113599523D02*
X174159580Y-113551904D01*
X174159580Y-113551904D02*
X174207200Y-113504285D01*
X174207200Y-113504285D02*
X174254819Y-113409047D01*
X174254819Y-113409047D02*
X174254819Y-113218571D01*
X174254819Y-113218571D02*
X174207200Y-113123333D01*
X174207200Y-113123333D02*
X174159580Y-113075714D01*
X174159580Y-113075714D02*
X174064342Y-113028095D01*
X174064342Y-113028095D02*
X173873866Y-113028095D01*
X173873866Y-113028095D02*
X173778628Y-113075714D01*
X173778628Y-113075714D02*
X173731009Y-113123333D01*
X173731009Y-113123333D02*
X173683390Y-113218571D01*
X118808333Y-121329819D02*
X118332143Y-121329819D01*
X118332143Y-121329819D02*
X118332143Y-120329819D01*
X119046429Y-120329819D02*
X119665476Y-120329819D01*
X119665476Y-120329819D02*
X119332143Y-120710771D01*
X119332143Y-120710771D02*
X119475000Y-120710771D01*
X119475000Y-120710771D02*
X119570238Y-120758390D01*
X119570238Y-120758390D02*
X119617857Y-120806009D01*
X119617857Y-120806009D02*
X119665476Y-120901247D01*
X119665476Y-120901247D02*
X119665476Y-121139342D01*
X119665476Y-121139342D02*
X119617857Y-121234580D01*
X119617857Y-121234580D02*
X119570238Y-121282200D01*
X119570238Y-121282200D02*
X119475000Y-121329819D01*
X119475000Y-121329819D02*
X119189286Y-121329819D01*
X119189286Y-121329819D02*
X119094048Y-121282200D01*
X119094048Y-121282200D02*
X119046429Y-121234580D01*
X134807142Y-129514819D02*
X134473809Y-129038628D01*
X134235714Y-129514819D02*
X134235714Y-128514819D01*
X134235714Y-128514819D02*
X134616666Y-128514819D01*
X134616666Y-128514819D02*
X134711904Y-128562438D01*
X134711904Y-128562438D02*
X134759523Y-128610057D01*
X134759523Y-128610057D02*
X134807142Y-128705295D01*
X134807142Y-128705295D02*
X134807142Y-128848152D01*
X134807142Y-128848152D02*
X134759523Y-128943390D01*
X134759523Y-128943390D02*
X134711904Y-128991009D01*
X134711904Y-128991009D02*
X134616666Y-129038628D01*
X134616666Y-129038628D02*
X134235714Y-129038628D01*
X135759523Y-129514819D02*
X135188095Y-129514819D01*
X135473809Y-129514819D02*
X135473809Y-128514819D01*
X135473809Y-128514819D02*
X135378571Y-128657676D01*
X135378571Y-128657676D02*
X135283333Y-128752914D01*
X135283333Y-128752914D02*
X135188095Y-128800533D01*
X136330952Y-128943390D02*
X136235714Y-128895771D01*
X136235714Y-128895771D02*
X136188095Y-128848152D01*
X136188095Y-128848152D02*
X136140476Y-128752914D01*
X136140476Y-128752914D02*
X136140476Y-128705295D01*
X136140476Y-128705295D02*
X136188095Y-128610057D01*
X136188095Y-128610057D02*
X136235714Y-128562438D01*
X136235714Y-128562438D02*
X136330952Y-128514819D01*
X136330952Y-128514819D02*
X136521428Y-128514819D01*
X136521428Y-128514819D02*
X136616666Y-128562438D01*
X136616666Y-128562438D02*
X136664285Y-128610057D01*
X136664285Y-128610057D02*
X136711904Y-128705295D01*
X136711904Y-128705295D02*
X136711904Y-128752914D01*
X136711904Y-128752914D02*
X136664285Y-128848152D01*
X136664285Y-128848152D02*
X136616666Y-128895771D01*
X136616666Y-128895771D02*
X136521428Y-128943390D01*
X136521428Y-128943390D02*
X136330952Y-128943390D01*
X136330952Y-128943390D02*
X136235714Y-128991009D01*
X136235714Y-128991009D02*
X136188095Y-129038628D01*
X136188095Y-129038628D02*
X136140476Y-129133866D01*
X136140476Y-129133866D02*
X136140476Y-129324342D01*
X136140476Y-129324342D02*
X136188095Y-129419580D01*
X136188095Y-129419580D02*
X136235714Y-129467200D01*
X136235714Y-129467200D02*
X136330952Y-129514819D01*
X136330952Y-129514819D02*
X136521428Y-129514819D01*
X136521428Y-129514819D02*
X136616666Y-129467200D01*
X136616666Y-129467200D02*
X136664285Y-129419580D01*
X136664285Y-129419580D02*
X136711904Y-129324342D01*
X136711904Y-129324342D02*
X136711904Y-129133866D01*
X136711904Y-129133866D02*
X136664285Y-129038628D01*
X136664285Y-129038628D02*
X136616666Y-128991009D01*
X136616666Y-128991009D02*
X136521428Y-128943390D01*
X117977142Y-90589580D02*
X117929523Y-90637200D01*
X117929523Y-90637200D02*
X117786666Y-90684819D01*
X117786666Y-90684819D02*
X117691428Y-90684819D01*
X117691428Y-90684819D02*
X117548571Y-90637200D01*
X117548571Y-90637200D02*
X117453333Y-90541961D01*
X117453333Y-90541961D02*
X117405714Y-90446723D01*
X117405714Y-90446723D02*
X117358095Y-90256247D01*
X117358095Y-90256247D02*
X117358095Y-90113390D01*
X117358095Y-90113390D02*
X117405714Y-89922914D01*
X117405714Y-89922914D02*
X117453333Y-89827676D01*
X117453333Y-89827676D02*
X117548571Y-89732438D01*
X117548571Y-89732438D02*
X117691428Y-89684819D01*
X117691428Y-89684819D02*
X117786666Y-89684819D01*
X117786666Y-89684819D02*
X117929523Y-89732438D01*
X117929523Y-89732438D02*
X117977142Y-89780057D01*
X118310476Y-89684819D02*
X118929523Y-89684819D01*
X118929523Y-89684819D02*
X118596190Y-90065771D01*
X118596190Y-90065771D02*
X118739047Y-90065771D01*
X118739047Y-90065771D02*
X118834285Y-90113390D01*
X118834285Y-90113390D02*
X118881904Y-90161009D01*
X118881904Y-90161009D02*
X118929523Y-90256247D01*
X118929523Y-90256247D02*
X118929523Y-90494342D01*
X118929523Y-90494342D02*
X118881904Y-90589580D01*
X118881904Y-90589580D02*
X118834285Y-90637200D01*
X118834285Y-90637200D02*
X118739047Y-90684819D01*
X118739047Y-90684819D02*
X118453333Y-90684819D01*
X118453333Y-90684819D02*
X118358095Y-90637200D01*
X118358095Y-90637200D02*
X118310476Y-90589580D01*
X119881904Y-90684819D02*
X119310476Y-90684819D01*
X119596190Y-90684819D02*
X119596190Y-89684819D01*
X119596190Y-89684819D02*
X119500952Y-89827676D01*
X119500952Y-89827676D02*
X119405714Y-89922914D01*
X119405714Y-89922914D02*
X119310476Y-89970533D01*
X154734819Y-93536666D02*
X154258628Y-93869999D01*
X154734819Y-94108094D02*
X153734819Y-94108094D01*
X153734819Y-94108094D02*
X153734819Y-93727142D01*
X153734819Y-93727142D02*
X153782438Y-93631904D01*
X153782438Y-93631904D02*
X153830057Y-93584285D01*
X153830057Y-93584285D02*
X153925295Y-93536666D01*
X153925295Y-93536666D02*
X154068152Y-93536666D01*
X154068152Y-93536666D02*
X154163390Y-93584285D01*
X154163390Y-93584285D02*
X154211009Y-93631904D01*
X154211009Y-93631904D02*
X154258628Y-93727142D01*
X154258628Y-93727142D02*
X154258628Y-94108094D01*
X154068152Y-92679523D02*
X154734819Y-92679523D01*
X153687200Y-92917618D02*
X154401485Y-93155713D01*
X154401485Y-93155713D02*
X154401485Y-92536666D01*
X166566666Y-134654819D02*
X166566666Y-135369104D01*
X166566666Y-135369104D02*
X166519047Y-135511961D01*
X166519047Y-135511961D02*
X166423809Y-135607200D01*
X166423809Y-135607200D02*
X166280952Y-135654819D01*
X166280952Y-135654819D02*
X166185714Y-135654819D01*
X167519047Y-134654819D02*
X167042857Y-134654819D01*
X167042857Y-134654819D02*
X166995238Y-135131009D01*
X166995238Y-135131009D02*
X167042857Y-135083390D01*
X167042857Y-135083390D02*
X167138095Y-135035771D01*
X167138095Y-135035771D02*
X167376190Y-135035771D01*
X167376190Y-135035771D02*
X167471428Y-135083390D01*
X167471428Y-135083390D02*
X167519047Y-135131009D01*
X167519047Y-135131009D02*
X167566666Y-135226247D01*
X167566666Y-135226247D02*
X167566666Y-135464342D01*
X167566666Y-135464342D02*
X167519047Y-135559580D01*
X167519047Y-135559580D02*
X167471428Y-135607200D01*
X167471428Y-135607200D02*
X167376190Y-135654819D01*
X167376190Y-135654819D02*
X167138095Y-135654819D01*
X167138095Y-135654819D02*
X167042857Y-135607200D01*
X167042857Y-135607200D02*
X166995238Y-135559580D01*
X118707142Y-119039580D02*
X118659523Y-119087200D01*
X118659523Y-119087200D02*
X118516666Y-119134819D01*
X118516666Y-119134819D02*
X118421428Y-119134819D01*
X118421428Y-119134819D02*
X118278571Y-119087200D01*
X118278571Y-119087200D02*
X118183333Y-118991961D01*
X118183333Y-118991961D02*
X118135714Y-118896723D01*
X118135714Y-118896723D02*
X118088095Y-118706247D01*
X118088095Y-118706247D02*
X118088095Y-118563390D01*
X118088095Y-118563390D02*
X118135714Y-118372914D01*
X118135714Y-118372914D02*
X118183333Y-118277676D01*
X118183333Y-118277676D02*
X118278571Y-118182438D01*
X118278571Y-118182438D02*
X118421428Y-118134819D01*
X118421428Y-118134819D02*
X118516666Y-118134819D01*
X118516666Y-118134819D02*
X118659523Y-118182438D01*
X118659523Y-118182438D02*
X118707142Y-118230057D01*
X119659523Y-119134819D02*
X119088095Y-119134819D01*
X119373809Y-119134819D02*
X119373809Y-118134819D01*
X119373809Y-118134819D02*
X119278571Y-118277676D01*
X119278571Y-118277676D02*
X119183333Y-118372914D01*
X119183333Y-118372914D02*
X119088095Y-118420533D01*
X120516666Y-118468152D02*
X120516666Y-119134819D01*
X120278571Y-118087200D02*
X120040476Y-118801485D01*
X120040476Y-118801485D02*
X120659523Y-118801485D01*
X141994819Y-80371904D02*
X141994819Y-79800476D01*
X142994819Y-80086190D02*
X141994819Y-80086190D01*
X142994819Y-79467142D02*
X141994819Y-79467142D01*
X141994819Y-79467142D02*
X141994819Y-79086190D01*
X141994819Y-79086190D02*
X142042438Y-78990952D01*
X142042438Y-78990952D02*
X142090057Y-78943333D01*
X142090057Y-78943333D02*
X142185295Y-78895714D01*
X142185295Y-78895714D02*
X142328152Y-78895714D01*
X142328152Y-78895714D02*
X142423390Y-78943333D01*
X142423390Y-78943333D02*
X142471009Y-78990952D01*
X142471009Y-78990952D02*
X142518628Y-79086190D01*
X142518628Y-79086190D02*
X142518628Y-79467142D01*
X142994819Y-77943333D02*
X142994819Y-78514761D01*
X142994819Y-78229047D02*
X141994819Y-78229047D01*
X141994819Y-78229047D02*
X142137676Y-78324285D01*
X142137676Y-78324285D02*
X142232914Y-78419523D01*
X142232914Y-78419523D02*
X142280533Y-78514761D01*
X166254819Y-118211904D02*
X166254819Y-117640476D01*
X167254819Y-117926190D02*
X166254819Y-117926190D01*
X167254819Y-117307142D02*
X166254819Y-117307142D01*
X166254819Y-117307142D02*
X166254819Y-116926190D01*
X166254819Y-116926190D02*
X166302438Y-116830952D01*
X166302438Y-116830952D02*
X166350057Y-116783333D01*
X166350057Y-116783333D02*
X166445295Y-116735714D01*
X166445295Y-116735714D02*
X166588152Y-116735714D01*
X166588152Y-116735714D02*
X166683390Y-116783333D01*
X166683390Y-116783333D02*
X166731009Y-116830952D01*
X166731009Y-116830952D02*
X166778628Y-116926190D01*
X166778628Y-116926190D02*
X166778628Y-117307142D01*
X166254819Y-116402380D02*
X166254819Y-115783333D01*
X166254819Y-115783333D02*
X166635771Y-116116666D01*
X166635771Y-116116666D02*
X166635771Y-115973809D01*
X166635771Y-115973809D02*
X166683390Y-115878571D01*
X166683390Y-115878571D02*
X166731009Y-115830952D01*
X166731009Y-115830952D02*
X166826247Y-115783333D01*
X166826247Y-115783333D02*
X167064342Y-115783333D01*
X167064342Y-115783333D02*
X167159580Y-115830952D01*
X167159580Y-115830952D02*
X167207200Y-115878571D01*
X167207200Y-115878571D02*
X167254819Y-115973809D01*
X167254819Y-115973809D02*
X167254819Y-116259523D01*
X167254819Y-116259523D02*
X167207200Y-116354761D01*
X167207200Y-116354761D02*
X167159580Y-116402380D01*
X147683333Y-83159580D02*
X147635714Y-83207200D01*
X147635714Y-83207200D02*
X147492857Y-83254819D01*
X147492857Y-83254819D02*
X147397619Y-83254819D01*
X147397619Y-83254819D02*
X147254762Y-83207200D01*
X147254762Y-83207200D02*
X147159524Y-83111961D01*
X147159524Y-83111961D02*
X147111905Y-83016723D01*
X147111905Y-83016723D02*
X147064286Y-82826247D01*
X147064286Y-82826247D02*
X147064286Y-82683390D01*
X147064286Y-82683390D02*
X147111905Y-82492914D01*
X147111905Y-82492914D02*
X147159524Y-82397676D01*
X147159524Y-82397676D02*
X147254762Y-82302438D01*
X147254762Y-82302438D02*
X147397619Y-82254819D01*
X147397619Y-82254819D02*
X147492857Y-82254819D01*
X147492857Y-82254819D02*
X147635714Y-82302438D01*
X147635714Y-82302438D02*
X147683333Y-82350057D01*
X148159524Y-83254819D02*
X148350000Y-83254819D01*
X148350000Y-83254819D02*
X148445238Y-83207200D01*
X148445238Y-83207200D02*
X148492857Y-83159580D01*
X148492857Y-83159580D02*
X148588095Y-83016723D01*
X148588095Y-83016723D02*
X148635714Y-82826247D01*
X148635714Y-82826247D02*
X148635714Y-82445295D01*
X148635714Y-82445295D02*
X148588095Y-82350057D01*
X148588095Y-82350057D02*
X148540476Y-82302438D01*
X148540476Y-82302438D02*
X148445238Y-82254819D01*
X148445238Y-82254819D02*
X148254762Y-82254819D01*
X148254762Y-82254819D02*
X148159524Y-82302438D01*
X148159524Y-82302438D02*
X148111905Y-82350057D01*
X148111905Y-82350057D02*
X148064286Y-82445295D01*
X148064286Y-82445295D02*
X148064286Y-82683390D01*
X148064286Y-82683390D02*
X148111905Y-82778628D01*
X148111905Y-82778628D02*
X148159524Y-82826247D01*
X148159524Y-82826247D02*
X148254762Y-82873866D01*
X148254762Y-82873866D02*
X148445238Y-82873866D01*
X148445238Y-82873866D02*
X148540476Y-82826247D01*
X148540476Y-82826247D02*
X148588095Y-82778628D01*
X148588095Y-82778628D02*
X148635714Y-82683390D01*
X130047142Y-114339580D02*
X129999523Y-114387200D01*
X129999523Y-114387200D02*
X129856666Y-114434819D01*
X129856666Y-114434819D02*
X129761428Y-114434819D01*
X129761428Y-114434819D02*
X129618571Y-114387200D01*
X129618571Y-114387200D02*
X129523333Y-114291961D01*
X129523333Y-114291961D02*
X129475714Y-114196723D01*
X129475714Y-114196723D02*
X129428095Y-114006247D01*
X129428095Y-114006247D02*
X129428095Y-113863390D01*
X129428095Y-113863390D02*
X129475714Y-113672914D01*
X129475714Y-113672914D02*
X129523333Y-113577676D01*
X129523333Y-113577676D02*
X129618571Y-113482438D01*
X129618571Y-113482438D02*
X129761428Y-113434819D01*
X129761428Y-113434819D02*
X129856666Y-113434819D01*
X129856666Y-113434819D02*
X129999523Y-113482438D01*
X129999523Y-113482438D02*
X130047142Y-113530057D01*
X130999523Y-114434819D02*
X130428095Y-114434819D01*
X130713809Y-114434819D02*
X130713809Y-113434819D01*
X130713809Y-113434819D02*
X130618571Y-113577676D01*
X130618571Y-113577676D02*
X130523333Y-113672914D01*
X130523333Y-113672914D02*
X130428095Y-113720533D01*
X131332857Y-113434819D02*
X131999523Y-113434819D01*
X131999523Y-113434819D02*
X131570952Y-114434819D01*
X141995833Y-94804819D02*
X141662500Y-94328628D01*
X141424405Y-94804819D02*
X141424405Y-93804819D01*
X141424405Y-93804819D02*
X141805357Y-93804819D01*
X141805357Y-93804819D02*
X141900595Y-93852438D01*
X141900595Y-93852438D02*
X141948214Y-93900057D01*
X141948214Y-93900057D02*
X141995833Y-93995295D01*
X141995833Y-93995295D02*
X141995833Y-94138152D01*
X141995833Y-94138152D02*
X141948214Y-94233390D01*
X141948214Y-94233390D02*
X141900595Y-94281009D01*
X141900595Y-94281009D02*
X141805357Y-94328628D01*
X141805357Y-94328628D02*
X141424405Y-94328628D01*
X142376786Y-93900057D02*
X142424405Y-93852438D01*
X142424405Y-93852438D02*
X142519643Y-93804819D01*
X142519643Y-93804819D02*
X142757738Y-93804819D01*
X142757738Y-93804819D02*
X142852976Y-93852438D01*
X142852976Y-93852438D02*
X142900595Y-93900057D01*
X142900595Y-93900057D02*
X142948214Y-93995295D01*
X142948214Y-93995295D02*
X142948214Y-94090533D01*
X142948214Y-94090533D02*
X142900595Y-94233390D01*
X142900595Y-94233390D02*
X142329167Y-94804819D01*
X142329167Y-94804819D02*
X142948214Y-94804819D01*
X169444819Y-96012857D02*
X168968628Y-96346190D01*
X169444819Y-96584285D02*
X168444819Y-96584285D01*
X168444819Y-96584285D02*
X168444819Y-96203333D01*
X168444819Y-96203333D02*
X168492438Y-96108095D01*
X168492438Y-96108095D02*
X168540057Y-96060476D01*
X168540057Y-96060476D02*
X168635295Y-96012857D01*
X168635295Y-96012857D02*
X168778152Y-96012857D01*
X168778152Y-96012857D02*
X168873390Y-96060476D01*
X168873390Y-96060476D02*
X168921009Y-96108095D01*
X168921009Y-96108095D02*
X168968628Y-96203333D01*
X168968628Y-96203333D02*
X168968628Y-96584285D01*
X169444819Y-95060476D02*
X169444819Y-95631904D01*
X169444819Y-95346190D02*
X168444819Y-95346190D01*
X168444819Y-95346190D02*
X168587676Y-95441428D01*
X168587676Y-95441428D02*
X168682914Y-95536666D01*
X168682914Y-95536666D02*
X168730533Y-95631904D01*
X168444819Y-94441428D02*
X168444819Y-94346190D01*
X168444819Y-94346190D02*
X168492438Y-94250952D01*
X168492438Y-94250952D02*
X168540057Y-94203333D01*
X168540057Y-94203333D02*
X168635295Y-94155714D01*
X168635295Y-94155714D02*
X168825771Y-94108095D01*
X168825771Y-94108095D02*
X169063866Y-94108095D01*
X169063866Y-94108095D02*
X169254342Y-94155714D01*
X169254342Y-94155714D02*
X169349580Y-94203333D01*
X169349580Y-94203333D02*
X169397200Y-94250952D01*
X169397200Y-94250952D02*
X169444819Y-94346190D01*
X169444819Y-94346190D02*
X169444819Y-94441428D01*
X169444819Y-94441428D02*
X169397200Y-94536666D01*
X169397200Y-94536666D02*
X169349580Y-94584285D01*
X169349580Y-94584285D02*
X169254342Y-94631904D01*
X169254342Y-94631904D02*
X169063866Y-94679523D01*
X169063866Y-94679523D02*
X168825771Y-94679523D01*
X168825771Y-94679523D02*
X168635295Y-94631904D01*
X168635295Y-94631904D02*
X168540057Y-94584285D01*
X168540057Y-94584285D02*
X168492438Y-94536666D01*
X168492438Y-94536666D02*
X168444819Y-94441428D01*
X169234819Y-122342857D02*
X168758628Y-122676190D01*
X169234819Y-122914285D02*
X168234819Y-122914285D01*
X168234819Y-122914285D02*
X168234819Y-122533333D01*
X168234819Y-122533333D02*
X168282438Y-122438095D01*
X168282438Y-122438095D02*
X168330057Y-122390476D01*
X168330057Y-122390476D02*
X168425295Y-122342857D01*
X168425295Y-122342857D02*
X168568152Y-122342857D01*
X168568152Y-122342857D02*
X168663390Y-122390476D01*
X168663390Y-122390476D02*
X168711009Y-122438095D01*
X168711009Y-122438095D02*
X168758628Y-122533333D01*
X168758628Y-122533333D02*
X168758628Y-122914285D01*
X169234819Y-121390476D02*
X169234819Y-121961904D01*
X169234819Y-121676190D02*
X168234819Y-121676190D01*
X168234819Y-121676190D02*
X168377676Y-121771428D01*
X168377676Y-121771428D02*
X168472914Y-121866666D01*
X168472914Y-121866666D02*
X168520533Y-121961904D01*
X168330057Y-121009523D02*
X168282438Y-120961904D01*
X168282438Y-120961904D02*
X168234819Y-120866666D01*
X168234819Y-120866666D02*
X168234819Y-120628571D01*
X168234819Y-120628571D02*
X168282438Y-120533333D01*
X168282438Y-120533333D02*
X168330057Y-120485714D01*
X168330057Y-120485714D02*
X168425295Y-120438095D01*
X168425295Y-120438095D02*
X168520533Y-120438095D01*
X168520533Y-120438095D02*
X168663390Y-120485714D01*
X168663390Y-120485714D02*
X169234819Y-121057142D01*
X169234819Y-121057142D02*
X169234819Y-120438095D01*
X117499580Y-133022857D02*
X117547200Y-133070476D01*
X117547200Y-133070476D02*
X117594819Y-133213333D01*
X117594819Y-133213333D02*
X117594819Y-133308571D01*
X117594819Y-133308571D02*
X117547200Y-133451428D01*
X117547200Y-133451428D02*
X117451961Y-133546666D01*
X117451961Y-133546666D02*
X117356723Y-133594285D01*
X117356723Y-133594285D02*
X117166247Y-133641904D01*
X117166247Y-133641904D02*
X117023390Y-133641904D01*
X117023390Y-133641904D02*
X116832914Y-133594285D01*
X116832914Y-133594285D02*
X116737676Y-133546666D01*
X116737676Y-133546666D02*
X116642438Y-133451428D01*
X116642438Y-133451428D02*
X116594819Y-133308571D01*
X116594819Y-133308571D02*
X116594819Y-133213333D01*
X116594819Y-133213333D02*
X116642438Y-133070476D01*
X116642438Y-133070476D02*
X116690057Y-133022857D01*
X116690057Y-132641904D02*
X116642438Y-132594285D01*
X116642438Y-132594285D02*
X116594819Y-132499047D01*
X116594819Y-132499047D02*
X116594819Y-132260952D01*
X116594819Y-132260952D02*
X116642438Y-132165714D01*
X116642438Y-132165714D02*
X116690057Y-132118095D01*
X116690057Y-132118095D02*
X116785295Y-132070476D01*
X116785295Y-132070476D02*
X116880533Y-132070476D01*
X116880533Y-132070476D02*
X117023390Y-132118095D01*
X117023390Y-132118095D02*
X117594819Y-132689523D01*
X117594819Y-132689523D02*
X117594819Y-132070476D01*
X116690057Y-131689523D02*
X116642438Y-131641904D01*
X116642438Y-131641904D02*
X116594819Y-131546666D01*
X116594819Y-131546666D02*
X116594819Y-131308571D01*
X116594819Y-131308571D02*
X116642438Y-131213333D01*
X116642438Y-131213333D02*
X116690057Y-131165714D01*
X116690057Y-131165714D02*
X116785295Y-131118095D01*
X116785295Y-131118095D02*
X116880533Y-131118095D01*
X116880533Y-131118095D02*
X117023390Y-131165714D01*
X117023390Y-131165714D02*
X117594819Y-131737142D01*
X117594819Y-131737142D02*
X117594819Y-131118095D01*
X146303333Y-87989580D02*
X146255714Y-88037200D01*
X146255714Y-88037200D02*
X146112857Y-88084819D01*
X146112857Y-88084819D02*
X146017619Y-88084819D01*
X146017619Y-88084819D02*
X145874762Y-88037200D01*
X145874762Y-88037200D02*
X145779524Y-87941961D01*
X145779524Y-87941961D02*
X145731905Y-87846723D01*
X145731905Y-87846723D02*
X145684286Y-87656247D01*
X145684286Y-87656247D02*
X145684286Y-87513390D01*
X145684286Y-87513390D02*
X145731905Y-87322914D01*
X145731905Y-87322914D02*
X145779524Y-87227676D01*
X145779524Y-87227676D02*
X145874762Y-87132438D01*
X145874762Y-87132438D02*
X146017619Y-87084819D01*
X146017619Y-87084819D02*
X146112857Y-87084819D01*
X146112857Y-87084819D02*
X146255714Y-87132438D01*
X146255714Y-87132438D02*
X146303333Y-87180057D01*
X147208095Y-87084819D02*
X146731905Y-87084819D01*
X146731905Y-87084819D02*
X146684286Y-87561009D01*
X146684286Y-87561009D02*
X146731905Y-87513390D01*
X146731905Y-87513390D02*
X146827143Y-87465771D01*
X146827143Y-87465771D02*
X147065238Y-87465771D01*
X147065238Y-87465771D02*
X147160476Y-87513390D01*
X147160476Y-87513390D02*
X147208095Y-87561009D01*
X147208095Y-87561009D02*
X147255714Y-87656247D01*
X147255714Y-87656247D02*
X147255714Y-87894342D01*
X147255714Y-87894342D02*
X147208095Y-87989580D01*
X147208095Y-87989580D02*
X147160476Y-88037200D01*
X147160476Y-88037200D02*
X147065238Y-88084819D01*
X147065238Y-88084819D02*
X146827143Y-88084819D01*
X146827143Y-88084819D02*
X146731905Y-88037200D01*
X146731905Y-88037200D02*
X146684286Y-87989580D01*
%TO.C,C8*%
D12*
X150065000Y-90841252D02*
X150065000Y-90318748D01*
X151535000Y-90841252D02*
X151535000Y-90318748D01*
%TO.C,R14*%
X166687500Y-114092258D02*
X166687500Y-113617742D01*
X167732500Y-114092258D02*
X167732500Y-113617742D01*
%TO.C,C20*%
X122202836Y-130240000D02*
X121987164Y-130240000D01*
X122202836Y-130960000D02*
X121987164Y-130960000D01*
%TO.C,J3*%
D13*
X142757800Y-130224649D02*
X142757800Y-133595351D01*
X144704649Y-135542200D02*
X148075351Y-135542200D01*
X148075351Y-128277800D02*
X144704649Y-128277800D01*
X150022200Y-133595351D02*
X150022200Y-130224649D01*
%TO.C,C6*%
D12*
X141888748Y-89925000D02*
X142411252Y-89925000D01*
X141888748Y-91395000D02*
X142411252Y-91395000D01*
%TO.C,C32*%
X126925580Y-89180000D02*
X126644420Y-89180000D01*
X126925580Y-90200000D02*
X126644420Y-90200000D01*
%TO.C,R3*%
X149707500Y-85932258D02*
X149707500Y-85457742D01*
X150752500Y-85932258D02*
X150752500Y-85457742D01*
%TO.C,C16*%
X125986252Y-120090000D02*
X125463748Y-120090000D01*
X125986252Y-121560000D02*
X125463748Y-121560000D01*
%TO.C,C27*%
X172658748Y-118845000D02*
X173181252Y-118845000D01*
X172658748Y-120315000D02*
X173181252Y-120315000D01*
%TO.C,C3*%
X141928748Y-96945000D02*
X142451252Y-96945000D01*
X141928748Y-98415000D02*
X142451252Y-98415000D01*
%TO.C,R19*%
X138677500Y-132512742D02*
X138677500Y-132987258D01*
X139722500Y-132512742D02*
X139722500Y-132987258D01*
%TO.C,R17*%
X131127500Y-132512742D02*
X131127500Y-132987258D01*
X132172500Y-132512742D02*
X132172500Y-132987258D01*
%TO.C,R5*%
X130315436Y-117175000D02*
X130769564Y-117175000D01*
X130315436Y-118645000D02*
X130769564Y-118645000D01*
%TO.C,C29*%
X119154420Y-115320000D02*
X119435580Y-115320000D01*
X119154420Y-116340000D02*
X119435580Y-116340000D01*
%TO.C,R13*%
X169727500Y-117837258D02*
X169727500Y-117362742D01*
X170772500Y-117837258D02*
X170772500Y-117362742D01*
%TO.C,L1*%
X151650000Y-85812500D02*
X151650000Y-84812500D01*
X156670000Y-85812500D02*
X156670000Y-84812500D01*
%TO.C,C7*%
X138018748Y-91135000D02*
X138541252Y-91135000D01*
X138018748Y-92605000D02*
X138541252Y-92605000D01*
%TO.C,C23*%
X118490000Y-133661252D02*
X118490000Y-133138748D01*
X119960000Y-133661252D02*
X119960000Y-133138748D01*
%TO.C,C19*%
X127940000Y-117457836D02*
X127940000Y-117242164D01*
X128660000Y-117457836D02*
X128660000Y-117242164D01*
%TO.C,U2*%
D13*
X144871400Y-91656401D02*
X144871400Y-92080261D01*
X144871400Y-95499741D02*
X144871400Y-95923601D01*
X144871400Y-95923601D02*
X145295260Y-95923601D01*
X145295260Y-91656401D02*
X144871400Y-91656401D01*
X148714740Y-95923601D02*
X149138600Y-95923601D01*
X149138600Y-91656401D02*
X148714740Y-91656401D01*
X149138600Y-92080261D02*
X149138600Y-91656401D01*
X149138600Y-95923601D02*
X149138600Y-95499741D01*
D14*
G36*
X147445500Y-96609401D02*
G01*
X147064499Y-96609401D01*
X147064499Y-96355401D01*
X147445500Y-96355401D01*
X147445500Y-96609401D01*
G37*
G36*
X147945501Y-91224601D02*
G01*
X147564501Y-91224601D01*
X147564501Y-90970601D01*
X147945501Y-90970601D01*
X147945501Y-91224601D01*
G37*
%TO.C,C26*%
D12*
X167686252Y-98640000D02*
X167163748Y-98640000D01*
X167686252Y-100110000D02*
X167163748Y-100110000D01*
%TO.C,J4*%
D13*
X117344399Y-79640000D02*
X117344399Y-85667681D01*
X117344399Y-86672319D02*
X117344399Y-88657000D01*
X117344399Y-88657000D02*
X130755599Y-88657000D01*
X130755599Y-79640000D02*
X117344399Y-79640000D01*
X130755599Y-85667681D02*
X130755599Y-79640000D01*
X130755599Y-88657000D02*
X130755599Y-86672319D01*
D15*
X116836399Y-82230000D02*
G75*
G02*
X116074399Y-82230000I-381000J0D01*
G01*
X116074399Y-82230000D02*
G75*
G02*
X116836399Y-82230000I381000J0D01*
G01*
%TO.C,C13*%
D12*
X157141252Y-90865000D02*
X156618748Y-90865000D01*
X157141252Y-92335000D02*
X156618748Y-92335000D01*
%TO.C,C2*%
X128380000Y-102917836D02*
X128380000Y-102702164D01*
X129100000Y-102917836D02*
X129100000Y-102702164D01*
%TO.C,L2*%
X152190000Y-90912779D02*
X152190000Y-90587221D01*
X153210000Y-90912779D02*
X153210000Y-90587221D01*
%TO.C,C24*%
X121190000Y-133661252D02*
X121190000Y-133138748D01*
X122660000Y-133661252D02*
X122660000Y-133138748D01*
%TO.C,C1*%
X128357836Y-94950000D02*
X128142164Y-94950000D01*
X128357836Y-95670000D02*
X128142164Y-95670000D01*
%TO.C,R8*%
X160452500Y-92217742D02*
X160452500Y-92692258D01*
X161497500Y-92217742D02*
X161497500Y-92692258D01*
%TO.C,R15*%
X165027500Y-109262742D02*
X165027500Y-109737258D01*
X166072500Y-109262742D02*
X166072500Y-109737258D01*
%TO.C,C12*%
X151405000Y-78478748D02*
X151405000Y-79001252D01*
X152875000Y-78478748D02*
X152875000Y-79001252D01*
%TO.C,TP4*%
X165425000Y-124475000D02*
X169225000Y-124475000D01*
X169225000Y-126675000D01*
X165425000Y-126675000D01*
X165425000Y-124475000D01*
%TO.C,R6*%
X122087258Y-128652500D02*
X121612742Y-128652500D01*
X122087258Y-129697500D02*
X121612742Y-129697500D01*
%TO.C,C21*%
X125990000Y-127061252D02*
X125990000Y-126538748D01*
X127460000Y-127061252D02*
X127460000Y-126538748D01*
%TO.C,R1*%
X131715000Y-98687936D02*
X131715000Y-99142064D01*
X133185000Y-98687936D02*
X133185000Y-99142064D01*
%TO.C,C34*%
X119125580Y-77900000D02*
X118844420Y-77900000D01*
X119125580Y-78920000D02*
X118844420Y-78920000D01*
%TO.C,J1*%
D13*
X117327800Y-98774649D02*
X117327800Y-102145351D01*
X119274649Y-104092200D02*
X122645351Y-104092200D01*
X122645351Y-96827800D02*
X119274649Y-96827800D01*
X124592200Y-102145351D02*
X124592200Y-98774649D01*
%TO.C,L4*%
D12*
X126047779Y-123690000D02*
X125722221Y-123690000D01*
X126047779Y-124710000D02*
X125722221Y-124710000D01*
%TO.C,TP2*%
X134390000Y-80860000D02*
X136590000Y-80860000D01*
X136590000Y-84660000D01*
X134390000Y-84660000D01*
X134390000Y-80860000D01*
%TO.C,C15*%
X122705000Y-112038748D02*
X122705000Y-112561252D01*
X124175000Y-112038748D02*
X124175000Y-112561252D01*
D14*
%TO.C,G\u002A\u002A\u002A*%
G36*
X152205711Y-143016312D02*
G01*
X152228706Y-143033367D01*
X152248448Y-143068156D01*
X152242175Y-143099698D01*
X152221248Y-143120284D01*
X152179480Y-143138939D01*
X152141914Y-143132083D01*
X152119050Y-143114459D01*
X152096148Y-143081667D01*
X152098795Y-143053067D01*
X152121974Y-143029793D01*
X152165488Y-143011249D01*
X152205711Y-143016312D01*
G37*
G36*
X152625793Y-141306720D02*
G01*
X152659730Y-141324474D01*
X152673970Y-141351106D01*
X152670059Y-141380025D01*
X152649546Y-141404639D01*
X152613980Y-141418360D01*
X152599328Y-141419373D01*
X152562724Y-141413012D01*
X152547513Y-141398588D01*
X152541188Y-141355041D01*
X152555811Y-141322273D01*
X152587282Y-141305092D01*
X152625793Y-141306720D01*
G37*
G36*
X152634472Y-142583785D02*
G01*
X152660146Y-142607767D01*
X152668781Y-142634436D01*
X152662105Y-142670550D01*
X152638247Y-142696596D01*
X152605143Y-142708594D01*
X152570728Y-142702565D01*
X152555305Y-142691345D01*
X152540642Y-142660185D01*
X152546040Y-142623566D01*
X152566215Y-142595061D01*
X152600420Y-142578497D01*
X152634472Y-142583785D01*
G37*
G36*
X153067252Y-141310442D02*
G01*
X153091508Y-141330056D01*
X153100253Y-141357541D01*
X153088564Y-141388526D01*
X153084003Y-141394035D01*
X153049390Y-141415649D01*
X153010330Y-141415959D01*
X152980672Y-141398725D01*
X152961895Y-141366228D01*
X152966260Y-141334875D01*
X152991905Y-141312302D01*
X153032409Y-141303067D01*
X153067252Y-141310442D01*
G37*
G36*
X153921208Y-141752961D02*
G01*
X153932381Y-141785476D01*
X153932398Y-141787087D01*
X153921832Y-141824477D01*
X153894882Y-141846957D01*
X153858663Y-141851375D01*
X153822090Y-141835927D01*
X153804056Y-141810068D01*
X153802133Y-141778189D01*
X153814652Y-141750387D01*
X153838468Y-141736934D01*
X153889714Y-141736679D01*
X153921208Y-141752961D01*
G37*
G36*
X154316906Y-141738002D02*
G01*
X154341221Y-141765781D01*
X154351188Y-141798702D01*
X154344988Y-141823321D01*
X154317313Y-141846735D01*
X154282650Y-141849756D01*
X154250265Y-141832639D01*
X154240151Y-141820405D01*
X154226147Y-141782733D01*
X154231645Y-141749779D01*
X154253621Y-141728254D01*
X154283594Y-141724021D01*
X154316906Y-141738002D01*
G37*
G36*
X154320035Y-141308033D02*
G01*
X154346070Y-141330983D01*
X154352884Y-141360243D01*
X154342116Y-141393926D01*
X154315652Y-141416914D01*
X154282246Y-141424366D01*
X154254575Y-141414606D01*
X154238154Y-141388250D01*
X154236873Y-141353092D01*
X154243172Y-141321448D01*
X154258608Y-141307385D01*
X154278122Y-141303447D01*
X154320035Y-141308033D01*
G37*
G36*
X154327128Y-139186274D02*
G01*
X154348353Y-139213991D01*
X154352884Y-139237357D01*
X154342725Y-139276085D01*
X154316768Y-139297943D01*
X154281796Y-139299486D01*
X154255717Y-139286729D01*
X154239194Y-139260468D01*
X154237734Y-139225251D01*
X154250495Y-139193041D01*
X154263167Y-139181006D01*
X154295964Y-139173540D01*
X154327128Y-139186274D01*
G37*
G36*
X154746897Y-141310346D02*
G01*
X154769569Y-141336908D01*
X154773370Y-141360243D01*
X154766254Y-141390397D01*
X154757602Y-141403605D01*
X154729370Y-141417313D01*
X154695796Y-141416762D01*
X154671622Y-141402948D01*
X154652310Y-141364785D01*
X154653962Y-141331227D01*
X154674627Y-141308134D01*
X154705503Y-141301112D01*
X154746897Y-141310346D01*
G37*
G36*
X152634197Y-140466300D02*
G01*
X152662615Y-140485696D01*
X152670939Y-140512700D01*
X152659545Y-140542315D01*
X152631594Y-140563357D01*
X152596428Y-140571698D01*
X152563392Y-140563212D01*
X152560716Y-140561389D01*
X152542486Y-140532409D01*
X152541695Y-140505482D01*
X152548808Y-140478060D01*
X152567498Y-140465939D01*
X152589671Y-140462528D01*
X152634197Y-140466300D01*
G37*
G36*
X152637197Y-140888905D02*
G01*
X152662127Y-140900312D01*
X152668637Y-140911230D01*
X152667957Y-140958538D01*
X152647120Y-140990505D01*
X152609137Y-141004202D01*
X152575681Y-141001718D01*
X152555038Y-140985825D01*
X152543068Y-140955663D01*
X152543049Y-140922681D01*
X152548889Y-140908157D01*
X152570572Y-140892571D01*
X152603343Y-140886239D01*
X152637197Y-140888905D01*
G37*
G36*
X152643621Y-143022625D02*
G01*
X152664706Y-143045437D01*
X152670807Y-143074956D01*
X152657951Y-143105444D01*
X152641735Y-143120284D01*
X152609789Y-143137657D01*
X152582695Y-143136399D01*
X152562532Y-143126547D01*
X152542459Y-143101864D01*
X152539279Y-143068433D01*
X152552019Y-143036778D01*
X152572387Y-143020087D01*
X152611524Y-143012262D01*
X152643621Y-143022625D01*
G37*
G36*
X152644956Y-139182806D02*
G01*
X152664995Y-139207604D01*
X152668150Y-139219828D01*
X152662223Y-139254731D01*
X152638642Y-139281874D01*
X152605516Y-139296203D01*
X152570953Y-139292666D01*
X152560716Y-139286790D01*
X152542490Y-139257832D01*
X152541695Y-139231125D01*
X152555412Y-139198309D01*
X152582382Y-139178853D01*
X152614824Y-139173454D01*
X152644956Y-139182806D01*
G37*
G36*
X152645324Y-142151553D02*
G01*
X152666952Y-142179716D01*
X152670939Y-142207785D01*
X152661470Y-142247872D01*
X152633307Y-142269499D01*
X152605238Y-142273486D01*
X152573193Y-142267750D01*
X152555305Y-142257718D01*
X152543163Y-142233147D01*
X152539537Y-142207785D01*
X152549005Y-142167699D01*
X152577169Y-142146071D01*
X152605238Y-142142084D01*
X152645324Y-142151553D01*
G37*
G36*
X153054870Y-139164670D02*
G01*
X153080557Y-139184611D01*
X153091395Y-139221483D01*
X153091425Y-139223814D01*
X153080476Y-139262251D01*
X153052845Y-139288733D01*
X153016352Y-139298520D01*
X152983018Y-139289502D01*
X152963984Y-139265252D01*
X152962294Y-139230853D01*
X152977654Y-139195639D01*
X152986303Y-139185540D01*
X153021172Y-139164150D01*
X153054870Y-139164670D01*
G37*
G36*
X153059858Y-142589079D02*
G01*
X153086831Y-142611515D01*
X153098588Y-142642261D01*
X153095215Y-142663489D01*
X153077727Y-142680054D01*
X153046366Y-142693137D01*
X153013525Y-142698456D01*
X152999444Y-142696562D01*
X152971960Y-142676143D01*
X152960233Y-142644640D01*
X152965344Y-142611896D01*
X152987527Y-142588196D01*
X153024485Y-142579717D01*
X153059858Y-142589079D01*
G37*
G36*
X153060069Y-142161074D02*
G01*
X153082989Y-142186585D01*
X153092058Y-142218209D01*
X153082362Y-142249773D01*
X153075657Y-142257718D01*
X153046539Y-142271903D01*
X153011053Y-142271560D01*
X152981491Y-142257851D01*
X152973626Y-142248070D01*
X152960382Y-142205160D01*
X152969532Y-142171202D01*
X152992335Y-142153079D01*
X153028213Y-142147848D01*
X153060069Y-142161074D01*
G37*
G36*
X153064272Y-139601684D02*
G01*
X153086690Y-139628516D01*
X153091425Y-139659606D01*
X153080213Y-139698306D01*
X153050651Y-139723042D01*
X153008850Y-139729463D01*
X152996168Y-139727471D01*
X152974581Y-139710786D01*
X152963668Y-139678679D01*
X152965734Y-139640642D01*
X152971214Y-139624768D01*
X152993137Y-139599035D01*
X153022814Y-139592886D01*
X153064272Y-139601684D01*
G37*
G36*
X153068330Y-143024339D02*
G01*
X153087597Y-143044510D01*
X153098920Y-143067295D01*
X153092816Y-143085517D01*
X153079248Y-143100355D01*
X153043986Y-143122281D01*
X153005938Y-143126232D01*
X152975791Y-143111831D01*
X152961180Y-143081688D01*
X152964943Y-143047988D01*
X152985564Y-143022909D01*
X152986981Y-143022115D01*
X153029894Y-143011453D01*
X153068330Y-143024339D01*
G37*
G36*
X153079816Y-141745255D02*
G01*
X153096810Y-141773707D01*
X153093850Y-141808322D01*
X153090916Y-141814531D01*
X153067581Y-141834805D01*
X153033731Y-141841496D01*
X152999959Y-141834943D01*
X152976857Y-141815490D01*
X152974701Y-141810784D01*
X152968539Y-141769250D01*
X152984024Y-141740323D01*
X153007525Y-141728963D01*
X153048257Y-141728496D01*
X153079816Y-141745255D01*
G37*
G36*
X153475260Y-141315970D02*
G01*
X153502117Y-141328614D01*
X153511402Y-141339580D01*
X153518523Y-141372968D01*
X153508157Y-141403169D01*
X153486166Y-141425122D01*
X153458414Y-141433765D01*
X153430763Y-141424037D01*
X153422787Y-141416088D01*
X153406779Y-141379496D01*
X153405233Y-141337247D01*
X153417220Y-141320076D01*
X153443762Y-141313054D01*
X153475260Y-141315970D01*
G37*
G36*
X153491169Y-139176274D02*
G01*
X153513626Y-139203053D01*
X153520092Y-139238073D01*
X153512177Y-139263885D01*
X153488741Y-139283348D01*
X153453073Y-139290942D01*
X153416733Y-139285960D01*
X153393791Y-139271122D01*
X153383652Y-139240824D01*
X153391268Y-139205670D01*
X153413522Y-139176774D01*
X153421747Y-139171427D01*
X153458588Y-139163733D01*
X153491169Y-139176274D01*
G37*
G36*
X153498399Y-141750026D02*
G01*
X153503689Y-141754674D01*
X153523235Y-141786364D01*
X153516634Y-141817386D01*
X153504403Y-141832351D01*
X153469967Y-141851185D01*
X153432307Y-141845157D01*
X153405827Y-141825756D01*
X153387820Y-141803829D01*
X153388447Y-141785399D01*
X153397462Y-141769911D01*
X153426967Y-141744812D01*
X153464127Y-141737680D01*
X153498399Y-141750026D01*
G37*
G36*
X153907356Y-140035522D02*
G01*
X153934326Y-140058318D01*
X153944263Y-140088555D01*
X153934300Y-140119887D01*
X153916334Y-140137459D01*
X153874027Y-140156249D01*
X153837192Y-140149394D01*
X153821644Y-140137266D01*
X153802972Y-140103664D01*
X153805275Y-140068692D01*
X153825318Y-140040388D01*
X153859867Y-140026788D01*
X153866220Y-140026513D01*
X153907356Y-140035522D01*
G37*
G36*
X154314428Y-140884879D02*
G01*
X154340647Y-140903740D01*
X154352756Y-140936639D01*
X154352884Y-140940903D01*
X154341732Y-140971169D01*
X154314337Y-140991459D01*
X154279790Y-140998788D01*
X154247179Y-140990169D01*
X154234989Y-140979619D01*
X154225627Y-140951255D01*
X154231108Y-140923773D01*
X154251660Y-140893770D01*
X154282099Y-140881180D01*
X154314428Y-140884879D01*
G37*
G36*
X154329818Y-140037111D02*
G01*
X154349572Y-140067598D01*
X154352884Y-140094379D01*
X154342423Y-140128481D01*
X154316670Y-140150848D01*
X154284066Y-140157546D01*
X154253053Y-140144641D01*
X154250390Y-140142146D01*
X154238248Y-140117575D01*
X154234622Y-140092214D01*
X154244251Y-140052017D01*
X154271546Y-140029956D01*
X154293753Y-140026513D01*
X154329818Y-140037111D01*
G37*
G36*
X154345067Y-139615231D02*
G01*
X154363660Y-139644869D01*
X154364218Y-139680169D01*
X154356773Y-139696756D01*
X154332779Y-139714057D01*
X154296284Y-139721627D01*
X154259425Y-139718617D01*
X154235183Y-139705254D01*
X154227126Y-139677578D01*
X154234778Y-139643291D01*
X154254079Y-139613102D01*
X154275456Y-139599008D01*
X154313858Y-139597772D01*
X154345067Y-139615231D01*
G37*
G36*
X154732062Y-140020156D02*
G01*
X154763592Y-140040281D01*
X154783497Y-140072736D01*
X154786510Y-140092054D01*
X154775758Y-140129470D01*
X154747504Y-140151770D01*
X154707752Y-140155594D01*
X154684523Y-140149162D01*
X154659925Y-140127301D01*
X154651186Y-140094137D01*
X154657435Y-140058636D01*
X154677802Y-140029759D01*
X154697166Y-140019105D01*
X154732062Y-140020156D01*
G37*
G36*
X154747278Y-140888783D02*
G01*
X154754629Y-140891816D01*
X154780692Y-140914458D01*
X154783997Y-140943786D01*
X154764333Y-140972983D01*
X154757306Y-140978432D01*
X154717250Y-140996996D01*
X154683054Y-140990782D01*
X154662531Y-140973548D01*
X154646719Y-140942399D01*
X154652212Y-140913978D01*
X154674086Y-140892655D01*
X154707416Y-140882800D01*
X154747278Y-140888783D01*
G37*
G36*
X155182808Y-140465505D02*
G01*
X155203093Y-140493346D01*
X155206600Y-140530207D01*
X155202586Y-140544661D01*
X155181781Y-140569139D01*
X155149972Y-140582409D01*
X155128155Y-140581225D01*
X155101535Y-140560404D01*
X155088753Y-140527346D01*
X155090845Y-140491978D01*
X155108844Y-140464226D01*
X155115512Y-140459873D01*
X155151646Y-140452431D01*
X155182808Y-140465505D01*
G37*
G36*
X155182899Y-140045626D02*
G01*
X155202354Y-140075519D01*
X155202505Y-140076107D01*
X155202367Y-140116557D01*
X155183321Y-140144490D01*
X155151442Y-140155360D01*
X155112811Y-140144623D01*
X155111730Y-140143990D01*
X155093438Y-140120064D01*
X155089069Y-140086357D01*
X155098489Y-140054885D01*
X155112891Y-140040790D01*
X155150071Y-140032865D01*
X155182899Y-140045626D01*
G37*
G36*
X152218212Y-140027304D02*
G01*
X152244215Y-140046257D01*
X152257890Y-140073115D01*
X152253972Y-140102922D01*
X152241973Y-140119210D01*
X152207356Y-140142796D01*
X152170413Y-140152691D01*
X152140560Y-140146814D01*
X152135430Y-140142758D01*
X152119819Y-140110755D01*
X152122335Y-140072721D01*
X152141435Y-140040058D01*
X152150287Y-140032932D01*
X152185148Y-140021211D01*
X152218212Y-140027304D01*
G37*
G36*
X152219260Y-139175693D02*
G01*
X152246456Y-139192557D01*
X152250321Y-139198435D01*
X152258814Y-139237816D01*
X152244011Y-139272101D01*
X152215622Y-139291414D01*
X152188228Y-139300504D01*
X152167177Y-139300650D01*
X152143394Y-139295004D01*
X152121096Y-139277341D01*
X152114453Y-139245443D01*
X152124158Y-139209645D01*
X152148178Y-139185120D01*
X152183190Y-139173508D01*
X152219260Y-139175693D01*
G37*
G36*
X152221415Y-142583827D02*
G01*
X152244952Y-142608942D01*
X152250452Y-142641412D01*
X152241525Y-142680715D01*
X152213898Y-142702112D01*
X152178181Y-142707113D01*
X152144157Y-142702305D01*
X152121678Y-142691345D01*
X152108499Y-142662885D01*
X152107494Y-142625853D01*
X152118664Y-142594965D01*
X152121678Y-142591479D01*
X152145408Y-142580169D01*
X152178181Y-142575711D01*
X152221415Y-142583827D01*
G37*
G36*
X152234388Y-140467454D02*
G01*
X152259082Y-140492932D01*
X152258570Y-140518960D01*
X152232681Y-140548187D01*
X152228970Y-140551167D01*
X152186672Y-140574398D01*
X152149642Y-140575856D01*
X152122303Y-140555740D01*
X152116905Y-140546089D01*
X152109292Y-140516186D01*
X152119770Y-140487208D01*
X152124060Y-140480388D01*
X152155126Y-140452898D01*
X152194320Y-140449264D01*
X152234388Y-140467454D01*
G37*
G36*
X152643581Y-139602819D02*
G01*
X152666330Y-139627636D01*
X152671026Y-139659867D01*
X152655212Y-139692043D01*
X152641735Y-139703833D01*
X152607305Y-139719735D01*
X152572263Y-139724007D01*
X152548297Y-139715528D01*
X152540647Y-139693618D01*
X152540244Y-139659584D01*
X152546243Y-139626305D01*
X152555305Y-139608654D01*
X152579876Y-139596512D01*
X152605238Y-139592886D01*
X152643581Y-139602819D01*
G37*
G36*
X153076116Y-140468658D02*
G01*
X153100027Y-140493841D01*
X153104565Y-140519270D01*
X153097449Y-140549424D01*
X153088797Y-140562633D01*
X153059370Y-140576203D01*
X153021052Y-140576158D01*
X152987060Y-140563095D01*
X152980672Y-140557752D01*
X152960761Y-140524549D01*
X152963996Y-140493540D01*
X152987455Y-140470250D01*
X153028216Y-140460205D01*
X153032294Y-140460139D01*
X153076116Y-140468658D01*
G37*
G36*
X153483679Y-140035610D02*
G01*
X153510000Y-140058382D01*
X153523218Y-140088050D01*
X153520786Y-140117835D01*
X153500158Y-140140957D01*
X153491346Y-140145100D01*
X153461431Y-140155043D01*
X153439685Y-140154833D01*
X153410075Y-140144365D01*
X153386224Y-140124330D01*
X153380509Y-140095265D01*
X153389306Y-140053697D01*
X153416088Y-140031219D01*
X153446802Y-140026513D01*
X153483679Y-140035610D01*
G37*
G36*
X153905143Y-139604447D02*
G01*
X153932633Y-139626688D01*
X153945380Y-139657892D01*
X153945538Y-139661968D01*
X153934137Y-139692268D01*
X153905846Y-139714153D01*
X153869538Y-139724415D01*
X153834080Y-139719850D01*
X153816764Y-139708520D01*
X153802244Y-139676867D01*
X153806938Y-139635945D01*
X153814598Y-139618303D01*
X153838087Y-139597573D01*
X153870948Y-139593848D01*
X153905143Y-139604447D01*
G37*
G36*
X154309736Y-140456625D02*
G01*
X154339230Y-140476962D01*
X154351938Y-140507319D01*
X154348847Y-140539669D01*
X154330943Y-140565989D01*
X154299212Y-140578254D01*
X154294772Y-140578401D01*
X154264337Y-140571541D01*
X154250390Y-140562633D01*
X154236975Y-140533885D01*
X154236544Y-140497046D01*
X154248619Y-140466022D01*
X154253891Y-140460506D01*
X154282254Y-140451144D01*
X154309736Y-140456625D01*
G37*
G36*
X154742974Y-139603273D02*
G01*
X154770942Y-139627987D01*
X154785957Y-139657361D01*
X154786510Y-139663274D01*
X154776133Y-139700663D01*
X154746283Y-139721005D01*
X154720809Y-139724288D01*
X154688765Y-139718552D01*
X154670877Y-139708520D01*
X154657118Y-139679385D01*
X154659799Y-139644428D01*
X154675565Y-139613028D01*
X154701059Y-139594562D01*
X154712254Y-139592886D01*
X154742974Y-139603273D01*
G37*
G36*
X152221184Y-141309083D02*
G01*
X152244621Y-141334080D01*
X152250452Y-141368978D01*
X152239147Y-141402751D01*
X152209635Y-141425039D01*
X152168526Y-141433014D01*
X152122426Y-141423848D01*
X152122335Y-141423811D01*
X152110591Y-141406848D01*
X152106368Y-141375993D01*
X152109737Y-141342554D01*
X152120767Y-141317843D01*
X152121678Y-141316880D01*
X152145408Y-141305570D01*
X152178181Y-141301112D01*
X152221184Y-141309083D01*
G37*
G36*
X152638963Y-140035459D02*
G01*
X152665279Y-140057984D01*
X152673715Y-140087618D01*
X152662735Y-140117890D01*
X152630801Y-140142330D01*
X152624445Y-140144966D01*
X152582739Y-140156565D01*
X152556218Y-140151533D01*
X152538789Y-140128664D01*
X152538473Y-140127977D01*
X152532045Y-140086707D01*
X152538429Y-140062276D01*
X152553572Y-140036749D01*
X152578868Y-140027275D01*
X152596306Y-140026513D01*
X152638963Y-140035459D01*
G37*
G36*
X152641857Y-141742653D02*
G01*
X152659904Y-141749813D01*
X152667065Y-141767478D01*
X152668781Y-141780081D01*
X152662292Y-141815871D01*
X152639029Y-141841816D01*
X152606784Y-141854271D01*
X152573348Y-141849592D01*
X152553336Y-141834084D01*
X152543043Y-141807547D01*
X152541872Y-141778238D01*
X152546733Y-141755435D01*
X152559463Y-141744662D01*
X152587707Y-141741465D01*
X152605238Y-141741308D01*
X152641857Y-141742653D01*
G37*
G36*
X153490671Y-139601399D02*
G01*
X153493159Y-139602943D01*
X153514689Y-139630655D01*
X153516913Y-139664476D01*
X153502746Y-139696480D01*
X153475103Y-139718742D01*
X153448535Y-139724288D01*
X153415794Y-139718919D01*
X153396278Y-139708520D01*
X153383098Y-139680061D01*
X153382093Y-139643029D01*
X153393263Y-139612141D01*
X153396278Y-139608654D01*
X153422973Y-139596353D01*
X153459444Y-139593639D01*
X153490671Y-139601399D01*
G37*
G36*
X153900862Y-139169309D02*
G01*
X153925138Y-139192665D01*
X153942417Y-139219138D01*
X153945538Y-139231531D01*
X153934908Y-139258564D01*
X153909744Y-139285240D01*
X153880132Y-139302008D01*
X153869208Y-139303802D01*
X153839300Y-139296247D01*
X153821663Y-139286416D01*
X153804926Y-139260436D01*
X153806006Y-139226924D01*
X153821385Y-139193691D01*
X153847542Y-139168545D01*
X153878973Y-139159260D01*
X153900862Y-139169309D01*
G37*
G36*
X155174415Y-140885480D02*
G01*
X155198861Y-140907556D01*
X155205050Y-140945459D01*
X155201593Y-140966066D01*
X155188228Y-140991230D01*
X155160381Y-140998843D01*
X155156814Y-140998887D01*
X155124057Y-140993526D01*
X155104503Y-140983119D01*
X155092682Y-140958873D01*
X155088735Y-140930809D01*
X155095066Y-140901202D01*
X155118361Y-140886880D01*
X155121556Y-140886029D01*
X155154533Y-140882491D01*
X155174415Y-140885480D01*
G37*
G36*
X152192503Y-141727727D02*
G01*
X152230409Y-141739764D01*
X152245915Y-141749565D01*
X152262250Y-141777595D01*
X152256088Y-141810386D01*
X152239563Y-141831253D01*
X152212901Y-141844589D01*
X152175625Y-141852098D01*
X152139256Y-141852583D01*
X152115316Y-141844846D01*
X152114670Y-141844240D01*
X152106509Y-141821314D01*
X152106868Y-141786685D01*
X152114476Y-141753036D01*
X152125653Y-141734711D01*
X152153593Y-141725550D01*
X152192503Y-141727727D01*
G37*
G36*
X152224978Y-139605501D02*
G01*
X152245091Y-139625737D01*
X152258994Y-139651455D01*
X152256745Y-139671676D01*
X152245091Y-139691438D01*
X152218142Y-139717136D01*
X152180068Y-139724288D01*
X152147707Y-139721868D01*
X152128340Y-139715995D01*
X152127811Y-139715528D01*
X152119978Y-139692932D01*
X152120869Y-139658291D01*
X152129859Y-139624125D01*
X152132653Y-139618303D01*
X152156905Y-139596817D01*
X152190824Y-139592758D01*
X152224978Y-139605501D01*
G37*
G36*
X152226174Y-140890496D02*
G01*
X152242944Y-140901274D01*
X152261786Y-140931233D01*
X152254910Y-140960053D01*
X152239563Y-140977140D01*
X152212901Y-140990476D01*
X152175625Y-140997985D01*
X152139256Y-140998470D01*
X152115316Y-140990733D01*
X152114670Y-140990127D01*
X152106691Y-140967546D01*
X152107454Y-140934446D01*
X152115923Y-140904700D01*
X152121678Y-140896394D01*
X152149919Y-140883529D01*
X152189000Y-140881735D01*
X152226174Y-140890496D01*
G37*
G36*
X153070310Y-140032108D02*
G01*
X153090391Y-140052303D01*
X153093059Y-140057701D01*
X153100728Y-140097428D01*
X153085536Y-140126924D01*
X153049969Y-140142886D01*
X153027452Y-140144774D01*
X152992882Y-140142656D01*
X152970839Y-140137422D01*
X152968783Y-140136014D01*
X152960803Y-140113433D01*
X152961567Y-140080333D01*
X152970036Y-140050587D01*
X152975791Y-140042281D01*
X152999200Y-140031291D01*
X153033977Y-140026519D01*
X153035204Y-140026513D01*
X153070310Y-140032108D01*
G37*
G36*
X153080934Y-140834446D02*
G01*
X153120476Y-140854677D01*
X153139828Y-140890392D01*
X153140100Y-140943223D01*
X153129982Y-140989658D01*
X153110202Y-141028522D01*
X153079742Y-141055181D01*
X153046203Y-141063385D01*
X153041294Y-141062619D01*
X153022961Y-141059491D01*
X152992874Y-141054950D01*
X152947891Y-141041584D01*
X152920919Y-141014591D01*
X152908864Y-140969758D01*
X152907462Y-140938658D01*
X152911690Y-140884552D01*
X152927332Y-140851002D01*
X152958826Y-140833650D01*
X153010610Y-140828139D01*
X153020093Y-140828065D01*
X153080934Y-140834446D01*
G37*
G36*
X154795746Y-140408887D02*
G01*
X154821865Y-140437876D01*
X154828827Y-140457127D01*
X154832966Y-140502647D01*
X154825785Y-140550860D01*
X154809767Y-140592261D01*
X154787392Y-140617345D01*
X154786928Y-140617598D01*
X154743769Y-140629661D01*
X154692514Y-140629143D01*
X154645872Y-140616980D01*
X154626999Y-140605836D01*
X154605984Y-140581916D01*
X154597702Y-140549420D01*
X154597165Y-140523480D01*
X154602932Y-140466772D01*
X154619871Y-140430319D01*
X154651704Y-140409174D01*
X154690075Y-140400004D01*
X154752605Y-140396588D01*
X154795746Y-140408887D01*
G37*
G36*
X153898879Y-141256119D02*
G01*
X153942872Y-141266078D01*
X153974642Y-141280261D01*
X153979039Y-141283930D01*
X153994188Y-141314903D01*
X153998100Y-141359081D01*
X153991281Y-141406156D01*
X153974237Y-141445822D01*
X153970864Y-141450452D01*
X153952575Y-141469865D01*
X153931076Y-141480310D01*
X153897919Y-141484468D01*
X153861801Y-141485074D01*
X153814744Y-141482624D01*
X153778900Y-141476183D01*
X153764203Y-141469306D01*
X153755486Y-141448139D01*
X153749759Y-141410359D01*
X153748435Y-141379361D01*
X153752807Y-141324696D01*
X153768402Y-141288815D01*
X153798938Y-141265314D01*
X153819702Y-141256655D01*
X153854033Y-141252329D01*
X153898879Y-141256119D01*
G37*
G36*
X152185841Y-142092598D02*
G01*
X152239132Y-142101692D01*
X152271123Y-142119257D01*
X152286460Y-142149588D01*
X152289873Y-142188829D01*
X152285413Y-142249475D01*
X152270272Y-142289905D01*
X152241812Y-142314921D01*
X152214943Y-142325183D01*
X152181636Y-142333670D01*
X152160724Y-142337581D01*
X152158471Y-142337559D01*
X152142210Y-142334041D01*
X152112480Y-142327692D01*
X152091470Y-142321943D01*
X152079333Y-142311645D01*
X152073182Y-142290365D01*
X152070127Y-142251671D01*
X152069188Y-142231282D01*
X152068251Y-142181534D01*
X152071976Y-142149864D01*
X152082056Y-142128239D01*
X152093708Y-142114866D01*
X152116747Y-142097303D01*
X152144952Y-142090821D01*
X152185841Y-142092598D01*
G37*
G36*
X160126511Y-139932980D02*
G01*
X160272397Y-139957986D01*
X160354948Y-139980488D01*
X160490329Y-140036721D01*
X160618917Y-140116145D01*
X160737696Y-140215943D01*
X160843651Y-140333300D01*
X160933766Y-140465398D01*
X160989385Y-140572990D01*
X161026694Y-140663769D01*
X161053569Y-140750173D01*
X161071392Y-140839453D01*
X161081542Y-140938860D01*
X161085402Y-141055645D01*
X161085532Y-141077728D01*
X161085173Y-141162547D01*
X161083164Y-141227573D01*
X161078902Y-141279272D01*
X161071785Y-141324110D01*
X161061209Y-141368554D01*
X161056997Y-141383744D01*
X161000492Y-141544565D01*
X160926273Y-141688459D01*
X160831597Y-141820098D01*
X160746608Y-141912512D01*
X160621797Y-142017948D01*
X160480992Y-142103284D01*
X160326451Y-142167325D01*
X160200771Y-142201110D01*
X160134223Y-142210836D01*
X160049760Y-142216921D01*
X159955496Y-142219363D01*
X159859543Y-142218162D01*
X159770014Y-142213317D01*
X159695021Y-142204826D01*
X159674663Y-142201187D01*
X159519072Y-142157880D01*
X159372366Y-142093697D01*
X159238004Y-142010869D01*
X159119446Y-141911628D01*
X159020149Y-141798206D01*
X158995380Y-141762875D01*
X158942995Y-141672236D01*
X158894744Y-141567182D01*
X158855152Y-141458766D01*
X158828745Y-141358040D01*
X158827953Y-141353940D01*
X158814583Y-141253978D01*
X158808152Y-141138415D01*
X158808433Y-141057417D01*
X159208911Y-141057417D01*
X159210763Y-141149577D01*
X159217666Y-141234905D01*
X159229615Y-141305243D01*
X159233770Y-141320822D01*
X159277130Y-141435971D01*
X159335274Y-141543367D01*
X159404541Y-141637522D01*
X159481271Y-141712952D01*
X159509638Y-141734207D01*
X159573375Y-141769584D01*
X159654105Y-141801750D01*
X159742541Y-141827378D01*
X159804351Y-141839695D01*
X159878520Y-141845986D01*
X159966741Y-141845321D01*
X160057902Y-141838329D01*
X160140893Y-141825636D01*
X160169535Y-141819047D01*
X160262398Y-141787058D01*
X160347220Y-141740023D01*
X160430638Y-141673909D01*
X160469932Y-141636411D01*
X160556003Y-141533719D01*
X160619944Y-141419210D01*
X160662283Y-141291491D01*
X160683550Y-141149170D01*
X160686459Y-141066611D01*
X160679402Y-140941027D01*
X160656603Y-140827909D01*
X160615614Y-140717058D01*
X160589871Y-140663812D01*
X160516963Y-140547707D01*
X160428554Y-140452741D01*
X160324339Y-140378698D01*
X160204013Y-140325361D01*
X160067271Y-140292515D01*
X160065584Y-140292253D01*
X160000235Y-140283097D01*
X159949082Y-140279190D01*
X159900681Y-140280533D01*
X159843588Y-140287129D01*
X159808944Y-140292283D01*
X159701663Y-140314094D01*
X159612679Y-140345227D01*
X159534652Y-140389237D01*
X159460241Y-140449676D01*
X159436567Y-140472495D01*
X159347580Y-140579422D01*
X159277534Y-140704233D01*
X159233664Y-140821495D01*
X159220359Y-140885220D01*
X159212109Y-140966580D01*
X159208911Y-141057417D01*
X158808433Y-141057417D01*
X158808574Y-141016973D01*
X158815763Y-140899375D01*
X158829633Y-140795344D01*
X158833040Y-140777803D01*
X158876329Y-140628734D01*
X158942093Y-140485579D01*
X159027532Y-140351973D01*
X159129850Y-140231555D01*
X159246247Y-140127961D01*
X159373927Y-140044827D01*
X159411860Y-140025451D01*
X159533201Y-139978891D01*
X159671223Y-139946084D01*
X159820038Y-139927309D01*
X159973763Y-139922848D01*
X160126511Y-139932980D01*
G37*
G36*
X156969717Y-139949706D02*
G01*
X157073516Y-139950251D01*
X157169991Y-139951337D01*
X157255781Y-139952981D01*
X157327526Y-139955202D01*
X157381865Y-139958019D01*
X157402569Y-139959772D01*
X157519970Y-139977030D01*
X157628226Y-140002578D01*
X157721643Y-140034795D01*
X157792574Y-140070808D01*
X157858841Y-140122680D01*
X157925666Y-140191989D01*
X157986370Y-140270905D01*
X158034278Y-140351600D01*
X158037275Y-140357727D01*
X158090033Y-140494069D01*
X158118901Y-140631043D01*
X158124876Y-140766211D01*
X158108953Y-140897133D01*
X158072128Y-141021370D01*
X158015398Y-141136484D01*
X157939758Y-141240034D01*
X157846205Y-141329582D01*
X157735733Y-141402688D01*
X157609340Y-141456914D01*
X157585416Y-141464352D01*
X157529148Y-141476617D01*
X157451120Y-141487412D01*
X157355829Y-141496442D01*
X157247769Y-141503412D01*
X157131436Y-141508026D01*
X157011325Y-141509991D01*
X156902082Y-141509218D01*
X156672129Y-141504785D01*
X156668608Y-141832660D01*
X156667054Y-141942468D01*
X156664941Y-142028106D01*
X156662147Y-142091678D01*
X156658549Y-142135291D01*
X156654025Y-142161051D01*
X156648898Y-142170818D01*
X156630388Y-142174591D01*
X156590922Y-142177773D01*
X156535819Y-142180079D01*
X156470402Y-142181229D01*
X156451705Y-142181304D01*
X156270702Y-142181505D01*
X156257887Y-142147799D01*
X156255337Y-142128233D01*
X156253059Y-142085255D01*
X156251050Y-142021239D01*
X156249309Y-141938560D01*
X156247831Y-141839592D01*
X156246616Y-141726711D01*
X156245659Y-141602291D01*
X156244958Y-141468706D01*
X156244511Y-141328331D01*
X156244315Y-141183540D01*
X156244367Y-141036709D01*
X156244665Y-140890212D01*
X156245205Y-140746423D01*
X156245243Y-140739613D01*
X156665558Y-140739613D01*
X156665864Y-140856537D01*
X156666844Y-140949396D01*
X156668591Y-141020400D01*
X156671199Y-141071758D01*
X156674761Y-141105680D01*
X156679369Y-141124374D01*
X156681984Y-141128590D01*
X156693141Y-141133785D01*
X156716702Y-141137668D01*
X156755149Y-141140322D01*
X156810965Y-141141829D01*
X156886632Y-141142273D01*
X156984633Y-141141736D01*
X157053194Y-141141002D01*
X157160113Y-141139587D01*
X157244211Y-141138047D01*
X157308949Y-141136115D01*
X157357787Y-141133521D01*
X157394184Y-141129996D01*
X157421602Y-141125271D01*
X157443498Y-141119078D01*
X157463334Y-141111147D01*
X157468719Y-141108703D01*
X157538116Y-141067501D01*
X157602248Y-141012876D01*
X157652642Y-140952549D01*
X157667597Y-140927512D01*
X157684030Y-140885999D01*
X157694582Y-140833104D01*
X157700624Y-140761749D01*
X157700953Y-140755045D01*
X157699625Y-140660871D01*
X157684281Y-140584173D01*
X157652679Y-140518928D01*
X157602573Y-140459115D01*
X157584282Y-140441944D01*
X157553804Y-140415959D01*
X157524248Y-140395269D01*
X157492234Y-140379281D01*
X157454381Y-140367405D01*
X157407309Y-140359049D01*
X157347639Y-140353621D01*
X157271990Y-140350530D01*
X157176983Y-140349185D01*
X157059236Y-140348993D01*
X157053194Y-140349003D01*
X156960020Y-140349484D01*
X156874745Y-140350553D01*
X156801136Y-140352111D01*
X156742960Y-140354061D01*
X156703982Y-140356304D01*
X156688554Y-140358445D01*
X156681818Y-140362778D01*
X156676535Y-140371890D01*
X156672530Y-140388673D01*
X156669630Y-140416017D01*
X156667658Y-140456813D01*
X156666441Y-140513952D01*
X156665805Y-140590325D01*
X156665576Y-140688821D01*
X156665558Y-140739613D01*
X156245243Y-140739613D01*
X156245985Y-140607717D01*
X156247003Y-140476468D01*
X156248256Y-140355052D01*
X156249740Y-140245842D01*
X156251454Y-140151214D01*
X156253395Y-140073542D01*
X156255560Y-140015201D01*
X156257946Y-139978565D01*
X156260352Y-139966060D01*
X156278862Y-139962575D01*
X156320289Y-139959464D01*
X156381274Y-139956745D01*
X156458457Y-139954437D01*
X156548476Y-139952558D01*
X156647972Y-139951127D01*
X156753584Y-139950163D01*
X156861952Y-139949683D01*
X156969717Y-139949706D01*
G37*
G36*
X162847351Y-139903368D02*
G01*
X162944418Y-139908462D01*
X163026573Y-139918284D01*
X163099427Y-139933826D01*
X163168592Y-139956077D01*
X163239680Y-139986029D01*
X163260148Y-139995669D01*
X163311588Y-140024817D01*
X163367005Y-140063562D01*
X163422037Y-140107920D01*
X163472318Y-140153906D01*
X163513484Y-140197533D01*
X163541171Y-140234818D01*
X163551021Y-140261278D01*
X163539823Y-140282483D01*
X163508822Y-140312155D01*
X163461909Y-140347396D01*
X163402978Y-140385306D01*
X163335920Y-140422984D01*
X163329548Y-140426301D01*
X163305478Y-140437004D01*
X163284097Y-140439609D01*
X163259692Y-140432245D01*
X163226546Y-140413041D01*
X163178943Y-140380126D01*
X163170837Y-140374344D01*
X163067646Y-140315611D01*
X162948274Y-140275641D01*
X162811599Y-140254131D01*
X162707321Y-140249896D01*
X162582394Y-140257968D01*
X162477702Y-140282132D01*
X162393509Y-140322307D01*
X162346952Y-140359872D01*
X162295386Y-140426874D01*
X162268981Y-140498621D01*
X162268126Y-140573272D01*
X162287981Y-140638075D01*
X162316446Y-140686396D01*
X162355655Y-140726284D01*
X162408534Y-140759071D01*
X162478005Y-140786091D01*
X162566993Y-140808677D01*
X162678422Y-140828163D01*
X162716810Y-140833623D01*
X162865264Y-140854961D01*
X162990559Y-140875764D01*
X163095765Y-140897072D01*
X163183955Y-140919927D01*
X163258203Y-140945368D01*
X163321579Y-140974437D01*
X163377158Y-141008175D01*
X163428010Y-141047621D01*
X163473232Y-141089817D01*
X163545890Y-141175206D01*
X163597057Y-141266442D01*
X163628509Y-141368118D01*
X163642023Y-141484828D01*
X163642847Y-141528427D01*
X163630756Y-141658528D01*
X163595061Y-141777124D01*
X163535957Y-141883854D01*
X163453640Y-141978358D01*
X163356832Y-142054689D01*
X163221995Y-142129403D01*
X163072772Y-142184911D01*
X163012273Y-142200739D01*
X162948956Y-142210858D01*
X162866320Y-142217427D01*
X162771077Y-142220516D01*
X162669939Y-142220200D01*
X162569615Y-142216550D01*
X162476818Y-142209639D01*
X162398259Y-142199540D01*
X162368404Y-142193767D01*
X162230256Y-142151925D01*
X162104151Y-142091683D01*
X161994507Y-142015364D01*
X161947742Y-141972412D01*
X161892936Y-141912267D01*
X161848844Y-141854507D01*
X161817551Y-141802711D01*
X161801143Y-141760460D01*
X161801707Y-141731333D01*
X161804576Y-141726721D01*
X161824705Y-141709046D01*
X161861300Y-141682369D01*
X161908053Y-141650811D01*
X161958660Y-141618491D01*
X162006815Y-141589528D01*
X162046212Y-141568043D01*
X162051127Y-141565648D01*
X162081223Y-141552723D01*
X162099000Y-141553899D01*
X162115828Y-141571899D01*
X162123874Y-141583065D01*
X162210663Y-141684819D01*
X162309432Y-141764226D01*
X162418760Y-141820362D01*
X162537224Y-141852307D01*
X162539226Y-141852623D01*
X162668532Y-141865109D01*
X162790177Y-141862005D01*
X162901863Y-141844397D01*
X163001291Y-141813367D01*
X163086161Y-141769999D01*
X163154175Y-141715376D01*
X163203033Y-141650583D01*
X163230438Y-141576702D01*
X163235657Y-141524366D01*
X163229097Y-141459702D01*
X163206685Y-141405979D01*
X163164325Y-141354105D01*
X163154652Y-141344632D01*
X163109359Y-141308941D01*
X163053215Y-141279716D01*
X162982117Y-141255486D01*
X162891962Y-141234780D01*
X162808603Y-141220560D01*
X162660900Y-141196928D01*
X162536316Y-141174477D01*
X162431766Y-141152374D01*
X162344166Y-141129784D01*
X162270430Y-141105874D01*
X162207476Y-141079809D01*
X162152217Y-141050755D01*
X162129942Y-141037064D01*
X162039666Y-140964205D01*
X161963544Y-140872119D01*
X161917229Y-140791004D01*
X161900121Y-140753638D01*
X161888490Y-140722433D01*
X161881281Y-140690835D01*
X161877440Y-140652287D01*
X161875913Y-140600236D01*
X161875646Y-140532410D01*
X161876044Y-140460565D01*
X161877849Y-140408614D01*
X161881986Y-140370179D01*
X161889375Y-140338879D01*
X161900938Y-140308333D01*
X161911329Y-140285433D01*
X161968809Y-140192721D01*
X162049157Y-140108842D01*
X162149917Y-140035606D01*
X162268631Y-139974829D01*
X162390854Y-139931685D01*
X162432303Y-139920734D01*
X162472166Y-139912832D01*
X162515980Y-139907494D01*
X162569279Y-139904235D01*
X162637602Y-139902570D01*
X162726482Y-139902015D01*
X162729759Y-139902010D01*
X162847351Y-139903368D01*
G37*
G36*
X164913733Y-139979281D02*
G01*
X164938147Y-140004296D01*
X164976091Y-140049211D01*
X165026223Y-140112256D01*
X165087200Y-140191662D01*
X165157681Y-140285659D01*
X165236325Y-140392479D01*
X165321791Y-140510353D01*
X165410415Y-140634247D01*
X165458322Y-140700539D01*
X165501951Y-140758831D01*
X165538780Y-140805923D01*
X165566290Y-140838612D01*
X165581959Y-140853699D01*
X165583711Y-140854345D01*
X165600918Y-140843591D01*
X165632468Y-140811708D01*
X165677880Y-140759270D01*
X165736670Y-140686848D01*
X165808358Y-140595014D01*
X165866118Y-140519270D01*
X165964612Y-140389616D01*
X166048897Y-140279922D01*
X166120118Y-140188822D01*
X166179421Y-140114948D01*
X166227952Y-140056934D01*
X166266858Y-140013412D01*
X166297284Y-139983016D01*
X166320376Y-139964379D01*
X166337280Y-139956133D01*
X166338451Y-139955871D01*
X166376070Y-139951159D01*
X166428830Y-139948222D01*
X166491135Y-139946950D01*
X166557385Y-139947231D01*
X166621985Y-139948955D01*
X166679336Y-139952011D01*
X166723841Y-139956288D01*
X166749902Y-139961675D01*
X166753893Y-139964097D01*
X166756519Y-139980178D01*
X166759089Y-140020148D01*
X166761585Y-140081618D01*
X166763988Y-140162196D01*
X166766281Y-140259492D01*
X166768445Y-140371115D01*
X166770461Y-140494675D01*
X166772312Y-140627781D01*
X166773978Y-140768043D01*
X166775442Y-140913069D01*
X166776685Y-141060470D01*
X166777689Y-141207854D01*
X166778436Y-141352831D01*
X166778906Y-141493010D01*
X166779082Y-141626001D01*
X166778945Y-141749413D01*
X166778478Y-141860855D01*
X166777661Y-141957938D01*
X166776476Y-142038269D01*
X166774905Y-142099460D01*
X166772930Y-142139118D01*
X166770716Y-142154578D01*
X166763252Y-142165366D01*
X166751464Y-142172810D01*
X166730923Y-142177517D01*
X166697201Y-142180096D01*
X166645871Y-142181154D01*
X166576089Y-142181304D01*
X166508642Y-142180387D01*
X166449779Y-142178017D01*
X166404939Y-142174527D01*
X166379564Y-142170251D01*
X166376881Y-142169086D01*
X166372904Y-142163536D01*
X166369500Y-142151056D01*
X166366625Y-142129779D01*
X166364234Y-142097838D01*
X166362281Y-142053367D01*
X166360721Y-141994498D01*
X166359509Y-141919364D01*
X166358600Y-141826099D01*
X166357948Y-141712836D01*
X166357509Y-141577707D01*
X166357237Y-141418847D01*
X166357171Y-141354609D01*
X166356873Y-141212205D01*
X166356261Y-141077990D01*
X166355367Y-140954201D01*
X166354223Y-140843078D01*
X166352862Y-140746856D01*
X166351315Y-140667775D01*
X166349614Y-140608072D01*
X166347792Y-140569985D01*
X166345881Y-140555751D01*
X166345717Y-140555713D01*
X166333751Y-140567103D01*
X166310007Y-140594997D01*
X166278320Y-140634762D01*
X166253735Y-140666825D01*
X166196521Y-140741818D01*
X166133080Y-140823684D01*
X166065361Y-140910028D01*
X165995307Y-140998453D01*
X165924867Y-141086563D01*
X165855987Y-141171962D01*
X165790612Y-141252253D01*
X165730689Y-141325041D01*
X165678165Y-141387930D01*
X165634985Y-141438523D01*
X165603096Y-141474424D01*
X165584445Y-141493237D01*
X165580651Y-141495479D01*
X165568058Y-141484200D01*
X165542616Y-141455135D01*
X165507077Y-141411650D01*
X165464191Y-141357109D01*
X165416706Y-141294878D01*
X165416453Y-141294542D01*
X165355226Y-141213802D01*
X165285623Y-141123081D01*
X165214570Y-141031341D01*
X165148990Y-140947543D01*
X165122046Y-140913476D01*
X165069628Y-140846913D01*
X165018321Y-140780723D01*
X164972307Y-140720375D01*
X164935768Y-140671338D01*
X164918567Y-140647387D01*
X164889824Y-140608164D01*
X164865957Y-140579133D01*
X164851414Y-140565631D01*
X164850098Y-140565261D01*
X164848069Y-140578026D01*
X164846052Y-140614824D01*
X164844085Y-140673407D01*
X164842210Y-140751527D01*
X164840468Y-140846935D01*
X164838899Y-140957385D01*
X164837544Y-141080628D01*
X164836442Y-141214416D01*
X164835635Y-141356502D01*
X164835577Y-141370098D01*
X164832191Y-142174935D01*
X164647914Y-142178562D01*
X164565257Y-142179350D01*
X164506256Y-142177854D01*
X164468370Y-142173916D01*
X164449061Y-142167377D01*
X164447526Y-142166079D01*
X164444500Y-142157356D01*
X164441846Y-142136720D01*
X164439545Y-142102819D01*
X164437576Y-142054298D01*
X164435920Y-141989805D01*
X164434557Y-141907986D01*
X164433468Y-141807487D01*
X164432631Y-141686957D01*
X164432029Y-141545040D01*
X164431641Y-141380385D01*
X164431446Y-141191636D01*
X164431415Y-141062736D01*
X164431554Y-140885703D01*
X164431958Y-140719195D01*
X164432611Y-140564907D01*
X164433493Y-140424539D01*
X164434586Y-140299786D01*
X164435872Y-140192345D01*
X164437333Y-140103915D01*
X164438951Y-140036191D01*
X164440708Y-139990872D01*
X164442585Y-139969654D01*
X164443137Y-139968258D01*
X164459683Y-139965271D01*
X164497743Y-139961734D01*
X164552567Y-139957990D01*
X164619403Y-139954381D01*
X164663235Y-139952425D01*
X164871611Y-139943836D01*
X164913733Y-139979281D01*
G37*
%TO.C,C4*%
D12*
X146162164Y-97100000D02*
X146377836Y-97100000D01*
X146162164Y-97820000D02*
X146377836Y-97820000D01*
%TO.C,J2*%
D13*
X165882800Y-80349649D02*
X165882800Y-83720351D01*
X167829649Y-85667200D02*
X171200351Y-85667200D01*
X171200351Y-78402800D02*
X167829649Y-78402800D01*
X173147200Y-83720351D02*
X173147200Y-80349649D01*
%TO.C,IC1*%
D16*
X137180000Y-106305000D02*
X137180000Y-106305000D01*
X137280000Y-106305000D02*
X137280000Y-106305000D01*
D17*
X138230000Y-103765000D02*
X138230000Y-105325000D01*
X138230000Y-124085000D02*
X138230000Y-122525000D01*
X160330000Y-103765000D02*
X138230000Y-103765000D01*
X160330000Y-105325000D02*
X160330000Y-103765000D01*
X160330000Y-122525000D02*
X160330000Y-124085000D01*
X160330000Y-124085000D02*
X138230000Y-124085000D01*
D16*
X137180000Y-106305000D02*
G75*
G02*
X137280000Y-106305000I50000J0D01*
G01*
X137280000Y-106305000D02*
G75*
G02*
X137180000Y-106305000I-50000J0D01*
G01*
%TO.C,U1*%
D12*
X126715000Y-98910000D02*
X126715000Y-100940000D01*
X130745000Y-96880000D02*
X130745000Y-100940000D01*
X126810000Y-97140000D02*
X126474000Y-97380000D01*
X126474000Y-96900000D01*
X126810000Y-97140000D01*
G36*
X126810000Y-97140000D02*
G01*
X126474000Y-97380000D01*
X126474000Y-96900000D01*
X126810000Y-97140000D01*
G37*
%TO.C,C30*%
X145834420Y-98340000D02*
X146115580Y-98340000D01*
X145834420Y-99360000D02*
X146115580Y-99360000D01*
%TO.C,C10*%
X157295580Y-80580000D02*
X157014420Y-80580000D01*
X157295580Y-81600000D02*
X157014420Y-81600000D01*
%TO.C,C18*%
X132765000Y-118261252D02*
X132765000Y-117738748D01*
X134235000Y-118261252D02*
X134235000Y-117738748D01*
%TO.C,C25*%
X167686252Y-101140000D02*
X167163748Y-101140000D01*
X167686252Y-102610000D02*
X167163748Y-102610000D01*
%TO.C,C11*%
X153675000Y-78478748D02*
X153675000Y-79001252D01*
X155145000Y-78478748D02*
X155145000Y-79001252D01*
%TO.C,R7*%
X126072258Y-122127500D02*
X125597742Y-122127500D01*
X126072258Y-123172500D02*
X125597742Y-123172500D01*
%TO.C,R16*%
X162852500Y-109262742D02*
X162852500Y-109737258D01*
X163897500Y-109262742D02*
X163897500Y-109737258D01*
%TO.C,R9*%
X163952742Y-91097500D02*
X164427258Y-91097500D01*
X163952742Y-92142500D02*
X164427258Y-92142500D01*
%TO.C,R11*%
X171337258Y-124452500D02*
X170862742Y-124452500D01*
X171337258Y-125497500D02*
X170862742Y-125497500D01*
%TO.C,U3*%
D13*
X122571400Y-114926400D02*
X122571400Y-115350260D01*
X122571400Y-118769740D02*
X122571400Y-119193600D01*
X122571400Y-119193600D02*
X122995260Y-119193600D01*
X122995260Y-114926400D02*
X122571400Y-114926400D01*
X126414740Y-119193600D02*
X126838600Y-119193600D01*
X126838600Y-114926400D02*
X126414740Y-114926400D01*
X126838600Y-115350260D02*
X126838600Y-114926400D01*
X126838600Y-119193600D02*
X126838600Y-118769740D01*
D14*
G36*
X122139600Y-117500500D02*
G01*
X121885600Y-117500500D01*
X121885600Y-117119499D01*
X122139600Y-117119499D01*
X122139600Y-117500500D01*
G37*
G36*
X127524400Y-118000501D02*
G01*
X127270400Y-118000501D01*
X127270400Y-117619501D01*
X127524400Y-117619501D01*
X127524400Y-118000501D01*
G37*
%TO.C,C33*%
D12*
X122218748Y-77080000D02*
X123641252Y-77080000D01*
X122218748Y-78900000D02*
X123641252Y-78900000D01*
%TO.C,U4*%
X167095000Y-105995000D02*
X167190000Y-105995000D01*
X167095000Y-110115000D02*
X167095000Y-105995000D01*
X167190000Y-110115000D02*
X167095000Y-110115000D01*
X172120000Y-105995000D02*
X172215000Y-105995000D01*
X172215000Y-105995000D02*
X172215000Y-110115000D01*
X172215000Y-110115000D02*
X172120000Y-110115000D01*
X167185000Y-110655000D02*
X166855000Y-110895000D01*
X166855000Y-110415000D01*
X167185000Y-110655000D01*
G36*
X167185000Y-110655000D02*
G01*
X166855000Y-110895000D01*
X166855000Y-110415000D01*
X167185000Y-110655000D01*
G37*
%TO.C,C28*%
X170988748Y-113590000D02*
X171511252Y-113590000D01*
X170988748Y-115060000D02*
X171511252Y-115060000D01*
%TO.C,L3*%
X120947500Y-122690000D02*
X119947500Y-122690000D01*
X120947500Y-127710000D02*
X119947500Y-127710000D01*
%TO.C,R18*%
X135212742Y-131402500D02*
X135687258Y-131402500D01*
X135212742Y-132447500D02*
X135687258Y-132447500D01*
%TO.C,C31*%
X121763748Y-89200000D02*
X123186252Y-89200000D01*
X121763748Y-91020000D02*
X123186252Y-91020000D01*
%TO.C,R4*%
X153777500Y-90972258D02*
X153777500Y-90497742D01*
X154822500Y-90972258D02*
X154822500Y-90497742D01*
%TO.C,J5*%
D13*
X168206500Y-127830600D02*
X168206500Y-135679200D01*
X168206500Y-135679200D02*
X174353300Y-135679200D01*
X174353300Y-127830600D02*
X168206500Y-127830600D01*
X174353300Y-135679200D02*
X174353300Y-127830600D01*
D15*
X170660900Y-130926600D02*
G75*
G02*
X169898900Y-130926600I-381000J0D01*
G01*
X169898900Y-130926600D02*
G75*
G02*
X170660900Y-130926600I381000J0D01*
G01*
%TO.C,C14*%
D12*
X119452164Y-116970000D02*
X119667836Y-116970000D01*
X119452164Y-117690000D02*
X119667836Y-117690000D01*
%TO.C,TP1*%
X141320000Y-80850000D02*
X143520000Y-80850000D01*
X143520000Y-84650000D01*
X141320000Y-84650000D01*
X141320000Y-80850000D01*
%TO.C,TP3*%
X163025000Y-112275000D02*
X165225000Y-112275000D01*
X165225000Y-116075000D01*
X163025000Y-116075000D01*
X163025000Y-112275000D01*
%TO.C,C9*%
X149652164Y-82390000D02*
X149867836Y-82390000D01*
X149652164Y-83110000D02*
X149867836Y-83110000D01*
%TO.C,C17*%
X130786252Y-115055000D02*
X130263748Y-115055000D01*
X130786252Y-116525000D02*
X130263748Y-116525000D01*
%TO.C,R2*%
X142389564Y-91965000D02*
X141935436Y-91965000D01*
X142389564Y-93435000D02*
X141935436Y-93435000D01*
%TO.C,R10*%
X166882500Y-92212742D02*
X166882500Y-92687258D01*
X167927500Y-92212742D02*
X167927500Y-92687258D01*
%TO.C,R12*%
X169727500Y-121862258D02*
X169727500Y-121387742D01*
X170772500Y-121862258D02*
X170772500Y-121387742D01*
%TO.C,C22*%
X117834420Y-128990000D02*
X118115580Y-128990000D01*
X117834420Y-130010000D02*
X118115580Y-130010000D01*
%TO.C,C5*%
X146140000Y-89702164D02*
X146140000Y-89917836D01*
X146860000Y-89702164D02*
X146860000Y-89917836D01*
%TD*%
%LPC*%
D18*
%TO.C,C8*%
X150800000Y-91530000D03*
X150800000Y-89630000D03*
%TD*%
D19*
%TO.C,R14*%
X167210000Y-114680000D03*
X167210000Y-113030000D03*
%TD*%
D20*
%TO.C,C20*%
X122575000Y-130600000D03*
X121615000Y-130600000D03*
%TD*%
D21*
%TO.C,J3*%
X146390000Y-131910000D03*
X143850000Y-129370000D03*
X143850000Y-134450000D03*
X148930000Y-134450000D03*
X148930000Y-129370000D03*
%TD*%
D22*
%TO.C,C6*%
X141200000Y-90660000D03*
X143100000Y-90660000D03*
%TD*%
D23*
%TO.C,C32*%
X127560000Y-89690000D03*
X126010000Y-89690000D03*
%TD*%
D19*
%TO.C,R3*%
X150230000Y-86520000D03*
X150230000Y-84870000D03*
%TD*%
D24*
%TO.C,C16*%
X126675000Y-120825000D03*
X124775000Y-120825000D03*
%TD*%
D22*
%TO.C,C27*%
X171970000Y-119580000D03*
X173870000Y-119580000D03*
%TD*%
%TO.C,C3*%
X141240000Y-97680000D03*
X143140000Y-97680000D03*
%TD*%
D25*
%TO.C,R19*%
X139200000Y-131925000D03*
X139200000Y-133575000D03*
%TD*%
%TO.C,R17*%
X131650000Y-131925000D03*
X131650000Y-133575000D03*
%TD*%
D26*
%TO.C,R5*%
X129630000Y-117910000D03*
X131455000Y-117910000D03*
%TD*%
D27*
%TO.C,C29*%
X118520000Y-115830000D03*
X120070000Y-115830000D03*
%TD*%
D19*
%TO.C,R13*%
X170250000Y-118425000D03*
X170250000Y-116775000D03*
%TD*%
D28*
%TO.C,L1*%
X154160000Y-87540000D03*
D29*
X154160000Y-83085000D03*
%TD*%
D22*
%TO.C,C7*%
X137330000Y-91870000D03*
X139230000Y-91870000D03*
%TD*%
D18*
%TO.C,C23*%
X119225000Y-134350000D03*
X119225000Y-132450000D03*
%TD*%
D30*
%TO.C,C19*%
X128300000Y-117830000D03*
X128300000Y-116870000D03*
%TD*%
D31*
%TO.C,U2*%
X145100000Y-92540001D03*
X145100000Y-93040000D03*
X145100000Y-93540001D03*
X145100000Y-94040001D03*
X145100000Y-94540002D03*
X145100000Y-95040001D03*
D32*
X145755000Y-95695001D03*
X146254999Y-95695001D03*
X146755000Y-95695001D03*
X147255000Y-95695001D03*
X147755001Y-95695001D03*
X148255000Y-95695001D03*
D31*
X148910000Y-95040001D03*
X148910000Y-94540002D03*
X148910000Y-94040001D03*
X148910000Y-93540001D03*
X148910000Y-93040000D03*
X148910000Y-92540001D03*
D32*
X148255000Y-91885001D03*
X147755001Y-91885001D03*
X147255000Y-91885001D03*
X146755000Y-91885001D03*
X146254999Y-91885001D03*
X145755000Y-91885001D03*
D33*
X147005000Y-93790001D03*
%TD*%
D24*
%TO.C,C26*%
X168375000Y-99375000D03*
X166475000Y-99375000D03*
%TD*%
D34*
%TO.C,J4*%
X130049997Y-86170000D03*
X118050001Y-86170000D03*
D35*
X121050000Y-82230000D03*
X124049999Y-82230000D03*
X127049998Y-82230000D03*
X121050000Y-85229999D03*
X124049999Y-85229999D03*
X127049998Y-85229999D03*
%TD*%
D36*
%TO.C,REF\u002A\u002A*%
X119875000Y-72450000D03*
%TD*%
D24*
%TO.C,C13*%
X157830000Y-91600000D03*
X155930000Y-91600000D03*
%TD*%
D36*
%TO.C,REF\u002A\u002A*%
X171750000Y-141925000D03*
%TD*%
D30*
%TO.C,C2*%
X128740000Y-103290000D03*
X128740000Y-102330000D03*
%TD*%
D37*
%TO.C,L2*%
X152700000Y-91537500D03*
X152700000Y-89962500D03*
%TD*%
D18*
%TO.C,C24*%
X121925000Y-134350000D03*
X121925000Y-132450000D03*
%TD*%
D20*
%TO.C,C1*%
X128730000Y-95310000D03*
X127770000Y-95310000D03*
%TD*%
D25*
%TO.C,R8*%
X160975000Y-91630000D03*
X160975000Y-93280000D03*
%TD*%
%TO.C,R15*%
X165550000Y-108675000D03*
X165550000Y-110325000D03*
%TD*%
D38*
%TO.C,C12*%
X152140000Y-77790000D03*
X152140000Y-79690000D03*
%TD*%
D39*
%TO.C,TP4*%
X167325000Y-125575000D03*
%TD*%
D40*
%TO.C,R6*%
X122675000Y-129175000D03*
X121025000Y-129175000D03*
%TD*%
D18*
%TO.C,C21*%
X126725000Y-127750000D03*
X126725000Y-125850000D03*
%TD*%
D41*
%TO.C,R1*%
X132450000Y-98002500D03*
X132450000Y-99827500D03*
%TD*%
D23*
%TO.C,C34*%
X119760000Y-78410000D03*
X118210000Y-78410000D03*
%TD*%
D21*
%TO.C,J1*%
X120960000Y-100460000D03*
X118420000Y-97920000D03*
X118420000Y-103000000D03*
X123500000Y-103000000D03*
X123500000Y-97920000D03*
%TD*%
D42*
%TO.C,L4*%
X126672500Y-124200000D03*
X125097500Y-124200000D03*
%TD*%
D43*
%TO.C,TP2*%
X135490000Y-82760000D03*
%TD*%
D38*
%TO.C,C15*%
X123440000Y-111350000D03*
X123440000Y-113250000D03*
%TD*%
D44*
%TO.C,C4*%
X145790000Y-97460000D03*
X146750000Y-97460000D03*
%TD*%
D21*
%TO.C,J2*%
X169515000Y-82035000D03*
X166975000Y-79495000D03*
X166975000Y-84575000D03*
X172055000Y-84575000D03*
X172055000Y-79495000D03*
%TD*%
D45*
%TO.C,IC1*%
X138485000Y-106305000D03*
X138485000Y-108845000D03*
X138485000Y-111385000D03*
X138485000Y-113925000D03*
X138485000Y-116465000D03*
X138485000Y-119005000D03*
X138485000Y-121545000D03*
X160075000Y-121545000D03*
X160075000Y-119005000D03*
X160075000Y-116465000D03*
X160075000Y-113925000D03*
X160075000Y-111385000D03*
X160075000Y-108845000D03*
X160075000Y-106305000D03*
%TD*%
D46*
%TO.C,U1*%
X127460000Y-97320000D03*
X128730000Y-97320000D03*
X130000000Y-97320000D03*
X130000000Y-100500000D03*
X128730000Y-100500000D03*
X127460000Y-100500000D03*
%TD*%
D27*
%TO.C,C30*%
X145200000Y-98850000D03*
X146750000Y-98850000D03*
%TD*%
D23*
%TO.C,C10*%
X157930000Y-81090000D03*
X156380000Y-81090000D03*
%TD*%
D18*
%TO.C,C18*%
X133500000Y-118950000D03*
X133500000Y-117050000D03*
%TD*%
D24*
%TO.C,C25*%
X168375000Y-101875000D03*
X166475000Y-101875000D03*
%TD*%
D38*
%TO.C,C11*%
X154410000Y-77790000D03*
X154410000Y-79690000D03*
%TD*%
D40*
%TO.C,R7*%
X126660000Y-122650000D03*
X125010000Y-122650000D03*
%TD*%
D25*
%TO.C,R16*%
X163375000Y-108675000D03*
X163375000Y-110325000D03*
%TD*%
D47*
%TO.C,R9*%
X163365000Y-91620000D03*
X165015000Y-91620000D03*
%TD*%
D40*
%TO.C,R11*%
X171925000Y-124975000D03*
X170275000Y-124975000D03*
%TD*%
D32*
%TO.C,U3*%
X125955000Y-115155000D03*
X125455001Y-115155000D03*
X124955000Y-115155000D03*
X124455000Y-115155000D03*
X123954999Y-115155000D03*
X123455000Y-115155000D03*
D31*
X122800000Y-115810000D03*
X122800000Y-116309999D03*
X122800000Y-116810000D03*
X122800000Y-117310000D03*
X122800000Y-117810001D03*
X122800000Y-118310000D03*
D32*
X123455000Y-118965000D03*
X123954999Y-118965000D03*
X124455000Y-118965000D03*
X124955000Y-118965000D03*
X125455001Y-118965000D03*
X125955000Y-118965000D03*
D31*
X126610000Y-118310000D03*
X126610000Y-117810001D03*
X126610000Y-117310000D03*
X126610000Y-116810000D03*
X126610000Y-116309999D03*
X126610000Y-115810000D03*
D33*
X124705000Y-117060000D03*
%TD*%
D48*
%TO.C,C33*%
X121455000Y-77990000D03*
X124405000Y-77990000D03*
%TD*%
D36*
%TO.C,REF\u002A\u002A*%
X119875000Y-141900000D03*
%TD*%
D49*
%TO.C,U4*%
X167750000Y-110530000D03*
X169020000Y-110530000D03*
X170290000Y-110530000D03*
X171560000Y-110530000D03*
X171560000Y-105580000D03*
X170290000Y-105580000D03*
X169020000Y-105580000D03*
X167750000Y-105580000D03*
%TD*%
D22*
%TO.C,C28*%
X170300000Y-114325000D03*
X172200000Y-114325000D03*
%TD*%
D50*
%TO.C,L3*%
X122675000Y-125200000D03*
D51*
X118220000Y-125200000D03*
%TD*%
D47*
%TO.C,R18*%
X134625000Y-131925000D03*
X136275000Y-131925000D03*
%TD*%
D48*
%TO.C,C31*%
X121000000Y-90110000D03*
X123950000Y-90110000D03*
%TD*%
D19*
%TO.C,R4*%
X154300000Y-91560000D03*
X154300000Y-89910000D03*
%TD*%
D52*
%TO.C,J5*%
X170279900Y-129307600D03*
X172279901Y-129307600D03*
%TD*%
D44*
%TO.C,C14*%
X119080000Y-117330000D03*
X120040000Y-117330000D03*
%TD*%
D53*
%TO.C,TP1*%
X142420000Y-82750000D03*
%TD*%
%TO.C,TP3*%
X164125000Y-114175000D03*
%TD*%
D36*
%TO.C,REF\u002A\u002A*%
X171750000Y-72450000D03*
%TD*%
D44*
%TO.C,C9*%
X149280000Y-82750000D03*
X150240000Y-82750000D03*
%TD*%
D24*
%TO.C,C17*%
X131475000Y-115790000D03*
X129575000Y-115790000D03*
%TD*%
D54*
%TO.C,R2*%
X143075000Y-92700000D03*
X141250000Y-92700000D03*
%TD*%
D25*
%TO.C,R10*%
X167405000Y-91625000D03*
X167405000Y-93275000D03*
%TD*%
D19*
%TO.C,R12*%
X170250000Y-122450000D03*
X170250000Y-120800000D03*
%TD*%
D27*
%TO.C,C22*%
X117200000Y-129500000D03*
X118750000Y-129500000D03*
%TD*%
D55*
%TO.C,C5*%
X146500000Y-89330000D03*
X146500000Y-90290000D03*
%TD*%
D56*
X146990000Y-93750000D03*
X147020000Y-94540000D03*
X146190000Y-92930000D03*
X124720000Y-117790000D03*
X124690000Y-116180000D03*
X125550000Y-117770000D03*
X123890000Y-117000000D03*
X147850000Y-94520000D03*
X146220000Y-94540000D03*
X123890000Y-116180000D03*
X124690000Y-117000000D03*
X147820000Y-93730000D03*
X123920000Y-117790000D03*
X147820000Y-92910000D03*
X125520000Y-116980000D03*
X125520000Y-116160000D03*
X146190000Y-93750000D03*
X146990000Y-92930000D03*
%LPD*%
M02*
