%TF.GenerationSoftware,KiCad,Pcbnew,10.0.3*%
%TF.CreationDate,2026-08-08T17:59:28-05:00*%
%TF.ProjectId,mts-clk,6d74732d-636c-46b2-9e6b-696361645f70,rev?*%
%TF.SameCoordinates,Original*%
%TF.FileFunction,Copper,L4,Bot*%
%TF.FilePolarity,Positive*%
%FSLAX46Y46*%
G04 Gerber Fmt 4.6, Leading zero omitted, Abs format (unit mm)*
G04 Created by KiCad (PCBNEW 10.0.3) date 2026-08-08 17:59:28*
%MOMM*%
%LPD*%
G01*
G04 APERTURE LIST*
%TA.AperFunction,ComponentPad*%
%ADD10C,2.108200*%
%TD*%
%TA.AperFunction,ComponentPad*%
%ADD11C,1.574800*%
%TD*%
%TA.AperFunction,ComponentPad*%
%ADD12C,1.320800*%
%TD*%
%TA.AperFunction,ViaPad*%
%ADD13C,0.600000*%
%TD*%
%TA.AperFunction,ViaPad*%
%ADD14C,0.450000*%
%TD*%
%TA.AperFunction,Conductor*%
%ADD15C,0.200000*%
%TD*%
%TA.AperFunction,Conductor*%
%ADD16C,0.570700*%
%TD*%
G04 APERTURE END LIST*
D10*
%TO.P,J3,1,In_1*%
%TO.N,10MHz_DEMOD*%
X146390000Y-131910000D03*
%TO.P,J3,2,Ext_2*%
%TO.N,GND*%
X143850000Y-129370000D03*
%TO.P,J3,3*%
X143850000Y-134450000D03*
%TO.P,J3,4*%
X148930000Y-134450000D03*
%TO.P,J3,5*%
X148930000Y-129370000D03*
%TD*%
D11*
%TO.P,J4,1,1_1*%
%TO.N,+15V*%
X121050000Y-82230000D03*
%TO.P,J4,2,2_2*%
X124049999Y-82230000D03*
%TO.P,J4,3,3_3*%
%TO.N,GND*%
X127049998Y-82230000D03*
%TO.P,J4,4,4_4*%
X121050000Y-85229999D03*
%TO.P,J4,5,5_5*%
%TO.N,+5V*%
X124049999Y-85229999D03*
%TO.P,J4,6,6_6*%
X127049998Y-85229999D03*
%TD*%
D10*
%TO.P,J1,1,In_1*%
%TO.N,10MHz_INPUT*%
X120960000Y-100460000D03*
%TO.P,J1,2,Ext_2*%
%TO.N,GND*%
X118420000Y-97920000D03*
%TO.P,J1,3*%
X118420000Y-103000000D03*
%TO.P,J1,4*%
X123500000Y-103000000D03*
%TO.P,J1,5*%
X123500000Y-97920000D03*
%TD*%
%TO.P,J2,1,In_1*%
%TO.N,10MHz_EOM*%
X169515000Y-82035000D03*
%TO.P,J2,2,Ext_2*%
%TO.N,GND*%
X166975000Y-79495000D03*
%TO.P,J2,3*%
X166975000Y-84575000D03*
%TO.P,J2,4*%
X172055000Y-84575000D03*
%TO.P,J2,5*%
X172055000Y-79495000D03*
%TD*%
D12*
%TO.P,J5,1,1_1*%
%TO.N,V_FPGA_PWM*%
X170279900Y-129307600D03*
%TO.P,J5,2,2_2*%
%TO.N,GND*%
X172279901Y-129307600D03*
%TD*%
D13*
%TO.N,GND*%
X152490000Y-129530000D03*
X152475000Y-97675000D03*
X158590000Y-125260000D03*
X152475000Y-102260000D03*
X146990000Y-93750000D03*
X124940000Y-112200000D03*
X117075000Y-116350000D03*
X156580000Y-129530000D03*
X126825000Y-105725000D03*
X164735000Y-70200000D03*
X120590000Y-134460000D03*
X140215000Y-102260000D03*
X160575000Y-84350000D03*
X150485000Y-100110000D03*
X140240000Y-125260000D03*
X172275000Y-103365000D03*
X162685000Y-72225000D03*
X134150000Y-74175000D03*
X152540000Y-72225000D03*
X140225000Y-79350000D03*
X158620000Y-75800000D03*
X134005000Y-112200000D03*
X144875000Y-139165000D03*
X154530000Y-75800000D03*
X142275000Y-85535000D03*
X128115000Y-72225000D03*
X136015000Y-116475000D03*
X158590000Y-135450000D03*
X160475000Y-131640000D03*
X167740000Y-115730000D03*
X136005000Y-87685000D03*
X126775000Y-140850000D03*
X160475000Y-137115000D03*
X129980000Y-123260000D03*
X166575000Y-118975000D03*
X154540000Y-72225000D03*
X152500000Y-133770000D03*
X134005000Y-134200000D03*
X152485000Y-100110000D03*
X147020000Y-94540000D03*
X161450000Y-107300000D03*
X126775000Y-144650000D03*
X148450000Y-127410000D03*
X152500000Y-125260000D03*
X156590000Y-137125000D03*
X164515000Y-121125000D03*
X160475000Y-125250000D03*
X174425000Y-99285000D03*
X144465000Y-74175000D03*
X133665000Y-87675000D03*
X136010000Y-127410000D03*
X146505000Y-72225000D03*
X140230000Y-137150000D03*
X146450000Y-127410000D03*
X144875000Y-144640000D03*
X174400000Y-77625000D03*
X167420000Y-94230000D03*
X131980000Y-123260000D03*
X148915000Y-139165000D03*
X144970000Y-90990000D03*
X154535000Y-95525000D03*
X152500000Y-137125000D03*
X160575000Y-79675000D03*
X136150000Y-74175000D03*
X166300000Y-89200000D03*
X133650000Y-89500000D03*
X131975000Y-110050000D03*
X129950000Y-107950000D03*
X142990000Y-144650000D03*
X146435000Y-102260000D03*
X160975000Y-94350000D03*
X174425000Y-89210000D03*
X166910000Y-70200000D03*
X128825000Y-142975000D03*
X160675000Y-75800000D03*
X118850000Y-107960000D03*
X166595000Y-131615000D03*
X162695000Y-70200000D03*
X150490000Y-129530000D03*
X172275000Y-99275000D03*
X138200000Y-70200000D03*
X150820000Y-77750000D03*
X164505000Y-129520000D03*
X142990000Y-140850000D03*
X162575000Y-89100000D03*
X132155000Y-75800000D03*
X162525000Y-95575000D03*
X174425000Y-87210000D03*
X160475000Y-133760000D03*
X134900000Y-142975000D03*
X138180000Y-75800000D03*
X166410000Y-98020000D03*
X144425000Y-79350000D03*
X138230000Y-127410000D03*
X123310000Y-134460000D03*
X150500000Y-131650000D03*
X162675000Y-75800000D03*
X128125000Y-70200000D03*
X129150000Y-137150000D03*
X152500000Y-135450000D03*
X150985000Y-139170000D03*
X117100000Y-135000000D03*
X136000000Y-123350000D03*
X166585000Y-133765000D03*
X128850000Y-104070000D03*
X146445000Y-100110000D03*
X148435000Y-102260000D03*
X146190000Y-92930000D03*
X156580000Y-127410000D03*
X136000000Y-94250000D03*
X161450000Y-109010000D03*
X148445000Y-100110000D03*
X140990000Y-144650000D03*
X144875000Y-142965000D03*
X158590000Y-133770000D03*
X156590000Y-131650000D03*
X150985000Y-142970000D03*
X150555000Y-74175000D03*
X156580000Y-72225000D03*
X144280000Y-125260000D03*
X160575000Y-77625000D03*
X170075000Y-92425000D03*
X124720000Y-117790000D03*
X154550000Y-135450000D03*
X136015000Y-110050000D03*
X118850000Y-110085000D03*
X146915000Y-144640000D03*
X164525000Y-97675000D03*
X160465000Y-127400000D03*
X156590000Y-133770000D03*
X130155000Y-75800000D03*
X150985000Y-144645000D03*
X164525000Y-118975000D03*
X136140000Y-75800000D03*
X161450000Y-105260000D03*
X144465000Y-72225000D03*
X117900000Y-77260000D03*
X154550000Y-125260000D03*
X164715000Y-75800000D03*
X120750000Y-93175000D03*
X162505000Y-129520000D03*
X128105000Y-75800000D03*
X136900000Y-140850000D03*
X124690000Y-116180000D03*
X140250000Y-70200000D03*
X148565000Y-70200000D03*
X146495000Y-75800000D03*
X150500000Y-133770000D03*
X174425000Y-97285000D03*
X120750000Y-107960000D03*
X126775000Y-139175000D03*
X172275000Y-91240000D03*
X142255000Y-102260000D03*
X144455000Y-75800000D03*
X138190000Y-72225000D03*
X138235000Y-81400000D03*
X125900000Y-78840000D03*
X142265000Y-100110000D03*
X146915000Y-139165000D03*
X125550000Y-117770000D03*
X117075000Y-114350000D03*
X126085000Y-70200000D03*
X144875000Y-140840000D03*
X164515000Y-125250000D03*
X142280000Y-125260000D03*
X148555000Y-72225000D03*
X154540000Y-129530000D03*
X172250000Y-115690000D03*
X126075000Y-72225000D03*
X138225000Y-129325000D03*
X123890000Y-117000000D03*
X146515000Y-70200000D03*
D14*
X128540000Y-118500000D03*
D13*
X164515000Y-137115000D03*
X152550000Y-70200000D03*
X133675000Y-85525000D03*
X131100000Y-90250000D03*
X140175000Y-97600000D03*
X148850000Y-81870000D03*
X164515000Y-123245000D03*
X132165000Y-72225000D03*
X172250000Y-112950000D03*
X134140000Y-75800000D03*
X117075000Y-110085000D03*
X166585000Y-127375000D03*
X117075000Y-112200000D03*
X117100000Y-118400000D03*
X160460000Y-100100000D03*
X160695000Y-70200000D03*
X136015000Y-85535000D03*
X173000000Y-124950000D03*
X152500000Y-131650000D03*
X162525000Y-97675000D03*
X140235000Y-134200000D03*
X154535000Y-100110000D03*
X150475000Y-97675000D03*
X150555000Y-72225000D03*
X148460000Y-125260000D03*
X130865000Y-139175000D03*
X146425000Y-79350000D03*
X132865000Y-139175000D03*
X133675000Y-79350000D03*
X140225000Y-96150000D03*
X136900000Y-142975000D03*
X142275000Y-134200000D03*
X160575000Y-87025000D03*
X156565000Y-97675000D03*
X117090000Y-137150000D03*
X146460000Y-88530000D03*
X162685000Y-74175000D03*
X140230000Y-75800000D03*
X128115000Y-74175000D03*
X142990000Y-142975000D03*
X156590000Y-125260000D03*
X158590000Y-137125000D03*
X136900000Y-139175000D03*
X166575000Y-129525000D03*
X174425000Y-105375000D03*
X117075000Y-107960000D03*
X162515000Y-121125000D03*
X156565000Y-102260000D03*
X138225000Y-87685000D03*
X132865000Y-144650000D03*
X142465000Y-74175000D03*
X120960000Y-91620000D03*
X160465000Y-129520000D03*
X127120000Y-135000000D03*
X138225000Y-83550000D03*
X150500000Y-125260000D03*
X140235000Y-85535000D03*
X122725000Y-93175000D03*
X128630000Y-89700000D03*
X156570000Y-75800000D03*
X140235000Y-81400000D03*
X130865000Y-140850000D03*
X126800000Y-93175000D03*
X134000000Y-137150000D03*
X148915000Y-142965000D03*
X132865000Y-142975000D03*
X147850000Y-94520000D03*
X152540000Y-74175000D03*
X146220000Y-94540000D03*
X164775000Y-87025000D03*
X140225000Y-129325000D03*
X150500000Y-135450000D03*
X174425000Y-91250000D03*
X154550000Y-70200000D03*
X124825000Y-93175000D03*
X160575000Y-89100000D03*
X172275000Y-87200000D03*
X164775000Y-79675000D03*
X128825000Y-144650000D03*
X166900000Y-87200000D03*
X156575000Y-95525000D03*
X164725000Y-74175000D03*
X140240000Y-72225000D03*
X164775000Y-77625000D03*
X162515000Y-131640000D03*
X158590000Y-131650000D03*
X138190000Y-74175000D03*
X123890000Y-116180000D03*
X154525000Y-102260000D03*
X164515000Y-131640000D03*
X162515000Y-133760000D03*
X142265000Y-129325000D03*
X172275000Y-97275000D03*
X160485000Y-97675000D03*
X166410000Y-103290000D03*
X138235000Y-85535000D03*
X160475000Y-135440000D03*
X156590000Y-135450000D03*
X142475000Y-70200000D03*
X164775000Y-82250000D03*
X136160000Y-70200000D03*
X166925000Y-77625000D03*
X174425000Y-103375000D03*
X152490000Y-127410000D03*
X117150000Y-130570000D03*
X158580000Y-129530000D03*
X130165000Y-72225000D03*
X164505000Y-127400000D03*
X128825000Y-139175000D03*
X130165000Y-74175000D03*
X166900000Y-72225000D03*
X136005000Y-112200000D03*
X156590000Y-70200000D03*
X160685000Y-72225000D03*
X138950000Y-144650000D03*
X158580000Y-127410000D03*
X138225000Y-79350000D03*
X138225000Y-134200000D03*
X124690000Y-117000000D03*
X136900000Y-144650000D03*
X130865000Y-142975000D03*
X162515000Y-137115000D03*
X136005000Y-134200000D03*
X131650000Y-134450000D03*
X161450000Y-111050000D03*
X126950000Y-110050000D03*
X134900000Y-139175000D03*
X162575000Y-87025000D03*
X148545000Y-75800000D03*
X144950000Y-97510000D03*
X142265000Y-87685000D03*
X136000000Y-137150000D03*
X158630000Y-72225000D03*
X166565000Y-121125000D03*
X138950000Y-142975000D03*
X134150000Y-72225000D03*
X150545000Y-75800000D03*
X130865000Y-144650000D03*
X142455000Y-75800000D03*
X138950000Y-140850000D03*
X131965000Y-112200000D03*
X146505000Y-74175000D03*
X148915000Y-140840000D03*
X126825000Y-107960000D03*
X172275000Y-101315000D03*
X132165000Y-74175000D03*
X164525000Y-95575000D03*
X162505000Y-127400000D03*
X146915000Y-140840000D03*
X127110000Y-137150000D03*
X127870000Y-115790000D03*
X138240000Y-125260000D03*
X138225000Y-94275000D03*
X160575000Y-82250000D03*
X148915000Y-144640000D03*
X124925000Y-107960000D03*
X172275000Y-93290000D03*
X140990000Y-139175000D03*
X136020000Y-125260000D03*
X158640000Y-70200000D03*
X132175000Y-70200000D03*
X129980000Y-125260000D03*
X138950000Y-139175000D03*
X174425000Y-95300000D03*
X164515000Y-133760000D03*
X174425000Y-93300000D03*
D14*
X125597027Y-119728160D03*
D13*
X140225000Y-83550000D03*
X147820000Y-93730000D03*
X134725000Y-97225000D03*
X152485000Y-95525000D03*
X144255000Y-102260000D03*
X140990000Y-142975000D03*
X134160000Y-70200000D03*
X169125000Y-75800000D03*
X154540000Y-127410000D03*
X123920000Y-117790000D03*
X140990000Y-140850000D03*
X132865000Y-140850000D03*
X152530000Y-75800000D03*
X134900000Y-140850000D03*
X166410000Y-100600000D03*
X129160000Y-135000000D03*
X134015000Y-110050000D03*
X140230000Y-127410000D03*
X140225000Y-87685000D03*
X154550000Y-137125000D03*
X164515000Y-135440000D03*
X162525000Y-118975000D03*
X148555000Y-74175000D03*
X166925000Y-75800000D03*
X151490000Y-93870000D03*
X174400000Y-79675000D03*
X154525000Y-97675000D03*
X164725000Y-72225000D03*
X169125000Y-77625000D03*
X121870000Y-116150000D03*
X162515000Y-125250000D03*
X126075000Y-74175000D03*
X142465000Y-72225000D03*
X160685000Y-74175000D03*
X125110000Y-137150000D03*
X117900000Y-134460000D03*
X171825000Y-77625000D03*
X162515000Y-135440000D03*
X138220000Y-137150000D03*
X144940000Y-96740000D03*
X139200000Y-134440000D03*
X147820000Y-92910000D03*
X129965000Y-112200000D03*
X125520000Y-116980000D03*
X124950000Y-110050000D03*
X144265000Y-100110000D03*
X175000000Y-119560000D03*
X120750000Y-110085000D03*
X118850000Y-93175000D03*
X156580000Y-74175000D03*
X117100000Y-120400000D03*
X174425000Y-101325000D03*
X128825000Y-140850000D03*
X133675000Y-94425000D03*
X154550000Y-133770000D03*
X146915000Y-142965000D03*
X153310000Y-77750000D03*
X140240000Y-74175000D03*
X166400000Y-95575000D03*
X125120000Y-135000000D03*
X133125000Y-95375000D03*
X172275000Y-89200000D03*
X136150000Y-72225000D03*
X156575000Y-89100000D03*
X146460000Y-125260000D03*
X126940000Y-95300000D03*
X142990000Y-139175000D03*
X129975000Y-110050000D03*
X125520000Y-116160000D03*
X136025000Y-114325000D03*
X117075000Y-93175000D03*
X150490000Y-127410000D03*
X146190000Y-93750000D03*
X150565000Y-70200000D03*
X126775000Y-142975000D03*
X134900000Y-144650000D03*
X172275000Y-95290000D03*
X144475000Y-70200000D03*
X154550000Y-131650000D03*
X126065000Y-75800000D03*
X162515000Y-123245000D03*
X150985000Y-140845000D03*
X146990000Y-92930000D03*
X150475000Y-102260000D03*
X156575000Y-100110000D03*
X154540000Y-74175000D03*
X166900000Y-74175000D03*
X172500000Y-110670000D03*
X158630000Y-74175000D03*
X129970000Y-127410000D03*
X130175000Y-70200000D03*
%TO.N,+5V*%
X119590000Y-131330000D03*
X126080000Y-90860000D03*
X120970000Y-117390000D03*
X120840000Y-130560000D03*
X126390000Y-86890000D03*
X127600000Y-116930000D03*
X150250000Y-83830000D03*
X119810000Y-129750000D03*
X123030000Y-86890000D03*
X147640000Y-98820000D03*
X123850000Y-88110000D03*
X117330000Y-122970000D03*
X125550000Y-86890000D03*
X154660000Y-81880000D03*
X151630000Y-80800000D03*
X126390000Y-88110000D03*
X117880000Y-122420000D03*
X120020000Y-128790000D03*
X117080000Y-125880000D03*
X117080000Y-123900000D03*
X123030000Y-88110000D03*
X121720000Y-117390000D03*
X118680000Y-131330000D03*
X121410000Y-131330000D03*
X125100000Y-89730000D03*
X151030000Y-82750000D03*
X123850000Y-86890000D03*
X125550000Y-88110000D03*
X153630000Y-81880000D03*
X153880000Y-80800000D03*
X152570000Y-81880000D03*
X145740000Y-90290000D03*
X124700000Y-86890000D03*
X124700000Y-88110000D03*
X147490000Y-97420000D03*
X152730000Y-80800000D03*
X117080000Y-126710000D03*
X117080000Y-124730000D03*
X154910000Y-80800000D03*
X125100000Y-90860000D03*
%TO.N,Net-(U3-FDBK)*%
X127675000Y-118800000D03*
X123725000Y-120700000D03*
%TO.N,TDIODE1*%
X150250000Y-94040000D03*
X144220000Y-82850000D03*
%TO.N,+15V*%
X120570000Y-80930000D03*
X120570000Y-80180000D03*
X168910000Y-103220000D03*
X167850000Y-103220000D03*
X123490000Y-80930000D03*
X124490000Y-80930000D03*
X124490000Y-80180000D03*
X168910000Y-97930000D03*
X121570000Y-80180000D03*
X167860000Y-97930000D03*
X120370000Y-77330000D03*
X121570000Y-80930000D03*
X123490000Y-80180000D03*
X120570000Y-79180000D03*
%TO.N,Net-(R15-Pad1)*%
X165550000Y-107450000D03*
X170290000Y-103970000D03*
%TO.N,TDIODE2*%
X122390000Y-119930000D03*
X133590000Y-82740000D03*
%TD*%
%TO.N,Net-(U3-FDBK)*%
D15*
X123725000Y-119750000D02*
X125100000Y-118375000D01*
X127250000Y-118375000D02*
X127675000Y-118800000D01*
X125100000Y-118375000D02*
X127250000Y-118375000D01*
X123725000Y-120700000D02*
X123725000Y-119750000D01*
%TO.N,TDIODE1*%
X146710000Y-82850000D02*
X144220000Y-82850000D01*
X150250000Y-94040000D02*
X150250000Y-86390000D01*
X150250000Y-86390000D02*
X146710000Y-82850000D01*
%TO.N,Net-(R15-Pad1)*%
D16*
X166030000Y-104580000D02*
X165550000Y-105060000D01*
X169680000Y-104580000D02*
X166030000Y-104580000D01*
X165550000Y-105060000D02*
X165550000Y-107450000D01*
X170290000Y-103970000D02*
X169680000Y-104580000D01*
%TO.N,TDIODE2*%
D15*
X133570000Y-82760000D02*
X133590000Y-82740000D01*
X122680000Y-109720000D02*
X122595000Y-109635000D01*
X132870000Y-82760000D02*
X133570000Y-82760000D01*
X122390000Y-119930000D02*
X122680000Y-119640000D01*
X122595000Y-107225000D02*
X131990000Y-97830000D01*
X122595000Y-109635000D02*
X122595000Y-107225000D01*
X131990000Y-83640000D02*
X132870000Y-82760000D01*
X131990000Y-97830000D02*
X131990000Y-83640000D01*
X122680000Y-119640000D02*
X122680000Y-109720000D01*
%TD*%
%TA.AperFunction,Conductor*%
%TO.N,GND*%
G36*
X175367539Y-68970185D02*
G01*
X175413294Y-69022989D01*
X175424500Y-69074500D01*
X175424500Y-145275500D01*
X175404815Y-145342539D01*
X175352011Y-145388294D01*
X175300500Y-145399500D01*
X116334500Y-145399500D01*
X116267461Y-145379815D01*
X116221706Y-145327011D01*
X116210500Y-145275500D01*
X116210500Y-141778711D01*
X118024500Y-141778711D01*
X118024500Y-142021288D01*
X118056161Y-142261785D01*
X118118947Y-142496104D01*
X118211773Y-142720205D01*
X118211776Y-142720212D01*
X118333064Y-142930289D01*
X118333066Y-142930292D01*
X118333067Y-142930293D01*
X118480733Y-143122736D01*
X118480739Y-143122743D01*
X118652256Y-143294260D01*
X118652263Y-143294266D01*
X118684844Y-143319266D01*
X118844711Y-143441936D01*
X119054788Y-143563224D01*
X119278900Y-143656054D01*
X119513211Y-143718838D01*
X119693586Y-143742584D01*
X119753711Y-143750500D01*
X119753712Y-143750500D01*
X119996289Y-143750500D01*
X120046892Y-143743838D01*
X120236789Y-143718838D01*
X120471100Y-143656054D01*
X120695212Y-143563224D01*
X120905289Y-143441936D01*
X121097738Y-143294265D01*
X121269265Y-143122738D01*
X121416936Y-142930289D01*
X121538224Y-142720212D01*
X121631054Y-142496100D01*
X121693838Y-142261789D01*
X121725500Y-142021288D01*
X121725500Y-141803711D01*
X169899500Y-141803711D01*
X169899500Y-142046288D01*
X169931161Y-142286785D01*
X169993947Y-142521104D01*
X170086773Y-142745205D01*
X170086776Y-142745212D01*
X170208064Y-142955289D01*
X170208066Y-142955292D01*
X170208067Y-142955293D01*
X170355733Y-143147736D01*
X170355739Y-143147743D01*
X170527256Y-143319260D01*
X170527262Y-143319265D01*
X170719711Y-143466936D01*
X170929788Y-143588224D01*
X171153900Y-143681054D01*
X171388211Y-143743838D01*
X171568586Y-143767584D01*
X171628711Y-143775500D01*
X171628712Y-143775500D01*
X171871289Y-143775500D01*
X171919388Y-143769167D01*
X172111789Y-143743838D01*
X172346100Y-143681054D01*
X172570212Y-143588224D01*
X172780289Y-143466936D01*
X172972738Y-143319265D01*
X173144265Y-143147738D01*
X173291936Y-142955289D01*
X173413224Y-142745212D01*
X173506054Y-142521100D01*
X173568838Y-142286789D01*
X173600500Y-142046288D01*
X173600500Y-141803712D01*
X173568838Y-141563211D01*
X173506054Y-141328900D01*
X173413224Y-141104788D01*
X173291936Y-140894711D01*
X173144265Y-140702262D01*
X173144260Y-140702256D01*
X172972743Y-140530739D01*
X172972736Y-140530733D01*
X172780293Y-140383067D01*
X172780292Y-140383066D01*
X172780289Y-140383064D01*
X172570212Y-140261776D01*
X172570205Y-140261773D01*
X172346104Y-140168947D01*
X172111785Y-140106161D01*
X171871289Y-140074500D01*
X171871288Y-140074500D01*
X171628712Y-140074500D01*
X171628711Y-140074500D01*
X171388214Y-140106161D01*
X171153895Y-140168947D01*
X170929794Y-140261773D01*
X170929785Y-140261777D01*
X170719706Y-140383067D01*
X170527263Y-140530733D01*
X170527256Y-140530739D01*
X170355739Y-140702256D01*
X170355733Y-140702263D01*
X170208067Y-140894706D01*
X170086777Y-141104785D01*
X170086773Y-141104794D01*
X169993947Y-141328895D01*
X169931161Y-141563214D01*
X169899500Y-141803711D01*
X121725500Y-141803711D01*
X121725500Y-141778712D01*
X121693838Y-141538211D01*
X121631054Y-141303900D01*
X121538224Y-141079788D01*
X121416936Y-140869711D01*
X121269265Y-140677262D01*
X121269260Y-140677256D01*
X121097743Y-140505739D01*
X121097736Y-140505733D01*
X120905293Y-140358067D01*
X120905292Y-140358066D01*
X120905289Y-140358064D01*
X120695212Y-140236776D01*
X120695205Y-140236773D01*
X120471104Y-140143947D01*
X120236785Y-140081161D01*
X119996289Y-140049500D01*
X119996288Y-140049500D01*
X119753712Y-140049500D01*
X119753711Y-140049500D01*
X119513214Y-140081161D01*
X119278895Y-140143947D01*
X119054794Y-140236773D01*
X119054785Y-140236777D01*
X118844706Y-140358067D01*
X118652263Y-140505733D01*
X118652256Y-140505739D01*
X118480739Y-140677256D01*
X118480733Y-140677263D01*
X118333067Y-140869706D01*
X118211777Y-141079785D01*
X118211773Y-141079794D01*
X118118947Y-141303895D01*
X118056161Y-141538214D01*
X118024500Y-141778711D01*
X116210500Y-141778711D01*
X116210500Y-131251153D01*
X117879500Y-131251153D01*
X117879500Y-131408846D01*
X117910261Y-131563489D01*
X117910264Y-131563501D01*
X117970602Y-131709172D01*
X117970609Y-131709185D01*
X118058210Y-131840288D01*
X118058213Y-131840292D01*
X118169707Y-131951786D01*
X118169711Y-131951789D01*
X118300814Y-132039390D01*
X118300827Y-132039397D01*
X118446498Y-132099735D01*
X118446503Y-132099737D01*
X118601153Y-132130499D01*
X118601156Y-132130500D01*
X118601158Y-132130500D01*
X118758844Y-132130500D01*
X118758845Y-132130499D01*
X118913497Y-132099737D01*
X119059179Y-132039394D01*
X119066108Y-132034763D01*
X119132785Y-132013885D01*
X119200166Y-132032369D01*
X119203888Y-132034761D01*
X119210821Y-132039394D01*
X119210823Y-132039395D01*
X119210825Y-132039396D01*
X119356498Y-132099735D01*
X119356503Y-132099737D01*
X119511153Y-132130499D01*
X119511156Y-132130500D01*
X119511158Y-132130500D01*
X119668844Y-132130500D01*
X119668845Y-132130499D01*
X119823497Y-132099737D01*
X119969179Y-132039394D01*
X120100289Y-131951789D01*
X120211789Y-131840289D01*
X120299394Y-131709179D01*
X120359737Y-131563497D01*
X120378383Y-131469760D01*
X120410768Y-131407849D01*
X120471483Y-131373275D01*
X120541253Y-131377014D01*
X120597925Y-131417881D01*
X120621617Y-131469760D01*
X120640261Y-131563489D01*
X120640264Y-131563501D01*
X120700602Y-131709172D01*
X120700609Y-131709185D01*
X120788210Y-131840288D01*
X120788213Y-131840292D01*
X120899707Y-131951786D01*
X120899711Y-131951789D01*
X121030814Y-132039390D01*
X121030827Y-132039397D01*
X121176498Y-132099735D01*
X121176503Y-132099737D01*
X121331153Y-132130499D01*
X121331156Y-132130500D01*
X121331158Y-132130500D01*
X121488844Y-132130500D01*
X121488845Y-132130499D01*
X121643497Y-132099737D01*
X121789179Y-132039394D01*
X121920289Y-131951789D01*
X122031789Y-131840289D01*
X122066960Y-131787650D01*
X144835400Y-131787650D01*
X144835400Y-132032350D01*
X144836515Y-132039390D01*
X144873680Y-132274037D01*
X144873680Y-132274040D01*
X144949294Y-132506756D01*
X144949296Y-132506759D01*
X145060387Y-132724788D01*
X145204218Y-132922754D01*
X145377246Y-133095782D01*
X145575212Y-133239613D01*
X145793241Y-133350704D01*
X145793243Y-133350705D01*
X146010311Y-133421234D01*
X146025964Y-133426320D01*
X146267650Y-133464600D01*
X146267651Y-133464600D01*
X146512349Y-133464600D01*
X146512350Y-133464600D01*
X146754036Y-133426320D01*
X146754039Y-133426319D01*
X146754040Y-133426319D01*
X146986756Y-133350705D01*
X146986756Y-133350704D01*
X146986759Y-133350704D01*
X147204788Y-133239613D01*
X147402754Y-133095782D01*
X147575782Y-132922754D01*
X147719613Y-132724788D01*
X147830704Y-132506759D01*
X147906320Y-132274036D01*
X147944600Y-132032350D01*
X147944600Y-131787650D01*
X147906320Y-131545964D01*
X147906319Y-131545960D01*
X147906319Y-131545959D01*
X147830705Y-131313243D01*
X147830703Y-131313240D01*
X147808363Y-131269394D01*
X147719613Y-131095212D01*
X147575782Y-130897246D01*
X147402754Y-130724218D01*
X147204788Y-130580387D01*
X146986759Y-130469296D01*
X146986756Y-130469294D01*
X146754038Y-130393680D01*
X146592912Y-130368160D01*
X146512350Y-130355400D01*
X146267650Y-130355400D01*
X146187088Y-130368160D01*
X146025962Y-130393680D01*
X146025959Y-130393680D01*
X145793243Y-130469294D01*
X145793240Y-130469296D01*
X145575211Y-130580387D01*
X145484748Y-130646113D01*
X145377246Y-130724218D01*
X145377244Y-130724220D01*
X145377243Y-130724220D01*
X145204220Y-130897243D01*
X145204220Y-130897244D01*
X145204218Y-130897246D01*
X145165289Y-130950827D01*
X145060387Y-131095211D01*
X144949296Y-131313240D01*
X144949294Y-131313243D01*
X144873680Y-131545959D01*
X144873680Y-131545962D01*
X144873680Y-131545964D01*
X144835400Y-131787650D01*
X122066960Y-131787650D01*
X122070528Y-131782310D01*
X122116249Y-131713887D01*
X122119391Y-131709183D01*
X122119394Y-131709179D01*
X122179737Y-131563497D01*
X122210500Y-131408842D01*
X122210500Y-131251158D01*
X122210500Y-131251155D01*
X122210499Y-131251153D01*
X122179738Y-131096510D01*
X122179737Y-131096503D01*
X122179202Y-131095211D01*
X122119397Y-130950827D01*
X122119390Y-130950814D01*
X122031789Y-130819711D01*
X122031786Y-130819707D01*
X121920292Y-130708213D01*
X121920288Y-130708210D01*
X121789185Y-130620609D01*
X121789172Y-130620602D01*
X121717048Y-130590728D01*
X121662644Y-130546887D01*
X121642730Y-130487057D01*
X121641097Y-130487218D01*
X121640500Y-130481163D01*
X121640500Y-130481158D01*
X121609737Y-130326503D01*
X121582312Y-130260292D01*
X121549397Y-130180827D01*
X121549390Y-130180814D01*
X121461789Y-130049711D01*
X121461786Y-130049707D01*
X121350292Y-129938213D01*
X121350288Y-129938210D01*
X121219185Y-129850609D01*
X121219172Y-129850602D01*
X121073501Y-129790264D01*
X121073489Y-129790261D01*
X120918845Y-129759500D01*
X120918842Y-129759500D01*
X120761158Y-129759500D01*
X120761157Y-129759500D01*
X120754751Y-129760774D01*
X120748498Y-129760214D01*
X120742677Y-129762563D01*
X120714116Y-129757136D01*
X120685160Y-129754545D01*
X120680202Y-129750693D01*
X120674036Y-129749522D01*
X120652943Y-129729517D01*
X120629983Y-129711680D01*
X120626744Y-129704669D01*
X120623341Y-129701441D01*
X120614736Y-129678669D01*
X120610136Y-129668710D01*
X120609487Y-129666065D01*
X120579737Y-129516503D01*
X120562673Y-129475306D01*
X120560424Y-129466142D01*
X120561586Y-129440295D01*
X120558821Y-129414572D01*
X120563131Y-129405961D01*
X120563564Y-129396343D01*
X120578515Y-129375228D01*
X120590096Y-129352093D01*
X120593155Y-129348921D01*
X120641789Y-129300289D01*
X120697956Y-129216229D01*
X169119000Y-129216229D01*
X169119000Y-129398970D01*
X169137615Y-129516498D01*
X169147585Y-129579445D01*
X169203227Y-129750693D01*
X169204053Y-129753233D01*
X169206042Y-129757136D01*
X169287009Y-129916044D01*
X169394415Y-130063876D01*
X169523624Y-130193085D01*
X169671456Y-130300491D01*
X169834269Y-130383448D01*
X170008055Y-130439915D01*
X170075735Y-130450634D01*
X170188530Y-130468500D01*
X170188535Y-130468500D01*
X170371270Y-130468500D01*
X170471531Y-130452619D01*
X170551745Y-130439915D01*
X170725531Y-130383448D01*
X170888344Y-130300491D01*
X171036176Y-130193085D01*
X171165385Y-130063876D01*
X171272791Y-129916044D01*
X171355748Y-129753231D01*
X171412215Y-129579445D01*
X171424919Y-129499231D01*
X171440800Y-129398970D01*
X171440800Y-129216229D01*
X171412215Y-129035758D01*
X171412215Y-129035755D01*
X171355748Y-128861969D01*
X171272791Y-128699156D01*
X171165385Y-128551324D01*
X171036176Y-128422115D01*
X170888344Y-128314709D01*
X170725531Y-128231752D01*
X170551745Y-128175285D01*
X170551743Y-128175284D01*
X170551741Y-128175284D01*
X170371270Y-128146700D01*
X170371265Y-128146700D01*
X170188535Y-128146700D01*
X170188530Y-128146700D01*
X170008058Y-128175284D01*
X169834266Y-128231753D01*
X169671455Y-128314709D01*
X169523621Y-128422117D01*
X169394417Y-128551321D01*
X169287009Y-128699155D01*
X169204053Y-128861966D01*
X169147584Y-129035758D01*
X169119000Y-129216229D01*
X120697956Y-129216229D01*
X120729394Y-129169179D01*
X120744585Y-129132506D01*
X120784658Y-129035758D01*
X120789737Y-129023497D01*
X120820500Y-128868842D01*
X120820500Y-128711158D01*
X120820500Y-128711155D01*
X120820499Y-128711153D01*
X120789738Y-128556510D01*
X120789737Y-128556503D01*
X120734073Y-128422117D01*
X120729397Y-128410827D01*
X120729390Y-128410814D01*
X120641789Y-128279711D01*
X120641786Y-128279707D01*
X120530292Y-128168213D01*
X120530288Y-128168210D01*
X120399185Y-128080609D01*
X120399172Y-128080602D01*
X120253501Y-128020264D01*
X120253489Y-128020261D01*
X120098845Y-127989500D01*
X120098842Y-127989500D01*
X119941158Y-127989500D01*
X119941155Y-127989500D01*
X119786510Y-128020261D01*
X119786498Y-128020264D01*
X119640827Y-128080602D01*
X119640814Y-128080609D01*
X119509711Y-128168210D01*
X119509707Y-128168213D01*
X119398213Y-128279707D01*
X119398210Y-128279711D01*
X119310609Y-128410814D01*
X119310602Y-128410827D01*
X119250264Y-128556498D01*
X119250261Y-128556510D01*
X119219500Y-128711153D01*
X119219500Y-128868846D01*
X119250260Y-129023488D01*
X119250263Y-129023498D01*
X119263709Y-129055959D01*
X119271178Y-129125429D01*
X119239902Y-129187908D01*
X119236830Y-129191091D01*
X119188212Y-129239709D01*
X119188208Y-129239714D01*
X119100609Y-129370814D01*
X119100602Y-129370827D01*
X119040264Y-129516498D01*
X119040261Y-129516510D01*
X119009500Y-129671153D01*
X119009500Y-129828846D01*
X119040261Y-129983489D01*
X119040264Y-129983501D01*
X119100602Y-130129172D01*
X119100609Y-130129185D01*
X119188210Y-130260288D01*
X119188213Y-130260292D01*
X119299707Y-130371786D01*
X119299712Y-130371790D01*
X119302678Y-130373772D01*
X119303881Y-130375211D01*
X119304419Y-130375653D01*
X119304335Y-130375755D01*
X119307720Y-130379805D01*
X119314880Y-130383065D01*
X119329811Y-130406237D01*
X119347484Y-130427384D01*
X119348464Y-130435187D01*
X119352724Y-130441798D01*
X119352757Y-130469358D01*
X119356193Y-130496708D01*
X119352798Y-130503803D01*
X119352808Y-130511668D01*
X119337933Y-130534874D01*
X119326039Y-130559736D01*
X119318391Y-130565362D01*
X119315104Y-130570491D01*
X119291969Y-130584800D01*
X119285435Y-130589608D01*
X119283337Y-130590568D01*
X119210821Y-130620606D01*
X119195659Y-130630736D01*
X119186646Y-130634866D01*
X119161475Y-130638515D01*
X119137208Y-130646113D01*
X119127482Y-130643444D01*
X119117499Y-130644892D01*
X119094349Y-130634353D01*
X119069828Y-130627625D01*
X119066114Y-130625238D01*
X119059190Y-130620612D01*
X119059172Y-130620602D01*
X118913501Y-130560264D01*
X118913489Y-130560261D01*
X118758845Y-130529500D01*
X118758842Y-130529500D01*
X118601158Y-130529500D01*
X118601155Y-130529500D01*
X118446510Y-130560261D01*
X118446498Y-130560264D01*
X118300827Y-130620602D01*
X118300814Y-130620609D01*
X118169711Y-130708210D01*
X118169707Y-130708213D01*
X118058213Y-130819707D01*
X118058210Y-130819711D01*
X117970609Y-130950814D01*
X117970602Y-130950827D01*
X117910264Y-131096498D01*
X117910261Y-131096510D01*
X117879500Y-131251153D01*
X116210500Y-131251153D01*
X116210500Y-127258337D01*
X116230185Y-127191298D01*
X116282989Y-127145543D01*
X116352147Y-127135599D01*
X116415703Y-127164624D01*
X116437602Y-127189446D01*
X116458210Y-127220288D01*
X116458213Y-127220292D01*
X116569707Y-127331786D01*
X116569711Y-127331789D01*
X116700814Y-127419390D01*
X116700827Y-127419397D01*
X116846498Y-127479735D01*
X116846503Y-127479737D01*
X117001153Y-127510499D01*
X117001156Y-127510500D01*
X117001158Y-127510500D01*
X117158844Y-127510500D01*
X117158845Y-127510499D01*
X117313497Y-127479737D01*
X117459179Y-127419394D01*
X117590289Y-127331789D01*
X117701789Y-127220289D01*
X117789394Y-127089179D01*
X117849737Y-126943497D01*
X117880500Y-126788842D01*
X117880500Y-126631158D01*
X117880500Y-126631155D01*
X117880499Y-126631153D01*
X117849738Y-126476510D01*
X117849737Y-126476503D01*
X117794212Y-126342452D01*
X117786743Y-126272983D01*
X117794212Y-126247548D01*
X117849735Y-126113501D01*
X117849737Y-126113497D01*
X117880500Y-125958842D01*
X117880500Y-125801158D01*
X117880500Y-125801155D01*
X117880499Y-125801153D01*
X117849738Y-125646510D01*
X117849737Y-125646503D01*
X117849735Y-125646498D01*
X117789397Y-125500827D01*
X117789390Y-125500814D01*
X117704582Y-125373891D01*
X117683704Y-125307214D01*
X117702188Y-125239834D01*
X117704582Y-125236109D01*
X117789390Y-125109185D01*
X117789390Y-125109184D01*
X117789394Y-125109179D01*
X117849737Y-124963497D01*
X117880500Y-124808842D01*
X117880500Y-124651158D01*
X117880500Y-124651155D01*
X117880499Y-124651153D01*
X117849738Y-124496510D01*
X117849737Y-124496503D01*
X117794212Y-124362452D01*
X117786743Y-124292983D01*
X117794212Y-124267548D01*
X117849735Y-124133501D01*
X117849737Y-124133497D01*
X117880500Y-123978842D01*
X117880500Y-123821158D01*
X117880500Y-123821155D01*
X117848704Y-123661310D01*
X117854931Y-123591718D01*
X117882639Y-123549438D01*
X117951789Y-123480289D01*
X118039394Y-123349179D01*
X118084112Y-123241217D01*
X118127951Y-123186817D01*
X118151210Y-123174115D01*
X118259179Y-123129394D01*
X118390289Y-123041789D01*
X118501789Y-122930289D01*
X118589394Y-122799179D01*
X118649737Y-122653497D01*
X118680500Y-122498842D01*
X118680500Y-122341158D01*
X118680500Y-122341155D01*
X118680499Y-122341153D01*
X118649737Y-122186503D01*
X118634112Y-122148780D01*
X118589397Y-122040827D01*
X118589390Y-122040814D01*
X118501789Y-121909711D01*
X118501786Y-121909707D01*
X118390292Y-121798213D01*
X118390288Y-121798210D01*
X118259185Y-121710609D01*
X118259172Y-121710602D01*
X118113501Y-121650264D01*
X118113489Y-121650261D01*
X117958845Y-121619500D01*
X117958842Y-121619500D01*
X117801158Y-121619500D01*
X117801155Y-121619500D01*
X117646510Y-121650261D01*
X117646498Y-121650264D01*
X117500827Y-121710602D01*
X117500814Y-121710609D01*
X117369711Y-121798210D01*
X117369707Y-121798213D01*
X117258213Y-121909707D01*
X117258210Y-121909711D01*
X117170609Y-122040814D01*
X117170604Y-122040823D01*
X117125888Y-122148780D01*
X117082047Y-122203183D01*
X117058780Y-122215888D01*
X116950823Y-122260604D01*
X116950814Y-122260609D01*
X116819711Y-122348210D01*
X116819707Y-122348213D01*
X116708213Y-122459707D01*
X116708210Y-122459711D01*
X116620609Y-122590814D01*
X116620602Y-122590827D01*
X116560264Y-122736498D01*
X116560261Y-122736510D01*
X116529500Y-122891153D01*
X116529500Y-123048846D01*
X116561295Y-123208689D01*
X116560928Y-123212788D01*
X116562598Y-123216551D01*
X116557840Y-123247293D01*
X116555068Y-123278280D01*
X116552362Y-123282695D01*
X116551913Y-123285599D01*
X116541471Y-123300467D01*
X116532514Y-123315084D01*
X116530009Y-123317912D01*
X116458211Y-123389711D01*
X116432925Y-123427554D01*
X116427336Y-123433866D01*
X116404592Y-123448139D01*
X116383988Y-123465359D01*
X116375446Y-123466431D01*
X116368156Y-123471007D01*
X116341308Y-123470718D01*
X116314663Y-123474065D01*
X116306897Y-123470349D01*
X116298290Y-123470257D01*
X116275858Y-123455498D01*
X116251636Y-123443909D01*
X116247112Y-123436585D01*
X116239921Y-123431854D01*
X116229029Y-123407310D01*
X116214918Y-123384466D01*
X116213186Y-123371611D01*
X116211580Y-123367991D01*
X116212178Y-123364124D01*
X116210500Y-123351662D01*
X116210500Y-117311153D01*
X120169500Y-117311153D01*
X120169500Y-117468846D01*
X120200261Y-117623489D01*
X120200264Y-117623501D01*
X120260602Y-117769172D01*
X120260609Y-117769185D01*
X120348210Y-117900288D01*
X120348213Y-117900292D01*
X120459707Y-118011786D01*
X120459711Y-118011789D01*
X120590814Y-118099390D01*
X120590827Y-118099397D01*
X120736498Y-118159735D01*
X120736503Y-118159737D01*
X120891153Y-118190499D01*
X120891156Y-118190500D01*
X120891158Y-118190500D01*
X121048844Y-118190500D01*
X121048845Y-118190499D01*
X121203497Y-118159737D01*
X121297550Y-118120778D01*
X121367016Y-118113310D01*
X121392443Y-118120775D01*
X121486503Y-118159737D01*
X121641153Y-118190499D01*
X121641156Y-118190500D01*
X121641158Y-118190500D01*
X121798844Y-118190500D01*
X121931308Y-118164151D01*
X122000900Y-118170378D01*
X122056077Y-118213241D01*
X122079322Y-118279131D01*
X122079500Y-118285768D01*
X122079500Y-119109573D01*
X122059815Y-119176612D01*
X122015855Y-119217175D01*
X122015886Y-119217221D01*
X122015596Y-119217414D01*
X122013953Y-119218931D01*
X122010822Y-119220604D01*
X121879711Y-119308210D01*
X121879707Y-119308213D01*
X121768213Y-119419707D01*
X121768210Y-119419711D01*
X121680609Y-119550814D01*
X121680602Y-119550827D01*
X121620264Y-119696498D01*
X121620261Y-119696510D01*
X121589500Y-119851153D01*
X121589500Y-120008846D01*
X121620261Y-120163489D01*
X121620264Y-120163501D01*
X121680602Y-120309172D01*
X121680609Y-120309185D01*
X121768210Y-120440288D01*
X121768213Y-120440292D01*
X121879707Y-120551786D01*
X121879711Y-120551789D01*
X122010814Y-120639390D01*
X122010827Y-120639397D01*
X122156498Y-120699735D01*
X122156503Y-120699737D01*
X122308499Y-120729971D01*
X122311153Y-120730499D01*
X122311156Y-120730500D01*
X122311158Y-120730500D01*
X122468844Y-120730500D01*
X122468845Y-120730499D01*
X122623497Y-120699737D01*
X122695574Y-120669882D01*
X122753048Y-120646076D01*
X122822517Y-120638607D01*
X122884996Y-120669882D01*
X122920648Y-120729971D01*
X122924500Y-120760637D01*
X122924500Y-120778846D01*
X122955261Y-120933489D01*
X122955264Y-120933501D01*
X123015602Y-121079172D01*
X123015609Y-121079185D01*
X123103210Y-121210288D01*
X123103213Y-121210292D01*
X123214707Y-121321786D01*
X123214711Y-121321789D01*
X123345814Y-121409390D01*
X123345827Y-121409397D01*
X123491498Y-121469735D01*
X123491503Y-121469737D01*
X123646153Y-121500499D01*
X123646156Y-121500500D01*
X123646158Y-121500500D01*
X123803844Y-121500500D01*
X123803845Y-121500499D01*
X123958497Y-121469737D01*
X124104179Y-121409394D01*
X124235289Y-121321789D01*
X124346789Y-121210289D01*
X124434394Y-121079179D01*
X124494737Y-120933497D01*
X124525500Y-120778842D01*
X124525500Y-120621158D01*
X124525500Y-120621155D01*
X124525499Y-120621153D01*
X124494737Y-120466503D01*
X124483879Y-120440289D01*
X124434397Y-120320827D01*
X124434390Y-120320814D01*
X124346398Y-120189125D01*
X124340747Y-120171078D01*
X124330523Y-120155169D01*
X124326071Y-120124207D01*
X124325520Y-120122447D01*
X124325500Y-120120234D01*
X124325500Y-120050097D01*
X124345185Y-119983058D01*
X124361819Y-119962416D01*
X125312417Y-119011819D01*
X125373740Y-118978334D01*
X125400098Y-118975500D01*
X126798386Y-118975500D01*
X126865425Y-118995185D01*
X126911180Y-119047989D01*
X126912947Y-119052048D01*
X126965602Y-119179172D01*
X126965609Y-119179185D01*
X127053210Y-119310288D01*
X127053213Y-119310292D01*
X127164707Y-119421786D01*
X127164711Y-119421789D01*
X127295814Y-119509390D01*
X127295827Y-119509397D01*
X127441498Y-119569735D01*
X127441503Y-119569737D01*
X127596153Y-119600499D01*
X127596156Y-119600500D01*
X127596158Y-119600500D01*
X127753844Y-119600500D01*
X127753845Y-119600499D01*
X127908497Y-119569737D01*
X128054179Y-119509394D01*
X128185289Y-119421789D01*
X128296789Y-119310289D01*
X128384394Y-119179179D01*
X128444737Y-119033497D01*
X128475500Y-118878842D01*
X128475500Y-118721158D01*
X128475500Y-118721155D01*
X128475499Y-118721153D01*
X128444738Y-118566510D01*
X128444737Y-118566503D01*
X128444735Y-118566498D01*
X128384397Y-118420827D01*
X128384390Y-118420814D01*
X128296789Y-118289711D01*
X128296786Y-118289707D01*
X128185292Y-118178213D01*
X128185288Y-118178210D01*
X128054185Y-118090609D01*
X128054172Y-118090602D01*
X127908501Y-118030264D01*
X127908491Y-118030261D01*
X127753151Y-117999362D01*
X127736394Y-117990596D01*
X127717916Y-117986577D01*
X127692877Y-117967832D01*
X127691241Y-117966977D01*
X127689662Y-117965426D01*
X127655957Y-117931721D01*
X127622472Y-117870398D01*
X127627456Y-117800706D01*
X127669328Y-117744773D01*
X127719446Y-117722423D01*
X127833497Y-117699737D01*
X127979179Y-117639394D01*
X128110289Y-117551789D01*
X128221789Y-117440289D01*
X128309394Y-117309179D01*
X128369737Y-117163497D01*
X128400500Y-117008842D01*
X128400500Y-116851158D01*
X128400500Y-116851155D01*
X128400499Y-116851153D01*
X128384001Y-116768213D01*
X128369737Y-116696503D01*
X128338157Y-116620261D01*
X128309397Y-116550827D01*
X128309390Y-116550814D01*
X128221789Y-116419711D01*
X128221786Y-116419707D01*
X128110292Y-116308213D01*
X128110288Y-116308210D01*
X127979185Y-116220609D01*
X127979172Y-116220602D01*
X127833501Y-116160264D01*
X127833489Y-116160261D01*
X127678845Y-116129500D01*
X127678842Y-116129500D01*
X127521158Y-116129500D01*
X127521155Y-116129500D01*
X127366510Y-116160261D01*
X127366498Y-116160264D01*
X127220827Y-116220602D01*
X127220814Y-116220609D01*
X127089711Y-116308210D01*
X127089707Y-116308213D01*
X126978213Y-116419707D01*
X126978210Y-116419711D01*
X126890609Y-116550814D01*
X126890602Y-116550827D01*
X126830264Y-116696498D01*
X126830261Y-116696510D01*
X126799500Y-116851153D01*
X126799500Y-117008846D01*
X126830261Y-117163489D01*
X126830264Y-117163501D01*
X126890602Y-117309172D01*
X126890609Y-117309185D01*
X126978210Y-117440288D01*
X126978213Y-117440292D01*
X127089707Y-117551786D01*
X127093192Y-117554646D01*
X127132527Y-117612391D01*
X127134398Y-117682236D01*
X127098212Y-117742004D01*
X127035456Y-117772721D01*
X127014528Y-117774500D01*
X125186670Y-117774500D01*
X125186654Y-117774499D01*
X125179058Y-117774499D01*
X125020943Y-117774499D01*
X124944579Y-117794961D01*
X124868214Y-117815423D01*
X124868209Y-117815426D01*
X124731290Y-117894475D01*
X124731282Y-117894481D01*
X123492181Y-119133583D01*
X123430858Y-119167068D01*
X123361166Y-119162084D01*
X123305233Y-119120212D01*
X123280816Y-119054748D01*
X123280500Y-119045902D01*
X123280500Y-109640945D01*
X123280500Y-109640943D01*
X123239577Y-109488215D01*
X123239575Y-109488211D01*
X123212113Y-109440645D01*
X123195500Y-109378645D01*
X123195500Y-107525096D01*
X123204144Y-107495655D01*
X123210668Y-107465669D01*
X123214422Y-107460653D01*
X123215185Y-107458057D01*
X123231814Y-107437420D01*
X123298078Y-107371156D01*
X164749500Y-107371156D01*
X164749500Y-107528846D01*
X164780261Y-107683489D01*
X164780264Y-107683501D01*
X164840602Y-107829172D01*
X164840609Y-107829185D01*
X164928210Y-107960288D01*
X164928213Y-107960292D01*
X165039707Y-108071786D01*
X165039711Y-108071789D01*
X165170814Y-108159390D01*
X165170827Y-108159397D01*
X165316498Y-108219735D01*
X165316503Y-108219737D01*
X165471153Y-108250499D01*
X165471156Y-108250500D01*
X165471158Y-108250500D01*
X165628844Y-108250500D01*
X165628845Y-108250499D01*
X165783497Y-108219737D01*
X165929179Y-108159394D01*
X166060289Y-108071789D01*
X166171789Y-107960289D01*
X166259394Y-107829179D01*
X166319737Y-107683497D01*
X166350500Y-107528842D01*
X166350500Y-107371158D01*
X166338233Y-107309487D01*
X166335850Y-107285295D01*
X166335850Y-105489850D01*
X166355535Y-105422811D01*
X166408339Y-105377056D01*
X166459850Y-105365850D01*
X169757401Y-105365850D01*
X169757402Y-105365849D01*
X169909224Y-105335650D01*
X170052239Y-105276411D01*
X170180951Y-105190409D01*
X170729218Y-104642140D01*
X170748002Y-104626725D01*
X170800289Y-104591789D01*
X170911789Y-104480289D01*
X170999394Y-104349179D01*
X171059737Y-104203497D01*
X171090500Y-104048842D01*
X171090500Y-103891158D01*
X171090500Y-103891155D01*
X171090499Y-103891153D01*
X171077211Y-103824350D01*
X171059737Y-103736503D01*
X171005168Y-103604760D01*
X170999397Y-103590827D01*
X170999390Y-103590814D01*
X170911789Y-103459711D01*
X170911786Y-103459707D01*
X170800292Y-103348213D01*
X170800288Y-103348210D01*
X170669185Y-103260609D01*
X170669172Y-103260602D01*
X170523501Y-103200264D01*
X170523489Y-103200261D01*
X170368845Y-103169500D01*
X170368842Y-103169500D01*
X170211158Y-103169500D01*
X170211155Y-103169500D01*
X170056510Y-103200261D01*
X170056498Y-103200264D01*
X169910827Y-103260602D01*
X169910816Y-103260608D01*
X169903386Y-103265573D01*
X169836707Y-103286447D01*
X169769328Y-103267959D01*
X169722640Y-103215978D01*
X169710500Y-103162467D01*
X169710500Y-103141155D01*
X169710499Y-103141153D01*
X169679738Y-102986510D01*
X169679737Y-102986503D01*
X169679735Y-102986498D01*
X169619397Y-102840827D01*
X169619390Y-102840814D01*
X169531789Y-102709711D01*
X169531786Y-102709707D01*
X169420292Y-102598213D01*
X169420288Y-102598210D01*
X169289185Y-102510609D01*
X169289172Y-102510602D01*
X169143501Y-102450264D01*
X169143489Y-102450261D01*
X168988845Y-102419500D01*
X168988842Y-102419500D01*
X168831158Y-102419500D01*
X168831155Y-102419500D01*
X168676510Y-102450261D01*
X168676498Y-102450264D01*
X168530827Y-102510602D01*
X168530814Y-102510609D01*
X168448891Y-102565349D01*
X168382213Y-102586227D01*
X168314833Y-102567742D01*
X168311109Y-102565349D01*
X168229185Y-102510609D01*
X168229172Y-102510602D01*
X168083501Y-102450264D01*
X168083489Y-102450261D01*
X167928845Y-102419500D01*
X167928842Y-102419500D01*
X167771158Y-102419500D01*
X167771155Y-102419500D01*
X167616510Y-102450261D01*
X167616498Y-102450264D01*
X167470827Y-102510602D01*
X167470814Y-102510609D01*
X167339711Y-102598210D01*
X167339707Y-102598213D01*
X167228213Y-102709707D01*
X167228210Y-102709711D01*
X167140609Y-102840814D01*
X167140602Y-102840827D01*
X167080264Y-102986498D01*
X167080261Y-102986510D01*
X167049500Y-103141153D01*
X167049500Y-103298846D01*
X167080261Y-103453489D01*
X167080264Y-103453501D01*
X167140602Y-103599172D01*
X167140611Y-103599188D01*
X167141996Y-103601261D01*
X167142387Y-103602512D01*
X167143479Y-103604554D01*
X167143091Y-103604760D01*
X167162873Y-103667938D01*
X167144388Y-103735318D01*
X167092408Y-103782008D01*
X167038893Y-103794150D01*
X165952598Y-103794150D01*
X165800783Y-103824348D01*
X165800775Y-103824350D01*
X165657758Y-103883589D01*
X165529051Y-103969588D01*
X165529044Y-103969594D01*
X164939594Y-104559044D01*
X164939591Y-104559049D01*
X164917715Y-104591789D01*
X164894373Y-104626723D01*
X164853588Y-104687761D01*
X164794350Y-104830775D01*
X164794348Y-104830783D01*
X164764150Y-104982596D01*
X164764150Y-107285295D01*
X164761767Y-107309487D01*
X164749500Y-107371156D01*
X123298078Y-107371156D01*
X132348506Y-98320727D01*
X132348511Y-98320724D01*
X132358714Y-98310520D01*
X132358716Y-98310520D01*
X132470520Y-98198716D01*
X132549577Y-98061784D01*
X132590500Y-97909057D01*
X132590500Y-97341153D01*
X146689500Y-97341153D01*
X146689500Y-97498846D01*
X146720261Y-97653489D01*
X146720264Y-97653501D01*
X146780602Y-97799172D01*
X146780609Y-97799185D01*
X146868210Y-97930288D01*
X146868213Y-97930292D01*
X146979707Y-98041786D01*
X146979711Y-98041789D01*
X147037766Y-98080581D01*
X147082571Y-98134194D01*
X147091278Y-98203519D01*
X147061123Y-98266546D01*
X147056557Y-98271363D01*
X147018214Y-98309706D01*
X147018210Y-98309711D01*
X146930609Y-98440814D01*
X146930602Y-98440827D01*
X146870264Y-98586498D01*
X146870261Y-98586510D01*
X146839500Y-98741153D01*
X146839500Y-98898846D01*
X146870261Y-99053489D01*
X146870264Y-99053501D01*
X146930602Y-99199172D01*
X146930609Y-99199185D01*
X147018210Y-99330288D01*
X147018213Y-99330292D01*
X147129707Y-99441786D01*
X147129711Y-99441789D01*
X147260814Y-99529390D01*
X147260827Y-99529397D01*
X147406498Y-99589735D01*
X147406503Y-99589737D01*
X147561153Y-99620499D01*
X147561156Y-99620500D01*
X147561158Y-99620500D01*
X147718844Y-99620500D01*
X147718845Y-99620499D01*
X147873497Y-99589737D01*
X148019179Y-99529394D01*
X148150289Y-99441789D01*
X148261789Y-99330289D01*
X148349394Y-99199179D01*
X148409737Y-99053497D01*
X148440500Y-98898842D01*
X148440500Y-98741158D01*
X148440500Y-98741155D01*
X148440499Y-98741153D01*
X148420258Y-98639397D01*
X148409737Y-98586503D01*
X148409362Y-98585597D01*
X148349397Y-98440827D01*
X148349390Y-98440814D01*
X148261789Y-98309711D01*
X148261786Y-98309707D01*
X148150291Y-98198212D01*
X148133443Y-98186954D01*
X148092231Y-98159418D01*
X148047428Y-98105808D01*
X148038720Y-98036483D01*
X148068874Y-97973455D01*
X148073443Y-97968635D01*
X148111786Y-97930292D01*
X148111789Y-97930289D01*
X148164666Y-97851153D01*
X167059500Y-97851153D01*
X167059500Y-98008846D01*
X167090261Y-98163489D01*
X167090264Y-98163501D01*
X167150602Y-98309172D01*
X167150609Y-98309185D01*
X167238210Y-98440288D01*
X167238213Y-98440292D01*
X167349707Y-98551786D01*
X167349711Y-98551789D01*
X167480814Y-98639390D01*
X167480827Y-98639397D01*
X167626498Y-98699735D01*
X167626503Y-98699737D01*
X167781153Y-98730499D01*
X167781156Y-98730500D01*
X167781158Y-98730500D01*
X167938844Y-98730500D01*
X167938845Y-98730499D01*
X168093497Y-98699737D01*
X168239179Y-98639394D01*
X168316109Y-98587991D01*
X168382786Y-98567113D01*
X168450166Y-98585597D01*
X168453891Y-98587991D01*
X168530821Y-98639394D01*
X168530823Y-98639395D01*
X168530827Y-98639397D01*
X168676498Y-98699735D01*
X168676503Y-98699737D01*
X168831153Y-98730499D01*
X168831156Y-98730500D01*
X168831158Y-98730500D01*
X168988844Y-98730500D01*
X168988845Y-98730499D01*
X169143497Y-98699737D01*
X169289179Y-98639394D01*
X169420289Y-98551789D01*
X169531789Y-98440289D01*
X169619394Y-98309179D01*
X169679737Y-98163497D01*
X169710500Y-98008842D01*
X169710500Y-97851158D01*
X169710500Y-97851155D01*
X169710499Y-97851153D01*
X169699849Y-97797611D01*
X169679737Y-97696503D01*
X169661925Y-97653501D01*
X169619397Y-97550827D01*
X169619390Y-97550814D01*
X169531789Y-97419711D01*
X169531786Y-97419707D01*
X169420292Y-97308213D01*
X169420288Y-97308210D01*
X169289185Y-97220609D01*
X169289172Y-97220602D01*
X169143501Y-97160264D01*
X169143489Y-97160261D01*
X168988845Y-97129500D01*
X168988842Y-97129500D01*
X168831158Y-97129500D01*
X168831155Y-97129500D01*
X168676510Y-97160261D01*
X168676498Y-97160264D01*
X168530827Y-97220602D01*
X168530809Y-97220612D01*
X168453890Y-97272008D01*
X168387213Y-97292886D01*
X168319833Y-97274401D01*
X168316110Y-97272008D01*
X168239190Y-97220612D01*
X168239172Y-97220602D01*
X168093501Y-97160264D01*
X168093489Y-97160261D01*
X167938845Y-97129500D01*
X167938842Y-97129500D01*
X167781158Y-97129500D01*
X167781155Y-97129500D01*
X167626510Y-97160261D01*
X167626498Y-97160264D01*
X167480827Y-97220602D01*
X167480814Y-97220609D01*
X167349711Y-97308210D01*
X167349707Y-97308213D01*
X167238213Y-97419707D01*
X167238210Y-97419711D01*
X167150609Y-97550814D01*
X167150602Y-97550827D01*
X167090264Y-97696498D01*
X167090261Y-97696510D01*
X167059500Y-97851153D01*
X148164666Y-97851153D01*
X148199394Y-97799179D01*
X148199709Y-97798417D01*
X148200044Y-97797611D01*
X148200044Y-97797610D01*
X148213914Y-97764123D01*
X148259737Y-97653497D01*
X148290500Y-97498842D01*
X148290500Y-97341158D01*
X148290500Y-97341155D01*
X148290499Y-97341153D01*
X148276745Y-97272008D01*
X148259737Y-97186503D01*
X148236126Y-97129500D01*
X148199397Y-97040827D01*
X148199390Y-97040814D01*
X148111789Y-96909711D01*
X148111786Y-96909707D01*
X148000292Y-96798213D01*
X148000288Y-96798210D01*
X147869185Y-96710609D01*
X147869172Y-96710602D01*
X147723501Y-96650264D01*
X147723489Y-96650261D01*
X147568845Y-96619500D01*
X147568842Y-96619500D01*
X147411158Y-96619500D01*
X147411155Y-96619500D01*
X147256510Y-96650261D01*
X147256498Y-96650264D01*
X147110827Y-96710602D01*
X147110814Y-96710609D01*
X146979711Y-96798210D01*
X146979707Y-96798213D01*
X146868213Y-96909707D01*
X146868210Y-96909711D01*
X146780609Y-97040814D01*
X146780602Y-97040827D01*
X146720264Y-97186498D01*
X146720261Y-97186510D01*
X146689500Y-97341153D01*
X132590500Y-97341153D01*
X132590500Y-90211153D01*
X144939500Y-90211153D01*
X144939500Y-90368846D01*
X144970261Y-90523489D01*
X144970264Y-90523501D01*
X145030602Y-90669172D01*
X145030609Y-90669185D01*
X145118210Y-90800288D01*
X145118213Y-90800292D01*
X145229707Y-90911786D01*
X145229711Y-90911789D01*
X145360814Y-90999390D01*
X145360827Y-90999397D01*
X145506498Y-91059735D01*
X145506503Y-91059737D01*
X145661153Y-91090499D01*
X145661156Y-91090500D01*
X145661158Y-91090500D01*
X145818844Y-91090500D01*
X145818845Y-91090499D01*
X145973497Y-91059737D01*
X146119179Y-90999394D01*
X146250289Y-90911789D01*
X146361789Y-90800289D01*
X146449394Y-90669179D01*
X146509737Y-90523497D01*
X146540500Y-90368842D01*
X146540500Y-90211158D01*
X146540500Y-90211155D01*
X146540499Y-90211153D01*
X146528455Y-90150606D01*
X146509737Y-90056503D01*
X146449596Y-89911308D01*
X146449397Y-89910827D01*
X146449390Y-89910814D01*
X146361789Y-89779711D01*
X146361786Y-89779707D01*
X146250292Y-89668213D01*
X146250288Y-89668210D01*
X146119185Y-89580609D01*
X146119172Y-89580602D01*
X145973501Y-89520264D01*
X145973489Y-89520261D01*
X145818845Y-89489500D01*
X145818842Y-89489500D01*
X145661158Y-89489500D01*
X145661155Y-89489500D01*
X145506510Y-89520261D01*
X145506498Y-89520264D01*
X145360827Y-89580602D01*
X145360814Y-89580609D01*
X145229711Y-89668210D01*
X145229707Y-89668213D01*
X145118213Y-89779707D01*
X145118210Y-89779711D01*
X145030609Y-89910814D01*
X145030602Y-89910827D01*
X144970264Y-90056498D01*
X144970261Y-90056510D01*
X144939500Y-90211153D01*
X132590500Y-90211153D01*
X132590500Y-83940096D01*
X132610185Y-83873057D01*
X132626815Y-83852419D01*
X133030374Y-83448859D01*
X133091695Y-83415376D01*
X133161386Y-83420360D01*
X133186945Y-83433441D01*
X133210812Y-83449389D01*
X133210827Y-83449397D01*
X133356498Y-83509735D01*
X133356503Y-83509737D01*
X133511153Y-83540499D01*
X133511156Y-83540500D01*
X133511158Y-83540500D01*
X133668844Y-83540500D01*
X133668845Y-83540499D01*
X133823497Y-83509737D01*
X133936166Y-83463067D01*
X133969172Y-83449397D01*
X133969172Y-83449396D01*
X133969179Y-83449394D01*
X134100289Y-83361789D01*
X134211789Y-83250289D01*
X134299394Y-83119179D01*
X134359737Y-82973497D01*
X134390500Y-82818842D01*
X134390500Y-82771153D01*
X143419500Y-82771153D01*
X143419500Y-82928846D01*
X143450261Y-83083489D01*
X143450264Y-83083501D01*
X143510602Y-83229172D01*
X143510609Y-83229185D01*
X143598210Y-83360288D01*
X143598213Y-83360292D01*
X143709707Y-83471786D01*
X143709711Y-83471789D01*
X143840814Y-83559390D01*
X143840827Y-83559397D01*
X143986498Y-83619735D01*
X143986503Y-83619737D01*
X144141153Y-83650499D01*
X144141156Y-83650500D01*
X144141158Y-83650500D01*
X144298844Y-83650500D01*
X144298845Y-83650499D01*
X144453497Y-83619737D01*
X144595435Y-83560945D01*
X144599172Y-83559397D01*
X144599172Y-83559396D01*
X144599179Y-83559394D01*
X144627456Y-83540500D01*
X144730875Y-83471398D01*
X144797553Y-83450520D01*
X144799766Y-83450500D01*
X146409903Y-83450500D01*
X146476942Y-83470185D01*
X146497584Y-83486819D01*
X149613181Y-86602416D01*
X149646666Y-86663739D01*
X149649500Y-86690097D01*
X149649500Y-93460234D01*
X149629815Y-93527273D01*
X149628602Y-93529125D01*
X149540609Y-93660814D01*
X149540602Y-93660827D01*
X149480264Y-93806498D01*
X149480261Y-93806510D01*
X149449500Y-93961153D01*
X149449500Y-94118846D01*
X149480261Y-94273489D01*
X149480264Y-94273501D01*
X149540602Y-94419172D01*
X149540609Y-94419185D01*
X149628210Y-94550288D01*
X149628213Y-94550292D01*
X149739707Y-94661786D01*
X149739711Y-94661789D01*
X149870814Y-94749390D01*
X149870827Y-94749397D01*
X150016498Y-94809735D01*
X150016503Y-94809737D01*
X150171153Y-94840499D01*
X150171156Y-94840500D01*
X150171158Y-94840500D01*
X150328844Y-94840500D01*
X150328845Y-94840499D01*
X150483497Y-94809737D01*
X150629179Y-94749394D01*
X150760289Y-94661789D01*
X150871789Y-94550289D01*
X150959394Y-94419179D01*
X151019737Y-94273497D01*
X151050500Y-94118842D01*
X151050500Y-93961158D01*
X151050500Y-93961155D01*
X151050499Y-93961153D01*
X151019738Y-93806510D01*
X151019737Y-93806503D01*
X151019735Y-93806498D01*
X150959397Y-93660827D01*
X150959390Y-93660814D01*
X150871398Y-93529125D01*
X150850520Y-93462447D01*
X150850500Y-93460234D01*
X150850500Y-86479059D01*
X150850501Y-86479046D01*
X150850501Y-86310945D01*
X150850501Y-86310943D01*
X150809577Y-86158215D01*
X150769904Y-86089500D01*
X150750212Y-86055392D01*
X150730521Y-86021285D01*
X150614385Y-85905149D01*
X150614374Y-85905139D01*
X148460388Y-83751153D01*
X149449500Y-83751153D01*
X149449500Y-83908846D01*
X149480261Y-84063489D01*
X149480264Y-84063501D01*
X149540602Y-84209172D01*
X149540609Y-84209185D01*
X149628210Y-84340288D01*
X149628213Y-84340292D01*
X149739707Y-84451786D01*
X149739711Y-84451789D01*
X149870814Y-84539390D01*
X149870827Y-84539397D01*
X150016498Y-84599735D01*
X150016503Y-84599737D01*
X150171153Y-84630499D01*
X150171156Y-84630500D01*
X150171158Y-84630500D01*
X150328844Y-84630500D01*
X150328845Y-84630499D01*
X150483497Y-84599737D01*
X150629179Y-84539394D01*
X150760289Y-84451789D01*
X150871789Y-84340289D01*
X150959394Y-84209179D01*
X151019737Y-84063497D01*
X151050500Y-83908842D01*
X151050500Y-83751158D01*
X151038517Y-83690916D01*
X151044744Y-83621327D01*
X151087606Y-83566149D01*
X151135941Y-83545109D01*
X151263497Y-83519737D01*
X151409179Y-83459394D01*
X151540289Y-83371789D01*
X151651789Y-83260289D01*
X151739394Y-83129179D01*
X151799737Y-82983497D01*
X151830500Y-82828842D01*
X151830500Y-82671158D01*
X151830500Y-82671155D01*
X151811279Y-82574529D01*
X151817506Y-82504937D01*
X151860368Y-82449760D01*
X151926258Y-82426515D01*
X151994255Y-82442582D01*
X152020577Y-82462656D01*
X152059707Y-82501786D01*
X152059711Y-82501789D01*
X152190814Y-82589390D01*
X152190827Y-82589397D01*
X152336498Y-82649735D01*
X152336503Y-82649737D01*
X152491153Y-82680499D01*
X152491156Y-82680500D01*
X152491158Y-82680500D01*
X152648844Y-82680500D01*
X152648845Y-82680499D01*
X152803497Y-82649737D01*
X152949179Y-82589394D01*
X153031109Y-82534649D01*
X153097786Y-82513772D01*
X153165166Y-82532256D01*
X153168888Y-82534648D01*
X153250821Y-82589394D01*
X153250823Y-82589395D01*
X153250827Y-82589397D01*
X153396498Y-82649735D01*
X153396503Y-82649737D01*
X153551153Y-82680499D01*
X153551156Y-82680500D01*
X153551158Y-82680500D01*
X153708844Y-82680500D01*
X153708845Y-82680499D01*
X153863497Y-82649737D01*
X154009179Y-82589394D01*
X154076109Y-82544673D01*
X154142786Y-82523795D01*
X154210166Y-82542279D01*
X154213891Y-82544673D01*
X154280814Y-82589390D01*
X154280827Y-82589397D01*
X154426498Y-82649735D01*
X154426503Y-82649737D01*
X154581153Y-82680499D01*
X154581156Y-82680500D01*
X154581158Y-82680500D01*
X154738844Y-82680500D01*
X154738845Y-82680499D01*
X154893497Y-82649737D01*
X155039179Y-82589394D01*
X155170289Y-82501789D01*
X155281789Y-82390289D01*
X155369394Y-82259179D01*
X155429737Y-82113497D01*
X155460500Y-81958842D01*
X155460500Y-81912650D01*
X167960400Y-81912650D01*
X167960400Y-82157350D01*
X167971624Y-82228213D01*
X167998680Y-82399037D01*
X167998680Y-82399040D01*
X168074294Y-82631756D01*
X168074296Y-82631759D01*
X168185387Y-82849788D01*
X168329218Y-83047754D01*
X168502246Y-83220782D01*
X168700212Y-83364613D01*
X168918241Y-83475704D01*
X168918243Y-83475705D01*
X169022984Y-83509737D01*
X169150964Y-83551320D01*
X169392650Y-83589600D01*
X169392651Y-83589600D01*
X169637349Y-83589600D01*
X169637350Y-83589600D01*
X169879036Y-83551320D01*
X169879039Y-83551319D01*
X169879040Y-83551319D01*
X170111756Y-83475705D01*
X170111756Y-83475704D01*
X170111759Y-83475704D01*
X170329788Y-83364613D01*
X170527754Y-83220782D01*
X170700782Y-83047754D01*
X170844613Y-82849788D01*
X170955704Y-82631759D01*
X170969469Y-82589394D01*
X171031319Y-82399040D01*
X171031319Y-82399039D01*
X171031320Y-82399036D01*
X171069600Y-82157350D01*
X171069600Y-81912650D01*
X171031320Y-81670964D01*
X171031319Y-81670960D01*
X171031319Y-81670959D01*
X170955705Y-81438243D01*
X170955703Y-81438240D01*
X170947320Y-81421786D01*
X170844613Y-81220212D01*
X170700782Y-81022246D01*
X170527754Y-80849218D01*
X170329788Y-80705387D01*
X170111759Y-80594296D01*
X170111756Y-80594294D01*
X169879038Y-80518680D01*
X169717912Y-80493160D01*
X169637350Y-80480400D01*
X169392650Y-80480400D01*
X169312088Y-80493160D01*
X169150962Y-80518680D01*
X169150959Y-80518680D01*
X168918243Y-80594294D01*
X168918240Y-80594296D01*
X168700211Y-80705387D01*
X168587265Y-80787447D01*
X168502246Y-80849218D01*
X168502244Y-80849220D01*
X168502243Y-80849220D01*
X168329220Y-81022243D01*
X168329220Y-81022244D01*
X168329218Y-81022246D01*
X168321044Y-81033497D01*
X168185387Y-81220211D01*
X168074296Y-81438240D01*
X168074294Y-81438243D01*
X167998680Y-81670959D01*
X167998680Y-81670962D01*
X167986369Y-81748692D01*
X167960400Y-81912650D01*
X155460500Y-81912650D01*
X155460500Y-81801158D01*
X155460500Y-81801155D01*
X155460499Y-81801153D01*
X155447463Y-81735618D01*
X155429737Y-81646503D01*
X155392858Y-81557470D01*
X155385390Y-81488004D01*
X155416665Y-81425524D01*
X155419739Y-81422338D01*
X155420285Y-81421791D01*
X155420289Y-81421789D01*
X155531789Y-81310289D01*
X155619394Y-81179179D01*
X155679737Y-81033497D01*
X155710500Y-80878842D01*
X155710500Y-80721158D01*
X155710500Y-80721155D01*
X155710499Y-80721153D01*
X155686888Y-80602454D01*
X155679737Y-80566503D01*
X155674972Y-80555000D01*
X155619397Y-80420827D01*
X155619390Y-80420814D01*
X155531789Y-80289711D01*
X155531786Y-80289707D01*
X155420292Y-80178213D01*
X155420288Y-80178210D01*
X155289185Y-80090609D01*
X155289172Y-80090602D01*
X155143501Y-80030264D01*
X155143489Y-80030261D01*
X154988845Y-79999500D01*
X154988842Y-79999500D01*
X154831158Y-79999500D01*
X154831155Y-79999500D01*
X154676510Y-80030261D01*
X154676498Y-80030264D01*
X154530827Y-80090602D01*
X154530816Y-80090608D01*
X154463890Y-80135327D01*
X154397213Y-80156204D01*
X154329833Y-80137719D01*
X154326110Y-80135327D01*
X154259183Y-80090608D01*
X154259172Y-80090602D01*
X154113501Y-80030264D01*
X154113489Y-80030261D01*
X153958845Y-79999500D01*
X153958842Y-79999500D01*
X153801158Y-79999500D01*
X153801155Y-79999500D01*
X153646510Y-80030261D01*
X153646498Y-80030264D01*
X153500827Y-80090602D01*
X153500814Y-80090609D01*
X153373891Y-80175417D01*
X153307213Y-80196295D01*
X153239833Y-80177810D01*
X153236109Y-80175417D01*
X153109185Y-80090609D01*
X153109172Y-80090602D01*
X152963501Y-80030264D01*
X152963489Y-80030261D01*
X152808845Y-79999500D01*
X152808842Y-79999500D01*
X152651158Y-79999500D01*
X152651155Y-79999500D01*
X152496510Y-80030261D01*
X152496498Y-80030264D01*
X152350827Y-80090602D01*
X152350814Y-80090609D01*
X152248891Y-80158713D01*
X152182213Y-80179591D01*
X152114833Y-80161107D01*
X152111109Y-80158713D01*
X152009185Y-80090609D01*
X152009172Y-80090602D01*
X151863501Y-80030264D01*
X151863489Y-80030261D01*
X151708845Y-79999500D01*
X151708842Y-79999500D01*
X151551158Y-79999500D01*
X151551155Y-79999500D01*
X151396510Y-80030261D01*
X151396498Y-80030264D01*
X151250827Y-80090602D01*
X151250814Y-80090609D01*
X151119711Y-80178210D01*
X151119707Y-80178213D01*
X151008213Y-80289707D01*
X151008210Y-80289711D01*
X150920609Y-80420814D01*
X150920602Y-80420827D01*
X150860264Y-80566498D01*
X150860261Y-80566510D01*
X150829500Y-80721153D01*
X150829500Y-80878846D01*
X150860261Y-81033489D01*
X150860264Y-81033501D01*
X150920602Y-81179172D01*
X150920609Y-81179185D01*
X151008210Y-81310288D01*
X151008213Y-81310292D01*
X151119707Y-81421786D01*
X151119711Y-81421789D01*
X151250814Y-81509390D01*
X151250827Y-81509397D01*
X151396498Y-81569735D01*
X151396503Y-81569737D01*
X151546121Y-81599498D01*
X151551153Y-81600499D01*
X151551156Y-81600500D01*
X151658319Y-81600500D01*
X151725358Y-81620185D01*
X151771113Y-81672989D01*
X151781057Y-81742147D01*
X151779936Y-81748692D01*
X151769500Y-81801155D01*
X151769500Y-81958846D01*
X151788720Y-82055471D01*
X151782493Y-82125062D01*
X151739630Y-82180240D01*
X151673740Y-82203484D01*
X151605743Y-82187416D01*
X151579422Y-82167343D01*
X151540292Y-82128213D01*
X151540288Y-82128210D01*
X151409185Y-82040609D01*
X151409172Y-82040602D01*
X151263501Y-81980264D01*
X151263489Y-81980261D01*
X151108845Y-81949500D01*
X151108842Y-81949500D01*
X150951158Y-81949500D01*
X150951155Y-81949500D01*
X150796510Y-81980261D01*
X150796498Y-81980264D01*
X150650827Y-82040602D01*
X150650814Y-82040609D01*
X150519711Y-82128210D01*
X150519707Y-82128213D01*
X150408213Y-82239707D01*
X150408210Y-82239711D01*
X150320609Y-82370814D01*
X150320602Y-82370827D01*
X150260264Y-82516498D01*
X150260261Y-82516510D01*
X150229500Y-82671153D01*
X150229500Y-82671158D01*
X150229500Y-82828842D01*
X150229500Y-82828844D01*
X150229499Y-82828844D01*
X150241482Y-82889081D01*
X150235255Y-82958673D01*
X150192392Y-83013850D01*
X150144057Y-83034890D01*
X150016508Y-83060261D01*
X150016498Y-83060264D01*
X149870827Y-83120602D01*
X149870814Y-83120609D01*
X149739711Y-83208210D01*
X149739707Y-83208213D01*
X149628213Y-83319707D01*
X149628210Y-83319711D01*
X149540609Y-83450814D01*
X149540602Y-83450827D01*
X149480264Y-83596498D01*
X149480261Y-83596510D01*
X149449500Y-83751153D01*
X148460388Y-83751153D01*
X147197590Y-82488355D01*
X147197588Y-82488352D01*
X147078717Y-82369481D01*
X147078716Y-82369480D01*
X146991904Y-82319360D01*
X146991904Y-82319359D01*
X146991900Y-82319358D01*
X146941785Y-82290423D01*
X146789057Y-82249499D01*
X146630943Y-82249499D01*
X146623347Y-82249499D01*
X146623331Y-82249500D01*
X144799766Y-82249500D01*
X144732727Y-82229815D01*
X144730875Y-82228602D01*
X144599185Y-82140609D01*
X144599172Y-82140602D01*
X144453501Y-82080264D01*
X144453489Y-82080261D01*
X144298845Y-82049500D01*
X144298842Y-82049500D01*
X144141158Y-82049500D01*
X144141155Y-82049500D01*
X143986510Y-82080261D01*
X143986498Y-82080264D01*
X143840827Y-82140602D01*
X143840814Y-82140609D01*
X143709711Y-82228210D01*
X143709707Y-82228213D01*
X143598213Y-82339707D01*
X143598210Y-82339711D01*
X143510609Y-82470814D01*
X143510602Y-82470827D01*
X143450264Y-82616498D01*
X143450261Y-82616510D01*
X143419500Y-82771153D01*
X134390500Y-82771153D01*
X134390500Y-82661158D01*
X134390500Y-82661155D01*
X134390499Y-82661153D01*
X134384652Y-82631759D01*
X134359737Y-82506503D01*
X134341575Y-82462656D01*
X134299397Y-82360827D01*
X134299390Y-82360814D01*
X134211789Y-82229711D01*
X134211786Y-82229707D01*
X134100292Y-82118213D01*
X134100288Y-82118210D01*
X133969185Y-82030609D01*
X133969172Y-82030602D01*
X133823501Y-81970264D01*
X133823489Y-81970261D01*
X133668845Y-81939500D01*
X133668842Y-81939500D01*
X133511158Y-81939500D01*
X133511155Y-81939500D01*
X133356510Y-81970261D01*
X133356498Y-81970264D01*
X133210827Y-82030602D01*
X133210814Y-82030609D01*
X133079711Y-82118210D01*
X133079707Y-82118213D01*
X133074740Y-82123181D01*
X133047812Y-82137884D01*
X133021994Y-82154477D01*
X133015793Y-82155368D01*
X133013417Y-82156666D01*
X132987059Y-82159500D01*
X132956669Y-82159500D01*
X132956653Y-82159499D01*
X132949057Y-82159499D01*
X132790943Y-82159499D01*
X132713538Y-82180240D01*
X132638216Y-82200422D01*
X132596513Y-82224500D01*
X132596512Y-82224499D01*
X132501287Y-82279477D01*
X132501282Y-82279481D01*
X131509481Y-83271282D01*
X131509475Y-83271290D01*
X131460988Y-83355274D01*
X131460988Y-83355275D01*
X131430423Y-83408214D01*
X131430423Y-83408215D01*
X131389499Y-83560943D01*
X131389499Y-83560945D01*
X131389499Y-83729046D01*
X131389500Y-83729059D01*
X131389500Y-97529902D01*
X131369815Y-97596941D01*
X131353181Y-97617583D01*
X122114481Y-106856282D01*
X122114477Y-106856287D01*
X122066314Y-106939710D01*
X122066314Y-106939711D01*
X122035423Y-106993214D01*
X122035423Y-106993215D01*
X121994499Y-107145943D01*
X121994499Y-107145945D01*
X121994499Y-107314046D01*
X121994500Y-107314059D01*
X121994500Y-109548330D01*
X121994499Y-109548348D01*
X121994499Y-109714054D01*
X121994498Y-109714054D01*
X121994499Y-109714057D01*
X122035423Y-109866785D01*
X122062886Y-109914351D01*
X122079500Y-109976352D01*
X122079500Y-116494231D01*
X122059815Y-116561270D01*
X122007011Y-116607025D01*
X121937853Y-116616969D01*
X121931309Y-116615848D01*
X121798846Y-116589500D01*
X121798842Y-116589500D01*
X121641158Y-116589500D01*
X121641155Y-116589500D01*
X121486510Y-116620261D01*
X121486498Y-116620264D01*
X121392452Y-116659219D01*
X121322982Y-116666688D01*
X121297548Y-116659219D01*
X121203501Y-116620264D01*
X121203489Y-116620261D01*
X121048845Y-116589500D01*
X121048842Y-116589500D01*
X120891158Y-116589500D01*
X120891155Y-116589500D01*
X120736510Y-116620261D01*
X120736498Y-116620264D01*
X120590827Y-116680602D01*
X120590814Y-116680609D01*
X120459711Y-116768210D01*
X120459707Y-116768213D01*
X120348213Y-116879707D01*
X120348210Y-116879711D01*
X120260609Y-117010814D01*
X120260602Y-117010827D01*
X120200264Y-117156498D01*
X120200261Y-117156510D01*
X120169500Y-117311153D01*
X116210500Y-117311153D01*
X116210500Y-100337650D01*
X119405400Y-100337650D01*
X119405400Y-100582349D01*
X119443680Y-100824037D01*
X119443680Y-100824040D01*
X119519294Y-101056756D01*
X119519296Y-101056759D01*
X119630387Y-101274788D01*
X119774218Y-101472754D01*
X119947246Y-101645782D01*
X120145212Y-101789613D01*
X120363241Y-101900704D01*
X120363243Y-101900705D01*
X120580311Y-101971234D01*
X120595964Y-101976320D01*
X120837650Y-102014600D01*
X120837651Y-102014600D01*
X121082349Y-102014600D01*
X121082350Y-102014600D01*
X121324036Y-101976320D01*
X121324039Y-101976319D01*
X121324040Y-101976319D01*
X121556756Y-101900705D01*
X121556756Y-101900704D01*
X121556759Y-101900704D01*
X121774788Y-101789613D01*
X121972754Y-101645782D01*
X122145782Y-101472754D01*
X122289613Y-101274788D01*
X122400704Y-101056759D01*
X122476320Y-100824036D01*
X122514600Y-100582350D01*
X122514600Y-100337650D01*
X122476320Y-100095964D01*
X122476319Y-100095960D01*
X122476319Y-100095959D01*
X122400705Y-99863243D01*
X122400703Y-99863240D01*
X122289612Y-99645211D01*
X122145782Y-99447246D01*
X121972754Y-99274218D01*
X121774788Y-99130387D01*
X121556759Y-99019296D01*
X121556756Y-99019294D01*
X121324038Y-98943680D01*
X121162912Y-98918160D01*
X121082350Y-98905400D01*
X120837650Y-98905400D01*
X120757088Y-98918160D01*
X120595962Y-98943680D01*
X120595959Y-98943680D01*
X120363243Y-99019294D01*
X120363240Y-99019296D01*
X120145211Y-99130387D01*
X120050538Y-99199172D01*
X119947246Y-99274218D01*
X119947244Y-99274220D01*
X119947243Y-99274220D01*
X119774220Y-99447243D01*
X119774220Y-99447244D01*
X119774218Y-99447246D01*
X119714537Y-99529390D01*
X119630387Y-99645211D01*
X119519296Y-99863240D01*
X119519294Y-99863243D01*
X119443680Y-100095959D01*
X119443680Y-100095962D01*
X119405400Y-100337650D01*
X116210500Y-100337650D01*
X116210500Y-86092788D01*
X117266101Y-86092788D01*
X117266101Y-86247211D01*
X117296224Y-86398647D01*
X117296227Y-86398659D01*
X117355314Y-86541309D01*
X117355321Y-86541322D01*
X117441105Y-86669706D01*
X117441108Y-86669710D01*
X117550290Y-86778892D01*
X117550294Y-86778895D01*
X117678678Y-86864679D01*
X117678691Y-86864686D01*
X117821341Y-86923773D01*
X117821346Y-86923775D01*
X117972789Y-86953899D01*
X117972792Y-86953900D01*
X117972794Y-86953900D01*
X118127210Y-86953900D01*
X118127211Y-86953899D01*
X118278656Y-86923775D01*
X118421317Y-86864683D01*
X118501430Y-86811153D01*
X122229500Y-86811153D01*
X122229500Y-86968846D01*
X122260261Y-87123489D01*
X122260264Y-87123501D01*
X122320602Y-87269172D01*
X122320609Y-87269185D01*
X122408210Y-87400288D01*
X122408213Y-87400292D01*
X122420240Y-87412319D01*
X122453725Y-87473642D01*
X122448741Y-87543334D01*
X122420240Y-87587681D01*
X122408213Y-87599707D01*
X122408210Y-87599711D01*
X122320609Y-87730814D01*
X122320602Y-87730827D01*
X122260264Y-87876498D01*
X122260261Y-87876510D01*
X122229500Y-88031153D01*
X122229500Y-88188846D01*
X122260261Y-88343489D01*
X122260264Y-88343501D01*
X122320602Y-88489172D01*
X122320609Y-88489185D01*
X122408210Y-88620288D01*
X122408213Y-88620292D01*
X122519707Y-88731786D01*
X122519711Y-88731789D01*
X122650814Y-88819390D01*
X122650827Y-88819397D01*
X122796498Y-88879735D01*
X122796503Y-88879737D01*
X122951153Y-88910499D01*
X122951156Y-88910500D01*
X122951158Y-88910500D01*
X123108844Y-88910500D01*
X123108845Y-88910499D01*
X123263497Y-88879737D01*
X123336104Y-88849662D01*
X123392548Y-88826283D01*
X123462017Y-88818814D01*
X123487452Y-88826283D01*
X123616498Y-88879735D01*
X123616503Y-88879737D01*
X123771153Y-88910499D01*
X123771156Y-88910500D01*
X123771158Y-88910500D01*
X123928844Y-88910500D01*
X123928845Y-88910499D01*
X124083497Y-88879737D01*
X124148033Y-88853005D01*
X124227548Y-88820070D01*
X124254321Y-88817191D01*
X124280465Y-88810752D01*
X124291479Y-88813196D01*
X124297017Y-88812601D01*
X124315145Y-88817309D01*
X124320382Y-88819101D01*
X124320821Y-88819394D01*
X124466503Y-88879737D01*
X124540747Y-88894505D01*
X124548573Y-88897183D01*
X124570614Y-88912762D01*
X124594529Y-88925272D01*
X124598717Y-88932626D01*
X124605629Y-88937512D01*
X124615747Y-88962533D01*
X124629104Y-88985987D01*
X124628651Y-88994439D01*
X124631824Y-89002285D01*
X124626809Y-89028803D01*
X124625365Y-89055757D01*
X124620362Y-89062895D01*
X124618842Y-89070938D01*
X124603010Y-89087658D01*
X124592612Y-89102497D01*
X124594018Y-89103903D01*
X124478213Y-89219707D01*
X124478210Y-89219711D01*
X124390609Y-89350814D01*
X124390602Y-89350827D01*
X124330264Y-89496498D01*
X124330261Y-89496510D01*
X124299500Y-89651153D01*
X124299500Y-89808846D01*
X124330261Y-89963489D01*
X124330264Y-89963501D01*
X124390602Y-90109172D01*
X124390612Y-90109190D01*
X124468735Y-90226110D01*
X124489613Y-90292787D01*
X124471128Y-90360167D01*
X124468735Y-90363890D01*
X124390612Y-90480809D01*
X124390602Y-90480827D01*
X124330264Y-90626498D01*
X124330261Y-90626510D01*
X124299500Y-90781153D01*
X124299500Y-90938846D01*
X124330261Y-91093489D01*
X124330264Y-91093501D01*
X124390602Y-91239172D01*
X124390609Y-91239185D01*
X124478210Y-91370288D01*
X124478213Y-91370292D01*
X124589707Y-91481786D01*
X124589711Y-91481789D01*
X124720814Y-91569390D01*
X124720827Y-91569397D01*
X124866498Y-91629735D01*
X124866503Y-91629737D01*
X125021153Y-91660499D01*
X125021156Y-91660500D01*
X125021158Y-91660500D01*
X125178844Y-91660500D01*
X125178845Y-91660499D01*
X125333497Y-91629737D01*
X125479179Y-91569394D01*
X125521109Y-91541376D01*
X125587785Y-91520498D01*
X125655165Y-91538982D01*
X125658866Y-91541360D01*
X125700821Y-91569394D01*
X125700823Y-91569395D01*
X125700825Y-91569396D01*
X125846498Y-91629735D01*
X125846503Y-91629737D01*
X126001153Y-91660499D01*
X126001156Y-91660500D01*
X126001158Y-91660500D01*
X126158844Y-91660500D01*
X126158845Y-91660499D01*
X126313497Y-91629737D01*
X126459179Y-91569394D01*
X126590289Y-91481789D01*
X126701789Y-91370289D01*
X126789394Y-91239179D01*
X126849737Y-91093497D01*
X126880500Y-90938842D01*
X126880500Y-90781158D01*
X126880500Y-90781155D01*
X126880499Y-90781153D01*
X126849738Y-90626510D01*
X126849737Y-90626503D01*
X126807068Y-90523489D01*
X126789397Y-90480827D01*
X126789390Y-90480814D01*
X126701789Y-90349711D01*
X126701786Y-90349707D01*
X126590292Y-90238213D01*
X126590288Y-90238210D01*
X126459185Y-90150609D01*
X126459172Y-90150602D01*
X126313501Y-90090264D01*
X126313489Y-90090261D01*
X126158845Y-90059500D01*
X126158842Y-90059500D01*
X126001735Y-90059500D01*
X125934696Y-90039815D01*
X125888941Y-89987011D01*
X125878997Y-89917853D01*
X125880118Y-89911308D01*
X125900500Y-89808844D01*
X125900500Y-89651155D01*
X125900499Y-89651153D01*
X125874463Y-89520263D01*
X125869737Y-89496503D01*
X125866836Y-89489500D01*
X125809397Y-89350827D01*
X125809390Y-89350814D01*
X125721789Y-89219711D01*
X125721786Y-89219707D01*
X125612499Y-89110420D01*
X125579014Y-89049097D01*
X125583998Y-88979405D01*
X125625870Y-88923472D01*
X125675989Y-88901122D01*
X125701579Y-88896031D01*
X125783497Y-88879737D01*
X125850331Y-88852053D01*
X125922548Y-88822141D01*
X125992017Y-88814672D01*
X126017452Y-88822141D01*
X126156498Y-88879735D01*
X126156503Y-88879737D01*
X126311153Y-88910499D01*
X126311156Y-88910500D01*
X126311158Y-88910500D01*
X126468844Y-88910500D01*
X126468845Y-88910499D01*
X126623497Y-88879737D01*
X126769179Y-88819394D01*
X126900289Y-88731789D01*
X127011789Y-88620289D01*
X127099394Y-88489179D01*
X127159737Y-88343497D01*
X127190500Y-88188842D01*
X127190500Y-88031158D01*
X127190500Y-88031155D01*
X127190499Y-88031153D01*
X127159738Y-87876510D01*
X127159737Y-87876503D01*
X127159735Y-87876498D01*
X127099397Y-87730827D01*
X127099390Y-87730814D01*
X127011790Y-87599712D01*
X127011785Y-87599707D01*
X126999759Y-87587681D01*
X126966275Y-87526362D01*
X126971257Y-87456670D01*
X126999759Y-87412318D01*
X127011789Y-87400289D01*
X127099394Y-87269179D01*
X127159737Y-87123497D01*
X127190500Y-86968842D01*
X127190500Y-86811158D01*
X127190500Y-86811155D01*
X127190499Y-86811153D01*
X127158549Y-86650528D01*
X127160472Y-86650145D01*
X127159925Y-86589331D01*
X127197169Y-86530215D01*
X127259809Y-86500721D01*
X127351582Y-86486186D01*
X127544380Y-86423542D01*
X127725004Y-86331509D01*
X127841037Y-86247207D01*
X127889002Y-86212359D01*
X127889004Y-86212356D01*
X127889008Y-86212354D01*
X128008574Y-86092788D01*
X129266097Y-86092788D01*
X129266097Y-86247211D01*
X129296220Y-86398647D01*
X129296223Y-86398659D01*
X129355310Y-86541309D01*
X129355317Y-86541322D01*
X129441101Y-86669706D01*
X129441104Y-86669710D01*
X129550286Y-86778892D01*
X129550290Y-86778895D01*
X129678674Y-86864679D01*
X129678687Y-86864686D01*
X129821337Y-86923773D01*
X129821342Y-86923775D01*
X129972785Y-86953899D01*
X129972788Y-86953900D01*
X129972790Y-86953900D01*
X130127206Y-86953900D01*
X130127207Y-86953899D01*
X130278652Y-86923775D01*
X130421313Y-86864683D01*
X130549704Y-86778895D01*
X130658892Y-86669707D01*
X130744680Y-86541316D01*
X130803772Y-86398655D01*
X130833897Y-86247207D01*
X130833897Y-86092793D01*
X130833897Y-86092790D01*
X130833896Y-86092788D01*
X130810617Y-85975758D01*
X130803772Y-85941345D01*
X130788721Y-85905008D01*
X130744683Y-85798690D01*
X130744676Y-85798677D01*
X130658892Y-85670293D01*
X130658889Y-85670289D01*
X130549707Y-85561107D01*
X130549703Y-85561104D01*
X130421319Y-85475320D01*
X130421306Y-85475313D01*
X130278656Y-85416226D01*
X130278644Y-85416223D01*
X130127207Y-85386100D01*
X130127204Y-85386100D01*
X129972790Y-85386100D01*
X129972787Y-85386100D01*
X129821349Y-85416223D01*
X129821337Y-85416226D01*
X129678687Y-85475313D01*
X129678674Y-85475320D01*
X129550290Y-85561104D01*
X129550286Y-85561107D01*
X129441104Y-85670289D01*
X129441101Y-85670293D01*
X129355317Y-85798677D01*
X129355310Y-85798690D01*
X129296223Y-85941340D01*
X129296220Y-85941352D01*
X129266097Y-86092788D01*
X128008574Y-86092788D01*
X128032353Y-86069009D01*
X128050660Y-86043812D01*
X128072451Y-86013819D01*
X128072453Y-86013816D01*
X128115190Y-85954993D01*
X128151508Y-85905005D01*
X128243541Y-85724381D01*
X128306185Y-85531583D01*
X128337898Y-85331359D01*
X128337898Y-85128639D01*
X128306185Y-84928415D01*
X128243541Y-84735617D01*
X128151508Y-84554993D01*
X128140172Y-84539390D01*
X128032358Y-84390994D01*
X127889002Y-84247638D01*
X127725007Y-84128491D01*
X127725006Y-84128490D01*
X127725004Y-84128489D01*
X127544380Y-84036456D01*
X127351582Y-83973812D01*
X127351580Y-83973811D01*
X127351578Y-83973811D01*
X127211780Y-83951669D01*
X127151358Y-83942099D01*
X126948638Y-83942099D01*
X126902222Y-83949450D01*
X126748417Y-83973811D01*
X126555613Y-84036457D01*
X126374988Y-84128491D01*
X126210993Y-84247638D01*
X126067637Y-84390994D01*
X125948490Y-84554989D01*
X125856456Y-84735614D01*
X125793810Y-84928418D01*
X125762098Y-85128639D01*
X125762098Y-85331358D01*
X125784899Y-85475320D01*
X125793811Y-85531583D01*
X125856455Y-85724381D01*
X125948487Y-85905004D01*
X125948490Y-85905008D01*
X125984805Y-85954992D01*
X126008285Y-86020798D01*
X125992460Y-86088852D01*
X125942354Y-86137547D01*
X125873876Y-86151422D01*
X125837036Y-86142439D01*
X125810087Y-86131277D01*
X125783497Y-86120263D01*
X125783493Y-86120262D01*
X125783489Y-86120261D01*
X125628845Y-86089500D01*
X125628842Y-86089500D01*
X125471158Y-86089500D01*
X125471155Y-86089500D01*
X125316510Y-86120261D01*
X125316503Y-86120263D01*
X125262959Y-86142441D01*
X125193490Y-86149908D01*
X125131011Y-86118633D01*
X125095359Y-86058543D01*
X125097854Y-85988718D01*
X125115187Y-85954997D01*
X125151509Y-85905005D01*
X125243542Y-85724381D01*
X125306186Y-85531583D01*
X125337899Y-85331359D01*
X125337899Y-85128639D01*
X125306186Y-84928415D01*
X125243542Y-84735617D01*
X125151509Y-84554993D01*
X125140173Y-84539390D01*
X125032359Y-84390994D01*
X124889003Y-84247638D01*
X124725008Y-84128491D01*
X124725007Y-84128490D01*
X124725005Y-84128489D01*
X124544381Y-84036456D01*
X124351583Y-83973812D01*
X124351581Y-83973811D01*
X124351579Y-83973811D01*
X124211781Y-83951669D01*
X124151359Y-83942099D01*
X123948639Y-83942099D01*
X123902223Y-83949450D01*
X123748418Y-83973811D01*
X123555614Y-84036457D01*
X123374989Y-84128491D01*
X123210994Y-84247638D01*
X123067638Y-84390994D01*
X122948491Y-84554989D01*
X122856457Y-84735614D01*
X122793811Y-84928418D01*
X122762099Y-85128639D01*
X122762099Y-85331358D01*
X122784900Y-85475320D01*
X122793812Y-85531583D01*
X122838880Y-85670289D01*
X122856457Y-85724383D01*
X122948490Y-85905007D01*
X122952083Y-85909952D01*
X122975565Y-85975758D01*
X122959741Y-86043812D01*
X122909636Y-86092508D01*
X122875959Y-86104457D01*
X122796508Y-86120261D01*
X122796498Y-86120264D01*
X122650827Y-86180602D01*
X122650814Y-86180609D01*
X122519711Y-86268210D01*
X122519707Y-86268213D01*
X122408213Y-86379707D01*
X122408210Y-86379711D01*
X122320609Y-86510814D01*
X122320602Y-86510827D01*
X122260264Y-86656498D01*
X122260261Y-86656510D01*
X122229500Y-86811153D01*
X118501430Y-86811153D01*
X118549708Y-86778895D01*
X118549711Y-86778892D01*
X118611219Y-86717385D01*
X118658893Y-86669710D01*
X118658896Y-86669707D01*
X118744684Y-86541316D01*
X118803776Y-86398655D01*
X118833901Y-86247207D01*
X118833901Y-86092793D01*
X118833901Y-86092790D01*
X118833900Y-86092788D01*
X118810621Y-85975758D01*
X118803776Y-85941345D01*
X118788725Y-85905008D01*
X118744687Y-85798690D01*
X118744680Y-85798677D01*
X118658896Y-85670293D01*
X118658893Y-85670289D01*
X118549711Y-85561107D01*
X118549707Y-85561104D01*
X118421323Y-85475320D01*
X118421310Y-85475313D01*
X118278660Y-85416226D01*
X118278648Y-85416223D01*
X118127211Y-85386100D01*
X118127208Y-85386100D01*
X117972794Y-85386100D01*
X117972791Y-85386100D01*
X117821353Y-85416223D01*
X117821341Y-85416226D01*
X117678691Y-85475313D01*
X117678678Y-85475320D01*
X117550294Y-85561104D01*
X117550290Y-85561107D01*
X117441108Y-85670289D01*
X117441105Y-85670293D01*
X117355321Y-85798677D01*
X117355314Y-85798690D01*
X117296227Y-85941340D01*
X117296224Y-85941352D01*
X117266101Y-86092788D01*
X116210500Y-86092788D01*
X116210500Y-82128640D01*
X119762100Y-82128640D01*
X119762100Y-82331359D01*
X119791423Y-82516498D01*
X119793813Y-82531584D01*
X119856457Y-82724382D01*
X119909684Y-82828846D01*
X119948492Y-82905009D01*
X120067639Y-83069004D01*
X120210995Y-83212360D01*
X120358748Y-83319707D01*
X120374994Y-83331510D01*
X120555618Y-83423543D01*
X120748416Y-83486187D01*
X120948640Y-83517900D01*
X120948641Y-83517900D01*
X121151359Y-83517900D01*
X121151360Y-83517900D01*
X121351584Y-83486187D01*
X121544382Y-83423543D01*
X121725006Y-83331510D01*
X121836798Y-83250289D01*
X121889004Y-83212360D01*
X121889006Y-83212357D01*
X121889010Y-83212355D01*
X122032355Y-83069010D01*
X122032357Y-83069006D01*
X122032360Y-83069004D01*
X122101749Y-82973497D01*
X122151510Y-82905006D01*
X122243543Y-82724382D01*
X122306187Y-82531584D01*
X122337900Y-82331360D01*
X122337900Y-82128640D01*
X122306187Y-81928416D01*
X122243543Y-81735618D01*
X122243541Y-81735615D01*
X122243540Y-81735610D01*
X122243539Y-81735609D01*
X122167289Y-81585961D01*
X122154392Y-81517292D01*
X122180668Y-81452552D01*
X122190082Y-81441995D01*
X122191789Y-81440289D01*
X122279394Y-81309179D01*
X122339737Y-81163497D01*
X122370500Y-81008842D01*
X122370500Y-80851158D01*
X122370500Y-80851155D01*
X122370499Y-80851153D01*
X122339737Y-80696503D01*
X122300778Y-80602449D01*
X122297270Y-80569821D01*
X122292602Y-80537353D01*
X122293448Y-80534268D01*
X122293310Y-80532984D01*
X122294395Y-80530815D01*
X122300776Y-80507555D01*
X122339737Y-80413497D01*
X122370500Y-80258842D01*
X122370500Y-80101158D01*
X122370500Y-80101155D01*
X122370499Y-80101153D01*
X122689500Y-80101153D01*
X122689500Y-80258846D01*
X122720261Y-80413489D01*
X122720264Y-80413501D01*
X122759219Y-80507548D01*
X122762726Y-80540172D01*
X122767396Y-80572647D01*
X122766442Y-80574734D01*
X122766688Y-80577018D01*
X122759219Y-80602452D01*
X122720264Y-80696498D01*
X122720261Y-80696510D01*
X122689500Y-80851153D01*
X122689500Y-81008846D01*
X122720261Y-81163489D01*
X122720264Y-81163501D01*
X122780602Y-81309172D01*
X122780609Y-81309185D01*
X122868210Y-81440288D01*
X122868213Y-81440292D01*
X122896404Y-81468483D01*
X122929889Y-81529806D01*
X122924905Y-81599498D01*
X122919208Y-81612458D01*
X122856458Y-81735612D01*
X122793811Y-81928419D01*
X122762099Y-82128640D01*
X122762099Y-82331359D01*
X122791422Y-82516498D01*
X122793812Y-82531584D01*
X122856456Y-82724382D01*
X122909683Y-82828846D01*
X122948491Y-82905009D01*
X123067638Y-83069004D01*
X123210994Y-83212360D01*
X123358747Y-83319707D01*
X123374993Y-83331510D01*
X123555617Y-83423543D01*
X123748415Y-83486187D01*
X123948639Y-83517900D01*
X123948640Y-83517900D01*
X124151358Y-83517900D01*
X124151359Y-83517900D01*
X124351583Y-83486187D01*
X124544381Y-83423543D01*
X124725005Y-83331510D01*
X124836797Y-83250289D01*
X124889003Y-83212360D01*
X124889005Y-83212357D01*
X124889009Y-83212355D01*
X125032354Y-83069010D01*
X125032356Y-83069006D01*
X125032359Y-83069004D01*
X125101748Y-82973497D01*
X125151509Y-82905006D01*
X125243542Y-82724382D01*
X125306186Y-82531584D01*
X125337899Y-82331360D01*
X125337899Y-82128640D01*
X125306186Y-81928416D01*
X125243542Y-81735618D01*
X125151509Y-81554994D01*
X125141688Y-81541477D01*
X125118210Y-81475672D01*
X125134036Y-81407618D01*
X125138882Y-81399740D01*
X125199394Y-81309179D01*
X125259737Y-81163497D01*
X125290500Y-81008842D01*
X125290500Y-80851158D01*
X125290500Y-80851155D01*
X125290499Y-80851153D01*
X125259737Y-80696503D01*
X125220778Y-80602449D01*
X125213310Y-80532984D01*
X125220775Y-80507556D01*
X125259737Y-80413497D01*
X125290500Y-80258842D01*
X125290500Y-80101158D01*
X125290500Y-80101155D01*
X125290499Y-80101153D01*
X125276398Y-80030263D01*
X125259737Y-79946503D01*
X125259735Y-79946498D01*
X125199397Y-79800827D01*
X125199390Y-79800814D01*
X125111789Y-79669711D01*
X125111786Y-79669707D01*
X125000292Y-79558213D01*
X125000288Y-79558210D01*
X124869185Y-79470609D01*
X124869172Y-79470602D01*
X124723501Y-79410264D01*
X124723489Y-79410261D01*
X124568845Y-79379500D01*
X124568842Y-79379500D01*
X124411158Y-79379500D01*
X124411155Y-79379500D01*
X124256510Y-79410261D01*
X124256498Y-79410264D01*
X124110827Y-79470602D01*
X124110814Y-79470609D01*
X124058891Y-79505304D01*
X123992214Y-79526182D01*
X123924833Y-79507698D01*
X123921109Y-79505304D01*
X123869185Y-79470609D01*
X123869172Y-79470602D01*
X123723501Y-79410264D01*
X123723489Y-79410261D01*
X123568845Y-79379500D01*
X123568842Y-79379500D01*
X123411158Y-79379500D01*
X123411155Y-79379500D01*
X123256510Y-79410261D01*
X123256498Y-79410264D01*
X123110827Y-79470602D01*
X123110814Y-79470609D01*
X122979711Y-79558210D01*
X122979707Y-79558213D01*
X122868213Y-79669707D01*
X122868210Y-79669711D01*
X122780609Y-79800814D01*
X122780602Y-79800827D01*
X122720264Y-79946498D01*
X122720261Y-79946510D01*
X122689500Y-80101153D01*
X122370499Y-80101153D01*
X122356398Y-80030263D01*
X122339737Y-79946503D01*
X122339735Y-79946498D01*
X122279397Y-79800827D01*
X122279390Y-79800814D01*
X122191789Y-79669711D01*
X122191786Y-79669707D01*
X122080292Y-79558213D01*
X122080288Y-79558210D01*
X121949185Y-79470609D01*
X121949172Y-79470602D01*
X121803501Y-79410264D01*
X121803489Y-79410261D01*
X121648845Y-79379500D01*
X121648842Y-79379500D01*
X121494500Y-79379500D01*
X121427461Y-79359815D01*
X121381706Y-79307011D01*
X121370500Y-79255500D01*
X121370500Y-79101155D01*
X121370499Y-79101153D01*
X121339738Y-78946510D01*
X121339737Y-78946503D01*
X121339735Y-78946498D01*
X121279397Y-78800827D01*
X121279390Y-78800814D01*
X121191789Y-78669711D01*
X121191786Y-78669707D01*
X121080292Y-78558213D01*
X121080288Y-78558210D01*
X120949185Y-78470609D01*
X120949172Y-78470602D01*
X120803501Y-78410264D01*
X120803489Y-78410261D01*
X120648845Y-78379500D01*
X120648842Y-78379500D01*
X120491158Y-78379500D01*
X120491155Y-78379500D01*
X120336510Y-78410261D01*
X120336498Y-78410264D01*
X120190827Y-78470602D01*
X120190814Y-78470609D01*
X120059711Y-78558210D01*
X120059707Y-78558213D01*
X119948213Y-78669707D01*
X119948210Y-78669711D01*
X119860609Y-78800814D01*
X119860602Y-78800827D01*
X119800264Y-78946498D01*
X119800261Y-78946510D01*
X119769500Y-79101153D01*
X119769500Y-79258846D01*
X119800261Y-79413489D01*
X119800264Y-79413501D01*
X119860602Y-79559172D01*
X119860609Y-79559185D01*
X119895304Y-79611109D01*
X119916182Y-79677786D01*
X119897698Y-79745167D01*
X119895304Y-79748891D01*
X119860609Y-79800814D01*
X119860602Y-79800827D01*
X119800264Y-79946498D01*
X119800261Y-79946510D01*
X119769500Y-80101153D01*
X119769500Y-80258846D01*
X119800261Y-80413489D01*
X119800264Y-80413501D01*
X119839219Y-80507548D01*
X119846688Y-80577018D01*
X119839219Y-80602452D01*
X119800264Y-80696498D01*
X119800261Y-80696510D01*
X119769500Y-80851153D01*
X119769500Y-81008846D01*
X119800261Y-81163489D01*
X119800264Y-81163501D01*
X119860602Y-81309172D01*
X119860609Y-81309185D01*
X119941150Y-81429722D01*
X119962028Y-81496399D01*
X119948533Y-81554908D01*
X119856458Y-81735615D01*
X119793812Y-81928419D01*
X119762100Y-82128640D01*
X116210500Y-82128640D01*
X116210500Y-77251153D01*
X119569500Y-77251153D01*
X119569500Y-77408846D01*
X119600261Y-77563489D01*
X119600264Y-77563501D01*
X119660602Y-77709172D01*
X119660609Y-77709185D01*
X119748210Y-77840288D01*
X119748213Y-77840292D01*
X119859707Y-77951786D01*
X119859711Y-77951789D01*
X119990814Y-78039390D01*
X119990827Y-78039397D01*
X120136498Y-78099735D01*
X120136503Y-78099737D01*
X120291153Y-78130499D01*
X120291156Y-78130500D01*
X120291158Y-78130500D01*
X120448844Y-78130500D01*
X120448845Y-78130499D01*
X120603497Y-78099737D01*
X120749179Y-78039394D01*
X120880289Y-77951789D01*
X120991789Y-77840289D01*
X121079394Y-77709179D01*
X121139737Y-77563497D01*
X121170500Y-77408842D01*
X121170500Y-77251158D01*
X121170500Y-77251155D01*
X121170499Y-77251153D01*
X121139738Y-77096510D01*
X121139737Y-77096503D01*
X121139735Y-77096498D01*
X121079397Y-76950827D01*
X121079390Y-76950814D01*
X120991789Y-76819711D01*
X120991786Y-76819707D01*
X120880292Y-76708213D01*
X120880288Y-76708210D01*
X120749185Y-76620609D01*
X120749172Y-76620602D01*
X120603501Y-76560264D01*
X120603489Y-76560261D01*
X120448845Y-76529500D01*
X120448842Y-76529500D01*
X120291158Y-76529500D01*
X120291155Y-76529500D01*
X120136510Y-76560261D01*
X120136498Y-76560264D01*
X119990827Y-76620602D01*
X119990814Y-76620609D01*
X119859711Y-76708210D01*
X119859707Y-76708213D01*
X119748213Y-76819707D01*
X119748210Y-76819711D01*
X119660609Y-76950814D01*
X119660602Y-76950827D01*
X119600264Y-77096498D01*
X119600261Y-77096510D01*
X119569500Y-77251153D01*
X116210500Y-77251153D01*
X116210500Y-72328711D01*
X118024500Y-72328711D01*
X118024500Y-72571288D01*
X118056161Y-72811785D01*
X118118947Y-73046104D01*
X118211773Y-73270205D01*
X118211776Y-73270212D01*
X118333064Y-73480289D01*
X118333066Y-73480292D01*
X118333067Y-73480293D01*
X118480733Y-73672736D01*
X118480739Y-73672743D01*
X118652256Y-73844260D01*
X118652262Y-73844265D01*
X118844711Y-73991936D01*
X119054788Y-74113224D01*
X119278900Y-74206054D01*
X119513211Y-74268838D01*
X119693586Y-74292584D01*
X119753711Y-74300500D01*
X119753712Y-74300500D01*
X119996289Y-74300500D01*
X120044388Y-74294167D01*
X120236789Y-74268838D01*
X120471100Y-74206054D01*
X120695212Y-74113224D01*
X120905289Y-73991936D01*
X121097738Y-73844265D01*
X121269265Y-73672738D01*
X121416936Y-73480289D01*
X121538224Y-73270212D01*
X121631054Y-73046100D01*
X121693838Y-72811789D01*
X121725500Y-72571288D01*
X121725500Y-72328712D01*
X121725500Y-72328711D01*
X169899500Y-72328711D01*
X169899500Y-72571288D01*
X169931161Y-72811785D01*
X169993947Y-73046104D01*
X170086773Y-73270205D01*
X170086776Y-73270212D01*
X170208064Y-73480289D01*
X170208066Y-73480292D01*
X170208067Y-73480293D01*
X170355733Y-73672736D01*
X170355739Y-73672743D01*
X170527256Y-73844260D01*
X170527262Y-73844265D01*
X170719711Y-73991936D01*
X170929788Y-74113224D01*
X171153900Y-74206054D01*
X171388211Y-74268838D01*
X171568586Y-74292584D01*
X171628711Y-74300500D01*
X171628712Y-74300500D01*
X171871289Y-74300500D01*
X171919388Y-74294167D01*
X172111789Y-74268838D01*
X172346100Y-74206054D01*
X172570212Y-74113224D01*
X172780289Y-73991936D01*
X172972738Y-73844265D01*
X173144265Y-73672738D01*
X173291936Y-73480289D01*
X173413224Y-73270212D01*
X173506054Y-73046100D01*
X173568838Y-72811789D01*
X173600500Y-72571288D01*
X173600500Y-72328712D01*
X173568838Y-72088211D01*
X173506054Y-71853900D01*
X173413224Y-71629788D01*
X173291936Y-71419711D01*
X173144265Y-71227262D01*
X173144260Y-71227256D01*
X172972743Y-71055739D01*
X172972736Y-71055733D01*
X172780293Y-70908067D01*
X172780292Y-70908066D01*
X172780289Y-70908064D01*
X172570212Y-70786776D01*
X172570205Y-70786773D01*
X172346104Y-70693947D01*
X172111785Y-70631161D01*
X171871289Y-70599500D01*
X171871288Y-70599500D01*
X171628712Y-70599500D01*
X171628711Y-70599500D01*
X171388214Y-70631161D01*
X171153895Y-70693947D01*
X170929794Y-70786773D01*
X170929785Y-70786777D01*
X170719706Y-70908067D01*
X170527263Y-71055733D01*
X170527256Y-71055739D01*
X170355739Y-71227256D01*
X170355733Y-71227263D01*
X170208067Y-71419706D01*
X170086777Y-71629785D01*
X170086773Y-71629794D01*
X169993947Y-71853895D01*
X169931161Y-72088214D01*
X169899500Y-72328711D01*
X121725500Y-72328711D01*
X121693838Y-72088211D01*
X121631054Y-71853900D01*
X121538224Y-71629788D01*
X121416936Y-71419711D01*
X121269265Y-71227262D01*
X121269260Y-71227256D01*
X121097743Y-71055739D01*
X121097736Y-71055733D01*
X120905293Y-70908067D01*
X120905292Y-70908066D01*
X120905289Y-70908064D01*
X120695212Y-70786776D01*
X120695205Y-70786773D01*
X120471104Y-70693947D01*
X120236785Y-70631161D01*
X119996289Y-70599500D01*
X119996288Y-70599500D01*
X119753712Y-70599500D01*
X119753711Y-70599500D01*
X119513214Y-70631161D01*
X119278895Y-70693947D01*
X119054794Y-70786773D01*
X119054785Y-70786777D01*
X118844706Y-70908067D01*
X118652263Y-71055733D01*
X118652256Y-71055739D01*
X118480739Y-71227256D01*
X118480733Y-71227263D01*
X118333067Y-71419706D01*
X118211777Y-71629785D01*
X118211773Y-71629794D01*
X118118947Y-71853895D01*
X118056161Y-72088214D01*
X118024500Y-72328711D01*
X116210500Y-72328711D01*
X116210500Y-69074500D01*
X116230185Y-69007461D01*
X116282989Y-68961706D01*
X116334500Y-68950500D01*
X175300500Y-68950500D01*
X175367539Y-68970185D01*
G37*
%TD.AperFunction*%
%TD*%
M02*
